<svg xmlns="http://www.w3.org/2000/svg" xmlns:xlink="http://www.w3.org/1999/xlink" width="96" height="72.205322265625" viewBox="0 0 96 72.205322265625" fill="none">
<g >
<path     fill="#703F0D"  d="M3.272 25.8053L11.688 25.8053L11.688 27.9653L8.808 27.9653L8.808 37.0053L6.152 37.0053L6.152 27.9653L3.272 27.9653L3.272 25.8053ZM12.92 25.8053L20.792 25.8053L20.792 27.9813L15.56 27.9813L15.56 30.3813L20.104 30.3813L20.104 32.4133L15.56 32.4133L15.56 34.8293L20.792 34.8293L20.792 37.0053L12.92 37.0053L12.92 25.8053ZM26.264 37.1973Q26.088 37.2133 25.72 37.2133Q23.56 37.2133 21.88 36.2853L21.88 33.9333Q22.76 34.4773 23.816 34.8453Q24.872 35.2133 25.736 35.2133Q26.44 35.2133 26.848 34.8613Q27.256 34.5093 27.256 34.0613Q27.256 33.4373 26.776 32.9173Q26.296 32.3973 25.24 32.0773Q24.024 31.6933 23.344 31.3013Q22.664 30.9093 22.32 30.3173Q21.976 29.7253 21.976 28.8133Q21.976 27.9493 22.392 27.2373Q22.808 26.5253 23.616 26.0933Q24.424 25.6613 25.544 25.6133Q25.688 25.5973 25.992 25.5973Q26.824 25.5973 27.664 25.7653Q28.504 25.9333 29.08 26.1893L29.08 28.2533Q28.456 27.9813 27.624 27.8053Q26.792 27.6293 26.152 27.6293Q25.336 27.6293 24.904 27.9173Q24.472 28.2053 24.472 28.7173Q24.472 29.1813 24.936 29.5493Q25.4 29.9173 26.376 30.2533Q27.544 30.5893 28.28 31.0133Q29.016 31.4373 29.432 32.1173Q29.848 32.7973 29.848 33.8213Q29.848 34.7973 29.4 35.5493Q28.952 36.3013 28.144 36.7253Q27.336 37.1493 26.264 37.1973ZM31.32 25.8053L39.192 25.8053L39.192 27.9813L33.96 27.9813L33.96 30.3813L38.504 30.3813L38.504 32.4133L33.96 32.4133L33.96 34.8293L39.192 34.8293L39.192 37.0053L31.32 37.0053L31.32 25.8053ZM39.944 25.8053L48.36 25.8053L48.36 27.9653L45.48 27.9653L45.48 37.0053L42.824 37.0053L42.824 27.9653L39.944 27.9653L39.944 25.8053ZM49.64 25.8053L52.28 25.8053L52.28 37.0053L49.64 37.0053L49.64 25.8053ZM53.448 25.8053L56.36 25.8053L58.44 30.0453L58.504 30.0453L60.584 25.8053L63.496 25.8053L59.8 32.4613L59.8 37.0053L57.16 37.0053L57.16 32.4933L53.448 25.8053ZM71.24 33.8373L67.656 33.8373L66.808 37.0053L64.008 37.0053L67.256 25.8053L71.656 25.8053L74.904 37.0053L72.088 37.0053L71.24 33.8373ZM70.728 31.9173L69.464 27.2293L69.432 27.2293L68.168 31.9173L70.728 31.9173ZM78.904 28.3013L78.808 28.3013L78.808 37.0053L76.216 37.0053L76.216 25.8053L80.424 25.8053L83.096 34.6533L83.304 34.6533L83.304 25.8053L85.896 25.8053L85.896 37.0053L81.592 37.0053L78.904 28.3013Z">
</path>
</g>
<g >
<path     fill="#4D2906"  d="M14.616 0.0853214Q14.688 -0.0106773 14.76 0.00132179Q14.832 0.0133228 15.048 0.133322Q15.312 0.301323 15.684 0.361322Q16.056 0.421322 16.092 0.481321Q16.128 0.541323 16.548 0.829323Q16.968 1.11732 16.92 1.24932Q16.872 1.38132 16.956 1.47732Q17.04 1.57332 17.004 1.76532Q16.968 1.95732 16.92 3.18132Q16.872 4.40532 16.848 4.52532Q16.824 4.59732 16.86 4.63332Q16.896 4.66932 17.016 4.69332Q17.232 4.71732 17.232 4.77732Q17.232 4.83732 17.328 4.83732Q18 4.90932 18.168 5.05332Q18.264 5.14932 18.228 5.34132Q18.192 5.53332 18.384 5.67732Q18.576 5.82132 18.48 5.94132Q18.384 6.06132 18.516 6.15732Q18.648 6.25332 18.552 6.32532Q18.504 6.42132 17.82 6.70932Q17.136 6.99732 16.824 7.09332Q16.656 7.16532 16.584 8.07732L16.512 8.50932L16.848 8.46132Q17.208 8.38932 17.316 8.34132Q17.424 8.29332 17.472 8.34132Q17.544 8.41332 17.676 8.40132Q17.808 8.38932 17.88 8.29332Q17.928 8.14932 18.06 8.23332Q18.192 8.31732 18.312 8.17332Q18.432 8.02932 18.48 8.12532Q18.528 8.19732 18.66 8.19732Q18.792 8.19732 18.888 8.14932Q18.984 8.10132 18.936 8.00532Q18.912 7.93332 19.008 7.93332Q19.128 7.93332 19.428 8.06532Q19.728 8.19732 20.016 8.28132Q20.304 8.36532 20.292 8.43732Q20.28 8.50932 20.532 8.58132Q20.784 8.65332 20.784 8.74932Q20.784 8.84532 20.868 8.84532Q20.952 8.84532 21.072 8.90532Q21.192 8.96532 21.072 9.03732Q20.952 9.10932 21.072 9.18132Q21.192 9.25332 21.228 9.43332Q21.264 9.61332 21.348 9.61332Q21.432 9.61332 21.348 9.70932Q21.264 9.80532 21.312 9.94932Q21.312 10.0453 21.288 10.0453Q21.096 9.94932 20.232 9.99732Q19.368 10.0453 18.432 10.2853Q18.288 10.3093 18.288 10.3693Q18.288 10.4293 18.456 10.4773Q18.624 10.5253 18.624 10.5733Q18.624 10.6213 18.72 10.6213Q18.816 10.6213 18.996 10.8373Q19.176 11.0533 19.2 11.2213Q19.248 11.3893 19.392 11.5453Q19.536 11.7013 19.5 11.9413Q19.464 12.1813 19.596 12.1813Q19.728 12.1813 19.884 12.3013Q20.04 12.4213 20.196 12.4813Q20.352 12.5413 20.316 12.6733Q20.28 12.8053 20.508 12.9973Q20.736 13.1893 20.76 13.3333Q20.76 13.4533 20.676 13.4773Q20.592 13.5013 20.304 13.5253Q19.536 13.6213 19.536 13.7413Q19.536 13.8373 19.416 14.0653Q19.296 14.2933 19.272 14.5333Q19.248 14.8453 19.236 16.4653Q19.224 18.0853 19.248 18.6373Q19.296 19.3813 19.236 19.4053Q19.176 19.4293 19.248 19.5253Q19.296 19.5733 19.332 20.1493Q19.368 20.7253 19.296 20.8453Q19.296 20.9173 19.356 21.0853Q19.416 21.2533 19.332 21.3493Q19.248 21.4453 19.296 21.5053Q19.344 21.5653 19.248 21.9733Q19.176 22.2853 19.104 22.2853Q19.056 22.1653 18.852 22.4173Q18.648 22.6693 18.636 22.7533Q18.624 22.8373 18.504 22.8853Q18.36 23.0053 18.144 23.4613Q18.072 23.6053 18.012 23.6053Q17.952 23.6053 17.916 23.4613Q17.88 23.3173 17.928 23.2933Q18 23.2453 17.988 23.1733Q17.976 23.1013 17.88 23.1253Q17.592 23.1733 17.544 22.9813Q17.52 22.8853 17.448 22.7653Q17.376 22.6453 17.292 22.5613Q17.208 22.4773 17.196 22.5013Q17.184 22.5253 17.088 22.4173Q16.992 22.3093 16.908 22.1653Q16.824 22.0213 16.824 21.9973Q16.824 21.9013 16.5 21.2893Q16.176 20.6773 16.176 20.5093Q16.176 20.3413 16.104 20.2933Q16.056 20.2213 16.14 20.0653Q16.224 19.9093 16.32 19.9093Q16.416 19.9093 16.368 19.7653Q16.32 19.6213 16.368 19.6453Q16.416 19.6693 16.584 19.8133Q16.968 20.1493 17.088 20.0773Q17.16 20.0773 17.124 17.3053Q17.088 14.5333 17.064 14.4973Q17.04 14.4613 14.928 15.2053Q14.232 15.4693 14.232 15.5173Q14.232 15.5653 14.568 15.7333Q15.432 16.1173 15.912 16.5733Q16.104 16.7413 16.104 16.9693Q16.104 17.1973 16.188 17.3413Q16.272 17.4853 16.272 17.7133Q16.272 17.9413 16.368 18.0853Q16.464 18.2293 16.368 18.2653Q16.272 18.3013 16.296 18.5653Q16.32 18.8293 16.44 18.9493Q16.536 19.0453 16.476 19.1053Q16.416 19.1653 16.464 19.3333Q16.464 19.4533 16.44 19.4533Q16.344 19.3813 16.152 19.2133Q15.96 19.0453 15.888 19.1413Q15.816 19.2373 15.708 19.1053Q15.6 18.9733 15.108 18.7333Q14.616 18.4933 14.532 18.2773Q14.448 18.0613 14.004 17.5813Q13.56 17.1013 13.44 16.7533Q13.32 16.4053 13.248 16.3213Q13.176 16.2373 13.26 16.2133Q13.344 16.1893 13.248 16.0213Q13.152 15.8533 13.176 15.7573Q13.2 15.6613 13.104 15.6613Q13.008 15.6613 12.876 15.6253Q12.744 15.5893 12.252 15.5293Q11.76 15.4693 11.736 15.3973Q11.712 15.3253 11.592 15.3253Q11.472 15.3253 11.424 15.2533Q11.376 15.1813 11.184 15.1813Q11.088 15.1813 11.052 15.1453Q11.016 15.1093 11.064 14.9893Q11.112 14.8213 10.944 14.8213Q10.824 14.8213 10.8 14.7613Q10.776 14.7013 10.8 14.3653Q10.824 14.2693 10.992 14.2693Q11.16 14.2693 11.352 14.1613Q11.544 14.0533 11.652 14.0533Q11.76 14.0533 11.844 13.9693Q11.928 13.8853 11.928 13.9453Q11.928 14.0053 12.096 13.8493Q12.264 13.6933 12.312 13.7173Q12.432 13.7413 12.636 13.6693Q12.84 13.5973 12.912 13.5013Q12.984 13.3813 13.008 13.4293Q13.008 13.4533 13.14 13.4053Q13.272 13.3573 13.404 13.2973Q13.536 13.2373 13.56 13.1653Q13.608 13.0933 13.884 13.0933Q14.16 13.0933 14.208 13.0213Q14.256 12.9493 14.376 12.9493Q14.496 12.9493 14.496 12.8773Q14.496 12.8053 14.736 12.7213Q14.976 12.6373 15 12.7333Q15.048 12.9253 15.312 12.6373Q15.408 12.4933 15.48 12.5893Q15.552 12.6853 15.588 12.5293Q15.624 12.3733 15.816 12.4213Q16.056 12.4453 16.548 12.3373Q17.04 12.2293 17.064 12.1333Q17.136 11.9893 17.016 11.3413Q16.896 10.6933 16.848 10.6693Q16.728 10.6213 16.224 10.7653Q15.672 10.9333 13.86 11.6533Q12.048 12.3733 11.928 12.4933Q11.808 12.5893 11.772 12.5533Q11.736 12.5173 11.64 12.5653Q11.544 12.6133 11.712 12.6853Q11.88 12.7093 11.736 12.8053Q11.688 12.8293 11.616 12.9253Q11.328 13.1173 10.704 13.6453L9.816 14.3893L9.528 14.6053L9.552 16.6453Q9.624 21.2773 9.48 21.4213Q9.432 21.4693 9.432 21.8293Q9.432 22.1893 9.336 22.3813L9.24 22.5733L9.168 22.3813Q9.144 22.1893 9.012 22.2373Q8.88 22.2853 8.832 22.1413Q8.784 21.9973 8.688 21.9733Q8.544 21.9253 8.28 21.6013Q8.016 21.2773 7.896 21.0133Q7.8 20.7013 7.74 20.6773Q7.68 20.6533 7.656 18.4693Q7.656 17.8933 7.656 17.3773Q7.656 16.8613 7.644 16.5733Q7.632 16.2853 7.608 16.2853Q7.584 16.2853 7.056 16.9333Q6.528 17.5573 5.82 18.2293Q5.112 18.9013 5.016 18.9493Q4.68 18.9733 4.5 18.8893Q4.32 18.8053 3.888 18.3253Q3.264 17.7493 3.096 17.7253Q2.976 17.7253 2.94 17.6893Q2.904 17.6533 2.928 17.5093Q2.976 17.2933 2.808 17.2213Q2.496 17.1493 2.712 16.6693Q2.856 16.4053 2.928 16.3453Q3 16.2853 3.072 16.3573Q3.288 16.4533 4.464 15.3973Q5.088 14.8213 5.184 14.8213Q5.28 14.8213 5.376 14.6533Q5.472 14.4853 5.544 14.5333Q5.568 14.5573 5.832 14.4133Q6.096 14.2693 6.144 14.1973Q6.192 14.1733 6.312 14.1133Q6.432 14.0533 6.384 13.9333Q6.36 13.8853 6.372 13.8613Q6.384 13.8373 6.432 13.8613Q6.576 13.9093 6.576 13.8493Q6.576 13.7893 6.672 13.7893Q6.768 13.7893 6.768 13.6693Q6.768 13.3573 6.96 13.5253Q7.08 13.6213 7.104 13.5013Q7.128 13.4533 7.308 13.3573Q7.488 13.2613 7.584 13.2853Q7.584 13.2853 7.596 13.2733Q7.608 13.2613 7.608 13.2373Q7.608 13.1413 7.716 13.1413Q7.824 13.1413 7.788 13.0453Q7.752 12.9493 7.632 12.9733Q7.536 12.9973 7.584 12.9733Q7.584 12.9493 7.608 12.9253Q7.704 12.8053 7.8 12.8773Q7.848 12.9253 7.872 12.8053Q7.896 12.7573 7.896 12.6853Q7.944 12.4933 7.98 11.9173Q8.016 11.3413 8.016 10.9213Q8.016 10.5013 8.016 10.4293Q7.968 10.4293 7.5 10.6453Q7.032 10.8613 6.792 10.9333Q6 11.2453 5.928 11.6293Q5.856 11.7733 5.832 11.7853Q5.808 11.7973 5.736 11.7013Q5.592 11.6053 5.46 11.6653Q5.328 11.7253 5.256 11.5213Q5.184 11.3173 4.968 11.2453Q4.752 11.1733 4.716 11.0653Q4.68 10.9573 4.368 10.7413Q3.84 10.3813 3.96 10.0213Q4.008 9.92532 3.888 9.80532Q3.744 9.68532 3.684 9.44532Q3.624 9.20532 3.732 9.12132Q3.84 9.03732 3.84 8.90532Q3.84 8.77332 3.936 8.73732Q4.032 8.70132 4.176 8.36532Q4.344 7.90932 4.728 7.04532Q4.824 6.82932 4.824 6.75732Q4.824 6.68532 5.016 6.27732Q5.136 5.98932 5.16 5.89332Q5.184 5.79732 5.088 5.55732Q4.944 5.19732 5.04 5.10132Q5.136 5.00532 5.22 5.00532Q5.304 5.00532 5.544 5.14932Q5.808 5.24532 6.312 5.38932Q7.032 5.58132 7.488 6.30132Q7.848 6.82932 7.776 7.45332Q7.752 7.83732 7.872 7.78932Q7.896 7.76532 7.968 7.66932Q8.088 7.54932 8.04 5.25732Q7.992 2.96532 7.848 2.24532Q7.824 2.05332 7.752 1.95732Q7.656 1.86132 7.716 1.60932Q7.776 1.35732 7.872 1.32132Q7.968 1.28532 8.112 1.42932Q8.256 1.57332 8.688 1.75332Q9.12 1.93332 9.216 2.00532Q9.312 2.07732 9.48 2.12532Q9.672 2.22132 9.864 2.38932Q10.056 2.55732 10.056 2.62932Q10.056 2.70132 10.164 2.84532Q10.272 2.98932 10.188 3.04932Q10.104 3.10932 10.128 3.31332Q10.152 3.51732 10.104 3.56532Q10.032 3.70932 9.96 5.91732Q9.912 7.04532 9.864 7.30932Q9.84 7.47732 9.852 7.52532Q9.864 7.57332 9.984 7.57332Q10.104 7.57332 10.188 7.74132Q10.272 7.90932 10.512 8.04132Q10.752 8.17332 10.704 8.34132Q10.656 8.50932 10.812 8.53332Q10.968 8.55732 10.968 8.60532Q10.968 8.65332 10.464 8.91732Q9.888 9.22932 9.78 9.39732Q9.672 9.56532 9.696 10.0693Q9.72 10.6693 9.816 10.6693Q9.864 10.6693 9.912 10.5133Q9.96 10.3573 10.056 10.4053Q10.368 10.5493 10.896 10.3813Q11.184 10.3093 11.304 10.2853Q12.12 10.0213 12.312 9.87732Q12.408 9.80532 12.444 9.88932Q12.48 9.97332 12.576 9.85332Q12.672 9.73332 13.704 9.37332Q13.848 9.30132 14.16 9.30132Q14.328 9.27732 14.4 9.26532Q14.472 9.25332 14.448 9.18132Q14.328 8.74932 14.472 8.41332Q14.592 8.07732 14.496 8.07732Q14.4 8.07732 14.316 7.95732Q14.232 7.83732 13.956 7.84932Q13.68 7.86132 13.608 7.81332Q13.416 7.54932 12.864 7.47732Q12.552 7.45332 12.384 7.34532Q12.216 7.23732 12.072 7.23732Q11.928 7.23732 11.928 7.16532Q11.952 6.90132 11.808 6.85332Q11.664 6.82932 11.712 6.63732L11.76 6.49332Q11.808 6.51732 11.952 6.38532Q12.096 6.25332 12.372 6.10932Q12.648 5.96532 12.684 6.01332Q12.72 6.06132 12.936 5.88132Q13.152 5.70132 13.32 5.73732Q13.488 5.77332 13.488 5.66532Q13.488 5.55732 13.752 5.50932Q14.016 5.46132 14.112 5.32932Q14.208 5.19732 14.412 5.30532Q14.616 5.41332 14.688 5.26932Q14.856 5.05332 14.856 2.89332Q14.856 1.52532 14.76 1.23732Q14.664 0.949322 14.712 0.853323Q14.76 0.757322 14.592 0.637321Q14.304 0.421322 14.616 0.0853214ZM9.804 11.4733Q9.804 11.4733 9.774 11.4433Q9.744 11.4133 9.828 11.2693Q9.912 11.1253 9.804 11.1253Q9.696 11.1253 9.696 11.3293Q9.696 11.5333 9.78 11.5333Q9.864 11.5333 9.804 11.4733ZM39.072 21.5173Q39.096 21.4693 39.684 21.4573Q40.272 21.4453 40.224 21.4693Q40.176 21.4933 39.876 21.5173Q39.576 21.5413 39.336 21.5413Q39.096 21.5413 39.072 21.5173ZM31.32 2.02932Q31.56 1.93332 31.704 2.00532Q31.824 2.05332 32.064 2.17332Q32.304 2.29332 32.808 2.76132Q33.312 3.22932 33.384 3.56532Q33.552 4.16532 33.12 4.35732Q33 4.42932 32.892 4.51332Q32.784 4.59732 32.724 4.65732Q32.664 4.71732 32.7 4.74132Q32.736 4.76532 33.9 4.29732Q35.064 3.82932 35.148 3.82932Q35.232 3.82932 35.544 3.66132L35.832 3.51732L36.072 3.70932Q36.312 3.87732 36.696 4.04532Q37.08 4.21332 37.164 4.38132Q37.248 4.54932 37.488 4.81332Q37.728 5.07732 37.728 5.16132Q37.728 5.24532 37.872 5.41332L37.992 5.53332L37.632 5.89332Q37.272 6.25332 37.224 6.25332Q37.152 6.25332 36.912 6.50532Q36.672 6.75732 36.672 6.80532Q36.672 6.87732 36.576 6.97332Q36.48 7.06932 36.324 7.56132Q36.168 8.05332 36.108 8.08932Q36.048 8.12532 36.048 8.22132Q36.072 8.24532 36.156 8.24532Q36.24 8.24532 36.336 8.22132Q36.432 8.19732 36.456 8.12532Q36.48 8.05332 36.708 8.11332Q36.936 8.17332 37.008 8.05332Q37.08 7.93332 37.176 7.93332Q37.272 7.93332 37.704 8.16132Q38.136 8.38932 38.28 8.53332Q38.448 8.67732 38.496 8.67732Q38.592 8.67732 39.036 9.19332Q39.48 9.70932 39.6 9.92532Q39.744 10.2133 39.696 10.3813Q39.648 10.5493 39.468 10.7053Q39.288 10.8613 39.168 10.8613Q38.928 10.8613 38.376 12.3973Q38.184 12.8773 38.028 13.0693Q37.872 13.2613 37.824 13.5013Q37.776 13.7413 37.548 13.9333Q37.32 14.1253 37.152 14.5573Q36.984 14.9893 36.804 15.0973Q36.624 15.2053 36.54 15.3853Q36.456 15.5653 36.384 15.4333Q36.312 15.3013 36.18 15.3013Q36.048 15.3013 36.048 15.2053Q36.048 15.1093 35.784 15.1573Q35.688 15.1813 35.16 15.3013L33.216 15.7813Q32.4 15.9733 32.376 16.0693Q32.28 16.2853 31.68 15.9493Q31.272 15.7573 30.984 15.7093Q30.792 15.6613 30.744 15.7093Q30.696 15.7573 30.6 15.9973Q30.432 16.3573 30.336 16.9933Q30.24 17.6293 30.336 17.8693Q30.648 19.1653 34.656 18.8773Q37.176 18.6853 38.04 18.5773Q38.904 18.4693 40.128 18.1813Q41.376 17.8693 42.024 17.3653Q42.408 17.0533 42.6 16.6693Q42.792 16.2853 42.96 15.5173Q43.056 15.2293 43.14 14.3293Q43.224 13.4293 43.224 13.0933Q43.224 12.9973 43.356 13.1173Q43.488 13.2373 43.56 13.1893Q43.584 13.1413 43.74 13.2493Q43.896 13.3573 44.04 13.5253Q44.184 13.6933 44.184 13.7653Q44.184 13.8613 44.304 14.2573Q44.424 14.6533 44.496 14.7973Q44.544 14.8933 44.544 15.0853Q44.544 15.2773 44.664 15.4693Q44.712 15.6133 44.796 16.1413Q44.88 16.6693 44.856 16.8853Q44.808 17.0293 44.808 17.6533Q44.808 18.2773 44.712 18.4093Q44.616 18.5413 44.664 18.8053Q44.712 19.0693 44.628 19.2253Q44.544 19.3813 44.64 19.3813Q44.736 19.3813 44.94 19.0213Q45.144 18.6613 45.204 18.6613Q45.264 18.6613 45.24 18.7093Q45.216 18.7573 44.94 19.3213Q44.664 19.8853 44.616 19.9213Q44.568 19.9573 44.52 20.1253Q44.376 20.5573 43.032 20.9173Q42.336 21.1093 41.688 21.2413Q41.04 21.3733 40.68 21.4093Q40.32 21.4453 40.296 21.3733Q40.296 21.3013 40.092 21.3013Q39.888 21.3013 39.84 21.2533Q39.816 21.2293 39.576 21.2533Q39.336 21.2773 39.192 21.3013Q39.192 21.3013 38.94 21.3013Q38.688 21.3013 38.688 21.3853Q38.688 21.4693 38.796 21.4453Q38.904 21.4213 38.928 21.4933Q38.976 21.5413 38.7 21.5773Q38.424 21.6133 37.908 21.6373Q37.392 21.6613 36.792 21.6613Q35.952 21.6373 36.024 21.5893Q36.144 21.5173 36.672 21.5173Q38.472 21.4933 38.376 21.3733Q38.256 21.3253 37.536 21.3493Q35.424 21.4933 34.008 21.3253Q33.096 21.2293 32.208 20.9653Q31.32 20.7013 30.912 20.4133Q30.192 19.9333 30.048 19.7893Q29.904 19.6453 29.76 19.3093Q29.616 18.9733 29.448 18.7813Q29.088 18.3973 28.944 17.0053Q28.872 16.2133 28.932 14.3533Q28.992 12.4933 29.136 11.5813Q29.208 11.1253 29.064 10.9333Q28.92 10.7413 28.92 10.6453Q28.92 10.5493 28.788 10.3213Q28.656 10.0933 28.656 10.0693Q28.656 10.0453 28.884 9.98532Q29.112 9.92532 29.22 9.82932Q29.328 9.73332 29.4 9.78132Q29.472 9.82932 29.496 9.73332Q29.52 9.63732 29.784 9.73332Q30.192 9.87732 30.96 9.63732L32.208 9.27732Q32.856 9.10932 33.288 8.98932L33.672 8.84532L33.696 8.43732Q33.72 8.02932 33.9 7.66932Q34.08 7.30932 34.08 7.21332Q34.08 7.11732 34.2 6.92532Q34.416 6.44532 34.224 6.44532Q34.08 6.44532 33.624 6.68532Q33.144 6.87732 33 6.80532Q32.856 6.73332 32.664 6.74532Q32.472 6.75732 32.436 6.68532Q32.4 6.61332 32.064 6.61332Q31.632 6.61332 31.608 6.42132Q31.608 6.39732 31.632 6.37332Q31.656 6.34932 31.512 6.25332Q31.416 6.20532 31.308 6.26532Q31.2 6.32532 30.936 6.61332Q30.36 7.18932 29.388 7.89732Q28.416 8.60532 28.032 8.67732Q27.744 8.77332 27.648 8.66532Q27.552 8.55732 27.48 8.58132Q27.456 8.60532 27.42 8.53332Q27.384 8.46132 27.324 8.34132Q27.264 8.22132 27.24 8.07732Q27.216 7.88532 27.024 7.81332Q26.832 7.69332 26.772 7.34532Q26.712 6.99732 26.856 6.90132Q26.952 6.82932 27.216 6.43332Q27.48 6.03732 27.54 6.03732Q27.6 6.03732 28.056 5.53332Q29.208 4.38132 29.304 4.38132Q29.328 4.38132 29.712 3.91332Q30.096 3.44532 30.552 2.97732Q31.008 2.50932 31.056 2.31732Q31.104 2.12532 31.32 2.02932ZM35.88 10.8853Q35.904 10.7413 35.832 10.7413Q35.736 10.7413 35.376 10.8133Q35.016 10.8853 34.824 11.0293Q34.68 11.1493 34.488 11.4973Q34.296 11.8453 34.296 11.9653Q34.296 12.0853 34.176 12.4693Q33.96 12.9733 34.068 13.0573Q34.176 13.1413 34.848 12.9733Q35.184 12.9013 35.268 12.8533Q35.352 12.8053 35.352 12.6853Q35.352 12.5173 35.556 11.9533Q35.76 11.3893 35.784 11.2213L35.88 10.8853ZM32.592 12.2293Q32.712 11.9653 32.712 11.7253Q32.712 11.4853 32.64 11.5093Q32.424 11.5333 32.04 11.7013Q31.872 11.7733 31.632 11.7013L31.368 11.6533L31.368 12.0373Q31.368 12.4453 31.248 12.6133Q31.176 12.6853 31.116 13.0453Q31.056 13.4053 31.032 13.6813Q31.008 13.9573 31.08 13.9813Q31.152 13.9813 31.668 13.8133Q32.184 13.6453 32.472 13.5733L32.76 13.5013L32.616 13.2373Q32.376 12.7813 32.592 12.2293ZM53.544 3.01332Q53.544 2.86932 54.048 3.03732Q54.192 3.06132 54.384 3.13332Q55.344 3.39732 56.352 4.18932Q56.448 4.28532 56.7 4.76532Q56.952 5.24532 56.952 5.36532Q56.952 5.48532 56.844 5.70132Q56.736 5.91732 56.676 5.91732Q56.616 5.91732 56.616 6.03732Q56.616 6.34932 55.848 7.40532Q55.488 7.83732 55.488 7.92132Q55.488 8.00532 55.416 8.00532Q55.344 8.00532 55.344 8.10132Q55.344 8.19732 55.14 8.42532Q54.936 8.65332 54.936 8.74932Q54.936 8.84532 54.84 8.84532Q54.816 8.84532 54.804 8.85732Q54.792 8.86932 54.792 8.89332Q54.816 8.96532 54.48 9.46932Q54.144 9.97332 54.024 9.99732Q53.736 10.0453 54.192 10.1893Q54.264 10.2133 54.384 10.2613Q54.816 10.4053 55.164 10.6333Q55.512 10.8613 55.56 11.0533Q55.632 11.2453 55.596 12.0013Q55.56 12.7573 55.512 13.1413Q55.44 13.4773 55.344 14.7253Q55.176 17.5573 55.08 17.9173Q55.008 18.1573 55.008 18.5413Q55.008 18.9253 54.912 19.0693Q54.744 19.2853 54.696 20.1973Q54.624 20.6533 54.588 20.7853Q54.552 20.9173 54.36 20.6413Q54.168 20.3653 53.772 20.1013Q53.376 19.8373 53.376 19.7053Q53.376 19.5733 53.22 19.5013Q53.064 19.4293 53.064 19.1653Q53.064 18.9013 52.944 18.7693Q52.824 18.6373 52.872 18.3493Q52.92 18.0613 52.944 17.7973Q52.968 17.5333 53.052 17.2693Q53.136 17.0053 53.1 16.8973Q53.064 16.7893 53.136 16.5973Q53.256 16.4053 53.292 16.1173Q53.328 15.8293 53.256 15.7813Q53.16 15.7573 53.232 15.6853Q53.304 15.5653 53.352 13.7413Q53.376 12.8533 53.448 12.2293Q53.52 11.0773 53.328 11.0773Q53.28 11.0773 52.8 11.6773Q52.32 12.2773 52.248 12.3733Q51.84 12.8053 51.816 12.9973Q51.816 13.1173 51.696 13.2133Q51.288 13.7173 50.52 15.3973Q50.424 15.5653 50.376 15.6133Q50.304 15.6853 50.172 15.5773Q50.04 15.4693 50.04 15.3253Q50.04 15.1573 49.776 14.9533Q49.512 14.7493 49.56 14.6533Q49.584 14.6053 49.476 14.4853Q49.368 14.3653 49.272 14.3653Q49.2 14.3653 49.236 14.2453Q49.272 14.1253 49.2 14.1253Q49.128 14.1253 49.128 13.9693Q49.128 13.8133 49.068 13.7653Q49.008 13.7173 49.044 13.6453Q49.08 13.5733 49.032 13.4773Q48.888 13.2133 49.272 12.7333Q49.416 12.5893 49.524 12.3253Q49.632 12.0613 49.704 12.0613Q49.776 12.0613 49.812 11.9053Q49.848 11.7493 50.064 11.5093Q50.28 11.3173 50.664 10.7533Q51.048 10.1893 51.048 10.1413Q51.048 10.0693 51.312 9.70932L51.648 9.30132Q51.696 9.22932 51.708 9.10932Q51.72 8.98932 52.128 8.37732Q52.536 7.76532 52.74 7.39332Q52.944 7.02132 53.052 6.84132Q53.16 6.66132 53.604 5.82132Q54.048 4.98132 54.096 4.86132Q54.456 4.26132 54.432 3.94932Q54.432 3.78132 53.988 3.45732Q53.544 3.13332 53.544 3.01332ZM60.504 1.86132Q60.504 1.69332 60.528 1.64532Q60.552 1.59732 60.696 1.59732Q60.864 1.59732 61.188 1.70532Q61.512 1.81332 61.632 1.93332Q61.752 2.02932 61.848 2.02932Q61.944 2.02932 62.076 2.17332Q62.208 2.31732 62.568 2.53332Q63.216 2.98932 63.216 3.37332Q63.216 3.63732 63.288 3.70932Q63.384 3.80532 63.372 4.04532Q63.36 4.28532 63.24 4.38132Q63.072 4.52532 63.12 4.62132Q63.168 4.71732 63.048 5.60532Q62.928 6.49332 62.976 6.52932Q63.024 6.56532 63.204 6.44532Q63.384 6.32532 63.612 6.36132Q63.84 6.39732 64.464 6.19332Q65.088 5.98932 65.424 5.96532Q65.664 5.91732 65.76 5.95332Q65.856 5.98932 66.12 6.20532Q66.432 6.51732 66.432 6.68532Q66.432 6.85332 66.612 7.02132Q66.792 7.18932 66.684 7.22532Q66.576 7.26132 66.576 7.47732Q66.6 7.66932 66.624 7.66932Q66.672 7.66932 66.72 7.64532L66.72 7.66932Q66.624 7.78932 66.6 8.10132L66.576 8.38932L66.288 8.38932Q65.688 8.41332 64.716 8.66532Q63.744 8.91732 63.048 9.22932Q62.856 9.30132 62.796 9.39732Q62.736 9.49332 62.712 9.94932Q62.664 10.4053 62.736 10.5253Q62.808 10.6453 63.24 10.8853Q63.912 11.1973 64.704 11.8933Q64.92 12.1093 65.376 12.4453Q65.832 12.7813 66.228 13.0933Q66.624 13.4053 67.2 13.6813Q67.776 13.9573 67.776 14.0173Q67.776 14.0773 68.076 14.2213Q68.376 14.3653 68.448 14.3653Q68.616 14.3653 69.144 14.8213Q69.672 15.2773 70.248 15.8773Q71.016 16.6933 71.016 16.7533Q71.016 16.8133 70.908 16.8013Q70.8 16.7893 70.608 16.8133Q70.464 16.8613 70.452 16.8973Q70.44 16.9333 70.488 17.0533Q70.584 17.2453 70.704 17.4373Q70.848 17.6293 70.812 17.6773Q70.776 17.7253 70.536 17.5813Q69.984 17.2693 69.984 17.5093Q69.984 17.5813 69.864 17.5333Q69.816 17.5093 69.804 17.5213Q69.792 17.5333 69.816 17.6053Q69.84 17.6773 69.816 17.6893Q69.792 17.7013 69.696 17.6773Q69.528 17.6053 69 17.5333Q68.376 17.4133 67.704 17.1493Q67.608 17.1253 67.524 17.0893Q67.44 17.0533 67.392 17.0533Q67.344 17.0533 67.344 17.0533Q67.296 17.2453 66.792 16.7893Q66.504 16.5013 66.24 16.3333Q65.976 16.1653 65.808 15.9973Q65.64 15.8293 65.52 15.9373Q65.4 16.0453 65.424 16.4053L65.472 16.7173L65.232 16.7173Q65.016 16.7173 64.788 16.8373Q64.56 16.9573 64.536 17.0533Q64.488 17.1973 64.128 17.1973Q63.864 17.1973 63.276 17.3173Q62.688 17.4373 62.64 17.5093Q62.64 17.5333 62.58 18.4933Q62.52 19.4533 62.484 19.5253Q62.448 19.5973 62.448 19.9093Q62.448 20.1733 62.376 20.1733Q62.352 20.1493 62.328 20.2093Q62.304 20.2693 62.28 20.3173Q62.256 20.5093 62.16 20.8213Q62.064 21.1333 61.992 21.5653L61.92 21.9733L61.872 21.6613Q61.8 21.3733 61.632 21.3133Q61.464 21.2533 61.464 21.1813Q61.464 21.1093 61.32 21.1093Q61.176 21.1093 61.044 20.8093Q60.912 20.5093 60.912 20.4253Q60.912 20.3413 60.672 20.0893Q60.432 19.8373 60.48 19.7893Q60.528 19.6933 60.54 19.4653Q60.552 19.2373 60.528 19.1653Q60.48 19.0453 60.48 18.6373Q60.48 18.2533 60.348 18.0733Q60.216 17.8933 59.856 17.7013Q59.544 17.5573 59.544 17.4853Q59.544 17.4133 59.256 17.3413Q58.968 17.2693 58.92 17.0653Q58.872 16.8613 58.824 16.8613Q58.704 16.8613 57.888 18.0853Q57.48 18.7093 57.144 18.9253Q56.808 19.1413 56.808 19.2133Q56.808 19.2853 56.712 19.2853Q56.616 19.2853 56.664 19.0693Q56.688 18.9013 56.628 18.6853Q56.568 18.4693 56.472 18.4693Q56.424 18.4693 56.388 18.2653Q56.352 18.0613 56.232 17.9413Q56.112 17.8213 56.136 17.3653Q56.208 16.6453 56.496 16.5253Q56.616 16.5013 56.616 16.3693Q56.616 16.2373 56.832 16.2133Q57.24 16.1173 58.128 14.7733Q58.584 14.1013 59.268 12.7213Q59.952 11.3413 60.096 10.8613Q60.288 10.1653 60.168 10.1413Q60.144 10.1413 60.072 10.1653Q59.928 10.2133 59.628 10.3093Q59.328 10.4053 59.328 10.4773Q59.328 10.5493 59.208 10.5013Q58.656 10.2373 58.104 10.2133Q57.864 10.1893 57.348 9.82932Q56.832 9.46932 56.568 9.46932Q56.4 9.46932 56.352 9.44532Q56.304 9.42132 56.352 9.32532Q56.4 9.20532 56.256 9.15732Q56.112 9.10932 56.148 9.00132Q56.184 8.89332 56.184 8.84532Q56.184 8.79732 56.304 8.66532Q56.424 8.53332 56.94 8.47332Q57.456 8.41332 57.792 8.31732Q58.08 8.22132 59.4 7.72932Q60.72 7.23732 60.792 7.21332Q60.888 7.09332 60.96 4.23732Q60.96 3.20532 60.936 2.96532Q60.912 2.72532 60.792 2.48532Q60.648 2.14932 60.576 2.11332Q60.504 2.07732 60.504 1.86132ZM63.288 13.3573Q63.288 13.3573 63.204 13.2613Q63.12 13.1653 62.904 13.0333Q62.688 12.9013 62.664 12.9013Q62.544 12.9013 62.64 14.2933L62.688 15.0373L63.048 15.0133Q63.408 14.9653 63.648 14.9173Q63.864 14.8453 63.996 14.8213Q64.128 14.7973 64.212 14.7973Q64.296 14.7973 64.32 14.8213Q64.344 14.8453 64.344 14.8693Q64.344 15.1093 64.632 14.9173Q64.656 14.9173 64.644 14.8693Q64.632 14.8213 64.56 14.7253Q64.488 14.6293 64.38 14.5093Q64.272 14.3893 64.104 14.2213Q63.456 13.5493 63.288 13.3573ZM60.624 14.8453Q60.648 14.6293 60.648 14.4493Q60.648 14.2693 60.648 14.1733Q60.648 14.0773 60.648 14.0773Q60.528 14.0773 59.964 14.9773Q59.4 15.8773 59.496 15.9253Q59.52 15.9493 60.072 15.7813L60.624 15.6133L60.624 14.8453ZM69.312 16.1653Q69.288 16.1413 69.168 16.1293Q69.048 16.1173 68.928 16.1293Q68.808 16.1413 68.808 16.1653Q68.808 16.2373 68.904 16.2853Q69.144 16.3333 69.312 16.1653ZM88.032 1.40532Q88.2 1.30932 88.368 1.47732Q88.56 1.62132 88.656 1.62132Q88.776 1.62132 89.148 1.80132Q89.52 1.98132 89.64 2.07732Q89.784 2.24532 89.82 2.55732Q89.856 2.86932 89.688 3.10932Q89.52 3.39732 89.208 3.99732L88.728 4.90932Q88.56 5.24532 88.584 5.26932Q88.656 5.34132 90.432 5.55732Q90.696 5.60532 91.02 5.65332Q91.344 5.70132 91.872 5.79732Q92.976 5.98932 93.648 6.46932Q94.152 6.82932 94.152 7.02132Q94.152 7.11732 94.26 7.22532Q94.368 7.33332 94.332 7.33332Q94.296 7.33332 94.632 7.66932Q95.256 8.26932 94.992 8.26932Q94.848 8.29332 94.848 8.20932Q94.848 8.12532 94.764 8.20932Q94.68 8.29332 94.8 8.36532Q94.92 8.43732 94.92 8.56932Q94.92 8.70132 95.088 8.78532Q95.256 8.86932 95.256 8.94132Q95.256 8.98932 95.232 9.00132Q95.208 9.01332 95.148 9.01332Q95.088 9.01332 94.992 9.00132Q94.896 8.98932 94.752 8.94132Q94.128 8.70132 93.24 8.50932Q89.76 7.69332 88.392 7.26132Q87.528 6.97332 87.432 7.00932Q87.336 7.04532 87.108 7.39332Q86.88 7.74132 86.784 7.71732Q86.736 7.69332 86.472 7.89732Q86.208 8.10132 86.208 8.19732Q86.208 8.24532 85.668 8.79732Q85.128 9.34932 85.056 9.34932Q84.984 9.34932 84.744 9.56532L84.528 9.80532L84.792 9.80532Q85.056 9.80532 85.56 9.68532Q86.064 9.56532 86.328 9.52932Q86.592 9.49332 86.784 9.39732Q86.976 9.30132 87.204 9.24132Q87.432 9.18132 87.528 9.10932Q87.624 9.03732 87.984 8.98932Q88.344 8.94132 88.368 8.86932Q88.392 8.79732 88.488 8.79732Q88.608 8.79732 88.812 8.61732Q89.016 8.43732 89.088 8.31732Q89.112 8.24532 89.688 8.38932Q90.312 8.50932 90.6 8.79732Q90.744 8.91732 91.092 8.96532Q91.44 9.01332 91.44 9.07332Q91.44 9.13332 91.68 9.15732Q91.848 9.20532 91.848 9.21732Q91.848 9.22932 91.728 9.30132Q91.56 9.39732 91.68 9.49332Q91.848 9.61332 91.776 9.68532Q91.752 9.68532 91.704 9.66132L92.04 9.92532Q92.136 10.0213 91.896 10.0693Q91.848 10.0933 91.728 10.1173Q91.248 10.2133 91.116 10.2733Q90.984 10.3333 90.96 10.3453Q90.936 10.3573 90.696 10.4773Q90.456 10.5973 90.276 10.5973Q90.096 10.5973 89.952 10.6933Q89.712 10.8613 89.136 11.0293Q88.56 11.1973 88.128 11.2213Q87.072 11.2693 86.16 10.7893Q85.848 10.6213 85.464 10.5253Q84.864 10.4293 84.792 10.1413Q84.744 9.78132 84.336 10.1413Q84.12 10.3093 84.048 10.2853Q83.976 10.2613 83.976 10.3093Q83.976 10.3573 83.76 10.4533L83.52 10.5253L83.712 10.3573Q84 10.1653 83.88 10.1653Q83.832 10.1413 83.688 10.2373Q83.448 10.3333 83.352 10.3693Q83.256 10.4053 83.232 10.4653Q83.208 10.5253 83.064 10.5253Q83.016 10.5253 82.98 10.5133Q82.944 10.5013 82.968 10.4533Q83.04 10.4053 82.968 10.2253Q82.896 10.0453 82.848 10.0453Q82.728 10.0453 82.548 9.81732Q82.368 9.58932 82.32 9.68532Q82.272 9.78132 82.152 9.73332Q82.032 9.70932 82.032 9.73332Q82.056 9.80532 82.224 9.92532Q82.464 10.0693 82.668 10.2493Q82.872 10.4293 82.872 10.5013Q82.872 10.5973 83.088 10.8133Q83.4 11.1253 83.232 11.7493Q83.136 12.0133 83.112 12.5173Q83.088 13.0213 83.016 13.4653Q82.944 13.9093 82.896 14.8213Q82.848 16.2133 82.728 17.0533Q82.656 17.6053 82.68 17.6293Q82.704 17.6533 83.496 17.4853L84.696 17.2933L85.416 17.1493Q85.704 17.1013 85.764 17.0413Q85.824 16.9813 85.728 16.8613Q85.632 16.6693 85.44 16.6693Q85.248 16.6693 85.2 16.5733Q85.152 16.4773 85.08 16.4773Q84.96 16.4773 84.78 16.3093Q84.6 16.1413 84.6 16.0213Q84.6 15.9253 84.48 15.8293Q84.24 15.7333 84.408 15.4213Q84.504 15.2533 84.516 14.6893Q84.528 14.1253 84.456 13.7413Q84.384 13.3573 84.384 13.1173Q84.264 12.3493 84.168 12.2293Q84.048 12.0853 84.264 12.1093Q84.672 12.1573 85.656 12.6853Q85.92 12.8293 86.28 13.6213Q86.352 13.7413 86.388 14.1253Q86.424 14.5093 86.496 14.5453Q86.568 14.5813 86.568 14.7253Q86.568 15.0613 86.64 14.6773Q86.712 14.4613 86.736 14.1733Q86.88 12.8053 86.616 12.3733Q86.52 12.1333 86.568 12.0973Q86.616 12.0613 87.348 12.3853Q88.08 12.7093 88.296 13.0213Q88.632 13.5253 88.752 14.2933L88.8 14.5813L88.992 14.3893Q89.208 14.1973 89.208 14.1373Q89.208 14.0773 89.328 13.9333Q89.568 13.6453 89.76 13.1653Q89.856 12.9733 89.904 12.9733Q89.952 12.9733 90.012 12.4693Q90.072 11.9653 89.928 11.8933Q89.856 11.8213 89.868 11.7973Q89.88 11.7733 90 11.7253Q90.144 11.6773 90.396 11.7733Q90.648 11.8693 90.744 11.9173Q90.888 11.9653 91.32 12.2893Q91.752 12.6133 91.8 12.6613Q91.968 12.9733 92.004 13.5853Q92.04 14.1973 91.872 14.5813Q91.776 14.7733 91.824 14.7733Q91.872 14.7733 91.764 14.9533Q91.656 15.1333 91.692 15.1333Q91.728 15.1333 91.584 15.2653Q91.44 15.3973 91.44 15.4813Q91.44 15.5653 91.224 15.7093Q91.008 15.8533 91.008 15.9493Q91.008 16.0453 90.744 16.3093Q90.264 16.7173 90.648 16.6453Q90.816 16.5973 90.84 16.6573Q90.864 16.7173 91.056 16.6573Q91.248 16.5973 91.692 16.6333Q92.136 16.6693 92.304 16.5493Q92.472 16.4293 92.664 16.5733Q92.856 16.7173 93.156 16.8253Q93.456 16.9333 93.876 17.3653Q94.296 17.7973 94.368 17.7973Q94.44 17.7973 94.752 18.0973Q95.064 18.3973 94.932 18.3973Q94.8 18.3973 94.8 18.4933Q94.8 18.5893 94.932 18.6853Q95.064 18.7813 95.028 18.8293Q94.992 18.8773 95.184 19.0693Q95.352 19.2373 95.316 19.2853Q95.28 19.3333 95.04 19.2613Q94.608 19.0933 91.368 19.1653Q88.128 19.2373 86.568 19.4053Q84.864 19.6213 83.952 19.3333Q83.448 19.2373 83.412 19.1533Q83.376 19.0693 83.196 19.0213Q83.016 18.9733 83.016 18.9013Q83.016 18.8533 82.812 18.7333Q82.608 18.6133 82.536 18.6133Q82.464 18.6133 82.416 18.7813Q82.368 18.9493 82.176 19.3933Q81.984 19.8373 81.9 20.0533Q81.816 20.2693 81.504 20.5093Q81.192 20.7493 81.144 20.9053Q81.096 21.0613 80.88 21.2533Q80.664 21.4453 80.508 21.7333Q80.352 22.0213 80.112 22.1173L79.848 22.2373L79.848 22.0453Q79.824 21.2053 79.704 20.7733Q79.608 20.4613 79.584 20.2213Q79.56 19.8613 79.032 19.1893Q78.336 18.3493 78.6 18.3733Q78.648 18.3973 78.72 18.4453Q79.152 18.7333 79.26 18.7453Q79.368 18.7573 79.656 18.6133Q79.944 18.4453 80.028 18.3493Q80.112 18.2533 80.256 17.8933Q80.4 17.4133 80.448 17.2453Q80.496 17.0773 80.568 17.0773Q80.64 17.0773 80.676 16.7413Q80.712 16.4053 80.736 16.3093Q80.76 16.2133 80.832 15.8533Q80.856 15.5893 80.844 15.5293Q80.832 15.4693 80.688 15.4693Q80.496 15.4693 80.496 15.5413Q80.496 15.6133 80.256 15.7213Q80.016 15.8293 79.896 15.9733Q79.776 16.1173 79.716 16.1173Q79.656 16.1173 79.56 16.1773Q79.464 16.2373 78.504 16.8613Q75.744 18.5413 74.544 18.3733Q74.28 18.3493 74.004 18.2053Q73.728 18.0613 73.656 17.9653Q73.584 17.8453 73.344 17.7373Q73.104 17.6293 72.948 17.4133Q72.792 17.1973 72.744 17.1253Q72.6 17.0533 72.912 16.9573Q73.008 16.9333 73.272 16.9093Q73.752 16.8373 74.868 16.2613Q75.984 15.6853 76.56 15.3493Q77.136 15.0133 77.724 14.7253Q78.312 14.4373 78.408 14.3653Q78.504 14.2933 78.648 14.2213Q79.728 13.7653 79.824 13.6213Q79.944 13.5493 80.244 13.5493Q80.544 13.5493 80.76 13.4773L81 13.4293L81 12.6613Q80.952 11.8693 80.892 11.8693Q80.832 11.8693 80.58 11.9893Q80.328 12.1093 79.332 12.4813Q78.336 12.8533 78.336 12.9253Q78.336 12.9973 78.288 12.9493Q78.24 12.9013 77.904 12.9613Q77.568 13.0213 77.496 12.9253Q77.352 12.7813 77.64 12.7813Q77.784 12.7813 77.784 12.6973Q77.784 12.6133 77.604 12.6373Q77.424 12.6613 77.232 12.4093Q77.04 12.1573 76.752 11.8813Q76.464 11.6053 76.428 11.4373Q76.392 11.2693 76.296 11.1973Q76.104 10.9573 76.512 10.7173Q77.04 10.4293 77.688 8.38932Q77.808 7.93332 77.904 7.29732Q78 6.66132 77.952 6.46932Q77.928 6.30132 77.976 6.22932Q78 6.15732 78.156 6.21732Q78.312 6.27732 78.516 6.45732Q78.72 6.63732 78.984 6.90132Q79.296 7.21332 79.416 7.62132Q79.536 8.02932 79.464 8.79732Q79.44 9.51732 79.368 9.80532Q79.296 10.0933 79.296 10.1413Q79.296 10.2133 79.644 10.1293Q79.992 10.0453 80.352 9.91332Q80.712 9.78132 80.784 9.72132Q80.856 9.66132 80.796 9.50532Q80.736 9.34932 80.64 9.34932Q80.496 9.34932 80.424 8.79732Q80.352 8.24532 80.472 8.10132Q80.568 8.02932 80.568 7.88532Q80.568 7.74132 80.76 6.90132Q81.24 5.05332 81.168 4.95732Q81.12 4.93332 80.832 5.05332Q79.848 5.38932 79.176 5.29332Q78.672 5.19732 78.12 4.90932Q77.928 4.81332 77.784 4.81332Q77.616 4.81332 77.208 4.58532Q76.8 4.35732 76.8 4.26132Q76.8 4.21332 76.992 4.12932Q77.184 4.04532 77.316 4.04532Q77.448 4.04532 78.084 3.81732Q78.72 3.58932 79.08 3.39732Q80.736 2.55732 80.808 2.43732Q80.856 2.38932 80.988 2.38932Q81.12 2.38932 81.192 2.22132Q81.24 2.07732 81.444 1.84932Q81.648 1.62132 81.72 1.62132Q81.768 1.62132 81.996 1.80132Q82.224 1.98132 82.692 2.14932Q83.16 2.31732 83.412 2.49732Q83.664 2.67732 83.736 2.67732Q83.808 2.67732 83.976 2.86932Q84.072 3.03732 84.072 3.08532Q84.072 3.13332 84 3.27732Q83.856 3.46932 83.784 3.85332Q83.376 5.79732 83.256 6.63732Q83.16 7.33332 82.968 7.76532Q82.848 8.22132 82.944 8.24532Q83.04 8.24532 83.364 7.94532Q83.688 7.64532 83.688 7.57332Q83.688 7.50132 83.94 7.26132Q84.192 7.02132 84.372 7.05732Q84.552 7.09332 84.552 7.02132Q84.552 6.94932 84.756 6.70932Q84.96 6.46932 85.008 6.31332Q85.056 6.15732 85.104 6.15732Q85.152 6.15732 85.284 5.97732Q85.416 5.79732 85.272 5.70132Q85.176 5.62932 85.2 5.59332Q85.224 5.55732 85.368 5.50932Q85.584 5.43732 85.872 5.17332Q86.16 4.90932 86.16 4.81332Q86.16 4.74132 86.256 4.74132Q86.352 4.74132 86.352 4.56132Q86.352 4.38132 86.484 4.27332Q86.616 4.16532 86.664 3.91332Q86.712 3.66132 86.988 3.20532Q87.264 2.74932 87.264 2.71332Q87.264 2.67732 87.504 2.26932Q87.744 1.86132 87.744 1.74132Q87.744 1.47732 88.032 1.40532ZM87.384 16.5853Q87.384 16.5853 87.384 16.5553Q87.384 16.5253 87.048 16.2733Q86.712 16.0213 86.688 15.8773L86.64 16.3333L86.688 16.9093L86.904 16.9333Q87.144 16.9573 87.264 16.8013Q87.384 16.6453 87.384 16.5853Z">
</path>
</g>
<g >
<path     fill="#663F17"  d="M6.595 69.4713C7.024 69.2953 7.64 69.2623 13.635 68.7893C13.855 69.1303 14.042 69.4493 14.174 69.7353L14.966 69.3063C14.46 68.3383 13.393 66.8753 12.392 65.7863L11.655 66.1383C12.161 66.6993 12.689 67.3813 13.151 68.0413L7.695 68.4373C8.52 67.5243 9.367 66.3803 10.093 65.1813L15.461 65.1813L15.461 64.3563L10.929 64.3563L10.929 62.2773L14.647 62.2773L14.647 61.4523L10.929 61.4523L10.929 59.7143L10.06 59.7143L10.06 61.4523L6.43 61.4523L6.43 62.2773L10.06 62.2773L10.06 64.3563L5.583 64.3563L5.583 65.1813L9.07 65.1813C8.366 66.4243 7.431 67.6123 7.134 67.9423C6.804 68.3383 6.551 68.5913 6.309 68.6463C6.419 68.8773 6.551 69.2953 6.595 69.4713ZM19.652 66.6113L24.448 66.6113L24.448 67.3813L19.652 67.3813L19.652 66.6113ZM19.652 66.0283L19.652 65.2803L24.448 65.2803L24.448 66.0283L19.652 66.0283ZM19.652 67.9533L24.448 67.9533L24.448 68.7673L19.652 68.7673L19.652 67.9533ZM25.086 59.8133C23.326 60.1653 19.982 60.3303 17.298 60.3523C17.375 60.5283 17.452 60.8033 17.463 60.9903C18.42 60.9903 19.454 60.9683 20.488 60.9243C20.411 61.1773 20.334 61.4303 20.246 61.6833L17.452 61.6833L17.452 62.3433L20.004 62.3433C19.894 62.6183 19.773 62.8933 19.63 63.1683L16.649 63.1683L16.649 63.8503L19.256 63.8503C18.563 65.0163 17.617 66.0283 16.363 66.7433C16.539 66.9083 16.781 67.2053 16.891 67.3923C17.65 66.9413 18.299 66.3913 18.86 65.7643L18.86 69.8673L19.652 69.8673L19.652 69.4273L24.448 69.4273L24.448 69.8673L25.273 69.8673L25.273 64.6203L19.74 64.6203C19.905 64.3673 20.059 64.1143 20.202 63.8503L26.351 63.8503L26.351 63.1683L20.543 63.1683C20.675 62.8933 20.796 62.6183 20.906 62.3433L25.713 62.3433L25.713 61.6833L21.148 61.6833L21.401 60.8803C22.985 60.7813 24.503 60.6273 25.614 60.4073L25.086 59.8133ZM30.652 66.6113L35.448 66.6113L35.448 67.3813L30.652 67.3813L30.652 66.6113ZM30.652 66.0283L30.652 65.2803L35.448 65.2803L35.448 66.0283L30.652 66.0283ZM30.652 67.9533L35.448 67.9533L35.448 68.7673L30.652 68.7673L30.652 67.9533ZM36.086 59.8133C34.326 60.1653 30.982 60.3303 28.298 60.3523C28.375 60.5283 28.452 60.8033 28.463 60.9903C29.42 60.9903 30.454 60.9683 31.488 60.9243C31.411 61.1773 31.334 61.4303 31.246 61.6833L28.452 61.6833L28.452 62.3433L31.004 62.3433C30.894 62.6183 30.773 62.8933 30.63 63.1683L27.649 63.1683L27.649 63.8503L30.256 63.8503C29.563 65.0163 28.617 66.0283 27.363 66.7433C27.539 66.9083 27.781 67.2053 27.891 67.3923C28.65 66.9413 29.299 66.3913 29.86 65.7643L29.86 69.8673L30.652 69.8673L30.652 69.4273L35.448 69.4273L35.448 69.8673L36.273 69.8673L36.273 64.6203L30.74 64.6203C30.905 64.3673 31.059 64.1143 31.202 63.8503L37.351 63.8503L37.351 63.1683L31.543 63.1683C31.675 62.8933 31.796 62.6183 31.906 62.3433L36.713 62.3433L36.713 61.6833L32.148 61.6833L32.401 60.8803C33.985 60.7813 35.503 60.6273 36.614 60.4073L36.086 59.8133Z">
</path>
</g>
<path d="M48.2163 65.1716L48.6581 64.7297L42.5669 58.6372C42.5596 58.63 42.5522 58.623 42.5446 58.6162C42.537 58.6094 42.5293 58.6028 42.5214 58.5963C42.5134 58.5899 42.5054 58.5836 42.4972 58.5776C42.4889 58.5715 42.4806 58.5657 42.4721 58.5601C42.4636 58.5544 42.4549 58.549 42.4461 58.5438C42.4374 58.5386 42.4285 58.5336 42.4195 58.5288C42.4104 58.524 42.4013 58.5194 42.3921 58.5151C42.3828 58.5107 42.3735 58.5066 42.3641 58.5028C42.3546 58.4989 42.3451 58.4952 42.3355 58.4918C42.3259 58.4884 42.3162 58.4852 42.3064 58.4823C42.2966 58.4793 42.2868 58.4766 42.2769 58.4741C42.267 58.4717 42.257 58.4695 42.247 58.4675C42.237 58.4655 42.2269 58.4638 42.2168 58.4623C42.2067 58.4608 42.1966 58.4595 42.1865 58.4586C42.1763 58.4576 42.1661 58.4568 42.1559 58.4563C42.1457 58.4558 42.1355 58.4556 42.1253 58.4556C42.1151 58.4556 42.1049 58.4558 42.0947 58.4563C42.0845 58.4568 42.0744 58.4576 42.0642 58.4586C42.054 58.4595 42.0439 58.4608 42.0338 58.4623C42.0237 58.4638 42.0137 58.4655 42.0037 58.4675C41.9936 58.4695 41.9837 58.4717 41.9738 58.4741C41.9639 58.4766 41.954 58.4793 41.9443 58.4823C41.9345 58.4852 41.9248 58.4884 41.9152 58.4918C41.9056 58.4952 41.896 58.4989 41.8866 58.5028C41.8772 58.5066 41.8678 58.5107 41.8586 58.5151C41.8493 58.5194 41.8402 58.524 41.8312 58.5288C41.8222 58.5336 41.8133 58.5386 41.8045 58.5438C41.7957 58.549 41.7871 58.5544 41.7786 58.5601C41.7701 58.5657 41.7617 58.5715 41.7535 58.5776C41.7453 58.5836 41.7372 58.5899 41.7293 58.5963C41.7214 58.6028 41.7136 58.6094 41.706 58.6162C41.6984 58.623 41.691 58.63 41.6838 58.6372C41.6765 58.6444 41.6694 58.6518 41.6625 58.6594C41.6556 58.667 41.6489 58.6747 41.6424 58.6826C41.6359 58.6905 41.6296 58.6985 41.6235 58.7067C41.6174 58.7149 41.6115 58.7233 41.6058 58.7318C41.6 58.7403 41.5946 58.7489 41.5893 58.7577C41.584 58.7665 41.5789 58.7754 41.5741 58.7844C41.5693 58.7934 41.5646 58.8025 41.5602 58.8118C41.5559 58.821 41.5517 58.8304 41.5478 58.8398C41.5438 58.8493 41.5401 58.8588 41.5367 58.8684C41.5332 58.8781 41.53 58.8878 41.527 58.8976C41.524 58.9074 41.5213 58.9172 41.5188 58.9272C41.5163 58.9371 41.5141 58.9471 41.5121 58.9571C41.5101 58.9671 41.5083 58.9772 41.5068 58.9873C41.5053 58.9975 41.504 59.0076 41.503 59.0178C41.502 59.028 41.5013 59.0382 41.5007 59.0484C41.5002 59.0586 41.5 59.0689 41.5 59.0791C41.5 59.0893 41.5002 59.0996 41.5007 59.1098C41.5013 59.12 41.502 59.1302 41.503 59.1404C41.504 59.1506 41.5053 59.1607 41.5068 59.1709C41.5083 59.181 41.5101 59.1911 41.5121 59.2011C41.5141 59.2111 41.5163 59.2211 41.5188 59.231C41.5213 59.241 41.524 59.2508 41.527 59.2606C41.53 59.2704 41.5332 59.2801 41.5367 59.2898C41.5401 59.2994 41.5438 59.3089 41.5478 59.3184C41.5517 59.3278 41.5559 59.3372 41.5602 59.3464C41.5646 59.3557 41.5693 59.3648 41.5741 59.3738C41.5789 59.3828 41.584 59.3917 41.5893 59.4005C41.5946 59.4093 41.6 59.4179 41.6058 59.4264C41.6115 59.4349 41.6174 59.4432 41.6235 59.4515C41.6296 59.4597 41.6359 59.4677 41.6424 59.4756C41.6489 59.4835 41.6556 59.4912 41.6625 59.4988C41.6694 59.5064 41.6765 59.5138 41.6838 59.521L46.89 64.7285L41.6838 69.9329C41.6765 69.9401 41.6694 69.9474 41.6625 69.955C41.6557 69.9626 41.649 69.9703 41.6424 69.9782C41.6359 69.9861 41.6296 69.9941 41.6235 70.0023C41.6174 70.0105 41.6115 70.0189 41.6058 70.0273C41.6001 70.0358 41.5946 70.0445 41.5893 70.0532C41.584 70.062 41.579 70.0709 41.5741 70.0799C41.5693 70.0889 41.5647 70.098 41.5603 70.1073C41.5559 70.1165 41.5517 70.1258 41.5478 70.1353C41.5439 70.1447 41.5402 70.1543 41.5367 70.1639C41.5333 70.1735 41.53 70.1832 41.5271 70.193C41.5241 70.2028 41.5213 70.2126 41.5189 70.2225C41.5164 70.2325 41.5141 70.2424 41.5121 70.2525C41.5101 70.2625 41.5083 70.2726 41.5068 70.2827C41.5053 70.2928 41.5041 70.303 41.5031 70.3132C41.5021 70.3233 41.5013 70.3335 41.5008 70.3437C41.5003 70.354 41.5 70.3642 41.5 70.3744C41.5 70.3846 41.5003 70.3949 41.5008 70.4051C41.5013 70.4153 41.5021 70.4255 41.5031 70.4357C41.5041 70.4458 41.5053 70.456 41.5068 70.4661C41.5083 70.4762 41.5101 70.4863 41.5121 70.4963C41.5141 70.5063 41.5164 70.5163 41.5189 70.5263C41.5213 70.5362 41.5241 70.546 41.5271 70.5558C41.53 70.5656 41.5333 70.5753 41.5367 70.5849C41.5402 70.5946 41.5439 70.6041 41.5478 70.6135C41.5517 70.623 41.5559 70.6323 41.5603 70.6416C41.5647 70.6508 41.5693 70.6599 41.5741 70.6689C41.579 70.6779 41.584 70.6868 41.5893 70.6956C41.5946 70.7044 41.6001 70.713 41.6058 70.7215C41.6115 70.73 41.6174 70.7383 41.6235 70.7465C41.6296 70.7547 41.6359 70.7628 41.6424 70.7707C41.649 70.7785 41.6557 70.7863 41.6625 70.7938C41.6694 70.8014 41.6765 70.8088 41.6838 70.816C41.9275 71.0597 42.3263 71.0572 42.5669 70.8166L48.1906 65.196L48.2163 65.1716Z"   fill="#663F17" >
</path>
</svg>
