<svg xmlns="http://www.w3.org/2000/svg" xmlns:xlink="http://www.w3.org/1999/xlink" width="74" height="67" viewBox="0 0 74 67" fill="none">
<g >
<path     fill="#88674D"  d="M3.16 64.648C3.472 64.52 3.92 64.496 8.28 64.152C8.44 64.4 8.576 64.632 8.672 64.84L9.248 64.528C8.88 63.824 8.104 62.76 7.376 61.968L6.84 62.224C7.208 62.632 7.592 63.128 7.928 63.608L3.96 63.896C4.56 63.232 5.176 62.4 5.704 61.528L9.608 61.528L9.608 60.928L6.312 60.928L6.312 59.416L9.016 59.416L9.016 58.816L6.312 58.816L6.312 57.552L5.68 57.552L5.68 58.816L3.04 58.816L3.04 59.416L5.68 59.416L5.68 60.928L2.424 60.928L2.424 61.528L4.96 61.528C4.448 62.432 3.768 63.296 3.552 63.536C3.312 63.824 3.128 64.008 2.952 64.048C3.032 64.216 3.128 64.52 3.16 64.648ZM12.656 62.568L16.144 62.568L16.144 63.128L12.656 63.128L12.656 62.568ZM12.656 62.144L12.656 61.6L16.144 61.6L16.144 62.144L12.656 62.144ZM12.656 63.544L16.144 63.544L16.144 64.136L12.656 64.136L12.656 63.544ZM16.608 57.624C15.328 57.88 12.896 58 10.944 58.016C11 58.144 11.056 58.344 11.064 58.48C11.76 58.48 12.512 58.464 13.264 58.432C13.208 58.616 13.152 58.8 13.088 58.984L11.056 58.984L11.056 59.464L12.912 59.464C12.832 59.664 12.744 59.864 12.64 60.064L10.472 60.064L10.472 60.56L12.368 60.56C11.864 61.408 11.176 62.144 10.264 62.664C10.392 62.784 10.568 63 10.648 63.136C11.2 62.808 11.672 62.408 12.08 61.952L12.08 64.936L12.656 64.936L12.656 64.616L16.144 64.616L16.144 64.936L16.744 64.936L16.744 61.12L12.72 61.12C12.84 60.936 12.952 60.752 13.056 60.56L17.528 60.56L17.528 60.064L13.304 60.064C13.4 59.864 13.488 59.664 13.568 59.464L17.064 59.464L17.064 58.984L13.744 58.984L13.928 58.4C15.08 58.328 16.184 58.216 16.992 58.056L16.608 57.624ZM20.656 62.568L24.144 62.568L24.144 63.128L20.656 63.128L20.656 62.568ZM20.656 62.144L20.656 61.6L24.144 61.6L24.144 62.144L20.656 62.144ZM20.656 63.544L24.144 63.544L24.144 64.136L20.656 64.136L20.656 63.544ZM24.608 57.624C23.328 57.88 20.896 58 18.944 58.016C19 58.144 19.056 58.344 19.064 58.48C19.76 58.48 20.512 58.464 21.264 58.432C21.208 58.616 21.152 58.8 21.088 58.984L19.056 58.984L19.056 59.464L20.912 59.464C20.832 59.664 20.744 59.864 20.64 60.064L18.472 60.064L18.472 60.56L20.368 60.56C19.864 61.408 19.176 62.144 18.264 62.664C18.392 62.784 18.568 63 18.648 63.136C19.2 62.808 19.672 62.408 20.08 61.952L20.08 64.936L20.656 64.936L20.656 64.616L24.144 64.616L24.144 64.936L24.744 64.936L24.744 61.12L20.72 61.12C20.84 60.936 20.952 60.752 21.056 60.56L25.528 60.56L25.528 60.064L21.304 60.064C21.4 59.864 21.488 59.664 21.568 59.464L25.064 59.464L25.064 58.984L21.744 58.984L21.928 58.4C23.08 58.328 24.184 58.216 24.992 58.056L24.608 57.624Z">
</path>
</g>
<path d="M31.582 62.2486L31.8177 62.013L28.569 58.7636C28.5651 58.7598 28.5612 58.7561 28.5571 58.7524C28.5531 58.7488 28.5489 58.7453 28.5447 58.7418C28.5405 58.7384 28.5362 58.7351 28.5318 58.7318C28.5274 58.7286 28.523 58.7255 28.5184 58.7225C28.5139 58.7195 28.5093 58.7166 28.5046 58.7138C28.4999 58.711 28.4952 58.7083 28.4904 58.7058C28.4856 58.7032 28.4807 58.7008 28.4758 58.6985C28.4708 58.6962 28.4659 58.694 28.4608 58.6919C28.4558 58.6898 28.4507 58.6879 28.4456 58.6861C28.4405 58.6842 28.4353 58.6826 28.4301 58.681C28.4249 58.6794 28.4196 58.678 28.4143 58.6767C28.4091 58.6753 28.4037 58.6742 28.3984 58.6731C28.3931 58.672 28.3877 58.6711 28.3823 58.6703C28.3769 58.6695 28.3715 58.6689 28.3661 58.6683C28.3607 58.6678 28.3553 58.6674 28.3498 58.6671C28.3444 58.6669 28.339 58.6667 28.3335 58.6667C28.3281 58.6667 28.3226 58.6669 28.3172 58.6671C28.3118 58.6674 28.3063 58.6678 28.3009 58.6683C28.2955 58.6689 28.2901 58.6695 28.2847 58.6703C28.2793 58.6711 28.274 58.672 28.2686 58.6731C28.2633 58.6742 28.258 58.6753 28.2527 58.6767C28.2474 58.678 28.2422 58.6794 28.2369 58.681C28.2317 58.6826 28.2266 58.6842 28.2214 58.6861C28.2163 58.6879 28.2112 58.6898 28.2062 58.6919C28.2011 58.694 28.1962 58.6962 28.1912 58.6985C28.1863 58.7008 28.1814 58.7032 28.1766 58.7058C28.1718 58.7083 28.1671 58.711 28.1624 58.7138C28.1577 58.7166 28.1531 58.7195 28.1486 58.7225C28.1441 58.7255 28.1396 58.7286 28.1352 58.7318C28.1308 58.7351 28.1265 58.7384 28.1223 58.7418C28.1181 58.7453 28.1139 58.7488 28.1099 58.7524C28.1058 58.7561 28.1019 58.7598 28.098 58.7636C28.0941 58.7675 28.0904 58.7714 28.0867 58.7755C28.083 58.7795 28.0794 58.7836 28.076 58.7878C28.0725 58.792 28.0691 58.7963 28.0659 58.8007C28.0626 58.8051 28.0594 58.8095 28.0564 58.8141C28.0534 58.8186 28.0504 58.8232 28.0476 58.8279C28.0448 58.8326 28.0421 58.8373 28.0395 58.8421C28.0369 58.8469 28.0345 58.8518 28.0321 58.8567C28.0298 58.8617 28.0276 58.8666 28.0255 58.8717C28.0234 58.8767 28.0214 58.8818 28.0196 58.8869C28.0177 58.8921 28.016 58.8973 28.0144 58.9025C28.0128 58.9077 28.0114 58.913 28.01 58.9183C28.0087 58.9236 28.0075 58.9289 28.0064 58.9342C28.0054 58.9396 28.0044 58.945 28.0036 58.9504C28.0028 58.9558 28.0021 58.9612 28.0016 58.9666C28.0011 58.972 28.0007 58.9775 28.0004 58.9829C28.0001 58.9884 28 58.9938 28 58.9993C28 59.0048 28.0001 59.0102 28.0004 59.0157C28.0007 59.0211 28.0011 59.0266 28.0016 59.032C28.0021 59.0374 28.0028 59.0428 28.0036 59.0482C28.0044 59.0536 28.0054 59.059 28.0064 59.0644C28.0075 59.0697 28.0087 59.075 28.01 59.0803C28.0114 59.0856 28.0128 59.0909 28.0144 59.0961C28.016 59.1013 28.0177 59.1065 28.0196 59.1117C28.0214 59.1168 28.0234 59.1219 28.0255 59.1269C28.0276 59.132 28.0298 59.1369 28.0321 59.1419C28.0345 59.1468 28.0369 59.1517 28.0395 59.1565C28.0421 59.1613 28.0448 59.166 28.0476 59.1707C28.0504 59.1754 28.0534 59.18 28.0564 59.1845C28.0594 59.1891 28.0626 59.1935 28.0659 59.1979C28.0691 59.2023 28.0725 59.2066 28.076 59.2108C28.0794 59.215 28.083 59.2191 28.0867 59.2231C28.0904 59.2272 28.0941 59.2311 28.098 59.235L30.8747 62.0123L28.098 64.788C28.0941 64.7918 28.0904 64.7957 28.0867 64.7998C28.083 64.8038 28.0794 64.8079 28.076 64.8121C28.0725 64.8163 28.0691 64.8206 28.0659 64.825C28.0626 64.8294 28.0595 64.8338 28.0564 64.8384C28.0534 64.8429 28.0504 64.8475 28.0476 64.8522C28.0448 64.8568 28.0421 64.8616 28.0395 64.8664C28.037 64.8712 28.0345 64.8761 28.0322 64.881C28.0298 64.8859 28.0276 64.8909 28.0255 64.8959C28.0234 64.901 28.0214 64.906 28.0196 64.9112C28.0177 64.9163 28.016 64.9215 28.0144 64.9267C28.0128 64.9319 28.0114 64.9372 28.0101 64.9425C28.0087 64.9478 28.0075 64.9531 28.0065 64.9584C28.0054 64.9638 28.0045 64.9692 28.0036 64.9745C28.0028 64.9799 28.0022 64.9854 28.0016 64.9908C28.0011 64.9962 28.0007 65.0017 28.0004 65.0071C28.0002 65.0126 28 65.018 28 65.0235C28 65.0289 28.0002 65.0344 28.0004 65.0398C28.0007 65.0453 28.0011 65.0507 28.0016 65.0561C28.0022 65.0616 28.0028 65.067 28.0036 65.0724C28.0045 65.0778 28.0054 65.0831 28.0065 65.0885C28.0075 65.0938 28.0087 65.0992 28.0101 65.1044C28.0114 65.1097 28.0128 65.115 28.0144 65.1202C28.016 65.1254 28.0177 65.1306 28.0196 65.1357C28.0214 65.1409 28.0234 65.146 28.0255 65.151C28.0276 65.156 28.0298 65.161 28.0322 65.1659C28.0345 65.1709 28.037 65.1757 28.0395 65.1805C28.0421 65.1853 28.0448 65.1901 28.0476 65.1948C28.0504 65.1994 28.0534 65.204 28.0564 65.2086C28.0595 65.2131 28.0626 65.2175 28.0659 65.2219C28.0691 65.2263 28.0725 65.2306 28.076 65.2348C28.0794 65.239 28.083 65.2431 28.0867 65.2472C28.0904 65.2512 28.0941 65.2551 28.098 65.259C28.228 65.389 28.4407 65.3876 28.569 65.2593L31.5683 62.2616L31.582 62.2486Z"   fill="#88674D" >
</path>
<g >
<path     fill="#A68E5B"  d="M10.346 10.996Q10.346 10.968 10.367 10.961Q10.388 10.954 10.388 10.954Q10.416 10.968 10.374 11.052Q10.318 11.122 10.318 11.08Q10.318 11.052 10.346 10.996ZM10.934 8.602Q10.892 8.616 10.871 8.574Q10.85 8.532 10.892 8.532Q11.032 8.532 10.934 8.602ZM4.522 1.07Q4.494 0.986 4.578 0.986Q4.662 0.986 4.809 1.042Q4.956 1.098 5.012 1.14Q5.054 1.21 5.236 1.294Q5.39 1.35 5.537 1.462Q5.684 1.574 5.684 1.63Q5.684 1.672 5.831 1.812Q5.978 1.952 5.964 2.099Q5.95 2.246 5.922 2.246Q5.894 2.246 5.894 2.33Q5.894 2.414 5.824 2.526Q5.796 2.61 5.81 2.645Q5.824 2.68 5.88 2.596Q5.908 2.568 6.209 2.582Q6.51 2.596 6.552 2.638Q6.594 2.694 6.678 2.694Q6.79 2.694 6.993 2.764Q7.196 2.834 7.266 2.904Q7.336 3.016 7.322 3.086Q7.28 3.254 7.098 3.254Q7.014 3.254 6.853 3.31Q6.692 3.366 6.692 3.408Q6.692 3.45 6.573 3.513Q6.454 3.576 6.482 3.618Q6.51 3.66 6.454 3.66Q6.328 3.66 6.524 3.87Q6.706 4.052 6.86 3.898Q6.958 3.814 7.147 3.849Q7.336 3.884 7.371 3.954Q7.406 4.024 7.462 4.024Q7.518 4.024 7.518 4.066Q7.518 4.108 7.581 4.08Q7.644 4.052 7.84 4.15Q7.952 4.234 7.952 4.262Q7.798 4.304 8.022 4.416Q8.162 4.472 8.176 4.472Q8.19 4.458 8.183 4.395Q8.176 4.332 8.148 4.234Q8.12 4.136 8.064 4.038Q7.966 3.856 7.966 3.786Q7.966 3.716 7.854 3.59Q7.7 3.38 7.924 3.268Q7.994 3.226 8.043 3.184Q8.092 3.142 8.554 3.086Q9.128 3.044 9.464 2.946Q10.122 2.792 10.437 2.757Q10.752 2.722 11.088 2.82Q11.354 2.89 11.375 2.918Q11.396 2.946 11.522 3.016Q11.62 3.058 11.62 3.086Q11.578 3.114 11.599 3.184Q11.62 3.254 11.676 3.254Q11.774 3.254 11.907 3.373Q12.04 3.492 12.054 3.576Q12.068 3.702 12.11 3.702Q12.208 3.702 12.096 3.926Q12.026 4.038 12.026 4.115Q12.026 4.192 11.991 4.192Q11.956 4.192 11.928 4.388Q11.9 4.584 11.872 4.584Q11.844 4.584 11.802 4.724Q11.606 5.172 11.382 5.48Q11.27 5.62 11.48 5.858Q11.578 5.956 11.599 6.075Q11.62 6.194 11.697 6.278Q11.774 6.362 11.795 6.488Q11.816 6.614 11.767 6.635Q11.718 6.656 11.48 6.628Q10.528 6.572 10.024 6.712Q9.646 6.824 9.534 6.838Q9.464 6.866 9.45 6.894Q9.436 6.922 9.436 7.02Q9.436 7.188 9.485 7.23Q9.534 7.272 9.436 7.314Q9.352 7.328 9.345 7.363Q9.338 7.398 9.408 7.426Q9.45 7.44 9.618 7.454Q9.786 7.468 9.814 7.496Q9.842 7.524 9.898 7.496Q9.954 7.468 9.954 7.517Q9.954 7.566 10.031 7.552Q10.108 7.538 10.136 7.566Q10.164 7.594 10.234 7.594Q10.304 7.594 10.374 7.678Q10.444 7.762 10.423 7.818Q10.402 7.874 10.563 8.049Q10.724 8.224 10.668 8.28Q10.64 8.294 10.605 8.371Q10.57 8.448 10.57 8.504Q10.57 8.56 10.612 8.588Q10.64 8.588 10.654 8.532L10.654 8.714Q10.64 8.952 10.584 9.015Q10.528 9.078 10.542 9.127Q10.556 9.176 10.472 9.211Q10.388 9.246 10.444 9.274Q10.5 9.302 10.57 9.288Q10.64 9.26 10.64 9.288Q10.64 9.33 10.598 9.442Q10.528 9.554 10.43 9.568L10.332 9.596L10.444 9.652Q10.542 9.708 10.57 9.694L10.556 9.932Q10.542 9.988 10.542 10.016Q10.514 10.044 10.444 10.044Q10.374 10.044 10.374 10.114Q10.374 10.128 10.381 10.142Q10.388 10.156 10.402 10.142Q10.458 10.114 10.458 10.198Q10.458 10.24 10.444 10.268Q10.402 10.324 10.416 10.422Q10.43 10.52 10.374 10.632Q10.318 10.744 10.332 10.765Q10.346 10.786 10.304 10.842Q10.248 10.884 10.248 11.087Q10.248 11.29 10.304 11.43Q10.332 11.542 10.304 11.619Q10.276 11.696 10.283 11.752Q10.29 11.808 10.241 11.899Q10.192 11.99 10.234 12.032Q10.276 12.06 10.304 12.375Q10.332 12.69 10.318 12.942Q10.318 13.026 10.318 13.278Q10.318 13.53 10.262 13.607Q10.206 13.684 10.227 13.838Q10.248 13.992 10.213 14.041Q10.178 14.09 10.108 14.3L10.066 14.524L9.912 14.384Q9.548 14.006 9.548 14.034Q9.548 14.076 9.478 13.999Q9.408 13.922 9.275 13.817Q9.142 13.712 9.142 13.67Q9.142 13.628 9.079 13.628Q9.016 13.628 9.016 13.544Q9.016 13.432 8.925 13.404Q8.834 13.376 8.554 13.39Q8.148 13.432 7.63 13.544Q7.112 13.656 7.112 13.698Q7.098 13.712 7.084 13.712Q7.07 13.712 7.028 13.705Q6.986 13.698 6.958 13.684Q6.79 13.642 6.762 13.663Q6.734 13.684 6.699 13.859Q6.664 14.034 6.587 14.104Q6.51 14.174 6.454 14.286L6.384 14.398L6.23 14.174Q6.062 13.95 5.978 13.831Q5.894 13.712 5.908 13.628Q5.922 13.544 5.866 13.516Q5.81 13.488 5.838 13.411Q5.866 13.334 5.817 13.334Q5.768 13.334 5.768 13.278Q5.768 13.222 5.726 13.222Q5.684 13.222 5.684 13.18Q5.684 13.138 5.74 13.152Q5.796 13.166 5.81 13.11Q5.81 13.04 5.768 12.984Q5.712 12.928 5.761 12.816Q5.81 12.704 5.824 12.543Q5.838 12.382 5.866 12.319Q5.894 12.256 5.908 12.116Q5.922 11.976 5.964 11.85Q6.006 11.724 5.992 11.71Q5.95 11.668 5.936 11.199Q5.922 10.73 5.922 10.436Q5.978 9.386 5.824 9.274Q5.768 9.232 5.768 9.134Q5.768 9.036 5.726 9.008Q5.684 8.98 5.684 8.889Q5.684 8.798 5.649 8.77Q5.614 8.742 5.586 8.616Q5.558 8.518 5.432 8.392Q5.306 8.266 5.243 8.266Q5.18 8.266 4.802 9.022Q4.634 9.302 4.543 9.4Q4.452 9.498 4.382 9.484Q4.326 9.47 4.256 9.526Q4.102 9.624 4.102 9.484Q4.102 9.414 3.976 9.218Q3.85 9.022 3.871 8.994Q3.892 8.966 3.815 8.791Q3.738 8.616 3.759 8.574Q3.78 8.532 3.724 8.476Q3.668 8.406 3.696 8.336Q3.724 8.266 3.892 7.944Q4.116 7.51 4.172 7.363Q4.228 7.216 4.284 7.153Q4.34 7.09 4.34 7.034Q4.34 6.978 4.382 6.922Q4.41 6.894 4.501 6.649Q4.592 6.404 4.571 6.39Q4.55 6.376 4.459 6.432Q4.368 6.488 4.326 6.544Q4.298 6.586 4.242 6.586Q4.186 6.586 3.976 6.733Q3.766 6.88 3.731 6.88Q3.696 6.88 3.682 6.922Q3.668 6.978 3.325 7.125Q2.982 7.272 2.912 7.272Q2.884 7.272 2.688 7.139Q2.492 7.006 2.408 6.992Q2.338 6.978 2.254 6.866Q2.17 6.754 2.17 6.656Q2.17 6.488 2.086 6.46Q2.03 6.46 2.016 6.544L2.002 6.502Q1.974 6.404 1.904 6.236Q1.834 6.068 1.862 6.012Q1.904 5.956 1.974 5.942Q2.044 5.928 2.072 5.956Q2.142 6.026 2.366 5.991Q2.59 5.956 2.59 5.9Q2.59 5.858 2.646 5.879Q2.702 5.9 2.765 5.83Q2.828 5.76 2.912 5.76Q2.996 5.76 3.024 5.732Q3.08 5.69 3.318 5.55Q3.556 5.41 3.584 5.41Q3.64 5.41 3.738 5.34Q3.836 5.27 4.256 5.06L4.844 4.766Q5.04 4.668 5.04 4.717Q5.04 4.766 5.152 4.647Q5.264 4.528 5.292 4.332Q5.306 4.192 5.285 4.157Q5.264 4.122 5.166 4.192Q4.83 4.36 4.816 4.332Q4.634 4.052 4.494 3.94Q4.382 3.856 4.382 3.772Q4.368 3.702 4.312 3.639Q4.256 3.576 4.186 3.576Q4.018 3.576 4.046 3.282Q4.046 3.114 4.004 3.058Q3.906 2.932 4.116 2.722Q4.214 2.624 4.249 2.505Q4.284 2.386 4.34 2.316Q4.396 2.246 4.368 2.176Q4.34 2.12 4.41 1.973Q4.48 1.826 4.522 1.77Q4.578 1.756 4.578 1.469Q4.578 1.182 4.522 1.07ZM10.808 3.94Q10.752 3.912 10.689 3.905Q10.626 3.898 10.591 3.933Q10.556 3.968 10.157 4.059Q9.758 4.15 9.59 4.178Q9.226 4.206 9.226 4.262Q9.226 4.318 9.31 4.402Q9.366 4.458 9.366 4.563Q9.366 4.668 9.324 5.088Q9.282 5.326 9.345 5.382Q9.408 5.438 9.366 5.55Q9.352 5.62 9.359 5.634Q9.366 5.648 9.422 5.634Q9.478 5.62 9.632 5.592Q10.094 5.508 10.192 5.438Q10.22 5.41 10.367 5.123Q10.514 4.836 10.542 4.724Q10.57 4.626 10.668 4.416Q10.864 4.024 10.808 3.94ZM8.12 4.64Q8.12 4.64 8.141 4.64Q8.162 4.64 8.162 4.598Q8.162 4.556 8.12 4.556Q8.078 4.556 8.078 4.598Q8.078 4.64 8.12 4.64ZM8.288 4.948Q8.274 4.794 8.253 4.766Q8.232 4.738 8.148 4.738Q8.05 4.724 7.749 4.794Q7.448 4.864 7.336 4.934Q7.28 4.962 7.196 4.962Q7.112 4.962 6.972 5.074Q6.916 5.088 6.881 5.116Q6.846 5.144 6.818 5.144Q6.79 5.144 6.79 5.144Q6.776 5.102 6.741 5.102Q6.706 5.102 6.664 5.137Q6.622 5.172 6.594 5.214Q6.552 5.298 6.51 5.298Q6.454 5.284 6.391 5.375Q6.328 5.466 6.356 5.487Q6.384 5.508 6.811 5.648Q7.238 5.788 7.252 5.767Q7.266 5.746 7.378 5.578L7.49 5.382L7.532 5.606Q7.588 5.816 7.63 5.865Q7.672 5.914 7.672 6.082Q7.672 6.25 7.756 6.348Q7.84 6.446 7.84 6.509Q7.84 6.572 7.903 6.628Q7.966 6.684 7.966 6.761Q7.966 6.838 8.022 6.908Q8.078 6.978 8.057 7.188Q8.036 7.398 7.98 7.398Q7.882 7.398 7.952 7.51Q7.98 7.552 8.204 7.482L8.68 7.342Q8.89 7.272 8.876 7.244Q8.82 7.23 8.82 7.174Q8.82 7.118 8.792 7.118Q8.708 7.118 8.61 6.999Q8.512 6.88 8.498 6.796Q8.498 6.684 8.421 6.537Q8.344 6.39 8.33 5.767Q8.316 5.144 8.288 4.948ZM6.72 6.614Q6.72 6.614 6.58 6.523Q6.44 6.432 6.398 6.432Q6.356 6.432 6.23 6.348Q6.104 6.264 6.048 6.306Q5.992 6.348 6.02 6.348Q6.048 6.348 5.971 6.481Q5.894 6.614 5.915 6.642Q5.936 6.67 5.873 6.733Q5.81 6.796 5.789 6.957Q5.768 7.118 5.712 7.16Q5.656 7.202 5.656 7.272Q5.656 7.342 5.621 7.377Q5.586 7.412 5.586 7.44Q5.586 7.468 5.495 7.636Q5.404 7.804 5.376 7.86Q5.292 7.944 5.404 7.958Q5.474 7.972 5.614 7.986Q5.824 8 5.95 8.014Q6.202 8.07 6.433 8.028Q6.664 7.986 7.28 7.776Q7.91 7.566 7.882 7.538Q7.868 7.524 7.84 7.524Q7.77 7.524 7.525 7.328Q7.28 7.132 7.28 7.09Q7.28 7.02 7.14 6.908Q7 6.796 6.72 6.614ZM9.24 7.314Q9.31 7.314 9.31 7.174Q9.31 7.034 9.268 7.034Q9.226 7.034 9.247 7.111Q9.268 7.188 9.226 7.216Q9.17 7.244 9.184 7.279Q9.198 7.314 9.24 7.314ZM8.764 8.812Q8.736 8.7 8.687 8.679Q8.638 8.658 8.484 8.728Q8.358 8.77 8.302 8.756Q8.246 8.742 8.246 8.77Q8.246 8.812 7.861 8.938Q7.476 9.064 7.392 9.064Q7.322 9.064 7.294 9.092Q7.266 9.134 7.014 9.176Q6.944 9.19 6.93 9.218Q6.916 9.246 6.916 9.372Q7 10.058 6.944 10.17Q6.902 10.254 6.958 10.24Q7.014 10.226 7.322 10.1Q8.092 9.764 8.456 9.694Q8.554 9.68 8.575 9.694Q8.596 9.708 8.596 9.806Q8.61 10.03 8.792 9.974Q8.848 9.932 8.862 9.869Q8.876 9.806 8.876 9.526Q8.848 9.134 8.813 9.05Q8.778 8.966 8.764 8.812ZM9.023 11.213Q9.023 11.213 9.0055 11.1885Q8.988 11.164 8.967 10.891Q8.946 10.618 8.904 10.618Q8.778 10.618 7.994 10.968Q7.504 11.192 7.112 11.22Q7.028 11.234 7 11.255Q6.972 11.276 6.986 11.304Q7 11.388 6.993 11.689Q6.986 11.99 6.972 12.074Q6.944 12.186 6.986 12.186Q7.028 12.186 7.014 12.284Q6.986 12.424 7.049 12.445Q7.112 12.466 7.35 12.396Q8.05 12.2 8.344 12.2Q8.596 12.2 8.645 12.179Q8.694 12.158 8.736 12.186Q8.834 12.242 8.869 12.193Q8.904 12.144 8.918 11.934Q8.946 11.626 8.988 11.654L9.016 11.542Q9.016 11.528 9.016 11.5Q9.002 11.304 9.03 11.283Q9.058 11.262 9.023 11.213ZM8.918 12.396Q8.932 12.312 8.904 12.298Q8.876 12.284 8.806 12.368Q8.736 12.452 8.736 12.466Q8.736 12.48 8.806 12.48Q8.89 12.48 8.918 12.396ZM21.308 8.021Q21.308 8.021 21.343 7.9685Q21.378 7.916 21.469 7.895Q21.56 7.874 21.749 7.867Q21.938 7.86 22.141 8.014Q22.344 8.168 22.533 8.287Q22.722 8.406 22.736 8.462Q22.792 8.672 22.932 9.022Q22.988 9.176 22.96 9.316Q22.946 9.428 22.974 9.428Q23.044 9.414 23.205 9.106Q23.366 8.798 23.38 8.672Q23.422 8.392 23.45 8.343Q23.478 8.294 23.534 8.294Q23.632 8.28 23.737 8.259Q23.842 8.238 23.898 8.294Q23.954 8.35 24.283 8.581Q24.612 8.812 24.689 8.959Q24.766 9.106 24.794 9.127Q24.822 9.148 24.892 9.288Q24.934 9.428 24.899 9.491Q24.864 9.554 24.472 9.96Q24.276 10.17 24.164 10.338Q24.052 10.52 23.842 10.723Q23.632 10.926 23.506 10.982Q23.408 11.038 23.331 11.15Q23.254 11.262 23.254 11.346Q23.254 11.402 23.135 11.549Q23.016 11.696 22.96 11.696Q22.904 11.696 22.925 11.745Q22.946 11.794 23.212 11.864Q23.478 11.934 24.08 11.92Q24.598 11.906 24.766 11.857Q24.934 11.808 25.06 11.612Q25.326 11.22 25.368 10.464Q25.382 10.128 25.452 9.757Q25.522 9.386 25.564 9.358Q25.592 9.33 25.592 9.344Q25.592 9.358 25.592 9.386Q25.592 9.442 25.62 9.771Q25.648 10.1 25.662 10.212Q25.662 10.24 25.676 10.296Q25.69 10.394 25.746 10.31Q25.76 10.254 25.76 10.212Q25.76 10.114 25.802 10.086Q25.844 10.058 25.858 9.96Q25.872 9.918 25.872 9.96Q25.872 10.002 25.858 10.1Q25.844 10.31 25.9 10.31Q25.956 10.31 26.012 10.1L26.082 9.876L26.068 10.254Q26.054 10.632 26.082 10.618Q26.152 10.576 26.152 10.674Q26.166 10.744 26.124 10.828Q26.096 10.926 26.096 10.94Q26.096 10.954 26.152 10.954Q26.208 10.954 26.222 10.884L26.236 11.038Q26.264 11.248 26.292 11.318L26.376 11.486Q26.418 11.57 26.418 11.626Q26.418 11.682 26.502 11.724Q26.558 11.752 26.579 11.857Q26.6 11.962 26.53 12.004Q26.502 12.018 26.502 12.095Q26.502 12.172 26.558 12.144Q26.614 12.13 26.614 12.158Q26.614 12.186 26.6 12.256Q26.586 12.396 26.558 12.55Q26.53 12.704 26.502 12.704Q26.474 12.704 26.481 12.753Q26.488 12.802 26.502 12.865Q26.516 12.928 26.544 12.956L26.39 13.082Q26.012 13.278 25.83 13.32Q25.018 13.516 24.36 13.544L24.052 13.53L24.08 13.53L24.276 13.502L23.968 13.46Q23.45 13.418 22.946 13.18Q22.792 13.11 22.568 12.907Q22.344 12.704 22.19 12.592Q21.7 12.256 21.658 11.934Q21.616 11.752 21.581 11.507Q21.546 11.262 21.504 10.408Q21.476 9.106 21.294 8.392Q21.238 8.126 21.308 8.021ZM25.704 10.646Q25.732 10.576 25.704 10.562L25.69 10.618L25.704 10.646ZM26.047 10.758Q26.047 10.758 26.0715 10.758Q26.096 10.758 26.096 10.716Q26.096 10.674 26.047 10.674Q25.998 10.674 25.998 10.716Q25.998 10.758 26.047 10.758ZM18.893 6.495Q18.893 6.495 18.9875 6.4705Q19.082 6.446 19.173 6.39Q19.264 6.334 19.306 6.334Q19.348 6.334 19.558 6.39Q19.782 6.488 19.852 6.488Q20.062 6.488 20.468 6.922Q20.678 7.132 20.692 7.202Q20.706 7.272 20.594 7.412Q20.538 7.482 20.524 7.748Q20.51 8.742 20.538 9.288Q20.622 10.744 20.608 11.304Q20.608 11.836 20.601 12.081Q20.594 12.326 20.622 12.76Q20.65 13.194 20.594 13.194Q20.468 13.194 20.44 13.768Q20.426 13.852 20.37 13.852Q20.314 13.852 20.314 14.062L20.314 14.286L20.146 14.272Q19.964 14.258 19.859 14.104Q19.754 13.95 19.656 13.887Q19.558 13.824 19.46 13.698Q19.362 13.572 19.306 13.53Q19.012 13.25 18.858 12.886Q18.774 12.676 18.634 12.536Q18.494 12.396 18.543 12.326Q18.592 12.256 18.648 12.256Q18.704 12.256 18.753 12.214Q18.802 12.172 19.012 12.144L19.222 12.13L19.208 11.836Q19.194 11.542 19.222 11.024Q19.236 10.856 19.236 10.737Q19.236 10.618 19.236 10.541Q19.236 10.464 19.236 10.464Q19.222 10.464 18.984 10.618Q18.564 10.856 18.13 10.996Q17.962 11.052 17.927 11.094Q17.892 11.136 17.85 11.248Q17.794 11.416 17.808 11.626Q17.808 11.906 17.724 12.753Q17.64 13.6 17.598 13.824Q17.542 13.964 17.528 13.978Q17.514 13.978 17.486 13.95Q17.36 13.796 17.36 13.95Q17.36 14.09 17.164 13.852Q17.052 13.712 16.842 13.523Q16.632 13.334 16.646 13.306Q16.66 13.278 16.618 13.138Q16.576 12.998 16.632 12.62Q16.688 12.242 16.73 11.857Q16.772 11.472 16.8 11.325Q16.828 11.178 16.863 10.737Q16.898 10.296 16.926 10.142Q16.982 9.708 16.982 8.63Q16.982 8.182 16.926 8.028Q16.87 7.874 16.576 7.566Q16.352 7.342 16.401 7.342Q16.45 7.342 16.422 7.272Q16.394 7.132 16.772 7.132Q16.87 7.132 16.982 7.16Q17.22 7.16 17.381 7.111Q17.542 7.062 18.256 6.74Q18.704 6.544 18.893 6.495ZM19.082 7.342Q19.04 7.23 19.005 7.223Q18.97 7.216 18.83 7.3Q18.704 7.384 18.382 7.51L18.046 7.636L18.046 7.832Q18.046 8 18.046 8.35Q18.046 8.7 18.081 8.735Q18.116 8.77 18.62 8.504L19.138 8.252L19.124 7.86Q19.096 7.482 19.082 7.342ZM19.222 9.68Q19.222 9.498 19.187 9.316Q19.152 9.134 19.131 9.134Q19.11 9.134 18.718 9.309Q18.326 9.484 18.165 9.533Q18.004 9.582 17.962 9.736Q17.92 9.89 17.92 10.1L17.92 10.31L18.228 10.142Q18.802 9.862 19.11 9.862Q19.194 9.862 19.208 9.834Q19.222 9.806 19.222 9.68ZM21.112 2.232Q21.378 2.078 21.903 2.379Q22.428 2.68 22.428 2.974Q22.428 3.058 22.484 3.114Q22.638 3.24 22.582 3.464L22.54 3.66Q22.526 3.702 22.491 3.751Q22.456 3.8 22.498 3.842Q22.54 3.884 22.505 4.038Q22.47 4.192 22.47 4.304Q22.47 4.416 22.666 4.164Q22.736 4.094 22.848 3.94Q23.38 3.254 23.296 3.142Q23.282 3.114 23.331 3.058Q23.38 3.002 23.422 3.016Q23.478 3.03 23.506 2.988Q23.534 2.932 23.674 2.953Q23.814 2.974 23.898 3.044Q23.982 3.142 24.031 3.142Q24.08 3.142 24.241 3.289Q24.402 3.436 24.43 3.436Q24.458 3.436 24.556 3.632L24.696 3.94Q24.738 4.052 24.696 4.164Q24.668 4.262 24.577 4.353Q24.486 4.444 24.458 4.444Q24.388 4.444 23.982 4.85Q23.688 5.144 23.639 5.144Q23.59 5.144 23.534 5.242Q23.492 5.34 23.359 5.487Q23.226 5.634 23.184 5.634Q23.128 5.634 23.1 5.718Q23.1 5.774 23.128 5.788Q23.156 5.802 23.268 5.802Q23.422 5.802 23.471 5.753Q23.52 5.704 23.695 5.795Q23.87 5.886 23.94 5.886Q24.01 5.886 24.115 5.963Q24.22 6.04 24.283 6.04Q24.346 6.04 24.423 6.124Q24.5 6.208 24.542 6.208Q24.584 6.208 24.647 6.341Q24.71 6.474 24.808 6.502Q24.906 6.53 24.948 6.656Q25.004 6.796 24.99 6.824Q24.976 6.852 24.892 6.852Q24.794 6.852 24.766 6.957Q24.738 7.062 24.703 7.062Q24.668 7.062 24.668 7.118Q24.668 7.174 24.472 7.195Q24.276 7.216 23.772 7.286Q22.904 7.384 22.862 7.3Q22.834 7.272 22.638 7.286L22.428 7.314L22.134 7.02Q21.84 6.74 21.784 6.74Q21.728 6.74 21.756 6.656Q21.784 6.572 21.728 6.572Q21.672 6.572 21.525 6.495Q21.378 6.418 21.35 6.362Q21.196 6.194 21.294 5.956Q21.378 5.774 21.294 4.696Q21.252 4.192 21.238 3.73Q21.182 3.03 21.014 2.61Q20.874 2.33 21.112 2.232ZM17.836 1.294Q17.948 1.196 18.214 1.336Q18.76 1.644 18.858 1.644Q18.886 1.644 19.054 1.833Q19.222 2.022 19.222 2.05Q19.222 2.078 19.348 2.204Q19.46 2.33 19.453 2.414Q19.446 2.498 19.306 2.666Q19.18 2.792 19.11 2.932L18.97 3.212L18.9 3.338L19.124 3.38Q19.726 3.52 19.852 3.632Q20.006 3.744 20.202 3.961Q20.398 4.178 20.398 4.234Q20.398 4.318 20.461 4.521Q20.524 4.724 20.559 4.962Q20.594 5.2 20.622 5.382Q20.636 5.508 20.629 5.529Q20.622 5.55 20.552 5.522Q20.468 5.508 20.412 5.571Q20.356 5.634 20.3 5.592Q20.258 5.564 19.95 5.431Q19.642 5.298 19.614 5.298Q19.558 5.298 19.474 5.228L19.39 5.13L19.152 5.242Q18.942 5.368 18.823 5.445Q18.704 5.522 18.466 5.662Q18.228 5.802 17.85 6.054Q17.458 6.348 16.933 6.621Q16.408 6.894 16.212 6.95Q16.128 6.964 16.065 6.866Q16.002 6.768 15.82 6.698Q15.61 6.586 15.484 6.341Q15.358 6.096 15.4 5.83Q15.428 5.662 15.498 5.578Q15.568 5.494 15.806 5.382Q16.296 5.13 16.464 4.864Q16.786 4.416 17.122 3.786Q17.458 3.156 17.57 2.792Q17.598 2.652 17.675 2.491Q17.752 2.33 17.766 2.05Q17.78 1.77 17.71 1.7Q17.64 1.63 17.71 1.483Q17.78 1.336 17.836 1.294ZM18.676 4.192Q18.592 4.122 18.564 4.122Q18.536 4.122 18.494 4.178Q18.452 4.234 18.452 4.276Q18.452 4.346 18.648 4.29Q18.718 4.262 18.718 4.241Q18.718 4.22 18.676 4.192ZM36.708 2.316Q37.044 2.176 37.786 2.61Q37.926 2.708 38.059 2.813Q38.192 2.918 38.192 2.96Q38.192 2.988 38.262 3.065Q38.332 3.142 38.472 3.415Q38.612 3.688 38.64 3.695Q38.668 3.702 38.668 3.793Q38.668 3.884 38.724 3.926Q38.822 4.038 38.584 4.038Q38.514 4.038 38.402 4.038Q38.094 4.024 37.618 4.066Q37.142 4.108 36.673 4.143Q36.204 4.178 36.036 4.206L35.84 4.234L35.798 4.458Q35.784 4.696 35.448 5.242L35.364 5.368L35.504 5.354Q35.98 5.256 36.064 5.186Q36.148 5.116 36.33 5.144Q36.512 5.172 36.596 5.116Q36.764 5.032 37.002 5.242Q37.128 5.354 37.184 5.354Q37.24 5.354 37.373 5.438Q37.506 5.522 37.786 5.662Q38.08 5.816 38.136 5.851Q38.192 5.886 38.192 5.956Q38.192 6.054 38.234 6.166Q38.43 6.544 38.451 6.67Q38.472 6.796 38.416 6.95Q38.346 7.104 38.325 7.335Q38.304 7.566 38.276 7.566Q38.248 7.566 38.241 7.818Q38.234 8.07 38.234 8.315Q38.234 8.56 38.234 9.036Q38.22 9.96 38.122 10.562Q38.052 10.898 38.038 11.213Q38.024 11.528 37.996 11.752Q37.968 12.186 37.982 12.48Q37.996 12.592 37.954 12.907Q37.912 13.222 37.884 13.236Q37.87 13.264 37.702 13.138Q37.534 13.012 37.394 12.97Q37.254 12.928 37.254 12.809Q37.254 12.69 37.156 12.648Q37.058 12.606 37.009 12.543Q36.96 12.48 36.89 12.48Q36.75 12.48 36.75 12.116L36.75 11.948L36.246 11.962Q35.728 11.99 35.462 12.046Q35.112 12.088 34.573 12.109Q34.034 12.13 33.81 12.102Q33.544 12.06 33.523 12.081Q33.502 12.102 33.46 12.361Q33.418 12.62 33.39 12.662Q33.362 12.704 33.18 12.508Q32.998 12.312 32.942 12.312Q32.886 12.312 32.83 12.214Q32.774 12.116 32.774 12.046Q32.774 11.962 32.641 11.829Q32.508 11.696 32.522 11.668Q32.536 11.64 32.459 11.584Q32.382 11.528 32.389 11.304Q32.396 11.08 32.424 11.031Q32.452 10.982 32.396 10.94Q32.284 10.912 32.34 10.828Q32.34 10.814 32.382 10.814Q32.41 10.814 32.368 10.702Q32.326 10.59 32.382 10.576Q32.452 10.506 32.473 8.763Q32.494 7.02 32.41 6.74Q32.34 6.572 32.095 6.411Q31.85 6.25 31.85 6.173Q31.85 6.096 31.745 6.033Q31.64 5.97 31.64 5.886Q31.64 5.83 31.668 5.823Q31.696 5.816 31.794 5.83Q31.934 5.858 32.172 5.886Q32.508 5.942 32.9 6.138Q33.026 6.18 33.082 6.18Q33.138 6.18 33.292 6.11L33.432 6.054L33.32 5.942Q33.222 5.844 33.222 5.788Q33.222 5.732 33.362 5.529Q33.502 5.326 33.628 5.2Q34.006 4.822 34.006 4.668Q34.006 4.64 33.439 4.647Q32.872 4.654 32.753 4.605Q32.634 4.556 32.438 4.507Q32.242 4.458 32.053 4.311Q31.864 4.164 31.724 4.108Q31.584 4.052 31.556 3.968Q31.458 3.744 31.346 3.674Q31.276 3.618 31.262 3.541Q31.248 3.464 31.29 3.422Q31.332 3.38 31.458 3.366Q31.584 3.352 32.13 3.184Q33.278 2.876 34.16 2.722Q34.636 2.638 35.028 2.554Q35.742 2.414 36.26 2.358Q36.624 2.344 36.708 2.316ZM36.645 7.398Q36.645 7.398 36.6415 7.223Q36.638 7.048 36.624 6.761Q36.61 6.474 36.54 6.376L36.498 6.264L35.35 6.614Q34.23 6.95 34.181 7.013Q34.132 7.076 34.118 7.027Q34.104 6.978 33.852 7.02L33.628 7.034L33.642 7.272Q33.684 7.496 33.698 7.86Q33.712 7.986 33.719 8.049Q33.726 8.112 33.733 8.154Q33.74 8.196 33.761 8.196Q33.782 8.196 33.796 8.196Q34.328 7.972 35.14 7.762Q36.05 7.51 36.176 7.888Q36.19 7.93 36.344 8.035Q36.498 8.14 36.638 8.21Q36.652 8.21 36.652 7.979Q36.652 7.748 36.645 7.398ZM36.694 8.686Q36.68 8.588 36.603 8.581Q36.526 8.574 36.316 8.644Q36.12 8.714 35.518 8.868L34.776 9.064Q34.188 9.218 33.838 9.218Q33.74 9.218 33.726 9.246Q33.712 9.274 33.712 9.414Q33.712 9.61 33.698 9.729Q33.684 9.848 33.642 10.352Q33.628 10.772 33.656 10.821Q33.684 10.87 33.936 10.814Q34.482 10.702 34.972 10.618Q35.63 10.52 35.77 10.478Q35.868 10.45 36.253 10.478Q36.638 10.506 36.68 10.562Q36.694 10.576 36.701 10.163Q36.708 9.75 36.708 9.288Q36.708 8.826 36.694 8.686ZM47.572 3.226Q47.628 3.128 47.649 3.149Q47.67 3.17 47.6 3.24Q47.544 3.282 47.537 3.282Q47.53 3.282 47.572 3.226ZM49.504 3.17Q49.574 2.96 49.644 2.96Q49.742 2.96 49.987 3.051Q50.232 3.142 50.26 3.184Q50.316 3.254 50.477 3.275Q50.638 3.296 50.708 3.373Q50.778 3.45 50.946 3.52Q51.184 3.674 51.072 3.702Q51.03 3.702 51.058 3.765Q51.086 3.828 51.086 3.919Q51.086 4.01 51.114 4.038Q51.156 4.108 51.156 4.976L51.156 5.508L51.002 5.382Q50.862 5.242 50.785 5.242Q50.708 5.242 50.61 5.2Q50.512 5.158 50.456 5.193Q50.4 5.228 50.344 5.179Q50.288 5.13 50.19 4.948Q50.092 4.766 50.092 4.696Q50.092 4.626 49.994 4.416Q49.896 4.206 49.84 4.024Q49.784 3.842 49.714 3.758Q49.644 3.674 49.644 3.611Q49.644 3.548 49.546 3.464L49.434 3.366L49.504 3.17ZM46.648 1.588L46.76 1.518L46.858 1.588Q46.928 1.686 47.306 1.882Q47.684 2.078 47.684 2.099Q47.684 2.12 47.824 2.197Q47.964 2.274 48.034 2.379Q48.104 2.484 48.055 2.722Q48.006 2.96 48.055 3.016Q48.104 3.072 48.062 3.1Q48.034 3.128 47.936 3.114Q47.838 3.1 47.789 3.072Q47.74 3.044 47.712 3.086Q47.684 3.128 47.642 3.1Q47.6 3.072 47.25 3.464Q47.166 3.576 47.117 3.576Q47.068 3.576 46.998 3.688Q46.858 3.982 46.718 3.982Q46.676 3.982 46.676 4.017Q46.676 4.052 46.599 4.052Q46.522 4.052 46.522 4.094Q46.522 4.136 46.48 4.136Q46.438 4.136 46.2 4.374Q46.032 4.542 45.822 4.689Q45.612 4.836 45.57 4.836Q45.57 4.836 45.556 4.668Q45.514 4.276 45.374 4.276Q45.318 4.276 45.262 4.164L45.164 3.982Q45.136 3.898 45.185 3.821Q45.234 3.744 45.178 3.59Q45.136 3.422 45.227 3.289Q45.318 3.156 46.046 2.4Q46.522 1.896 46.522 1.742Q46.522 1.686 46.648 1.588ZM51.268 1.042Q51.296 1 51.331 1Q51.366 1 51.52 1.042Q51.94 1.224 52.458 1.532Q52.724 1.7 52.794 1.882Q52.808 1.938 52.78 1.952Q52.752 1.966 52.668 1.952Q52.612 1.952 52.605 1.987Q52.598 2.022 52.647 2.05Q52.696 2.078 52.654 2.183Q52.612 2.288 52.654 2.33Q52.682 2.372 52.668 2.463Q52.654 2.554 52.598 2.624Q52.57 2.666 52.556 5.102L52.556 6.418L52.724 6.404Q52.906 6.376 53.025 6.376Q53.144 6.376 53.144 6.292Q53.144 6.25 53.165 6.229Q53.186 6.208 53.284 6.236Q53.41 6.25 53.578 6.278Q53.746 6.306 53.746 6.334Q53.746 6.362 54.04 6.362Q54.264 6.376 54.334 6.411Q54.404 6.446 54.39 6.558Q54.376 6.586 54.404 6.607Q54.432 6.628 54.502 6.642Q54.642 6.67 54.642 6.747Q54.642 6.824 54.726 6.838Q54.754 6.852 54.775 6.873Q54.796 6.894 54.796 6.908Q54.768 6.936 54.81 6.964Q54.852 6.992 54.803 7.076Q54.754 7.16 54.782 7.188Q54.81 7.216 54.768 7.265Q54.726 7.314 54.74 7.37Q54.754 7.412 54.74 7.426Q54.726 7.44 54.663 7.447Q54.6 7.454 54.495 7.468Q54.39 7.482 54.18 7.496Q53.186 7.566 52.682 7.706L52.556 7.748L52.514 8.21Q52.486 8.672 52.5 10.044Q52.5 12.396 52.472 12.564Q52.444 12.648 52.444 12.914Q52.458 13.082 52.402 13.383Q52.346 13.684 52.29 13.754Q52.262 13.796 52.192 14.118Q52.15 14.51 52.122 14.524Q52.08 14.538 52.038 14.454Q52.01 14.412 51.94 14.286Q51.786 13.978 51.716 13.978Q51.646 13.978 51.513 13.817Q51.38 13.656 51.429 13.558Q51.478 13.46 51.394 13.376Q51.31 13.292 51.31 13.25Q51.31 13.208 51.226 13.082Q51.142 12.956 51.17 12.886Q51.198 12.816 51.212 11.493Q51.226 10.17 51.296 9.456Q51.394 8.196 51.296 8.084Q51.254 8.014 50.54 8.196Q49.826 8.378 49.7 8.406Q49.364 8.532 49.098 8.42Q48.916 8.322 48.734 8.308Q48.608 8.294 48.573 8.301Q48.538 8.308 48.538 8.35Q48.538 8.434 48.657 8.483Q48.776 8.532 48.727 8.567Q48.678 8.602 48.699 8.714Q48.72 8.826 48.678 8.826Q48.566 8.826 48.65 8.98Q48.692 9.022 48.734 9.05L48.846 9.134L48.65 9.092Q48.454 9.064 48.251 8.98Q48.048 8.896 47.964 8.882Q47.88 8.868 47.761 8.812Q47.642 8.756 47.614 8.826Q47.558 8.882 47.642 11.024Q47.656 11.598 47.607 11.906Q47.558 12.214 47.551 12.284Q47.544 12.354 47.495 12.417Q47.446 12.48 47.474 12.557Q47.502 12.634 47.432 12.662Q47.362 12.69 47.362 12.788Q47.362 12.886 47.306 12.914Q47.25 12.942 47.229 13.145Q47.208 13.348 47.173 13.39Q47.138 13.432 47.159 13.523Q47.18 13.614 47.131 13.614Q47.082 13.614 47.082 13.558Q47.082 13.488 46.858 13.166Q46.634 12.844 46.592 12.844Q46.55 12.844 46.571 12.669Q46.592 12.494 46.529 12.459Q46.466 12.424 46.508 12.375Q46.55 12.326 46.55 12.179Q46.55 12.032 46.487 12.032Q46.424 12.032 46.473 11.976Q46.522 11.92 46.48 11.92Q46.438 11.92 46.459 11.871Q46.48 11.822 46.501 10.716Q46.522 9.61 46.536 9.456Q46.55 9.302 46.536 9.302Q46.494 9.302 46.158 9.89Q45.822 10.478 45.584 10.982Q45.43 11.29 45.318 11.409Q45.206 11.528 45.08 11.528Q44.996 11.528 44.982 11.521Q44.968 11.514 44.982 11.458Q44.996 11.388 44.968 11.36Q44.94 11.332 44.912 11.206Q44.884 11.08 44.821 11.003Q44.758 10.926 44.765 10.695Q44.772 10.464 44.772 10.38Q44.744 10.058 44.814 10.044Q44.842 10.03 44.842 9.995Q44.842 9.96 44.968 9.778Q45.15 9.512 45.528 8.756Q45.682 8.462 45.731 8.406Q45.78 8.35 45.92 8.07Q46.06 7.79 46.06 7.748Q46.06 7.706 45.962 7.762Q45.528 8 44.856 8.448Q44.674 8.574 44.485 8.553Q44.296 8.532 44.198 8.504Q43.918 8.406 43.666 8.35Q43.568 8.336 43.414 8.196Q43.274 8.056 43.33 8.056Q43.526 8.056 43.302 7.902Q43.134 7.79 43.176 7.692Q43.204 7.678 43.218 7.678Q43.26 7.678 43.26 7.615Q43.26 7.552 43.456 7.552Q43.792 7.552 44.45 7.146Q44.646 7.034 44.695 7.02Q44.744 7.006 44.828 6.936Q44.912 6.88 45.598 6.439Q46.284 5.998 46.368 5.97Q46.746 5.816 46.69 5.592Q46.676 5.438 46.634 5.13Q46.578 4.626 46.494 4.584Q46.382 4.528 46.55 4.388Q46.676 4.304 46.725 4.339Q46.774 4.374 46.928 4.43Q47.404 4.556 47.46 4.654Q47.502 4.71 47.614 4.773Q47.726 4.836 47.705 4.899Q47.684 4.962 47.726 5.018Q47.768 5.074 47.705 5.116Q47.642 5.158 47.67 5.172Q47.754 5.214 48.272 5.27Q48.454 5.27 48.482 5.284Q48.51 5.298 48.496 5.354Q48.482 5.424 48.496 5.431Q48.51 5.438 48.566 5.424Q48.622 5.41 48.622 5.417Q48.622 5.424 48.58 5.452Q48.454 5.55 48.566 5.564Q48.608 5.592 48.678 5.564Q48.776 5.536 48.783 5.543Q48.79 5.55 48.748 5.592Q48.692 5.648 48.748 5.683Q48.804 5.718 48.755 5.781Q48.706 5.844 48.727 5.886Q48.748 5.928 48.706 5.942L48.72 5.97Q48.734 5.97 48.776 5.97Q48.888 5.97 48.888 6.026Q48.888 6.054 48.832 6.054Q48.776 6.054 48.335 6.313Q47.894 6.572 47.74 6.642L47.572 6.726L47.572 7.174L47.572 7.636L47.964 7.846Q48.37 8.056 48.412 8.014Q48.51 7.986 48.412 7.93Q48.384 7.916 48.328 7.916Q48.146 7.916 48.146 7.748Q48.16 7.664 48.216 7.629Q48.272 7.594 48.51 7.538Q48.846 7.44 49.035 7.384Q49.224 7.328 49.469 7.251Q49.714 7.174 49.714 7.118Q49.714 7.062 49.686 7.062Q49.658 7.062 49.602 6.922Q49.546 6.782 49.518 6.782Q49.49 6.782 49.462 6.642Q49.448 6.558 49.301 6.327Q49.154 6.096 49.112 6.096Q49.07 6.096 49.098 6.061Q49.126 6.026 49.042 5.928Q48.958 5.83 48.972 5.718Q49 5.634 49.021 5.627Q49.042 5.62 49.154 5.634Q49.602 5.718 50.134 6.236Q50.414 6.502 50.414 6.586Q50.414 6.642 50.477 6.775Q50.54 6.908 50.554 6.908Q50.568 6.908 51.002 6.796L51.436 6.698L51.436 6.096Q51.464 4.542 51.408 3.268Q51.38 2.26 51.373 1.91Q51.366 1.56 51.296 1.462Q51.17 1.252 51.268 1.042Z">
</path>
</g>
<g >
<path     fill="#806D46"  d="M5.877 18.388L3.35 18.388L3.35 17.45L7.291 17.45L7.291 18.388L4.715 21.405L7.354 21.405L7.354 22.35L3.245 22.35L3.245 21.405L5.877 18.388ZM12.177 17.45L12.177 22.35L11.022 22.35L11.022 20.278L9.139 20.278L9.139 22.35L7.984 22.35L7.984 17.45L9.139 17.45L9.139 19.333L11.022 19.333L11.022 17.45L12.177 17.45ZM13.038 17.45L14.193 17.45L14.193 22.35L13.038 22.35L13.038 17.45ZM16.23 18.542L16.188 18.542L16.188 22.35L15.054 22.35L15.054 17.45L16.895 17.45L18.064 21.321L18.155 21.321L18.155 17.45L19.289 17.45L19.289 22.35L17.406 22.35L16.23 18.542ZM20.129 17.45L23.573 17.45L23.573 18.402L21.284 18.402L21.284 19.452L23.272 19.452L23.272 20.341L21.284 20.341L21.284 21.398L23.573 21.398L23.573 22.35L20.129 22.35L20.129 17.45ZM25.379 18.542L25.337 18.542L25.337 22.35L24.203 22.35L24.203 17.45L26.044 17.45L27.213 21.321L27.304 21.321L27.304 17.45L28.438 17.45L28.438 22.35L26.555 22.35L25.379 18.542ZM33.436 22.14Q33.114 22.294 32.743 22.3675Q32.372 22.441 31.882 22.441Q31.077 22.441 30.461 22.14Q29.845 21.839 29.4915 21.2825Q29.138 20.726 29.138 19.977Q29.138 19.221 29.4845 18.6295Q29.831 18.038 30.4435 17.6985Q31.056 17.359 31.847 17.359Q32.232 17.359 32.6275 17.436Q33.023 17.513 33.296 17.625L33.296 18.465Q32.589 18.227 31.98 18.227Q31.224 18.227 30.755 18.661Q30.286 19.095 30.286 19.977Q30.286 20.453 30.5135 20.8205Q30.741 21.188 31.1225 21.356Q31.504 21.524 31.945 21.524Q32.239 21.524 32.463 21.503L32.463 20.425L31.91 20.425L31.91 19.55L33.436 19.55L33.436 22.14ZM34.206 17.45L36.46 17.45Q37.139 17.45 37.531 17.7825Q37.923 18.115 37.923 18.731Q37.923 19.004 37.748 19.263Q37.573 19.522 37.279 19.711Q37.706 19.893 37.965 20.222Q38.224 20.551 38.224 20.929Q38.224 21.58 37.79 21.965Q37.356 22.35 36.621 22.35L34.206 22.35L34.206 17.45ZM36.32 21.503Q36.67 21.503 36.8625 21.3035Q37.055 21.104 37.055 20.775Q37.055 20.509 36.8205 20.341Q36.586 20.173 36.117 20.173L35.361 20.173L35.361 21.503L36.32 21.503ZM36.152 19.494Q36.439 19.494 36.6 19.2945Q36.761 19.095 36.761 18.857Q36.761 18.577 36.593 18.3775Q36.425 18.178 36.026 18.178L35.361 18.178L35.361 19.494L36.152 19.494ZM41.822 20.964L40.254 20.964L39.883 22.35L38.658 22.35L40.079 17.45L42.004 17.45L43.425 22.35L42.193 22.35L41.822 20.964ZM41.598 20.124L41.045 18.073L41.031 18.073L40.478 20.124L41.598 20.124ZM44.02 17.45L45.175 17.45L45.175 22.35L44.02 22.35L44.02 17.45ZM49.116 22.343Q48.654 21.58 48.353 21.181Q48.052 20.782 47.604 20.369L47.191 20.369L47.191 22.35L46.036 22.35L46.036 17.45L47.191 17.45L47.191 19.431L47.45 19.431L48.815 17.45L50.075 17.45L48.395 19.844Q48.962 20.362 49.382 20.915Q49.802 21.468 50.32 22.343L49.116 22.343ZM50.747 17.45L54.191 17.45L54.191 18.402L51.902 18.402L51.902 19.452L53.89 19.452L53.89 20.341L51.902 20.341L51.902 21.398L54.191 21.398L54.191 22.35L50.747 22.35L50.747 17.45Z">
</path>
</g>
</svg>
