<svg xmlns="http://www.w3.org/2000/svg" xmlns:xlink="http://www.w3.org/1999/xlink" width="67" height="66" viewBox="0 0 67 66" fill="none">
<g >
<path     fill="#F0E4D8"  d="M9.744 2.204Q9.744 2.204 9.744 2.19Q9.744 2.176 9.898 2.134Q10.052 2.092 10.059 2.085Q10.066 2.078 10.199 2.155Q10.332 2.232 10.444 2.232Q10.528 2.232 10.619 2.267Q10.71 2.302 10.78 2.344Q10.85 2.386 10.836 2.4Q10.794 2.442 10.983 2.638Q11.172 2.834 11.172 2.904Q11.172 2.974 11.228 3.072Q11.284 3.156 11.256 3.324Q11.228 3.492 11.158 3.576Q11.088 3.632 11.137 3.667Q11.186 3.702 11.144 3.73Q11.102 3.758 11.067 3.94Q11.032 4.122 10.997 4.136Q10.962 4.15 10.962 4.192Q10.962 4.234 11.004 4.22Q11.018 4.206 11.018 4.227Q11.018 4.248 11.004 4.276Q10.976 4.374 10.99 4.423Q11.004 4.472 10.976 4.472Q10.948 4.472 10.962 4.605Q10.976 4.738 10.913 4.829Q10.85 4.92 10.892 4.962Q10.906 4.976 10.892 5.018Q10.878 5.06 10.829 5.095Q10.78 5.13 10.738 5.13Q10.682 5.13 10.71 5.186Q10.738 5.242 10.794 5.228L10.78 5.242Q10.71 5.298 10.766 5.326Q10.808 5.368 10.752 5.536Q10.696 5.704 10.64 5.746Q10.57 5.774 10.563 5.83Q10.556 5.886 10.598 5.914Q10.64 5.928 10.598 6.271Q10.556 6.614 10.514 6.838Q10.486 6.908 10.479 6.999Q10.472 7.09 10.395 7.16Q10.318 7.23 10.318 7.314L10.318 7.412L10.206 7.328L10.066 7.244L9.87 7.342Q9.52 7.482 8.855 7.692Q8.19 7.902 8.008 7.902Q7.784 7.902 7.77 7.958Q7.728 8.028 7.77 9.022L7.798 9.498L8.526 9.498Q9.24 9.498 9.289 9.463Q9.338 9.428 9.338 9.358Q9.338 9.288 9.408 9.246Q9.464 9.204 9.408 9.204Q9.38 9.204 9.352 9.204Q9.226 9.232 9.198 9.253Q9.17 9.274 9.1 9.274Q9.016 9.274 9.268 9.106Q9.352 9.064 9.45 8.994Q9.632 8.882 9.73 8.812Q10.276 8.392 10.542 8.098Q10.696 7.902 10.85 7.622Q11.004 7.342 10.99 7.272Q10.976 7.244 11.004 7.188Q11.032 7.132 11.074 7.118Q11.116 7.104 11.158 7.118Q11.172 7.16 11.249 7.16Q11.326 7.16 11.522 7.342Q11.718 7.524 11.711 7.671Q11.704 7.818 11.767 7.902Q11.83 7.986 11.802 8.007Q11.774 8.028 11.844 8.175Q11.914 8.322 11.914 8.413Q11.914 8.504 11.809 8.721Q11.704 8.938 11.62 9.022Q11.41 9.246 11.34 9.246Q11.312 9.246 11.214 9.337Q11.116 9.428 11.088 9.421Q11.06 9.414 10.99 9.498Q10.962 9.526 10.948 9.526Q10.962 9.512 10.955 9.505Q10.948 9.498 10.906 9.498Q10.85 9.526 10.871 9.568Q10.892 9.61 10.836 9.61Q10.78 9.61 10.598 9.694Q10.458 9.75 10.451 9.771Q10.444 9.792 10.486 9.82Q10.57 9.89 10.955 10.044Q11.34 10.198 11.431 10.24Q11.522 10.282 11.746 10.366Q12.236 10.548 12.516 10.856Q12.894 11.276 12.894 11.5Q12.88 11.64 12.915 11.661Q12.95 11.682 12.95 11.759Q12.95 11.836 13.083 12.067Q13.216 12.298 13.153 12.34Q13.09 12.382 13.167 12.515Q13.244 12.648 13.209 12.648Q13.174 12.648 13.223 12.697Q13.272 12.746 13.272 12.816Q13.272 12.914 12.852 12.606Q12.81 12.578 12.768 12.522Q12.53 12.326 11.564 11.92L10.598 11.5Q9.772 11.108 9.254 10.926L9.058 10.856L8.932 11.01Q8.778 11.164 8.736 11.276L8.666 11.36L8.778 11.304Q8.918 11.22 8.918 11.248Q8.918 11.276 8.806 11.402Q8.582 11.668 8.624 11.668Q8.638 11.668 8.652 11.668Q8.722 11.64 8.708 11.668Q8.708 11.682 8.666 11.752Q8.54 12.004 7.994 12.382Q7.812 12.508 7.651 12.662Q7.49 12.816 7.105 13.012Q6.72 13.208 6.636 13.334Q6.552 13.46 6.482 13.411Q6.412 13.362 6.412 13.313Q6.412 13.264 6.286 13.243Q6.16 13.222 6.16 13.124Q6.16 13.068 6.083 12.963Q6.006 12.858 5.95 12.858Q5.922 12.858 5.838 12.788Q5.754 12.718 5.684 12.69Q5.488 12.648 5.53 12.172Q5.544 11.934 5.516 11.871Q5.488 11.808 5.509 11.745Q5.53 11.682 5.6 11.682Q5.656 11.682 6.244 11.332Q6.258 11.318 6.328 10.884L6.454 9.876Q6.552 9.204 6.643 8.231Q6.734 7.258 6.706 7.202Q6.692 7.118 6.72 7.062Q6.79 7.006 6.811 6.068Q6.832 5.13 6.79 4.528Q6.734 3.632 6.44 3.394Q6.37 3.338 6.398 3.282Q6.412 3.24 6.349 3.205Q6.286 3.17 6.258 3.198Q6.23 3.24 6.174 3.506Q6.118 3.772 6.062 3.849Q6.006 3.926 6.006 4.024Q6.006 4.108 5.915 4.388Q5.824 4.668 5.768 4.738Q5.726 4.78 5.705 4.92Q5.684 5.06 5.649 5.06Q5.614 5.06 5.586 5.144Q5.558 5.228 5.642 5.298Q5.768 5.41 5.6 5.41Q5.516 5.41 5.446 5.55Q5.404 5.69 5.369 5.697Q5.334 5.704 5.222 5.634Q5.124 5.592 5.068 5.606Q5.012 5.62 4.802 5.718Q4.522 5.858 4.487 5.97Q4.452 6.082 4.536 6.145Q4.62 6.208 4.669 6.229Q4.718 6.25 4.669 6.334Q4.62 6.418 4.62 6.698L4.62 6.95L4.788 6.88Q4.83 6.852 4.865 6.838Q4.9 6.824 4.928 6.817Q4.956 6.81 4.956 6.81Q4.956 6.81 4.977 6.81Q4.998 6.81 5.054 6.803Q5.11 6.796 5.18 6.782Q5.334 6.74 5.376 6.74Q5.418 6.74 5.502 6.824Q5.6 6.922 5.572 6.978Q5.544 7.034 5.642 7.097Q5.74 7.16 5.838 7.342Q5.936 7.524 6.027 7.552Q6.118 7.58 6.048 7.594Q5.908 7.65 5.376 7.888Q4.914 8.112 4.76 8.098L4.578 8.098L4.564 8.294Q4.536 8.49 4.522 8.784Q4.48 9.064 4.522 9.064Q4.536 9.064 4.564 9.05Q4.634 9.022 4.823 9.022Q5.012 9.022 5.173 9.043Q5.334 9.064 5.32 9.092Q5.306 9.148 5.411 9.267Q5.516 9.386 5.516 9.407Q5.516 9.428 5.635 9.568Q5.754 9.708 5.754 9.743Q5.754 9.778 5.838 9.883Q5.922 9.988 5.922 10.016Q5.922 10.044 5.593 10.135Q5.264 10.226 4.795 10.415Q4.326 10.604 4.102 10.688Q3.878 10.758 3.101 11.143Q2.324 11.528 2.198 11.626Q2.072 11.724 1.988 11.724Q1.694 11.71 1.4 11.402Q1.288 11.304 0.938 11.122Q0.686 10.996 0.756 10.646Q0.77 10.52 0.812 10.492Q0.854 10.464 0.966 10.52Q1.05 10.576 1.148 10.555Q1.246 10.534 1.666 10.324Q1.946 10.198 2.002 10.149Q2.058 10.1 2.058 10.002Q2.072 9.848 2.016 9.848Q1.974 9.848 1.974 9.764Q1.974 9.68 2.016 9.582Q2.086 9.428 2.093 9.141Q2.1 8.854 2.156 8.504Q2.254 7.762 2.072 7.342L1.946 7.034L2.058 7.034Q2.156 7.034 2.345 7.104Q2.534 7.174 2.611 7.328Q2.688 7.482 2.744 7.531Q2.8 7.58 2.954 7.916L3.136 8.28L3.08 8.812Q3.038 9.344 2.982 9.505Q2.926 9.666 2.954 9.68Q2.982 9.694 3.325 9.554Q3.668 9.414 3.696 9.386Q3.724 9.344 3.64 9.267Q3.556 9.19 3.577 9.078Q3.598 8.966 3.584 8.938Q3.556 8.91 3.563 8.168Q3.57 7.426 3.598 7.244Q3.654 7.034 3.654 6.712L3.654 6.404L3.514 6.376Q3.29 6.334 2.842 5.914Q2.66 5.746 2.548 5.683Q2.436 5.62 2.408 5.452Q2.38 5.284 2.429 5.256Q2.478 5.228 2.45 5.046Q2.422 4.864 2.408 4.654Q2.394 4.444 2.303 4.052Q2.212 3.66 2.184 3.394Q2.1 2.946 1.848 2.666Q1.778 2.624 1.785 2.603Q1.792 2.582 1.89 2.526Q1.988 2.47 2.079 2.477Q2.17 2.484 2.646 2.582Q2.856 2.624 2.982 2.694Q3.108 2.736 3.171 2.729Q3.234 2.722 3.486 2.638Q3.822 2.526 4.333 2.379Q4.844 2.232 4.914 2.169Q4.984 2.106 5.033 2.141Q5.082 2.176 5.292 2.19Q5.6 2.204 5.684 2.239Q5.768 2.274 5.81 2.372Q5.852 2.47 6.013 2.631Q6.174 2.792 6.23 2.918Q6.258 2.988 6.307 3.016Q6.356 3.044 6.51 3.044Q6.762 3.058 7.014 3.121Q7.266 3.184 7.49 3.114Q8.092 2.904 8.372 2.792Q8.428 2.75 8.47 2.736Q8.512 2.722 8.533 2.722Q8.554 2.722 8.554 2.722Q8.554 2.736 8.624 2.708Q8.694 2.638 8.939 2.54Q9.184 2.442 9.226 2.47Q9.254 2.498 9.254 2.456Q9.254 2.414 9.331 2.414Q9.408 2.414 9.457 2.323Q9.506 2.232 9.625 2.232Q9.744 2.232 9.744 2.204ZM4.718 4.136Q4.802 3.73 4.816 3.513Q4.83 3.296 4.795 3.296Q4.76 3.296 4.48 3.401Q4.2 3.506 3.934 3.576L3.668 3.66L3.682 4.248Q3.682 4.864 3.696 4.878Q3.71 4.892 4.158 4.738L4.62 4.556L4.718 4.136ZM9.814 3.898Q9.814 3.828 9.821 3.765Q9.828 3.702 9.828 3.667Q9.828 3.632 9.814 3.632Q9.674 3.674 9.478 3.758Q9.352 3.814 8.694 4.038Q8.232 4.192 8.022 4.108Q7.994 4.094 7.987 4.101Q7.98 4.108 7.98 4.164Q8.008 4.276 8.05 4.304Q8.092 4.332 8.078 4.437Q8.064 4.542 7.994 4.626Q7.91 4.724 7.938 4.78Q7.966 4.836 8.484 4.64Q9.394 4.276 9.366 4.542Q9.366 4.626 9.457 4.64Q9.548 4.654 9.562 4.738Q9.59 4.892 9.66 4.752Q9.688 4.682 9.688 4.584Q9.702 4.374 9.744 4.269Q9.786 4.164 9.814 3.898ZM9.59 5.62Q9.59 5.508 9.534 5.508Q9.478 5.508 9.226 5.62Q8.484 5.97 8.12 5.928L7.91 5.914L7.91 6.138Q7.91 6.376 7.896 6.502Q7.882 6.628 7.917 6.656Q7.952 6.684 8.148 6.6Q8.344 6.516 8.365 6.516Q8.386 6.516 8.526 6.46Q8.666 6.404 8.862 6.334Q9.058 6.264 9.058 6.229Q9.058 6.194 9.24 6.208Q9.394 6.236 9.45 6.18Q9.506 6.124 9.506 5.928Q9.506 5.774 9.548 5.753Q9.59 5.732 9.59 5.62ZM10.402 9.617Q10.402 9.617 10.423 9.6065Q10.444 9.596 10.444 9.582Q10.444 9.568 10.402 9.568Q10.36 9.568 10.36 9.603Q10.36 9.638 10.402 9.617ZM8.155 10.513Q8.155 10.513 8.0605 10.4815Q7.966 10.45 7.966 10.394Q7.966 10.338 7.854 10.338Q7.784 10.338 7.77 10.38Q7.756 10.422 7.756 10.66Q7.756 10.982 7.728 11.045Q7.7 11.108 7.756 11.108Q7.812 11.108 7.896 11.038L7.91 11.038Q7.882 11.08 7.889 11.094Q7.896 11.108 7.966 11.108Q8.05 11.108 8.197 11.003Q8.344 10.898 8.456 10.786Q8.512 10.744 8.512 10.716Q8.512 10.688 8.442 10.646Q8.344 10.576 8.155 10.513ZM8.876 10.8Q8.862 10.786 8.729 10.765Q8.596 10.744 8.519 10.821Q8.442 10.898 8.442 10.94Q8.442 10.982 8.365 11.052Q8.288 11.122 8.288 11.164Q8.288 11.206 8.358 11.115Q8.428 11.024 8.463 11.024Q8.498 11.024 8.386 11.136Q8.232 11.304 8.302 11.29Q8.372 11.29 8.54 11.136Q8.932 10.856 8.876 10.8ZM11.158 11.416L11.102 11.402L11.074 11.416Q11.13 11.444 11.158 11.416ZM6.034 11.836Q6.146 11.724 6.034 11.724Q5.978 11.71 5.936 11.738Q5.754 11.822 5.908 11.864Q5.964 11.892 6.034 11.836ZM23.184 1.392Q23.226 1.336 23.842 1.434Q24.178 1.49 24.206 1.49Q24.234 1.49 24.234 1.504Q24.22 1.602 24.269 1.644Q24.318 1.686 24.458 1.714Q24.668 1.77 24.843 1.875Q25.018 1.98 24.976 2.022Q24.962 2.092 25.214 2.267Q25.466 2.442 25.466 2.491Q25.466 2.54 25.76 2.708Q25.97 2.82 26.012 2.876Q26.054 2.932 25.97 3.002Q25.9 3.072 25.872 3.198Q25.844 3.324 25.718 3.324Q25.634 3.31 25.613 3.324Q25.592 3.338 25.592 3.436Q25.634 3.576 25.676 3.604Q25.718 3.632 25.676 3.73Q25.634 3.828 25.655 3.849Q25.676 3.87 25.62 3.87Q25.564 3.87 25.522 3.982L25.522 4.066Q25.55 4.038 25.613 4.073Q25.676 4.108 25.606 4.108Q25.536 4.108 25.466 4.346Q25.424 4.584 25.354 7.02Q25.326 7.958 25.277 7.972Q25.228 7.986 25.284 8.063Q25.34 8.14 25.284 8.14Q25.228 8.14 25.228 8.175Q25.228 8.21 25.305 8.21Q25.382 8.21 25.354 8.364Q25.326 8.518 25.27 8.588Q25.214 8.658 25.277 8.686Q25.34 8.714 25.326 9.253Q25.312 9.792 25.333 9.841Q25.354 9.89 25.312 10.17Q25.27 10.45 25.235 10.499Q25.2 10.548 25.256 10.681Q25.312 10.814 25.256 10.898Q25.06 11.276 25.144 11.276Q25.172 11.276 25.2 11.395Q25.228 11.514 25.2 11.57Q25.158 11.64 25.151 11.983Q25.144 12.326 25.137 12.396Q25.13 12.466 25.025 12.648Q24.92 12.83 24.962 12.998Q25.018 13.124 24.983 13.264Q24.948 13.404 24.878 13.446Q24.808 13.488 24.787 13.712Q24.766 13.936 24.752 14.034L24.724 14.146L24.584 14.034Q24.43 13.936 24.416 13.866Q24.402 13.796 24.185 13.642Q23.968 13.488 23.968 13.341Q23.968 13.194 23.877 13.103Q23.786 13.012 23.807 12.942Q23.828 12.872 23.779 12.837Q23.73 12.802 23.716 12.494Q23.702 12.186 23.52 11.794L23.31 11.402L22.75 11.402Q22.19 11.43 21.938 11.465Q21.686 11.5 21.651 11.479Q21.616 11.458 21.511 11.5Q21.406 11.542 21.07 11.57Q20.538 11.64 19.082 12.004Q18.858 12.06 18.711 12.172Q18.564 12.284 18.564 12.382Q18.564 12.438 18.529 12.438Q18.494 12.438 18.382 12.382Q18.27 12.298 18.228 12.382Q18.116 12.522 18.018 12.298Q17.948 12.158 17.808 11.983Q17.668 11.808 17.612 11.878Q17.57 11.948 17.5 11.78Q17.486 11.71 17.458 11.64Q17.43 11.514 17.332 11.556Q17.304 11.57 17.304 11.612Q17.304 11.668 17.164 11.521Q17.024 11.374 16.842 11.304Q16.604 11.248 16.408 11.038Q16.212 10.828 16.254 10.674Q16.254 10.59 16.205 10.52Q16.156 10.45 16.205 10.366Q16.254 10.282 16.268 9.708Q16.282 9.134 16.359 8.826Q16.436 8.518 16.464 8.042Q16.506 7.216 16.576 6.642Q16.632 5.984 16.618 5.214Q16.618 4.864 16.653 4.822Q16.688 4.78 16.688 4.038Q16.688 3.422 16.646 3.275Q16.604 3.128 16.366 2.946Q16.184 2.82 16.072 2.708L15.988 2.624Q16.002 2.624 16.03 2.624Q16.128 2.666 16.485 2.701Q16.842 2.736 16.898 2.778Q16.954 2.82 17.297 2.715Q17.64 2.61 17.752 2.61Q17.864 2.61 17.997 2.547Q18.13 2.484 18.179 2.498Q18.228 2.512 18.34 2.484Q18.452 2.428 18.9 2.309Q19.348 2.19 19.46 2.176Q19.572 2.176 19.754 2.085Q19.936 1.994 20.076 1.973Q20.216 1.952 20.461 1.91Q20.706 1.868 20.958 1.805Q21.21 1.742 21.56 1.686Q22.092 1.56 22.526 1.504Q22.582 1.49 22.596 1.483Q22.61 1.476 22.883 1.455Q23.156 1.434 23.184 1.392ZM21.742 1.994Q21.742 1.952 21.686 1.952Q21.56 1.952 21.56 1.994Q21.56 2.022 21.588 2.036Q21.616 2.05 21.665 2.036Q21.714 2.022 21.742 1.994ZM23.772 2.694L23.772 2.456L23.562 2.442Q23.352 2.442 23.338 2.463Q23.324 2.484 22.995 2.526Q22.666 2.568 22.582 2.568Q22.484 2.568 22.274 2.617Q22.064 2.666 21.952 2.694Q21.658 2.694 21.994 2.918Q22.218 3.044 22.232 2.988Q22.246 2.932 22.337 3.002Q22.428 3.072 22.372 3.59L22.344 4.136L22.526 4.206Q22.694 4.29 22.694 4.437Q22.694 4.584 22.834 4.605Q22.974 4.626 23.023 4.745Q23.072 4.864 23.121 4.864Q23.17 4.864 23.38 4.969Q23.59 5.074 23.66 5.06Q23.702 5.032 23.772 2.694ZM21.112 3.632Q21.098 2.974 21.07 2.925Q21.042 2.876 20.937 2.897Q20.832 2.918 20.769 2.946Q20.706 2.974 20.587 2.974Q20.468 2.974 19.74 3.198Q19.012 3.422 18.872 3.429Q18.732 3.436 18.676 3.464Q18.55 3.562 18.228 3.478L18.06 3.45L18.228 3.618L18.368 3.786L18.34 4.542Q18.312 5.298 18.368 5.298Q18.424 5.298 18.76 5.179Q19.096 5.06 19.138 5.004Q19.194 4.976 19.845 4.731Q20.496 4.486 20.804 4.402L21.154 4.304L21.112 3.632ZM22.19 3.702Q22.19 3.464 22.169 3.464Q22.148 3.464 22.148 3.8Q22.148 3.996 22.162 4.052L22.19 3.702ZM23.688 7.034L23.688 5.102L23.478 5.102Q23.114 5.116 22.694 5.214Q22.274 5.312 22.232 5.382Q22.19 5.466 22.19 7.559Q22.19 9.652 22.162 9.75L22.078 9.946Q22.05 10.044 22.05 10.058Q22.05 10.072 22.372 10.1Q22.862 10.142 23.156 10.226Q23.59 10.38 23.604 10.52Q23.66 10.59 23.702 10.59Q23.8 10.59 23.702 9.204Q23.688 8.938 23.688 7.034ZM19.068 6.306Q18.76 6.222 18.704 6.173Q18.648 6.124 18.445 6.061Q18.242 5.998 18.214 6.075Q18.186 6.152 18.186 6.88Q18.186 7.608 18.13 8.014Q18.074 8.42 18.074 8.833Q18.074 9.246 18.018 9.246Q17.962 9.246 18.046 9.302Q18.116 9.33 17.934 10.366Q17.864 10.716 17.906 10.744Q17.934 10.772 18.025 10.779Q18.116 10.786 18.193 10.779Q18.27 10.772 18.27 10.744Q18.27 10.688 18.452 10.723Q18.634 10.758 18.655 10.709Q18.676 10.66 18.956 10.604Q19.236 10.548 19.32 10.52Q19.614 10.408 19.922 10.38Q20.118 10.38 20.209 10.331Q20.3 10.282 20.321 10.324Q20.342 10.366 20.461 10.366Q20.58 10.366 20.58 10.324Q20.58 10.282 20.706 10.282Q20.832 10.282 21.042 10.156Q21.056 10.142 21.028 10.03Q20.916 9.806 20.86 9.512Q20.86 9.33 20.769 9.057Q20.678 8.784 20.608 8.784Q20.594 8.784 20.482 8.938Q20.37 9.148 20.153 9.435Q19.936 9.722 19.88 9.75Q19.824 9.764 19.824 9.694Q19.824 9.596 19.936 9.428Q20.538 8.63 20.538 8.462Q20.538 8.364 20.524 8.357Q20.51 8.35 20.482 8.42Q19.964 9.246 19.712 9.484Q19.558 9.624 19.558 9.54Q19.558 9.442 19.46 9.344Q19.362 9.246 19.306 9.274Q19.264 9.288 19.236 9.211Q19.208 9.134 19.208 9.022Q19.208 8.938 19.187 8.679Q19.166 8.42 19.264 8.308Q19.586 7.972 19.964 7.174Q20.384 6.236 20.37 6.11Q20.328 5.998 20.328 5.998Q20.188 5.998 19.586 6.292Q19.418 6.348 19.341 6.355Q19.264 6.362 19.068 6.306ZM22.05 6.74Q22.036 6.614 22.008 6.614Q21.98 6.614 21.98 6.67Q21.98 6.726 21.987 6.789Q21.994 6.852 22.036 6.852L22.05 6.74ZM22.036 7.762Q22.05 7.524 22.036 7.272Q21.994 7.146 21.994 7.272Q21.994 7.356 21.994 7.524L22.036 7.804Q22.036 7.79 22.036 7.762ZM20.888 7.846Q21.056 7.482 21.042 7.356Q21.028 7.272 20.93 7.468Q20.888 7.538 20.818 7.664Q20.622 8.084 20.622 8.154Q20.622 8.364 20.832 7.958Q20.846 7.916 20.888 7.846ZM21.028 8.588Q21.098 8.588 21.098 8.28Q21.098 7.972 21.056 7.958Q21.042 7.958 21.014 7.986Q20.986 8.014 20.951 8.077Q20.916 8.14 20.881 8.203Q20.846 8.266 20.832 8.329Q20.818 8.392 20.818 8.42Q20.818 8.476 20.881 8.532Q20.944 8.588 21.028 8.588ZM22.036 8.182Q22.05 8.14 22.036 8.056Q21.994 8.07 21.994 8.14Q21.994 8.182 22.036 8.182ZM23.716 11.486Q23.702 11.388 23.534 11.388L23.394 11.374L23.492 11.458Q23.688 11.64 23.716 11.514Q23.716 11.5 23.716 11.486ZM36.218 5.802Q36.288 5.788 36.288 5.802Q36.246 5.844 36.197 5.844Q36.148 5.844 36.218 5.802ZM37.366 5.214Q37.366 5.074 37.688 5.27Q37.856 5.382 38.052 5.48Q38.248 5.578 38.367 5.711Q38.486 5.844 38.486 5.956Q38.486 6.068 38.43 6.222Q38.318 6.446 37.919 6.88Q37.52 7.314 37.408 7.314Q37.366 7.314 37.275 7.433Q37.184 7.552 37.114 7.552Q37.044 7.552 36.827 7.713Q36.61 7.874 36.575 7.874Q36.54 7.874 36.358 7.993Q36.176 8.112 36.022 8.196Q35.798 8.322 35.756 8.399Q35.714 8.476 35.714 8.756Q35.714 9.47 35.735 9.603Q35.756 9.736 35.784 9.736Q35.91 9.736 36.428 9.386L36.708 9.176Q36.848 9.078 37.324 8.595Q37.8 8.112 37.996 7.888Q38.234 7.58 38.318 7.468Q38.402 7.356 38.402 7.272Q38.402 7.23 38.5 7.062Q38.598 6.894 38.64 6.894Q38.654 6.894 38.78 7.02Q38.906 7.146 39.102 7.244Q39.326 7.342 39.522 7.58Q39.746 7.846 39.55 8.126Q39.452 8.266 39.424 8.28Q39.396 8.294 39.396 8.364Q39.396 8.434 39.312 8.497Q39.228 8.56 39.228 8.602Q39.242 8.7 39.102 8.77Q38.99 8.854 38.99 8.924Q38.976 8.952 38.962 8.952Q38.934 8.938 38.78 9.078Q38.374 9.456 38.206 9.554Q38.08 9.596 38.08 9.652Q38.08 9.68 37.954 9.778Q37.828 9.876 37.758 9.876Q37.73 9.876 37.681 9.953Q37.632 10.03 37.632 10.114Q37.632 10.226 38.136 10.366Q38.346 10.45 38.444 10.478Q38.906 10.674 38.962 10.674Q39.004 10.674 39.165 10.758Q39.326 10.842 39.361 10.842Q39.396 10.842 39.739 11.01Q40.082 11.178 40.082 11.234Q40.082 11.29 40.089 11.29Q40.096 11.29 40.152 11.234Q40.222 11.178 40.292 11.241Q40.362 11.304 40.425 11.444Q40.488 11.584 40.551 11.605Q40.614 11.626 40.719 11.808Q40.824 11.99 40.978 12.186Q41.076 12.298 41.188 12.494Q41.3 12.69 41.3 12.732Q41.3 12.746 41.23 12.746Q41.146 12.746 41.146 12.767Q41.146 12.788 41.174 12.9Q41.216 12.984 41.181 13.019Q41.146 13.054 41.076 13.012Q41.034 12.956 40.46 12.662Q39.13 11.976 37.464 11.402Q37.212 11.318 37.156 11.276Q37.114 11.234 37.016 11.283Q36.918 11.332 36.918 11.402Q36.918 11.444 36.876 11.444Q36.848 11.444 36.799 11.542Q36.75 11.64 36.75 11.668Q36.75 11.71 36.876 11.626L36.946 11.612Q36.932 11.64 36.778 11.822Q36.54 12.088 36.512 12.186Q36.47 12.256 36.414 12.34Q36.358 12.424 36.302 12.487Q36.246 12.55 36.246 12.522Q36.232 12.508 36.162 12.564Q36.092 12.62 36.022 12.711Q35.952 12.802 35.91 12.886Q35.854 13.04 35.777 13.026Q35.7 13.012 35.7 13.054Q35.7 13.11 35.413 13.383Q35.126 13.656 35.07 13.656Q35.042 13.656 35.042 13.698Q35.042 13.768 34.972 13.824Q34.902 13.88 34.832 13.866Q34.706 13.838 34.664 13.558Q34.664 13.474 34.545 13.446Q34.426 13.418 34.412 13.46L34.37 13.334Q34.342 13.166 34.258 13.138Q34.174 13.11 34.202 12.998Q34.216 12.886 34.202 12.886Q34.188 12.886 34.09 12.956L34.02 13.054L34.048 12.914Q34.062 12.774 33.978 12.732Q33.74 12.662 33.936 12.382Q34.034 12.242 34.034 12.151Q34.034 12.06 34.146 12.004Q34.258 11.948 34.3 11.864Q34.356 11.766 34.433 11.325Q34.51 10.884 34.524 10.618Q34.538 10.254 34.573 10.212Q34.608 10.17 34.615 9.988Q34.622 9.806 34.678 9.4Q34.79 8.378 34.678 8.294Q34.622 8.28 34.65 8.224Q34.678 8.168 34.594 8.112Q34.51 8.056 34.51 8.014Q34.51 7.972 34.356 7.846Q34.09 7.636 34.244 7.636Q34.3 7.636 34.286 7.566Q34.272 7.538 34.314 7.524Q34.566 7.44 34.818 7.552Q34.832 7.566 34.846 7.566Q34.944 7.636 35.07 7.566Q35.658 7.272 36.89 5.984Q37.198 5.69 37.282 5.564Q37.366 5.438 37.317 5.354Q37.268 5.27 37.317 5.27Q37.366 5.27 37.366 5.214ZM35.966 10.814Q35.672 10.73 35.658 10.73Q35.644 10.73 35.56 11.164Q35.476 11.598 35.476 11.689Q35.476 11.78 35.98 11.374Q36.19 11.192 36.19 11.22Q36.176 11.29 36.204 11.29Q36.218 11.29 36.288 11.234Q36.358 11.178 36.414 11.115Q36.47 11.052 36.456 11.024Q36.386 10.968 35.966 10.814ZM31.136 2.12Q31.136 2.106 31.164 2.113Q31.192 2.12 31.248 2.134Q31.304 2.148 31.374 2.162Q31.626 2.218 31.913 2.323Q32.2 2.428 32.2 2.47Q32.2 2.498 32.284 2.526Q32.536 2.582 32.76 3.03Q32.844 3.212 32.858 3.324Q32.872 3.436 32.858 3.884Q32.858 4.5 32.907 4.5Q32.956 4.5 33.173 4.598Q33.39 4.696 33.453 4.724Q33.516 4.752 33.635 4.822Q33.754 4.892 33.747 5.039Q33.74 5.186 33.838 5.214Q33.992 5.256 33.852 5.326Q33.782 5.34 33.698 5.368Q33.53 5.382 33.411 5.508Q33.292 5.634 33.173 5.662Q33.054 5.69 32.921 5.809Q32.788 5.928 32.76 5.928Q32.732 5.928 32.732 5.984Q32.732 6.04 32.662 6.054Q32.634 6.054 32.606 6.04L32.634 6.012Q32.578 6.012 32.494 6.082Q32.424 6.166 32.375 6.166Q32.326 6.166 32.284 6.46Q32.256 6.768 32.13 7.412Q32.116 7.454 32.123 7.454Q32.13 7.454 32.2 7.412Q32.256 7.342 32.319 7.342Q32.382 7.342 32.494 7.293Q32.606 7.244 32.781 7.335Q32.956 7.426 33.18 7.44Q33.572 7.482 33.719 7.664Q33.866 7.846 33.88 8.336Q33.894 8.742 33.824 9.288Q33.656 10.38 33.516 10.744Q33.46 10.87 33.481 10.912Q33.502 10.954 33.46 10.982Q33.418 11.01 33.418 11.101Q33.418 11.192 33.313 11.402Q33.208 11.612 33.187 11.759Q33.166 11.906 33.131 11.906Q33.096 11.906 33.047 12.025Q32.998 12.144 32.942 12.158Q32.886 12.172 32.907 12.235Q32.928 12.298 32.886 12.298Q32.872 12.298 32.865 12.305Q32.858 12.312 32.858 12.34Q32.858 12.368 32.76 12.473Q32.662 12.578 32.578 12.606Q32.522 12.62 32.543 12.669Q32.564 12.718 32.508 12.781Q32.452 12.844 32.41 12.956Q32.354 13.054 32.235 13.152Q32.116 13.25 32.088 13.222Q32.088 13.222 32.06 13.236Q32.032 13.25 32.011 13.285Q31.99 13.32 31.962 13.348L31.878 13.516L31.836 13.348Q31.822 13.208 31.745 13.131Q31.668 13.054 31.668 12.984Q31.668 12.914 31.612 12.872Q31.458 12.718 31.458 12.55Q31.458 12.452 31.409 12.403Q31.36 12.354 31.332 12.053Q31.304 11.752 31.248 11.304Q31.178 10.94 31.185 10.597Q31.192 10.254 31.248 10.24Q31.262 10.24 31.276 10.282Q31.29 10.324 31.318 10.394Q31.346 10.464 31.36 10.576Q31.472 11.192 31.598 11.318Q31.71 11.402 31.71 11.451Q31.71 11.5 31.752 11.472Q31.794 11.444 31.794 11.374Q31.794 11.304 31.906 11.192Q31.99 11.094 32.151 10.716Q32.312 10.338 32.312 10.226Q32.312 10.128 32.396 9.862Q32.48 9.596 32.459 9.505Q32.438 9.414 32.48 9.267Q32.522 9.12 32.578 8.728Q32.634 8.42 32.606 8.329Q32.578 8.238 32.466 8.238Q32.368 8.238 32.214 8.182Q32.046 8.112 31.997 8.119Q31.948 8.126 31.92 8.224Q31.892 8.322 31.801 8.518Q31.71 8.714 31.64 8.917Q31.57 9.12 31.437 9.323Q31.304 9.526 31.276 9.624Q31.248 9.708 31.108 9.974Q30.968 10.24 30.926 10.289Q30.884 10.338 30.884 10.401Q30.884 10.464 30.828 10.513Q30.772 10.562 30.758 10.646Q30.702 10.898 30.45 11.332Q30.198 11.78 30.002 11.906Q29.96 11.934 29.932 11.906Q29.904 11.878 29.89 11.78Q29.862 11.626 29.785 11.605Q29.708 11.584 29.687 11.458Q29.666 11.332 29.589 11.276Q29.512 11.22 29.519 11.066Q29.526 10.912 29.47 10.884Q29.414 10.856 29.477 10.653Q29.54 10.45 29.638 10.352Q29.75 10.24 29.806 10.086Q29.988 9.694 30.604 8.308Q30.996 7.412 30.87 7.412Q30.828 7.398 30.674 7.524Q30.506 7.664 30.45 7.664Q30.394 7.664 30.268 7.748Q30.17 7.804 30.114 7.797Q30.058 7.79 29.834 7.72Q29.54 7.594 29.386 7.468Q29.232 7.342 29.19 7.342Q29.148 7.342 29.106 7.272Q28.98 7.104 28.784 7.104Q28.7 7.104 28.7 6.95Q28.7 6.88 28.721 6.845Q28.742 6.81 28.812 6.81Q28.896 6.81 29.281 6.621Q29.666 6.432 29.862 6.264Q30.058 6.124 30.121 6.124Q30.184 6.124 30.261 6.04Q30.338 5.956 30.38 5.956Q30.408 5.956 30.59 5.83Q30.772 5.704 30.8 5.648Q30.828 5.606 30.884 5.606Q30.94 5.606 30.94 5.564Q30.94 5.522 31.206 5.389Q31.472 5.256 31.514 5.179Q31.556 5.102 31.626 5.102Q31.696 5.102 31.717 5.039Q31.738 4.976 31.78 5.011Q31.822 5.046 31.885 4.99Q31.948 4.934 31.948 4.864Q31.948 4.794 31.808 4.668Q31.71 4.57 31.696 4.514Q31.682 4.458 31.682 4.29Q31.696 4.024 31.703 3.947Q31.71 3.87 31.752 3.933Q31.794 3.996 31.794 3.898Q31.78 3.828 31.738 3.828Q31.696 3.87 31.682 3.66Q31.668 3.59 31.668 3.478Q31.64 3.24 31.577 3.191Q31.514 3.142 31.444 2.813Q31.374 2.484 31.304 2.428Q31.262 2.386 31.199 2.274Q31.136 2.162 31.136 2.12ZM31.906 3.156Q31.836 2.75 31.808 2.722Q31.78 2.68 31.822 3.254Q31.836 3.408 31.85 3.534Q31.878 3.674 31.892 3.807Q31.906 3.94 31.948 4.052Q31.962 4.108 31.962 4.024Q31.99 3.814 31.906 3.156ZM32.634 5.844Q32.634 5.844 32.655 5.844Q32.676 5.844 32.704 5.802Q32.732 5.76 32.662 5.76Q32.592 5.76 32.592 5.802Q32.592 5.844 32.634 5.844ZM30.849 7.342Q30.849 7.342 30.8665 7.342Q30.884 7.342 30.884 7.3Q30.884 7.258 30.87 7.258Q30.856 7.258 30.835 7.3Q30.814 7.342 30.849 7.342ZM35.42 1.798Q35.546 1.658 35.567 1.658Q35.588 1.658 35.679 1.742Q35.77 1.826 35.896 1.868Q36.022 1.896 36.162 2.001Q36.302 2.106 36.274 2.141Q36.246 2.176 36.344 2.239Q36.442 2.302 36.442 2.568Q36.456 3.072 36.316 3.548Q36.302 3.604 36.358 3.604Q36.414 3.604 36.54 3.59Q36.792 3.562 37.086 3.415Q37.38 3.268 37.408 3.275Q37.436 3.282 37.436 3.247Q37.436 3.212 37.541 3.17Q37.646 3.128 37.618 3.072Q37.59 3.044 37.688 3.016Q37.73 3.002 37.786 3.03L37.8 3.016Q37.786 3.016 37.758 2.974Q37.716 2.918 37.751 2.918Q37.786 2.918 37.856 2.974Q37.968 3.044 38.066 3.002Q38.234 2.904 38.234 3.016Q38.234 3.03 38.206 3.058Q38.164 3.128 38.241 3.128Q38.318 3.128 38.423 3.191Q38.528 3.254 38.542 3.24L38.598 3.338Q38.668 3.45 38.766 3.45Q38.822 3.464 38.822 3.478Q38.78 3.492 38.78 3.534Q38.78 3.576 38.822 3.548Q38.822 3.548 38.843 3.562Q38.864 3.576 38.878 3.618Q38.892 3.66 38.906 3.709Q38.92 3.758 38.927 3.807Q38.934 3.856 38.934 3.884Q38.934 3.926 39.004 3.989Q39.074 4.052 38.976 4.108Q38.584 4.318 38.458 4.458L38.444 4.458Q38.458 4.43 38.388 4.43Q38.29 4.43 38.164 4.514Q38.066 4.57 38.017 4.57Q37.968 4.57 37.786 4.682Q37.604 4.794 37.604 4.766Q37.604 4.738 37.485 4.822Q37.366 4.906 37.366 4.878L37.324 4.878Q37.296 4.934 37.072 5.046Q36.848 5.158 36.624 5.319Q36.4 5.48 36.323 5.48Q36.246 5.48 36.246 5.536Q36.246 5.592 36.176 5.571Q36.106 5.55 36.085 5.627Q36.064 5.704 35.742 5.802L35.434 5.9L35.322 5.76Q35.21 5.648 35.042 5.62Q34.902 5.592 34.706 5.452Q34.51 5.312 34.426 5.158Q34.342 5.004 34.279 4.976Q34.216 4.948 34.216 4.864Q34.216 4.78 34.181 4.703Q34.146 4.626 34.223 4.444Q34.3 4.262 34.517 4.178Q34.734 4.094 34.902 3.828Q35.14 3.464 35.266 3.058Q35.532 2.176 35.378 2.106Q35.21 2.05 35.42 1.798ZM44.037 2.666Q44.037 2.666 44.0125 2.61Q43.988 2.554 44.065 2.498Q44.142 2.442 44.485 2.47Q44.828 2.498 45.192 2.596Q45.584 2.694 45.738 2.806Q45.892 2.918 46.018 3.212Q46.116 3.408 46.137 3.709Q46.158 4.01 46.102 4.15Q46.032 4.262 46.004 4.703Q45.976 5.144 45.962 5.158Q45.948 5.172 45.71 5.046Q45.472 4.92 45.374 4.836Q45.248 4.724 45.192 4.724Q45.136 4.724 45.01 4.654L44.898 4.584Q44.884 4.584 44.828 4.15Q44.772 3.716 44.695 3.555Q44.618 3.394 44.618 3.31Q44.618 3.226 44.485 3.079Q44.352 2.932 44.219 2.855Q44.086 2.778 44.037 2.666ZM51.072 1.728Q51.072 1.728 51.072 1.714Q51.072 1.7 51.163 1.651Q51.254 1.602 51.38 1.616Q51.688 1.686 51.856 1.777Q52.024 1.868 52.178 2.106Q52.276 2.232 52.29 2.309Q52.304 2.386 52.304 2.708Q52.304 3.03 52.29 3.135Q52.276 3.24 52.178 3.436Q52.052 3.716 52.052 3.758Q52.052 3.87 52.234 3.73Q52.248 3.716 52.276 3.688Q52.374 3.59 52.416 3.59Q52.458 3.59 52.591 3.492Q52.724 3.394 52.752 3.394Q52.78 3.394 53.004 3.24Q53.2 3.142 53.445 3.086Q53.69 3.03 53.76 3.1Q53.802 3.128 54.005 3.184Q54.208 3.24 54.271 3.359Q54.334 3.478 54.327 3.52Q54.32 3.562 54.383 3.639Q54.446 3.716 54.425 3.737Q54.404 3.758 54.474 3.828Q54.53 3.856 54.404 3.912Q54.39 3.912 54.334 3.94Q54.152 4.01 54.082 4.01Q54.012 4.01 53.907 4.108Q53.802 4.206 53.732 4.234Q53.662 4.262 53.613 4.29Q53.564 4.318 53.137 4.598Q52.71 4.878 52.654 4.948Q52.598 5.018 52.57 5.018Q52.542 5.018 52.353 5.151Q52.164 5.284 52.087 5.312Q52.01 5.34 51.982 5.417Q51.954 5.494 51.905 5.48Q51.856 5.466 51.793 5.515Q51.73 5.564 51.709 5.634Q51.688 5.704 51.618 5.683Q51.548 5.662 51.548 5.697Q51.548 5.732 51.471 5.732Q51.394 5.732 51.338 5.83Q51.282 5.928 51.135 6.005Q50.988 6.082 50.988 6.124Q50.988 6.138 50.918 6.138Q50.848 6.138 50.736 6.124Q50.624 6.11 50.484 6.054Q50.344 6.026 50.211 5.921Q50.078 5.816 50.036 5.732Q50.022 5.662 49.854 5.634Q49.686 5.606 49.602 5.494Q49.518 5.382 49.574 5.242Q49.602 5.116 49.581 5.046Q49.56 4.976 49.623 4.948Q49.686 4.92 49.84 4.934Q49.98 4.934 50.001 4.906Q50.022 4.878 49.938 4.766L49.868 4.696L49.686 4.766Q49.504 4.864 49.378 4.962Q49.252 5.06 49.217 5.06Q49.182 5.06 49.014 5.158Q48.874 5.256 48.853 5.291Q48.832 5.326 48.846 5.452Q48.874 5.62 48.804 5.802Q48.734 5.942 48.713 6.117Q48.692 6.292 48.72 6.306Q48.734 6.32 48.972 6.376Q49.56 6.516 49.728 6.67Q49.91 6.866 49.973 7.062Q50.036 7.258 50.036 7.664Q50.036 8.168 50.008 8.392L49.98 8.616L50.134 8.588Q50.316 8.546 50.393 8.532Q50.47 8.518 50.68 8.455Q50.89 8.392 51.002 8.392Q51.114 8.392 51.17 8.343Q51.226 8.294 51.219 8.231Q51.212 8.168 51.254 8.126Q51.268 8.084 51.247 8.07Q51.226 8.056 51.198 8.056Q51.114 8.056 51.114 8.028Q51.114 7.986 51.198 7.923Q51.282 7.86 51.366 7.846Q51.478 7.818 51.527 7.727Q51.576 7.636 51.674 7.524Q51.772 7.412 51.751 7.398Q51.73 7.384 51.527 7.356Q51.324 7.328 50.988 7.209Q50.652 7.09 50.54 7.09Q50.316 7.09 50.232 6.74Q50.218 6.642 50.239 6.614Q50.26 6.586 50.442 6.544Q50.848 6.432 51.38 6.054Q51.688 5.872 51.744 5.872Q51.8 5.872 51.821 5.816Q51.842 5.76 52.059 5.641Q52.276 5.522 52.29 5.501Q52.304 5.48 52.514 5.368Q52.668 5.298 52.717 5.291Q52.766 5.284 52.878 5.326Q53.046 5.382 53.186 5.368Q53.354 5.354 53.522 5.403Q53.69 5.452 53.746 5.55Q53.802 5.648 53.858 5.704Q53.914 5.76 53.893 5.844Q53.872 5.928 53.914 6.033Q53.956 6.138 53.9 6.187Q53.844 6.236 53.844 6.299Q53.844 6.362 53.774 6.334Q53.746 6.32 53.704 6.376Q53.662 6.432 53.648 6.516Q53.648 6.586 53.543 6.817Q53.438 7.048 53.382 7.104Q53.312 7.188 53.235 7.314Q53.158 7.44 52.997 7.678Q52.836 7.916 52.885 7.951Q52.934 7.986 52.99 7.916Q53.046 7.846 53.123 7.874Q53.2 7.902 53.466 7.818Q53.732 7.734 53.76 7.755Q53.788 7.776 53.809 7.734Q53.83 7.692 54.012 7.678Q54.194 7.664 54.194 7.65Q54.194 7.622 54.229 7.622Q54.264 7.622 54.292 7.629Q54.32 7.636 54.334 7.664Q54.376 7.72 54.39 7.664Q54.432 7.594 54.523 7.608Q54.614 7.622 54.691 7.713Q54.768 7.804 54.74 7.874Q54.726 7.958 54.747 7.965Q54.768 7.972 54.908 7.972Q55.02 7.972 55.048 7.993Q55.076 8.014 55.062 8.042Q55.048 8.098 55.097 8.098Q55.146 8.098 55.118 8.14Q55.09 8.182 55.125 8.238Q55.16 8.294 55.202 8.28Q55.272 8.266 55.174 8.343Q55.076 8.42 55.153 8.469Q55.23 8.518 55.244 8.686L55.272 8.826L55.09 8.84Q54.922 8.84 54.796 8.854Q54.67 8.868 54.614 8.882Q54.292 9.022 54.292 8.952Q54.292 8.924 54.243 8.917Q54.194 8.91 54.145 8.931Q54.096 8.952 54.082 8.994Q54.026 9.05 54.012 9.008Q53.984 8.952 53.914 8.952Q53.844 8.952 53.809 9.008Q53.774 9.064 53.494 9.113Q53.214 9.162 53.214 9.162Q53.186 9.204 53.172 9.309Q53.158 9.414 53.172 9.505Q53.186 9.596 53.2 9.596Q53.214 9.596 53.214 9.729Q53.214 9.862 53.2 10.016Q53.186 10.17 53.158 10.24Q53.13 10.338 53.172 10.338Q53.214 10.338 53.2 10.492Q53.144 10.996 53.13 11.444Q53.116 11.668 53.081 11.717Q53.046 11.766 53.039 11.99Q53.032 12.214 52.99 12.263Q52.948 12.312 52.906 12.466Q52.864 12.648 52.71 12.97L52.626 13.194Q52.584 13.306 52.43 13.418Q52.276 13.53 52.248 13.579Q52.22 13.628 52.052 13.81Q51.814 14.062 51.772 13.782Q51.758 13.698 51.492 13.46Q51.226 13.222 51.205 13.138Q51.184 13.054 50.981 12.844Q50.778 12.634 50.82 12.55Q50.862 12.466 50.792 12.382Q50.722 12.256 50.876 12.27Q50.932 12.284 51.002 12.312Q51.506 12.424 51.73 12.354Q51.8 12.326 51.87 12.137Q51.94 11.948 51.975 11.871Q52.01 11.794 51.989 11.759Q51.968 11.724 52.01 11.626Q52.122 11.346 52.108 10.415Q52.094 9.484 51.982 9.484Q51.94 9.484 51.464 9.61Q50.988 9.736 50.764 9.736Q50.036 9.75 49.91 9.624Q49.826 9.54 49.749 9.498Q49.672 9.456 49.665 9.547Q49.658 9.638 49.616 9.645Q49.574 9.652 49.574 9.694Q49.574 9.75 49.224 10.128Q49.14 10.24 49.028 10.422L48.748 10.856Q48.594 11.094 48.615 11.178Q48.636 11.262 48.524 11.339Q48.412 11.416 48.16 11.668Q48.048 11.766 47.992 11.808Q47.936 11.85 47.894 11.85Q47.852 11.85 47.838 11.808Q47.824 11.766 47.824 11.668Q47.824 11.556 47.754 11.479Q47.684 11.402 47.656 11.262Q47.586 11.024 47.46 10.716Q47.418 10.618 47.376 10.324Q47.334 10.03 47.334 9.813Q47.334 9.596 47.362 9.568Q47.404 9.568 47.488 9.757Q47.572 9.946 47.572 10.002Q47.572 10.058 47.628 10.093Q47.684 10.128 47.782 10.002Q47.88 9.876 47.943 9.806Q48.006 9.736 48.118 9.54Q48.3 9.204 48.356 9.162Q48.384 9.134 48.573 8.7Q48.762 8.266 48.818 8.084Q48.874 7.874 48.895 7.552Q48.916 7.23 48.86 7.104Q48.804 6.936 48.552 6.936Q48.482 6.936 48.328 7.3Q47.656 8.924 47.516 8.98Q47.446 9.008 47.46 9.036Q47.502 9.064 47.432 9.148Q47.362 9.232 47.334 9.218Q47.292 9.204 47.25 9.288Q47.208 9.372 47.04 9.568Q46.914 9.736 46.676 10.114Q46.438 10.492 46.438 10.534Q46.438 10.604 46.347 10.611Q46.256 10.618 46.228 10.562Q46.186 10.492 46.109 10.415Q46.032 10.338 46.039 10.31Q46.046 10.282 45.934 10.212Q45.724 10.114 45.78 10.002Q45.794 9.946 45.738 9.946Q45.71 9.946 45.703 9.89Q45.696 9.834 45.71 9.785Q45.724 9.736 45.752 9.708Q45.808 9.694 45.724 9.624Q45.682 9.554 45.689 9.533Q45.696 9.512 45.752 9.414Q45.864 9.302 45.864 9.232Q45.864 9.162 45.955 9.141Q46.046 9.12 46.13 8.994Q46.214 8.868 46.424 8.574Q46.592 8.336 46.802 8Q47.012 7.664 47.012 7.622Q47.012 7.58 47.047 7.58Q47.082 7.58 47.103 7.475Q47.124 7.37 47.208 7.265Q47.292 7.16 47.292 7.104Q47.292 7.048 47.432 6.768Q47.53 6.572 47.621 6.285Q47.712 5.998 47.684 5.97Q47.67 5.942 47.418 6.11Q46.158 6.95 45.542 6.53Q45.402 6.432 45.262 6.418L45.136 6.376L45.15 6.642Q45.178 6.894 45.22 7.195Q45.262 7.496 45.22 7.692Q45.206 7.846 45.248 7.846L45.192 8.126Q45.108 8.42 45.066 8.406Q44.982 8.378 44.884 8.574Q44.842 8.686 44.842 8.707Q44.842 8.728 44.884 8.742Q44.954 8.784 44.961 8.777Q44.968 8.77 44.968 8.686Q44.968 8.588 45.024 8.602Q45.08 8.616 45.262 8.378Q45.808 7.538 45.92 7.426Q46.004 7.37 45.948 7.426Q45.934 7.44 45.906 7.496Q45.808 7.636 45.71 7.825Q45.612 8.014 45.458 8.238Q45.052 8.826 45.108 8.924Q45.15 8.98 45.073 9.12Q44.996 9.26 44.94 9.246Q44.898 9.246 44.898 9.26Q44.884 9.33 44.954 9.344Q44.996 9.358 45.15 9.12Q45.304 8.882 45.339 8.889Q45.374 8.896 45.43 8.812L45.458 8.826Q45.402 8.938 45.36 8.994Q45.178 9.232 45.08 9.512Q45.15 9.47 45.136 9.54Q45.136 9.596 45.066 9.694Q44.842 9.988 44.94 10.058Q44.968 10.072 44.891 10.254Q44.814 10.436 44.758 10.45Q44.73 10.478 44.73 10.541Q44.73 10.604 44.674 10.681Q44.618 10.758 44.618 10.835Q44.618 10.912 44.569 10.912Q44.52 10.912 44.541 11.003Q44.562 11.094 44.499 11.143Q44.436 11.192 44.436 11.248Q44.436 11.304 44.324 11.465Q44.212 11.626 44.142 11.766Q44.002 12.018 43.82 11.99Q43.694 11.948 43.631 11.899Q43.568 11.85 43.449 11.794Q43.33 11.738 43.218 11.626Q43.106 11.514 42.994 11.514Q42.714 11.514 42.714 11.094Q42.728 10.87 42.763 10.807Q42.798 10.744 42.924 10.758Q43.036 10.758 43.099 10.702Q43.162 10.646 43.386 10.352L43.792 9.862Q43.876 9.75 43.974 9.596L44.324 9.134Q44.898 8.35 44.856 8.308Q44.786 8.294 44.604 8.119Q44.422 7.944 44.31 7.86Q44.184 7.776 44.044 7.482Q44.016 7.398 44.023 7.37Q44.03 7.342 43.995 7.181Q43.96 7.02 43.918 6.81Q43.862 6.46 43.54 6.194Q43.4 6.082 43.47 6.082Q43.596 6.082 43.456 5.942Q43.274 5.788 43.582 5.704Q43.82 5.62 44.1 5.718Q44.31 5.788 44.373 5.788Q44.436 5.788 44.499 5.865Q44.562 5.942 44.695 5.97Q44.828 5.998 44.912 6.075Q44.996 6.152 45.031 6.103Q45.066 6.054 45.01 6.026Q44.982 6.012 45.01 5.963Q45.038 5.914 45.094 5.872Q45.15 5.83 45.192 5.83Q45.262 5.83 45.479 5.76Q45.696 5.69 45.752 5.648Q45.808 5.592 45.927 5.536Q46.046 5.48 46.186 5.389Q46.326 5.298 46.403 5.298Q46.48 5.298 46.48 5.263Q46.48 5.228 46.536 5.228Q46.592 5.228 46.592 5.186Q46.592 5.144 46.655 5.144Q46.718 5.144 47.019 4.934Q47.32 4.724 47.39 4.752Q47.474 4.794 47.474 4.696Q47.474 4.654 47.446 4.64Q47.404 4.612 47.432 4.297Q47.46 3.982 47.46 3.394Q47.46 2.946 47.446 2.834Q47.432 2.722 47.348 2.554Q47.236 2.302 47.208 2.288Q47.096 2.246 47.306 2.148Q47.432 2.078 47.628 2.106Q47.796 2.12 48.097 2.239Q48.398 2.358 48.419 2.414Q48.44 2.47 48.524 2.568Q48.622 2.68 48.622 3.842L48.636 4.066L48.93 3.954Q49.224 3.828 49.28 3.772Q49.364 3.716 49.511 3.723Q49.658 3.73 49.728 3.8Q49.826 3.884 49.938 3.898Q50.05 3.898 50.155 3.954Q50.26 4.01 50.26 4.066Q50.26 4.122 50.134 4.164Q50.008 4.206 50.008 4.248Q50.008 4.29 50.078 4.255Q50.148 4.22 50.288 4.206Q50.358 4.192 50.414 4.143Q50.47 4.094 50.568 3.912Q50.946 3.296 50.946 3.044Q50.946 2.988 51.044 2.82Q51.1 2.68 51.163 2.47Q51.226 2.26 51.205 2.239Q51.184 2.218 51.17 2.12Q51.156 2.022 51.086 1.966Q51.044 1.938 51.044 1.931Q51.044 1.924 51.086 1.924Q51.156 1.924 51.156 1.882Q51.156 1.84 51.051 1.84Q50.946 1.84 50.946 1.798Q50.946 1.756 51.009 1.756Q51.072 1.756 51.072 1.728Z">
</path>
</g>
<g >
<path     fill="#E3CAB1"  d="M3.924 21.12Q3.648 21.252 3.33 21.315Q3.012 21.378 2.592 21.378Q1.902 21.378 1.374 21.12Q0.846 20.862 0.543 20.385Q0.24 19.908 0.24 19.266Q0.24 18.618 0.537 18.111Q0.834 17.604 1.359 17.313Q1.884 17.022 2.562 17.022Q2.892 17.022 3.231 17.088Q3.57 17.154 3.804 17.25L3.804 17.97Q3.198 17.766 2.676 17.766Q2.028 17.766 1.626 18.138Q1.224 18.51 1.224 19.266Q1.224 19.674 1.419 19.989Q1.614 20.304 1.941 20.448Q2.268 20.592 2.646 20.592Q2.898 20.592 3.09 20.574L3.09 19.65L2.616 19.65L2.616 18.9L3.924 18.9L3.924 21.12ZM4.584 17.1L7.536 17.1L7.536 17.916L5.574 17.916L5.574 18.816L7.278 18.816L7.278 19.578L5.574 19.578L5.574 20.484L7.536 20.484L7.536 21.3L4.584 21.3L4.584 17.1ZM9.084 18.036L9.048 18.036L9.048 21.3L8.076 21.3L8.076 17.1L9.654 17.1L10.656 20.418L10.734 20.418L10.734 17.1L11.706 17.1L11.706 21.3L10.092 21.3L9.084 18.036ZM15.99 21.12Q15.714 21.252 15.396 21.315Q15.078 21.378 14.658 21.378Q13.968 21.378 13.44 21.12Q12.912 20.862 12.609 20.385Q12.306 19.908 12.306 19.266Q12.306 18.618 12.603 18.111Q12.9 17.604 13.425 17.313Q13.95 17.022 14.628 17.022Q14.958 17.022 15.297 17.088Q15.636 17.154 15.87 17.25L15.87 17.97Q15.264 17.766 14.742 17.766Q14.094 17.766 13.692 18.138Q13.29 18.51 13.29 19.266Q13.29 19.674 13.485 19.989Q13.68 20.304 14.007 20.448Q14.334 20.592 14.712 20.592Q14.964 20.592 15.156 20.574L15.156 19.65L14.682 19.65L14.682 18.9L15.99 18.9L15.99 21.12ZM16.392 17.1L19.548 17.1L19.548 17.91L18.468 17.91L18.468 21.3L17.472 21.3L17.472 17.91L16.392 17.91L16.392 17.1ZM21.858 21.378Q21.012 21.378 20.511 20.922Q20.01 20.466 20.01 19.668L20.01 17.1L21 17.1L21 19.668Q21 19.932 21.117 20.124Q21.234 20.316 21.432 20.421Q21.63 20.526 21.858 20.526Q22.092 20.526 22.287 20.421Q22.482 20.316 22.596 20.121Q22.71 19.926 22.71 19.668L22.71 17.1L23.7 17.1L23.7 19.668Q23.7 20.466 23.199 20.922Q22.698 21.378 21.858 21.378ZM26.904 20.112L25.56 20.112L25.242 21.3L24.192 21.3L25.41 17.1L27.06 17.1L28.278 21.3L27.222 21.3L26.904 20.112ZM26.712 19.392L26.238 17.634L26.226 17.634L25.752 19.392L26.712 19.392ZM29.778 18.036L29.742 18.036L29.742 21.3L28.77 21.3L28.77 17.1L30.348 17.1L31.35 20.418L31.428 20.418L31.428 17.1L32.4 17.1L32.4 21.3L30.786 21.3L29.778 18.036ZM34.11 17.1L34.11 20.49L35.808 20.49L35.808 21.3L33.12 21.3L33.12 17.1L34.11 17.1ZM35.952 17.1L37.026 17.1L38.034 20.634L38.058 20.634L39.066 17.1L40.14 17.1L38.844 21.3L37.248 21.3L35.952 17.1ZM40.26 17.1L41.352 17.1L42.132 18.69L42.156 18.69L42.936 17.1L44.028 17.1L42.642 19.596L42.642 21.3L41.652 21.3L41.652 19.608L40.26 17.1ZM46.47 21.378Q45.81 21.378 45.33 21.129Q44.85 20.88 44.589 20.4Q44.328 19.92 44.328 19.248Q44.328 18.564 44.589 18.06Q44.85 17.556 45.333 17.289Q45.816 17.022 46.47 17.022Q47.124 17.022 47.604 17.289Q48.084 17.556 48.345 18.06Q48.606 18.564 48.606 19.248Q48.606 19.926 48.345 20.403Q48.084 20.88 47.61 21.129Q47.136 21.378 46.47 21.378ZM45.378 19.248Q45.378 19.896 45.666 20.271Q45.954 20.646 46.47 20.646Q46.98 20.646 47.268 20.271Q47.556 19.896 47.556 19.248Q47.556 18.822 47.43 18.486Q47.304 18.15 47.055 17.958Q46.806 17.766 46.47 17.766Q46.134 17.766 45.888 17.958Q45.642 18.15 45.51 18.486Q45.378 18.822 45.378 19.248ZM51.054 21.378Q50.208 21.378 49.707 20.922Q49.206 20.466 49.206 19.668L49.206 17.1L50.196 17.1L50.196 19.668Q50.196 19.932 50.313 20.124Q50.43 20.316 50.628 20.421Q50.826 20.526 51.054 20.526Q51.288 20.526 51.483 20.421Q51.678 20.316 51.792 20.121Q51.906 19.926 51.906 19.668L51.906 17.1L52.896 17.1L52.896 19.668Q52.896 20.466 52.395 20.922Q51.894 21.378 51.054 21.378Z">
</path>
</g>
<g >
<path     fill="#D4B494"  d="M1.16 63.648C1.472 63.52 1.92 63.496 6.28 63.152C6.44 63.4 6.576 63.632 6.672 63.84L7.248 63.528C6.88 62.824 6.104 61.76 5.376 60.968L4.84 61.224C5.208 61.632 5.592 62.128 5.928 62.608L1.96 62.896C2.56 62.232 3.176 61.4 3.704 60.528L7.608 60.528L7.608 59.928L4.312 59.928L4.312 58.416L7.016 58.416L7.016 57.816L4.312 57.816L4.312 56.552L3.68 56.552L3.68 57.816L1.04 57.816L1.04 58.416L3.68 58.416L3.68 59.928L0.424 59.928L0.424 60.528L2.96 60.528C2.448 61.432 1.768 62.296 1.552 62.536C1.312 62.824 1.128 63.008 0.952 63.048C1.032 63.216 1.128 63.52 1.16 63.648ZM10.656 61.568L14.144 61.568L14.144 62.128L10.656 62.128L10.656 61.568ZM10.656 61.144L10.656 60.6L14.144 60.6L14.144 61.144L10.656 61.144ZM10.656 62.544L14.144 62.544L14.144 63.136L10.656 63.136L10.656 62.544ZM14.608 56.624C13.328 56.88 10.896 57 8.944 57.016C9 57.144 9.056 57.344 9.064 57.48C9.76 57.48 10.512 57.464 11.264 57.432C11.208 57.616 11.152 57.8 11.088 57.984L9.056 57.984L9.056 58.464L10.912 58.464C10.832 58.664 10.744 58.864 10.64 59.064L8.472 59.064L8.472 59.56L10.368 59.56C9.864 60.408 9.176 61.144 8.264 61.664C8.392 61.784 8.568 62 8.648 62.136C9.2 61.808 9.672 61.408 10.08 60.952L10.08 63.936L10.656 63.936L10.656 63.616L14.144 63.616L14.144 63.936L14.744 63.936L14.744 60.12L10.72 60.12C10.84 59.936 10.952 59.752 11.056 59.56L15.528 59.56L15.528 59.064L11.304 59.064C11.4 58.864 11.488 58.664 11.568 58.464L15.064 58.464L15.064 57.984L11.744 57.984L11.928 57.4C13.08 57.328 14.184 57.216 14.992 57.056L14.608 56.624ZM18.656 61.568L22.144 61.568L22.144 62.128L18.656 62.128L18.656 61.568ZM18.656 61.144L18.656 60.6L22.144 60.6L22.144 61.144L18.656 61.144ZM18.656 62.544L22.144 62.544L22.144 63.136L18.656 63.136L18.656 62.544ZM22.608 56.624C21.328 56.88 18.896 57 16.944 57.016C17 57.144 17.056 57.344 17.064 57.48C17.76 57.48 18.512 57.464 19.264 57.432C19.208 57.616 19.152 57.8 19.088 57.984L17.056 57.984L17.056 58.464L18.912 58.464C18.832 58.664 18.744 58.864 18.64 59.064L16.472 59.064L16.472 59.56L18.368 59.56C17.864 60.408 17.176 61.144 16.264 61.664C16.392 61.784 16.568 62 16.648 62.136C17.2 61.808 17.672 61.408 18.08 60.952L18.08 63.936L18.656 63.936L18.656 63.616L22.144 63.616L22.144 63.936L22.744 63.936L22.744 60.12L18.72 60.12C18.84 59.936 18.952 59.752 19.056 59.56L23.528 59.56L23.528 59.064L19.304 59.064C19.4 58.864 19.488 58.664 19.568 58.464L23.064 58.464L23.064 57.984L19.744 57.984L19.928 57.4C21.08 57.328 22.184 57.216 22.992 57.056L22.608 56.624Z">
</path>
</g>
<path d="M29.582 60.2486L29.8177 60.013L26.569 56.7636C26.5651 56.7598 26.5612 56.7561 26.5571 56.7524C26.5531 56.7488 26.5489 56.7453 26.5447 56.7418C26.5405 56.7384 26.5362 56.7351 26.5318 56.7318C26.5274 56.7286 26.523 56.7255 26.5184 56.7225C26.5139 56.7195 26.5093 56.7166 26.5046 56.7138C26.4999 56.711 26.4952 56.7083 26.4904 56.7058C26.4856 56.7032 26.4807 56.7008 26.4758 56.6985C26.4708 56.6962 26.4659 56.694 26.4608 56.6919C26.4558 56.6898 26.4507 56.6879 26.4456 56.6861C26.4405 56.6842 26.4353 56.6826 26.4301 56.681C26.4249 56.6794 26.4196 56.678 26.4143 56.6767C26.4091 56.6753 26.4037 56.6742 26.3984 56.6731C26.3931 56.672 26.3877 56.6711 26.3823 56.6703C26.3769 56.6695 26.3715 56.6689 26.3661 56.6683C26.3607 56.6678 26.3553 56.6674 26.3498 56.6671C26.3444 56.6669 26.339 56.6667 26.3335 56.6667C26.3281 56.6667 26.3226 56.6669 26.3172 56.6671C26.3118 56.6674 26.3063 56.6678 26.3009 56.6683C26.2955 56.6689 26.2901 56.6695 26.2847 56.6703C26.2793 56.6711 26.274 56.672 26.2686 56.6731C26.2633 56.6742 26.258 56.6753 26.2527 56.6767C26.2474 56.678 26.2422 56.6794 26.2369 56.681C26.2317 56.6826 26.2266 56.6842 26.2214 56.6861C26.2163 56.6879 26.2112 56.6898 26.2062 56.6919C26.2011 56.694 26.1962 56.6962 26.1912 56.6985C26.1863 56.7008 26.1814 56.7032 26.1766 56.7058C26.1718 56.7083 26.1671 56.711 26.1624 56.7138C26.1577 56.7166 26.1531 56.7195 26.1486 56.7225C26.1441 56.7255 26.1396 56.7286 26.1352 56.7318C26.1308 56.7351 26.1265 56.7384 26.1223 56.7418C26.1181 56.7453 26.1139 56.7488 26.1099 56.7524C26.1058 56.7561 26.1019 56.7598 26.098 56.7636C26.0941 56.7675 26.0904 56.7714 26.0867 56.7755C26.083 56.7795 26.0794 56.7836 26.076 56.7878C26.0725 56.792 26.0691 56.7963 26.0659 56.8007C26.0626 56.8051 26.0594 56.8095 26.0564 56.8141C26.0534 56.8186 26.0504 56.8232 26.0476 56.8279C26.0448 56.8326 26.0421 56.8373 26.0395 56.8421C26.0369 56.8469 26.0345 56.8518 26.0321 56.8567C26.0298 56.8617 26.0276 56.8666 26.0255 56.8717C26.0234 56.8767 26.0214 56.8818 26.0196 56.8869C26.0177 56.8921 26.016 56.8973 26.0144 56.9025C26.0128 56.9077 26.0114 56.913 26.01 56.9183C26.0087 56.9236 26.0075 56.9289 26.0064 56.9342C26.0054 56.9396 26.0044 56.945 26.0036 56.9504C26.0028 56.9558 26.0021 56.9612 26.0016 56.9666C26.0011 56.972 26.0007 56.9775 26.0004 56.9829C26.0001 56.9884 26 56.9938 26 56.9993C26 57.0048 26.0001 57.0102 26.0004 57.0157C26.0007 57.0211 26.0011 57.0266 26.0016 57.032C26.0021 57.0374 26.0028 57.0428 26.0036 57.0482C26.0044 57.0536 26.0054 57.059 26.0064 57.0644C26.0075 57.0697 26.0087 57.075 26.01 57.0803C26.0114 57.0856 26.0128 57.0909 26.0144 57.0961C26.016 57.1013 26.0177 57.1065 26.0196 57.1117C26.0214 57.1168 26.0234 57.1219 26.0255 57.1269C26.0276 57.132 26.0298 57.1369 26.0321 57.1419C26.0345 57.1468 26.0369 57.1517 26.0395 57.1565C26.0421 57.1613 26.0448 57.166 26.0476 57.1707C26.0504 57.1754 26.0534 57.18 26.0564 57.1845C26.0594 57.1891 26.0626 57.1935 26.0659 57.1979C26.0691 57.2023 26.0725 57.2066 26.076 57.2108C26.0794 57.215 26.083 57.2191 26.0867 57.2231C26.0904 57.2272 26.0941 57.2311 26.098 57.235L28.8747 60.0123L26.098 62.788C26.0941 62.7918 26.0904 62.7957 26.0867 62.7998C26.083 62.8038 26.0794 62.8079 26.076 62.8121C26.0725 62.8163 26.0691 62.8206 26.0659 62.825C26.0626 62.8294 26.0595 62.8338 26.0564 62.8384C26.0534 62.8429 26.0504 62.8475 26.0476 62.8522C26.0448 62.8568 26.0421 62.8616 26.0395 62.8664C26.037 62.8712 26.0345 62.8761 26.0322 62.881C26.0298 62.8859 26.0276 62.8909 26.0255 62.8959C26.0234 62.901 26.0214 62.906 26.0196 62.9112C26.0177 62.9163 26.016 62.9215 26.0144 62.9267C26.0128 62.9319 26.0114 62.9372 26.0101 62.9425C26.0087 62.9478 26.0075 62.9531 26.0065 62.9584C26.0054 62.9638 26.0045 62.9692 26.0036 62.9746C26.0028 62.9799 26.0022 62.9854 26.0016 62.9908C26.0011 62.9962 26.0007 63.0017 26.0004 63.0071C26.0002 63.0126 26 63.018 26 63.0235C26 63.0289 26.0002 63.0344 26.0004 63.0398C26.0007 63.0453 26.0011 63.0507 26.0016 63.0561C26.0022 63.0616 26.0028 63.067 26.0036 63.0724C26.0045 63.0778 26.0054 63.0831 26.0065 63.0885C26.0075 63.0938 26.0087 63.0992 26.0101 63.1045C26.0114 63.1097 26.0128 63.115 26.0144 63.1202C26.016 63.1254 26.0177 63.1306 26.0196 63.1357C26.0214 63.1409 26.0234 63.146 26.0255 63.151C26.0276 63.156 26.0298 63.161 26.0322 63.1659C26.0345 63.1709 26.037 63.1757 26.0395 63.1805C26.0421 63.1853 26.0448 63.1901 26.0476 63.1948C26.0504 63.1994 26.0534 63.204 26.0564 63.2086C26.0595 63.2131 26.0626 63.2175 26.0659 63.2219C26.0691 63.2263 26.0725 63.2306 26.076 63.2348C26.0794 63.239 26.083 63.2431 26.0867 63.2472C26.0904 63.2512 26.0941 63.2551 26.098 63.259C26.228 63.389 26.4407 63.3876 26.569 63.2593L29.5683 60.2616L29.582 60.2486Z"   fill="#D4B494" >
</path>
</svg>
