<svg xmlns="http://www.w3.org/2000/svg" xmlns:xlink="http://www.w3.org/1999/xlink" width="96" height="59.2664794921875" viewBox="0 0 96 59.2664794921875" fill="none">
<g >
<path     fill="#32464A"  d="M8.86 0.506479Q8.86 0.42648 8.88 0.416479Q8.9 0.40648 9.04 0.42648Q9.44 0.486481 9.44 0.62648Q9.44 0.66648 9.6 0.66648Q9.76 0.66648 9.89 0.806479Q10.02 0.946481 10.28 1.13648Q10.54 1.32648 10.54 1.41648Q10.54 1.50648 10.65 1.58648Q10.76 1.66648 10.76 1.74648Q10.76 1.82648 10.84 1.82648Q10.92 1.82648 10.98 1.94648Q11.08 2.24648 11.13 2.90648Q11.18 3.56648 11.1 3.66648Q11.04 3.74648 11.11 3.82648Q11.18 3.90648 11.04 4.08648Q10.82 4.34648 10.94 4.34648Q11.06 4.34648 11.46 4.28648Q11.82 4.18648 11.82 4.10648Q11.82 4.02648 11.88 4.02648Q11.94 4.02648 11.9 3.98648Q11.86 3.90648 12.02 3.94648Q12.06 3.94648 12.08 3.94648Q12.3 3.96648 12.38 3.78648Q12.44 3.66648 12.5 3.65648Q12.56 3.64648 12.78 3.66648Q13 3.68648 13.04 3.67648Q13.08 3.66648 13.08 3.58648Q13.06 3.52648 13.1 3.50648Q13.14 3.48648 13.28 3.50648Q13.98 3.52648 14.1 3.62648Q14.16 3.68648 14.24 3.68648Q14.28 3.68648 14.9 4.29648Q15.52 4.90648 15.7 5.12648Q15.88 5.34648 15.88 5.52648Q15.88 5.70648 15.94 5.74648Q16 5.80648 15.99 5.84648Q15.98 5.88648 15.92 5.88648Q15.82 5.88648 15.66 5.96648Q15.5 6.04648 15.43 5.99648Q15.36 5.94648 15.2 5.98648L14.6 6.10648Q13.64 6.28648 13.06 6.58648Q12.9 6.64648 12.76 6.61648Q12.62 6.58648 12.62 6.66648Q12.62 6.74648 12.38 6.86648L11.84 7.08648Q11.54 7.20648 11.13 7.37648Q10.72 7.54648 10.72 7.58648Q10.72 7.62648 10.86 7.66648Q11.04 7.70648 11.28 7.90648Q11.52 8.10648 11.6 8.24648Q11.66 8.42648 11.66 9.26648Q11.66 10.2465 11.5 10.8465L11.36 11.3065Q11.34 11.4465 11.3 11.5465Q11.08 12.0265 11.14 12.1065Q11.18 12.1265 11.56 12.2865Q13.4 13.0265 14.5 13.5665Q15.42 14.0265 15.48 14.0265Q15.54 14.0265 15.76 14.2265L16.22 14.5865Q16.46 14.7865 16.46 14.8465Q16.46 14.9065 16.61 15.0665Q16.76 15.2265 16.8 15.2065Q16.84 15.1865 16.88 15.2465Q16.92 15.3065 16.94 15.3865Q16.96 15.4665 16.92 15.4865Q16.88 15.5465 16.98 15.8465Q17.08 16.1465 17.18 16.6865Q17.26 17.0665 17.26 17.1565Q17.26 17.2465 17.16 17.3665Q17.08 17.4665 17.05 17.4765Q17.02 17.4865 16.98 17.4265Q16.88 17.3065 16.66 17.3065Q16.44 17.3065 16.41 17.2365Q16.38 17.1665 16.26 17.1665Q16.14 17.1665 16.09 17.0365Q16.04 16.9065 15.86 16.8165Q15.68 16.7265 15.58 16.6265Q15.44 16.5065 15.28 16.5265Q15.24 16.5265 15.22 16.4965Q15.2 16.4665 15.2 16.4265Q15.16 16.2865 14.94 16.1365Q14.72 15.9865 14.58 15.9665Q14.46 15.9665 14.03 15.6865Q13.6 15.4065 13.54 15.3265Q13.5 15.2465 13.32 15.1565Q13.14 15.0665 13.09 15.1065Q13.04 15.1465 12.47 14.8565Q11.9 14.5665 11.48 14.4165Q11.06 14.2665 10.96 14.2065Q10.86 14.1465 10.48 14.0265L10.12 13.9265L9.94 14.0265Q9.72 14.1665 9.76 14.2465Q9.78 14.2865 9.69 14.3865Q9.6 14.4865 9.52 14.4865Q9.46 14.4865 9.4 14.6165Q9.34 14.7465 9.22 14.7665Q9.1 14.7865 8.93 14.9265Q8.76 15.0665 8.73 15.0665Q8.7 15.0665 8.52 15.2165Q8.34 15.3665 8.07 15.5165Q7.8 15.6665 7.8 15.7265Q7.8 15.7865 7.7 15.7465Q7.6 15.7065 7.56 15.8165Q7.52 15.9265 7.34 15.9365Q7.16 15.9465 7.09 16.0065Q7.02 16.0665 7.06 16.0665L6.6 16.4465Q6.48 16.5265 6.38 16.6065Q6.14 16.7465 5.99 16.7465Q5.84 16.7465 5.76 16.8465Q5.62 16.9265 5.58 16.9165Q5.54 16.9065 5.54 16.7865Q5.54 16.5465 5.38 16.7065Q5.3 16.7865 5.23 16.6865Q5.16 16.5865 5.08 16.5865Q5 16.5865 4.87 16.4765Q4.74 16.3665 4.67 16.3665Q4.6 16.3665 4.6 16.2165Q4.6 16.0665 4.51 16.0765Q4.42 16.0865 4.3 16.0665Q4.18 16.0665 4.28 15.9665Q4.28 15.9465 4.32 15.9265Q4.46 15.7665 4.9 15.4665Q5.34 15.1665 5.49 15.0265Q5.64 14.8865 5.8 14.7865Q5.98 14.7065 6.5 14.2265Q6.74 14.0265 6.79 14.0265Q6.84 14.0265 7 13.8665Q7.5 13.3665 7.7 13.2865Q7.84 13.2265 7.56 13.1465Q7.5 13.1065 7.42 13.1065Q7.1 13.0265 6.51 12.8365Q5.92 12.6465 5.68 12.6065Q5.54 12.5865 5.37 12.5165Q5.2 12.4465 5.08 12.3765Q4.96 12.3065 5 12.2865Q5.02 12.2265 4.95 12.2265Q4.88 12.2265 4.91 12.1465Q4.94 12.0665 4.77 12.0065Q4.6 11.9465 4.62 11.8065Q4.64 11.6665 4.98 11.5865Q5.32 11.5065 6.3 11.4665Q7.1 11.4065 7.77 11.4365Q8.44 11.4665 8.44 11.5265Q8.44 11.5665 8.32 11.5465Q8.22 11.5265 8.22 11.5665Q8.22 11.6465 8.34 11.6665Q8.46 11.7065 8.6 11.7165Q8.74 11.7265 8.82 11.7165Q8.9 11.7065 8.9 11.6665Q8.9 11.6065 9.02 11.5765Q9.14 11.5465 9.17 11.4365Q9.2 11.3265 9.56 10.6065Q10 9.68648 10.14 9.16648Q10.24 8.76648 10.24 8.38648Q10.24 8.00648 10.14 7.92648Q10.06 7.84648 9.01 8.38648Q7.96 8.92648 7.91 8.91648Q7.86 8.90648 7.59 9.07648Q7.32 9.24648 7.18 9.29648Q7.04 9.34648 6.92 9.44648Q6.8 9.54648 6.68 9.54648Q6.56 9.54648 6.36 9.69648Q6.16 9.84648 6.04 9.84648Q5.92 9.84648 5.79 9.93648Q5.66 10.0265 5.6 9.99648Q5.54 9.96648 5.45 10.0365Q5.36 10.1065 5.38 10.1665Q5.4 10.2265 5.26 10.3865L5.12 10.5265L5.12 10.3465Q5.12 10.1865 5.04 10.2265Q4.96 10.2665 4.72 10.1365Q4.48 10.0065 4.41 10.0365Q4.34 10.0665 4.26 9.88648Q4.2 9.76648 4.11 9.70648Q4.02 9.64648 3.98 9.72648Q3.96 9.76648 3.88 9.70648Q3.8 9.64648 3.72 9.53648Q3.64 9.42648 3.58 9.34648Q3.56 9.20648 3.42 9.20648Q3.38 9.20648 3.36 9.18648Q3.34 9.16648 3.35 9.12648Q3.36 9.08648 3.31 9.04648Q3.26 9.00648 3.18 8.94648Q3.04 8.88648 3.02 8.83648Q3 8.78648 3.02 8.68648Q3.02 8.50648 2.96 8.50648Q2.9 8.56648 2.83 8.50648Q2.76 8.44648 2.76 8.34648Q2.76 8.28648 2.9 8.15648Q3.04 8.02648 3.3 8.03648Q3.56 8.04648 3.63 7.95648Q3.7 7.86648 3.94 7.84648Q4.26 7.80648 5.08 7.40648Q5.52 7.22648 5.82 7.11648Q6.12 7.00648 6.27 6.88648Q6.42 6.76648 6.53 6.76648Q6.64 6.76648 6.64 6.71648Q6.64 6.66648 6.82 6.56648Q7 6.46648 7 6.51648Q7 6.56648 7.13 6.42648Q7.26 6.28648 7.32 6.31648Q7.38 6.34648 7.4 6.28648Q7.46 6.20648 8.12 5.88648Q8.42 5.74648 8.49 5.68648Q8.56 5.62648 8.64 5.62648Q8.72 5.62648 8.89 5.48648Q9.06 5.34648 9.3 5.26648Q9.54 5.18648 9.54 5.13648Q9.54 5.08648 9.64 5.08648Q9.82 5.08648 9.5 4.72648Q9.06 4.26648 9.1 4.24648Q9.14 4.18648 9.06 3.93648Q8.98 3.68648 9.03 3.12648Q9.08 2.56648 9.14 2.45648Q9.2 2.34648 9.18 2.14648Q9.04 0.92648 8.94 0.766479Q8.86 0.64648 8.86 0.506479ZM31.14 14.1665Q31.26 14.1265 31.38 14.1265Q31.46 14.1265 31.46 14.1365Q31.46 14.1465 31.38 14.1665Q31.26 14.2065 31.14 14.2065Q31.04 14.2065 31.04 14.2065Q31.04 14.2065 31.14 14.1665ZM32.36 6.06648Q32.36 6.06648 32.33 5.85648Q32.3 5.64648 32.32 5.52648Q32.34 5.40648 32.37 5.40648Q32.4 5.40648 32.83 5.61648Q33.26 5.82648 33.3 5.82648Q33.34 5.82648 33.54 5.96648Q33.84 6.18648 33.94 6.00648Q34.02 5.88648 34.11 6.00648Q34.2 6.12648 34.23 6.34648Q34.26 6.56648 34.39 6.72648Q34.52 6.88648 34.5 7.20648Q34.48 7.52648 34.42 7.58648Q34.36 7.64648 34.28 8.07648Q34.2 8.50648 34.15 8.59648Q34.1 8.68648 34.1 8.82648Q34.1 8.96648 34.09 9.18648Q34.08 9.40648 33.98 9.50648Q33.88 9.60648 33.76 9.97648Q33.64 10.3465 33.6 10.3665Q33.6 10.3665 33.57 10.3265Q33.54 10.2865 33.5 10.2065Q33.46 10.0665 33.29 9.88648Q33.12 9.70648 32.96 9.62648Q32.8 9.54648 32.48 8.88648Q32.32 8.58648 32.26 8.53648Q32.2 8.48648 32.19 8.11648Q32.18 7.74648 32.24 7.64648Q32.3 7.54648 32.36 7.01648Q32.42 6.48648 32.36 6.06648ZM26.24 0.986479Q26.34 0.92648 26.42 0.95648Q26.5 0.986479 26.7 1.04648Q26.96 1.08648 27.37 1.22648Q27.78 1.36648 27.96 1.46648Q28.18 1.60648 28.38 1.82648L28.56 2.02648L28.54 2.54648Q28.52 2.98648 28.55 3.04648Q28.58 3.10648 28.94 3.16648Q29.58 3.26648 30.08 3.54648Q30.28 3.66648 30.37 3.66648Q30.46 3.66648 30.8 3.83648Q31.14 4.00648 31.23 3.99648Q31.32 3.98648 31.55 4.21648Q31.78 4.44648 31.9 4.64648Q32.16 5.18648 32.2 5.92648Q32.22 6.26648 32.2 6.26648Q32.18 6.26648 32.12 6.18648Q32.02 6.04648 31.56 5.82648Q31.1 5.60648 30.66 5.35648Q30.22 5.10648 29.96 4.97648Q29.7 4.84648 29.47 4.66648Q29.24 4.48648 28.81 4.30648Q28.38 4.12648 28.32 4.02648Q28.22 3.90648 28.12 4.08648Q28.06 4.20648 27.92 4.58648Q27.8 4.84648 27.39 5.66648Q26.98 6.48648 26.75 6.85648Q26.52 7.22648 26.54 7.24648Q26.58 7.28648 27.58 6.64648Q28.18 6.26648 28.24 6.22648Q28.96 6.12648 29.43 6.16648Q29.9 6.20648 30.46 6.50648Q31.1 6.82648 31.12 7.34648Q31.14 7.48648 31 7.88648Q30.38 9.96648 30.12 10.5665Q30.02 10.8065 30.02 10.8265Q30.02 10.9065 29.71 11.3865Q29.4 11.8665 29.26 12.0265Q29.02 12.2865 29.05 12.3065Q29.08 12.3265 29.5 12.3465Q29.92 12.3665 30.04 12.4165Q30.16 12.4665 30.42 12.5465Q30.74 12.6065 31.1 12.7865Q31.46 12.9665 31.54 13.0865Q31.6 13.2265 31.66 13.2665Q31.76 13.3465 31.7 13.5465Q31.64 13.7465 31.5 13.8665Q31.04 14.2665 28.98 14.2665L27.96 14.2665L27.82 14.0265Q27.72 13.8065 27.46 13.5865Q27.26 13.4665 27.1 13.2465Q26.94 13.0265 26.94 12.9065Q26.94 12.8065 26.84 12.7265Q26.64 12.4865 26.84 11.9065Q26.88 11.7865 26.99 10.4865Q27.1 9.18648 27.06 9.04648Q26.96 8.36648 26.88 8.36648Q26.66 8.32648 26.38 8.23648Q26.1 8.14648 26.06 8.04648Q26.02 7.98648 25.96 8.07648Q25.9 8.16648 25.63 8.52648Q25.36 8.88648 25.27 9.07648Q25.18 9.26648 24.99 9.54648Q24.8 9.82648 24.8 9.85648Q24.8 9.88648 24.52 10.1865Q24.28 10.4865 23.96 10.7365Q23.64 10.9865 23.46 11.0465Q23.32 11.0865 23.3 11.0665Q23.28 11.0465 23.28 10.9065Q23.28 10.7265 23.07 10.5265Q22.86 10.3265 22.76 10.1265Q22.74 10.0465 22.7 9.99648Q22.66 9.94648 22.64 9.96648Q22.6 9.98648 22.56 9.90648Q22.52 9.78648 22.52 9.56648Q22.52 9.40648 22.46 9.37648Q22.4 9.34648 22.4 9.18648Q22.4 9.02648 22.46 8.98648Q22.52 8.94648 22.52 8.83648Q22.52 8.72648 22.74 8.50648Q23.2 8.12648 24.02 6.88648Q26.88 2.46648 26.82 1.62648Q26.8 1.42648 26.56 1.28648Q26.2 1.08648 26.18 1.06648Q26.18 1.04648 26.24 0.986479ZM28.72 8.46648Q28.86 8.06648 28.84 8.04648Q28.82 8.02648 28.57 8.18648Q28.32 8.34648 28.26 8.37648Q28.2 8.40648 28.28 8.68648Q28.42 9.02648 28.47 9.03648Q28.52 9.04648 28.58 8.88648Q28.64 8.78648 28.72 8.46648ZM28.7 11.9665Q28.58 11.7065 28.5 11.6465Q28.42 11.5865 28.38 11.6965Q28.34 11.8065 28.32 12.1265L28.26 12.3665L28.54 12.3665Q28.84 12.3665 28.86 12.3365Q28.88 12.3065 28.7 11.9665ZM34.84 0.22648Q35.06 0.16648 35.28 0.22648Q35.44 0.286479 35.88 0.36648Q36.48 0.526479 37.06 0.986479L37.44 1.32648Q37.72 1.54648 37.54 2.42648Q37.44 2.84648 37.44 3.90648Q37.44 4.96648 37.4 5.56648Q37.3 6.50648 37.36 7.72648Q37.54 12.4265 37.55 14.0665Q37.56 15.7065 37.42 15.9665Q37.32 16.1465 37.23 16.1665Q37.14 16.1865 37.14 16.2865Q37.14 16.3865 36.99 16.7265Q36.84 17.0665 36.78 17.0865Q36.7 17.1465 36.63 17.3165Q36.56 17.4865 36.45 17.4865Q36.34 17.4865 36.3 17.6065Q36.24 17.6665 36.2 17.6365Q36.16 17.6065 36 17.4265Q35.76 17.1665 35.7 17.0465Q35.64 16.9265 35.52 16.7065Q35.24 16.2665 35.24 16.1065Q35.24 16.0065 35 15.7665Q34.84 15.5665 34.63 15.2065Q34.42 14.8465 34.42 14.7265Q34.42 14.6465 34.55 14.6365Q34.68 14.6265 34.78 14.7265Q34.84 14.7665 35.08 14.8865Q35.32 15.0065 35.4 15.0065Q35.46 15.0065 35.58 14.7465Q35.7 14.4865 35.73 13.3865Q35.76 12.2865 35.78 11.8465Q35.8 11.4065 35.86 8.74648Q35.88 6.12648 35.82 4.81648Q35.76 3.50648 35.48 1.84648Q35.4 1.20648 35.29 0.97648Q35.18 0.746479 34.98 0.60648Q34.56 0.346479 34.84 0.22648ZM55.2 13.8865L55.22 13.8265Q55.24 13.8465 55.22 13.9265L55.2 13.8865ZM46.94 0.306479Q47.1 0.26648 47.47 0.26648Q47.84 0.26648 48 0.346479Q48.34 0.506479 48.7 0.806479Q49.06 1.10648 49.2 1.34648Q49.28 1.50648 49.19 2.08648Q49.1 2.66648 48.94 3.02648Q48.84 3.18648 48.66 3.92648Q48.28 5.46648 48.16 5.62648Q48.12 5.70648 48.05 5.95648Q47.98 6.20648 47.87 6.44648Q47.76 6.68648 47.72 6.80648Q47.7 6.88648 47.71 6.91648Q47.72 6.94648 47.84 6.88648Q48.02 6.86648 48.19 6.72648Q48.36 6.58648 48.46 6.58648Q48.68 6.58648 48.68 5.56648Q48.7 4.82648 48.76 4.74648Q48.82 4.64648 49.39 4.81648Q49.96 4.98648 50.14 5.16648Q50.3 5.34648 50.54 5.27648Q50.78 5.20648 51.28 4.82648Q53.6 3.16648 53.84 3.16648Q53.88 3.16648 54.04 3.02648Q54.18 2.90648 54.48 2.80648Q54.78 2.70648 54.98 2.70648Q55.14 2.70648 55.47 2.84648Q55.8 2.98648 55.98 3.13648Q56.16 3.28648 56.16 3.44648Q56.16 3.60648 56.26 3.72648Q56.32 3.80648 56.33 3.94648Q56.34 4.08648 56.28 4.12648Q56.2 4.18648 56.12 4.30648Q56.04 4.42648 56.04 4.50648Q56.04 4.58648 55.94 4.72648Q55.84 4.86648 55.68 5.26648Q55.48 5.70648 55.08 6.34648Q54.68 6.98648 54.62 6.96648Q54.58 6.94648 54.42 7.24648L54.06 7.86648Q53.88 8.18648 53.94 8.22648Q54 8.26648 54.61 8.09648Q55.22 7.92648 55.75 7.82648Q56.28 7.72648 56.28 7.66648Q56.32 7.62648 56.6 7.63648Q56.88 7.64648 57.29 7.71648Q57.7 7.78648 57.96 7.86648Q58.26 7.94648 58.49 8.13648Q58.72 8.32648 58.72 8.46648Q58.72 8.54648 58.84 8.58648Q58.96 8.62648 58.89 8.74648Q58.82 8.86648 58.94 8.98648Q59.2 9.26648 59.12 9.42648Q59.04 9.58648 58.66 9.56648Q58.36 9.54648 58.36 9.59648Q58.36 9.64648 57.98 9.70648Q56.9 9.78648 56.6 9.88648Q56.56 9.86648 56.52 9.86648Q56.58 9.78648 56.5 9.78648Q56.42 9.78648 56.38 9.86648Q56.34 9.94648 56.12 9.98648Q55.9 10.0265 55.6 10.1465Q55.4 10.2065 55.37 10.2365Q55.34 10.2665 55.34 10.4265Q55.34 10.6265 55.37 10.8665Q55.4 11.1065 55.32 11.1065Q55.24 11.1065 55.28 11.0365Q55.32 10.9665 55.22 10.9265Q55.14 10.8865 55.14 10.9865Q55.14 11.0265 55.14 11.1465Q55.2 11.3865 55.26 11.5565Q55.32 11.7265 55.26 11.7565Q55.2 11.7865 55.16 11.9365Q55.12 12.0865 55.18 12.1465Q55.22 12.1665 55.21 12.4265Q55.2 12.6865 55.24 12.6865Q55.28 12.6865 55.32 12.5065L55.32 12.3265L55.34 12.5065Q55.36 12.6865 55.25 12.8465Q55.14 13.0065 55.16 13.2465Q55.18 13.4865 55.12 13.5265Q55.06 13.5665 55.1 13.6265Q55.14 13.6865 55.08 13.7265Q55.02 13.7665 55.04 13.9565Q55.06 14.1465 55.12 14.1465Q55.24 14.1465 55.14 14.2865Q55.12 14.3465 55.08 14.3465Q55.02 14.3865 55.07 14.4565Q55.12 14.5265 55.09 14.5665Q55.06 14.6065 55.1 14.6065Q55.14 14.6065 55.14 14.6765Q55.14 14.7465 55.12 14.8265Q55.1 14.9065 55.06 14.9265Q55.02 14.9665 55.02 15.1065Q55.02 15.2465 54.96 15.2765Q54.9 15.3065 54.77 15.5365Q54.64 15.7665 54.41 16.0065Q54.18 16.2465 54.16 16.4765Q54.14 16.7065 54.05 16.8165Q53.96 16.9265 53.96 16.9865Q53.96 17.0465 53.8 17.1465Q53.64 17.2465 53.49 17.4065Q53.34 17.5665 53.21 17.5665Q53.08 17.5665 53.08 17.3665Q53.08 17.0665 52.98 16.8465Q52.92 16.6865 52.92 16.6065Q52.92 16.5265 52.86 16.4965Q52.8 16.4665 52.81 16.3365Q52.82 16.2065 52.49 15.5365Q52.16 14.8665 52.17 14.6065Q52.18 14.3465 52.18 14.0665L52.18 13.7665L52.3 13.9265Q52.72 14.4465 53.1 14.4465Q53.3 14.4465 53.36 14.3265Q53.42 14.2065 53.54 13.6065Q53.64 13.0665 53.68 13.0065Q53.76 12.9065 53.64 11.9965Q53.52 11.0865 53.42 10.9665Q53.38 10.9265 53.08 11.0465Q52.78 11.1665 52.71 11.1665Q52.64 11.1665 52.42 11.3065L51.72 11.6065Q51.28 11.8065 51.28 11.8865Q51.28 11.9865 50.88 11.7865Q50.16 11.4665 50 11.4665Q49.9 11.4665 49.7 11.3065Q49.56 11.1865 49.28 11.0265Q49 10.8665 49 10.8865Q48.98 10.9265 48.88 11.2465Q48.78 11.5665 48.73 11.6665Q48.68 11.7665 48.68 11.8465Q48.68 11.9865 48.76 11.9265Q48.8 11.8865 48.8 11.8465L48.82 11.8065Q48.88 11.8865 48.92 11.8065Q48.96 11.7265 48.96 11.8465Q48.96 12.0465 49.44 12.5265Q50.08 13.2265 50.16 13.7665Q50.2 14.1065 50.23 14.1365Q50.26 14.1665 50.16 14.2365Q50.06 14.3065 50.03 14.5565Q50 14.8065 50.06 15.0265Q50.2 15.5865 50.14 16.0065L50.12 16.1665L49.92 16.0665Q49.68 15.9265 49.36 15.6765Q49.04 15.4265 48.98 15.3265Q48.96 15.2465 48.75 15.0565Q48.54 14.8665 48.54 14.7365Q48.54 14.6065 48.48 14.4765Q48.42 14.3465 48.44 14.1865Q48.46 14.0265 48.34 13.8965Q48.22 13.7665 48.15 13.5165Q48.08 13.2665 48.06 13.2665Q48.04 13.2665 47.74 13.7665Q47.06 14.9265 46.5 15.5265Q46.38 15.6665 46.34 15.6765Q46.3 15.6865 46.22 15.6065Q46.12 15.5265 46.12 15.4265Q46.12 15.3265 45.98 15.1465Q45.88 15.0065 45.77 14.7465Q45.66 14.4865 45.66 14.3865Q45.66 14.3465 45.69 14.0265Q45.72 13.7065 45.84 13.5865Q46.04 13.3665 46.32 12.5065Q46.44 12.2065 46.54 12.0565Q46.64 11.9065 46.64 11.8465Q46.64 11.7865 46.29 11.5165Q45.94 11.2465 45.74 11.1465Q45.54 11.0665 45.36 11.0265Q45.22 11.0065 45.15 10.9365Q45.08 10.8665 45.11 10.7765Q45.14 10.6865 45.06 10.7265Q44.98 10.7865 44.76 10.9465Q44.48 11.1465 44.34 11.2465Q43.74 11.6265 43 12.3065Q42.64 12.6265 42.62 12.6265Q42.46 12.6265 42.09 12.3665Q41.72 12.1065 41.72 12.0065Q41.72 11.9265 41.47 11.6965Q41.22 11.4665 41.12 11.4265Q40.98 11.4065 40.94 11.3265Q40.82 11.1665 40.94 10.6665L40.96 10.4865L41.28 10.5065Q41.58 10.5465 41.89 10.3865Q42.2 10.2265 42.35 10.1265Q42.5 10.0265 42.7 9.90648L43.06 9.72648Q43.18 9.62648 43.38 9.47648Q43.58 9.32648 43.66 9.32648Q43.74 9.32648 43.74 9.27648Q43.74 9.22648 43.87 9.17648Q44 9.12648 44.14 9.02648Q44.28 8.92648 44.38 8.92648Q44.48 8.92648 44.56 8.82648Q44.64 8.72648 44.66 8.75648Q44.68 8.78648 44.77 8.70648Q44.86 8.62648 44.93 8.49648Q45 8.36648 45 8.30648Q45 8.16648 45.1 8.12648Q45.2 8.08648 45.2 8.00648Q45.2 7.92648 45.29 7.78648Q45.38 7.64648 45.34 7.59648Q45.3 7.54648 45.39 7.36648Q45.48 7.18648 45.48 7.10648Q45.48 7.02648 45.58 6.76648Q45.68 6.50648 45.72 6.44648Q45.76 6.38648 45.8 6.12648Q45.84 5.86648 45.92 5.63648Q46 5.40648 46.14 4.90648L46.46 3.88648Q46.6 3.36648 46.62 3.25648Q46.64 3.14648 46.74 2.78648Q46.96 1.82648 47.04 1.14648Q47.06 0.806479 46.94 0.586479L46.8 0.386479L46.94 0.306479ZM53.82 5.12648Q53.94 4.74648 53.86 4.74648Q53.84 4.74648 53.76 4.84648Q53.66 4.96648 53.52 5.02648Q53.14 5.26648 52.68 5.70648Q52.58 5.76648 52.56 5.76648Q52.46 5.76648 52.28 6.08648Q52.16 6.26648 52.11 6.26648Q52.06 6.26648 51.98 6.32648Q51.9 6.36648 51.64 6.26648Q51.38 6.16648 51.34 6.06648Q51.28 6.02648 51.23 6.04648Q51.18 6.06648 51 5.97648Q50.82 5.88648 50.6 5.90648Q50.46 5.92648 50.42 5.94648Q50.38 5.96648 50.42 6.10648Q50.44 6.26648 50.32 6.72648Q50.18 7.30648 50.17 7.44648Q50.16 7.58648 50.22 7.62648Q50.32 7.66648 50.18 7.72648Q50.04 7.74648 49.96 7.93648Q49.88 8.12648 49.7 8.80648Q49.54 9.34648 49.44 9.50648Q49.36 9.70648 49.38 9.77648Q49.4 9.84648 49.58 9.84648Q49.72 9.84648 50.28 9.65648Q50.84 9.46648 50.96 9.38648Q51.04 9.34648 51.55 9.14648Q52.06 8.94648 52.12 8.92648Q52.12 8.92648 52.09 8.89648Q52.06 8.86648 52.03 8.82648Q52 8.78648 51.96 8.72648Q51.76 8.56648 51.68 8.40648Q51.6 8.24648 51.66 8.20648Q51.72 8.16648 52 8.16648Q52.16 8.16648 52.23 8.10648Q52.3 8.04648 52.48 7.70648Q52.74 7.26648 52.74 7.19648Q52.74 7.12648 52.82 7.07648Q52.9 7.02648 53.31 6.22648Q53.72 5.42648 53.82 5.12648ZM53.5 7.92648Q53.6 7.80648 53.59 7.73648Q53.58 7.66648 53.48 7.80648Q53.34 8.00648 53.4 8.02648Q53.42 8.02648 53.5 7.92648ZM48.06 8.84648Q48.14 8.68648 48.06 8.70648Q48.02 8.72648 47.88 8.82648Q47.72 8.98648 47.42 9.14648Q46.58 9.68648 46.44 9.92648Q46.32 10.1465 46.39 10.2465Q46.46 10.3465 46.86 10.5665Q47.38 10.8465 47.4 10.8665Q47.42 10.8865 47.51 10.6465Q47.6 10.4065 47.71 10.0865Q47.82 9.76648 47.86 9.56648Q47.92 9.24648 47.96 9.14648Q48 9.04648 48.01 8.99648Q48.02 8.94648 48.06 8.84648ZM56.78 9.74648Q56.88 9.72648 56.88 9.66648Q56.88 9.60648 56.83 9.60648Q56.78 9.60648 56.74 9.64648Q56.7 9.70648 56.71 9.73648Q56.72 9.76648 56.78 9.74648ZM53.22 10.8265Q53.22 10.7065 52.98 10.8465Q52.9 10.9465 52.96 10.9465Q53.04 10.9465 53.13 10.9065Q53.22 10.8665 53.22 10.8265ZM52.95 15.1865Q52.95 15.1865 53.015 15.1565Q53.08 15.1265 53.08 15.0665Q53.08 15.0065 52.98 14.9665Q52.88 14.9265 52.78 14.9465Q52.62 14.9665 52.76 15.1465Q52.82 15.2465 52.95 15.1865ZM68.02 8.82648Q68.02 8.82648 67.99 8.82648Q67.96 8.82648 67.96 8.77648Q67.96 8.72648 67.98 8.72648Q68 8.72648 68.04 8.77648Q68.08 8.82648 68.02 8.82648ZM68.56 8.64648Q68.74 8.36648 68.78 8.48648Q68.76 8.60648 68.44 8.88648Q68.38 8.94648 68.38 8.92648Q68.38 8.82648 68.42 8.82648Q68.46 8.82648 68.56 8.64648ZM65.98 0.0864792Q66.28 -0.133521 66.6 0.20648Q66.78 0.42648 67 0.486481Q67.22 0.546479 67.56 0.946481Q67.94 1.38648 68.02 1.78648Q68.1 2.18648 68 2.98648Q67.9 3.70648 67.82 4.06648Q67.74 4.42648 67.74 4.90648Q67.74 5.22648 67.76 5.29648Q67.78 5.36648 67.84 5.36648Q68.14 5.36648 68.26 5.56648Q68.32 5.66648 68.39 5.66648Q68.46 5.66648 68.6 5.94648Q68.72 6.18648 68.82 6.30648Q68.92 6.42648 69.04 6.40648Q69.14 6.36648 69.53 5.62648Q69.92 4.88648 70.1 4.36648Q70.62 2.96648 70.73 2.40648Q70.84 1.84648 70.7 1.42648Q70.62 1.28648 70.77 1.08648Q70.92 0.88648 71.04 0.92648Q71.16 0.946481 71.48 0.966479Q71.8 0.986479 72.08 1.14648L72.36 1.34648L72.36 2.48648Q72.36 3.64648 72.22 4.16648Q71.84 5.60648 71.64 6.04648Q71.58 6.20648 71.64 6.24648Q71.7 6.28648 71.98 6.20648Q72.24 6.16648 72.64 6.11648Q73.04 6.06648 73.31 6.00648Q73.58 5.94648 73.81 5.91648Q74.04 5.88648 74.65 5.76648Q75.26 5.64648 75.44 5.64648Q75.56 5.64648 75.91 5.75648Q76.26 5.86648 76.28 5.88648Q76.3 5.90648 76.37 6.06648Q76.44 6.22648 76.54 6.22648Q76.64 6.22648 77.18 6.63648Q77.72 7.04648 77.86 7.22648Q78.24 7.74648 78.34 8.20648Q78.4 8.58648 78.38 8.65648Q78.36 8.72648 78.42 8.82648Q78.54 9.06648 78.44 9.48648Q78.42 9.64648 78.38 9.92648Q78.34 10.2065 78.14 10.6465Q77.94 11.0865 77.92 11.2065Q77.82 11.8065 77.62 12.1865Q77.52 12.3465 77.54 12.4565Q77.56 12.5665 77.5 12.5665Q77.44 12.5665 77.39 12.7865Q77.34 13.0065 77.31 13.0565Q77.28 13.1065 77.21 13.3365Q77.14 13.5665 77.08 13.6265Q77.02 13.6865 77.02 13.8665Q77.02 14.0465 76.91 14.1565Q76.8 14.2665 76.76 14.4265Q76.72 14.5865 76.66 14.5865Q76.6 14.5865 76.6 14.7165Q76.6 14.8465 76.57 14.8465Q76.54 14.8465 76.45 14.8865Q76.36 14.9265 76.44 15.0365Q76.52 15.1465 76.44 15.2065Q76.36 15.2665 76.28 15.4065Q76.26 15.4865 76.22 15.5265Q76.18 15.5665 76.14 15.5665Q76.1 15.5465 75.96 15.7165Q75.82 15.8865 75.84 15.9665Q75.88 16.0265 75.74 16.1765Q75.6 16.3265 75.46 16.3465Q75.32 16.3465 75.14 16.7065Q74.76 17.3865 74.56 17.3865Q74.5 17.3865 74.28 17.6065Q73.94 17.9665 73.92 17.7865Q73.92 17.7665 73.94 17.7065Q73.96 17.5065 73.88 17.4465Q73.66 17.2065 73.66 16.9065Q73.66 16.7865 73.51 16.6565Q73.36 16.5265 73.42 16.4865Q73.54 16.4065 73.26 15.7265Q73.02 15.2065 72.97 14.6565Q72.92 14.1065 73.12 13.8465L73.22 13.7065L73.42 13.9865Q73.74 14.4865 73.94 14.5865Q74.08 14.6865 74.18 14.5465Q74.28 14.4065 74.52 13.7065Q74.76 13.0065 74.9 12.6665Q75.04 12.3265 75.08 12.1065Q75.12 11.8865 75.2 11.6865Q75.28 11.4865 75.5 10.5465Q75.78 9.48648 75.84 8.57648Q75.9 7.66648 75.72 7.58648Q75.64 7.54648 75.25 7.61648Q74.86 7.68648 74.72 7.74648Q74.6 7.80648 74.56 7.90648Q74.52 8.00648 74.44 8.34648Q74.24 9.40648 73.84 10.6465Q73.44 11.8865 73.14 12.4065Q73.04 12.5465 72.76 13.2265Q72.66 13.4665 72.52 13.8865Q72.16 14.9465 72.08 14.9465Q72.06 14.9465 71.92 14.5365Q71.78 14.1265 71.71 14.1465Q71.64 14.1665 71.47 13.8465Q71.3 13.5265 71.38 13.3565Q71.46 13.1865 71.39 13.0365Q71.32 12.8865 71.37 12.8465Q71.42 12.8065 71.53 12.4965Q71.64 12.1865 71.69 12.1365Q71.74 12.0865 71.85 11.7865Q71.96 11.4865 72.14 11.0865Q72.42 10.4865 72.7 9.68648Q72.8 9.44648 72.84 9.34648Q72.9 9.20648 73.04 8.70648Q73.18 8.20648 73.18 8.14648Q73.18 8.06648 73.11 8.09648Q73.04 8.12648 72.65 8.23648Q72.26 8.34648 72.21 8.43648Q72.16 8.52648 72.12 8.88648Q72.06 9.54648 71.42 10.9665Q70.74 12.4865 70.36 12.9465Q70.26 13.0665 70.1 13.3065Q69.82 13.7265 69.82 13.4265Q69.82 13.3465 69.75 13.2765Q69.68 13.2065 69.65 13.0065Q69.62 12.8065 69.5 12.8065Q69.38 12.8065 69.36 12.7065Q69.3 12.4065 69.06 12.3065Q68.98 12.2865 69.11 12.0565Q69.24 11.8265 69.19 11.7765Q69.14 11.7265 69.14 11.5965Q69.14 11.4665 69.19 11.4665Q69.24 11.4665 69.24 11.3465Q69.24 11.2265 69.3 11.2065Q69.38 11.1265 69.74 10.5565Q70.1 9.98648 70.32 9.52648Q70.66 8.80648 70.5 8.78648Q70.42 8.78648 70.31 8.65648Q70.2 8.52648 70.02 8.44648Q69.84 8.36648 69.64 8.13648Q69.44 7.90648 69.31 7.90648Q69.18 7.90648 69.15 7.81648Q69.12 7.72648 69.03 7.72648Q68.94 7.72648 68.93 7.62648Q68.92 7.52648 68.98 7.38648Q69.04 7.22648 68.93 6.99648Q68.82 6.76648 68.86 6.64648Q68.88 6.52648 68.84 6.52648Q68.82 6.52648 68.56 6.66648Q68.22 6.88648 67.92 7.12648Q67.62 7.36648 67.6 7.48648Q67.54 7.58648 67.5 8.38648Q67.46 9.18648 67.48 9.20648Q67.5 9.22648 67.68 9.04648Q67.8 8.92648 67.83 8.91648Q67.86 8.90648 67.92 8.97648Q67.98 9.04648 68.03 9.03648Q68.08 9.02648 68.2 8.86648Q68.36 8.72648 68.36 8.74648Q68.3 8.86648 68.3 8.91648Q68.3 8.96648 68.26 8.93648Q68.22 8.90648 68.18 8.98648Q68.14 9.06648 68.19 9.09648Q68.24 9.12648 68.22 9.24648Q68.2 9.36648 68.14 9.36648Q68.08 9.36648 68.12 9.28648Q68.14 9.24648 68.13 9.24648Q68.12 9.24648 68.08 9.28648Q67.98 9.36648 68 9.47648Q68.02 9.58648 67.96 9.58648Q67.9 9.58648 67.94 9.66648Q67.94 9.68648 68 9.63648Q68.06 9.58648 68.13 9.50648Q68.2 9.42648 68.26 9.34648Q68.66 8.80648 68.66 9.02648Q68.66 9.08648 68.56 9.17648Q68.46 9.26648 68.38 9.41648Q68.3 9.56648 68.05 9.91648Q67.8 10.2665 67.8 10.3665Q67.8 10.4665 67.59 10.7665Q67.38 11.0665 67.42 11.1265Q67.46 11.1865 67.38 11.2465Q67.3 11.3465 67.24 14.8865Q67.22 15.9665 67.18 16.1565Q67.14 16.3465 67.11 16.8465Q67.08 17.3465 67.03 17.4065Q66.98 17.4665 66.98 17.5665Q66.98 17.6665 66.93 17.6665Q66.88 17.6665 66.46 17.2665Q66.14 16.9865 65.89 16.6465Q65.64 16.3065 65.64 16.1865Q65.64 16.1065 65.5 15.9665Q65.44 15.8865 65.4 15.7565Q65.36 15.6265 65.36 15.5165Q65.36 15.4065 65.4 15.4065Q65.48 15.4065 65.48 15.2765Q65.48 15.1465 65.5 14.4065L65.54 13.6465L65.2 14.0265Q64.88 14.4465 64.63 14.7365Q64.38 15.0265 64.38 15.0265Q64.38 15.0865 64.05 15.3665Q63.72 15.6465 63.66 15.6465Q63.54 15.6465 63.51 15.7065Q63.48 15.7665 63.33 15.6965Q63.18 15.6265 63.06 15.5065Q62.7 15.1065 62.48 15.1065Q62.34 15.1065 62.22 14.9365Q62.1 14.7665 62.01 14.7665Q61.92 14.7665 61.95 14.6165Q61.98 14.4665 61.84 14.4465Q61.76 14.4265 61.64 14.2765Q61.52 14.1265 61.52 14.0265Q61.52 13.9865 61.72 13.8765Q61.92 13.7665 61.92 13.7265Q61.92 13.6865 62.12 13.6465Q62.28 13.6265 62.68 13.3665Q63.08 13.1065 63.2 13.0065Q63.32 12.8665 64.18 12.0465Q64.4 11.8665 64.52 11.8365Q64.64 11.8065 64.64 11.7065Q64.64 11.6665 64.97 11.4165Q65.3 11.1665 65.38 11.1665Q65.48 11.1665 65.48 11.1065Q65.48 11.0465 65.56 10.9565Q65.64 10.8665 65.65 9.88648Q65.66 8.90648 65.61 8.90648Q65.56 8.90648 65.05 9.24648Q64.54 9.58648 64.38 9.72648L64.18 9.88648L63.84 9.70648Q63.48 9.52648 63.2 9.22648Q62.92 8.92648 62.74 8.82648Q62.56 8.72648 62.52 8.57648Q62.48 8.42648 62.42 8.32648Q62.26 8.18648 62.42 7.90648Q62.54 7.72648 62.66 7.72648Q62.78 7.72648 62.82 7.62648Q62.86 7.52648 62.94 7.50648Q63.02 7.44648 63.2 7.06648Q63.38 6.68648 63.5 6.32648Q63.7 5.64648 63.76 5.01648Q63.82 4.38648 63.68 4.12648Q63.54 3.84648 63.76 3.70648Q63.98 3.56648 64.28 3.74648Q64.6 3.98648 64.97 4.46648Q65.34 4.94648 65.4 5.22648Q65.46 5.38648 65.45 5.79648Q65.44 6.20648 65.38 6.34648Q65.34 6.46648 65.4 6.46648Q65.5 6.46648 65.72 6.29648Q65.94 6.12648 65.96 6.02648Q66 5.86648 66.07 4.20648Q66.14 2.54648 66.12 1.90648Q66.12 1.26648 66.1 1.10648Q66.08 0.946481 65.96 0.746479Q65.72 0.286479 65.98 0.0864792ZM67.94 9.20648Q67.96 9.08648 67.82 8.98648Q67.78 9.04648 67.79 9.14648Q67.8 9.24648 67.85 9.24648Q67.9 9.24648 67.94 9.20648Z">
</path>
</g>
<g >
<path     fill="#49676E"  d="M5.752 24.0425L5.72 24.0425L5.088 27.6665L3.48 27.6665L2.12 22.0665L3.496 22.0665L4.296 26.2905L4.328 26.2905L5.128 22.0665L6.336 22.0665L7.136 26.2905L7.168 26.2905L7.968 22.0665L9.344 22.0665L7.984 27.6665L6.376 27.6665L5.752 24.0425ZM9.944 22.0665L13.88 22.0665L13.88 23.1545L11.264 23.1545L11.264 24.3545L13.536 24.3545L13.536 25.3705L11.264 25.3705L11.264 26.5785L13.88 26.5785L13.88 27.6665L9.944 27.6665L9.944 22.0665ZM15.944 23.3145L15.896 23.3145L15.896 27.6665L14.6 27.6665L14.6 22.0665L16.704 22.0665L18.04 26.4905L18.144 26.4905L18.144 22.0665L19.44 22.0665L19.44 27.6665L17.288 27.6665L15.944 23.3145ZM23.376 27.7705Q22.464 27.7705 21.756 27.4345Q21.048 27.0985 20.644 26.4585Q20.24 25.8185 20.24 24.9385Q20.24 24.0105 20.632 23.3425Q21.024 22.6745 21.728 22.3185Q22.432 21.9625 23.336 21.9625Q23.784 21.9625 24.24 22.0505Q24.696 22.1385 24.992 22.2745L24.992 23.2665Q24.184 22.9705 23.488 22.9705Q22.656 22.9705 22.14 23.4585Q21.624 23.9465 21.624 24.9385Q21.624 25.4665 21.88 25.8705Q22.136 26.2745 22.552 26.4985Q22.968 26.7225 23.448 26.7545L23.624 26.7625Q23.992 26.7625 24.352 26.6585Q24.712 26.5545 24.992 26.3785L24.992 27.4825Q24.648 27.6425 24.26 27.7065Q23.872 27.7705 23.376 27.7705ZM30.664 22.0665L30.664 27.6665L29.344 27.6665L29.344 25.2985L27.192 25.2985L27.192 27.6665L25.872 27.6665L25.872 22.0665L27.192 22.0665L27.192 24.2185L29.344 24.2185L29.344 22.0665L30.664 22.0665ZM34.088 27.7705Q32.96 27.7705 32.292 27.1625Q31.624 26.5545 31.624 25.4905L31.624 22.0665L32.944 22.0665L32.944 25.4905Q32.944 25.8425 33.1 26.0985Q33.256 26.3545 33.52 26.4945Q33.784 26.6345 34.088 26.6345Q34.4 26.6345 34.66 26.4945Q34.92 26.3545 35.072 26.0945Q35.224 25.8345 35.224 25.4905L35.224 22.0665L36.544 22.0665L36.544 25.4905Q36.544 26.5545 35.876 27.1625Q35.208 27.7705 34.088 27.7705ZM40.816 26.0825L39.024 26.0825L38.6 27.6665L37.2 27.6665L38.824 22.0665L41.024 22.0665L42.648 27.6665L41.24 27.6665L40.816 26.0825ZM40.56 25.1225L39.928 22.7785L39.912 22.7785L39.28 25.1225L40.56 25.1225ZM44.648 23.3145L44.6 23.3145L44.6 27.6665L43.304 27.6665L43.304 22.0665L45.408 22.0665L46.744 26.4905L46.848 26.4905L46.848 22.0665L48.144 22.0665L48.144 27.6665L45.992 27.6665L44.648 23.3145ZM53.856 27.4265Q53.488 27.6025 53.064 27.6865Q52.64 27.7705 52.08 27.7705Q51.16 27.7705 50.456 27.4265Q49.752 27.0825 49.348 26.4465Q48.944 25.8105 48.944 24.9545Q48.944 24.0905 49.34 23.4145Q49.736 22.7385 50.436 22.3505Q51.136 21.9625 52.04 21.9625Q52.48 21.9625 52.932 22.0505Q53.384 22.1385 53.696 22.2665L53.696 23.2265Q52.888 22.9545 52.192 22.9545Q51.328 22.9545 50.792 23.4505Q50.256 23.9465 50.256 24.9545Q50.256 25.4985 50.516 25.9185Q50.776 26.3385 51.212 26.5305Q51.648 26.7225 52.152 26.7225Q52.488 26.7225 52.744 26.6985L52.744 25.4665L52.112 25.4665L52.112 24.4665L53.856 24.4665L53.856 27.4265ZM59.528 22.0665L59.528 27.6665L58.208 27.6665L58.208 25.2985L56.056 25.2985L56.056 27.6665L54.736 27.6665L54.736 22.0665L56.056 22.0665L56.056 24.2185L58.208 24.2185L58.208 22.0665L59.528 22.0665ZM63.8 26.0825L62.008 26.0825L61.584 27.6665L60.184 27.6665L61.808 22.0665L64.008 22.0665L65.632 27.6665L64.224 27.6665L63.8 26.0825ZM63.544 25.1225L62.912 22.7785L62.896 22.7785L62.264 25.1225L63.544 25.1225ZM68.984 27.7705Q68.104 27.7705 67.464 27.4385Q66.824 27.1065 66.476 26.4665Q66.128 25.8265 66.128 24.9305Q66.128 24.0185 66.476 23.3465Q66.824 22.6745 67.468 22.3185Q68.112 21.9625 68.984 21.9625Q69.856 21.9625 70.496 22.3185Q71.136 22.6745 71.484 23.3465Q71.832 24.0185 71.832 24.9305Q71.832 25.8345 71.484 26.4705Q71.136 27.1065 70.504 27.4385Q69.872 27.7705 68.984 27.7705ZM67.528 24.9305Q67.528 25.7945 67.912 26.2945Q68.296 26.7945 68.984 26.7945Q69.664 26.7945 70.048 26.2945Q70.432 25.7945 70.432 24.9305Q70.432 24.3625 70.264 23.9145Q70.096 23.4665 69.764 23.2105Q69.432 22.9545 68.984 22.9545Q68.536 22.9545 68.208 23.2105Q67.88 23.4665 67.704 23.9145Q67.528 24.3625 67.528 24.9305ZM75.904 24.0425L75.872 24.0425L75.24 27.6665L73.632 27.6665L72.272 22.0665L73.648 22.0665L74.448 26.2905L74.48 26.2905L75.28 22.0665L76.488 22.0665L77.288 26.2905L77.32 26.2905L78.12 22.0665L79.496 22.0665L78.136 27.6665L76.528 27.6665L75.904 24.0425ZM82.56 27.7705Q81.432 27.7705 80.764 27.1625Q80.096 26.5545 80.096 25.4905L80.096 22.0665L81.416 22.0665L81.416 25.4905Q81.416 25.8425 81.572 26.0985Q81.728 26.3545 81.992 26.4945Q82.256 26.6345 82.56 26.6345Q82.872 26.6345 83.132 26.4945Q83.392 26.3545 83.544 26.0945Q83.696 25.8345 83.696 25.4905L83.696 22.0665L85.016 22.0665L85.016 25.4905Q85.016 26.5545 84.348 27.1625Q83.68 27.7705 82.56 27.7705Z">
</path>
</g>
<g >
<path     fill="#5C818A"  d="M4.45 56.3265C4.84 56.1665 5.4 56.1365 10.85 55.7065C11.05 56.0165 11.22 56.3065 11.34 56.5665L12.06 56.1765C11.6 55.2965 10.63 53.9665 9.72 52.9765L9.05 53.2965C9.51 53.8065 9.99 54.4265 10.41 55.0265L5.45 55.3865C6.2 54.5565 6.97 53.5165 7.63 52.4265L12.51 52.4265L12.51 51.6765L8.39 51.6765L8.39 49.7865L11.77 49.7865L11.77 49.0365L8.39 49.0365L8.39 47.4565L7.6 47.4565L7.6 49.0365L4.3 49.0365L4.3 49.7865L7.6 49.7865L7.6 51.6765L3.53 51.6765L3.53 52.4265L6.7 52.4265C6.06 53.5565 5.21 54.6365 4.94 54.9365C4.64 55.2965 4.41 55.5265 4.19 55.5765C4.29 55.7865 4.41 56.1665 4.45 56.3265ZM16.32 53.7265L20.68 53.7265L20.68 54.4265L16.32 54.4265L16.32 53.7265ZM16.32 53.1965L16.32 52.5165L20.68 52.5165L20.68 53.1965L16.32 53.1965ZM16.32 54.9465L20.68 54.9465L20.68 55.6865L16.32 55.6865L16.32 54.9465ZM21.26 47.5465C19.66 47.8665 16.62 48.0165 14.18 48.0365C14.25 48.1965 14.32 48.4465 14.33 48.6165C15.2 48.6165 16.14 48.5965 17.08 48.5565C17.01 48.7865 16.94 49.0165 16.86 49.2465L14.32 49.2465L14.32 49.8465L16.64 49.8465C16.54 50.0965 16.43 50.3465 16.3 50.5965L13.59 50.5965L13.59 51.2165L15.96 51.2165C15.33 52.2765 14.47 53.1965 13.33 53.8465C13.49 53.9965 13.71 54.2665 13.81 54.4365C14.5 54.0265 15.09 53.5265 15.6 52.9565L15.6 56.6865L16.32 56.6865L16.32 56.2865L20.68 56.2865L20.68 56.6865L21.43 56.6865L21.43 51.9165L16.4 51.9165C16.55 51.6865 16.69 51.4565 16.82 51.2165L22.41 51.2165L22.41 50.5965L17.13 50.5965C17.25 50.3465 17.36 50.0965 17.46 49.8465L21.83 49.8465L21.83 49.2465L17.68 49.2465L17.91 48.5165C19.35 48.4265 20.73 48.2865 21.74 48.0865L21.26 47.5465ZM26.32 53.7265L30.68 53.7265L30.68 54.4265L26.32 54.4265L26.32 53.7265ZM26.32 53.1965L26.32 52.5165L30.68 52.5165L30.68 53.1965L26.32 53.1965ZM26.32 54.9465L30.68 54.9465L30.68 55.6865L26.32 55.6865L26.32 54.9465ZM31.26 47.5465C29.66 47.8665 26.62 48.0165 24.18 48.0365C24.25 48.1965 24.32 48.4465 24.33 48.6165C25.2 48.6165 26.14 48.5965 27.08 48.5565C27.01 48.7865 26.94 49.0165 26.86 49.2465L24.32 49.2465L24.32 49.8465L26.64 49.8465C26.54 50.0965 26.43 50.3465 26.3 50.5965L23.59 50.5965L23.59 51.2165L25.96 51.2165C25.33 52.2765 24.47 53.1965 23.33 53.8465C23.49 53.9965 23.71 54.2665 23.81 54.4365C24.5 54.0265 25.09 53.5265 25.6 52.9565L25.6 56.6865L26.32 56.6865L26.32 56.2865L30.68 56.2865L30.68 56.6865L31.43 56.6865L31.43 51.9165L26.4 51.9165C26.55 51.6865 26.69 51.4565 26.82 51.2165L32.41 51.2165L32.41 50.5965L27.13 50.5965C27.25 50.3465 27.36 50.0965 27.46 49.8465L31.83 49.8465L31.83 49.2465L27.68 49.2465L27.91 48.5165C29.35 48.4265 30.73 48.2865 31.74 48.0865L31.26 47.5465Z">
</path>
</g>
<path d="M42.3208 52.6394L42.7037 52.2859L37.4246 47.4119C37.4184 47.4062 37.4119 47.4006 37.4053 47.3951C37.3988 47.3897 37.392 47.3844 37.3852 47.3792C37.3783 47.3741 37.3713 47.3691 37.3642 47.3642C37.3571 47.3594 37.3498 47.3547 37.3424 47.3502C37.3351 47.3457 37.3276 47.3413 37.32 47.3372C37.3124 47.333 37.3047 47.329 37.2969 47.3252C37.2891 47.3213 37.2811 47.3177 37.2731 47.3142C37.2651 47.3107 37.257 47.3075 37.2489 47.3044C37.2407 47.3012 37.2324 47.2983 37.2241 47.2956C37.2157 47.2929 37.2073 47.2903 37.1989 47.288C37.1904 47.2856 37.1819 47.2834 37.1733 47.2815C37.1647 47.2795 37.1561 47.2777 37.1474 47.2761C37.1387 47.2745 37.13 47.2732 37.1213 47.272C37.1125 47.2708 37.1037 47.2698 37.0949 47.269C37.0861 47.2682 37.0773 47.2676 37.0685 47.2672C37.0596 47.2668 37.0508 47.2666 37.042 47.2666C37.0331 47.2666 37.0243 47.2668 37.0154 47.2672C37.0066 47.2676 36.9978 47.2682 36.989 47.269C36.9802 47.2698 36.9714 47.2708 36.9626 47.272C36.9539 47.2732 36.9452 47.2745 36.9365 47.2761C36.9278 47.2777 36.9192 47.2795 36.9106 47.2815C36.902 47.2834 36.8935 47.2856 36.885 47.288C36.8766 47.2903 36.8682 47.2929 36.8598 47.2956C36.8515 47.2983 36.8432 47.3012 36.835 47.3044C36.8269 47.3075 36.8188 47.3107 36.8108 47.3142C36.8028 47.3177 36.7949 47.3213 36.787 47.3252C36.7792 47.329 36.7715 47.333 36.7639 47.3372C36.7563 47.3413 36.7488 47.3457 36.7415 47.3502C36.7341 47.3547 36.7268 47.3594 36.7197 47.3642C36.7126 47.3691 36.7056 47.3741 36.6987 47.3792C36.6919 47.3844 36.6851 47.3897 36.6786 47.3951C36.672 47.4006 36.6655 47.4062 36.6593 47.4119C36.653 47.4177 36.6468 47.4236 36.6409 47.4297C36.6349 47.4357 36.6291 47.4419 36.6234 47.4482C36.6178 47.4545 36.6123 47.461 36.607 47.4675C36.6017 47.4741 36.5966 47.4808 36.5916 47.4876C36.5867 47.4944 36.582 47.5013 36.5774 47.5083C36.5728 47.5153 36.5684 47.5224 36.5642 47.5296C36.56 47.5369 36.556 47.5442 36.5522 47.5516C36.5484 47.559 36.5448 47.5664 36.5414 47.574C36.538 47.5816 36.5348 47.5892 36.5318 47.5969C36.5288 47.6046 36.526 47.6124 36.5234 47.6202C36.5208 47.628 36.5185 47.6359 36.5163 47.6439C36.5141 47.6518 36.5122 47.6598 36.5104 47.6678C36.5087 47.6759 36.5072 47.6839 36.5059 47.692C36.5046 47.7001 36.5035 47.7082 36.5026 47.7164C36.5017 47.7245 36.5011 47.7327 36.5006 47.7409C36.5002 47.7491 36.5 47.7572 36.5 47.7654C36.5 47.7736 36.5002 47.7818 36.5006 47.79C36.5011 47.7982 36.5017 47.8063 36.5026 47.8145C36.5035 47.8226 36.5046 47.8307 36.5059 47.8388C36.5072 47.8469 36.5087 47.855 36.5104 47.863C36.5122 47.8711 36.5141 47.879 36.5163 47.887C36.5185 47.8949 36.5208 47.9028 36.5234 47.9106C36.526 47.9185 36.5288 47.9262 36.5318 47.934C36.5348 47.9417 36.538 47.9493 36.5414 47.9569C36.5448 47.9644 36.5484 47.9719 36.5522 47.9793C36.556 47.9867 36.56 47.994 36.5642 48.0012C36.5684 48.0084 36.5728 48.0155 36.5774 48.0225C36.582 48.0296 36.5867 48.0365 36.5916 48.0433C36.5966 48.0501 36.6017 48.0567 36.607 48.0633C36.6123 48.0699 36.6178 48.0763 36.6234 48.0826C36.6291 48.089 36.6349 48.0951 36.6409 48.1012C36.6468 48.1072 36.653 48.1132 36.6593 48.1189L41.1713 52.2849L36.6593 56.4484C36.653 56.4542 36.6468 56.4601 36.6409 56.4661C36.6349 56.4722 36.6291 56.4784 36.6235 56.4847C36.6178 56.491 36.6123 56.4974 36.607 56.504C36.6017 56.5106 36.5966 56.5172 36.5917 56.524C36.5867 56.5308 36.582 56.5377 36.5774 56.5447C36.5728 56.5517 36.5684 56.5588 36.5643 56.5661C36.5601 56.5733 36.5561 56.5806 36.5522 56.588C36.5484 56.5953 36.5448 56.6028 36.5414 56.6104C36.538 56.6179 36.5348 56.6255 36.5318 56.6333C36.5288 56.641 36.526 56.6487 36.5234 56.6566C36.5209 56.6644 36.5185 56.6723 36.5163 56.6802C36.5142 56.6881 36.5122 56.6961 36.5105 56.7041C36.5088 56.7121 36.5072 56.7202 36.5059 56.7283C36.5046 56.7364 36.5035 56.7445 36.5027 56.7527C36.5018 56.7608 36.5011 56.769 36.5007 56.7771C36.5003 56.7853 36.5 56.7935 36.5 56.8017C36.5 56.8099 36.5003 56.818 36.5007 56.8262C36.5011 56.8344 36.5018 56.8425 36.5027 56.8507C36.5035 56.8588 36.5046 56.8669 36.5059 56.875C36.5072 56.8831 36.5088 56.8912 36.5105 56.8992C36.5122 56.9072 36.5142 56.9152 36.5163 56.9232C36.5185 56.9311 36.5209 56.939 36.5234 56.9468C36.526 56.9546 36.5288 56.9624 36.5318 56.9701C36.5348 56.9778 36.538 56.9854 36.5414 56.993C36.5448 57.0005 36.5484 57.008 36.5522 57.0154C36.5561 57.0228 36.5601 57.0301 36.5643 57.0373C36.5684 57.0445 36.5728 57.0516 36.5774 57.0586C36.582 57.0656 36.5867 57.0725 36.5917 57.0793C36.5966 57.0861 36.6017 57.0928 36.607 57.0994C36.6123 57.1059 36.6178 57.1124 36.6235 57.1187C36.6291 57.125 36.6349 57.1312 36.6409 57.1372C36.6468 57.1433 36.653 57.1492 36.6593 57.1549C36.8705 57.3499 37.2161 57.3479 37.4246 57.1554L42.2986 52.6589L42.3208 52.6394Z"   fill="#5C818A" >
</path>
</svg>
