<svg xmlns="http://www.w3.org/2000/svg" xmlns:xlink="http://www.w3.org/1999/xlink" width="86.23193359375" height="17.2799072265625" viewBox="0 0 86.23193359375 17.2799072265625" fill="none">
<g >
<path     fill="#A18150"  d="M7.39182 5.23197L7.99182 4.12796L0.863816 4.12796L1.19982 1.87196L4.60782 1.87196L4.34382 1.00797L3.55182 0.0959644L8.47182 0.0959644L9.02382 1.87196L12.7678 1.87196L13.3678 0.815966L12.7438 0.0959644L17.8558 0.0959644L16.8718 1.87196L20.3038 1.87196L19.9678 4.12796L12.9358 4.12796L12.3358 5.23197L18.8878 5.23197L17.2558 16.848L-0.000183582 16.848L1.63182 5.23197L7.39182 5.23197ZM5.20782 8.37597L14.3998 8.37597L14.5438 7.41597L5.35182 7.41597L5.20782 8.37597ZM13.5358 14.664L13.6558 13.704L4.46382 13.704L4.34382 14.664L13.5358 14.664ZM4.77582 11.52L13.9678 11.52L14.0878 10.56L4.89582 10.56L4.77582 11.52ZM33.4318 2.68796L33.6958 0.887964L32.9038 0.0239639L38.3758 0.0239639L37.9918 2.68796L42.3358 2.68796L41.9998 5.01596L37.6558 5.01596L37.1758 8.54396L41.1598 8.54396L40.8238 10.872L36.8398 10.872L36.3598 14.4L41.1598 14.4L40.8238 16.896L26.7838 16.896L27.1198 14.4L31.7998 14.4L32.2798 10.872L28.4878 10.872L28.8238 8.54396L32.6158 8.54396L33.0958 5.01596L28.7998 5.01596L29.1358 2.68796L33.4318 2.68796ZM28.2958 2.73596L26.2318 17.256L22.1278 17.256L24.0718 3.59997L22.6558 3.88797L23.0398 1.15197L28.6798 -3.43323e-05L28.2958 2.73596ZM46.3198 2.51997L46.6798 -3.43323e-05L50.3278 -3.43323e-05L49.9678 2.51997L50.6398 2.51997L50.9998 0.0239639L54.6478 0.0239639L54.2878 2.51997L55.1998 2.51997L54.8878 4.79996L53.9518 4.79996L52.9678 11.856L50.6158 14.064L53.1118 17.28L49.2478 17.28L48.3598 16.176L47.1838 17.28L43.3198 17.28L46.7278 14.088L44.9998 11.856L45.9838 4.79996L45.0958 4.79996L45.4078 2.51997L46.3198 2.51997ZM57.6718 7.75196L57.8638 6.38396L60.8158 2.73596L55.8718 2.73596L56.1838 0.455965L65.3038 0.455965L64.8478 3.64796L62.3758 6.71996L62.2318 7.75196L65.1838 7.75196L64.8718 10.032L61.9198 10.032L61.1278 15.696Q61.0078 16.392 60.4678 16.836Q59.9278 17.28 59.2318 17.28L54.5038 17.28L56.6638 15.048L57.3598 10.032L54.3838 10.032L54.6958 7.75196L57.6718 7.75196ZM49.3678 11.616L50.3278 4.79996L49.6558 4.79996L48.6958 11.616L48.9838 11.976L49.3678 11.616ZM76.1758 16.896L78.4078 0.935965L77.5438 0.0239639L82.9678 0.0239639L80.9758 14.16L85.1278 14.16L86.2318 13.224L85.7278 16.896L76.1758 16.896ZM74.8798 14.616L72.8398 12.312L72.1438 17.256L68.2318 17.256L69.0238 11.64L66.5278 11.64L71.5678 5.13596L67.7038 5.13596L68.0158 2.87996L75.8638 2.87996L75.4558 5.83196L73.3678 8.49597L73.3678 8.61596L75.4078 10.944L74.8798 14.616ZM74.4958 2.47196L70.6318 2.47196L70.1038 0.623964L69.5758 0.0479641L73.8718 0.0479641L74.4958 2.47196Z">
</path>
</g>
</svg>
