<svg xmlns="http://www.w3.org/2000/svg" xmlns:xlink="http://www.w3.org/1999/xlink" width="93" height="30" viewBox="0 0 93 30" fill="none">
<rect  x="0" y="0" width="93" height="30" rx="5"    fill="#D8AA7C" >
</rect>
<g >
<path     fill="#FFFFFF"  d="M31.304 19.076L31.878 15.044L31.262 15.044L30.002 20.098L28.224 20.098L30.114 12.608L29.246 12.608L29.428 11.334L30.94 11.334L31.052 10.592L30.534 10.06L33.194 10.06L33.012 11.334L34.23 11.334L34.048 12.608L31.878 12.608L31.584 13.742L33.866 13.742L33.096 19.174Q33.04 19.58 32.69 19.839Q32.34 20.098 31.892 20.098L30.464 20.098L31.304 19.076ZM39.732 16.304L38.892 16.584L39.858 20.126L37.716 20.126L36.33 15.002L35.826 18.628L36.75 18.46L36.582 19.678L33.74 20.126L34.72 13.168L40.236 12.678L40.068 13.882L38.192 14.05L38.542 15.31L39.942 14.848L39.732 16.304ZM37.478 10.06L37.1 10.872L40.642 10.872L40.46 12.188L36.484 12.188L36.302 12.58L34.314 12.58L35.434 10.06L37.478 10.06ZM53.116 13.392L52.92 14.778L50.988 14.778L50.372 19.188Q50.316 19.594 49.994 19.853Q49.672 20.112 49.28 20.112L46.508 20.112L47.768 18.81L48.328 14.778L45.864 14.778L46.06 13.392L53.116 13.392ZM45.206 13.77L44.31 20.126L41.776 20.126L42.602 14.246L41.51 14.442L41.734 12.846L45.43 12.174L45.206 13.77ZM53.13 10.326L52.934 11.698L46.69 11.698L46.886 10.326L53.13 10.326ZM45.514 11.642L41.804 12.314L42.028 10.718L45.738 10.046L45.514 11.642ZM60.032 12.972L60.606 13.21L60.984 12.174L60.144 12.174L60.34 10.844L61.474 10.844L61.614 10.48L61.25 10.046L63.91 10.046L63.616 10.844L66.192 10.844L65.548 15.366L65.814 15.366L66.43 14.834L66.122 16.962L63.196 16.962L63.868 12.174L63.112 12.174L62.454 13.952L63.308 14.302L63.084 15.898L61.908 15.422L61.334 16.962L59.206 16.962L60.06 14.666L59.808 14.568L60.032 12.972ZM54.95 16.962L56.196 15.646L56.28 15.016L54.936 15.24L55.132 13.77L56.49 13.532L56.672 12.3L55.342 12.3L55.524 10.97L56.854 10.97L56.994 10.046L59.122 10.046L58.996 10.97L60.046 10.97L59.864 12.3L58.8 12.3L58.688 13.154L59.766 12.972L59.57 14.442L58.478 14.638L58.282 16.01Q58.212 16.416 57.897 16.689Q57.582 16.962 57.19 16.962L54.95 16.962ZM57.694 20.126L57.554 17.494L59.948 17.494L60.088 20.126L57.694 20.126ZM60.606 20.126L60.466 17.494L62.86 17.494L63 20.126L60.606 20.126ZM53.97 20.126L54.88 17.494L57.274 17.494L56.364 20.126L53.97 20.126ZM63.532 20.126L63.392 17.494L65.786 17.494L65.926 20.126L63.532 20.126ZM79.268 12.048L74.746 12.048L74.662 12.706L78.89 12.706L78.288 16.962L67.676 16.962L68.278 12.706L72.002 12.706L72.296 10.578L71.848 10.032L75.04 10.032L74.942 10.704L79.464 10.704L79.268 12.048ZM75.824 15.632L76.076 14.036L70.756 14.036L70.532 15.632L75.824 15.632ZM73.346 20.126L73.192 17.494L75.586 17.494L75.74 20.126L73.346 20.126ZM76.272 20.126L76.118 17.494L78.512 17.494L78.666 20.126L76.272 20.126ZM66.696 20.126L67.606 17.494L70 17.494L69.09 20.126L66.696 20.126ZM70.42 20.126L70.266 17.494L72.66 17.494L72.814 20.126L70.42 20.126Z">
</path>
</g>
<g  clip-path="url(#clip-path-0V3k4cun1eCjnt8RxYFyp)">
<path d="M22.5527 10.6817L21.0432 18.4561C21.0699 18.4767 21.0961 18.4981 21.1218 18.5201C21.1474 18.5421 21.1725 18.5647 21.197 18.588C21.2215 18.6112 21.2455 18.6351 21.2688 18.6596C21.2921 18.684 21.3148 18.7091 21.3368 18.7347C21.3589 18.7603 21.3803 18.7864 21.4011 18.8131C21.4218 18.8398 21.4419 18.8669 21.4613 18.8946C21.4806 18.9223 21.4993 18.9505 21.5173 18.9791C21.5353 19.0077 21.5525 19.0368 21.569 19.0663C21.5855 19.0957 21.6013 19.1256 21.6163 19.1559C21.6313 19.1862 21.6456 19.2168 21.6591 19.2478C21.6725 19.2788 21.6852 19.3101 21.6971 19.3418C21.709 19.3734 21.7201 19.4053 21.7304 19.4375C21.7407 19.4697 21.7502 19.5021 21.7589 19.5348C21.7676 19.5674 21.7754 19.6003 21.7824 19.6333C21.7894 19.6664 21.7956 19.6996 21.801 19.733C21.8063 19.7664 21.8109 19.7998 21.8145 19.8334C21.8182 19.867 21.821 19.9007 21.823 19.9344C21.825 19.9682 21.8261 20.0019 21.8264 20.0357C21.8267 20.0695 21.8262 20.1033 21.8248 20.1371C21.8233 20.1708 21.8211 20.2045 21.818 20.2382C21.8149 20.2719 21.8109 20.3054 21.8062 20.3389C21.8014 20.3723 21.7958 20.4056 21.7893 20.4388C21.7828 20.472 21.7756 20.505 21.7674 20.5378C21.7593 20.5706 21.7504 20.6032 21.7407 20.6355C21.7309 20.6679 21.7203 20.7 21.709 20.7318C21.6976 20.7636 21.6855 20.7952 21.6725 20.8264C21.6596 20.8576 21.6459 20.8885 21.6314 20.919C21.6169 20.9496 21.6016 20.9797 21.5856 21.0095C21.5696 21.0392 21.5529 21.0686 21.5354 21.0975C21.5179 21.1264 21.4997 21.1549 21.4808 21.1829C21.4619 21.2109 21.4423 21.2384 21.422 21.2655C21.4017 21.2925 21.3808 21.319 21.3592 21.345C21.3375 21.3709 21.3153 21.3964 21.2924 21.4212C21.2695 21.4461 21.246 21.4703 21.2219 21.494C21.1977 21.5177 21.173 21.5408 21.1478 21.5632C21.1225 21.5856 21.0967 21.6074 21.0703 21.6286C21.0439 21.6497 21.0171 21.6702 20.9897 21.69C20.9623 21.7098 20.9344 21.7288 20.9061 21.7472C20.8777 21.7656 20.8489 21.7833 20.8197 21.8002C20.7904 21.8171 20.7608 21.8333 20.7307 21.8488C20.7007 21.8643 20.6702 21.879 20.6395 21.893C20.6087 21.9069 20.5775 21.92 20.5461 21.9324C20.5146 21.9448 20.4829 21.9564 20.4509 21.9671C20.4188 21.9779 20.3865 21.9879 20.354 21.997C20.3215 22.0061 20.2887 22.0145 20.2558 22.022C20.2228 22.0295 20.1897 22.0362 20.1564 22.0421C20.1231 22.0478 20.0897 22.0528 20.0562 22.0571C20.0227 22.0612 19.989 22.0646 19.9553 22.0671C19.9216 22.0696 19.8879 22.0712 19.8541 22.0719C19.8203 22.0727 19.7865 22.0727 19.7527 22.0718C19.7189 22.0709 19.6852 22.0691 19.6515 22.0665C19.6178 22.064 19.5842 22.0605 19.5507 22.0562C19.5172 22.0519 19.4838 22.0468 19.4505 22.0407C19.4172 22.0348 19.3841 22.0281 19.3512 22.0204C19.3183 22.0128 19.2856 22.0044 19.2531 21.9951C19.2206 21.9858 19.1883 21.9757 19.1563 21.9648C19.1243 21.9539 19.0927 21.9423 19.0612 21.9298C19.0298 21.9172 18.9988 21.904 18.968 21.89C18.9373 21.876 18.9069 21.8612 18.8769 21.8456C18.8469 21.8301 18.8173 21.8138 18.7881 21.7967C18.759 21.7796 18.7302 21.7618 18.7019 21.7434C18.6736 21.7249 18.6458 21.7057 18.6185 21.6858C18.5912 21.6659 18.5644 21.6453 18.5381 21.6241C18.5118 21.6029 18.486 21.581 18.4609 21.5585C18.4357 21.5359 18.4111 21.5128 18.387 21.489C18.363 21.4653 18.3396 21.4409 18.3168 21.416C18.2939 21.391 18.2718 21.3655 18.2503 21.3395C18.2287 21.3134 18.2079 21.2869 18.1877 21.2598C18.1675 21.2327 18.148 21.2051 18.1292 21.177C18.1104 21.1489 18.0922 21.1204 18.0749 21.0914C18.0575 21.0624 18.0409 21.033 18.025 21.0032C18.0091 20.9734 17.9939 20.9432 17.9795 20.9126C17.9651 20.882 17.9515 20.8511 17.9387 20.8198C17.9259 20.7886 17.9138 20.757 17.9026 20.7251C17.8913 20.6932 17.8809 20.6611 17.8713 20.6287C17.8616 20.5963 17.8528 20.5637 17.8448 20.5309C17.8368 20.498 17.8296 20.465 17.8233 20.4318C17.817 20.3986 17.8115 20.3653 17.8068 20.3318C17.8021 20.2984 17.7983 20.2648 17.7953 20.2311C17.7923 20.1975 17.7902 20.1637 17.7889 20.13C17.7876 20.0962 17.7872 20.0624 17.7876 20.0286C17.788 19.9948 17.7893 19.9611 17.7914 19.9273C17.7935 19.8936 17.7964 19.8599 17.8002 19.8264C17.804 19.7928 17.8086 19.7593 17.8141 19.726C17.8196 19.6926 17.8259 19.6594 17.833 19.6264C17.8402 19.5934 17.8481 19.5605 17.8569 19.5279C17.8657 19.4953 17.8753 19.4629 17.8857 19.4307C17.8961 19.3986 17.9073 19.3667 17.9194 19.3351C17.9314 19.3035 17.9442 19.2722 17.9578 19.2413C17.9713 19.2103 17.9857 19.1798 18.0008 19.1495C18.0159 19.1193 18.0318 19.0895 18.0484 19.0601C18.065 19.0306 18.0824 19.0016 18.1004 18.9731C18.1185 18.9445 18.1373 18.9164 18.1568 18.8888C18.1763 18.8612 18.1964 18.8341 18.2173 18.8075C18.2381 18.7809 18.2596 18.7548 18.2818 18.7293C18.3039 18.7038 18.3267 18.6788 18.3501 18.6544L14.7428 14.2741C14.7268 14.2836 14.7107 14.293 14.6945 14.3022C14.6783 14.3114 14.662 14.3203 14.6456 14.3291C14.6291 14.3379 14.6126 14.3466 14.596 14.355C14.5794 14.3634 14.5627 14.3716 14.5459 14.3796C14.5291 14.3876 14.5122 14.3955 14.4952 14.4031C14.4782 14.4107 14.4611 14.4182 14.444 14.4254C14.4268 14.4326 14.4096 14.4397 14.3923 14.4465C14.3749 14.4533 14.3575 14.4599 14.3401 14.4664C14.3226 14.4728 14.305 14.479 14.2874 14.485C14.2698 14.491 14.2521 14.4968 14.2343 14.5025C14.2166 14.508 14.1987 14.5134 14.1809 14.5186C14.163 14.5238 14.145 14.5288 14.127 14.5336C14.109 14.5383 14.091 14.5429 14.0729 14.5472C14.0548 14.5516 14.0366 14.5557 14.0184 14.5596C14.0002 14.5636 13.982 14.5673 13.9637 14.5708C13.9454 14.5743 13.9271 14.5776 13.9087 14.5806C13.8903 14.5837 13.8719 14.5865 13.8535 14.5892C13.835 14.5918 13.8166 14.5942 13.7981 14.5965C13.7796 14.5987 13.7611 14.6007 13.7426 14.6024C13.724 14.6042 13.7055 14.6058 13.6869 14.6071C13.6683 14.6085 13.6497 14.6096 13.6311 14.6105C13.6125 14.6114 13.5939 14.6121 13.5753 14.6126C13.5567 14.6131 13.5381 14.6133 13.5195 14.6134C13.5008 14.6134 13.4822 14.6132 13.4636 14.6129C13.445 14.6125 13.4264 14.6118 13.4078 14.611C13.3892 14.6102 13.3706 14.6092 13.352 14.6079C13.3334 14.6066 13.3149 14.6052 13.2963 14.6035C13.2778 14.6018 13.2592 14.5999 13.2407 14.5977C13.2222 14.5956 13.2038 14.5933 13.1853 14.5907C13.1669 14.5882 13.1485 14.5854 13.1301 14.5824C13.1117 14.5794 13.0934 14.5762 13.075 14.5728C13.0567 14.5694 13.0385 14.5658 13.0203 14.562L11.1424 18.0747C11.1684 18.0992 11.1936 18.1245 11.2181 18.1506C11.2426 18.1766 11.2664 18.2033 11.2893 18.2307C11.3123 18.2581 11.3345 18.2861 11.3558 18.3148C11.3772 18.3434 11.3977 18.3727 11.4173 18.4026C11.437 18.4324 11.4558 18.4628 11.4737 18.4937C11.4917 18.5247 11.5087 18.5561 11.5248 18.588C11.5409 18.6199 11.5561 18.6522 11.5703 18.685C11.5846 18.7178 11.5979 18.751 11.6102 18.7845C11.6225 18.8181 11.6339 18.852 11.6443 18.8862C11.6547 18.9204 11.6641 18.9549 11.6725 18.9896C11.6809 19.0243 11.6883 19.0593 11.6946 19.0945C11.701 19.1296 11.7064 19.165 11.7108 19.2005C11.7151 19.2359 11.7184 19.2715 11.7208 19.3072C11.7231 19.3429 11.7243 19.3786 11.7246 19.4143C11.7248 19.4501 11.724 19.4858 11.7222 19.5215C11.7204 19.5572 11.7176 19.5928 11.7137 19.6284C11.7099 19.6639 11.705 19.6993 11.6991 19.7345C11.6932 19.7698 11.6863 19.8049 11.6784 19.8397C11.6705 19.8746 11.6615 19.9092 11.6517 19.9435C11.6417 19.9779 11.6308 20.0119 11.619 20.0456C11.6071 20.0793 11.5943 20.1127 11.5805 20.1457C11.5667 20.1786 11.552 20.2112 11.5363 20.2433C11.5206 20.2755 11.5041 20.3071 11.4866 20.3383C11.4691 20.3695 11.4507 20.4001 11.4315 20.4303C11.4122 20.4604 11.3921 20.4899 11.3712 20.5189C11.3502 20.5478 11.3284 20.5762 11.3058 20.6039C11.2833 20.6316 11.2599 20.6586 11.2358 20.685C11.2116 20.7114 11.1867 20.737 11.1611 20.7619C11.1355 20.7869 11.1092 20.811 11.0822 20.8345C11.0552 20.8579 11.0275 20.8805 10.9992 20.9023C10.9709 20.9241 10.942 20.9451 10.9124 20.9653C10.8829 20.9854 10.8528 21.0047 10.8222 21.0232C10.7916 21.0416 10.7604 21.0591 10.7288 21.0757C10.6971 21.0924 10.6651 21.1081 10.6325 21.1229C10.5999 21.1377 10.567 21.1515 10.5337 21.1644C10.5003 21.1773 10.4666 21.1892 10.4326 21.2001C10.3986 21.2111 10.3643 21.221 10.3297 21.23C10.2951 21.239 10.2602 21.2469 10.2252 21.2539C10.1901 21.2609 10.1549 21.2668 10.1195 21.2718C10.084 21.2767 10.0485 21.2806 10.0129 21.2835C9.97727 21.2864 9.94159 21.2882 9.90586 21.2891C9.87012 21.2899 9.83438 21.2897 9.79865 21.2885C9.76293 21.2873 9.72726 21.285 9.69167 21.2818C9.65608 21.2785 9.62061 21.2742 9.58525 21.2689C9.5499 21.2635 9.51473 21.2572 9.47976 21.2499C9.44477 21.2425 9.41002 21.2342 9.37551 21.2249C9.34101 21.2155 9.3068 21.2052 9.27289 21.1939C9.23898 21.1825 9.20543 21.1703 9.17223 21.157C9.13902 21.1438 9.10623 21.1296 9.07384 21.1144C9.04146 21.0993 9.00953 21.0833 8.97807 21.0663C8.94661 21.0493 8.91567 21.0315 8.88523 21.0127C8.8548 20.9939 8.82493 20.9743 8.79563 20.9539C8.76633 20.9334 8.73764 20.9121 8.70956 20.8899C8.68149 20.8678 8.65407 20.8449 8.62732 20.8212C8.60056 20.7975 8.57451 20.773 8.54916 20.7478C8.52381 20.7226 8.49921 20.6967 8.47535 20.6701C8.4515 20.6435 8.42843 20.6162 8.40614 20.5882C8.38386 20.5603 8.3624 20.5317 8.34176 20.5025C8.32112 20.4733 8.30134 20.4436 8.28241 20.4132C8.26348 20.3829 8.24545 20.3521 8.2283 20.3207C8.21115 20.2893 8.19492 20.2575 8.1796 20.2252C8.16428 20.1929 8.14991 20.1602 8.13648 20.1271C8.12304 20.0939 8.11058 20.0604 8.09907 20.0266C8.08757 19.9928 8.07705 19.9586 8.06751 19.9242C8.05797 19.8897 8.04943 19.855 8.04189 19.8201C8.03435 19.7851 8.02783 19.75 8.02231 19.7147C8.01679 19.6793 8.0123 19.6439 8.00882 19.6083C8.00535 19.5727 8.0029 19.5371 8.00148 19.5014C8.00005 19.4657 7.99966 19.4299 8.00029 19.3942C8.00093 19.3584 8.00259 19.3228 8.00528 19.2871C8.00797 19.2515 8.01169 19.2159 8.01642 19.1805C8.02116 19.1451 8.02691 19.1098 8.03368 19.0747C8.04045 19.0396 8.04822 19.0047 8.057 18.9701C8.06577 18.9354 8.07554 18.901 8.0863 18.867C8.09705 18.8329 8.10878 18.7991 8.12148 18.7657C8.13418 18.7323 8.14783 18.6992 8.16243 18.6666C8.17703 18.634 8.19256 18.6018 8.20901 18.5701C8.22547 18.5383 8.24282 18.5071 8.26107 18.4764C8.27933 18.4456 8.29845 18.4154 8.31844 18.3858C8.33843 18.3562 8.35926 18.3271 8.38092 18.2987C8.40259 18.2703 8.42505 18.2425 8.44831 18.2153C8.47157 18.1882 8.4956 18.1617 8.52039 18.136C8.54517 18.1102 8.57068 18.0852 8.59691 18.0609C8.62314 18.0366 8.65004 18.0131 8.67762 17.9904C8.7052 17.9676 8.73342 17.9457 8.76226 17.9246C8.79111 17.9035 8.82053 17.8832 8.85054 17.8638C8.88056 17.8443 8.9111 17.8258 8.94218 17.8082C8.97326 17.7905 9.00482 17.7737 9.03687 17.7579C9.06891 17.7421 9.10138 17.7271 9.13429 17.7132C9.16719 17.6992 9.20047 17.6862 9.23412 17.6741C9.26777 17.662 9.30174 17.651 9.33603 17.6409C9.37032 17.6308 9.40487 17.6217 9.43969 17.6136C9.4745 17.6054 9.50952 17.5983 9.54476 17.5923C9.57997 17.5862 9.61534 17.5811 9.65086 17.577C9.68637 17.573 9.72198 17.5699 9.75767 17.5679C9.79335 17.5659 9.82908 17.5649 9.86483 17.565C9.91143 17.565 9.95803 17.5686 10.0034 17.572L11.9131 13.999C11.8851 13.9739 11.8577 13.9483 11.8308 13.922C11.804 13.8957 11.7778 13.8688 11.7523 13.8412C11.7267 13.8137 11.7018 13.7856 11.6776 13.7569C11.6534 13.7282 11.6298 13.6989 11.6069 13.6691C11.5841 13.6393 11.5619 13.609 11.5405 13.5782C11.519 13.5473 11.4983 13.516 11.4783 13.4842C11.4583 13.4524 11.4391 13.4202 11.4206 13.3875C11.4021 13.3548 11.3844 13.3216 11.3675 13.2881C11.3506 13.2546 11.3345 13.2206 11.3191 13.1864C11.3038 13.1521 11.2893 13.1174 11.2756 13.0825C11.2619 13.0475 11.249 13.0122 11.2369 12.9767C11.2248 12.9411 11.2136 12.9052 11.2032 12.8691C11.1928 12.8331 11.1833 12.7967 11.1746 12.7602C11.166 12.7236 11.1581 12.6869 11.1512 12.65C11.1442 12.6131 11.1381 12.576 11.1329 12.5388C11.1276 12.5016 11.1233 12.4643 11.1198 12.4269C11.1163 12.3895 11.1137 12.3521 11.112 12.3146C11.1102 12.277 11.1094 12.2395 11.1094 12.2019C11.1094 12.1644 11.1103 12.1268 11.1121 12.0893C11.1139 12.0518 11.1166 12.0143 11.1201 11.9769C11.1237 11.9395 11.1281 11.9022 11.1334 11.865C11.1386 11.8279 11.1448 11.7908 11.1518 11.7539C11.1588 11.717 11.1667 11.6803 11.1755 11.6438C11.1842 11.6072 11.1938 11.5709 11.2042 11.5348C11.2147 11.4988 11.2259 11.4629 11.238 11.4274C11.2502 11.3918 11.2631 11.3566 11.2769 11.3216C11.2906 11.2867 11.3052 11.2521 11.3206 11.2178C11.336 11.1835 11.3522 11.1496 11.3691 11.1161C11.3861 11.0826 11.4039 11.0495 11.4224 11.0169C11.4409 10.9842 11.4602 10.9519 11.4802 10.9202C11.5002 10.8884 11.521 10.8571 11.5425 10.8263C11.564 10.7955 11.5862 10.7652 11.6091 10.7354C11.632 10.7057 11.6556 10.6765 11.6799 10.6478C11.7042 10.6192 11.7291 10.5911 11.7547 10.5636C11.7803 10.5361 11.8065 10.5092 11.8334 10.483C11.8603 10.4567 11.8877 10.4311 11.9158 10.4061C11.9438 10.3811 11.9724 10.3568 12.0016 10.3332C12.0308 10.3095 12.0606 10.2866 12.0908 10.2643C12.1211 10.2421 12.1518 10.2205 12.1831 10.1997C12.2144 10.1789 12.2461 10.1589 12.2784 10.1396C12.3106 10.1202 12.3432 10.1017 12.3763 10.0839C12.4094 10.0661 12.4428 10.0491 12.4767 10.0329C12.5106 10.0166 12.5449 10.0012 12.5795 9.9866C12.614 9.97197 12.649 9.95816 12.6842 9.94518C12.7195 9.93219 12.755 9.92004 12.7908 9.90872C12.8266 9.89738 12.8627 9.8869 12.899 9.87728C12.9353 9.86764 12.9718 9.85886 13.0085 9.85094C13.0452 9.84301 13.0821 9.83595 13.1192 9.82975C13.1562 9.82355 13.1934 9.81822 13.2307 9.81376C13.268 9.8093 13.3054 9.80573 13.3428 9.80302C13.3803 9.80031 13.4178 9.79847 13.4554 9.79753C13.4929 9.79657 13.5305 9.7965 13.568 9.79731C13.6056 9.7981 13.6431 9.79979 13.6806 9.80235C13.718 9.80492 13.7554 9.80835 13.7928 9.81267C13.8301 9.81697 13.8673 9.82215 13.9043 9.82822C13.9414 9.83427 13.9783 9.84118 14.0151 9.84897C14.0518 9.85674 14.0883 9.86538 14.1247 9.87489C14.161 9.88437 14.1971 9.89472 14.233 9.90591C14.2689 9.91708 14.3044 9.92909 14.3397 9.94195C14.375 9.95479 14.41 9.96846 14.4447 9.98296C14.4793 9.99745 14.5136 10.0127 14.5476 10.0288C14.5815 10.0449 14.6151 10.0618 14.6482 10.0795C14.6813 10.0971 14.7141 10.1156 14.7464 10.1347C14.7786 10.1539 14.8105 10.1739 14.8418 10.1946C14.8732 10.2152 14.904 10.2367 14.9344 10.2588C14.9647 10.2809 14.9945 10.3037 15.0238 10.3273C15.0531 10.3508 15.0818 10.375 15.11 10.3999C15.1381 10.4247 15.1657 10.4502 15.1927 10.4764C15.2196 10.5026 15.2459 10.5293 15.2716 10.5567C15.2973 10.5841 15.3224 10.6121 15.3468 10.6407C15.3712 10.6692 15.3949 10.6984 15.4179 10.728C15.4409 10.7577 15.4633 10.7879 15.4849 10.8186C15.5065 10.8493 15.5274 10.8805 15.5475 10.9122C15.5677 10.9439 15.5871 10.9761 15.6057 11.0087C15.6244 11.0413 15.6423 11.0743 15.6594 11.1078C15.6765 11.1412 15.6928 11.175 15.7083 11.2093C15.7238 11.2435 15.7385 11.278 15.7524 11.3129C15.7663 11.3478 15.7794 11.383 15.7917 11.4185C15.8039 11.454 15.8153 11.4898 15.8259 11.5258C15.8365 11.5619 15.8462 11.5981 15.8551 11.6346C15.864 11.6711 15.872 11.7078 15.8792 11.7447C15.8863 11.7816 15.8926 11.8186 15.8981 11.8558C15.9035 11.8929 15.908 11.9302 15.9117 11.9676C15.9154 12.005 15.9182 12.0424 15.9202 12.0799C15.9221 12.1174 15.9232 12.155 15.9233 12.1925C15.9235 12.2301 15.9228 12.2676 15.9212 12.3052C15.9196 12.3427 15.9172 12.3802 15.9138 12.4176C15.9105 12.455 15.9063 12.4923 15.9012 12.5295C15.8961 12.5667 15.8901 12.6038 15.8833 12.6408C15.8765 12.6777 15.8688 12.7145 15.8603 12.7511C15.8517 12.7876 15.8424 12.824 15.8321 12.8601C15.8219 12.8963 15.8108 12.9321 15.7989 12.9678C15.7869 13.0034 15.7742 13.0387 15.7606 13.0737C15.747 13.1087 15.7326 13.1434 15.7174 13.1778C15.7022 13.2121 15.6862 13.2461 15.6694 13.2797C15.6527 13.3133 15.6351 13.3465 15.6168 13.3793L19.4715 18.0608C19.5826 18.0416 19.6944 18.0316 19.8071 18.031C19.8183 18.031 19.829 18.0326 19.8402 18.0327L21.302 10.5303C21.2696 10.5141 21.2378 10.4969 21.2064 10.4788C21.175 10.4607 21.1442 10.4417 21.114 10.4218C21.0837 10.4019 21.054 10.3812 21.025 10.3595C20.9959 10.3379 20.9675 10.3155 20.9398 10.2922C20.912 10.2689 20.885 10.2448 20.8587 10.22C20.8323 10.1951 20.8067 10.1695 20.7819 10.1432C20.757 10.1168 20.733 10.0898 20.7097 10.062C20.6864 10.0343 20.664 10.0059 20.6424 9.97681C20.6207 9.94774 20.6 9.91808 20.5801 9.88782C20.5602 9.85754 20.5412 9.82672 20.5231 9.79535C20.505 9.76397 20.4879 9.73208 20.4717 9.69972C20.4554 9.66733 20.4401 9.63451 20.4258 9.60124C20.4115 9.56798 20.3982 9.53432 20.3858 9.50028C20.3734 9.46622 20.3621 9.43185 20.3517 9.39716C20.3414 9.36245 20.332 9.32746 20.3237 9.29222C20.3154 9.25696 20.3081 9.2215 20.3019 9.18583C20.2956 9.15015 20.2904 9.11433 20.2863 9.07835C20.2821 9.04238 20.279 9.0063 20.2769 8.97015C20.2749 8.93398 20.2739 8.89779 20.2739 8.86158C20.274 8.82535 20.2751 8.78917 20.2772 8.75302C20.2794 8.71687 20.2826 8.68081 20.2869 8.64485C20.2911 8.60888 20.2964 8.57306 20.3028 8.53741C20.3091 8.50175 20.3165 8.4663 20.3249 8.43108C20.3333 8.39585 20.3428 8.3609 20.3532 8.32622C20.3637 8.29154 20.3751 8.2572 20.3876 8.22319C20.4 8.18918 20.4135 8.15556 20.4279 8.12234C20.4423 8.08911 20.4577 8.05633 20.474 8.024C20.4903 7.99167 20.5076 7.95984 20.5257 7.92852C20.5439 7.89719 20.563 7.86642 20.583 7.83621C20.6029 7.80599 20.6238 7.77639 20.6455 7.74739C20.6672 7.71839 20.6897 7.69004 20.713 7.66236C20.7364 7.63467 20.7605 7.60769 20.7854 7.58141C20.8104 7.55513 20.836 7.5296 20.8624 7.50481C20.8888 7.48003 20.916 7.45603 20.9438 7.43283C20.9716 7.40963 21 7.38725 21.0292 7.36571C21.0583 7.34416 21.088 7.32348 21.1183 7.30367C21.1486 7.28386 21.1795 7.26495 21.2109 7.24693C21.2423 7.22892 21.2742 7.21183 21.3067 7.19568C21.3391 7.17953 21.3719 7.16433 21.4052 7.15009C21.4385 7.13585 21.4722 7.1226 21.5063 7.11032C21.5404 7.09805 21.5748 7.08678 21.6095 7.07651C21.6442 7.06624 21.6792 7.05699 21.7145 7.04876C21.7498 7.04053 21.7853 7.03333 21.821 7.02717C21.8566 7.02101 21.8925 7.01589 21.9285 7.01182C21.9645 7.00775 22.0005 7.00473 22.0367 7.00276C22.0729 7.00079 22.1091 6.99987 22.1453 7.00001C22.1815 7.00015 22.2177 7.00135 22.2538 7.0036C22.29 7.00585 22.326 7.00914 22.362 7.01349C22.3979 7.01784 22.4337 7.02324 22.4694 7.02967C22.505 7.03611 22.5404 7.04358 22.5756 7.05208C22.6109 7.06058 22.6458 7.0701 22.6804 7.08064C22.715 7.09117 22.7494 7.10271 22.7834 7.11525C22.8174 7.12779 22.851 7.1413 22.8841 7.1558C22.9172 7.17029 22.9501 7.18574 22.9824 7.20214C23.0147 7.21854 23.0465 7.23587 23.0777 7.25413C23.109 7.27239 23.1398 7.29154 23.17 7.31158C23.2001 7.33163 23.2296 7.35254 23.2586 7.3743C23.2876 7.39607 23.3158 7.41867 23.3434 7.44208C23.371 7.4655 23.398 7.4897 23.4242 7.51469C23.4504 7.53968 23.4758 7.56541 23.5006 7.59188C23.5253 7.61835 23.5493 7.64552 23.5724 7.67338C23.5955 7.70125 23.6179 7.72976 23.6394 7.75893C23.6607 7.7881 23.6813 7.81786 23.701 7.84823C23.7209 7.8786 23.7398 7.90951 23.7576 7.94098C23.7755 7.97244 23.7926 8.0044 23.8086 8.03686C23.8247 8.06931 23.8399 8.10221 23.854 8.13555C23.8681 8.16889 23.8814 8.20261 23.8936 8.23671C23.9058 8.27082 23.917 8.30525 23.9271 8.34C23.9373 8.37476 23.9464 8.40978 23.9545 8.44508C23.9626 8.48036 23.9698 8.51586 23.9759 8.55157C23.9819 8.58728 23.987 8.62312 23.991 8.65913C23.995 8.69512 23.9978 8.73119 23.9997 8.76737C24.0016 8.80354 24.0025 8.83974 24.0022 8.87596C24.0021 8.91217 24.0007 8.94835 23.9984 8.9845C23.996 9.02064 23.9926 9.05668 23.9882 9.09263C23.9838 9.12857 23.9784 9.16436 23.9717 9.19999C23.9653 9.23561 23.9578 9.27101 23.9491 9.30621C23.9405 9.34139 23.931 9.37629 23.9204 9.41092C23.9096 9.44554 23.898 9.47982 23.8855 9.51378C23.8728 9.54772 23.8593 9.58127 23.8447 9.61443C23.8301 9.64758 23.8145 9.68029 23.798 9.71254C23.7816 9.74479 23.7642 9.77654 23.7458 9.80777C23.7274 9.83901 23.7083 9.86968 23.6881 9.8998C23.6679 9.92991 23.647 9.95941 23.6252 9.98831C23.6033 10.0172 23.5806 10.0454 23.5572 10.073C23.5338 10.1006 23.5095 10.1274 23.4844 10.1536C23.4594 10.1797 23.4336 10.2052 23.4071 10.2298C23.3805 10.2545 23.3532 10.2783 23.3254 10.3014C23.2974 10.3245 23.2689 10.3467 23.2396 10.3681C23.2105 10.3895 23.1807 10.41 23.1502 10.4297C23.1198 10.4493 23.0889 10.4681 23.0574 10.486C23.0259 10.5038 22.9938 10.5208 22.9613 10.5368C22.9287 10.5527 22.8959 10.5678 22.8625 10.5819C22.8291 10.5959 22.7954 10.609 22.7612 10.6211C22.7271 10.6332 22.6926 10.6443 22.6579 10.6544C22.6231 10.6645 22.588 10.6736 22.5527 10.6817Z"   fill="#4E2A07" >
</path>
</g>
<defs>
<clipPath id="clip-path-0V3k4cun1eCjnt8RxYFyp">
<path d="M8 22.0943L24 22.0943L24 7L8 7L8 22.0943Z" fill="white"/>
</clipPath>
</defs>
</svg>
