<svg xmlns="http://www.w3.org/2000/svg" xmlns:xlink="http://www.w3.org/1999/xlink" width="58.1280517578125" height="11.504150390625" viewBox="0 0 58.1280517578125 11.504150390625" fill="none">
<g >
<path     fill="#FFFFFF"  d="M13.744 0.288107L13.536 1.80811L8.96002 1.80811L8.41602 5.76011L13.584 5.76011L13.376 7.28011L8.20802 7.28011L7.61602 11.5041L4.57602 11.5041L5.16802 7.28011L1.95503e-05 7.28011L0.208019 5.76011L5.37602 5.76011L5.92002 1.80811L1.37602 1.80811L1.58402 0.288107L13.744 0.288107ZM10.112 2.41611L12.848 2.41611L11.856 5.15211L9.12002 5.15211L10.112 2.41611ZM4.86402 5.15211L2.12802 5.15211L1.90402 2.41611L4.64002 2.41611L4.86402 5.15211ZM27.744 5.76011L26.976 11.1841L15.216 11.1841L15.984 5.76011L27.744 5.76011ZM26.848 0.608107L27.984 5.15211L25.392 5.15211L25.328 4.91211L16.064 4.91211L16.224 3.76011L18.528 0.368107L18.144 0.000106812L22.096 0.000106812L19.696 3.44011L24.96 3.44011L24.256 0.608107L26.848 0.608107ZM24.176 9.66411L24.512 7.26411L18.752 7.26411L18.416 9.66411L24.176 9.66411ZM39.568 3.48811L38.848 8.64011L33.056 8.64011L33.776 3.48811L39.568 3.48811ZM36.592 7.28011L36.928 4.84811L36.032 4.84811L35.696 7.28011L36.592 7.28011ZM39.104 10.0161L40.208 2.11211L33.968 2.11211L34.192 0.592107L43.168 0.592107L41.776 10.4481Q41.712 10.9121 41.36 11.2081Q41.008 11.5041 40.544 11.5041L37.68 11.5041L39.104 10.0161ZM33.44 2.72011L32.208 11.5041L29.472 11.5041L30.704 2.72011L33.44 2.72011ZM33.616 0.288107L33.632 2.41611L30.896 2.41611L30.88 0.288107L33.616 0.288107ZM51.936 3.02411L52.176 2.57611L49.12 2.57611L49.312 1.20011L50.336 1.20011L50.224 0.848107L49.744 0.288107L52.784 0.288107L53.056 1.20011L54.704 1.20011L54.976 0.720107L54.608 0.288107L57.952 0.288107L57.44 1.20011L58.128 1.20011L57.936 2.57611L54.288 2.57611L54.048 3.02411L57.568 3.02411L56.72 9.10411L48.512 9.10411L49.36 3.02411L51.936 3.02411ZM43.952 11.2321L44.768 9.71211L45.536 4.24011L44.928 4.24011L45.152 2.72011L48.496 2.72011L47.6 9.05611L49.792 9.71211L57.232 9.71211L57.024 11.2321L48.512 11.2321L46.944 10.7681L46.688 11.2321L43.952 11.2321ZM47.92 0.288107L48.576 2.11211L46.144 2.11211L45.488 0.288107L47.92 0.288107ZM50.864 6.36811L55.136 6.36811L55.216 5.76011L50.944 5.76011L50.864 6.36811ZM51.104 4.68811L55.376 4.68811L55.456 4.09611L51.184 4.09611L51.104 4.68811ZM54.896 8.03211L54.976 7.44011L50.704 7.44011L50.624 8.03211L54.896 8.03211Z">
</path>
</g>
</svg>
