<svg xmlns="http://www.w3.org/2000/svg" xmlns:xlink="http://www.w3.org/1999/xlink" width="93" height="30" viewBox="0 0 93 30" fill="none">
<rect  x="0" y="0" width="93" height="30" rx="5"    fill="#CDC3AE" >
</rect>
<g >
<path     fill="#FFFFFF"  d="M33.544 13.504L33.964 10.578L33.502 10.046L36.694 10.046L36.204 13.504L40.474 13.504L39.578 19.888L28.406 19.888L28.588 18.558L37.1 18.558L37.268 17.368L29.288 17.368L29.47 16.038L37.45 16.038L37.618 14.834L29.106 14.834L29.302 13.504L33.544 13.504ZM37.086 12.972L37.912 10.998L37.562 10.578L40.474 10.578L39.48 12.972L37.086 12.972ZM30.156 10.942L29.848 10.578L32.494 10.578L32.83 12.972L30.436 12.972L30.156 10.942ZM49.126 13.784L48.65 13.91L48.034 18.292L52.416 18.292L52.948 17.76L52.654 19.888L45.724 19.888L46.494 14.428L45.906 14.568L46.088 13.238L46.676 13.098L46.9 11.516L46.606 11.11L49.042 11.11L48.832 12.566L49.308 12.454L49.574 10.578L49.182 10.046L51.604 10.046L51.338 11.95L53.676 11.376L53.032 16.01Q52.962 16.416 52.682 16.689Q52.402 16.962 52.052 16.962L50.708 16.962L51.142 16.346L51.59 13.182L51.156 13.294L50.568 17.494L48.608 17.494L49.126 13.784ZM45.038 19.09L40.95 19.888L41.16 18.334L42.182 18.138L42.672 14.624L41.678 14.624L41.874 13.238L42.868 13.238L43.204 10.844L42.798 10.312L45.388 10.312L44.968 13.238L45.85 13.238L45.654 14.624L44.772 14.624L44.338 17.718L45.248 17.536L45.038 19.09ZM65.968 14.834L65.268 19.888L58.394 19.888L59.094 14.834L65.968 14.834ZM56.042 11.684L56.224 10.452L55.888 10.046L58.618 10.046L58.38 11.684L59.122 11.684L58.94 13.014L58.198 13.014L57.96 14.708L58.73 14.512L58.52 15.982L57.764 16.178L57.344 19.16Q57.288 19.566 56.987 19.825Q56.686 20.084 56.28 20.084L53.97 20.084L55.048 18.824L55.328 16.766L54.418 16.99L54.614 15.534L55.538 15.31L55.86 13.014L54.978 13.014L55.16 11.684L56.042 11.684ZM66.248 11.712L61.908 12.202L61.796 13.014L65.772 13.014L66.374 12.482L66.122 14.316L59.206 14.316L59.738 10.494L59.262 10.074L62.202 10.074L62.104 10.788L66.43 10.354L66.248 11.712ZM63.518 16.822L63.63 16.08L61.18 16.08L61.068 16.822L63.518 16.822ZM63.224 18.656L63.322 17.956L60.956 17.956L60.858 18.656L63.224 18.656ZM72.128 10.718L72.156 10.578L71.708 10.046L74.9 10.046L74.802 10.718L79.324 10.718L79.142 12.048L74.606 12.048L74.522 12.706L78.512 12.706L77.602 19.202Q77.532 19.608 77.224 19.867Q76.916 20.126 76.51 20.126L74.27 20.126L75.53 18.824L76.202 14.036L69.818 14.036L68.95 20.126L66.822 20.126L67.872 12.706L71.848 12.706L71.946 12.048L67.438 12.048L67.62 10.718L72.128 10.718ZM72.478 15.366L73.164 15.366L73.598 14.568L75.586 14.568L75.152 15.366L75.614 15.366L75.446 16.556L73.64 16.556L73.57 17.102L75.376 17.102L75.208 18.292L73.402 18.292L73.192 19.762L71.204 19.762L71.414 18.292L69.608 18.292L69.776 17.102L71.582 17.102L71.652 16.556L69.846 16.556L70.014 15.366L70.476 15.366L70.266 14.568L72.268 14.568L72.478 15.366Z">
</path>
</g>
<path d="M15.6667 21.6668C11.9847 21.6668 9 18.6822 9 15.0002C9 11.3182 11.9847 8.3335 15.6667 8.3335C19.3487 8.3335 22.3333 11.3182 22.3333 15.0002C22.3333 18.6822 19.3487 21.6668 15.6667 21.6668ZM12.3333 14.6668L15 15.6668L16 18.3348L18.3333 12.3335L12.3333 14.6668Z"   fill="#A68E5B" >
</path>
</svg>
