<svg xmlns="http://www.w3.org/2000/svg" xmlns:xlink="http://www.w3.org/1999/xlink" width="100" height="30" viewBox="0 0 100 30" fill="none">
<rect  x="0" y="0" width="100" height="30" rx="5"    fill="#9A7653" >
</rect>
<g >
<path     fill="#FFFFFF"  d="M40.446 10.312L40.264 11.642L36.26 11.642L35.784 15.1L40.306 15.1L40.124 16.43L35.602 16.43L35.084 20.126L32.424 20.126L32.942 16.43L28.42 16.43L28.602 15.1L33.124 15.1L33.6 11.642L29.624 11.642L29.806 10.312L40.446 10.312ZM37.268 12.174L39.662 12.174L38.794 14.568L36.4 14.568L37.268 12.174ZM32.676 14.568L30.282 14.568L30.086 12.174L32.48 12.174L32.676 14.568ZM52.696 15.1L52.024 19.846L41.734 19.846L42.406 15.1L52.696 15.1ZM51.912 10.592L52.906 14.568L50.638 14.568L50.582 14.358L42.476 14.358L42.616 13.35L44.632 10.382L44.296 10.06L47.754 10.06L45.654 13.07L50.26 13.07L49.644 10.592L51.912 10.592ZM49.574 18.516L49.868 16.416L44.828 16.416L44.534 18.516L49.574 18.516ZM66.15 10.578L64.89 19.622L54.25 19.622L55.44 11.11L54.978 10.578L66.15 10.578ZM62.412 18.292L63.308 11.908L57.988 11.908L57.092 18.292L62.412 18.292ZM74.452 10.718L74.48 10.578L74.088 10.046L76.888 10.046L76.79 10.718L79.282 10.718L78.554 15.814L75.278 15.814L74.382 16.948L72.03 16.948L72.968 15.814L71.918 15.814L72.646 10.718L74.452 10.718ZM72.226 10.34L72.03 11.796L70.56 11.796L69.902 13.56L71.764 13.56L70.882 19.846L67.018 19.846L67.508 16.304L66.864 16.304L68.544 11.796L67.718 11.796L67.914 10.34L72.226 10.34ZM77.252 16.192L77.112 17.214L78.372 17.214L78.19 18.544L76.916 18.544L76.706 20.07L74.564 20.07L74.774 18.544L71.316 18.544L71.498 17.214L74.97 17.214L75.11 16.192L77.252 16.192ZM69.426 18.572L69.93 15.002L69.398 15.002L68.894 18.572L69.426 18.572ZM73.878 12.72L74.746 12.72L74.858 12.006L73.99 12.006L73.878 12.72ZM74.494 14.526L74.592 13.812L73.724 13.812L73.626 14.526L74.494 14.526ZM76.692 12.72L77.518 12.72L77.63 12.006L76.804 12.006L76.692 12.72ZM77.266 14.526L77.364 13.812L76.538 13.812L76.44 14.526L77.266 14.526ZM89.222 19.09L89.404 17.76L87.248 17.76L86.226 20.126L84.28 20.126L85.89 16.416L84.518 16.416L84.7 15.1L87.192 15.1L87.304 14.358L89.516 14.358L89.404 15.1L91.896 15.1L91.714 16.416L87.836 16.416L87.71 16.696L91.448 16.696L91.07 19.356Q91.042 19.636 90.818 19.818Q90.594 20 90.328 20L88.368 20L89.222 19.09ZM81.816 13.084L80.696 13.084L80.892 11.754L82.012 11.754L82.194 10.452L81.914 10.046L84.028 10.046L83.79 11.754L84.896 11.754L84.7 13.084L83.594 13.084L82.6 20.126L80.822 20.126L81.816 13.084ZM88.256 12.972L89.194 12.972L89.614 12.174L91.35 12.174L90.944 12.972L92.232 12.972L91.98 14.82L90.23 14.82L90.314 14.176L86.604 14.176L86.52 14.82L84.798 14.82L85.05 12.972L86.506 12.972L86.324 12.174L88.074 12.174L88.256 12.972ZM87.864 10.802L87.892 10.592L87.444 10.06L90.02 10.06L89.908 10.802L92.134 10.802L91.98 11.894L85.596 11.894L85.75 10.802L87.864 10.802ZM79.674 19.622L80.766 13.448L81.592 13.448L80.514 19.622L79.674 19.622ZM83.174 18.824L83.72 13.448L84.546 13.448L84.014 18.824L83.174 18.824Z">
</path>
</g>
<path d="M9.16572 15.2327L13.297 15.2327L13.297 20.5077L9.16572 20.5077L9.16572 15.2327ZM14.0438 11.6718L18.1751 11.6718L18.1751 20.5062L14.0438 20.5062L14.0438 11.6718ZM18.8782 13.6062L23.0095 13.6062L23.0095 20.5062L18.8782 20.5062L18.8782 13.6062ZM9.70791 14.4093L10.8704 13.7983L12.0313 14.4093L11.8095 13.1155L12.7501 12.1999L11.4517 12.0108L10.8704 10.8343L10.2892 12.0108L8.99072 12.1999L9.92978 13.1155L9.70791 14.4093ZM14.947 11.0687L16.1095 10.4577L17.272 11.0687L17.0501 9.7749L17.9892 8.85928L16.6907 8.67021L16.1095 7.49365L15.5282 8.67021L14.2298 8.85928L15.1688 9.7749L14.947 11.0687ZM19.7829 13.1343L20.9438 12.5249L22.1063 13.1343L21.8845 11.8405L22.8235 10.9249L21.5251 10.7358L20.9438 9.55928L20.3626 10.7358L19.0642 10.9249L20.0048 11.8405L19.7829 13.1343Z"   fill="#F0E4D8" >
</path>
</svg>
