<svg xmlns="http://www.w3.org/2000/svg" xmlns:xlink="http://www.w3.org/1999/xlink" width="251.9990234375" height="32" viewBox="0 0 251.9990234375 32" fill="none">
<g >
<path     fill="#A18150"  d="M3.792 8.256L3.048 7.344L21.216 7.344L20.424 13.056L3.12 13.056L3.792 8.256ZM19.896 16.2L19.32 20.208L13.056 20.208L12.648 23.208Q12.576 23.64 12.072 23.928Q11.568 24.216 10.872 24.216L7.056 24.216L8.376 23.28L8.808 20.208L2.544 20.208L3.12 16.2L19.896 16.2ZM13.848 13.32L13.776 13.752L21.336 13.752L21.048 15.744L1.776 15.744L2.064 13.752L9.48 13.752L9.552 13.32L13.848 13.32ZM17.64 20.808L19.488 24.024L15.6 24.024L13.776 20.808L17.64 20.808ZM7.272 20.808L4.608 24.024L0.744 24.024L3.408 20.808L7.272 20.808ZM15.072 18.48L15.192 17.736L7.152 17.736L7.032 18.48L15.072 18.48ZM7.416 9.36L16.968 9.36L17.04 8.832L7.488 8.832L7.416 9.36ZM16.68 11.352L16.752 10.872L7.2 10.872L7.128 11.352L16.68 11.352ZM43.728 10.368L35.976 10.368L35.832 11.496L43.08 11.496L42.048 18.792L23.856 18.792L24.888 11.496L31.272 11.496L31.776 7.848L31.008 6.912L36.48 6.912L36.312 8.064L44.064 8.064L43.728 10.368ZM37.824 16.512L38.256 13.776L29.136 13.776L28.752 16.512L37.824 16.512ZM33.576 24.216L33.312 19.704L37.416 19.704L37.68 24.216L33.576 24.216ZM38.592 24.216L38.328 19.704L42.432 19.704L42.696 24.216L38.592 24.216ZM22.176 24.216L23.736 19.704L27.84 19.704L26.28 24.216L22.176 24.216ZM28.56 24.216L28.296 19.704L32.4 19.704L32.664 24.216L28.56 24.216ZM64.608 24.144L61.032 24.144L61.272 22.368L59.904 22.368L59.688 19.512L58.68 22.344L57.12 22.344L56.784 24.144L54.456 24.144L54.456 24.192L52.608 24.192L52.176 20.592L51.216 24.192L49.344 24.192L50.856 18.504L50.28 18.504L50.544 16.68L51.36 16.68L51.96 14.424L53.856 14.424L53.232 16.68L53.952 16.68L54.096 14.448L55.416 14.448L55.32 16.68L55.488 16.68L55.224 18.504L53.736 18.504L54.408 23.76L57.528 7.464L65.832 7.464L63.768 22.344L64.08 22.344L64.992 21.432L64.608 24.144ZM53.184 7.008L52.056 8.832L53.496 8.832L53.424 7.008L55.536 7.008L55.608 8.832L55.968 8.832L55.68 10.8L54.024 10.8L55.824 14.016L52.656 14.016L50.832 10.848L48.912 14.016L46.008 14.016L47.976 10.8L46.464 10.8L46.752 8.832L49.176 8.832L50.304 6.984L53.184 7.008ZM48.864 14.424L48.288 16.68L48.888 16.68L49.056 14.448L50.352 14.448L50.232 16.68L50.304 16.68L50.208 17.304L50.04 18.504L49.152 18.504L49.296 24.192L47.52 24.192L47.496 19.824L46.368 24.192L44.544 24.192L46.008 18.504L45.408 18.504L45.672 16.68L46.488 16.68L47.088 14.424L48.864 14.424ZM61.488 20.88L62.808 11.592L61.128 16.08L61.488 20.88ZM62.952 10.536L63.072 9.672L59.568 9.672L59.4 10.56L60.48 10.56L60.648 13.08L61.56 10.536L62.952 10.536ZM57.264 21.672L59.232 16.488L58.968 12.816L57.264 21.672ZM70.632 13.752L71.856 10.032L68.808 10.152L69.144 7.8L79.56 7.344L79.224 9.696L76.32 9.84L75.192 13.752L80.16 13.752L81 7.896L80.208 6.96L85.536 6.96L84.576 13.752L87.288 13.752L86.928 16.176L84.24 16.176L83.136 24.168L78.72 24.168L79.824 16.176L74.496 16.176L72.192 24.144L67.248 24.144L69.84 16.176L67.44 16.176L67.8 13.752L70.632 13.752ZM104.952 22.44L105.264 20.16L101.568 20.16L99.816 24.216L96.48 24.216L99.24 17.856L96.888 17.856L97.2 15.6L101.472 15.6L101.664 14.328L105.456 14.328L105.264 15.6L109.536 15.6L109.224 17.856L102.576 17.856L102.36 18.336L108.768 18.336L108.12 22.896Q108.072 23.376 107.688 23.688Q107.304 24 106.848 24L103.488 24L104.952 22.44ZM92.256 12.144L90.336 12.144L90.672 9.864L92.592 9.864L92.904 7.632L92.424 6.936L96.048 6.936L95.64 9.864L97.536 9.864L97.2 12.144L95.304 12.144L93.6 24.216L90.552 24.216L92.256 12.144ZM103.296 11.952L104.904 11.952L105.624 10.584L108.6 10.584L107.904 11.952L110.112 11.952L109.68 15.12L106.68 15.12L106.824 14.016L100.464 14.016L100.32 15.12L97.368 15.12L97.8 11.952L100.296 11.952L99.984 10.584L102.984 10.584L103.296 11.952ZM102.624 8.232L102.672 7.872L101.904 6.96L106.32 6.96L106.128 8.232L109.944 8.232L109.68 10.104L98.736 10.104L99 8.232L102.624 8.232ZM88.584 23.352L90.456 12.768L91.872 12.768L90.024 23.352L88.584 23.352ZM94.584 21.984L95.52 12.768L96.936 12.768L96.024 21.984L94.584 21.984ZM120.528 15.6Q120.528 14.832 121.08 14.28Q121.632 13.728 122.4 13.728Q123.168 13.728 123.72 14.28Q124.272 14.832 124.272 15.6Q124.272 16.368 123.72 16.908Q123.168 17.448 122.4 17.448Q121.632 17.448 121.08 16.908Q120.528 16.368 120.528 15.6ZM152.84 10.1L152.84 11.66L142.22 11.66L142.22 10.1L146.54 10.1Q146.02 8.84 145.52 7.5L147.16 7.1Q147.62 8.16 148.38 10.1L152.84 10.1ZM141.46 18.42Q140.36 17.18 139.62 16.38L139.62 25.42L138.12 25.42L138.12 16.06Q137.64 17.4 137.03 18.64Q136.42 19.88 135.84 20.74L134.8 19.38Q135.74 18.06 136.6 16.18Q137.46 14.3 137.98 12.5L135.56 12.5L135.56 10.98L138.12 10.98L138.12 7.24L139.62 7.24L139.62 10.98L141.64 10.98L141.64 12.5L139.62 12.5L139.62 14.44Q140.98 15.66 142.44 17.12L141.46 18.42ZM153.56 20.12Q153.56 20.72 153.52 21.6Q153.48 22.48 153.44 23.12Q153.36 24.2 152.93 24.62Q152.5 25.04 151.5 25.04L150.68 25.04Q149.78 25.04 149.36 24.6Q148.94 24.16 148.94 23.12L148.94 15.68L145.4 15.68L145.4 17.42Q145.4 19.66 145.17 20.97Q144.94 22.28 144.34 23.28Q143.74 24.28 142.5 25.52L141.16 24.54Q142.38 23.38 142.91 22.52Q143.44 21.66 143.63 20.47Q143.82 19.28 143.82 16.96L143.82 14.08L150.5 14.08L150.5 22.58Q150.5 23.12 150.64 23.32Q150.78 23.52 151.14 23.52L151.38 23.52Q151.7 23.52 151.8 23.33Q151.9 23.14 151.96 22.5Q152 21.96 152.03 21.16Q152.06 20.36 152.06 19.8L153.56 20.12ZM155.78 24.42Q157.28 23 158.04 21.71Q158.8 20.42 159.1 18.66Q159.4 16.9 159.4 13.96L159.4 7.36L160.96 7.36L160.96 14.04Q160.96 17.22 160.64 19.16Q160.32 21.1 159.48 22.58Q158.64 24.06 157 25.64L155.78 24.42ZM170.42 7.36L171.98 7.36L171.98 25.28L170.42 25.28L170.42 7.36ZM164.8 7.86L166.38 7.86L166.38 24.9L164.8 24.9L164.8 7.86ZM155.28 17.96Q155.78 16.78 156.25 15.1Q156.72 13.42 157.02 11.88L158.44 12.24Q158.1 13.76 157.61 15.56Q157.12 17.36 156.66 18.48L155.28 17.96ZM162.72 11.88Q163.1 13.04 163.57 14.7Q164.04 16.36 164.36 17.66L162.92 18.14Q162.62 16.86 162.17 15.21Q161.72 13.56 161.32 12.34L162.72 11.88ZM168.22 11.94Q169.2 14.9 169.98 17.7L168.5 18.16Q167.86 15.6 166.84 12.4L168.22 11.94Z">
</path>
</g>
<path d="M243.999 23.6179C239.581 23.6179 235.999 20.0359 235.999 15.6179C235.999 11.1999 239.581 7.61792 243.999 7.61792C248.417 7.61792 251.999 11.1999 251.999 15.6179C251.999 20.0359 248.417 23.6179 243.999 23.6179ZM247.136 16.1412L247.163 16.1152L247.634 15.6439L242.47 10.4786C242.463 10.4709 242.455 10.4635 242.447 10.4562C242.439 10.4489 242.43 10.4418 242.422 10.435C242.413 10.4281 242.405 10.4214 242.396 10.415C242.387 10.4085 242.378 10.4023 242.369 10.3963C242.36 10.3903 242.351 10.3845 242.342 10.3789C242.332 10.3733 242.323 10.368 242.313 10.3629C242.303 10.3578 242.294 10.3529 242.284 10.3483C242.274 10.3437 242.264 10.3393 242.254 10.3352C242.244 10.331 242.234 10.3271 242.224 10.3235C242.213 10.3198 242.203 10.3164 242.192 10.3133C242.182 10.3102 242.172 10.3073 242.161 10.3046C242.15 10.302 242.14 10.2996 242.129 10.2975C242.118 10.2954 242.108 10.2936 242.097 10.292C242.086 10.2904 242.075 10.2891 242.065 10.288C242.054 10.287 242.043 10.2862 242.032 10.2856C242.021 10.2851 242.01 10.2848 241.999 10.2848C241.988 10.2848 241.978 10.2851 241.967 10.2856C241.956 10.2862 241.945 10.287 241.934 10.288C241.923 10.2891 241.913 10.2904 241.902 10.292C241.891 10.2936 241.88 10.2954 241.87 10.2975C241.859 10.2996 241.848 10.302 241.838 10.3046C241.827 10.3073 241.817 10.3102 241.806 10.3133C241.796 10.3164 241.785 10.3198 241.775 10.3235C241.765 10.3271 241.755 10.331 241.745 10.3352C241.735 10.3393 241.725 10.3437 241.715 10.3483C241.705 10.3529 241.695 10.3578 241.686 10.3629C241.676 10.368 241.667 10.3733 241.657 10.3789C241.648 10.3845 241.639 10.3903 241.63 10.3963C241.62 10.4023 241.612 10.4085 241.603 10.415C241.594 10.4214 241.585 10.4281 241.577 10.435C241.568 10.4418 241.56 10.4489 241.552 10.4562C241.544 10.4635 241.536 10.4709 241.528 10.4786C241.521 10.4863 241.513 10.4942 241.506 10.5022C241.498 10.5103 241.491 10.5185 241.484 10.527C241.477 10.5354 241.471 10.544 241.464 10.5527C241.458 10.5615 241.451 10.5704 241.445 10.5795C241.439 10.5885 241.433 10.5977 241.428 10.6071C241.422 10.6165 241.417 10.6259 241.411 10.6355C241.406 10.6452 241.401 10.6549 241.397 10.6648C241.392 10.6746 241.387 10.6846 241.383 10.6947C241.379 10.7048 241.375 10.715 241.371 10.7252C241.368 10.7355 241.364 10.7458 241.361 10.7563C241.358 10.7667 241.355 10.7773 241.352 10.7878C241.35 10.7984 241.347 10.8091 241.345 10.8198C241.343 10.8305 241.341 10.8412 241.34 10.852C241.338 10.8628 241.337 10.8737 241.336 10.8845C241.334 10.8954 241.334 10.9063 241.333 10.9172C241.333 10.9281 241.332 10.939 241.332 10.9499C241.332 10.9608 241.333 10.9717 241.333 10.9827C241.334 10.9936 241.334 11.0045 241.336 11.0153C241.337 11.0262 241.338 11.037 241.34 11.0478C241.341 11.0586 241.343 11.0694 241.345 11.0801C241.347 11.0908 241.35 11.1014 241.352 11.112C241.355 11.1226 241.358 11.1331 241.361 11.1435C241.364 11.154 241.368 11.1644 241.371 11.1746C241.375 11.1849 241.379 11.1951 241.383 11.2052C241.387 11.2152 241.392 11.2252 241.397 11.2351C241.401 11.2449 241.406 11.2547 241.411 11.2643C241.417 11.2739 241.422 11.2834 241.428 11.2927C241.433 11.3021 241.439 11.3113 241.445 11.3204C241.451 11.3294 241.458 11.3383 241.464 11.3471C241.471 11.3559 241.477 11.3644 241.484 11.3729C241.491 11.3813 241.498 11.3895 241.506 11.3976C241.513 11.4057 241.521 11.4135 241.528 11.4212L245.748 15.6426L241.528 19.8606C241.521 19.8683 241.513 19.8762 241.506 19.8842C241.498 19.8923 241.491 19.9005 241.484 19.9089C241.477 19.9173 241.471 19.9259 241.464 19.9347C241.458 19.9434 241.451 19.9523 241.445 19.9614C241.439 19.9704 241.433 19.9796 241.428 19.989C241.422 19.9983 241.417 20.0078 241.411 20.0174C241.406 20.027 241.401 20.0368 241.397 20.0466C241.392 20.0565 241.388 20.0664 241.383 20.0765C241.379 20.0866 241.375 20.0968 241.372 20.107C241.368 20.1173 241.364 20.1276 241.361 20.1381C241.358 20.1485 241.355 20.159 241.352 20.1696C241.35 20.1802 241.347 20.1908 241.345 20.2015C241.343 20.2122 241.341 20.223 241.34 20.2338C241.338 20.2446 241.337 20.2554 241.336 20.2662C241.335 20.2771 241.334 20.288 241.333 20.2989C241.333 20.3098 241.332 20.3207 241.332 20.3316C241.332 20.3425 241.333 20.3534 241.333 20.3643C241.334 20.3752 241.335 20.3861 241.336 20.3969C241.337 20.4078 241.338 20.4186 241.34 20.4294C241.341 20.4402 241.343 20.4509 241.345 20.4616C241.347 20.4723 241.35 20.483 241.352 20.4936C241.355 20.5041 241.358 20.5147 241.361 20.5251C241.364 20.5355 241.368 20.5459 241.372 20.5561C241.375 20.5664 241.379 20.5766 241.383 20.5867C241.388 20.5967 241.392 20.6067 241.397 20.6165C241.401 20.6264 241.406 20.6361 241.411 20.6457C241.417 20.6554 241.422 20.6648 241.428 20.6742C241.433 20.6835 241.439 20.6927 241.445 20.7018C241.451 20.7108 241.458 20.7197 241.464 20.7285C241.471 20.7372 241.477 20.7458 241.484 20.7542C241.491 20.7627 241.498 20.7709 241.506 20.779C241.513 20.787 241.521 20.7949 241.528 20.8026C241.788 21.0626 242.214 21.0599 242.47 20.8032L247.136 16.1412Z"   fill="#A18150" >
</path>
</svg>
