<svg xmlns="http://www.w3.org/2000/svg" xmlns:xlink="http://www.w3.org/1999/xlink" width="393" height="78" viewBox="0 0 393 78" fill="none">
<rect  x="0" y="0" width="393.0000305175781" height="77.99998474121094" rx="20"   style="mix-blend-mode:normal" fill="#FFFFFF" >
</rect>
<rect  x="16.76806640625" y="40.5" width="37.44" height="3" rx="1.5"   style="mix-blend-mode:normal" fill="#A62B1F" >
</rect>
<g >
<path    style="mix-blend-mode:normal" fill="#333333"  d="M92.164 23.896Q91.576 24.75 90.526 25.87Q89.476 26.99 88.538 27.788L87.572 26.388Q88.468 25.632 89.441 24.624Q90.414 23.616 90.876 22.902L92.164 23.896ZM100.704 28.922L98.954 28.922L98.954 29.944L100.452 29.944L100.452 31.526L98.954 31.526L98.954 34.13Q98.954 34.858 98.765 35.243Q98.576 35.628 98.128 35.782Q97.68 35.936 96.854 35.95Q96.182 35.95 95.426 35.866L95.118 34.298Q95.468 34.34 95.832 34.375Q96.196 34.41 96.588 34.41Q96.994 34.41 97.134 34.235Q97.274 34.06 97.274 33.584L97.274 31.526L93.83 31.526L95.09 32.814Q95.412 33.136 95.538 33.276L94.348 34.48Q93.578 33.612 92.486 32.478L93.508 31.526L92.178 31.526L92.178 29.944L97.274 29.944L97.274 28.922L91.884 28.922L91.884 27.62Q91.548 28.18 90.96 29.006L90.96 35.908L89.378 35.908L89.378 30.938Q88.79 31.596 88.174 32.142L87.53 30.434Q88.258 29.804 89.21 28.642Q90.162 27.48 90.666 26.598L91.884 27.354L91.884 27.312L95.384 27.312L95.384 26.15L92.654 26.15L92.654 24.554L95.384 24.554L95.384 23.042L97.036 23.042L97.036 24.554L99.99 24.554L99.99 26.15L97.036 26.15L97.036 27.312L100.704 27.312L100.704 28.922ZM106.304 23.406Q105.688 25.17 105.198 26.276L105.198 35.922L103.462 35.922L103.462 29.454Q103.014 30.14 102.216 31.134L101.446 29.23Q102.286 28.18 103.154 26.472Q104.022 24.764 104.568 23.042L106.304 23.406ZM114.592 25.66L114.592 27.396L112.87 27.396L112.87 33.864Q112.87 34.956 112.394 35.418Q111.918 35.88 110.798 35.894Q109.734 35.894 108.964 35.824L108.6 34.046Q109.636 34.186 110.168 34.186Q110.742 34.186 110.924 34.018Q111.106 33.85 111.106 33.332L111.106 27.396L105.954 27.396L105.954 25.66L111.106 25.66L111.106 23.098L112.87 23.098L112.87 25.66L114.592 25.66ZM107.62 28.04Q108.138 28.768 108.831 29.783Q109.524 30.798 109.888 31.372L108.46 32.366Q107.872 31.4 106.626 29.608L106.22 28.992L107.62 28.04ZM122.026 28.376Q123.202 26.108 123.776 23.056L125.33 23.364Q125.162 24.134 124.952 25.002L128.536 25.002L128.536 26.528Q128.396 27.242 127.808 29.104L126.268 28.796Q126.338 28.628 126.394 28.376Q126.73 27.382 126.954 26.584L124.49 26.584Q124.126 27.676 123.426 29.146L122.026 28.376ZM116.258 26.346L118.442 26.346L118.442 25.548L115.838 25.548L115.838 24.106L118.442 24.106L118.442 23.154L119.996 23.154L119.996 24.106L122.572 24.106L122.572 25.548L119.996 25.548L119.996 26.346L122.11 26.346L122.11 27.676L116.258 27.676L116.258 26.346ZM125.918 28.6Q126.016 30.588 126.73 32.03Q127.444 33.472 128.872 34.606L127.752 36.146Q125.988 34.48 125.232 32.38Q124.854 33.36 124.252 34.27Q123.65 35.18 122.768 36.132L121.522 34.928L121.578 34.872Q121.004 33.78 120.36 32.772L121.564 32.086Q121.914 32.604 122.586 33.724Q123.496 32.576 123.888 31.414Q124.28 30.252 124.35 28.558Q124.364 28.404 124.364 28.096L124.35 27.2L125.932 27.2Q125.932 28.152 125.918 28.572L125.918 28.6ZM121.956 28.39L121.956 29.748L116.426 29.748L116.426 28.39L121.956 28.39ZM122.642 31.848L120.136 31.848L120.136 34.354Q120.136 35.306 119.807 35.663Q119.478 36.02 118.638 36.02Q118.106 36.02 117.588 35.978L117.308 34.564Q116.958 35.334 116.776 35.642L115.488 34.928Q116.272 33.556 116.706 32.128L118.064 32.604Q117.77 33.486 117.35 34.452Q117.728 34.536 118.092 34.536Q118.4 34.536 118.512 34.375Q118.624 34.214 118.624 33.808L118.624 31.848L115.768 31.848L115.768 30.42L122.642 30.42L122.642 31.848Z">
</path>
</g>
<g >
<path    style="mix-blend-mode:normal" fill="#A62B1F"  d="M27.152 30.826L27.152 33.148L33.596 33.148L33.596 35.2L18.404 35.2L18.404 33.148L24.848 33.148L24.848 30.826L19.988 30.826L19.988 28.738L24.848 28.738L24.848 26.812L20.672 26.812L20.672 25.552Q19.556 26.2 18.566 26.722L17.504 24.67Q20.348 23.302 22.148 21.943Q23.948 20.584 25.154 18.82L26.846 18.82Q28.034 20.584 29.915 22.006Q31.796 23.428 34.478 24.706L33.362 26.686Q32.354 26.182 31.382 25.624L31.382 26.812L27.152 26.812L27.152 28.738L32.012 28.738L32.012 30.826L27.152 30.826ZM26.018 21.394Q24.614 23.032 21.986 24.742L29.978 24.742Q27.548 23.122 26.018 21.394ZM43.64 22.744Q43.514 23.86 43.28 25.156L45.044 25.156L45.044 27.136L35.666 27.136L35.666 25.156L37.754 25.156Q37.592 23.68 37.394 22.744L36.17 22.744L36.17 20.746L39.356 20.746Q39.212 19.972 38.96 19.162L41.246 18.82Q41.498 19.81 41.696 20.746L44.702 20.746L44.702 22.744L43.64 22.744ZM50.606 26.056Q51.56 27.352 51.938 28.324Q52.316 29.296 52.316 30.412Q52.316 32.14 51.686 32.869Q51.056 33.598 49.58 33.598Q49.094 33.598 48.338 33.526L47.924 31.51Q48.554 31.618 49.256 31.618Q49.778 31.6 50.012 31.249Q50.246 30.898 50.246 30.07Q50.246 29.26 49.823 28.396Q49.4 27.532 48.464 26.488L49.94 21.934L47.708 21.934L47.708 35.686L45.62 35.686L45.62 19.81L52.118 19.81L52.118 21.97L50.606 26.056ZM39.428 22.744L39.788 25.156L41.3 25.156Q41.57 23.662 41.678 22.744L39.428 22.744ZM44.27 35.02L36.656 35.02L36.656 28.432L44.27 28.432L44.27 35.02ZM42.254 30.448L38.672 30.448L38.672 32.986L42.254 32.986L42.254 30.448Z">
</path>
</g>
<g >
<path    style="mix-blend-mode:normal" fill="#333333"  d="M172.874 29.776Q174.708 32.072 177.774 33.696L176.738 35.25Q173.868 33.486 172.006 30.868L172.006 35.95L170.424 35.95L170.424 30.91Q169.542 32.212 168.45 33.22Q167.358 34.228 165.678 35.222L164.628 33.696Q166.322 32.828 167.491 31.883Q168.66 30.938 169.556 29.776L165.244 29.776L165.244 28.166L170.424 28.166L170.424 26.416L166.14 26.416L166.14 24.792L170.424 24.792L170.424 23.056L172.006 23.056L172.006 24.792L176.276 24.792L176.276 26.416L172.006 26.416L172.006 28.166L177.172 28.166L177.172 29.776L172.874 29.776ZM189.142 33.738L189.142 30.238L190.864 30.238L190.864 35.95L189.142 35.95L189.142 35.404L179.594 35.404L179.594 30.266L181.316 30.266L181.316 33.738L184.382 33.738L184.382 29.342L179.986 29.342L179.986 24.204L181.68 24.204L181.68 27.676L184.382 27.676L184.382 23.042L186.062 23.042L186.062 27.676L188.75 27.676L188.75 24.204L190.444 24.204L190.444 29.342L186.062 29.342L186.062 33.738L189.142 33.738ZM192.768 26.192Q193.566 25.646 194.539 24.701Q195.512 23.756 196.17 22.93L197.472 24.064Q196.758 24.946 195.694 25.982Q194.63 27.018 193.678 27.746L192.768 26.192ZM198.396 23.714L205.074 23.714L205.074 25.352L198.396 25.352L198.396 23.714ZM197.458 27.494Q196.968 28.25 196.198 29.174L196.198 35.936L194.504 35.936L194.504 31.022Q193.776 31.75 193.286 32.17L192.558 30.56Q193.524 29.706 194.511 28.593Q195.498 27.48 196.156 26.5L197.458 27.494ZM205.62 27.69L205.62 29.328L203.548 29.328L203.548 33.794Q203.548 34.886 203.072 35.355Q202.596 35.824 201.49 35.852Q200.538 35.866 199.572 35.768L199.222 34.06Q200.244 34.2 201.07 34.2Q201.49 34.2 201.637 34.011Q201.784 33.822 201.784 33.318L201.784 29.328L197.822 29.328L197.822 27.69L205.62 27.69Z">
</path>
</g>
<g >
<path    style="mix-blend-mode:normal" fill="#333333"  d="M242.288 26.626Q241.854 26.122 241.154 25.359Q240.454 24.596 240.076 24.246L241.21 23.07Q241.672 23.476 242.386 24.204Q243.1 24.932 243.534 25.422L242.288 26.626ZM246.278 34.004Q247.692 34.06 249.456 34.06Q251.22 34.06 252.62 34.004L252.27 35.586Q250.982 35.656 249.162 35.656Q247.356 35.656 246.054 35.586Q244.584 35.516 243.709 35.152Q242.834 34.788 242.106 33.906L240.622 35.838L239.53 34.312L241.294 32.408L241.294 29.174L239.74 29.174L239.74 27.55L242.89 27.55L242.89 32.506Q243.576 33.346 244.416 33.668L243.884 32.45Q244.108 32.268 244.185 32.107Q244.262 31.946 244.262 31.764L244.262 23.448L251.374 23.448L251.374 29.076L251.598 28.922L252.396 30Q251.234 30.756 250.38 31.246L252.284 32.534L251.472 33.738L249.974 32.674Q248.014 31.26 246.698 30.42L247.356 29.398L245.802 29.398L245.802 31.918Q246.922 31.568 247.846 31.26L248.154 32.758Q246.656 33.15 245.326 33.584L244.738 33.78Q245.368 33.962 246.278 34.004ZM249.862 25.786L249.862 24.848L245.802 24.848L245.802 25.786L249.862 25.786ZM245.802 27.088L245.802 27.998L249.862 27.998L249.862 27.088L245.802 27.088ZM249.246 30.49Q250.114 29.958 250.926 29.398L247.566 29.398Q248.294 29.832 249.246 30.49ZM260.026 28.376Q261.202 26.108 261.776 23.056L263.33 23.364Q263.162 24.134 262.952 25.002L266.536 25.002L266.536 26.528Q266.396 27.242 265.808 29.104L264.268 28.796Q264.338 28.628 264.394 28.376Q264.73 27.382 264.954 26.584L262.49 26.584Q262.126 27.676 261.426 29.146L260.026 28.376ZM254.258 26.346L256.442 26.346L256.442 25.548L253.838 25.548L253.838 24.106L256.442 24.106L256.442 23.154L257.996 23.154L257.996 24.106L260.572 24.106L260.572 25.548L257.996 25.548L257.996 26.346L260.11 26.346L260.11 27.676L254.258 27.676L254.258 26.346ZM263.918 28.6Q264.016 30.588 264.73 32.03Q265.444 33.472 266.872 34.606L265.752 36.146Q263.988 34.48 263.232 32.38Q262.854 33.36 262.252 34.27Q261.65 35.18 260.768 36.132L259.522 34.928L259.578 34.872Q259.004 33.78 258.36 32.772L259.564 32.086Q259.914 32.604 260.586 33.724Q261.496 32.576 261.888 31.414Q262.28 30.252 262.35 28.558Q262.364 28.404 262.364 28.096L262.35 27.2L263.932 27.2Q263.932 28.152 263.918 28.572L263.918 28.6ZM259.956 28.39L259.956 29.748L254.426 29.748L254.426 28.39L259.956 28.39ZM260.642 31.848L258.136 31.848L258.136 34.354Q258.136 35.306 257.807 35.663Q257.478 36.02 256.638 36.02Q256.106 36.02 255.588 35.978L255.308 34.564Q254.958 35.334 254.776 35.642L253.488 34.928Q254.272 33.556 254.706 32.128L256.064 32.604Q255.77 33.486 255.35 34.452Q255.728 34.536 256.092 34.536Q256.4 34.536 256.512 34.375Q256.624 34.214 256.624 33.808L256.624 31.848L253.768 31.848L253.768 30.42L260.642 30.42L260.642 31.848ZM267.362 34.788L271.198 24.54L273.074 24.54L269.238 34.788L267.362 34.788ZM281.88 29.636L286.206 29.636L286.206 30.896L275.272 30.896L275.272 27.508Q274.838 28.012 274.376 28.446L273.508 26.92Q274.222 26.36 275.034 25.177Q275.846 23.994 276.364 22.874L278.058 23.21Q277.68 23.98 277.526 24.232L280.144 24.232Q279.864 23.602 279.696 23.294L281.222 22.804L281.936 24.232L285.912 24.232L285.912 25.492L281.88 25.492L281.88 26.136L285.59 26.136L285.59 27.242L281.88 27.242L281.88 27.9L285.59 27.9L285.59 29.006L281.88 29.006L281.88 29.636ZM276.91 26.136L280.242 26.136L280.242 25.492L276.91 25.492L276.91 26.136ZM276.91 27.9L280.242 27.9L280.242 27.242L276.91 27.242L276.91 27.9ZM280.242 29.006L276.91 29.006L276.91 29.636L280.242 29.636L280.242 29.006ZM276.896 35.95L275.202 35.95L275.202 31.596L285.366 31.596L285.366 35.95L283.7 35.95L283.7 35.348L276.896 35.348L276.896 35.95ZM283.7 34.046L283.7 32.94L276.896 32.94L276.896 34.046L283.7 34.046ZM290.882 26.892L300.514 26.892L300.514 28.446L290.882 28.446Q290.868 30.084 290.707 31.26Q290.546 32.436 290.154 33.507Q289.762 34.578 289.048 35.782L287.564 34.732Q288.306 33.584 288.663 32.639Q289.02 31.694 289.153 30.56Q289.286 29.426 289.286 27.564L289.286 23.966Q291.708 23.924 294.431 23.714Q297.154 23.504 299.436 23.168L299.842 24.862Q296.678 25.282 290.882 25.576L290.882 26.892ZM293.038 35.866L291.47 35.866L291.47 29.846L299.506 29.846L299.506 35.866L297.854 35.866L297.854 35.096L293.038 35.096L293.038 35.866ZM297.854 33.556L297.854 31.386L293.038 31.386L293.038 33.556L297.854 33.556Z">
</path>
</g>
<g >
<path    style="mix-blend-mode:normal" fill="#333333"  d="M339.164 23.896Q338.576 24.75 337.526 25.87Q336.476 26.99 335.538 27.788L334.572 26.388Q335.468 25.632 336.441 24.624Q337.414 23.616 337.876 22.902L339.164 23.896ZM347.704 28.922L345.954 28.922L345.954 29.944L347.452 29.944L347.452 31.526L345.954 31.526L345.954 34.13Q345.954 34.858 345.765 35.243Q345.576 35.628 345.128 35.782Q344.68 35.936 343.854 35.95Q343.182 35.95 342.426 35.866L342.118 34.298Q342.468 34.34 342.832 34.375Q343.196 34.41 343.588 34.41Q343.994 34.41 344.134 34.235Q344.274 34.06 344.274 33.584L344.274 31.526L340.83 31.526L342.09 32.814Q342.412 33.136 342.538 33.276L341.348 34.48Q340.578 33.612 339.486 32.478L340.508 31.526L339.178 31.526L339.178 29.944L344.274 29.944L344.274 28.922L338.884 28.922L338.884 27.62Q338.548 28.18 337.96 29.006L337.96 35.908L336.378 35.908L336.378 30.938Q335.79 31.596 335.174 32.142L334.53 30.434Q335.258 29.804 336.21 28.642Q337.162 27.48 337.666 26.598L338.884 27.354L338.884 27.312L342.384 27.312L342.384 26.15L339.654 26.15L339.654 24.554L342.384 24.554L342.384 23.042L344.036 23.042L344.036 24.554L346.99 24.554L346.99 26.15L344.036 26.15L344.036 27.312L347.704 27.312L347.704 28.922ZM355.698 26.85L360.234 26.85L360.234 31.862L350.182 31.862L350.182 26.85L353.934 26.85L353.934 23.098L355.698 23.098L355.698 24.12L361.242 24.12L361.242 25.8L355.698 25.8L355.698 26.85ZM351.876 30.238L358.54 30.238L358.54 28.53L351.876 28.53L351.876 30.238ZM360.094 32.184Q360.458 32.772 360.92 33.633Q361.382 34.494 361.704 35.194L360.248 35.95Q359.744 34.858 358.554 32.772L360.094 32.184ZM348.726 35.39Q349.16 34.648 349.545 33.78Q349.93 32.912 350.098 32.282L351.68 32.66Q351.456 33.444 351.071 34.389Q350.686 35.334 350.322 36.076L348.726 35.39ZM357.014 32.422Q357.28 33.038 357.595 33.892Q357.91 34.746 358.078 35.32L356.496 35.74Q356.342 35.152 356.055 34.347Q355.768 33.542 355.502 32.898L357.014 32.422ZM354.102 32.646Q354.27 33.234 354.466 34.123Q354.662 35.012 354.76 35.6L353.08 35.922Q352.996 35.236 352.842 34.417Q352.688 33.598 352.52 32.954L354.102 32.646ZM365.134 26.584Q364.868 26.122 364.252 25.324Q363.636 24.526 363.202 24.078L364.532 23.07Q364.924 23.518 365.533 24.274Q366.142 25.03 366.492 25.52L365.134 26.584ZM371.952 29.888L375.606 29.888L375.606 31.54L371.952 31.54L371.952 35.964L370.272 35.964L370.272 31.54L366.674 31.54L366.674 29.888L370.272 29.888L370.272 25.254L367.122 25.254L367.122 23.616L375.088 23.616L375.088 25.254L371.952 25.254L371.952 29.888ZM372.4 28.726Q372.82 28.082 373.254 27.214Q373.688 26.346 373.926 25.702L375.298 26.276Q375.06 26.864 374.591 27.816Q374.122 28.768 373.758 29.384L372.4 28.726ZM368.298 25.744Q368.592 26.262 369.075 27.207Q369.558 28.152 369.852 28.796L368.466 29.468Q368.214 28.838 367.773 27.949Q367.332 27.06 366.954 26.402L368.298 25.744ZM365.764 32.926L366.828 32.016L367.57 33.416Q366.38 34.41 365.582 35.124L364.924 35.712L363.86 34.424Q364.014 34.228 364.063 34.018Q364.112 33.808 364.112 33.472L364.112 28.992L362.74 28.992L362.74 27.312L365.764 27.312L365.764 32.926Z">
</path>
</g>
</svg>
