<svg xmlns="http://www.w3.org/2000/svg" xmlns:xlink="http://www.w3.org/1999/xlink" width="360" height="32" viewBox="0 0 360 32" fill="none">
<path     fill="#E5E5E5" fill-opacity="0.64" d="M0 16L0 16C0 7.16344 7.16344 0 16 0L243 0C251.837 0 259 7.16344 259 16L259 16C259 24.8366 251.837 32 243 32L16 32C7.16344 32 0 24.8366 0 16Z">
</path>
<rect x="13" y="9" width="14" height="14"   fill="#E7E6E6" fill-opacity="0">
</rect>
<circle cx="20" cy="16" r="6" stroke="rgba(128, 128, 128, 1)" stroke-width="1.5"   >
</circle>
<path   fill-rule="evenodd"  fill="#808080"  d="M24.4241 20.4243C24.6582 20.1902 25.0386 20.1902 25.2727 20.4243L27.2526 22.4042C27.4866 22.6382 27.4866 23.0186 27.2526 23.2527L27.2526 23.2527C27.0185 23.4867 26.6381 23.4867 26.404 23.2527L24.4241 21.2728C24.1901 21.0387 24.1901 20.6583 24.4241 20.4243L24.4241 20.4243Z">
</path>
<g >
<path     fill="#808080"  d="M40.849 18.522L39.718 18.704L39.718 21.434L38.795 21.434L38.795 18.86Q37.547 19.081 36.65 19.263L36.533 18.236Q37.17 18.158 38.119 17.989Q38.379 17.963 38.795 17.885L38.795 16.117L36.897 16.117L36.897 15.142Q37.352 13.868 37.807 12.126L36.676 12.126L36.676 11.19L38.041 11.19Q38.275 10.228 38.418 9.435L39.328 9.63Q39.185 10.319 38.951 11.19L41.083 11.19L41.083 12.126L38.717 12.126Q38.249 13.907 37.82 15.207L38.795 15.207L38.795 13.4L39.718 13.4L39.718 15.207L40.771 15.207L40.771 16.117L39.718 16.117L39.718 17.716Q39.913 17.69 40.095 17.6575Q40.277 17.625 40.446 17.599L40.784 17.534L40.849 18.522ZM45.074 9.591Q45.672 10.566 46.5755 11.411Q47.479 12.256 48.532 12.854L48.077 13.777Q47.245 13.283 46.452 12.594L46.452 13.387L42.565 13.387L42.565 12.776Q41.889 13.335 41.135 13.842L40.602 12.945Q41.746 12.23 42.591 11.411Q43.436 10.592 44.06 9.591L45.074 9.591ZM46.4 12.555Q45.295 11.593 44.593 10.501Q43.865 11.606 42.812 12.555L46.4 12.555ZM46.946 13.998L47.791 13.998L47.791 19.978Q47.791 20.719 47.5245 21.018Q47.258 21.317 46.556 21.317Q45.984 21.317 45.36 21.239L45.191 20.355Q45.893 20.459 46.439 20.459Q46.712 20.459 46.829 20.2705Q46.946 20.082 46.946 19.679L46.946 13.998ZM41.317 21.317L41.317 14.232L44.476 14.232L44.476 20.173Q44.476 20.784 44.2745 21.031Q44.073 21.278 43.592 21.278Q43.306 21.278 42.734 21.226L42.565 20.394Q42.656 20.407 42.877 20.4395Q43.098 20.472 43.306 20.472Q43.514 20.472 43.5985 20.3485Q43.683 20.225 43.683 19.939L43.683 18.847L42.123 18.847L42.123 21.317L41.317 21.317ZM45.373 19.159L45.373 14.414L46.179 14.414L46.179 19.159L45.373 19.159ZM43.683 16.156L43.683 15.025L42.123 15.025L42.123 16.156L43.683 16.156ZM42.123 16.936L42.123 18.054L43.683 18.054L43.683 16.936L42.123 16.936ZM56.02 11.372Q56.332 14.206 57.6255 16.3835Q58.919 18.561 61.454 20.277L60.739 21.187Q58.62 19.627 57.3525 17.885Q56.085 16.143 55.5 13.79Q54.369 17.859 50.209 21.213L49.416 20.329Q52.133 18.301 53.433 16.0845Q54.733 13.868 55.019 11.515Q54.889 11.32 54.6225 11.2355Q54.356 11.151 53.901 11.151L52.055 11.151L52.055 10.059L54.304 10.059Q55.136 10.059 55.5455 10.358Q55.955 10.657 56.02 11.372ZM65.848 14.349Q66.576 13.348 67.2325 12.048Q67.889 10.748 68.24 9.539L69.28 9.747Q69.059 10.462 68.708 11.268L74.077 11.268L74.077 12.256L72.985 14.44L72.01 14.089L72.946 12.256L68.266 12.256Q67.603 13.621 66.732 14.921L65.848 14.349ZM66.108 9.89Q65.614 11.476 65.094 12.607L65.094 21.356L64.08 21.356L64.08 14.583Q63.638 15.337 62.962 16.247L62.403 15.324Q63.157 14.271 63.8915 12.724Q64.626 11.177 65.055 9.63L66.108 9.89ZM69.709 13.296L70.723 13.296L70.723 19.861Q70.723 20.602 70.411 20.9335Q70.099 21.265 69.358 21.265Q68.617 21.265 67.967 21.174L67.759 20.147Q68.292 20.238 68.968 20.277Q69.371 20.303 69.54 20.108Q69.709 19.913 69.709 19.484L69.709 13.296ZM72.556 14.999Q73.349 16.962 74.428 19.783L73.466 20.147L73.167 19.354Q72.062 16.442 71.633 15.35L72.556 14.999ZM68.435 15.402Q68.149 16.507 67.6615 17.8135Q67.174 19.12 66.706 20.108L65.718 19.77Q66.173 18.925 66.6735 17.625Q67.174 16.325 67.486 15.168L68.435 15.402ZM79.862 14.973Q79.329 14.427 78.692 13.842L78.692 16.806L77.678 16.806L77.678 13.517Q77.002 14.791 75.858 16.13L75.416 15.207Q76.625 13.92 77.509 12.204L75.884 12.204L75.884 11.268L77.678 11.268L77.678 9.565L78.692 9.565L78.692 11.268L80.278 11.268L80.278 12.204L78.692 12.204L78.692 12.763Q79.745 13.582 80.46 14.271L79.862 14.973ZM80.824 10.124L86.427 10.124L86.427 16.65L80.824 16.65L80.824 10.124ZM85.4 12.048L85.4 10.969L81.838 10.969L81.838 12.048L85.4 12.048ZM85.4 13.907L85.4 12.841L81.838 12.841L81.838 13.907L85.4 13.907ZM81.838 14.726L81.838 15.818L85.4 15.818L85.4 14.726L81.838 14.726ZM82.15 19.25Q81.916 18.899 81.5 18.327Q81.084 17.755 80.798 17.417L81.565 16.832Q81.812 17.118 82.254 17.69Q82.696 18.262 82.943 18.626L82.15 19.25ZM85.595 17.339Q86.011 17.924 86.544 18.769Q87.077 19.614 87.415 20.225L86.518 20.771Q86.154 20.121 85.634 19.263Q85.114 18.405 84.737 17.859L85.595 17.339ZM75.663 20.407Q76.066 19.796 76.456 18.9705Q76.846 18.145 77.093 17.404L78.055 17.781Q77.782 18.561 77.3725 19.406Q76.963 20.251 76.56 20.875L75.663 20.407ZM83.515 19.51Q83.541 19.263 83.58 18.444L84.594 18.691Q84.555 19.328 84.477 19.978Q84.412 20.472 84.2755 20.719Q84.139 20.966 83.853 21.07Q83.567 21.174 82.995 21.213Q82.371 21.265 81.578 21.265Q80.798 21.265 80.161 21.213Q79.602 21.174 79.303 21.044Q79.004 20.914 78.887 20.641Q78.77 20.368 78.77 19.874L78.77 17.443L79.797 17.443L79.797 19.484Q79.797 19.796 79.849 19.9455Q79.901 20.095 80.044 20.16Q80.187 20.225 80.499 20.251Q81.227 20.303 81.578 20.303Q81.955 20.303 82.657 20.251Q83.008 20.212 83.177 20.1535Q83.346 20.095 83.4175 19.952Q83.489 19.809 83.515 19.51ZM100.376 17.95Q100.194 19.068 100.012 19.731Q99.804 20.563 99.4465 20.9335Q99.089 21.304 98.53 21.304Q97.997 21.304 97.542 20.979Q97.087 20.654 96.606 19.9Q96.268 19.341 95.956 18.561Q94.578 19.523 92.979 20.225L92.433 19.263Q94.214 18.509 95.631 17.521Q95.241 16.091 95.033 13.985L93.057 14.232L92.927 13.257L94.929 12.997L94.864 12.113Q94.747 10.579 94.721 10.033L94.695 9.591L95.696 9.552Q95.735 10.566 95.865 12.204L95.917 12.88L100.077 12.347L100.194 13.335L96.021 13.855Q96.203 15.545 96.515 16.819Q97.815 15.74 98.907 14.115L99.739 14.7Q98.413 16.585 96.827 17.898Q97.113 18.73 97.542 19.419Q98.049 20.186 98.517 20.186Q98.764 20.186 98.9005 19.991Q99.037 19.796 99.167 19.211Q99.414 18.145 99.479 17.599L100.376 17.95ZM93.044 15.857L91.549 16.377L91.549 19.783Q91.549 20.407 91.432 20.719Q91.315 21.031 91.0095 21.148Q90.704 21.265 90.093 21.265Q89.482 21.265 89.001 21.213L88.78 20.173Q89.274 20.251 89.768 20.251Q90.223 20.251 90.3725 20.095Q90.522 19.939 90.522 19.432L90.522 16.728Q89.183 17.144 88.663 17.3L88.442 16.299Q89.677 15.935 90.522 15.662L90.522 12.958L88.754 12.958L88.754 11.983L90.522 11.983L90.522 9.617L91.549 9.617L91.549 11.983L92.966 11.983L92.966 12.958L91.549 12.958L91.549 15.324L92.992 14.843L93.044 15.857ZM98.517 12.23Q97.399 11.138 96.541 10.462L97.152 9.799Q98.023 10.475 99.141 11.541L98.517 12.23ZM112.973 11.489L112.973 12.035Q112.973 13.673 112.889 15.87Q112.804 18.067 112.687 19.484Q112.635 20.121 112.453 20.4655Q112.271 20.81 111.926 20.953Q111.582 21.096 110.997 21.122Q110.854 21.135 110.581 21.135Q110.36 21.135 110.08 21.122Q109.801 21.109 109.645 21.096L109.294 21.07L109.112 19.991Q110.048 20.108 110.568 20.108Q110.971 20.108 111.186 20.0235Q111.4 19.939 111.523 19.6985Q111.647 19.458 111.699 18.951Q111.894 16.741 111.894 13.491L111.894 12.49L108.67 12.49Q108.228 13.595 107.825 14.427L106.915 13.829Q107.422 12.854 107.864 11.6515Q108.306 10.449 108.566 9.37L109.606 9.578Q109.333 10.631 109.034 11.489L112.973 11.489ZM105.212 9.656Q105.03 10.514 104.718 11.606L106.551 11.606L106.551 20.875L102.17 20.875L102.17 11.606L103.574 11.606Q103.886 10.683 104.12 9.461L105.212 9.656ZM103.184 15.207L105.524 15.207L105.524 12.62L103.184 12.62L103.184 15.207ZM109.931 17.989Q109.515 17.339 108.917 16.52Q108.319 15.701 107.903 15.22L108.683 14.609Q109.112 15.103 109.703 15.883Q110.295 16.663 110.737 17.3L109.931 17.989ZM103.184 16.208L103.184 19.848L105.524 19.848L105.524 16.208L103.184 16.208ZM117.276 12.932Q116.86 12.321 116.275 11.5215Q115.69 10.722 115.339 10.28L116.21 9.63Q116.561 10.059 117.146 10.852Q117.731 11.645 118.147 12.23L117.276 12.932ZM126.506 10.475L126.506 11.515L123.906 11.515L123.906 19.458Q123.906 20.381 123.522 20.7775Q123.139 21.174 122.203 21.187Q121.371 21.213 120.526 21.109L120.305 20.03Q121.111 20.147 121.904 20.147Q122.398 20.147 122.593 19.913Q122.788 19.679 122.788 19.133L122.788 11.515L119.057 11.515L119.057 10.475L126.506 10.475ZM117.458 18.951L119.343 17.56L119.733 18.704L119.33 18.964Q119.2 19.042 118.531 19.4905Q117.861 19.939 117.367 20.342Q116.925 20.68 116.652 20.953L115.976 20.069Q116.197 19.861 116.282 19.705Q116.366 19.549 116.366 19.328L116.366 14.856L114.546 14.856L114.546 13.751L117.458 13.751L117.458 18.951ZM139.246 18.197L139.246 19.185L134.02 19.185L134.02 21.421L132.98 21.421L132.98 19.185L127.754 19.185L127.754 18.197L132.98 18.197L132.98 16.858L128.963 16.858L128.963 11.372L131.498 11.372Q130.77 10.41 130.367 9.981L131.186 9.461Q131.563 9.851 132.421 11.008L131.862 11.372L134.41 11.372Q134.878 10.787 135.749 9.461L136.698 9.877L136.451 10.241Q136.321 10.436 136.12 10.722Q135.918 11.008 135.645 11.372L138.037 11.372L138.037 16.858L134.02 16.858L134.02 18.197L139.246 18.197ZM132.98 13.66L132.98 12.308L129.99 12.308L129.99 13.66L132.98 13.66ZM134.02 13.66L137.01 13.66L137.01 12.308L134.02 12.308L134.02 13.66ZM129.99 14.583L129.99 15.948L132.98 15.948L132.98 14.583L129.99 14.583ZM134.02 14.583L134.02 15.948L137.01 15.948L137.01 14.583L134.02 14.583Z">
</path>
</g>
<path d="M293.494 7.56564L286.5 16.6453L286.5 21.9266C286.5 22.0484 286.444 22.1703 286.369 22.2516L284.119 24.2422C283.875 24.4656 283.5 24.2625 283.5 23.9172L283.5 16.6453L276.506 7.56564C276.3 7.30157 276.469 6.89532 276.787 6.89532L293.194 6.89532C293.512 6.89532 293.7 7.30157 293.494 7.56564Z"   fill="#A62B1F" >
</path>
<g >
<path     fill="#000000"  d="M302.028 11.142L299.97 11.142L300.46 12.024L299.536 12.374Q299.312 11.926 298.864 11.142L297.94 11.142Q297.338 11.996 296.512 12.892L295.644 12.276Q296.372 11.562 297.065 10.596Q297.758 9.63 298.122 8.888L299.144 9.126Q298.99 9.49 298.598 10.162L302.028 10.162L302.028 11.142ZM308.258 10.162L308.258 11.142L305.794 11.142Q305.934 11.338 306.382 12.01L305.542 12.458Q304.982 11.562 304.688 11.142L303.582 11.142Q303.274 11.716 302.7 12.584L301.72 12.206Q302.84 10.638 303.554 8.888L304.548 9.126Q304.296 9.728 304.086 10.162L308.258 10.162ZM298.808 12.906L299.788 12.906L299.788 16.168Q299.788 17.764 299.557 18.737Q299.326 19.71 298.759 20.438Q298.192 21.166 297.086 21.964L296.218 21.25Q297.324 20.494 297.863 19.85Q298.402 19.206 298.605 18.38Q298.808 17.554 298.808 16.168L298.808 12.906ZM300.502 14.068L300.502 13.116L308.062 13.116L308.062 14.068L304.632 14.068L304.632 15.538L307.39 15.538L307.39 19.024Q307.39 19.612 307.257 19.913Q307.124 20.214 306.809 20.333Q306.494 20.452 305.92 20.452Q305.598 20.452 305.234 20.41L305.024 19.43Q305.528 19.514 305.78 19.514Q306.144 19.514 306.277 19.346Q306.41 19.178 306.41 18.716L306.41 16.476L304.632 16.476L304.632 21.838L303.638 21.838L303.638 16.476L301.874 16.476L301.874 20.41L300.908 20.41L300.908 15.538L303.638 15.538L303.638 14.068L300.502 14.068ZM296.582 18.996L296.582 13.382L297.52 13.382L297.52 18.996L296.582 18.996ZM315.93 15.328Q315.958 15.16 315.958 15.076L313.592 15.076L313.592 14.082L317.274 14.082L317.274 12.038L315.286 12.038Q314.992 12.836 314.656 13.466L313.606 13.032Q314.054 12.234 314.355 11.415Q314.656 10.596 314.908 9.546L315.958 9.756Q315.748 10.568 315.608 11.058L317.274 11.058L317.274 9.014L318.338 9.014L318.338 11.058L321.474 11.058L321.474 12.038L318.338 12.038L318.338 14.082L322.034 14.082L322.034 15.076L319.346 15.076L319.346 17.834Q319.346 18.226 319.451 18.38Q319.556 18.534 319.836 18.562Q319.976 18.576 320.242 18.576Q320.508 18.576 320.634 18.562Q320.97 18.534 321.082 18.387Q321.194 18.24 321.208 17.792Q321.25 16.784 321.25 16.644L322.23 16.868L322.202 17.862L322.188 18.184Q322.174 18.73 322.034 18.996Q321.894 19.262 321.614 19.367Q321.334 19.472 320.788 19.528Q320.368 19.556 320.144 19.556Q319.934 19.556 319.486 19.528Q318.856 19.472 318.583 19.171Q318.31 18.87 318.31 18.072L318.31 15.076L317.022 15.076Q317.022 15.174 316.994 15.342Q316.868 16.294 316.609 16.959Q316.35 17.624 315.818 18.254Q315.286 18.884 314.32 19.612L313.62 18.772Q314.46 18.17 314.908 17.708Q315.356 17.246 315.58 16.707Q315.804 16.168 315.93 15.328ZM312.15 12.57Q311.828 12.108 311.163 11.282Q310.498 10.456 310.106 10.008L310.904 9.308Q311.296 9.728 311.94 10.498Q312.584 11.268 313.018 11.828L312.15 12.57ZM316.42 20.508Q317.82 20.578 318.926 20.578Q320.396 20.578 322.398 20.48L322.146 21.586Q320.802 21.642 319.164 21.642Q317.442 21.642 316.238 21.572Q315.216 21.516 314.53 21.334Q313.844 21.152 313.291 20.788Q312.738 20.424 312.122 19.766L310.386 21.642L309.63 20.774L311.576 18.856L311.576 14.908L309.728 14.908L309.728 13.886L312.626 13.886L312.626 18.772Q313.144 19.416 313.648 19.766Q314.152 20.116 314.796 20.284Q315.44 20.452 316.42 20.508Z">
</path>
</g>
<path d="M346.302 14C345.583 14 345 14.583 345 15.3021C345 16.0211 345.583 16.6042 346.302 16.6042C347.021 16.6042 347.604 16.0211 347.604 15.3021C347.604 14.583 347.021 14 346.302 14ZM351.51 14C350.791 14 350.208 14.583 350.208 15.3021C350.208 16.0211 350.791 16.6042 351.51 16.6042C352.229 16.6042 352.812 16.0211 352.812 15.3021C352.812 14.583 352.229 14 351.51 14ZM356.719 14C356 14 355.417 14.583 355.417 15.3021C355.417 16.0211 356 16.6042 356.719 16.6042C357.438 16.6042 358.021 16.0211 358.021 15.3021C358.021 14.583 357.438 14 356.719 14Z"   fill="#A62B1F" >
</path>
</svg>
