<svg xmlns="http://www.w3.org/2000/svg" xmlns:xlink="http://www.w3.org/1999/xlink" width="20" height="20" viewBox="0 0 20 20" fill="none">
<path d="M15.175 10.855C14.9422 11.5539 14.6074 12.196 14.165 12.785L17.835 16.465C18.0077 16.6581 18.085 16.876 18.085 17.135C18.085 17.394 17.9882 17.6218 17.805 17.805C17.6218 17.9882 17.394 18.085 17.135 18.085C16.876 18.085 16.6581 18.0077 16.465 17.835L12.785 14.165C12.196 14.6074 11.5539 14.9422 10.855 15.175C10.1561 15.4078 9.43166 15.525 8.695 15.525C4.93172 15.525 1.875 12.4583 1.875 8.695C1.875 4.93172 4.93172 1.875 8.695 1.875C12.4583 1.875 15.525 4.93172 15.525 8.695C15.525 9.43166 15.4078 10.1561 15.175 10.855ZM8.6947 13.575C7.34918 13.575 6.20613 13.0964 5.2547 12.145C4.30327 11.1936 3.8247 10.0405 3.8247 8.695C3.8247 7.34881 4.3028 6.2069 5.2547 5.255C6.2066 4.3031 7.34851 3.825 8.6947 3.825C10.0409 3.825 11.1928 4.3031 12.1447 5.255C13.0966 6.2069 13.5747 7.34881 13.5747 8.695C13.5747 10.0412 13.0966 11.1931 12.1447 12.145C11.1928 13.0969 10.0409 13.575 8.6947 13.575Z" fill-rule="evenodd"  fill="#9CA3AF" >
</path>
</svg>
