<svg xmlns="http://www.w3.org/2000/svg" xmlns:xlink="http://www.w3.org/1999/xlink" width="9" height="9" viewBox="0 0 9 9" fill="none">
<path d="M3.49583 0.843735L3.46208 0.843735C3.17745 0.843735 2.98676 0.843735 2.80395 0.888735C2.7626 0.898767 2.72173 0.910497 2.68134 0.923927C2.64097 0.937356 2.6012 0.952438 2.56208 0.969173C2.38883 1.04342 2.24033 1.15761 2.0232 1.32524L1.99676 1.34549L1.98439 1.35449C1.59233 1.65655 1.28127 1.89617 1.05289 2.11048C0.819453 2.32986 0.647328 2.54473 0.556765 2.80798C0.547537 2.83475 0.53902 2.86175 0.531214 2.88896C0.523408 2.91618 0.516323 2.94358 0.509961 2.97116C0.5036 2.99876 0.497969 3.0265 0.493069 3.05438C0.488168 3.08226 0.484006 3.11026 0.480582 3.13836C0.477157 3.16646 0.474475 3.19464 0.472535 3.22288C0.470596 3.25113 0.469402 3.27941 0.468953 3.30771C0.468504 3.33603 0.4688 3.36433 0.469843 3.39262C0.470885 3.42091 0.472672 3.44916 0.475203 3.47736C0.499953 3.75298 0.616953 4.00048 0.793015 4.26261C0.964578 4.51911 1.21039 4.81611 1.5192 5.18961L3.04133 7.0273C3.31695 7.36086 3.5442 7.6348 3.75289 7.82267C3.9717 8.01954 4.20626 8.15623 4.49989 8.15623C4.79351 8.15623 5.02808 8.02011 5.24689 7.82267C5.45501 7.6348 5.68226 7.36086 5.95845 7.0273L7.48001 5.18961C7.78939 4.81611 8.0352 4.51911 8.20676 4.26261C8.38283 4.00048 8.49926 3.75355 8.52458 3.4768C8.52711 3.4486 8.5289 3.42035 8.52994 3.39206C8.53098 3.36377 8.53128 3.33547 8.53082 3.30716C8.53038 3.27885 8.52919 3.25057 8.52725 3.22232C8.52531 3.19408 8.52262 3.1659 8.5192 3.13779C8.51578 3.10969 8.51161 3.0817 8.50671 3.05381C8.50181 3.02593 8.49618 2.9982 8.48981 2.9706C8.48346 2.94302 8.47638 2.91561 8.46856 2.88839C8.46076 2.86118 8.45224 2.83419 8.44301 2.80742C8.35301 2.54473 8.18033 2.3293 7.94689 2.11048C7.71851 1.89617 7.40689 1.65655 7.01539 1.35449L7.00301 1.34549L6.97658 1.32524C6.75889 1.15761 6.61095 1.04342 6.4377 0.969173C6.39858 0.952345 6.35883 0.937169 6.31844 0.923646C6.27807 0.910122 6.2372 0.898298 6.19583 0.888173C6.01301 0.843173 5.82233 0.843173 5.5377 0.843735L3.49583 0.843735ZM3.75008 2.90642L5.2497 2.90642C5.25431 2.90642 5.25891 2.90653 5.2635 2.90676C5.26811 2.90699 5.27269 2.90733 5.27727 2.90777C5.28185 2.90823 5.28641 2.90879 5.29097 2.90946C5.29552 2.91015 5.30005 2.91093 5.30457 2.91183C5.30909 2.91272 5.31357 2.91373 5.31804 2.91485C5.3225 2.91597 5.32694 2.9172 5.33134 2.91853C5.33575 2.91987 5.34012 2.92132 5.34445 2.92286C5.34879 2.92441 5.35308 2.92607 5.35733 2.92783C5.36159 2.92959 5.3658 2.93145 5.36995 2.93342C5.37412 2.93539 5.37822 2.93746 5.38228 2.93963C5.38634 2.94181 5.39034 2.94407 5.39429 2.94644C5.39824 2.94881 5.40213 2.95127 5.40595 2.95382C5.40978 2.95638 5.41355 2.95902 5.41724 2.96177C5.42094 2.96451 5.42457 2.96735 5.42813 2.97026C5.43169 2.97318 5.43517 2.97619 5.43858 2.97928C5.44199 2.98238 5.44532 2.98555 5.44857 2.9888C5.45183 2.99205 5.455 2.99538 5.45809 2.99879C5.46118 3.0022 5.46419 3.00569 5.46711 3.00924C5.47003 3.01281 5.47286 3.01644 5.47561 3.02013C5.47835 3.02383 5.481 3.0276 5.48355 3.03142C5.48611 3.03525 5.48857 3.03914 5.49093 3.04308C5.4933 3.04703 5.49557 3.05103 5.49774 3.05509C5.49992 3.05915 5.50198 3.06326 5.50395 3.06742C5.50592 3.07158 5.50778 3.07579 5.50954 3.08004C5.51131 3.08429 5.51296 3.08859 5.51451 3.09292C5.51606 3.09726 5.5175 3.10163 5.51884 3.10603C5.52018 3.11044 5.52141 3.11487 5.52252 3.11934C5.52365 3.1238 5.52465 3.12829 5.52555 3.1328C5.52644 3.13732 5.52723 3.14185 5.52791 3.14641C5.52859 3.15096 5.52915 3.15553 5.5296 3.1601C5.53005 3.16469 5.53039 3.16928 5.53061 3.17387C5.53084 3.17847 5.53095 3.18307 5.53095 3.18767C5.53095 3.19228 5.53084 3.19688 5.53061 3.20147C5.53039 3.20607 5.53005 3.21066 5.5296 3.21524C5.52915 3.21982 5.52859 3.22438 5.52791 3.22894C5.52723 3.23349 5.52644 3.23802 5.52555 3.24254C5.52465 3.24706 5.52365 3.25154 5.52252 3.25601C5.52141 3.26047 5.52018 3.26491 5.51884 3.26931C5.5175 3.27372 5.51606 3.27809 5.51451 3.28242C5.51296 3.28676 5.51131 3.29105 5.50954 3.2953C5.50778 3.29956 5.50592 3.30377 5.50395 3.30792C5.50198 3.31209 5.49992 3.31619 5.49774 3.32025C5.49557 3.32431 5.4933 3.32831 5.49093 3.33226C5.48857 3.33621 5.48611 3.3401 5.48355 3.34392C5.481 3.34775 5.47835 3.35152 5.47561 3.35521C5.47286 3.35891 5.47003 3.36254 5.46711 3.3661C5.46419 3.36966 5.46118 3.37314 5.45809 3.37655C5.455 3.37996 5.45183 3.38329 5.44857 3.38654C5.44532 3.3898 5.44199 3.39297 5.43858 3.39606C5.43517 3.39915 5.43169 3.40216 5.42813 3.40508C5.42457 3.408 5.42094 3.41083 5.41724 3.41358C5.41355 3.41632 5.40978 3.41897 5.40595 3.42152C5.40213 3.42408 5.39824 3.42654 5.39429 3.4289C5.39034 3.43128 5.38634 3.43354 5.38228 3.43571C5.37822 3.43789 5.37412 3.43995 5.36995 3.44192C5.3658 3.44389 5.36159 3.44575 5.35733 3.44751C5.35308 3.44928 5.34879 3.45093 5.34445 3.45248C5.34012 3.45403 5.33575 3.45547 5.33134 3.45681C5.32694 3.45815 5.3225 3.45938 5.31804 3.46049C5.31357 3.46162 5.30909 3.46262 5.30457 3.46352C5.30005 3.46441 5.29552 3.4652 5.29097 3.46588C5.28641 3.46656 5.28185 3.46712 5.27727 3.46757C5.27269 3.46802 5.26811 3.46836 5.2635 3.46858C5.25891 3.46881 5.25431 3.46892 5.2497 3.46892L3.75008 3.46892C3.74547 3.46892 3.74087 3.46881 3.73628 3.46858C3.73168 3.46836 3.72709 3.46802 3.7225 3.46757C3.71793 3.46712 3.71336 3.46656 3.70881 3.46588C3.70426 3.4652 3.69972 3.46441 3.69521 3.46352C3.6907 3.46262 3.68621 3.46162 3.68174 3.46049C3.67728 3.45938 3.67285 3.45815 3.66843 3.45681C3.66403 3.45547 3.65966 3.45403 3.65532 3.45248C3.651 3.45093 3.6467 3.44928 3.64245 3.44751C3.63819 3.44575 3.63399 3.44389 3.62982 3.44192C3.62567 3.43995 3.62155 3.43789 3.61749 3.43571C3.61343 3.43354 3.60943 3.43128 3.60549 3.4289C3.60154 3.42654 3.59766 3.42408 3.59382 3.42152C3.59 3.41897 3.58624 3.41632 3.58254 3.41358C3.57885 3.41083 3.57522 3.408 3.57165 3.40508C3.5681 3.40216 3.56461 3.39915 3.5612 3.39606C3.55779 3.39297 3.55446 3.3898 3.55121 3.38654C3.54795 3.38329 3.54478 3.37996 3.54169 3.37655C3.53859 3.37314 3.53559 3.36966 3.53267 3.3661C3.52975 3.36254 3.52691 3.35891 3.52417 3.35521C3.52143 3.35152 3.51878 3.34775 3.51623 3.34392C3.51367 3.3401 3.51121 3.33621 3.50884 3.33226C3.50648 3.32831 3.50421 3.32431 3.50203 3.32025C3.49987 3.31619 3.49779 3.31209 3.49583 3.30792C3.49386 3.30377 3.49199 3.29956 3.49024 3.2953C3.48848 3.29105 3.48682 3.28676 3.48527 3.28242C3.48372 3.27809 3.48227 3.27372 3.48094 3.26931C3.4796 3.26491 3.47838 3.26047 3.47725 3.25601C3.47614 3.25154 3.47513 3.24706 3.47423 3.24254C3.47333 3.23802 3.47255 3.23349 3.47187 3.22894C3.4712 3.22438 3.47064 3.21982 3.47018 3.21524C3.46973 3.21066 3.4694 3.20607 3.46917 3.20147C3.46894 3.19688 3.46883 3.19228 3.46883 3.18767C3.46883 3.18307 3.46894 3.17847 3.46917 3.17387C3.4694 3.16928 3.46973 3.16469 3.47018 3.1601C3.47064 3.15553 3.4712 3.15096 3.47187 3.14641C3.47255 3.14185 3.47333 3.13732 3.47423 3.1328C3.47513 3.12829 3.47614 3.1238 3.47725 3.11934C3.47838 3.11487 3.4796 3.11044 3.48094 3.10603C3.48227 3.10163 3.48372 3.09726 3.48527 3.09292C3.48682 3.08859 3.48848 3.08429 3.49024 3.08004C3.49199 3.07579 3.49386 3.07158 3.49583 3.06742C3.49779 3.06326 3.49987 3.05915 3.50203 3.05509C3.50421 3.05103 3.50648 3.04703 3.50884 3.04308C3.51121 3.03914 3.51367 3.03525 3.51623 3.03142C3.51878 3.0276 3.52143 3.02383 3.52417 3.02013C3.52691 3.01644 3.52975 3.01281 3.53267 3.00924C3.53559 3.00569 3.53859 3.0022 3.54169 2.99879C3.54478 2.99538 3.54795 2.99205 3.55121 2.9888C3.55446 2.98555 3.55779 2.98238 3.5612 2.97928C3.56461 2.97619 3.5681 2.97318 3.57165 2.97026C3.57522 2.96735 3.57885 2.96451 3.58254 2.96177C3.58624 2.95902 3.59 2.95638 3.59382 2.95382C3.59766 2.95127 3.60154 2.94881 3.60549 2.94644C3.60943 2.94407 3.61343 2.94181 3.61749 2.93963C3.62155 2.93746 3.62567 2.93539 3.62982 2.93342C3.63399 2.93145 3.63819 2.92959 3.64245 2.92783C3.6467 2.92607 3.651 2.92441 3.65532 2.92286C3.65966 2.92132 3.66403 2.91987 3.66843 2.91853C3.67285 2.9172 3.67728 2.91597 3.68174 2.91485C3.68621 2.91373 3.6907 2.91272 3.69521 2.91183C3.69972 2.91093 3.70426 2.91015 3.70881 2.90946C3.71336 2.90879 3.71793 2.90823 3.7225 2.90777C3.72709 2.90733 3.73168 2.90699 3.73628 2.90676C3.74087 2.90653 3.74547 2.90642 3.75008 2.90642Z"   fill="#8F6321" >
</path>
</svg>
