<svg xmlns="http://www.w3.org/2000/svg" xmlns:xlink="http://www.w3.org/1999/xlink" width="24" height="24" viewBox="0 0 24 24" fill="none">
<path     fill="#000000"  d="M8.38144 19.5L2.40019 20.8125C1.93144 20.925 1.48145 20.5687 1.48145 20.0812L1.48145 13.35C1.48145 12.9937 1.7252 12.6937 2.06269 12.6187L5.70019 11.8125L6.95644 13.0687L3.26269 13.875C3.09394 13.9125 2.96269 14.0625 2.96269 14.25L2.96269 18.6562C2.96269 18.9 3.18769 19.0687 3.41269 19.0312L7.93144 18.0375L8.23144 17.9625L8.53144 18.0187L15.7127 19.4437L20.6439 18.3375C20.8127 18.3 20.9439 18.15 20.9439 17.9625L20.9439 13.5937C20.9439 13.35 20.7189 13.1812 20.4939 13.2187L16.1252 14.2125L15.8439 14.2687L17.8127 12.3L21.5814 11.4562C22.0502 11.3437 22.5002 11.7 22.5002 12.1875L22.5002 18.9C22.5002 19.2562 22.2564 19.5562 21.9189 19.6312L15.7689 21M12.0002 3C9.30019 3 7.16269 5.38124 7.53769 8.15624C7.66894 9.13124 8.15644 10.0312 8.85019 10.725L8.86894 10.7437L12.0002 13.8562L15.1314 10.7437L15.1502 10.725C15.8439 10.0312 16.3127 9.13124 16.4627 8.15624C16.8564 5.38124 14.7002 3 12.0002 3ZM12.0002 1.5C15.3189 1.5 18.0002 4.18125 18.0002 7.49999C18.0002 9.14999 17.3439 10.6312 16.2564 11.7187L12.0002 15.975L7.74394 11.7187C6.67519 10.6312 6.00019 9.14999 6.00019 7.49999C6.00019 4.18125 8.70019 1.5 12.0002 1.5ZM13.5189 6.03749C13.5189 5.21249 12.8439 4.5375 12.0189 4.5375C11.1939 4.5375 10.5189 5.21249 10.5189 6.03749C10.5189 6.86249 11.1939 7.53749 12.0189 7.53749C12.8439 7.53749 13.5189 6.88124 13.5189 6.03749Z">
</path>
</svg>
