<svg xmlns="http://www.w3.org/2000/svg" xmlns:xlink="http://www.w3.org/1999/xlink" width="15" height="14" viewBox="0 0 15 14" fill="none">
<path d="M7.46933 13.9126C3.35963 13.9126 0.0161133 10.7921 0.0161133 6.95635C0.0161133 3.12062 3.35963 0 7.46933 0C11.579 0 14.9225 3.12062 14.9225 6.95635C14.9225 10.7921 11.5781 13.9126 7.46933 13.9126ZM7.46933 1.46688C7.37309 1.46697 7.2769 1.46925 7.18078 1.47375C7.08466 1.47823 6.9887 1.48492 6.89292 1.49379C6.79715 1.50268 6.70166 1.51374 6.60647 1.52699C6.51129 1.54023 6.4165 1.55566 6.3221 1.57325C6.22772 1.59083 6.13386 1.61056 6.0405 1.63245C5.94716 1.65434 5.85445 1.67835 5.76236 1.70447C5.67028 1.7306 5.57894 1.75881 5.48833 1.78912C5.39773 1.81943 5.30798 1.8518 5.21906 1.88621C5.13018 1.92063 5.04223 1.95706 4.95523 1.99549C4.86825 2.03394 4.78232 2.07435 4.69745 2.11672C4.61259 2.15909 4.52889 2.20339 4.44634 2.24959C4.36381 2.29578 4.28253 2.34385 4.20252 2.39378C4.12251 2.4437 4.04386 2.49543 3.96655 2.54896C3.88926 2.60248 3.81341 2.65773 3.73903 2.71473C3.66464 2.77173 3.59178 2.83039 3.52047 2.89073C3.44916 2.95106 3.37948 3.01298 3.31143 3.0765C3.24337 3.14002 3.17703 3.20506 3.11237 3.27161C3.04774 3.33817 2.98488 3.40616 2.92381 3.4756C2.86276 3.54504 2.80355 3.61582 2.74619 3.68796C2.68885 3.76011 2.63344 3.83351 2.57994 3.90819C2.52644 3.98287 2.47496 4.05872 2.42544 4.13576C2.37595 4.2128 2.3285 4.29092 2.28309 4.37012C2.23768 4.44934 2.19439 4.52954 2.1532 4.61072C2.11201 4.69192 2.07299 4.774 2.0361 4.85698C1.99925 4.93995 1.96457 5.02372 1.93208 5.10828C1.89962 5.19284 1.86939 5.2781 1.8414 5.36404C1.8134 5.45 1.78768 5.53653 1.76423 5.62364C1.74079 5.71077 1.71964 5.79838 1.70079 5.88647C1.68195 5.97456 1.66544 6.06303 1.65123 6.15188C1.63704 6.24074 1.62519 6.32985 1.61566 6.41924C1.60616 6.50862 1.59899 6.59818 1.59419 6.6879C1.58938 6.77762 1.58692 6.86739 1.58684 6.95723C1.58684 9.98529 4.22498 12.4484 7.46933 12.4484C10.7137 12.4484 13.3509 9.98616 13.3509 6.95723C13.3508 6.8674 13.3484 6.77763 13.3436 6.68792C13.3388 6.5982 13.3317 6.50865 13.3222 6.41927C13.3127 6.32988 13.3008 6.24076 13.2866 6.15192C13.2724 6.06307 13.256 5.9746 13.2371 5.88651C13.2183 5.79842 13.1972 5.71083 13.1737 5.6237C13.1503 5.53658 13.1246 5.45005 13.0966 5.36411C13.0686 5.27815 13.0384 5.19291 13.0059 5.10835C12.9735 5.02379 12.9388 4.94001 12.902 4.85703C12.8651 4.77406 12.8261 4.69199 12.7849 4.61079C12.7437 4.52961 12.7004 4.44941 12.6551 4.37019C12.6097 4.29099 12.5622 4.21287 12.5127 4.13583C12.4633 4.05879 12.4118 3.98293 12.3583 3.90826C12.3048 3.83357 12.2494 3.76017 12.1921 3.68802C12.1347 3.61587 12.0755 3.54509 12.0145 3.47565C11.9534 3.40621 11.8906 3.33822 11.8259 3.27167C11.7613 3.20511 11.695 3.14008 11.6269 3.07656C11.5589 3.01302 11.4892 2.9511 11.4179 2.89077C11.3466 2.83044 11.2737 2.77178 11.1994 2.71479C11.125 2.65779 11.0491 2.60253 10.9719 2.549C10.8946 2.49547 10.8159 2.44374 10.7359 2.39381C10.6559 2.34389 10.5746 2.29582 10.4921 2.24961C10.4096 2.20342 10.3259 2.15912 10.241 2.11675C10.1562 2.07437 10.0703 2.03395 9.98327 1.99552C9.89629 1.95708 9.80836 1.92064 9.71946 1.88623C9.63057 1.85182 9.54082 1.81945 9.45022 1.78914C9.35963 1.75883 9.26828 1.7306 9.1762 1.70447C9.08412 1.67835 8.99142 1.65435 8.89808 1.63246C8.80474 1.61058 8.71088 1.59085 8.61649 1.57325C8.52212 1.55566 8.42733 1.54023 8.33215 1.52699C8.23696 1.51374 8.14148 1.50268 8.04571 1.49379C7.94994 1.48492 7.85399 1.47823 7.75787 1.47375C7.66176 1.46925 7.56558 1.46697 7.46933 1.46688Z"   fill="#D43030" >
</path>
<path d="M7.45896 10.951L3.38574 7.05765L7.55905 3.25598L11.6313 7.15107L7.45896 10.951ZM5.05188 7.07686L7.4786 9.39768L9.96333 7.13274L7.53941 4.81105L5.05188 7.07686Z"   fill="#D43030" >
</path>
</svg>
