<svg xmlns="http://www.w3.org/2000/svg" xmlns:xlink="http://www.w3.org/1999/xlink" width="16" height="16" viewBox="0 0 16 16" fill="none">
<path d="M8 15.5C3.858 15.5 0.5 12.142 0.5 8C0.5 3.858 3.858 0.5 8 0.5C12.142 0.5 15.5 3.858 15.5 8C15.5 12.142 12.142 15.5 8 15.5ZM8 14.5C11.59 14.5 14.5 11.59 14.5 8C14.5 4.41 11.59 1.5 8 1.5C4.41 1.5 1.5 4.41 1.5 8C1.5 11.59 4.41 14.5 8 14.5Z"   fill="#000000" >
</path>
<path d="M8.625 9.4015L8.625 9.752L7.375 9.752L7.375 9.4015C7.375 8.6 7.753 7.842 8.294 7.2655C8.7075 6.8245 8.696 6.837 8.814 6.697C9.126 6.3255 9.25 6.06 9.25 5.75C9.25 5.72955 9.2495 5.70909 9.2485 5.68867C9.24748 5.66823 9.24598 5.64784 9.24398 5.62748C9.24197 5.60713 9.23947 5.58683 9.23647 5.56659C9.23347 5.54636 9.22997 5.5262 9.22598 5.50614C9.222 5.48608 9.21752 5.46613 9.21253 5.44628C9.20756 5.42642 9.20211 5.40672 9.19617 5.38714C9.19023 5.36756 9.18381 5.34816 9.17692 5.32889C9.17003 5.30962 9.16267 5.29055 9.15484 5.27164C9.14702 5.25275 9.13873 5.23405 9.12998 5.21556C9.12123 5.19706 9.11205 5.1788 9.10241 5.16075C9.09277 5.1427 9.08267 5.12492 9.07216 5.10738C9.06164 5.08983 9.0507 5.07255 9.03933 5.05553C9.02797 5.03852 9.01619 5.0218 9.00402 5.00537C8.99183 4.98895 8.97925 4.97283 8.96627 4.95702C8.95328 4.94119 8.93992 4.9257 8.92619 4.91055C8.91245 4.89539 8.89834 4.88058 8.88387 4.86611C8.86942 4.85166 8.85461 4.83755 8.83945 4.82381C8.8243 4.81007 8.80881 4.79671 8.79298 4.78373C8.77717 4.77075 8.76105 4.75817 8.74463 4.74598C8.72819 4.7338 8.71147 4.72202 8.69447 4.71066C8.67745 4.69929 8.66017 4.68835 8.64262 4.67784C8.62508 4.66732 8.6073 4.65724 8.58925 4.64759C8.5712 4.63796 8.55294 4.62877 8.53444 4.62002C8.51595 4.61127 8.49725 4.60298 8.47836 4.59516C8.45945 4.58732 8.44038 4.57996 8.42111 4.57306C8.40184 4.56618 8.38244 4.55977 8.36286 4.55383C8.34328 4.54789 8.32356 4.54243 8.30372 4.53745C8.28387 4.53248 8.26392 4.528 8.24386 4.52402C8.2238 4.52003 8.20364 4.51653 8.18341 4.51353C8.16317 4.51053 8.14287 4.50803 8.12252 4.50602C8.10216 4.50402 8.08177 4.50251 8.06133 4.5015C8.04091 4.5005 8.02045 4.5 8 4.5C7.97955 4.5 7.95909 4.5005 7.93867 4.5015C7.91823 4.50251 7.89784 4.50402 7.87748 4.50602C7.85713 4.50803 7.83681 4.51053 7.81658 4.51353C7.79634 4.51653 7.7762 4.52003 7.75614 4.52402C7.73608 4.528 7.71613 4.53248 7.69627 4.53745C7.67642 4.54243 7.65672 4.54789 7.63714 4.55383C7.61756 4.55977 7.59816 4.56618 7.57889 4.57306C7.55962 4.57996 7.54055 4.58732 7.52164 4.59516C7.50275 4.60298 7.48405 4.61127 7.46555 4.62002C7.44706 4.62877 7.4288 4.63796 7.41075 4.64759C7.3927 4.65724 7.37492 4.66732 7.35738 4.67784C7.33983 4.68835 7.32255 4.69929 7.30553 4.71066C7.28852 4.72202 7.2718 4.7338 7.25537 4.74598C7.23895 4.75817 7.22283 4.77075 7.207 4.78373C7.19119 4.79671 7.1757 4.81007 7.16055 4.82381C7.14539 4.83755 7.13058 4.85166 7.11611 4.86611C7.10166 4.88058 7.08755 4.89539 7.07381 4.91055C7.06007 4.9257 7.04671 4.94119 7.03373 4.95702C7.02075 4.97283 7.00817 4.98895 6.99598 5.00537C6.9838 5.0218 6.97202 5.03852 6.96066 5.05553C6.94929 5.07255 6.93835 5.08983 6.92784 5.10738C6.91732 5.12492 6.90724 5.1427 6.89759 5.16075C6.88795 5.1788 6.87875 5.19706 6.87002 5.21556C6.86127 5.23405 6.85298 5.25275 6.84516 5.27164C6.83732 5.29055 6.82996 5.30962 6.82306 5.32889C6.81618 5.34816 6.80977 5.36756 6.80383 5.38714C6.79789 5.40672 6.79243 5.42644 6.78745 5.44628C6.78248 5.46613 6.778 5.48608 6.77402 5.50614C6.77003 5.5262 6.76653 5.54636 6.76353 5.56659C6.76053 5.58683 6.75803 5.60713 6.75602 5.62748C6.75402 5.64784 6.75251 5.66823 6.7515 5.68867C6.7505 5.70909 6.75 5.72955 6.75 5.75L5.5 5.75C5.5 5.70908 5.50101 5.66819 5.50302 5.62733C5.50502 5.58647 5.50802 5.54567 5.51203 5.50495C5.51604 5.46423 5.52105 5.42364 5.52706 5.38317C5.53306 5.3427 5.54005 5.30241 5.54803 5.26228C5.55602 5.22214 5.56498 5.18223 5.57492 5.14255C5.58486 5.10286 5.59577 5.06344 5.60766 5.02428C5.61953 4.98514 5.63236 4.9463 5.64614 4.90778C5.65992 4.86925 5.67464 4.83109 5.6903 4.7933C5.70595 4.7555 5.72253 4.7181 5.74003 4.68111C5.75752 4.64412 5.77591 4.60759 5.7952 4.57152C5.81448 4.53542 5.83464 4.49983 5.85567 4.46475C5.87671 4.42966 5.8986 4.3951 5.92133 4.36108C5.94406 4.32706 5.96761 4.29361 5.99198 4.26075C6.01636 4.22789 6.04152 4.19564 6.06747 4.16402C6.09343 4.13239 6.12015 4.10142 6.14762 4.07111C6.1751 4.04079 6.20331 4.01116 6.23223 3.98223C6.26116 3.95331 6.29079 3.9251 6.32111 3.89762C6.35142 3.87015 6.38239 3.84343 6.41402 3.81747C6.44564 3.79152 6.47789 3.76636 6.51075 3.74198C6.54361 3.71761 6.57706 3.69406 6.61108 3.67133C6.6451 3.6486 6.67966 3.62671 6.71475 3.60567C6.74983 3.58464 6.78542 3.56448 6.82152 3.5452C6.85759 3.52591 6.89412 3.50752 6.93111 3.49003C6.9681 3.47253 7.0055 3.45595 7.0433 3.4403C7.08109 3.42464 7.11925 3.40992 7.15778 3.39614C7.1963 3.38236 7.23514 3.36953 7.27428 3.35766C7.31344 3.34577 7.35286 3.33486 7.39255 3.32492C7.43223 3.31498 7.47214 3.30602 7.51227 3.29803C7.55241 3.29005 7.5927 3.28306 7.63317 3.27706C7.67364 3.27105 7.71423 3.26604 7.75495 3.26203C7.79567 3.25802 7.83647 3.25502 7.87733 3.25302C7.91819 3.25101 7.95908 3.25 8 3.25C8.04092 3.25 8.08181 3.25101 8.12267 3.25302C8.16353 3.25502 8.20433 3.25802 8.24505 3.26203C8.28577 3.26604 8.32636 3.27105 8.36683 3.27706C8.4073 3.28306 8.44759 3.29005 8.48772 3.29803C8.52786 3.30602 8.56777 3.31498 8.60745 3.32492C8.64714 3.33486 8.68656 3.34577 8.72572 3.35766C8.76486 3.36953 8.8037 3.38236 8.84222 3.39614C8.88075 3.40992 8.91891 3.42464 8.9567 3.4403C8.9945 3.45595 9.03191 3.47253 9.06889 3.49003C9.10588 3.50752 9.14241 3.52591 9.17848 3.5452C9.21456 3.56448 9.25016 3.58464 9.28525 3.60567C9.32034 3.62671 9.35491 3.6486 9.38892 3.67133C9.42294 3.69406 9.45639 3.71761 9.48925 3.74198C9.52211 3.76636 9.55436 3.79152 9.58598 3.81747C9.61761 3.84343 9.64858 3.87015 9.67889 3.89762C9.70922 3.9251 9.73884 3.95331 9.76777 3.98223C9.79669 4.01116 9.82489 4.04079 9.85238 4.07111C9.87986 4.10142 9.90658 4.13239 9.93253 4.16402C9.95848 4.19564 9.98364 4.22789 10.008 4.26075C10.0324 4.29361 10.0559 4.32706 10.0787 4.36108C10.1014 4.3951 10.1233 4.42966 10.1443 4.46475C10.1654 4.49983 10.1855 4.53542 10.2048 4.57152C10.2241 4.60759 10.2425 4.64412 10.26 4.68111C10.2775 4.7181 10.294 4.7555 10.3097 4.7933C10.3254 4.83109 10.3401 4.86925 10.3539 4.90778C10.3676 4.9463 10.3805 4.98514 10.3923 5.02428C10.4042 5.06344 10.4151 5.10286 10.4251 5.14255C10.435 5.18223 10.444 5.22214 10.452 5.26228C10.46 5.30241 10.4669 5.3427 10.4729 5.38317C10.479 5.42364 10.484 5.46423 10.488 5.50495C10.492 5.54567 10.495 5.58647 10.497 5.62733C10.499 5.66819 10.5 5.70908 10.5 5.75C10.5 6.401 10.255 6.925 9.771 7.501C9.6895 7.598 9.601 7.6975 9.492 7.815C9.45 7.86 9.407 7.907 9.349 7.968L9.206 8.1205C8.863 8.4855 8.625 8.963 8.625 9.4015ZM8.529 11.2185C8.6765 11.364 8.75 11.5415 8.75 11.75C8.75 11.9625 8.6765 12.1405 8.529 12.2845C8.52038 12.2932 8.51155 12.3016 8.5025 12.3098C8.49345 12.3181 8.48422 12.3261 8.47477 12.3338C8.46531 12.3416 8.45567 12.3491 8.44584 12.3564C8.43602 12.3637 8.42602 12.3707 8.41584 12.3775C8.40567 12.3843 8.39533 12.3908 8.38481 12.397C8.37431 12.4033 8.36366 12.4093 8.35286 12.415C8.34205 12.4207 8.33111 12.4262 8.32003 12.4314C8.30895 12.4365 8.29775 12.4415 8.28642 12.4461C8.27509 12.4507 8.26367 12.455 8.25212 12.459C8.24058 12.4631 8.22895 12.4668 8.21722 12.4703C8.20548 12.4737 8.19367 12.4769 8.18178 12.4798C8.16989 12.4826 8.15794 12.4852 8.14592 12.4875C8.13391 12.4897 8.12184 12.4917 8.10973 12.4933C8.09761 12.495 8.08545 12.4963 8.07328 12.4974C8.06109 12.4984 8.04889 12.4992 8.03667 12.4996C8.02445 12.5 8.01223 12.5002 8 12.5C7.795 12.5 7.618 12.428 7.471 12.2845C7.46203 12.2759 7.4533 12.2671 7.4448 12.2581C7.43628 12.2491 7.42802 12.2398 7.41998 12.2304C7.41197 12.2209 7.40419 12.2112 7.39666 12.2014C7.38914 12.1915 7.38188 12.1815 7.37488 12.1712C7.36786 12.161 7.36112 12.1506 7.35467 12.14C7.34822 12.1294 7.34203 12.1186 7.33612 12.1077C7.33022 12.0968 7.32461 12.0857 7.31928 12.0745C7.31395 12.0633 7.30891 12.052 7.30417 12.0405C7.29944 12.0291 7.29498 12.0175 7.29084 12.0058C7.2867 11.9941 7.28288 11.9823 7.27936 11.9704C7.27583 11.9585 7.27261 11.9465 7.2697 11.9345C7.26681 11.9224 7.26422 11.9103 7.26194 11.8981C7.25967 11.8859 7.25772 11.8737 7.25608 11.8614C7.25444 11.8491 7.25313 11.8367 7.25212 11.8244C7.25112 11.812 7.25045 11.7996 7.25009 11.7872C7.24973 11.7748 7.2497 11.7624 7.25 11.75C7.25 11.5415 7.3235 11.364 7.471 11.2185C7.47956 11.2097 7.48834 11.2012 7.49736 11.1929C7.50636 11.1845 7.51556 11.1765 7.52497 11.1686C7.53439 11.1607 7.54398 11.1531 7.55378 11.1458C7.56358 11.1384 7.57356 11.1313 7.58372 11.1244C7.59387 11.1175 7.6042 11.1109 7.61469 11.1046C7.62517 11.0983 7.63583 11.0922 7.64663 11.0864C7.65742 11.0806 7.66836 11.0751 7.67944 11.0698C7.69052 11.0646 7.70173 11.0596 7.71306 11.0549C7.72439 11.0503 7.73584 11.0459 7.74739 11.0417C7.75894 11.0376 7.77059 11.0338 7.78233 11.0303C7.79408 11.0268 7.80591 11.0236 7.81781 11.0207C7.82972 11.0178 7.84169 11.0152 7.85373 11.0129C7.86578 11.0106 7.87788 11.0086 7.89002 11.0069C7.90216 11.0052 7.91433 11.0038 7.92655 11.0027C7.93875 11.0017 7.95098 11.0009 7.96323 11.0004C7.97548 11 7.98773 10.9998 8 11C8.205 11 8.382 11.073 8.529 11.2185Z"   fill="#000000" >
</path>
</svg>
