<svg xmlns="http://www.w3.org/2000/svg" xmlns:xlink="http://www.w3.org/1999/xlink" width="16" height="16" viewBox="0 0 16 16" fill="none">
<path d="M12.7334 5.34487L12.5107 5.06122C12.398 4.91746 12.2735 4.60962 12.2563 4.43147L12.2225 4.08047C12.1807 3.64603 11.8426 3.18559 11.4241 2.99452L11.0865 2.84033C10.9154 2.76233 10.6529 2.5439 10.5496 2.39365L10.3461 2.09775C10.094 1.7314 9.56649 1.47117 9.10157 1.48471L8.72634 1.49528C8.53634 1.5008 8.19575 1.42197 8.02981 1.33415L7.70305 1.16099C7.29848 0.946488 6.70254 0.946187 6.29741 1.16099L5.97064 1.33407C5.80504 1.42205 5.46469 1.5008 5.2742 1.49535L4.89896 1.4844C4.43453 1.47117 3.90669 1.73064 3.6544 2.09752L3.45058 2.39387C3.34734 2.54368 3.08511 2.76204 2.9137 2.84033L2.57601 2.99452C2.15819 3.18537 1.81954 3.6455 1.7777 4.08047L1.74393 4.43147C1.72674 4.60931 1.6024 4.91715 1.48946 5.06122L1.26674 5.34487C0.99127 5.69617 0.919211 6.25124 1.09735 6.6547L1.24105 6.9803C1.31384 7.14506 1.35625 7.47195 1.32749 7.64874L1.27062 7.99717C1.20058 8.42822 1.41158 8.95131 1.76905 9.23081L2.0577 9.45627C2.20391 9.5704 2.40297 9.84128 2.46501 10.0106L2.5874 10.3436C2.6093 10.4035 2.63748 10.4624 2.67109 10.5197L1.3338 12.6701L3.26979 12.6701L4.20195 14L5.37743 12.1093C5.66874 12.2112 5.99996 12.2362 6.27996 12.1628L6.64162 12.0679C6.82468 12.0198 7.17562 12.0198 7.35883 12.0679L7.7205 12.1628C7.98693 12.2328 8.29955 12.2135 8.58069 12.1235L9.74729 14L10.6788 12.6701L12.6148 12.6701L11.3036 10.5613C11.3257 10.5269 11.3459 10.4915 11.3641 10.4551C11.3823 10.4187 11.3984 10.3816 11.4124 10.3436L11.5348 10.0106C11.5968 9.84181 11.796 9.57093 11.9422 9.45627L12.2308 9.23081C12.5877 8.95192 12.7992 8.42875 12.7292 7.9971L12.6724 7.64867C12.6436 7.47219 12.686 7.14537 12.7588 6.9803L12.9026 6.65477C13.0806 6.25177 13.0092 5.69641 12.7333 5.34494L12.7334 5.34487ZM7.00007 11.2367C4.27102 11.2367 2.05883 9.16703 2.05883 6.61366C2.05883 4.06022 4.27102 1.99065 7.00007 1.99065C9.72904 1.99065 11.9413 4.06022 11.9413 6.61366C11.9413 9.16703 9.72904 11.2367 7.00007 11.2367ZM7.00007 2.65107C9.33916 2.65107 11.2354 4.42527 11.2354 6.61366C11.2354 8.80196 9.33916 10.5762 7.00007 10.5762C4.66096 10.5762 2.76472 8.80196 2.76472 6.61366C2.76472 4.42527 4.66096 2.65107 7.00007 2.65107ZM7.00007 4.63237C6.76854 4.63237 6.5808 4.81475 6.5808 5.03968C6.5808 5.21759 6.69825 5.36875 6.86193 5.42423L6.32447 6.9212L5.31767 6.39893C5.32592 6.38404 5.33319 6.36873 5.3395 6.35302C5.34578 6.3373 5.35105 6.3213 5.3553 6.30499C5.35952 6.28868 5.3627 6.2722 5.36481 6.25553C5.36691 6.23887 5.36793 6.22214 5.3679 6.20536C5.3679 5.98036 5.18025 5.79799 4.94873 5.79799C4.7172 5.79799 4.52945 5.98036 4.52945 6.20536C4.52945 6.4303 4.7172 6.61267 4.94873 6.61267C4.97206 6.61267 4.99484 6.61071 5.01714 6.60715L5.33867 8.48483L8.66163 8.48483L8.98316 6.60715C9.00537 6.61071 9.02822 6.61267 9.05149 6.61267C9.28302 6.61267 9.47076 6.4303 9.47076 6.20528C9.47076 5.98036 9.28302 5.79806 9.05149 5.79806C8.81996 5.79806 8.6323 5.98043 8.6323 6.20536C8.6323 6.27566 8.65065 6.34172 8.68288 6.39939L7.68011 6.9212L7.13901 5.42393C7.3022 5.36829 7.41934 5.21729 7.41934 5.03968C7.41934 4.81475 7.23168 4.63229 7.00007 4.63229L7.00007 4.63237Z"   fill="#8F6321" >
</path>
</svg>
