<svg xmlns="http://www.w3.org/2000/svg" xmlns:xlink="http://www.w3.org/1999/xlink" width="11" height="10" viewBox="0 0 11 10" fill="none">
<path d="M5.56096 7.77779C5.07207 7.77779 4.64429 7.61113 4.27762 7.27779L0.794285 3.72224C0.549841 3.50001 0.610952 3.16668 0.855395 2.94446C1.09984 2.72224 1.4665 2.77779 1.71095 3.00001L5.25539 6.55557C5.31651 6.61113 5.43873 6.66668 5.56096 6.66668C5.68318 6.66668 5.8054 6.61113 5.92762 6.50001L9.28873 2.94446C9.53318 2.72224 9.89984 2.66668 10.1443 2.8889C10.3887 3.11112 10.4498 3.44445 10.2054 3.66668L6.84429 7.22224C6.53873 7.61113 6.11096 7.77779 5.56096 7.77779C5.62207 7.77779 5.56096 7.77779 5.56096 7.77779Z"   fill="#000000" >
</path>
</svg>
