<svg xmlns="http://www.w3.org/2000/svg" xmlns:xlink="http://www.w3.org/1999/xlink" width="287" height="166" viewBox="0 0 287 166" fill="none">
<rect  x="0.5" y="0.5" width="286" height="165" rx="5"    fill="url(#linear_fill_2_759_0)" >
</rect>
<path   fill="url(#linear_border_2_759_0)"  d="M5.5 0L281.5 0C284.538 0 287 2.46243 287 5.5L287 160.5C287 163.538 284.538 166 281.5 166L5.5 166C2.46243 166 0 163.538 0 160.5L0 5.5C0 2.46243 2.46243 0 5.5 0ZM5.5 1C3.01472 1 1 3.01472 1 5.5L1 160.5C1 162.985 3.01472 165 5.5 165L281.5 165C283.985 165 286 162.985 286 160.5L286 5.5C286 3.01472 283.985 1 281.5 1L5.5 1Z">
</path>
<rect  x="0.5" y="32.5" width="286" height="133" rx="5"    fill="#FFFFFF" >
</rect>
<path   fill="url(#linear_border_2_760_0)"  d="M5.5 32L281.5 32C284.538 32 287 34.4624 287 37.5L287 160.5C287 163.538 284.538 166 281.5 166L5.5 166C2.46243 166 0 163.538 0 160.5L0 37.5C0 34.4624 2.46243 32 5.5 32ZM5.5 33C3.01472 33 1 35.0147 1 37.5L1 160.5C1 162.985 3.01472 165 5.5 165L281.5 165C283.985 165 286 162.985 286 160.5L286 37.5C286 35.0147 283.985 33 281.5 33L5.5 33Z">
</path>
<g >
<path     fill="#FFFFFF"  d="M13.244 11.034L13.334 10.404L12.74 9.72L16.358 9.72L16.178 11.034L17.852 11.034L17.6 12.762L15.926 12.762L15.782 13.788L17.798 13.788L17.564 15.498L16.232 15.498L16.052 16.848L17.402 16.848L17.168 18.576L15.8 18.576L15.512 20.628L24.908 20.628L24.656 22.356L15.08 22.356L11.93 21.366L11.642 22.5L9.59 22.5L10.922 16.758L10.49 16.182L13.226 16.182L12.416 19.386L12.956 19.53L13.514 15.498L10.598 15.498L10.832 13.788L12.848 13.788L12.992 12.762L11.318 12.762L11.57 11.034L13.244 11.034ZM25.232 15.462L24.584 20.142L17.456 20.142L18.104 15.462L25.232 15.462ZM25.448 13.788Q25.376 14.31 24.98 14.67Q24.584 15.03 24.062 15.03L21.722 15.03L22.91 13.86L23.216 11.7L22.424 11.7L20.66 15.03L18.104 15.03L19.868 11.7L18.5 11.7L18.716 10.044L25.97 10.044L25.448 13.788ZM22.208 18.774L22.478 16.83L20.462 16.83L20.192 18.774L22.208 18.774ZM35.69 10.494L35.744 10.206L35.312 9.72L38.624 9.72L38.516 10.494L42.026 10.494L41.81 12.06L38.282 12.06L38.21 12.654L41.468 12.654L40.316 20.754L40.946 20.754L40.73 22.302L30.164 22.302L30.38 20.754L31.01 20.754L32.162 12.654L35.402 12.654L35.474 12.06L31.946 12.06L32.162 10.494L35.69 10.494ZM31.19 11.826L29.66 22.644L26.636 22.644L28.076 12.492L27.086 12.69L27.374 10.62L31.478 9.756L31.19 11.826ZM34.592 14.742L38.426 14.742L38.534 14.004L34.7 14.004L34.592 14.742ZM33.746 20.754L37.58 20.754L37.688 20.016L33.854 20.016L33.746 20.754ZM34.304 16.74L38.138 16.74L38.246 16.02L34.412 16.02L34.304 16.74ZM34.034 18.738L37.868 18.738L37.958 18.018L34.124 18.018L34.034 18.738ZM54.086 16.398L54.23 15.426L49.784 15.426L50.018 13.806L52.79 13.806L52.97 12.546L50.54 12.546L50.774 10.926L53.186 10.926L53.294 10.242L52.646 9.702L56.75 9.702L56.57 10.926L58.766 10.926L58.532 12.546L56.336 12.546L56.156 13.806L58.784 13.806L58.55 15.426L57.29 15.426L57.146 16.398L58.154 16.398L57.938 17.964L56.93 17.964L56.444 21.42Q56.372 21.942 55.94 22.275Q55.508 22.608 54.968 22.608L51.764 22.608L53.456 20.934L53.87 17.964L49.73 17.964L49.946 16.398L54.086 16.398ZM46.256 12.438L46.814 12.438L47.21 9.702L49.496 9.702L49.1 12.438L49.532 12.438L49.298 14.148L48.866 14.148L48.416 17.316L49.19 17.226L48.956 18.936L48.164 19.026L47.66 22.662L45.122 22.662L45.59 19.332L43.016 19.62L43.268 17.91L45.824 17.622L46.328 14.148L45.86 14.148L45.464 15.858L43.556 15.858L44.636 11.196L44.276 10.728L46.652 10.728L46.256 12.438ZM52.88 20.952L50.468 20.952L49.73 18.612L52.142 18.612L52.88 20.952ZM66.506 12.204L66.56 11.79L61.088 11.79L61.268 10.566L66.722 10.566L66.758 10.386L66.344 9.72L70.196 9.72L70.07 10.566L75.632 10.566L75.452 11.79L69.908 11.79L69.854 12.204L74.984 12.204L74.354 16.65L69.224 16.65L69.134 17.28L71.6 17.244L71.51 16.866L73.994 16.866L74.498 18.918L72.014 18.918L71.906 18.504L60.224 18.684L60.404 17.424L65.804 17.334L65.894 16.65L60.764 16.65L61.394 12.204L66.506 12.204ZM63.032 22.356L63.5 19.044L66.578 19.044L66.29 21.078L70.196 21.078L70.952 20.574L70.7 22.356L63.032 22.356ZM71.276 19.26L74.066 19.26L74.264 22.338L71.474 22.338L71.276 19.26ZM62.006 22.338L59.27 22.338L60.386 19.26L63.122 19.26L62.006 22.338ZM67.316 18.864L70.088 18.864L70.106 20.736L67.316 20.736L67.316 18.864ZM69.71 13.23L69.638 13.698L71.6 13.698L71.672 13.23L69.71 13.23ZM71.33 15.606L71.384 15.156L69.44 15.156L69.368 15.606L71.33 15.606ZM64.472 13.698L66.29 13.698L66.362 13.23L64.544 13.23L64.472 13.698ZM66.038 15.606L66.092 15.156L64.256 15.156L64.202 15.606L66.038 15.606Z">
</path>
</g>
<g >
<path     fill="#000000"  d="M14.54 43.852L18.092 52.636L16.244 52.636L15.476 50.632L12.056 50.632L11.312 52.636L9.572 52.636L13.016 43.852L14.54 43.852ZM14.912 49.144L13.736 46.06L12.596 49.144L14.912 49.144ZM30.564 50.668Q30.444 51.388 30.192 52.144Q29.964 52.984 29.58 53.35Q29.196 53.716 28.656 53.716Q28.14 53.716 27.708 53.404Q27.276 53.092 26.76 52.288L26.58 51.964Q25.476 52.648 24.36 53.092L23.772 51.748Q25.02 51.28 26.088 50.644Q25.836 49.78 25.656 48.544L24.06 48.748L23.94 47.404L25.5 47.212L25.404 46.312L24.252 46.444L24.18 45.448Q23.208 47.236 22.056 48.88L23.7 48.52L23.712 49.864Q23.328 49.936 23.136 49.984Q21.816 50.236 20.928 50.44L20.592 50.512Q20.388 50.548 20.244 50.596L19.92 49.204Q20.256 49.096 20.406 49Q20.556 48.904 20.7 48.7Q21.108 48.1 21.696 47.116Q21.192 47.224 20.64 47.296L19.944 47.404L19.632 46.048Q19.968 45.916 20.088 45.736Q20.976 44.464 21.816 42.472L23.076 43.048Q22.236 44.788 21.384 46.048Q21.792 45.976 22.416 45.844Q22.656 45.436 23.088 44.608L24.156 45.208L24.156 45.16L25.308 45.028L25.2 42.628L26.58 42.604L26.7 44.872L28.584 44.656Q27.9 43.888 27.216 43.264L28.092 42.46Q28.44 42.748 28.872 43.168Q29.304 43.588 29.64 43.972L28.872 44.62L30.024 44.488L30.156 45.772L26.784 46.156L26.856 47.056L30.3 46.636L30.42 47.956L29.28 48.1L30.072 48.928Q28.98 50.164 27.744 51.136Q27.924 51.508 27.984 51.592Q28.308 52.12 28.632 52.12Q28.764 52.12 28.854 51.97Q28.944 51.82 29.052 51.388Q29.22 50.656 29.316 50.08L30.564 50.668ZM27.024 48.376Q27.156 49.192 27.312 49.816Q28.188 49.144 29.1 48.124L27.024 48.376ZM19.596 51.772Q21.468 51.376 23.676 50.788L23.808 52.156Q21.732 52.72 19.824 53.116L19.596 51.772ZM39.82 48.232Q39.82 46.54 40.384 45.106Q40.948 43.672 41.932 42.676L43.552 42.676Q42.568 43.864 42.052 45.184Q41.536 46.504 41.536 48.232Q41.536 49.972 42.052 51.292Q42.568 52.612 43.552 53.788L41.932 53.788Q40.948 52.792 40.384 51.364Q39.82 49.936 39.82 48.232ZM56.6 50.584L56.6 51.94L51.896 51.94L51.896 53.596L50.468 53.596L50.468 51.94L45.752 51.94L45.752 50.584L50.468 50.584L50.468 49.696L46.676 49.696L46.676 44.152L48.836 44.152L48.188 43.264L48.02 43.036L49.292 42.388Q49.508 42.652 49.826 43.09Q50.144 43.528 50.336 43.828L49.724 44.152L51.86 44.152Q52.268 43.648 53.12 42.424L54.464 42.94Q54.14 43.408 53.6 44.152L55.7 44.152L55.7 49.696L51.896 49.696L51.896 50.584L56.6 50.584ZM50.468 46.348L50.468 45.448L48.14 45.448L48.14 46.348L50.468 46.348ZM51.896 46.348L54.236 46.348L54.236 45.448L51.896 45.448L51.896 46.348ZM48.14 47.512L48.14 48.412L50.468 48.412L50.468 47.512L48.14 47.512ZM51.896 47.512L51.896 48.412L54.236 48.412L54.236 47.512L51.896 47.512ZM64.932 46.852Q65.388 48.628 66.522 49.894Q67.656 51.16 69.72 52.228L68.784 53.632Q65.496 51.688 64.248 49.036Q63.612 50.392 62.43 51.532Q61.248 52.672 59.616 53.704L58.668 52.264Q60.588 51.232 61.824 49.882Q63.06 48.532 63.324 46.852L59.04 46.852L59.04 45.376L63.384 45.376L63.384 42.568L64.932 42.568L64.932 45.376L69.3 45.376L69.3 46.852L64.932 46.852ZM80.14 49.432Q80.5 50.416 81.172 51.172Q81.844 51.928 82.888 52.516L82.012 53.704Q80.2 52.492 79.408 50.704Q78.58 52.372 76.528 53.716L75.652 52.528Q76.924 51.772 77.584 51.004Q78.244 50.236 78.496 49.432L76.288 49.432L76.288 48.112L78.676 48.112L78.676 48.052L78.676 45.22L76.564 45.22L76.564 43.9L78.676 43.9L78.676 42.592L79.984 42.592L79.984 43.9L82.3 43.9L82.3 45.22L79.984 45.22L79.984 48.112L82.516 48.112L82.516 49.432L80.14 49.432ZM74.968 44.572L75.964 44.572L75.964 52.048L71.92 52.408L71.92 44.632L72.916 44.632L72.916 51.1L73.444 51.04L73.444 42.712L74.44 42.712L74.44 50.92L74.968 50.86L74.968 44.572ZM77.44 45.4Q78.04 46.468 78.424 47.44L77.344 47.932Q77.176 47.464 76.918 46.888Q76.66 46.312 76.408 45.856L77.44 45.4ZM80.236 47.428Q80.8 46.396 81.172 45.4L82.228 45.796Q82.048 46.288 81.778 46.888Q81.508 47.488 81.268 47.932L80.236 47.428ZM89.468 43.756Q88.664 44.452 87.692 45.142Q86.72 45.832 85.82 46.336L85.028 45.052Q85.856 44.572 86.876 43.87Q87.896 43.168 88.556 42.592L89.468 43.756ZM94.508 46.3Q93.92 45.832 92.738 45.01Q91.556 44.188 90.86 43.756L91.7 42.616Q92.384 43.024 93.518 43.78Q94.652 44.536 95.348 45.04L94.508 46.3ZM95.168 49.768Q94.472 49.456 94.016 49.216L94.016 53.608L92.6 53.608L92.6 53.068L87.8 53.068L87.8 53.608L86.384 53.608L86.384 49.192Q85.928 49.432 85.22 49.768L84.572 48.364Q86.324 47.656 87.548 46.798Q88.772 45.94 89.636 44.788L90.74 44.788Q91.652 45.952 92.87 46.81Q94.088 47.668 95.792 48.364L95.168 49.768ZM92.936 48.616Q91.112 47.5 90.212 46.348Q89.18 47.536 87.416 48.616L92.936 48.616ZM87.8 49.936L87.8 51.712L92.6 51.712L92.6 49.936L87.8 49.936ZM101.532 48.232Q101.532 49.924 100.968 51.358Q100.404 52.792 99.42 53.788L97.8 53.788Q98.784 52.6 99.3 51.28Q99.816 49.96 99.816 48.232Q99.816 46.492 99.3 45.172Q98.784 43.852 97.8 42.676L99.42 42.676Q100.404 43.672 100.968 45.1Q101.532 46.528 101.532 48.232ZM117.82 48.232Q117.82 46.54 118.384 45.106Q118.948 43.672 119.932 42.676L121.552 42.676Q120.568 43.864 120.052 45.184Q119.536 46.504 119.536 48.232Q119.536 49.972 120.052 51.292Q120.568 52.612 121.552 53.788L119.932 53.788Q118.948 52.792 118.384 51.364Q117.82 49.936 117.82 48.232ZM130.712 47.668Q129.356 48.772 127.544 49.792L127.544 50.14Q128.876 49.756 130.226 49.276Q131.576 48.796 132.62 48.304L133.16 49.576Q131.996 50.08 130.466 50.584Q128.936 51.088 127.556 51.448Q127.58 51.796 127.724 51.952Q127.868 52.108 128.192 52.132Q128.948 52.216 129.8 52.216Q130.556 52.216 131.6 52.132Q132.008 52.084 132.152 51.904Q132.296 51.724 132.32 51.256L132.368 50.308L133.844 50.608Q133.82 50.764 133.808 50.926Q133.796 51.088 133.784 51.22L133.736 51.736Q133.676 52.408 133.508 52.762Q133.34 53.116 132.98 53.29Q132.62 53.464 131.936 53.524Q130.976 53.608 129.884 53.608Q128.72 53.608 127.7 53.524Q126.836 53.464 126.458 53.026Q126.08 52.588 126.08 51.616L126.08 50.548Q125.264 50.932 124.124 51.412L123.524 50.032Q126.128 49.072 128.24 47.668L123.728 47.668L123.728 46.276L127.484 46.276L127.484 45.136L124.928 45.136L124.928 43.816L127.484 43.816L127.484 42.568L129.032 42.568L129.032 43.816L131.42 43.816L131.42 44.908Q132.224 43.996 132.8 43.048L134.036 43.9Q133.244 45.172 132.2 46.276L134.576 46.276L134.576 47.668L130.712 47.668ZM129.032 46.276L130.052 46.276Q130.7 45.712 131.216 45.136L129.032 45.136L129.032 46.276ZM142.836 45.04Q143.172 47.368 144.402 49.168Q145.632 50.968 147.756 52.42L146.712 53.74Q145.008 52.384 143.904 51.004Q142.8 49.624 142.2 48.088Q141.636 49.624 140.526 50.986Q139.416 52.348 137.712 53.608L136.632 52.372Q138.396 51.148 139.41 49.918Q140.424 48.688 140.874 47.224Q141.324 45.76 141.348 43.792Q141.372 43.36 141.372 42.664L142.872 42.664L142.86 44.368Q142.86 44.608 142.836 45.04ZM150.46 44.704L153.196 44.704L153.196 44.128L150.172 44.128L150.172 42.964L160.144 42.964L160.144 44.128L157.168 44.128L157.168 44.704L159.868 44.704L159.868 47.656L150.46 47.656L150.46 44.704ZM154.504 44.704L155.86 44.704L155.86 44.128L154.504 44.128L154.504 44.704ZM153.196 45.82L151.828 45.82L151.828 46.564L153.196 46.564L153.196 45.82ZM155.86 45.82L154.504 45.82L154.504 46.564L155.86 46.564L155.86 45.82ZM158.512 46.564L158.512 45.82L157.168 45.82L157.168 46.564L158.512 46.564ZM159.448 48.244L159.448 49.336L150.88 49.336L150.88 48.244L159.448 48.244ZM157.792 51.004Q159.688 51.868 160.6 52.336L159.964 53.5Q158.788 52.852 156.916 51.988L157.432 51.004L156.016 51.004L156.016 52.108Q156.016 52.9 155.71 53.236Q155.404 53.572 154.588 53.572Q153.964 53.572 153.292 53.476L153.052 52.288Q153.796 52.408 154.168 52.408Q154.48 52.408 154.594 52.24Q154.708 52.072 154.708 51.724L154.708 51.004L152.86 51.004L153.436 51.952Q152.476 52.516 150.292 53.5L149.776 52.372Q150.436 52.12 151.174 51.748Q151.912 51.376 152.512 51.004L149.944 51.004L149.944 49.888L160.384 49.888L160.384 51.004L157.792 51.004ZM166.532 48.232Q166.532 49.924 165.968 51.358Q165.404 52.792 164.42 53.788L162.8 53.788Q163.784 52.6 164.3 51.28Q164.816 49.96 164.816 48.232Q164.816 46.492 164.3 45.172Q163.784 43.852 162.8 42.676L164.42 42.676Q165.404 43.672 165.968 45.1Q166.532 46.528 166.532 48.232Z">
</path>
</g>
<g >
<path     fill="#000000"  d="M99.56 151.1Q100.16 151.63 101.075 152.085Q101.99 152.54 103.1 152.86L102.79 153.62Q101.38 153.12 100.415 152.53Q99.45 151.94 98.87 151.24L98.87 152.94L98.07 152.94L98.07 151.29Q97.44 151.98 96.435 152.58Q95.43 153.18 94.12 153.67L93.81 152.92Q94.9 152.59 95.825 152.115Q96.75 151.64 97.39 151.1L94.25 151.1L94.25 150.37L98.07 150.37L98.07 149.36L98.87 149.36L98.87 150.37L102.71 150.37L102.71 151.1L99.56 151.1ZM95.41 156.69L95.41 153.3L101.51 153.3L101.51 156.69L95.41 156.69ZM100.71 154.68L100.71 153.94L96.21 153.94L96.21 154.68L100.71 154.68ZM96.21 155.31L96.21 156.03L100.71 156.03L100.71 155.31L96.21 155.31ZM102.74 158.15L94.18 158.15L94.18 157.44L102.74 157.44L102.74 158.15ZM113.86 153.34L108.32 153.34Q108.16 153.63 107.88 154.01L112.7 154.01L112.7 158.55L111.95 158.55L111.95 158.1L107.61 158.1L107.61 158.56L106.85 158.56L106.85 155.19Q106.2 155.82 105.3 156.5L104.83 155.82Q106.51 154.66 107.38 153.34L105.02 153.34L105.02 152.68L107.78 152.68Q107.97 152.31 108.1 152L105.75 152L105.75 151.35L108.33 151.35Q108.45 150.98 108.54 150.62Q106.79 150.7 105.49 150.73L105.43 150.03Q107.22 150 109.425 149.86Q111.63 149.72 113.16 149.55L113.24 150.28Q111.34 150.46 109.36 150.57Q109.29 150.89 109.16 151.35L113.13 151.35L113.13 152L108.94 152Q108.81 152.37 108.67 152.68L113.86 152.68L113.86 153.34ZM107.61 155.19L111.95 155.19L111.95 154.65L107.61 154.65L107.61 155.19ZM111.95 155.79L107.61 155.79L107.61 156.33L111.95 156.33L111.95 155.79ZM107.61 156.93L107.61 157.47L111.95 157.47L111.95 156.93L107.61 156.93ZM124.86 158.49Q123.05 158.36 121.83 158.11Q120.61 157.86 119.66 157.42Q119.14 157.79 118.335 158.09Q117.53 158.39 116.33 158.65L116.02 157.91Q117.06 157.68 117.74 157.46Q118.42 157.24 118.87 156.99Q118.15 156.54 117.41 155.88L117.96 155.4Q118.81 156.14 119.49 156.53Q119.95 156.04 120.06 155.21L117.01 155.21L117.01 151.42L120.11 151.42L120.11 150.57L116.25 150.57L116.25 149.83L124.81 149.83L124.81 150.57L120.91 150.57L120.91 151.42L124.04 151.42L124.04 155.21L120.87 155.21Q120.81 155.73 120.655 156.145Q120.5 156.56 120.23 156.89Q121.05 157.23 122.19 157.425Q123.33 157.62 125.03 157.7L124.86 158.49ZM120.11 152.97L120.11 152.1L117.8 152.1L117.8 152.97L120.11 152.97ZM123.27 152.97L123.27 152.1L120.91 152.1L120.91 152.97L123.27 152.97ZM117.8 153.64L117.8 154.53L120.11 154.53L120.11 154.34L120.11 153.64L117.8 153.64ZM120.91 154.53L123.27 154.53L123.27 153.64L120.91 153.64L120.91 154.37L120.91 154.53ZM135.72 153.98L135.72 154.68Q134.83 155.85 133.84 156.59Q132.85 157.33 131.39 157.785Q129.93 158.24 127.74 158.43L127.33 157.71Q129.39 157.56 130.77 157.18Q132.15 156.8 133.05 156.195Q133.95 155.59 134.63 154.68L131.39 154.68Q131.07 154.92 130.61 155.21L131.47 155.71Q131.86 155.93 131.91 155.96L131.36 156.54L129.91 155.63Q129.11 156.07 128.1 156.51L127.69 155.84Q129.12 155.26 130.315 154.505Q131.51 153.75 132.26 152.96Q130.39 153.86 127.66 154.39L127.31 153.71Q129.55 153.33 131.165 152.66Q132.78 151.99 133.98 150.97L130.5 150.97Q130.28 151.14 130.01 151.31L131.29 152L130.76 152.54Q130.11 152.15 129.32 151.73Q128.61 152.13 127.98 152.4L127.56 151.79Q128.66 151.3 129.675 150.615Q130.69 149.93 131.39 149.25L132.08 149.55Q131.76 149.92 131.4 150.25L135.17 150.25L135.17 150.97Q133.87 152.18 132.3 152.94L132.94 153.3Q132.67 153.6 132.25 153.98L135.72 153.98ZM140 154.71Q139.77 154.71 139.605 154.535Q139.44 154.36 139.44 154.13Q139.44 153.89 139.605 153.72Q139.77 153.55 140 153.55Q140.24 153.55 140.405 153.72Q140.57 153.89 140.57 154.13Q140.57 154.37 140.405 154.54Q140.24 154.71 140 154.71ZM148.2 157.52Q149.51 157.61 150.83 157.61Q151.95 157.61 153.06 157.55L152.91 158.34Q151.66 158.39 150.73 158.39Q149.43 158.39 148.12 158.3Q147.06 158.22 146.345 157.795Q145.63 157.37 145.19 156.52Q145 157.44 144.55 158.43L143.9 158.13Q144.35 157.17 144.535 156.3Q144.72 155.43 144.76 154.03L145.43 154.03Q145.42 154.68 145.37 155.22Q145.61 156.13 146.12 156.67L146.12 153.44L144.16 153.44L144.16 152.74L145.99 152.74L145.99 151.43L144.46 151.43L144.46 150.74L145.99 150.74L145.99 149.42L146.75 149.42L146.75 150.74L148.04 150.74L148.04 151.43L146.75 151.43L146.75 152.74L148.05 152.74L148.05 153.44L146.84 153.44L146.84 154.64L148.13 154.64L148.13 155.38L146.84 155.38L146.84 157.19Q147.41 157.48 148.2 157.52ZM148.4 153.09Q149.02 152.53 149.31 151.94Q149.6 151.35 149.68 150.69L148.5 150.69L148.5 150.01L152.59 150.01Q152.56 151.35 152.48 152.06Q152.42 152.53 152.3 152.765Q152.18 153 151.96 153.08Q151.74 153.16 151.33 153.16Q151.05 153.16 150.48 153.11L150.37 152.4L150.64 152.42Q151.04 152.46 151.32 152.46Q151.53 152.46 151.61 152.36Q151.69 152.26 151.73 152Q151.77 151.71 151.8 151.275Q151.83 150.84 151.82 150.69L150.41 150.69Q150.31 151.49 150.015 152.17Q149.72 152.85 148.97 153.61L148.4 153.09ZM152.41 156.91L148.69 156.91L148.69 153.95L152.41 153.95L152.41 156.91ZM151.66 154.64L149.41 154.64L149.41 156.21L151.66 156.21L151.66 154.64ZM157.45 149.53Q157.12 150.74 156.77 151.65L156.77 158.45L155.99 158.45L155.99 153.37Q155.59 154.11 155.2 154.67L154.77 153.81Q155.35 152.98 155.825 151.82Q156.3 150.66 156.63 149.37L157.45 149.53ZM163.18 151.82L163.18 157.44L164.06 157.44L164.06 158.14L157.23 158.14L157.23 157.44L158.13 157.44L158.13 151.82L160.26 151.82L160.26 150.93L157.72 150.93L157.72 150.24L160.26 150.24L160.26 149.39L161.06 149.39L161.06 150.24L163.78 150.24L163.78 150.93L161.06 150.93L161.06 151.82L163.18 151.82ZM162.38 153.27L162.38 152.5L158.93 152.5L158.93 153.27L162.38 153.27ZM158.93 154.67L162.38 154.67L162.38 153.89L158.93 153.89L158.93 154.67ZM162.38 156.08L162.38 155.3L158.93 155.3L158.93 156.08L162.38 156.08ZM162.38 156.69L158.93 156.69L158.93 157.44L162.38 157.44L162.38 156.69ZM174.96 153.38L173.71 153.38L173.71 154.48L174.85 154.48L174.85 155.24L173.71 155.24L173.71 157.13Q173.71 157.63 173.58 157.9Q173.45 158.17 173.135 158.28Q172.82 158.39 172.23 158.39Q171.78 158.39 171.45 158.34L171.32 157.58Q171.96 157.68 172.27 157.68Q172.67 157.68 172.805 157.51Q172.94 157.34 172.94 156.87L172.94 155.24L169.73 155.24L169.73 154.48L172.94 154.48L172.94 153.38L169.39 153.38L169.39 152.62L171.73 152.62L171.73 151.42L169.89 151.42L169.89 150.66L171.73 150.66L171.73 149.41L172.5 149.41L172.5 150.66L174.5 150.66L174.5 151.42L172.5 151.42L172.5 152.62L174.96 152.62L174.96 153.38ZM168.4 149.46L168.4 151.52L169.31 151.52L169.31 152.3L168.4 152.3L168.4 154.17L169.13 153.91L169.27 154.72L168.4 155.03L168.4 158.49L167.65 158.49L167.65 155.3L167.07 155.51Q166.25 155.82 166.12 155.86L165.92 155Q166.22 154.93 167.65 154.43L167.65 152.3L166.88 152.3Q166.76 153.23 166.6 153.94L165.87 153.8Q166.04 153.08 166.185 152.13Q166.33 151.18 166.4 150.23L167.11 150.3Q167.09 150.52 167.07 150.64Q167.04 151.08 166.98 151.52L167.65 151.52L167.65 149.46L168.4 149.46ZM170.48 155.45Q170.94 155.89 171.69 156.73L171.13 157.3Q170.34 156.36 169.93 155.96L170.48 155.45ZM181.15 151.36L181.15 150.77L177.2 150.77L177.2 150.11L181.15 150.11L181.15 149.36L181.86 149.36L181.86 150.11L185.8 150.11L185.8 150.77L181.86 150.77L181.86 151.36L185 151.36L185 154.22L184.58 154.22Q185.01 154.69 185.65 155.47L185.04 155.96L184.81 155.65L184.63 155.39L177.23 155.72L177.21 155.04L177.82 155.03Q178.13 155.02 178.93 155Q179.73 154.98 181.15 154.94L181.15 154.22L177.96 154.22L177.96 151.36L181.15 151.36ZM181.15 152.52L181.15 151.97L178.73 151.97L178.73 152.52L181.15 152.52ZM184.23 152.52L184.23 151.97L181.86 151.97L181.86 152.52L184.23 152.52ZM178.73 153.04L178.73 153.62L181.15 153.62L181.15 153.04L178.73 153.04ZM184.23 153.04L181.86 153.04L181.86 153.62L184.23 153.62L184.23 153.04ZM184.19 154.85Q184 154.61 183.81 154.41L184.07 154.22L181.86 154.22L181.86 154.92L184.19 154.85ZM181.53 155.64Q182.06 156.12 182.63 156.75L182.11 157.24Q181.7 156.74 181.05 156.11L181.53 155.64ZM184.6 155.85Q184.87 156.2 185.235 156.78Q185.6 157.36 185.83 157.78L185.13 158.14Q184.89 157.68 184.575 157.14Q184.26 156.6 183.99 156.21L184.6 155.85ZM176.98 157.86Q177.63 157.08 178.16 155.92L178.82 156.26Q178.27 157.5 177.65 158.27L176.98 157.86ZM183.04 157.17Q183.07 156.84 183.07 156.61L183.81 156.77Q183.81 156.97 183.75 157.45Q183.71 157.79 183.615 157.96Q183.52 158.13 183.32 158.205Q183.12 158.28 182.72 158.31Q182.21 158.35 181.58 158.35Q180.95 158.35 180.44 158.31Q179.88 158.27 179.635 158.06Q179.39 157.85 179.39 157.37L179.39 156.04L180.2 156.04L180.2 157.11Q180.2 157.41 180.305 157.515Q180.41 157.62 180.7 157.64Q181.3 157.68 181.61 157.68Q181.91 157.68 182.51 157.64Q182.8 157.62 182.91 157.53Q183.02 157.44 183.04 157.17Z">
</path>
</g>
<path d="M19.2573 62.7332C20.1077 62.1836 21.1678 62.3118 21.6251 63.0194L22.6789 64.6501C22.6826 64.6558 22.6861 64.6617 22.6894 64.6676C22.6928 64.6735 22.696 64.6796 22.699 64.6857C22.702 64.6918 22.7048 64.698 22.7074 64.7043C22.7101 64.7106 22.7126 64.717 22.7148 64.7235C22.7171 64.73 22.7192 64.7365 22.7211 64.7432C22.7231 64.7498 22.7248 64.7565 22.7263 64.7632C22.7279 64.77 22.7292 64.7768 22.7304 64.7837C22.7315 64.7906 22.7325 64.7975 22.7333 64.8045C22.7341 64.8115 22.7347 64.8185 22.7351 64.8256C22.7355 64.8326 22.7357 64.8398 22.7357 64.8469C22.7357 64.854 22.7356 64.8612 22.7352 64.8684C22.7348 64.8756 22.7343 64.8828 22.7335 64.89C22.7328 64.8972 22.7319 64.9044 22.7307 64.9117C22.7296 64.9189 22.7283 64.9262 22.7268 64.9334C22.7253 64.9406 22.7236 64.9479 22.7217 64.9551C22.7198 64.9623 22.7178 64.9695 22.7155 64.9767C22.7133 64.9839 22.7108 64.9911 22.7082 64.9982C22.7056 65.0053 22.7028 65.0124 22.6999 65.0195C22.6969 65.0265 22.6938 65.0335 22.6904 65.0405C22.6871 65.0475 22.6836 65.0544 22.68 65.0613C22.6763 65.0682 22.6725 65.075 22.6685 65.0817C22.6645 65.0885 22.6603 65.0951 22.656 65.1018C22.6517 65.1084 22.6472 65.1149 22.6426 65.1214C22.6379 65.1278 22.6332 65.1342 22.6282 65.1405C22.6233 65.1468 22.6182 65.153 22.613 65.1591C22.6078 65.1652 22.6024 65.1712 22.5969 65.1771C22.5914 65.183 22.5858 65.1888 22.58 65.1945C22.5742 65.2002 22.5683 65.2058 22.5623 65.2113C22.5563 65.2168 22.5501 65.2221 22.5439 65.2273C22.5376 65.2326 22.5313 65.2377 22.5248 65.2427C22.5183 65.2476 22.5117 65.2525 22.5051 65.2572C22.4984 65.2619 22.4916 65.2665 22.4847 65.2709C22.4687 65.2813 22.4529 65.292 22.4373 65.303C22.4217 65.314 22.4063 65.3253 22.3912 65.3369C22.3761 65.3485 22.3612 65.3605 22.3466 65.3727C22.332 65.3849 22.3177 65.3974 22.3037 65.4101C22.2896 65.4229 22.2759 65.4359 22.2624 65.4492C22.2489 65.4625 22.2358 65.4761 22.223 65.4899C22.2101 65.5037 22.1976 65.5177 22.1854 65.5319C22.1732 65.5462 22.1613 65.5606 22.1498 65.5753C22.1383 65.59 22.1271 65.6049 22.1163 65.62C22.1055 65.635 22.0951 65.6503 22.085 65.6657C22.0749 65.6811 22.0652 65.6967 22.0559 65.7125C22.0466 65.7282 22.0377 65.7441 22.0291 65.7601C22.0206 65.7762 22.0124 65.7923 22.0047 65.8086C21.9969 65.8249 21.9896 65.8412 21.9827 65.8577C21.9758 65.8742 21.9692 65.8908 21.9632 65.9074C21.9571 65.924 21.9514 65.9407 21.9461 65.9575C21.9409 65.9743 21.9361 65.9911 21.9317 66.0079C21.9273 66.0248 21.9234 66.0416 21.9199 66.0585C21.9164 66.0754 21.9133 66.0923 21.9107 66.1092C21.9081 66.1261 21.9059 66.143 21.9041 66.1598C21.9024 66.1767 21.9011 66.1935 21.9003 66.2102C21.8994 66.227 21.899 66.2437 21.899 66.2604C21.8991 66.277 21.8996 66.2936 21.9005 66.3101C21.9015 66.3266 21.9028 66.343 21.9047 66.3593C21.9065 66.3756 21.9088 66.3918 21.9115 66.4078C21.9142 66.4239 21.9174 66.4398 21.921 66.4556C21.9245 66.4713 21.9286 66.487 21.9331 66.5024C21.9375 66.5179 21.9424 66.5332 21.9478 66.5483C21.9531 66.5634 21.9588 66.5783 21.965 66.593C21.9712 66.6077 21.9778 66.6222 21.9848 66.6365C21.9918 66.6508 21.9992 66.6649 22.007 66.6787C22.0149 66.6926 22.0231 66.7062 22.0317 66.7195C22.0403 66.7328 22.0493 66.7459 22.0588 66.7588C22.0681 66.7716 22.0779 66.7841 22.0881 66.7964C22.0982 66.8086 22.1087 66.8206 22.1196 66.8323C22.1305 66.844 22.1417 66.8553 22.1533 66.8664C22.1649 66.8775 22.1768 66.8882 22.1891 66.8986C22.2014 66.9091 22.2139 66.9192 22.2269 66.9289C22.2398 66.9387 22.253 66.9481 22.2665 66.9572C22.28 66.9663 22.2938 66.975 22.3079 66.9833C22.322 66.9917 22.3364 66.9997 22.3511 67.0073C22.3657 67.015 22.3806 67.0222 22.3958 67.0291C22.4109 67.036 22.4264 67.0425 22.442 67.0486C22.4576 67.0547 22.4735 67.0604 22.4896 67.0658C22.5057 67.0711 22.5219 67.0761 22.5384 67.0806C22.5549 67.0851 22.5715 67.0893 22.5884 67.093C22.6052 67.0968 22.6222 67.1001 22.6394 67.103C22.6565 67.106 22.6738 67.1085 22.6913 67.1106C22.7087 67.1127 22.7263 67.1144 22.744 67.1157C22.7616 67.117 22.7794 67.1178 22.7973 67.1183C22.8151 67.1187 22.8331 67.1188 22.8511 67.1184C22.8691 67.118 22.8872 67.1172 22.9053 67.116C22.9234 67.1148 22.9416 67.1132 22.9598 67.1112C22.978 67.1092 22.9961 67.1067 23.0144 67.1039C23.0326 67.101 23.0508 67.0978 23.0689 67.0941C23.0871 67.0905 23.1053 67.0864 23.1234 67.0819C23.1415 67.0774 23.1596 67.0726 23.1776 67.0673C23.1956 67.0621 23.2135 67.0564 23.2314 67.0504C23.2492 67.0443 23.2669 67.0379 23.2846 67.0311C23.3023 67.0243 23.3198 67.0171 23.3372 67.0095C23.3546 67.002 23.3719 66.994 23.389 66.9857C23.4061 66.9775 23.4231 66.9688 23.4399 66.9598C23.4567 66.9508 23.4733 66.9415 23.4898 66.9318C23.5062 66.9221 23.5225 66.912 23.5385 66.9017C23.5454 66.8972 23.5523 66.8929 23.5594 66.8888C23.5664 66.8846 23.5735 66.8806 23.5807 66.8767C23.5879 66.8729 23.5952 66.8692 23.6026 66.8656C23.6099 66.8621 23.6173 66.8587 23.6247 66.8554C23.6322 66.8522 23.6397 66.8491 23.6473 66.8462C23.6549 66.8433 23.6625 66.8405 23.6701 66.8379C23.6778 66.8354 23.6854 66.8329 23.6932 66.8307C23.7009 66.8284 23.7086 66.8263 23.7164 66.8244C23.7241 66.8225 23.7319 66.8208 23.7397 66.8192C23.7475 66.8176 23.7553 66.8162 23.7631 66.815C23.7709 66.8138 23.7787 66.8127 23.7865 66.8119C23.7943 66.811 23.8021 66.8103 23.8099 66.8098C23.8176 66.8093 23.8254 66.8089 23.8331 66.8088C23.8408 66.8086 23.8485 66.8086 23.8562 66.8088C23.8638 66.809 23.8714 66.8094 23.879 66.8099C23.8866 66.8105 23.8941 66.8112 23.9016 66.8121C23.9091 66.813 23.9165 66.8141 23.9238 66.8154C23.9312 66.8166 23.9385 66.818 23.9457 66.8196C23.9529 66.8213 23.96 66.823 23.9671 66.825C23.9742 66.8269 23.9811 66.829 23.988 66.8313C23.9949 66.8336 24.0017 66.8361 24.0084 66.8387C24.0151 66.8413 24.0217 66.8441 24.0282 66.847C24.0347 66.85 24.0411 66.8531 24.0474 66.8564C24.0537 66.8596 24.0598 66.8631 24.0659 66.8667C24.0719 66.8702 24.0778 66.874 24.0836 66.8779C24.0894 66.8818 24.0951 66.8858 24.1006 66.89C24.1062 66.8942 24.1115 66.8985 24.1168 66.9029C24.122 66.9074 24.1272 66.912 24.1321 66.9168C24.1371 66.9215 24.1419 66.9264 24.1466 66.9314C24.1512 66.9364 24.1557 66.9415 24.1601 66.9468C24.1644 66.952 24.1686 66.9574 24.1727 66.9629C24.1767 66.9684 24.1806 66.974 24.1843 66.9797L25.238 68.6104C25.6953 69.3181 25.3766 70.3372 24.5262 70.8868L16.4071 76.1333C15.5567 76.6829 14.4966 76.5547 14.0393 75.8471L12.9855 74.2164C12.9818 74.2106 12.9783 74.2048 12.9749 74.1989C12.9716 74.193 12.9684 74.1869 12.9654 74.1808C12.9624 74.1747 12.9596 74.1685 12.9569 74.1621C12.9543 74.1558 12.9518 74.1494 12.9495 74.143C12.9473 74.1365 12.9452 74.1299 12.9432 74.1233C12.9413 74.1167 12.9396 74.11 12.9381 74.1032C12.9365 74.0965 12.9352 74.0897 12.934 74.0828C12.9328 74.0759 12.9319 74.069 12.9311 74.062C12.9303 74.055 12.9297 74.048 12.9293 74.0409C12.9289 74.0338 12.9287 74.0267 12.9287 74.0196C12.9286 74.0125 12.9288 74.0053 12.9292 73.9981C12.9295 73.9909 12.9301 73.9837 12.9308 73.9765C12.9316 73.9693 12.9325 73.962 12.9336 73.9548C12.9348 73.9476 12.9361 73.9403 12.9376 73.9331C12.9391 73.9258 12.9408 73.9186 12.9427 73.9114C12.9445 73.9042 12.9466 73.897 12.9488 73.8898C12.9511 73.8826 12.9535 73.8755 12.9561 73.8683C12.9587 73.8612 12.9615 73.8541 12.9645 73.847C12.9675 73.84 12.9706 73.8329 12.9739 73.826C12.9773 73.819 12.9807 73.8121 12.9844 73.8052C12.9881 73.7983 12.9919 73.7915 12.9959 73.7848C12.9999 73.778 13.004 73.7713 13.0084 73.7647C13.0127 73.7581 13.0172 73.7516 13.0218 73.7451C13.0264 73.7387 13.0312 73.7323 13.0361 73.726C13.0411 73.7197 13.0462 73.7135 13.0514 73.7074C13.0566 73.7013 13.062 73.6953 13.0675 73.6894C13.073 73.6835 13.0786 73.6777 13.0844 73.672C13.0902 73.6663 13.0961 73.6607 13.1021 73.6552C13.1081 73.6497 13.1142 73.6444 13.1205 73.6392C13.1267 73.6339 13.1331 73.6288 13.1396 73.6238C13.1461 73.6189 13.1526 73.614 13.1593 73.6093C13.166 73.6046 13.1728 73.6 13.1797 73.5956C13.1957 73.5852 13.2115 73.5745 13.2271 73.5635C13.2427 73.5525 13.2581 73.5412 13.2732 73.5296C13.2883 73.5179 13.3031 73.506 13.3177 73.4938C13.3323 73.4816 13.3467 73.4691 13.3607 73.4564C13.3748 73.4436 13.3885 73.4305 13.402 73.4173C13.4154 73.404 13.4286 73.3904 13.4414 73.3766C13.4543 73.3628 13.4668 73.3488 13.479 73.3346C13.4912 73.3203 13.503 73.3058 13.5145 73.2912C13.5261 73.2765 13.5372 73.2616 13.548 73.2465C13.5588 73.2315 13.5693 73.2162 13.5794 73.2008C13.5894 73.1854 13.5991 73.1698 13.6085 73.154C13.6178 73.1383 13.6267 73.1224 13.6353 73.1063C13.6438 73.0903 13.652 73.0742 13.6597 73.0579C13.6674 73.0416 13.6748 73.0252 13.6817 73.0088C13.6886 72.9923 13.6951 72.9757 13.7012 72.9591C13.7073 72.9425 13.713 72.9258 13.7182 72.909C13.7235 72.8922 13.7283 72.8754 13.7327 72.8586C13.737 72.8417 13.741 72.8249 13.7445 72.808C13.748 72.7911 13.7511 72.7742 13.7537 72.7573C13.7563 72.7404 13.7585 72.7235 13.7602 72.7067C13.762 72.6898 13.7633 72.673 13.7641 72.6562C13.765 72.6395 13.7654 72.6228 13.7653 72.6061C13.7653 72.5895 13.7648 72.5729 13.7639 72.5564C13.7629 72.5399 13.7615 72.5235 13.7597 72.5072C13.7579 72.4909 13.7556 72.4747 13.7529 72.4587C13.7502 72.4426 13.747 72.4267 13.7434 72.4109C13.7398 72.3952 13.7358 72.3795 13.7313 72.3641C13.7269 72.3486 13.722 72.3333 13.7166 72.3182C13.7113 72.3031 13.7055 72.2882 13.6994 72.2735C13.6932 72.2588 13.6866 72.2443 13.6796 72.23C13.6726 72.2157 13.6652 72.2016 13.6573 72.1878C13.6495 72.1739 13.6413 72.1603 13.6327 72.147C13.624 72.1336 13.615 72.1206 13.6056 72.1077C13.5962 72.0949 13.5865 72.0824 13.5763 72.0701C13.5661 72.0578 13.5556 72.0459 13.5448 72.0342C13.5339 72.0225 13.5226 72.0112 13.511 72.0001C13.4995 71.989 13.4875 71.9783 13.4753 71.9678C13.463 71.9574 13.4504 71.9473 13.4375 71.9376C13.4246 71.9278 13.4114 71.9184 13.3979 71.9093C13.3844 71.9002 13.3706 71.8915 13.3564 71.8832C13.3423 71.8748 13.328 71.8668 13.3133 71.8592C13.2987 71.8515 13.2838 71.8443 13.2686 71.8374C13.2534 71.8305 13.238 71.824 13.2224 71.8179C13.2067 71.8118 13.1909 71.806 13.1748 71.8007C13.1587 71.7954 13.1424 71.7904 13.126 71.7859C13.1095 71.7813 13.0928 71.7772 13.076 71.7735C13.0591 71.7697 13.0422 71.7664 13.025 71.7635C13.0078 71.7605 12.9905 71.758 12.9731 71.7559C12.9557 71.7538 12.9381 71.7521 12.9204 71.7508C12.9028 71.7495 12.885 71.7487 12.8671 71.7482C12.8493 71.7478 12.8313 71.7477 12.8133 71.7481C12.7953 71.7485 12.7772 71.7493 12.7591 71.7505C12.741 71.7517 12.7228 71.7533 12.7046 71.7553C12.6864 71.7573 12.6682 71.7598 12.65 71.7626C12.6318 71.7655 12.6136 71.7687 12.5954 71.7724C12.5772 71.776 12.5591 71.7801 12.541 71.7846C12.5229 71.789 12.5048 71.7939 12.4868 71.7992C12.4688 71.8044 12.4509 71.8101 12.433 71.8161C12.4152 71.8222 12.3974 71.8286 12.3798 71.8354C12.3621 71.8422 12.3446 71.8494 12.3272 71.857C12.3098 71.8645 12.2925 71.8725 12.2754 71.8808C12.2582 71.889 12.2413 71.8977 12.2245 71.9067C12.2077 71.9157 12.191 71.925 12.1746 71.9347C12.1582 71.9444 12.1419 71.9545 12.1259 71.9648C12.119 71.9693 12.1121 71.9736 12.105 71.9777C12.098 71.9819 12.0908 71.9859 12.0836 71.9897C12.0764 71.9936 12.0692 71.9973 12.0618 72.0009C12.0545 72.0044 12.0471 72.0078 12.0396 72.0111C12.0322 72.0143 12.0246 72.0174 12.0171 72.0203C12.0095 72.0232 12.0019 72.026 11.9943 72.0286C11.9866 72.0311 11.9789 72.0336 11.9712 72.0358C11.9635 72.0381 11.9558 72.0402 11.948 72.0421C11.9402 72.044 11.9325 72.0457 11.9247 72.0473C11.9169 72.0489 11.9091 72.0503 11.9013 72.0515C11.8935 72.0527 11.8857 72.0538 11.8779 72.0546C11.8701 72.0555 11.8623 72.0562 11.8545 72.0567C11.8467 72.0572 11.839 72.0576 11.8313 72.0577C11.8236 72.0579 11.8159 72.0579 11.8082 72.0577C11.8006 72.0575 11.7929 72.0571 11.7854 72.0565C11.7778 72.056 11.7703 72.0553 11.7628 72.0544C11.7553 72.0535 11.7479 72.0524 11.7406 72.0511C11.7332 72.0499 11.7259 72.0485 11.7187 72.0468C11.7115 72.0452 11.7044 72.0435 11.6973 72.0415C11.6902 72.0396 11.6832 72.0375 11.6764 72.0352C11.6695 72.0329 11.6627 72.0304 11.656 72.0278C11.6493 72.0252 11.6427 72.0224 11.6362 72.0194C11.6297 72.0165 11.6233 72.0134 11.617 72.0101C11.6107 72.0068 11.6046 72.0034 11.5985 71.9998C11.5925 71.9962 11.5865 71.9925 11.5807 71.9886C11.575 71.9847 11.5693 71.9807 11.5638 71.9765C11.5582 71.9723 11.5528 71.968 11.5476 71.9635C11.5423 71.9591 11.5372 71.9545 11.5322 71.9497C11.5273 71.945 11.5225 71.9401 11.5178 71.9351C11.5131 71.9301 11.5086 71.925 11.5043 71.9197C11.4999 71.9145 11.4957 71.9091 11.4917 71.9036C11.4877 71.8981 11.4838 71.8925 11.4801 71.8868L10.4264 70.256C9.96909 69.5484 10.2878 68.5293 11.1382 67.9797L19.2573 62.7332ZM19.8883 68.9301L16.5287 71.1011C16.5219 71.1056 16.5151 71.1102 16.5084 71.1149C16.5017 71.1196 16.4951 71.1244 16.4886 71.1294C16.4822 71.1344 16.4758 71.1395 16.4696 71.1447C16.4633 71.15 16.4572 71.1553 16.4511 71.1608C16.4451 71.1663 16.4392 71.1719 16.4335 71.1775C16.4277 71.1832 16.4221 71.189 16.4165 71.195C16.411 71.2009 16.4057 71.2069 16.4005 71.213C16.3952 71.2191 16.3901 71.2253 16.3852 71.2316C16.3803 71.2379 16.3755 71.2443 16.3709 71.2507C16.3662 71.2572 16.3617 71.2637 16.3574 71.2703C16.3531 71.2769 16.3489 71.2836 16.345 71.2904C16.341 71.2971 16.3371 71.3039 16.3335 71.3108C16.3298 71.3177 16.3263 71.3246 16.323 71.3316C16.3197 71.3385 16.3165 71.3456 16.3136 71.3526C16.3106 71.3597 16.3078 71.3668 16.3052 71.3739C16.3026 71.381 16.3002 71.3882 16.2979 71.3954C16.2957 71.4026 16.2936 71.4098 16.2917 71.417C16.2899 71.4242 16.2882 71.4314 16.2867 71.4387C16.2852 71.4459 16.2838 71.4531 16.2827 71.4604C16.2816 71.4676 16.2806 71.4749 16.2799 71.4821C16.2792 71.4893 16.2786 71.4965 16.2782 71.5037C16.2779 71.5109 16.2777 71.5181 16.2777 71.5252C16.2777 71.5323 16.278 71.5394 16.2784 71.5465C16.2788 71.5536 16.2794 71.5606 16.2801 71.5676C16.2809 71.5746 16.2819 71.5815 16.2831 71.5884C16.2842 71.5953 16.2856 71.6021 16.2871 71.6088C16.2887 71.6156 16.2904 71.6223 16.2923 71.6289C16.2942 71.6355 16.2963 71.6421 16.2986 71.6486C16.3009 71.655 16.3034 71.6614 16.306 71.6677C16.3086 71.6741 16.3115 71.6803 16.3145 71.6864C16.3175 71.6925 16.3207 71.6986 16.324 71.7045C16.3274 71.7104 16.3309 71.7162 16.3346 71.7219C16.3383 71.7277 16.3421 71.7333 16.3462 71.7388C16.3502 71.7443 16.3544 71.7496 16.3587 71.7549C16.3631 71.7602 16.3676 71.7653 16.3723 71.7703C16.3769 71.7753 16.3818 71.7802 16.3867 71.7849C16.3917 71.7897 16.3968 71.7943 16.402 71.7987C16.4073 71.8032 16.4127 71.8075 16.4182 71.8117C16.4237 71.8159 16.4294 71.8199 16.4352 71.8238C16.441 71.8277 16.4469 71.8314 16.453 71.835C16.459 71.8386 16.4652 71.842 16.4714 71.8453C16.4777 71.8486 16.4841 71.8517 16.4906 71.8546C16.4971 71.8576 16.5037 71.8604 16.5104 71.863C16.5171 71.8656 16.5239 71.8681 16.5308 71.8704C16.5377 71.8727 16.5447 71.8748 16.5517 71.8767C16.5588 71.8787 16.5659 71.8804 16.5732 71.882C16.5804 71.8836 16.5877 71.8851 16.595 71.8863C16.6024 71.8876 16.6098 71.8887 16.6173 71.8896C16.6247 71.8905 16.6323 71.8912 16.6398 71.8917C16.6474 71.8923 16.655 71.8927 16.6627 71.8929C16.6703 71.8931 16.678 71.8931 16.6858 71.8929C16.6935 71.8928 16.7012 71.8924 16.709 71.8919C16.7167 71.8914 16.7245 71.8907 16.7323 71.8898C16.7401 71.8889 16.7479 71.8879 16.7557 71.8867C16.7635 71.8855 16.7713 71.8841 16.7791 71.8825C16.7869 71.8809 16.7947 71.8792 16.8024 71.8773C16.8102 71.8754 16.8179 71.8733 16.8257 71.871C16.8334 71.8688 16.8411 71.8663 16.8487 71.8637C16.8564 71.8612 16.864 71.8584 16.8715 71.8555C16.8791 71.8526 16.8866 71.8495 16.8941 71.8462C16.9015 71.843 16.9089 71.8396 16.9163 71.8361C16.9236 71.8325 16.9309 71.8288 16.9381 71.8249C16.9453 71.8211 16.9524 71.8171 16.9595 71.8129C16.9665 71.8088 16.9735 71.8045 16.9803 71.8L20.34 69.629C20.3468 69.6246 20.3536 69.62 20.3603 69.6153C20.367 69.6106 20.3736 69.6057 20.38 69.6007C20.3865 69.5958 20.3929 69.5907 20.3991 69.5854C20.4054 69.5802 20.4115 69.5749 20.4176 69.5694C20.4236 69.5639 20.4295 69.5583 20.4352 69.5526C20.441 69.5469 20.4466 69.5411 20.4521 69.5352C20.4576 69.5293 20.463 69.5233 20.4682 69.5172C20.4735 69.5111 20.4786 69.5049 20.4835 69.4986C20.4884 69.4923 20.4932 69.4859 20.4978 69.4795C20.5025 69.473 20.507 69.4665 20.5113 69.4598C20.5156 69.4532 20.5197 69.4466 20.5237 69.4398C20.5277 69.4331 20.5316 69.4262 20.5352 69.4194C20.5389 69.4125 20.5424 69.4056 20.5457 69.3986C20.549 69.3916 20.5521 69.3846 20.5551 69.3776C20.5581 69.3705 20.5609 69.3634 20.5635 69.3563C20.5661 69.3491 20.5685 69.342 20.5708 69.3348C20.573 69.3276 20.5751 69.3204 20.577 69.3132C20.5788 69.306 20.5805 69.2987 20.582 69.2915C20.5835 69.2843 20.5849 69.277 20.586 69.2698C20.5871 69.2625 20.588 69.2553 20.5888 69.2481C20.5895 69.2409 20.5901 69.2337 20.5905 69.2265C20.5908 69.2193 20.591 69.2121 20.591 69.205C20.5909 69.1978 20.5907 69.1907 20.5903 69.1837C20.5899 69.1766 20.5893 69.1696 20.5886 69.1626C20.5878 69.1556 20.5868 69.1487 20.5856 69.1418C20.5845 69.1349 20.5831 69.1281 20.5816 69.1213C20.58 69.1146 20.5783 69.1079 20.5764 69.1013C20.5745 69.0946 20.5724 69.0881 20.5701 69.0816C20.5678 69.0751 20.5653 69.0687 20.5627 69.0624C20.56 69.0561 20.5572 69.0499 20.5542 69.0438C20.5512 69.0377 20.548 69.0316 20.5447 69.0257C20.5413 69.0198 20.5378 69.0139 20.5341 69.0082C20.5304 69.0025 20.5266 68.9969 20.5225 68.9914C20.5185 68.9859 20.5143 68.9805 20.51 68.9753C20.5056 68.97 20.5011 68.9649 20.4964 68.9599C20.4918 68.9549 20.4869 68.95 20.482 68.9453C20.477 68.9405 20.4719 68.9359 20.4667 68.9314C20.4614 68.927 20.456 68.9226 20.4505 68.9185C20.4449 68.9143 20.4393 68.9103 20.4335 68.9064C20.4277 68.9025 20.4218 68.8987 20.4157 68.8951C20.4097 68.8916 20.4035 68.8881 20.3972 68.8849C20.391 68.8816 20.3846 68.8785 20.3781 68.8755C20.3716 68.8726 20.365 68.8698 20.3583 68.8672C20.3516 68.8646 20.3448 68.8621 20.3379 68.8598C20.331 68.8575 20.324 68.8554 20.317 68.8535C20.3099 68.8515 20.3027 68.8497 20.2955 68.8481C20.2883 68.8465 20.281 68.8451 20.2737 68.8438C20.2663 68.8426 20.2589 68.8415 20.2514 68.8406C20.244 68.8397 20.2364 68.839 20.2289 68.8384C20.2213 68.8379 20.2137 68.8375 20.206 68.8373C20.1984 68.8371 20.1907 68.8371 20.1829 68.8373C20.1752 68.8374 20.1675 68.8378 20.1597 68.8383C20.1519 68.8388 20.1442 68.8395 20.1364 68.8404C20.1286 68.8412 20.1208 68.8423 20.113 68.8435C20.1052 68.8447 20.0974 68.8461 20.0896 68.8477C20.0818 68.8493 20.074 68.851 20.0662 68.8529C20.0585 68.8548 20.0507 68.8569 20.043 68.8592C20.0353 68.8614 20.0276 68.8638 20.02 68.8664C20.0123 68.869 20.0047 68.8718 19.9972 68.8747C19.9896 68.8776 19.9821 68.8807 19.9746 68.8839C19.9672 68.8872 19.9598 68.8906 19.9524 68.8941C19.9451 68.8977 19.9378 68.9014 19.9306 68.9052C19.9234 68.9091 19.9163 68.9131 19.9092 68.9173C19.9022 68.9214 19.8952 68.9257 19.8883 68.9301ZM18.684 67.0665L15.3244 69.2375C15.3175 69.2419 15.3108 69.2465 15.3041 69.2512C15.2974 69.2559 15.2908 69.2608 15.2843 69.2657C15.2779 69.2707 15.2715 69.2758 15.2652 69.2811C15.259 69.2863 15.2528 69.2916 15.2468 69.2971C15.2408 69.3026 15.2349 69.3082 15.2292 69.3139C15.2234 69.3196 15.2177 69.3254 15.2122 69.3313C15.2067 69.3372 15.2014 69.3432 15.1961 69.3493C15.1909 69.3554 15.1858 69.3616 15.1809 69.3679C15.176 69.3742 15.1712 69.3806 15.1665 69.387C15.1619 69.3935 15.1574 69.4 15.1531 69.4066C15.1488 69.4133 15.1446 69.4199 15.1406 69.4267C15.1366 69.4334 15.1328 69.4403 15.1292 69.4471C15.1255 69.454 15.122 69.4609 15.1187 69.4679C15.1154 69.4749 15.1122 69.4819 15.1093 69.4889C15.1063 69.496 15.1035 69.5031 15.1009 69.5102C15.0983 69.5174 15.0959 69.5245 15.0936 69.5317C15.0914 69.5389 15.0893 69.5461 15.0874 69.5533C15.0855 69.5605 15.0838 69.5677 15.0823 69.575C15.0808 69.5822 15.0795 69.5895 15.0784 69.5967C15.0773 69.604 15.0763 69.6112 15.0756 69.6184C15.0749 69.6256 15.0743 69.6328 15.0739 69.64C15.0736 69.6472 15.0734 69.6544 15.0734 69.6615C15.0734 69.6686 15.0736 69.6758 15.074 69.6828C15.0744 69.6899 15.075 69.6969 15.0758 69.7039C15.0766 69.7109 15.0776 69.7178 15.0788 69.7247C15.0799 69.7316 15.0813 69.7384 15.0828 69.7452C15.0844 69.7519 15.0861 69.7586 15.088 69.7652C15.0899 69.7719 15.092 69.7784 15.0943 69.7849C15.0966 69.7914 15.099 69.7978 15.1017 69.8041C15.1043 69.8104 15.1072 69.8166 15.1102 69.8227C15.1132 69.8288 15.1163 69.8349 15.1197 69.8408C15.1231 69.8467 15.1266 69.8526 15.1303 69.8583C15.134 69.864 15.1378 69.8696 15.1419 69.8751C15.1459 69.8806 15.1501 69.886 15.1544 69.8912C15.1588 69.8965 15.1633 69.9016 15.1679 69.9066C15.1726 69.9116 15.1774 69.9165 15.1824 69.9212C15.1874 69.926 15.1925 69.9306 15.1977 69.935C15.203 69.9395 15.2084 69.9438 15.2139 69.948C15.2194 69.9522 15.2251 69.9562 15.2309 69.9601C15.2367 69.964 15.2426 69.9678 15.2487 69.9713C15.2547 69.9749 15.2609 69.9784 15.2671 69.9816C15.2734 69.9849 15.2798 69.988 15.2863 69.9909C15.2928 69.9939 15.2994 69.9967 15.3061 69.9993C15.3128 70.0019 15.3196 70.0044 15.3265 70.0067C15.3334 70.009 15.3404 70.0111 15.3474 70.013C15.3545 70.015 15.3616 70.0168 15.3689 70.0183C15.3761 70.02 15.3833 70.0214 15.3907 70.0226C15.3981 70.0239 15.4055 70.025 15.413 70.0259C15.4204 70.0268 15.4279 70.0275 15.4355 70.0281C15.4431 70.0286 15.4507 70.029 15.4584 70.0292C15.466 70.0294 15.4737 70.0294 15.4814 70.0292C15.4891 70.0291 15.4969 70.0287 15.5047 70.0282C15.5124 70.0277 15.5202 70.027 15.528 70.0261C15.5358 70.0253 15.5436 70.0242 15.5514 70.023C15.5592 70.0218 15.567 70.0204 15.5748 70.0188C15.5826 70.0173 15.5904 70.0155 15.5981 70.0136C15.6059 70.0117 15.6136 70.0096 15.6213 70.0073C15.6291 70.0051 15.6367 70.0027 15.6444 70.0001C15.6521 69.9975 15.6597 69.9947 15.6672 69.9918C15.6748 69.9889 15.6823 69.9858 15.6898 69.9826C15.6972 69.9793 15.7046 69.9759 15.712 69.9724C15.7193 69.9688 15.7266 69.9651 15.7338 69.9613C15.741 69.9574 15.7481 69.9534 15.7552 69.9492C15.7622 69.9451 15.7692 69.9408 15.776 69.9363L19.1357 67.7654C19.1425 67.7609 19.1493 67.7563 19.156 67.7516C19.1627 67.7469 19.1692 67.7421 19.1757 67.7371C19.1822 67.7321 19.1886 67.727 19.1948 67.7217C19.2011 67.7165 19.2072 67.7112 19.2132 67.7057C19.2193 67.7002 19.2252 67.6946 19.2309 67.6889C19.2367 67.6833 19.2423 67.6774 19.2478 67.6715C19.2533 67.6656 19.2587 67.6596 19.2639 67.6535C19.2691 67.6474 19.2742 67.6412 19.2792 67.6349C19.2841 67.6286 19.2889 67.6222 19.2935 67.6158C19.2982 67.6093 19.3026 67.6028 19.307 67.5962C19.3113 67.5896 19.3154 67.5829 19.3194 67.5761C19.3234 67.5694 19.3272 67.5626 19.3309 67.5557C19.3346 67.5488 19.3381 67.5419 19.3414 67.5349C19.3447 67.528 19.3478 67.5209 19.3508 67.5139C19.3538 67.5068 19.3566 67.4997 19.3592 67.4926C19.3618 67.4854 19.3642 67.4783 19.3665 67.4711C19.3687 67.4639 19.3708 67.4567 19.3726 67.4495C19.3745 67.4423 19.3762 67.4351 19.3777 67.4278C19.3792 67.4206 19.3805 67.4133 19.3817 67.4061C19.3828 67.3988 19.3837 67.3916 19.3845 67.3844C19.3852 67.3772 19.3858 67.37 19.3861 67.3628C19.3865 67.3556 19.3867 67.3484 19.3866 67.3413C19.3866 67.3342 19.3864 67.3271 19.386 67.32C19.3856 67.3129 19.385 67.3059 19.3842 67.2989C19.3835 67.2919 19.3825 67.285 19.3813 67.2781C19.3801 67.2712 19.3788 67.2644 19.3773 67.2577C19.3757 67.2509 19.374 67.2442 19.3721 67.2376C19.3702 67.2309 19.3681 67.2244 19.3658 67.2179C19.3635 67.2114 19.361 67.2051 19.3584 67.1987C19.3557 67.1924 19.3529 67.1862 19.3499 67.1801C19.3469 67.174 19.3437 67.1679 19.3404 67.162C19.337 67.1561 19.3335 67.1502 19.3298 67.1445C19.3261 67.1388 19.3222 67.1332 19.3182 67.1277C19.3142 67.1222 19.31 67.1168 19.3056 67.1116C19.3013 67.1063 19.2968 67.1012 19.2921 67.0962C19.2874 67.0912 19.2826 67.0863 19.2777 67.0816C19.2727 67.0768 19.2676 67.0722 19.2623 67.0678C19.2571 67.0633 19.2517 67.059 19.2462 67.0548C19.2406 67.0506 19.235 67.0466 19.2292 67.0427C19.2234 67.0388 19.2174 67.035 19.2114 67.0315C19.2054 67.0279 19.1992 67.0245 19.1929 67.0212C19.1867 67.0179 19.1803 67.0148 19.1738 67.0119C19.1673 67.0089 19.1607 67.0061 19.154 67.0035C19.1472 67.0009 19.1404 66.9984 19.1336 66.9961C19.1267 66.9938 19.1197 66.9917 19.1126 66.9898C19.1056 66.9878 19.0984 66.9861 19.0912 66.9845C19.084 66.9828 19.0767 66.9814 19.0694 66.9802C19.062 66.9789 19.0546 66.9778 19.0471 66.9769C19.0396 66.976 19.0321 66.9753 19.0246 66.9747C19.017 66.9742 19.0094 66.9738 19.0017 66.9736C18.994 66.9734 18.9863 66.9734 18.9786 66.9736C18.9709 66.9737 18.9632 66.9741 18.9554 66.9746C18.9476 66.9751 18.9398 66.9758 18.9321 66.9767C18.9243 66.9775 18.9165 66.9786 18.9087 66.9798C18.9009 66.981 18.8931 66.9824 18.8853 66.984C18.8775 66.9856 18.8697 66.9873 18.8619 66.9892C18.8542 66.9911 18.8464 66.9932 18.8387 66.9955C18.831 66.9977 18.8233 67.0002 18.8157 67.0027C18.808 67.0053 18.8004 67.0081 18.7928 67.011C18.7853 67.0139 18.7778 67.017 18.7703 67.0202C18.7628 67.0235 18.7554 67.0269 18.7481 67.0304C18.7408 67.034 18.7335 67.0377 18.7263 67.0415C18.7191 67.0454 18.712 67.0494 18.7049 67.0536C18.6979 67.0577 18.6909 67.062 18.684 67.0665Z"   fill="#A72D22" >
</path>
<g >
<path     fill="#A72D22"  d="M36.27 64.69L42.74 64.69L42.74 67.55L36.27 67.55L36.27 64.69ZM41.99 65.86L41.99 65.32L37.03 65.32L37.03 65.86L41.99 65.86ZM37.03 66.4L37.03 66.94L41.99 66.94L41.99 66.4L37.03 66.4ZM39.96 72.39L39.25 72.48L39.25 73.55L38.53 73.55L38.53 72.57Q35.59 72.93 35.09 73.01L35.02 72.34L35.91 72.24L35.91 68.74L34.96 68.74L34.96 68.12L44.05 68.12L44.05 68.74L39.25 68.74L39.25 71.81L39.92 71.72L39.96 72.39ZM38.53 69.46L38.53 68.74L36.65 68.74L36.65 69.46L38.53 69.46ZM43.78 73.55Q42.61 73.07 41.85 72.43Q41.08 73.09 40 73.55L39.65 72.88Q40.61 72.48 41.32 71.91Q40.65 71.16 40.23 70.03L39.85 70.03L39.85 69.37L43.54 69.37L43.54 70.07Q43.05 71.19 42.37 71.93Q43.03 72.42 44.11 72.8L43.78 73.55ZM38.53 70.03L36.65 70.03L36.65 70.74L38.53 70.74L38.53 70.03ZM40.94 70.03Q41.28 70.88 41.82 71.45Q42.38 70.84 42.72 70.03L40.94 70.03ZM36.65 72.14Q37.37 72.06 38.53 71.9L38.53 71.3L36.65 71.3L36.65 72.14ZM53.97 65.23L53.97 65.91L45.06 65.91L45.06 65.23L49.18 65.23Q49.06 64.97 48.82 64.49L49.64 64.23Q49.92 64.76 50.12 65.23L53.97 65.23ZM46.5 68.43L46.5 66.54L52.53 66.54L52.53 68.43L46.5 68.43ZM47.29 67.86L51.74 67.86L51.74 67.11L47.29 67.11L47.29 67.86ZM45.67 73.44L45.67 69.04L53.37 69.04L53.37 72.28Q53.37 72.74 53.25 72.985Q53.13 73.23 52.86 73.33Q52.59 73.43 52.09 73.43Q51.64 73.43 51.19 73.37L51.05 72.68Q51.58 72.76 52.05 72.76Q52.38 72.76 52.5 72.605Q52.62 72.45 52.62 72.09L52.62 69.69L46.41 69.69L46.41 73.44L45.67 73.44ZM47.55 70.28L51.48 70.28L51.48 72.26L47.55 72.26L47.55 70.28ZM48.31 71.65L50.72 71.65L50.72 70.88L48.31 70.88L48.31 71.65ZM57.85 64.62Q57.52 65.69 57 66.82L57 73.49L56.22 73.49L56.22 68.31Q55.7 69.16 55.21 69.76L54.83 68.91Q55.46 68.14 56.065 66.905Q56.67 65.67 57.06 64.39L57.85 64.62ZM63.88 67.5L60.36 67.5Q60.29 68.82 60.05 69.8Q59.81 70.78 59.32 71.655Q58.83 72.53 58 73.48L57.33 72.93Q58.12 72.07 58.57 71.295Q59.02 70.52 59.235 69.64Q59.45 68.76 59.53 67.5L57.6 67.5L57.6 66.72L59.58 66.72L59.58 66.62Q59.6 66.08 59.61 65.405Q59.62 64.73 59.62 64.39L60.43 64.39L60.39 66.64L60.39 66.72L63.88 66.72L63.88 67.5ZM62.73 66.47Q62.45 66.17 61.985 65.725Q61.52 65.28 61.24 65.05L61.74 64.52Q62.02 64.75 62.485 65.18Q62.95 65.61 63.24 65.91L62.73 66.47ZM63.91 70.8Q63.91 71.07 63.895 71.47Q63.88 71.87 63.87 72.12Q63.85 72.59 63.755 72.805Q63.66 73.02 63.44 73.105Q63.22 73.19 62.73 73.23Q62.57 73.25 62.23 73.25Q61.9 73.25 61.73 73.23Q61.37 73.2 61.175 73.1Q60.98 73 60.895 72.76Q60.81 72.52 60.81 72.07L60.81 67.9L61.59 67.9L61.59 71.85Q61.59 72.1 61.63 72.22Q61.67 72.34 61.765 72.39Q61.86 72.44 62.06 72.46Q62.15 72.47 62.32 72.47Q62.49 72.47 62.57 72.46Q62.8 72.43 62.905 72.385Q63.01 72.34 63.055 72.225Q63.1 72.11 63.11 71.87Q63.12 71.64 63.135 71.255Q63.15 70.87 63.15 70.64L63.91 70.8ZM69.15 66.36L69.15 65.77L65.2 65.77L65.2 65.11L69.15 65.11L69.15 64.36L69.86 64.36L69.86 65.11L73.8 65.11L73.8 65.77L69.86 65.77L69.86 66.36L73 66.36L73 69.22L72.58 69.22Q73.01 69.69 73.65 70.47L73.04 70.96L72.81 70.65L72.63 70.39L65.23 70.72L65.21 70.04L65.82 70.03Q66.13 70.02 66.93 70Q67.73 69.98 69.15 69.94L69.15 69.22L65.96 69.22L65.96 66.36L69.15 66.36ZM69.15 67.52L69.15 66.97L66.73 66.97L66.73 67.52L69.15 67.52ZM72.23 67.52L72.23 66.97L69.86 66.97L69.86 67.52L72.23 67.52ZM66.73 68.04L66.73 68.62L69.15 68.62L69.15 68.04L66.73 68.04ZM72.23 68.04L69.86 68.04L69.86 68.62L72.23 68.62L72.23 68.04ZM72.19 69.85Q72 69.61 71.81 69.41L72.07 69.22L69.86 69.22L69.86 69.92L72.19 69.85ZM69.53 70.64Q70.06 71.12 70.63 71.75L70.11 72.24Q69.7 71.74 69.05 71.11L69.53 70.64ZM72.6 70.85Q72.87 71.2 73.235 71.78Q73.6 72.36 73.83 72.78L73.13 73.14Q72.89 72.68 72.575 72.14Q72.26 71.6 71.99 71.21L72.6 70.85ZM64.98 72.86Q65.63 72.08 66.16 70.92L66.82 71.26Q66.27 72.5 65.65 73.27L64.98 72.86ZM71.04 72.17Q71.07 71.84 71.07 71.61L71.81 71.77Q71.81 71.97 71.75 72.45Q71.71 72.79 71.615 72.96Q71.52 73.13 71.32 73.205Q71.12 73.28 70.72 73.31Q70.21 73.35 69.58 73.35Q68.95 73.35 68.44 73.31Q67.88 73.27 67.635 73.06Q67.39 72.85 67.39 72.37L67.39 71.04L68.2 71.04L68.2 72.11Q68.2 72.41 68.305 72.515Q68.41 72.62 68.7 72.64Q69.3 72.68 69.61 72.68Q69.91 72.68 70.51 72.64Q70.8 72.62 70.91 72.53Q71.02 72.44 71.04 72.17ZM75.49 67.61L75.49 66.69L77.62 65.45L78.3 65.45L78.3 72.78L77.4 72.78L77.4 66.52L75.49 67.61ZM81.19 67.61L81.19 66.69L83.32 65.45L84 65.45L84 72.78L83.1 72.78L83.1 66.52L81.19 67.61ZM87.29 65.02L94.54 65.02L94.54 65.84L87.29 65.84L87.29 65.02ZM95.34 68.46L92.38 68.46L92.38 71.61Q92.38 72.04 92.515 72.21Q92.65 72.38 92.99 72.42Q93.25 72.44 93.37 72.44Q93.51 72.44 93.75 72.42Q94.04 72.38 94.185 72.31Q94.33 72.24 94.39 72.085Q94.45 71.93 94.47 71.62Q94.51 70.7 94.51 70.44L95.33 70.62Q95.33 70.91 95.315 71.295Q95.3 71.68 95.28 71.97Q95.25 72.43 95.115 72.685Q94.98 72.94 94.7 73.065Q94.42 73.19 93.92 73.23Q93.73 73.25 93.33 73.25Q92.94 73.25 92.74 73.23Q92.1 73.18 91.81 72.86Q91.52 72.54 91.52 71.8L91.52 68.46L89.71 68.46Q89.71 69.21 89.7 69.44Q89.67 70.38 89.425 71.055Q89.18 71.73 88.6 72.33Q88.02 72.93 86.96 73.59L86.37 72.88Q87.37 72.35 87.895 71.845Q88.42 71.34 88.615 70.79Q88.81 70.24 88.83 69.44Q88.84 69.22 88.84 68.46L86.48 68.46L86.48 67.64L95.34 67.64L95.34 68.46Z">
</path>
</g>
<g >
<path     fill="#784507"  d="M17.499 85.59L17.499 87.537L16.575 87.537L16.575 86.415L9.326 86.415L9.326 87.537L8.391 87.537L8.391 85.59L12.56 85.59L12.12 84.578L13.132 84.325Q13.209 84.534 13.341 84.809Q13.407 84.963 13.495 85.1665Q13.583 85.37 13.671 85.59L17.499 85.59ZM16.3 90.133L10.503 90.133L10.503 91.167L16.597 91.167L16.597 94.533L15.706 94.533L15.706 93.983L10.503 93.983L10.503 94.588L9.612 94.588L9.612 87.471L16.3 87.471L16.3 90.133ZM15.398 89.363L15.398 88.252L10.503 88.252L10.503 89.363L15.398 89.363ZM15.706 93.224L15.706 91.937L10.503 91.937L10.503 93.224L15.706 93.224ZM22.944 86.866L22.867 88.307L22.845 88.56L27.575 88.56Q27.564 89.462 27.4705 90.6775Q27.377 91.893 27.267 92.498Q27.135 93.213 26.9315 93.5705Q26.728 93.928 26.332 94.0765Q25.936 94.225 25.177 94.225Q24.517 94.225 23.615 94.148L23.439 93.29Q24.352 93.4 25.078 93.4Q25.529 93.4 25.771 93.301Q26.013 93.202 26.145 92.949Q26.277 92.696 26.376 92.179Q26.596 91.057 26.618 89.451L22.757 89.451Q22.603 90.551 22.2785 91.4035Q21.954 92.256 21.382 93.0205Q20.81 93.785 19.875 94.61L19.193 93.851Q20.205 92.993 20.766 92.2285Q21.327 91.464 21.5965 90.529Q21.866 89.594 21.965 88.186Q21.998 87.724 22.02 86.866L19.127 86.866L19.127 85.997L23.813 85.997Q23.362 84.897 23.219 84.622L24.099 84.325L24.715 85.711L24.836 85.997L28.906 85.997L28.906 86.866L22.944 86.866Z">
</path>
<path     fill="#A6A6A6"  d="M32.7841 94.929L32.7841 84.743L33.6751 84.743L33.6751 94.929L32.7841 94.929Z">
</path>
<path     fill="#D6645A"  d="M47.4643 85.139L47.4643 85.986L46.0123 85.986L46.0123 92.795Q46.0123 93.433 45.8803 93.763Q45.7483 94.093 45.3963 94.2305Q45.0443 94.368 44.3513 94.368Q43.5263 94.368 42.9323 94.313L42.7563 93.455Q43.5703 93.543 44.2743 93.543Q44.6373 93.543 44.8188 93.455Q45.0003 93.367 45.0718 93.158Q45.1433 92.949 45.1433 92.553L45.1433 85.986L37.5093 85.986L37.5093 85.139L47.4643 85.139ZM38.7303 87.603L43.1743 87.603L43.1743 91.937L38.7303 91.937L38.7303 87.603ZM39.5663 91.101L42.3273 91.101L42.3273 88.45L39.5663 88.45L39.5663 91.101ZM50.7313 87.35Q50.3793 86.833 49.8843 86.1565Q49.3893 85.48 49.0923 85.106L49.8293 84.556Q50.1263 84.919 50.6213 85.59Q51.1163 86.261 51.4683 86.756L50.7313 87.35ZM58.5413 85.271L58.5413 86.151L56.3413 86.151L56.3413 92.872Q56.3413 93.653 56.0168 93.9885Q55.6923 94.324 54.9003 94.335Q54.1963 94.357 53.4813 94.269L53.2943 93.356Q53.9763 93.455 54.6473 93.455Q55.0653 93.455 55.2303 93.257Q55.3953 93.059 55.3953 92.597L55.3953 86.151L52.2383 86.151L52.2383 85.271L58.5413 85.271ZM50.8853 92.443L52.4803 91.266L52.8103 92.234L52.4693 92.454Q52.3593 92.52 51.7928 92.8995Q51.2263 93.279 50.8083 93.62Q50.4343 93.906 50.2033 94.137L49.6313 93.389Q49.8183 93.213 49.8898 93.081Q49.9613 92.949 49.9613 92.762L49.9613 88.978L48.4213 88.978L48.4213 88.043L50.8853 88.043L50.8853 92.443ZM68.8153 85.051L68.8153 93.037Q68.8153 93.62 68.6723 93.9005Q68.5293 94.181 68.2103 94.28Q67.8913 94.379 67.2643 94.379Q66.9673 94.379 66.3513 94.335L66.1863 93.477Q66.9783 93.565 67.3743 93.565Q67.7263 93.565 67.8583 93.411Q67.9903 93.257 67.9903 92.817L67.9903 91.211L65.2733 91.211Q65.1193 92.245 64.7398 92.9985Q64.3603 93.752 63.6343 94.643L62.9303 94.093Q63.6563 93.257 63.9863 92.63Q64.3163 92.003 64.4263 91.1615Q64.5363 90.32 64.5363 88.714L64.5363 85.051L68.8153 85.051ZM59.9493 85.282L63.3263 85.282L63.3263 92.883L59.9493 92.883L59.9493 85.282ZM67.9903 87.79L67.9903 85.909L65.3943 85.909L65.3943 87.79L67.9903 87.79ZM62.5343 88.516L62.5343 86.14L60.7413 86.14L60.7413 88.516L62.5343 88.516ZM67.9903 90.386L67.9903 88.615L65.3943 88.615L65.3943 89.154Q65.3943 89.825 65.3613 90.386L67.9903 90.386ZM60.7413 89.363L60.7413 92.014L62.5343 92.014L62.5343 89.363L60.7413 89.363ZM71.8623 94.412L71.8623 85.172L79.1333 85.172L79.1333 94.401L78.2203 94.401L78.2203 93.664L72.7863 93.664L72.7863 94.412L71.8623 94.412ZM78.2203 88.879L78.2203 86.074L72.7863 86.074L72.7863 88.879L78.2203 88.879ZM72.7863 89.77L72.7863 92.74L78.2203 92.74L78.2203 89.77L72.7863 89.77Z">
</path>
<path     fill="#E5E5E5"  d="M84.2434 94.929L84.2434 84.743L85.1344 84.743L85.1344 94.929L84.2434 94.929ZM141.973 94.929L141.973 84.743L142.864 84.743L142.864 94.929L141.973 94.929Z">
</path>
<path     fill="#808080"  d="M92.6646 89.407Q93.3906 89.638 93.7481 90.155Q94.1056 90.672 94.1056 91.431Q94.1056 92.179 93.7536 92.7235Q93.4016 93.268 92.8186 93.5485Q92.2356 93.829 91.5426 93.829Q90.6626 93.829 89.9201 93.378Q89.1776 92.927 88.9246 92.058L89.7166 91.607Q89.9256 92.267 90.4371 92.6025Q90.9486 92.938 91.5426 92.938Q92.1916 92.938 92.6261 92.5365Q93.0606 92.135 93.0606 91.42Q93.0606 89.946 91.0476 89.946L90.7066 89.946L90.7176 89.066L91.1026 89.066Q91.9166 89.066 92.3401 88.67Q92.7636 88.274 92.7636 87.658Q92.7636 87.075 92.4006 86.745Q92.0376 86.415 91.4656 86.415Q90.8716 86.415 90.4591 86.767Q90.0466 87.119 89.8266 87.779L89.0346 87.328Q89.2986 86.437 89.9641 85.9805Q90.6296 85.524 91.5206 85.524Q92.5546 85.524 93.1816 86.107Q93.8086 86.69 93.8086 87.636Q93.8086 88.241 93.5281 88.703Q93.2476 89.165 92.6646 89.407ZM100.651 89.22Q101.113 90.727 102.202 91.783Q103.291 92.839 105.161 93.631L104.688 94.5Q102.884 93.62 101.817 92.6465Q100.75 91.673 100.233 90.375Q99.2316 92.795 95.7446 94.5L95.2386 93.686Q97.2296 92.762 98.3186 91.651Q99.4076 90.54 99.6276 89.22L95.5026 89.22L95.5026 88.395L99.6826 88.395L99.6826 86.063L95.9976 86.063L95.9976 85.205L104.325 85.205L104.325 86.063L100.596 86.063L100.596 88.395L104.82 88.395L104.82 89.22L100.651 89.22ZM116.15 86.536L110.21 86.536Q109.858 87.174 109.473 87.735L114.885 87.735L114.885 93.158Q114.885 93.829 114.637 94.1315Q114.39 94.434 113.807 94.434Q113.048 94.434 112.267 94.368L112.113 93.543Q112.872 93.631 113.543 93.631Q113.818 93.631 113.917 93.4715Q114.016 93.312 114.016 92.916L114.016 92.388L109.011 92.388L109.011 94.478L108.142 94.478L108.142 89.385Q107.372 90.188 106.492 90.881L106.074 89.99Q108.043 88.516 109.209 86.536L106.448 86.536L106.448 85.7L109.649 85.7Q109.957 85.04 110.177 84.369L111.112 84.556Q110.848 85.216 110.628 85.7L116.15 85.7L116.15 86.536ZM109.011 89.682L114.016 89.682L114.016 88.516L109.011 88.516L109.011 89.682ZM109.011 90.43L109.011 91.629L114.016 91.629L114.016 90.43L109.011 90.43ZM122.167 85.997L122.167 86.888L117.272 86.888L117.272 85.997L119.505 85.997Q119.263 85.326 118.977 84.677L119.78 84.402Q120.132 85.26 120.363 85.997L122.167 85.997ZM125.093 91.497Q125.94 92.773 127.315 93.851L126.754 94.632Q125.478 93.62 124.598 92.333Q123.806 93.51 122.442 94.654L121.848 93.917Q123.289 92.817 124.103 91.53Q123.333 90.089 122.992 88.252Q122.64 88.857 122.541 89L122.013 88.296Q122.519 87.504 122.937 86.47Q123.355 85.436 123.531 84.49L124.4 84.611Q124.169 85.568 123.894 86.316L127.183 86.316L127.183 87.196L126.314 87.196Q126.149 88.516 125.857 89.561Q125.566 90.606 125.093 91.497ZM123.575 87.196Q123.85 89.176 124.587 90.639Q124.928 89.913 125.137 89.0715Q125.346 88.23 125.478 87.196L123.575 87.196ZM121.705 90.078Q120.935 88.758 120.165 87.702L120.781 87.262Q121.65 88.395 122.365 89.561L121.705 90.078ZM119.428 87.702Q118.504 89.385 117.613 90.353L117.03 89.825Q117.822 88.945 118.702 87.295L119.428 87.702ZM121.199 93.752Q120.649 93.07 119.978 92.289Q119.087 93.598 117.591 94.643L117.041 93.917Q117.833 93.4 118.41 92.8445Q118.988 92.289 119.417 91.64Q118.735 90.87 118.086 90.177L118.691 89.638Q119.351 90.298 119.857 90.859Q120.165 90.254 120.451 89.363L121.232 89.649Q120.891 90.694 120.451 91.508Q121.43 92.608 121.87 93.18L121.199 93.752ZM132.782 90.969L133.607 90.969L133.607 91.728L128.206 91.728L128.206 90.969L129.24 90.969L129.24 86.415L128.426 86.415L128.426 85.656L129.24 85.656L129.24 84.556L130.032 84.556L130.032 85.656L132.012 85.656L132.012 84.556L132.782 84.556L132.782 85.656L133.574 85.656L133.574 86.415L132.782 86.415L132.782 90.969ZM134.157 84.996L137.666 84.996L137.666 93.004Q137.666 93.763 137.396 94.06Q137.127 94.357 136.434 94.357Q135.961 94.357 135.477 94.291L135.301 93.466Q135.829 93.554 136.302 93.554Q136.632 93.554 136.753 93.3835Q136.874 93.213 136.874 92.806L136.874 91.09L134.894 91.09Q134.817 92.201 134.553 92.9215Q134.289 93.642 133.64 94.588L132.87 94.082Q133.486 93.268 133.744 92.663Q134.003 92.058 134.08 91.244Q134.157 90.43 134.157 88.78L134.157 84.996ZM136.874 87.68L136.874 85.854L134.949 85.854L134.949 87.68L136.874 87.68ZM132.012 87.438L132.012 86.415L130.032 86.415L130.032 87.438L132.012 87.438ZM132.012 88.186L130.032 88.186L130.032 89.209L132.012 89.209L132.012 88.186ZM136.874 90.276L136.874 88.472L134.949 88.472L134.949 89.198Q134.949 89.946 134.938 90.276L136.874 90.276ZM132.012 89.935L130.032 89.935L130.032 90.969L132.012 90.969L132.012 89.935ZM128.228 93.939Q129.064 93.18 129.867 91.926L130.549 92.399Q129.636 93.774 128.877 94.522L128.228 93.939ZM131.902 91.948Q132.034 92.146 132.32 92.542Q132.452 92.729 132.628 92.9765Q132.804 93.224 133.002 93.51L132.353 93.972L131.946 93.378Q131.451 92.63 131.253 92.388L131.902 91.948Z">
</path>
</g>
<g >
<path     fill="#A6A6A6"  d="M17.961 104.536L12.021 104.536Q11.669 105.174 11.284 105.735L16.696 105.735L16.696 111.158Q16.696 111.829 16.4485 112.132Q16.201 112.434 15.618 112.434Q14.859 112.434 14.078 112.368L13.924 111.543Q14.683 111.631 15.354 111.631Q15.629 111.631 15.728 111.471Q15.827 111.312 15.827 110.916L15.827 110.388L10.822 110.388L10.822 112.478L9.953 112.478L9.953 107.385Q9.183 108.188 8.303 108.881L7.885 107.99Q9.854 106.516 11.02 104.536L8.259 104.536L8.259 103.7L11.46 103.7Q11.768 103.04 11.988 102.369L12.923 102.556Q12.659 103.216 12.439 103.7L17.961 103.7L17.961 104.536ZM10.822 107.682L15.827 107.682L15.827 106.516L10.822 106.516L10.822 107.682ZM10.822 108.43L10.822 109.629L15.827 109.629L15.827 108.43L10.822 108.43ZM19.006 106.978Q21.162 106.648 22.966 106.01Q22.02 105.504 21.283 104.877Q20.59 105.471 19.765 105.999L19.303 105.273Q20.205 104.701 21.052 103.925Q21.899 103.15 22.427 102.446L23.252 102.853Q22.999 103.183 22.757 103.436L27.729 103.436L27.729 104.272Q26.596 105.284 25.111 106.021Q25.892 106.274 26.816 106.466Q27.74 106.659 29.038 106.879L28.84 107.693Q25.903 107.264 24.044 106.505Q22.02 107.33 19.237 107.814L19.006 106.978ZM21.921 104.305Q22.856 105.097 24 105.603Q25.485 104.965 26.464 104.184L22.053 104.184L21.921 104.305ZM28.477 109.134L24.517 109.134L24.517 111.059Q24.517 111.807 24.231 112.109Q23.945 112.412 23.241 112.412Q22.493 112.412 21.932 112.346L21.756 111.499Q22.427 111.576 22.922 111.576Q23.34 111.576 23.4885 111.4Q23.637 111.224 23.637 110.773L23.637 109.134L19.512 109.134L19.512 108.298L23.637 108.298L23.637 107.264L24.517 107.264L24.517 108.298L28.477 108.298L28.477 109.134ZM22.46 110.069Q21.371 111.169 19.38 112.324L18.896 111.499Q19.754 111.103 20.5405 110.564Q21.327 110.025 21.899 109.442L22.46 110.069ZM25.727 109.519Q25.892 109.607 27.476 110.531L28.939 111.378L28.466 112.203Q27.729 111.719 26.8545 111.169Q25.98 110.619 25.287 110.201L25.727 109.519ZM40.06 108.21L40.06 109.046L37.145 109.046L37.145 112.544L36.276 112.544L36.276 109.046L32.943 109.046L32.943 108.21L36.276 108.21L36.276 105.636L34.461 105.636Q34.12 106.681 33.79 107.429L32.954 107.11Q33.361 106.208 33.7185 105.135Q34.076 104.063 34.307 103.051L35.099 103.249Q34.978 103.821 34.725 104.767L36.276 104.767L36.276 102.424L37.145 102.424L37.145 104.767L39.664 104.767L39.664 105.636L37.145 105.636L37.145 108.21L40.06 108.21ZM33.042 102.71Q32.679 103.997 32.217 105.075L32.217 112.511L31.381 112.511L31.381 106.78Q30.875 107.682 30.248 108.474L29.841 107.495Q30.512 106.56 31.1665 105.163Q31.821 103.766 32.184 102.457L33.042 102.71ZM43.074 105.141Q42.766 104.756 42.2105 104.162Q41.655 103.568 41.314 103.271L41.908 102.633Q42.26 102.952 42.821 103.53Q43.382 104.107 43.712 104.492L43.074 105.141ZM45.329 110.652Q44.977 110.762 44.658 110.883L44.328 110.146Q44.548 110.014 44.6195 109.921Q44.691 109.827 44.691 109.673L44.691 102.963L49.905 102.963L49.905 107.275L45.494 107.275L45.494 109.805L47.507 109.2L47.661 109.992Q46.418 110.311 45.329 110.652ZM49.113 104.745L49.113 103.733L45.494 103.733L45.494 104.745L49.113 104.745ZM45.494 105.515L45.494 106.483L49.113 106.483L49.113 105.515L45.494 105.515ZM46.022 111.345Q47.694 111.389 48.519 111.389Q49.366 111.389 51.016 111.345L50.829 112.17Q49.685 112.214 48.255 112.214Q46.946 112.214 45.901 112.17Q45.153 112.137 44.6305 111.989Q44.108 111.84 43.69 111.526Q43.272 111.213 42.843 110.663L41.622 112.291L40.951 111.598L42.403 109.816L42.403 107.11L41.05 107.11L41.05 106.274L43.239 106.274L43.239 109.805Q43.635 110.377 44.0035 110.701Q44.372 111.026 44.845 111.174Q45.318 111.323 46.022 111.345ZM46.583 107.44Q47.111 107.781 48.145 108.485Q49.146 107.946 50.213 107.154L50.631 107.759Q49.784 108.353 48.772 108.914Q49.388 109.332 50.598 110.19L50.125 110.817Q48.002 109.222 46.198 107.968L46.583 107.44ZM54.7841 112.929L54.7841 102.743L55.6751 102.743L55.6751 112.929L54.7841 112.929ZM69.2443 106.263L69.2443 107.088L64.2833 107.088Q63.9753 108.848 63.0568 110.124Q62.1383 111.4 60.2573 112.533L59.7293 111.719Q61.4123 110.74 62.2538 109.651Q63.0953 108.562 63.3923 107.088L59.6743 107.088L59.6743 106.263L63.5243 106.263Q63.5683 105.889 63.6123 105.207Q63.6233 105.042 63.6233 104.816Q63.6233 104.591 63.6343 104.36L63.6453 103.964L60.3013 103.964L60.3013 103.139L68.6063 103.139L68.6063 103.964L64.5033 103.964L64.4923 104.404Q64.4813 104.635 64.4813 104.866Q64.4813 105.097 64.4703 105.262Q64.4593 105.625 64.3933 106.263L69.2443 106.263ZM68.3423 110.542Q68.3753 109.783 68.3753 109.277L69.2443 109.442L69.1783 110.916Q69.1563 111.389 69.0243 111.642Q68.8923 111.895 68.6118 112.01Q68.3313 112.126 67.8033 112.159Q67.3303 112.192 66.9123 112.192Q66.5053 112.192 66.0213 112.159Q65.3613 112.115 65.0753 111.824Q64.7893 111.532 64.7893 110.773L64.7893 107.682L65.6693 107.682L65.6693 110.531Q65.6693 110.96 65.8178 111.131Q65.9663 111.301 66.3293 111.323Q66.7913 111.345 66.9563 111.345Q67.1213 111.345 67.5833 111.323Q68.0233 111.29 68.1773 111.142Q68.3313 110.993 68.3423 110.542ZM75.0193 104.943L71.7523 104.943L71.7523 106.395L70.9493 106.395L70.9493 104.272L75.0193 104.272L75.0193 103.612L71.3123 103.612L71.3123 102.919L79.5843 102.919L79.5843 103.612L75.8663 103.612L75.8663 104.272L79.9473 104.272L79.9473 106.395L79.1333 106.395L79.1333 104.943L75.8663 104.943L75.8663 107.11L75.0193 107.11L75.0193 104.943ZM72.2693 105.471L74.4143 105.471L74.4143 105.988L72.2693 105.988L72.2693 105.471ZM76.4713 105.471L78.6053 105.471L78.6053 105.988L76.4713 105.988L76.4713 105.471ZM74.4143 107.011L72.2693 107.011L72.2693 106.505L74.4143 106.505L74.4143 107.011ZM78.6053 107.011L76.4713 107.011L76.4713 106.505L78.6053 106.505L78.6053 107.011ZM80.0903 108.254L75.7563 108.254Q75.6023 108.716 75.4373 109.112L79.4523 109.112L79.4523 111.521Q79.4523 112.016 79.2158 112.225Q78.9793 112.434 78.4183 112.434Q78.1543 112.434 77.6703 112.39L77.5163 111.631Q77.8133 111.697 78.1213 111.697Q78.3743 111.697 78.4733 111.587Q78.5723 111.477 78.5723 111.191L78.5723 109.794L76.9993 109.794L76.9993 112.126L76.2073 112.126L76.2073 109.794L74.6673 109.794L74.6673 112.126L73.8863 112.126L73.8863 109.794L72.3133 109.794L72.3133 112.423L71.4443 112.423L71.4443 109.112L74.5793 109.112Q74.6783 108.826 74.8653 108.254L70.8063 108.254L70.8063 107.572L80.0903 107.572L80.0903 108.254ZM86.8663 110.355L85.9973 110.487L86.0083 112.544L85.1833 112.544L85.1723 110.63Q83.7863 110.861 81.4763 111.268L81.3883 110.399Q81.7403 110.355 82.4003 110.245L82.4003 103.788L81.6963 103.788L81.6963 102.952L86.6573 102.952L86.6573 103.788L85.9643 103.788L85.9973 109.618L86.8223 109.464L86.8663 110.355ZM89.5063 109.244Q90.2653 110.509 91.6293 111.609L91.0463 112.346Q89.8033 111.29 89.0113 110.08Q88.2303 111.246 86.9873 112.346L86.4153 111.642Q87.7793 110.498 88.5383 109.244Q88.0433 108.265 87.7408 107.088Q87.4383 105.911 87.2403 104.338L86.8993 104.338L86.8993 103.469L90.9363 103.469L90.9363 104.338Q90.6723 105.944 90.3533 107.104Q90.0343 108.265 89.5063 109.244ZM85.1503 105.328L85.1393 103.788L83.2473 103.788L83.2473 105.328L85.1503 105.328ZM88.0653 104.338Q88.2083 105.559 88.4393 106.533Q88.6703 107.506 89.0223 108.309Q89.3743 107.517 89.6108 106.576Q89.8473 105.636 90.0563 104.338L88.0653 104.338ZM85.1503 106.12L83.2473 106.12L83.2473 107.605L85.1613 107.605L85.1503 106.12ZM83.2473 108.397L83.2473 110.102L85.1723 109.761L85.1613 108.397L83.2473 108.397ZM93.3233 104.503L95.8313 104.503L95.8313 103.711L92.8503 103.711L92.8503 102.985L102.035 102.985L102.035 103.711L99.0873 103.711L99.0873 104.503L101.573 104.503L101.573 106.868L93.3233 106.868L93.3233 104.503ZM96.6343 104.503L98.2843 104.503L98.2843 103.711L96.6343 103.711L96.6343 104.503ZM95.8313 105.218L94.1593 105.218L94.1593 106.175L95.8313 106.175L95.8313 105.218ZM98.2843 105.218L96.6343 105.218L96.6343 106.175L98.2843 106.175L98.2843 105.218ZM100.748 106.175L100.748 105.218L99.0873 105.218L99.0873 106.175L100.748 106.175ZM101.397 107.66L101.397 108.375L93.5103 108.375L93.5103 107.66L101.397 107.66ZM102.255 109.871L97.9433 109.871L97.9433 111.158Q97.9433 111.807 97.6793 112.076Q97.4153 112.346 96.7223 112.346Q96.1833 112.346 95.6553 112.258L95.5123 111.521Q96.1943 111.631 96.5243 111.631Q96.8983 111.631 97.0193 111.455Q97.1403 111.279 97.1403 110.894L97.1403 109.871L92.6413 109.871L92.6413 109.145L102.255 109.145L102.255 109.871ZM95.8863 110.773Q94.8523 111.4 92.9273 112.247L92.5753 111.51Q93.2903 111.246 94.0878 110.844Q94.8853 110.443 95.4573 110.069L95.8863 110.773ZM99.4173 110.102Q100.066 110.388 100.853 110.768Q101.639 111.147 102.343 111.499L101.947 112.247Q100.825 111.631 99.0433 110.806L99.4173 110.102ZM120.572 109.178Q120.561 109.739 120.484 110.641Q120.44 111.279 120.275 111.592Q120.11 111.906 119.747 112.033Q119.384 112.159 118.636 112.203Q117.47 112.28 116.139 112.28Q114.797 112.28 113.631 112.203Q112.927 112.159 112.569 112.016Q112.212 111.873 112.058 111.516Q111.904 111.158 111.904 110.454L111.904 105.152L112.85 105.152L112.85 106.626L118.757 106.626L118.757 103.997L111.596 103.997L111.596 103.106L119.67 103.106L119.67 107.506L112.85 107.506L112.85 110.157Q112.85 110.641 112.938 110.867Q113.026 111.092 113.246 111.186Q113.466 111.279 113.95 111.312Q115.237 111.389 116.161 111.389Q117.074 111.389 118.361 111.312Q118.889 111.279 119.131 111.197Q119.373 111.114 119.472 110.922Q119.571 110.729 119.593 110.311L119.659 108.958L120.572 109.178ZM127.997 107.726L131.55 107.726L131.55 108.452L123.223 108.452L123.223 105.427Q122.695 106.098 122.178 106.582L121.727 105.757Q122.354 105.24 123.03 104.261Q123.707 103.282 124.092 102.369L124.928 102.644Q124.785 102.952 124.455 103.568L127.172 103.568L126.699 102.611L127.513 102.358Q127.81 102.941 128.074 103.568L131.308 103.568L131.308 104.283L127.997 104.283L127.997 104.976L131.066 104.976L131.066 105.647L127.997 105.647L127.997 106.34L131.066 106.34L131.066 107.022L127.997 107.022L127.997 107.726ZM124.081 104.976L127.139 104.976L127.139 104.283L124.081 104.283L124.081 104.976ZM124.081 106.34L127.139 106.34L127.139 105.647L124.081 105.647L124.081 106.34ZM127.139 107.022L124.081 107.022L124.081 107.726L127.139 107.726L127.139 107.022ZM124.114 112.489L123.234 112.489L123.234 109.277L130.747 109.277L130.747 112.489L129.878 112.489L129.878 111.939L124.114 111.939L124.114 112.489ZM129.878 111.246L129.878 110.003L124.114 110.003L124.114 111.246L129.878 111.246ZM134.465 110.839L138.106 110.839L138.106 111.708L132.969 111.708L132.969 111.081L135.576 108.177Q136.313 107.363 136.588 106.896Q136.863 106.428 136.863 105.878Q136.863 105.174 136.478 104.789Q136.093 104.404 135.51 104.404Q134.916 104.404 134.465 104.805Q134.014 105.207 133.816 105.867L133.024 105.416Q133.266 104.514 133.981 104.013Q134.696 103.513 135.576 103.513Q136.214 103.513 136.742 103.783Q137.27 104.052 137.583 104.575Q137.897 105.097 137.897 105.834Q137.897 106.549 137.545 107.187Q137.193 107.825 136.313 108.793L134.465 110.839ZM144.442 107.682Q144.442 109.728 143.765 110.779Q143.089 111.829 141.824 111.829Q140.57 111.829 139.893 110.773Q139.217 109.717 139.217 107.682Q139.217 105.636 139.893 104.575Q140.57 103.513 141.824 103.513Q143.089 103.513 143.765 104.569Q144.442 105.625 144.442 107.682ZM140.262 107.682Q140.262 109.321 140.641 110.124Q141.021 110.927 141.824 110.927Q142.627 110.927 143.012 110.13Q143.397 109.332 143.397 107.682Q143.397 106.021 143.012 105.213Q142.627 104.404 141.824 104.404Q141.021 104.404 140.641 105.213Q140.262 106.021 140.262 107.682ZM150.712 107.682Q150.712 109.728 150.035 110.779Q149.359 111.829 148.094 111.829Q146.84 111.829 146.163 110.773Q145.487 109.717 145.487 107.682Q145.487 105.636 146.163 104.575Q146.84 103.513 148.094 103.513Q149.359 103.513 150.035 104.569Q150.712 105.625 150.712 107.682ZM146.532 107.682Q146.532 109.321 146.911 110.124Q147.291 110.927 148.094 110.927Q148.897 110.927 149.282 110.13Q149.667 109.332 149.667 107.682Q149.667 106.021 149.282 105.213Q148.897 104.404 148.094 104.404Q147.291 104.404 146.911 105.213Q146.532 106.021 146.532 107.682ZM153.946 105.152L154.782 105.152L154.782 107.308L156.938 107.308L156.938 108.144L154.782 108.144L154.782 110.3L153.946 110.3L153.946 108.144L151.79 108.144L151.79 107.308L153.946 107.308L153.946 105.152Z">
</path>
<path     fill="#E5E5E5"  d="M106.243 112.929L106.243 102.743L107.134 102.743L107.134 112.929L106.243 112.929Z">
</path>
</g>
<g >
<path     fill="#A72D22"  d="M204.11 108.789L205.936 105.72L207.223 105.72L204.946 109.438L206.607 109.438L206.607 110.34L204.649 110.34L204.649 111.099L206.607 111.099L206.607 112.012L204.649 112.012L204.649 113.772L203.472 113.772L203.472 112.012L201.602 112.012L201.602 111.099L203.472 111.099L203.472 110.34L201.602 110.34L201.602 109.438L203.164 109.438L200.777 105.72L202.174 105.72L204.11 108.789Z">
</path>
<path     fill="url(#linear_fill_2_768_0)"  d="M215.764 110.724L222.796 110.724L222.796 113.772L210.676 113.772L210.676 111.516L215.98 105.564Q217.348 104.028 217.888 103.152Q218.428 102.276 218.428 101.34Q218.428 100.308 217.852 99.684Q217.276 99.06 216.292 99.06Q215.284 99.06 214.516 99.792Q213.748 100.524 213.34 101.868L210.604 100.284Q211.228 98.148 212.86 97.008Q214.492 95.868 216.628 95.868Q218.308 95.868 219.544 96.552Q220.78 97.236 221.44 98.436Q222.1 99.636 222.1 101.172Q222.1 102.684 221.368 103.992Q220.636 105.3 218.764 107.388L215.764 110.724ZM234.532 104.22Q235.852 104.868 236.608 106.008Q237.364 107.148 237.364 108.732Q237.364 110.292 236.608 111.504Q235.852 112.716 234.448 113.388Q233.044 114.06 231.196 114.06Q229.3 114.06 227.872 113.388Q226.444 112.716 225.676 111.504Q224.908 110.292 224.908 108.732Q224.908 107.148 225.676 106.008Q226.444 104.868 227.788 104.244Q226.708 103.668 226.108 102.744Q225.508 101.82 225.508 100.62Q225.508 99.324 226.18 98.232Q226.852 97.14 228.148 96.504Q229.444 95.868 231.196 95.868Q232.948 95.868 234.184 96.504Q235.42 97.14 236.056 98.208Q236.692 99.276 236.692 100.62Q236.692 101.82 236.116 102.744Q235.54 103.668 234.532 104.22ZM231.196 98.772Q230.26 98.772 229.696 99.348Q229.132 99.924 229.132 100.788Q229.132 101.652 229.696 102.228Q230.26 102.804 231.196 102.804Q232.108 102.804 232.684 102.228Q233.26 101.652 233.26 100.788Q233.26 99.948 232.684 99.36Q232.108 98.772 231.196 98.772ZM231.196 110.964Q232.3 110.964 232.996 110.28Q233.692 109.596 233.692 108.42Q233.692 107.22 233.008 106.5Q232.324 105.78 231.196 105.78Q230.02 105.78 229.324 106.5Q228.628 107.22 228.628 108.42Q228.628 109.596 229.336 110.28Q230.044 110.964 231.196 110.964Z">
</path>
</g>
<g >
<path     fill="#000000"  d="M217.11 85.725L218.936 82.656L220.223 82.656L217.946 86.374L219.607 86.374L219.607 87.276L217.649 87.276L217.649 88.035L219.607 88.035L219.607 88.948L217.649 88.948L217.649 90.708L216.472 90.708L216.472 88.948L214.602 88.948L214.602 88.035L216.472 88.035L216.472 87.276L214.602 87.276L214.602 86.374L216.164 86.374L213.777 82.656L215.174 82.656L217.11 85.725ZM226.878 86.44Q227.582 86.682 227.939 87.188Q228.297 87.694 228.297 88.442Q228.297 89.19 227.939 89.729Q227.582 90.268 226.977 90.5485Q226.372 90.829 225.646 90.829Q224.733 90.829 223.99 90.3725Q223.248 89.916 222.973 89.036L223.919 88.497Q224.128 89.124 224.601 89.4485Q225.074 89.773 225.635 89.773Q226.24 89.773 226.641 89.4045Q227.043 89.036 227.043 88.398Q227.043 87.045 225.129 87.045L224.81 87.045L224.81 86.011L225.217 86.011Q225.965 86.011 226.361 85.648Q226.757 85.285 226.757 84.724Q226.757 84.196 226.421 83.888Q226.086 83.58 225.558 83.58Q224.997 83.58 224.607 83.9155Q224.216 84.251 224.018 84.889L223.083 84.35Q223.358 83.448 224.035 82.9805Q224.711 82.513 225.635 82.513Q226.339 82.513 226.878 82.7825Q227.417 83.052 227.714 83.5415Q228.011 84.031 228.011 84.669Q228.011 85.274 227.73 85.736Q227.45 86.198 226.878 86.44ZM232.015 82.513Q232.785 82.513 233.396 82.8485Q234.006 83.184 234.352 83.789Q234.699 84.394 234.699 85.175Q234.699 85.769 234.479 86.2915Q234.259 86.814 233.731 87.661L231.872 90.697L230.563 90.697L232.191 88.079Q232.4 87.749 232.532 87.584Q232.246 87.683 231.828 87.683Q231.102 87.683 230.53 87.3475Q229.958 87.012 229.645 86.4345Q229.331 85.857 229.331 85.131Q229.331 84.383 229.683 83.7835Q230.035 83.184 230.651 82.8485Q231.267 82.513 232.015 82.513ZM232.026 86.638Q232.675 86.638 233.065 86.209Q233.456 85.78 233.456 85.098Q233.456 84.416 233.065 83.998Q232.675 83.58 232.026 83.58Q231.377 83.58 230.986 84.0035Q230.596 84.427 230.596 85.098Q230.596 85.791 230.986 86.2145Q231.377 86.638 232.026 86.638Z">
</path>
</g>
<path    stroke="rgba(0, 0, 0, 1)" stroke-width="0.5"    d="M211.5 87.5L236.5 87.5129">
</path>
<rect  x="244.5" y="91.5" width="34" height="34" rx="5"    fill="#A72D22" >
</rect>
<g >
<path     fill="#FFFFFF"  d="M256.625 104.725Q256.807 103.958 256.924 103.347L254.428 103.347L254.428 102.242L260.889 102.242L260.889 103.347L258.081 103.347Q257.938 104.062 257.782 104.725L260.343 104.725L260.343 110.653L259.238 110.653L259.238 105.804L255.741 105.804L255.741 110.653L254.662 110.653L254.662 104.725L256.625 104.725ZM254.129 106.259L254.129 107.338L253.453 109.756L252.491 109.405L253.102 107.364L251.958 107.364L251.958 112.018Q251.958 112.85 251.652 113.169Q251.347 113.487 250.554 113.487Q250.034 113.487 249.527 113.409L249.293 112.187Q249.995 112.291 250.346 112.291Q250.658 112.291 250.762 112.155Q250.866 112.018 250.866 111.589L250.866 107.364L248.994 107.364L248.994 106.259L251.217 106.259Q250.398 105.167 249.709 104.387L250.424 103.776Q250.814 104.192 251.438 104.959Q252.205 103.945 252.621 103.321L249.293 103.321L249.293 102.255L253.882 102.255L253.882 103.438L253.583 103.841Q252.582 105.193 252.088 105.843Q252.257 106.051 252.387 106.259L254.129 106.259ZM257.899 110.146Q258.692 110.705 259.641 111.452Q260.59 112.2 261.019 112.603L260.317 113.643Q259.615 112.876 257.496 111.186Q257.067 111.914 256.293 112.512Q255.52 113.11 254.311 113.656L253.57 112.577Q254.987 112.031 255.702 111.479Q256.417 110.926 256.671 110.257Q256.924 109.587 256.924 108.56L256.924 106.337L258.068 106.337L258.068 108.664Q258.068 109.509 257.899 110.146ZM264.711 105.037Q263.541 103.399 262.774 102.437L263.788 101.709Q264.139 102.125 264.724 102.898Q265.309 103.672 265.725 104.244L264.711 105.037ZM274.006 102.515L274.006 103.763L271.523 103.763L271.523 111.602Q271.523 112.551 271.12 112.954Q270.717 113.357 269.755 113.383Q268.975 113.396 268.078 113.318L267.818 112.057Q268.676 112.161 269.417 112.161Q269.872 112.161 270.047 111.947Q270.223 111.732 270.223 111.225L270.223 103.763L266.557 103.763L266.557 102.515L274.006 102.515ZM265.036 110.887Q265.842 110.289 265.92 110.237L266.791 109.587L267.246 110.913Q266.622 111.316 265.985 111.752Q265.348 112.187 264.919 112.525Q264.49 112.85 264.191 113.136L263.398 112.122Q263.593 111.927 263.671 111.758Q263.749 111.589 263.749 111.355L263.749 107.078L262.033 107.078L262.033 105.778L265.036 105.778L265.036 110.887Z">
</path>
</g>
<path d="M185.171 118.5L159.5 118.5L159.5 130.5L231.576 130.5C234.511 130.5 236.948 128.77 237.418 126.5L237.5 126.5L237.5 118.5L185.171 118.5Z" stroke="rgba(167, 45, 34, 1)" stroke-width="0.2"    fill-rule="evenodd"  fill="url(#linear_fill_2_780)" >
</path>
<g >
<path     fill="#A72D22"  d="M164.977 123.013Q164.606 123.412 164.186 123.776L163.906 123.279Q164.459 122.831 164.914 122.268Q165.369 121.704 165.684 121.074L166.188 121.291Q165.845 121.914 165.53 122.341L165.53 124.833L164.977 124.833L164.977 123.013ZM166.006 123.174Q166.517 123.02 167.133 122.782L167.133 121.214L167.679 121.214L167.679 122.551Q168.701 122.096 169.548 121.473L169.821 121.921Q168.869 122.628 167.679 123.146L167.679 123.587Q167.679 123.853 167.781 123.951Q167.882 124.049 168.134 124.07Q168.386 124.084 168.505 124.084Q168.722 124.084 168.932 124.063Q169.247 124.028 169.359 123.94Q169.471 123.853 169.485 123.587Q169.513 123.111 169.513 122.971L170.031 123.132Q170.01 123.482 169.982 123.783Q169.947 124.105 169.859 124.262Q169.772 124.42 169.59 124.483Q169.408 124.546 169.037 124.581Q168.659 124.609 168.463 124.609Q168.267 124.609 167.889 124.581Q167.602 124.553 167.445 124.483Q167.287 124.413 167.21 124.245Q167.133 124.077 167.133 123.769L167.133 123.37Q166.587 123.58 166.244 123.692L166.006 123.174ZM167.294 125.407L170.087 125.407L170.087 125.96L167.294 125.96L167.294 127.563L166.72 127.563L166.72 125.96L163.941 125.96L163.941 125.407L166.72 125.407L166.72 124.686L167.294 124.686L167.294 125.407ZM177.038 127.493Q175.33 127.297 174.133 126.912Q172.985 127.283 171.067 127.563L170.927 127.073Q172.369 126.891 173.398 126.632Q172.768 126.373 172.194 126.002Q171.69 126.352 171.123 126.597L170.878 126.177Q171.368 125.967 171.823 125.666Q172.278 125.365 172.614 125.015L171.697 125.015L171.697 122.397L173.496 122.397Q173.601 122.117 173.664 121.9L170.92 121.9L170.92 121.452L177.094 121.452L177.094 121.9L174.287 121.9Q174.196 122.18 174.119 122.397L176.324 122.397L176.324 125.015L173.3 125.015Q173.125 125.225 172.922 125.414L176.31 125.414L176.31 125.82Q175.701 126.296 174.875 126.639Q175.869 126.884 177.129 127.024L177.038 127.493ZM175.785 123.167L175.785 122.775L172.236 122.775L172.236 123.167L175.785 123.167ZM172.236 123.895L175.785 123.895L175.785 123.517L172.236 123.517L172.236 123.895ZM175.785 124.245L172.236 124.245L172.236 124.637L175.785 124.637L175.785 124.245ZM172.698 125.82Q173.321 126.163 174.126 126.422Q174.896 126.17 175.414 125.82L172.698 125.82ZM181.357 123.216Q181.931 122.369 182.309 121.109L182.848 121.186Q182.757 121.494 182.589 121.977L184.171 121.977L184.171 122.523L182.365 122.523Q182.127 123.062 181.812 123.503L181.357 123.216ZM181.441 123.685Q181.448 124.21 181.402 125.169Q181.357 126.128 181.294 126.604Q181.252 126.905 181.178 127.062Q181.105 127.22 180.951 127.286Q180.797 127.353 180.51 127.353Q180.265 127.353 180.097 127.318L179.992 126.779Q180.328 126.849 180.489 126.849Q180.629 126.849 180.692 126.747Q180.755 126.646 180.79 126.394Q180.923 125.316 180.923 124.238L180.244 124.238Q180.209 125.05 180.107 125.603Q180.006 126.156 179.807 126.601Q179.607 127.045 179.257 127.528L178.788 127.262Q179.166 126.744 179.359 126.289Q179.551 125.834 179.628 125.292Q179.705 124.749 179.74 123.846L179.768 122.747L179.341 122.747L179.341 122.215L180.314 122.215L180.02 121.221L180.545 121.123Q180.657 121.445 180.888 122.215L181.525 122.215L181.525 122.747L180.279 122.747Q180.279 123.139 180.265 123.685L181.441 123.685ZM178.907 122.509Q178.865 122.474 178.816 122.432Q178.767 122.39 178.704 122.341Q178.256 121.949 177.969 121.732L178.291 121.305Q178.704 121.606 179.243 122.061L178.907 122.509ZM178.886 124.259Q178.137 123.615 177.724 123.307L178.06 122.859Q178.522 123.195 179.229 123.79L178.886 124.259ZM184.199 124.882L184.199 125.4L183.191 125.4L183.191 126.674Q183.191 126.996 183.124 127.16Q183.058 127.325 182.893 127.384Q182.729 127.444 182.4 127.444Q182.127 127.444 181.931 127.409L181.819 126.863Q182.043 126.919 182.33 126.919Q182.526 126.919 182.596 126.828Q182.666 126.737 182.666 126.471L182.666 125.4L181.658 125.4L181.658 124.882L182.666 124.882L182.666 124.392L183.268 123.713L182.085 123.713L182.085 123.202L183.919 123.202L183.919 123.734L183.191 124.525L183.191 124.882L184.199 124.882ZM179.166 124.903Q179.04 125.365 178.774 126.177Q178.508 126.989 178.305 127.493L177.759 127.318Q177.983 126.8 178.253 125.988Q178.522 125.176 178.62 124.721L179.166 124.903ZM188.028 122.46L188.028 123.09L187.51 123.09L187.51 121.935L189.099 121.935Q188.945 121.599 188.819 121.347Q188.798 121.291 188.781 121.259Q188.763 121.228 188.756 121.207L189.309 121.095L189.673 121.935L191.01 121.935L191.01 123.09L190.492 123.09L190.492 122.46L188.028 122.46ZM187.174 126.8Q186.936 126.849 185.529 127.178Q184.822 127.346 184.808 127.346L184.745 126.821Q184.92 126.786 185.137 126.737L185.137 124.196L185.599 124.196L185.599 126.639Q185.865 126.569 186.103 126.52L186.103 123.706L185.207 123.706L185.207 121.564L187.111 121.564L187.111 123.706L186.572 123.706L186.572 124.63L187.188 124.63L187.188 125.148L186.572 125.148L186.572 126.401Q186.922 126.324 187.125 126.261L187.174 126.8ZM186.635 122.103L185.697 122.103L185.697 123.174L186.635 123.174L186.635 122.103ZM190.66 123.811L187.867 123.811L187.867 123.279L190.66 123.279L190.66 123.811ZM191.122 125.043L189.554 125.043L189.554 126.758Q189.554 127.178 189.4 127.346Q189.246 127.514 188.868 127.514Q188.672 127.514 188.266 127.486L188.168 126.94Q188.42 126.996 188.728 126.996Q188.91 126.996 188.973 126.901Q189.036 126.807 189.036 126.52L189.036 125.043L187.503 125.043L187.503 124.497L191.122 124.497L191.122 125.043ZM188.546 125.575Q188.021 126.667 187.538 127.332L187.104 127.045Q187.601 126.436 188.091 125.351L188.546 125.575ZM190.331 125.372Q190.52 125.673 190.796 126.146Q191.073 126.618 191.276 126.982L190.828 127.241Q190.646 126.884 190.366 126.394Q190.086 125.904 189.911 125.617L190.331 125.372ZM195.287 124.686L198.129 124.686L198.129 125.218L195.287 125.218L195.287 127.472L194.706 127.472L194.706 125.218L191.857 125.218L191.857 124.686L194.706 124.686L194.706 121.998L192.144 121.998L192.144 121.466L197.849 121.466L197.849 121.998L195.287 121.998L195.287 124.686ZM195.91 124.035Q196.162 123.755 196.529 123.237Q196.897 122.719 197.1 122.39L197.555 122.705Q197.359 123.02 196.981 123.545Q196.603 124.07 196.358 124.357L195.91 124.035ZM192.872 122.397Q193.11 122.691 193.481 123.195Q193.852 123.699 194.076 124.035L193.614 124.35Q193.39 123.993 193.026 123.489Q192.662 122.985 192.438 122.712L192.872 122.397ZM203.218 121.795Q203.575 122.152 204.149 122.799Q204.723 123.447 205.073 123.888L204.639 124.266Q204.569 124.175 204.24 123.769L204.128 123.636Q203.008 123.72 201.884 123.804Q200.761 123.888 199.641 123.979L199.158 124.014L199.004 123.433Q199.263 123.391 199.382 123.353Q199.501 123.314 199.592 123.244Q199.991 122.936 200.579 122.243Q201.167 121.55 201.524 121.011L202.035 121.305Q201.65 121.851 201.146 122.464Q200.642 123.076 200.278 123.398Q200.894 123.342 201.993 123.265L203.701 123.139Q203.127 122.481 202.805 122.159L203.218 121.795ZM200.222 127.514L199.655 127.514L199.655 124.588L204.324 124.588L204.324 127.514L203.757 127.514L203.757 127.136L200.222 127.136L200.222 127.514ZM203.757 126.604L203.757 125.141L200.222 125.141L200.222 126.604L203.757 126.604ZM211.961 125.386Q211.954 125.743 211.905 126.317Q211.877 126.723 211.772 126.923Q211.667 127.122 211.436 127.202Q211.205 127.283 210.729 127.311Q209.987 127.36 209.14 127.36Q208.286 127.36 207.544 127.311Q207.096 127.283 206.868 127.192Q206.641 127.101 206.543 126.873Q206.445 126.646 206.445 126.198L206.445 122.824L207.047 122.824L207.047 123.762L210.806 123.762L210.806 122.089L206.249 122.089L206.249 121.522L211.387 121.522L211.387 124.322L207.047 124.322L207.047 126.009Q207.047 126.317 207.103 126.461Q207.159 126.604 207.299 126.663Q207.439 126.723 207.747 126.744Q208.566 126.793 209.154 126.793Q209.735 126.793 210.554 126.744Q210.89 126.723 211.044 126.671Q211.198 126.618 211.261 126.495Q211.324 126.373 211.338 126.107L211.38 125.246L211.961 125.386ZM214.845 121.284Q214.614 122.033 214.25 122.824L214.25 127.493L213.704 127.493L213.704 123.867Q213.34 124.462 212.997 124.882L212.731 124.287Q213.172 123.748 213.596 122.883Q214.019 122.019 214.292 121.123L214.845 121.284ZM219.066 123.3L216.602 123.3Q216.553 124.224 216.385 124.91Q216.217 125.596 215.874 126.208Q215.531 126.821 214.95 127.486L214.481 127.101Q215.034 126.499 215.349 125.956Q215.664 125.414 215.814 124.798Q215.965 124.182 216.021 123.3L214.67 123.3L214.67 122.754L216.056 122.754L216.056 122.684Q216.07 122.306 216.077 121.833Q216.084 121.361 216.084 121.123L216.651 121.123L216.623 122.698L216.623 122.754L219.066 122.754L219.066 123.3ZM218.261 122.579Q218.065 122.369 217.74 122.058Q217.414 121.746 217.218 121.585L217.568 121.214Q217.764 121.375 218.09 121.676Q218.415 121.977 218.618 122.187L218.261 122.579ZM219.087 125.61Q219.087 125.799 219.077 126.079Q219.066 126.359 219.059 126.534Q219.045 126.863 218.979 127.013Q218.912 127.164 218.758 127.224Q218.604 127.283 218.261 127.311Q218.149 127.325 217.911 127.325Q217.68 127.325 217.561 127.311Q217.309 127.29 217.173 127.22Q217.036 127.15 216.977 126.982Q216.917 126.814 216.917 126.499L216.917 123.58L217.463 123.58L217.463 126.345Q217.463 126.52 217.491 126.604Q217.519 126.688 217.585 126.723Q217.652 126.758 217.792 126.772Q217.855 126.779 217.974 126.779Q218.093 126.779 218.149 126.772Q218.31 126.751 218.383 126.719Q218.457 126.688 218.488 126.607Q218.52 126.527 218.527 126.359Q218.534 126.198 218.544 125.928Q218.555 125.659 218.555 125.498L219.087 125.61ZM222.755 122.502L222.755 122.089L219.99 122.089L219.99 121.627L222.755 121.627L222.755 121.102L223.252 121.102L223.252 121.627L226.01 121.627L226.01 122.089L223.252 122.089L223.252 122.502L225.45 122.502L225.45 124.504L225.156 124.504Q225.457 124.833 225.905 125.379L225.478 125.722L225.317 125.505L225.191 125.323L220.011 125.554L219.997 125.078L220.424 125.071Q220.641 125.064 221.201 125.05Q221.761 125.036 222.755 125.008L222.755 124.504L220.522 124.504L220.522 122.502L222.755 122.502ZM222.755 123.314L222.755 122.929L221.061 122.929L221.061 123.314L222.755 123.314ZM224.911 123.314L224.911 122.929L223.252 122.929L223.252 123.314L224.911 123.314ZM221.061 123.678L221.061 124.084L222.755 124.084L222.755 123.678L221.061 123.678ZM224.911 123.678L223.252 123.678L223.252 124.084L224.911 124.084L224.911 123.678ZM224.883 124.945Q224.75 124.777 224.617 124.637L224.799 124.504L223.252 124.504L223.252 124.994L224.883 124.945ZM223.021 125.498Q223.392 125.834 223.791 126.275L223.427 126.618Q223.14 126.268 222.685 125.827L223.021 125.498ZM225.17 125.645Q225.359 125.89 225.615 126.296Q225.87 126.702 226.031 126.996L225.541 127.248Q225.373 126.926 225.152 126.548Q224.932 126.17 224.743 125.897L225.17 125.645ZM219.836 127.052Q220.291 126.506 220.662 125.694L221.124 125.932Q220.739 126.8 220.305 127.339L219.836 127.052ZM224.078 126.569Q224.099 126.338 224.099 126.177L224.617 126.289Q224.617 126.429 224.575 126.765Q224.547 127.003 224.48 127.122Q224.414 127.241 224.274 127.294Q224.134 127.346 223.854 127.367Q223.497 127.395 223.056 127.395Q222.615 127.395 222.258 127.367Q221.866 127.339 221.695 127.192Q221.523 127.045 221.523 126.709L221.523 125.778L222.09 125.778L222.09 126.527Q222.09 126.737 222.163 126.811Q222.237 126.884 222.44 126.898Q222.86 126.926 223.077 126.926Q223.287 126.926 223.707 126.898Q223.91 126.884 223.987 126.821Q224.064 126.758 224.078 126.569ZM227.193 123.377L227.193 122.733L228.684 121.865L229.16 121.865L229.16 126.996L228.53 126.996L228.53 122.614L227.193 123.377ZM231.183 123.377L231.183 122.733L232.674 121.865L233.15 121.865L233.15 126.996L232.52 126.996L232.52 122.614L231.183 123.377Z">
</path>
</g>
<path    stroke="rgba(0, 0, 0, 1)" stroke-width="0.2"    d="M9.5 140.5L275.5 140.5">
</path>
<path d="M199.106 153.025C199.041 152.95 198.931 152.95 198.866 153.025L196.022 156.275L193.113 153.025C193.047 152.95 192.938 152.95 192.872 153.025C192.806 153.1 192.806 153.225 192.872 153.3L195.891 156.675C195.956 156.75 196.066 156.75 196.131 156.675L199.106 153.3C199.172 153.2 199.172 153.1 199.106 153.025Z"   fill="#000000" >
</path>
<path d="M175.199 53.5C175 53.5 174.868 53.4373 174.735 53.312C174.47 53.0612 174.536 52.6852 174.801 52.4345L179.042 48.7992C179.175 48.6738 179.241 48.5485 179.241 48.4231C179.241 48.2977 179.175 48.1724 179.042 48.047L174.735 44.5998C174.47 44.3491 174.404 43.973 174.669 43.7223C174.934 43.4716 175.331 43.4089 175.596 43.6596L179.837 47.1069C180.235 47.4203 180.5 47.9217 180.5 48.4231C180.5 48.9245 180.301 49.3633 179.904 49.7393L175.663 53.3746C175.53 53.4373 175.331 53.5 175.199 53.5Z"   fill="#808080" >
</path>
<defs>
<linearGradient id="linear_fill_2_759_0" x1="0.5" y1="83" x2="286.5" y2="83" gradientUnits="userSpaceOnUse">
<stop offset="0" stop-color="#A72D22"  />
<stop offset="0.9884" stop-color="#D6645A"  />
</linearGradient>
<linearGradient id="linear_border_2_759_0" x1="0.5" y1="83" x2="286.5" y2="83" gradientUnits="userSpaceOnUse">
<stop offset="0" stop-color="#A72D22"  />
<stop offset="0.9884" stop-color="#D6645A"  />
</linearGradient>
<linearGradient id="linear_border_2_760_0" x1="0" y1="0" x2="0" y2="0" gradientUnits="userSpaceOnUse">
<stop offset="0" stop-color="#A72D22"  />
<stop offset="0.9884" stop-color="#A72D22" stop-opacity="0" />
</linearGradient>
<linearGradient id="linear_fill_2_768_0" x1="198.5" y1="106" x2="238.5" y2="106" gradientUnits="userSpaceOnUse">
<stop offset="0" stop-color="#A72D22"  />
<stop offset="1" stop-color="#A72D22" stop-opacity="0.63" />
</linearGradient>
<linearGradient id="linear_fill_2_780" x1="159.5" y1="124.5" x2="237.5" y2="124.5" gradientUnits="userSpaceOnUse">
<stop offset="0" stop-color="#FFFFFF"  />
<stop offset="1" stop-color="#C20404" stop-opacity="0.01" />
</linearGradient>
</defs>
</svg>
