<svg xmlns="http://www.w3.org/2000/svg" xmlns:xlink="http://www.w3.org/1999/xlink" width="284" height="230" viewBox="0 0 284 230" fill="none">
<rect  x="0.5" y="0.5" width="283" height="229" rx="5"    fill="#FFFFFF" >
</rect>
<path   fill="rgba(229, 229, 229, 1)"  d="M5.5 0L278.5 0C281.538 0 284 2.46243 284 5.5L284 224.5C284 227.538 281.538 230 278.5 230L5.5 230C2.46243 230 0 227.538 0 224.5L0 5.5C0 2.46243 2.46243 0 5.5 0ZM5.5 1C3.01472 1 1 3.01472 1 5.5L1 224.5C1 226.985 3.01472 229 5.5 229L278.5 229C280.985 229 283 226.985 283 224.5L283 5.5C283 3.01472 280.985 1 278.5 1L5.5 1Z">
</path>
<g mask="url(#mask-3_220)">
<rect  x="-3.5" y="14.5" width="8" height="14" rx="4"    fill="#CCCCCC" >
</rect>
</g>
<rect x="0.5" y="84.5" width="283" height="3"   fill="#E5E5E5" >
</rect>
<rect x="4.5" y="84.5" width="4" height="3"   fill="#FFFFFF" >
</rect>
<rect x="13.5" y="84.5" width="4" height="3"   fill="#FFFFFF" >
</rect>
<rect x="22.5" y="84.5" width="4" height="3"   fill="#FFFFFF" >
</rect>
<rect x="31.5" y="84.5" width="4" height="3"   fill="#FFFFFF" >
</rect>
<rect x="40.5" y="84.5" width="4" height="3"   fill="#FFFFFF" >
</rect>
<rect x="49.5" y="84.5" width="4" height="3"   fill="#FFFFFF" >
</rect>
<rect x="58.5" y="84.5" width="4" height="3"   fill="#FFFFFF" >
</rect>
<rect x="67.5" y="84.5" width="4" height="3"   fill="#FFFFFF" >
</rect>
<rect x="76.5" y="84.5" width="4" height="3"   fill="#FFFFFF" >
</rect>
<rect x="85.5" y="84.5" width="4" height="3"   fill="#FFFFFF" >
</rect>
<rect x="94.5" y="84.5" width="4" height="3"   fill="#FFFFFF" >
</rect>
<rect x="103.5" y="84.5" width="4" height="3"   fill="#FFFFFF" >
</rect>
<rect x="112.5" y="84.5" width="4" height="3"   fill="#FFFFFF" >
</rect>
<rect x="121.5" y="84.5" width="4" height="3"   fill="#FFFFFF" >
</rect>
<rect x="130.5" y="84.5" width="4" height="3"   fill="#FFFFFF" >
</rect>
<rect x="139.5" y="84.5" width="4" height="3"   fill="#FFFFFF" >
</rect>
<rect x="148.5" y="84.5" width="4" height="3"   fill="#FFFFFF" >
</rect>
<rect x="157.5" y="84.5" width="4" height="3"   fill="#FFFFFF" >
</rect>
<rect x="166.5" y="84.5" width="4" height="3"   fill="#FFFFFF" >
</rect>
<rect x="175.5" y="84.5" width="4" height="3"   fill="#FFFFFF" >
</rect>
<rect x="184.5" y="84.5" width="4" height="3"   fill="#FFFFFF" >
</rect>
<rect x="194.5" y="84.5" width="4" height="3"   fill="#FFFFFF" >
</rect>
<rect x="202.5" y="84.5" width="4" height="3"   fill="#FFFFFF" >
</rect>
<rect x="229.5" y="84.5" width="4" height="3"   fill="#FFFFFF" >
</rect>
<rect x="238.5" y="84.5" width="4" height="3"   fill="#FFFFFF" >
</rect>
<rect x="247.5" y="84.5" width="4" height="3"   fill="#FFFFFF" >
</rect>
<rect x="256.5" y="84.5" width="4" height="3"   fill="#FFFFFF" >
</rect>
<rect x="265.5" y="84.5" width="4" height="3"   fill="#FFFFFF" >
</rect>
<rect x="274.5" y="84.5" width="4" height="3"   fill="#FFFFFF" >
</rect>
<rect x="220.5" y="84.5" width="4" height="3"   fill="#FFFFFF" >
</rect>
<rect x="211.5" y="84.5" width="4" height="3"   fill="#FFFFFF" >
</rect>
<g >
<path     fill="#000000"  d="M29.588 17.812L29.588 19.204L15.38 19.204L15.38 17.812L21.668 17.812Q21.508 17.38 21.396 17.124L16.852 17.124L16.852 12.324L28.132 12.324L28.132 17.124L23.284 17.124L23.54 17.812L29.588 17.812ZM26.34 14.26L26.34 13.62L18.644 13.62L18.644 14.26L26.34 14.26ZM26.34 15.284L18.644 15.284L18.644 15.924L26.34 15.924L26.34 15.284ZM27.924 19.796L27.924 23.252L23.684 23.252L23.684 24.82Q23.684 25.876 23.244 26.292Q22.804 26.708 21.7 26.724Q20.868 26.724 19.86 26.644L19.46 24.9Q18.708 25.316 17.74 25.764Q16.772 26.212 15.908 26.548L15.156 25.06Q16.148 24.724 17.228 24.22Q18.308 23.716 19.076 23.252L17.044 23.252L17.044 19.796L27.924 19.796ZM18.884 21.908L26.116 21.908L26.116 21.076L18.884 21.076L18.884 21.908ZM21.652 23.252L19.444 23.252L20.228 24.436Q19.988 24.596 19.508 24.884Q20.404 25.012 20.98 25.028Q21.38 25.028 21.516 24.836Q21.652 24.644 21.652 24.148L21.652 23.252ZM25.508 23.252Q27.652 24.084 29.668 25.044L28.772 26.548Q27.716 25.94 25.236 24.852L24.756 24.644L25.508 23.252ZM39.06 16.276L44.244 16.276L44.244 22.004L32.756 22.004L32.756 16.276L37.044 16.276L37.044 11.988L39.06 11.988L39.06 13.156L45.396 13.156L45.396 15.076L39.06 15.076L39.06 16.276ZM34.692 20.148L42.308 20.148L42.308 18.196L34.692 18.196L34.692 20.148ZM44.084 22.372Q44.5 23.044 45.028 24.028Q45.556 25.012 45.924 25.812L44.26 26.676Q43.684 25.428 42.324 23.044L44.084 22.372ZM31.092 26.036Q31.588 25.188 32.028 24.196Q32.468 23.204 32.66 22.484L34.468 22.916Q34.212 23.812 33.772 24.892Q33.332 25.972 32.916 26.82L31.092 26.036ZM40.564 22.644Q40.868 23.348 41.228 24.324Q41.588 25.3 41.78 25.956L39.972 26.436Q39.796 25.764 39.468 24.844Q39.14 23.924 38.836 23.188L40.564 22.644ZM37.236 22.9Q37.428 23.572 37.652 24.588Q37.876 25.604 37.988 26.276L36.068 26.644Q35.972 25.86 35.796 24.924Q35.62 23.988 35.428 23.252L37.236 22.9ZM49.492 11.668Q49.988 12.068 50.764 12.804Q51.54 13.54 52.1 14.116L50.676 15.62Q50.132 14.996 49.396 14.236Q48.66 13.476 48.164 13.028L49.492 11.668ZM61.156 24.148Q61.156 25.204 60.916 25.724Q60.676 26.244 60.116 26.428Q59.556 26.612 58.436 26.612Q57.62 26.612 56.628 26.532L56.228 24.548Q57.38 24.692 58.148 24.692Q58.596 24.692 58.812 24.596Q59.028 24.5 59.108 24.252Q59.188 24.004 59.188 23.476L59.188 14.628L52.516 14.628L52.516 12.724L61.156 12.724L61.156 24.148ZM47.828 15.46L49.748 15.46L49.748 26.596L47.828 26.596L47.828 15.46ZM64.212 14.772L67.86 14.772L67.86 14.004L63.828 14.004L63.828 12.452L77.124 12.452L77.124 14.004L73.156 14.004L73.156 14.772L76.756 14.772L76.756 18.708L64.212 18.708L64.212 14.772ZM69.604 14.772L71.412 14.772L71.412 14.004L69.604 14.004L69.604 14.772ZM67.86 16.26L66.036 16.26L66.036 17.252L67.86 17.252L67.86 16.26ZM71.412 16.26L69.604 16.26L69.604 17.252L71.412 17.252L71.412 16.26ZM74.948 17.252L74.948 16.26L73.156 16.26L73.156 17.252L74.948 17.252ZM76.196 19.492L76.196 20.948L64.772 20.948L64.772 19.492L76.196 19.492ZM73.988 23.172Q76.516 24.324 77.732 24.948L76.884 26.5Q75.316 25.636 72.82 24.484L73.508 23.172L71.62 23.172L71.62 24.644Q71.62 25.7 71.212 26.148Q70.804 26.596 69.716 26.596Q68.884 26.596 67.988 26.468L67.668 24.884Q68.66 25.044 69.156 25.044Q69.572 25.044 69.724 24.82Q69.876 24.596 69.876 24.132L69.876 23.172L67.412 23.172L68.18 24.436Q66.9 25.188 63.988 26.5L63.3 24.996Q64.18 24.66 65.164 24.164Q66.148 23.668 66.948 23.172L63.524 23.172L63.524 21.684L77.444 21.684L77.444 23.172L73.988 23.172Z">
</path>
</g>
<g >
<path     fill="#000000"  d="M29.178 106.86Q29.01 107.742 28.772 108.722Q28.534 109.814 28.079 110.227Q27.624 110.64 26.952 110.64Q26.35 110.64 25.888 110.241Q25.426 109.842 24.782 108.834Q24.712 108.736 24.6 108.512Q23.494 109.674 22.15 110.626L21.03 109.366Q22.766 108.148 23.9 106.874Q23.2 104.718 22.85 101.33L18.776 101.33L18.776 102.898L22.374 102.898Q22.318 104.704 22.094 107.042Q22.024 107.728 21.807 108.127Q21.59 108.526 21.128 108.708Q20.666 108.89 19.882 108.89Q19.56 108.89 18.916 108.834L18.594 107.336Q19.224 107.406 19.728 107.406Q20.106 107.406 20.253 107.238Q20.4 107.07 20.47 106.608Q20.638 105.334 20.652 104.396L18.776 104.396Q18.734 106.412 18.426 107.805Q18.118 109.198 17.404 110.654L15.752 109.884Q16.312 108.89 16.599 108.078Q16.886 107.266 17.012 106.237Q17.138 105.208 17.138 103.598L17.138 99.734L22.71 99.734Q22.682 99.468 22.654 98.908L22.556 97.746L24.25 97.746L24.39 99.734L26.364 99.734Q25.566 98.908 25.104 98.502L26.21 97.41Q26.742 97.9 27.946 99.104L27.302 99.734L28.786 99.734L28.786 101.33L24.53 101.33Q24.768 103.71 25.146 105.264Q26.084 103.766 26.7 101.89L28.184 102.506Q27.246 105.18 25.748 107.154Q26.014 107.77 26.35 108.274Q26.56 108.582 26.721 108.701Q26.882 108.82 27.022 108.792Q27.148 108.792 27.26 108.603Q27.372 108.414 27.484 107.924Q27.554 107.672 27.68 106.818L27.75 106.37L29.178 106.86ZM37.27 100.63Q37.662 103.346 39.097 105.446Q40.532 107.546 43.01 109.24L41.792 110.78Q39.804 109.198 38.516 107.588Q37.228 105.978 36.528 104.186Q35.87 105.978 34.575 107.567Q33.28 109.156 31.292 110.626L30.032 109.184Q32.09 107.756 33.273 106.321Q34.456 104.886 34.981 103.178Q35.506 101.47 35.534 99.174Q35.562 98.67 35.562 97.858L37.312 97.858L37.298 99.846Q37.298 100.126 37.27 100.63ZM44.998 100.238L48.19 100.238L48.19 99.566L44.662 99.566L44.662 98.208L56.296 98.208L56.296 99.566L52.824 99.566L52.824 100.238L55.974 100.238L55.974 103.682L44.998 103.682L44.998 100.238ZM49.716 100.238L51.298 100.238L51.298 99.566L49.716 99.566L49.716 100.238ZM48.19 101.54L46.594 101.54L46.594 102.408L48.19 102.408L48.19 101.54ZM51.298 101.54L49.716 101.54L49.716 102.408L51.298 102.408L51.298 101.54ZM54.392 102.408L54.392 101.54L52.824 101.54L52.824 102.408L54.392 102.408ZM55.484 104.368L55.484 105.642L45.488 105.642L45.488 104.368L55.484 104.368ZM53.552 107.588Q55.764 108.596 56.828 109.142L56.086 110.5Q54.714 109.744 52.53 108.736L53.132 107.588L51.48 107.588L51.48 108.876Q51.48 109.8 51.123 110.192Q50.766 110.584 49.814 110.584Q49.086 110.584 48.302 110.472L48.022 109.086Q48.89 109.226 49.324 109.226Q49.688 109.226 49.821 109.03Q49.954 108.834 49.954 108.428L49.954 107.588L47.798 107.588L48.47 108.694Q47.35 109.352 44.802 110.5L44.2 109.184Q44.97 108.89 45.831 108.456Q46.692 108.022 47.392 107.588L44.396 107.588L44.396 106.286L56.576 106.286L56.576 107.588L53.552 107.588Z">
</path>
</g>
<g >
<path     fill="#808080"  d="M18.61 39.22L15.06 39.22L15.06 38.45L19.62 38.45L19.62 39L16.88 45.78L15.9 45.78L18.61 39.22ZM23.1 41.11Q23.75 41.11 24.26 41.415Q24.77 41.72 25.05 42.255Q25.33 42.79 25.33 43.47Q25.33 44.18 25.02 44.73Q24.71 45.28 24.17 45.585Q23.63 45.89 22.97 45.89Q22.24 45.89 21.675 45.525Q21.11 45.16 20.89 44.46L21.61 44.05Q21.79 44.56 22.135 44.82Q22.48 45.08 22.97 45.08Q23.63 45.08 24.01 44.64Q24.39 44.2 24.39 43.51Q24.39 42.84 24.025 42.38Q23.66 41.92 22.97 41.92Q22.1 41.92 21.61 42.71L21.04 42.42L21.54 38.44L25 38.44L25 39.22L22.32 39.22L22.03 41.39Q22.47 41.11 23.1 41.11ZM27.05 45.89Q26.82 45.89 26.655 45.715Q26.49 45.54 26.49 45.31Q26.49 45.07 26.655 44.9Q26.82 44.73 27.05 44.73Q27.29 44.73 27.455 44.9Q27.62 45.07 27.62 45.31Q27.62 45.55 27.455 45.72Q27.29 45.89 27.05 45.89ZM31.01 38.33Q31.7 38.33 32.24 38.63Q32.78 38.93 33.08 39.47Q33.38 40.01 33.38 40.7Q33.38 41.24 33.185 41.695Q32.99 42.15 32.54 42.89L30.79 45.77L29.78 45.77L31.29 43.31Q31.43 43.09 31.57 42.9Q31.26 43 30.88 43Q30.23 43 29.72 42.69Q29.21 42.38 28.925 41.85Q28.64 41.32 28.64 40.68Q28.64 40.02 28.945 39.48Q29.25 38.94 29.795 38.635Q30.34 38.33 31.01 38.33ZM31.01 42.18Q31.66 42.18 32.045 41.755Q32.43 41.33 32.43 40.65Q32.43 39.97 32.045 39.555Q31.66 39.14 31.01 39.14Q30.37 39.14 29.985 39.56Q29.6 39.98 29.6 40.65Q29.6 41.33 29.98 41.755Q30.36 42.18 31.01 42.18ZM37.34 39.99Q37.34 40.49 37.125 40.865Q36.91 41.24 36.54 41.44Q36.17 41.64 35.72 41.64Q35.27 41.64 34.905 41.44Q34.54 41.24 34.325 40.865Q34.11 40.49 34.11 39.99Q34.11 39.49 34.325 39.115Q34.54 38.74 34.905 38.54Q35.27 38.34 35.72 38.34Q36.17 38.34 36.54 38.54Q36.91 38.74 37.125 39.115Q37.34 39.49 37.34 39.99ZM39.49 38.45L40.41 38.45L36.04 45.78L35.12 45.78L39.49 38.45ZM36.54 39.99Q36.54 39.58 36.305 39.325Q36.07 39.07 35.72 39.07Q35.38 39.07 35.145 39.325Q34.91 39.58 34.91 39.99Q34.91 40.4 35.14 40.655Q35.37 40.91 35.72 40.91Q36.07 40.91 36.305 40.655Q36.54 40.4 36.54 39.99ZM41.42 44.24Q41.42 44.74 41.205 45.115Q40.99 45.49 40.62 45.69Q40.25 45.89 39.8 45.89Q39.35 45.89 38.985 45.69Q38.62 45.49 38.405 45.115Q38.19 44.74 38.19 44.24Q38.19 43.74 38.405 43.365Q38.62 42.99 38.985 42.79Q39.35 42.59 39.8 42.59Q40.25 42.59 40.62 42.79Q40.99 42.99 41.205 43.365Q41.42 43.74 41.42 44.24ZM40.62 44.24Q40.62 43.83 40.385 43.575Q40.15 43.32 39.8 43.32Q39.46 43.32 39.225 43.575Q38.99 43.83 38.99 44.24Q38.99 44.65 39.22 44.905Q39.45 45.16 39.8 45.16Q40.15 45.16 40.385 44.905Q40.62 44.65 40.62 44.24ZM47.13 40.38Q47.95 39.17 48.49 37.37L49.26 37.48Q49.13 37.92 48.89 38.61L51.15 38.61L51.15 39.39L48.57 39.39Q48.23 40.16 47.78 40.79L47.13 40.38ZM47.25 41.05Q47.26 41.8 47.195 43.17Q47.13 44.54 47.04 45.22Q46.98 45.65 46.875 45.875Q46.77 46.1 46.55 46.195Q46.33 46.29 45.92 46.29Q45.57 46.29 45.33 46.24L45.18 45.47Q45.66 45.57 45.89 45.57Q46.09 45.57 46.18 45.425Q46.27 45.28 46.32 44.92Q46.51 43.38 46.51 41.84L45.54 41.84Q45.49 43 45.345 43.79Q45.2 44.58 44.915 45.215Q44.63 45.85 44.13 46.54L43.46 46.16Q44 45.42 44.275 44.77Q44.55 44.12 44.66 43.345Q44.77 42.57 44.82 41.28L44.86 39.71L44.25 39.71L44.25 38.95L45.64 38.95L45.22 37.53L45.97 37.39Q46.13 37.85 46.46 38.95L47.37 38.95L47.37 39.71L45.59 39.71Q45.59 40.27 45.57 41.05L47.25 41.05ZM43.63 39.37Q43.57 39.32 43.5 39.26Q43.43 39.2 43.34 39.13Q42.7 38.57 42.29 38.26L42.75 37.65Q43.34 38.08 44.11 38.73L43.63 39.37ZM43.6 41.87Q42.53 40.95 41.94 40.51L42.42 39.87Q43.08 40.35 44.09 41.2L43.6 41.87ZM51.19 42.76L51.19 43.5L49.75 43.5L49.75 45.32Q49.75 45.78 49.655 46.015Q49.56 46.25 49.325 46.335Q49.09 46.42 48.62 46.42Q48.23 46.42 47.95 46.37L47.79 45.59Q48.11 45.67 48.52 45.67Q48.8 45.67 48.9 45.54Q49 45.41 49 45.03L49 43.5L47.56 43.5L47.56 42.76L49 42.76L49 42.06L49.86 41.09L48.17 41.09L48.17 40.36L50.79 40.36L50.79 41.12L49.75 42.25L49.75 42.76L51.19 42.76ZM44 42.79Q43.82 43.45 43.44 44.61Q43.06 45.77 42.77 46.49L41.99 46.24Q42.31 45.5 42.695 44.34Q43.08 43.18 43.22 42.53L44 42.79ZM53.4 38.98L53.4 40.12L52.6 40.12L52.6 38.25L56.29 38.25Q56.03 37.74 55.85 37.45L56.68 37.19Q56.95 37.72 57.16 38.25L60.67 38.25L60.67 40.13L59.87 40.13L59.87 38.98L53.4 38.98ZM57.46 41.96Q58.94 42.45 61.17 42.7L61.02 43.46Q58.37 43.09 56.61 42.36Q54.69 43.18 52.13 43.58L51.93 42.81Q54.04 42.53 55.72 41.94Q55.01 41.56 54.29 41.02Q53.63 41.54 53 41.89L52.6 41.28Q53.24 40.96 54.005 40.34Q54.77 39.72 55.2 39.16L55.87 39.39Q55.74 39.57 55.44 39.93L59.53 39.93L59.53 40.58Q58.63 41.34 57.46 41.96ZM54.85 40.6Q55.62 41.19 56.55 41.61Q57.56 41.16 58.3 40.6L54.85 40.6ZM54.32 46.42L53.54 46.42L53.54 43.46L59.73 43.46L59.73 46.42L58.95 46.42L58.95 46.03L54.32 46.03L54.32 46.42ZM58.95 45.37L58.95 44.16L54.32 44.16L54.32 45.37L58.95 45.37ZM70.85 38.73Q70.85 42.08 70.64 44.99Q70.59 45.72 70.29 46.02Q69.99 46.32 69.27 46.33Q68.57 46.35 68.01 46.28L67.85 45.53Q68.37 45.61 69.02 45.61Q69.39 45.61 69.565 45.54Q69.74 45.47 69.815 45.29Q69.89 45.11 69.92 44.72Q70.09 42.69 70.09 39.99L70.09 39.49L67.3 39.49Q66.89 40.32 66.59 40.8L65.93 40.41Q66.37 39.72 66.74 38.905Q67.11 38.09 67.34 37.31L68.05 37.48Q67.9 38.04 67.62 38.73L70.85 38.73ZM65.12 38.8L63.32 38.8L63.32 43.85L62.64 43.85L62.64 38.05L65.81 38.05L65.81 43.82L65.12 43.82L65.12 38.8ZM64.58 42.65Q64.58 43.32 64.5 43.77Q65.65 44.96 66.25 45.66L65.7 46.22Q65.21 45.58 64.29 44.53Q64.08 45.08 63.66 45.575Q63.24 46.07 62.55 46.61L62.03 46.02Q62.76 45.51 63.155 45.025Q63.55 44.54 63.72 43.94Q63.89 43.34 63.89 42.47L63.89 39.55L64.58 39.55L64.58 42.65ZM69.16 44.62Q68.98 44.06 68.94 43.94L67.09 44.29L66.25 44.44L66.01 43.71Q66.23 43.62 66.38 43.33Q66.93 42.24 67.53 40.2L68.22 40.4Q68.01 41.13 67.665 42.07Q67.32 43.01 67.03 43.63Q67.59 43.51 67.88 43.46L68.72 43.29Q68.36 42.27 68.17 41.82L68.81 41.58Q69.03 42.13 69.32 42.945Q69.61 43.76 69.8 44.38L69.16 44.62ZM79.73 40.62L79 40.3L79.79 38.73L72.63 38.73L72.63 37.98L80.63 37.98L80.63 38.74L79.73 40.62ZM75.88 40.94Q75.42 40.63 74.74 40.24Q74.06 39.85 73.62 39.65L73.99 39Q75.49 39.77 76.28 40.23L75.88 40.94ZM81.05 43.62L77.42 43.62Q77.32 43.86 77.26 43.97Q80.06 45.37 80.93 45.79L80.5 46.51Q79.08 45.75 76.83 44.61Q76.28 45.26 75.28 45.715Q74.28 46.17 72.6 46.58L72.31 45.8Q74.2 45.39 75.17 44.89Q76.14 44.39 76.55 43.62L72.26 43.62L72.26 42.87L76.83 42.87Q76.99 42.28 77.02 41.14Q77.06 39.5 77.06 39.11L77.88 39.11Q77.88 39.56 77.865 40.18Q77.85 40.8 77.83 41.25Q77.78 42.2 77.64 42.87L81.05 42.87L81.05 43.62ZM73.15 40.53Q73.66 40.76 74.38 41.14Q75.1 41.52 75.57 41.81L75.24 42.5Q74.74 42.2 74.02 41.81Q73.3 41.42 72.8 41.17L73.15 40.53ZM84.6056 46.89L84.6056 37.63L85.4156 37.63L85.4156 46.89L84.6056 46.89ZM96.4312 44.02Q95.0812 44.04 93.8612 44.08L93.8612 45.35Q93.8612 45.77 93.7562 46Q93.6512 46.23 93.4062 46.325Q93.1612 46.42 92.7112 46.42Q92.2612 46.42 91.8112 46.36L91.6512 45.61Q92.1512 45.7 92.4812 45.7Q92.8212 45.7 92.9412 45.55Q93.0612 45.4 93.0612 45.08L93.0612 44.1Q91.2512 44.15 90.4512 44.2Q89.8212 44.23 89.5012 44.26L89.4012 43.61Q90.0912 43.59 90.3812 43.53Q91.5712 43.23 93.0012 42.55Q91.6212 42.57 90.7312 42.61L89.9712 42.67L89.8712 42.12Q90.4612 42.05 90.6712 41.98Q91.1912 41.74 92.1312 41.15L89.8212 41.15L89.8212 37.77L96.9712 37.77L96.9712 41.15L93.3312 41.15Q92.3212 41.83 91.8912 42.06L94.1212 41.98Q94.7712 41.63 95.3712 41.26L95.8312 41.78Q94.8812 42.36 93.9862 42.79Q93.0912 43.22 92.0712 43.56L95.6912 43.41Q95.4212 43.19 95.0312 42.88L95.5212 42.38Q96.7312 43.34 97.5212 44.03L97.0612 44.56Q96.7512 44.28 96.4312 44.02ZM93.0412 39.13L93.0412 38.43L90.5812 38.43L90.5812 39.13L93.0412 39.13ZM93.7712 39.13L96.2112 39.13L96.2112 38.43L93.7712 38.43L93.7712 39.13ZM93.0412 39.77L90.5812 39.77L90.5812 40.52L93.0412 40.52L93.0412 39.77ZM93.7712 39.77L93.7712 40.52L96.2112 40.52L96.2112 39.77L93.7712 39.77ZM91.8912 44.97Q90.7312 45.73 89.1112 46.38L88.8012 45.68Q89.4612 45.44 90.2262 45.065Q90.9912 44.69 91.5112 44.34L91.8912 44.97ZM95.0112 44.36L97.0712 45.3L97.8612 45.66L97.5412 46.33Q95.9712 45.55 94.6912 45.03L95.0112 44.36ZM105.371 40.66L107.951 40.66L107.951 41.49L105.371 41.49L105.371 46.51L104.551 46.51L104.551 41.49L101.991 41.49L101.991 40.66L104.551 40.66L104.551 37.39L105.371 37.39L105.371 40.66ZM101.201 39.77Q100.391 38.83 99.6012 37.97L100.231 37.43Q100.561 37.79 100.641 37.87Q101.521 38.83 101.851 39.21L101.201 39.77ZM101.081 44.74L102.821 43.42L103.101 44.22L102.681 44.52Q101.401 45.43 100.991 45.76Q100.591 46.1 100.461 46.23L99.9512 45.62Q100.141 45.47 100.201 45.345Q100.261 45.22 100.261 45.01L100.261 41.38L98.8412 41.38L98.8412 40.55L101.081 40.55L101.081 44.74ZM115.371 37.36L115.371 40.18L117.501 40.18L117.501 45.27Q117.501 45.91 117.311 46.15Q117.121 46.39 116.651 46.41Q116.211 46.42 115.581 46.37L115.411 45.59Q115.911 45.65 116.401 45.65Q116.591 45.65 116.661 45.505Q116.731 45.36 116.731 44.99L116.731 44.47L113.251 44.47L113.251 46.42L112.491 46.42L112.491 40.18L114.611 40.18L114.611 37.36L115.371 37.36ZM110.041 39.36Q109.611 40.06 109.111 40.67L108.661 40.11Q109.121 39.5 109.501 38.845Q109.881 38.19 110.271 37.38L110.941 37.66Q110.691 38.21 110.461 38.63L112.031 38.63L112.031 39.36L110.041 39.36ZM113.571 39.89Q113.331 39.52 112.941 39.06Q112.551 38.6 112.171 38.2L112.731 37.71Q113.071 38.05 113.471 38.515Q113.871 38.98 114.151 39.36L113.571 39.89ZM117.831 38.2Q117.561 38.58 117.161 39.065Q116.761 39.55 116.421 39.9L115.861 39.41Q116.191 39.08 116.576 38.615Q116.961 38.15 117.251 37.75L117.831 38.2ZM110.821 41.17L110.821 42.38L112.041 42.38L112.041 43.1L110.821 43.1L110.821 45.06L111.771 44.31L111.971 45.1Q111.501 45.42 110.821 45.96Q110.611 46.11 110.391 46.3L110.201 46.45L109.761 45.81Q109.961 45.63 110.021 45.52Q110.081 45.41 110.081 45.23L110.081 43.1L108.891 43.1L108.891 42.38L110.081 42.38L110.081 41.17L109.411 41.17L109.411 40.43L111.861 40.43L111.861 41.17L110.821 41.17ZM113.251 41.95L116.731 41.95L116.731 40.9L113.251 40.9L113.251 41.95ZM113.251 42.68L113.251 43.75L116.731 43.75L116.731 42.68L113.251 42.68ZM119.921 37.72L126.861 37.72L126.861 40.09L119.921 40.09L119.921 37.72ZM126.071 38.66L126.071 38.24L120.721 38.24L120.721 38.66L126.071 38.66ZM120.721 39.14L120.721 39.59L126.071 39.59L126.071 39.14L120.721 39.14ZM118.861 41.15L118.861 40.59L127.921 40.59L127.921 41.15L118.861 41.15ZM127.141 45.21L123.781 45.21L123.781 45.72L127.811 45.72L127.811 46.28L118.971 46.28L118.971 45.72L123.011 45.72L123.011 45.21L119.641 45.21L119.641 44.66L123.011 44.66L123.011 44.14L119.921 44.14L119.921 41.65L126.861 41.65L126.861 44.14L123.781 44.14L123.781 44.66L127.141 44.66L127.141 45.21ZM123.011 42.64L123.011 42.17L120.711 42.17L120.711 42.64L123.011 42.64ZM123.781 42.64L126.071 42.64L126.071 42.17L123.781 42.17L123.781 42.64ZM120.711 43.15L120.711 43.62L123.011 43.62L123.011 43.15L120.711 43.15ZM123.781 43.15L123.781 43.62L126.071 43.62L126.071 43.15L123.781 43.15ZM130.261 44.99L133.571 44.99L133.571 45.78L128.901 45.78L128.901 45.21L131.271 42.57Q131.941 41.83 132.191 41.405Q132.441 40.98 132.441 40.48Q132.441 39.84 132.091 39.49Q131.741 39.14 131.211 39.14Q130.671 39.14 130.261 39.505Q129.851 39.87 129.671 40.47L128.951 40.06Q129.171 39.24 129.821 38.785Q130.471 38.33 131.271 38.33Q131.851 38.33 132.331 38.575Q132.811 38.82 133.096 39.295Q133.381 39.77 133.381 40.44Q133.381 41.09 133.061 41.67Q132.741 42.25 131.941 43.13L130.261 44.99ZM135.251 45.89Q135.021 45.89 134.856 45.715Q134.691 45.54 134.691 45.31Q134.691 45.07 134.856 44.9Q135.021 44.73 135.251 44.73Q135.491 44.73 135.656 44.9Q135.821 45.07 135.821 45.31Q135.821 45.55 135.656 45.72Q135.491 45.89 135.251 45.89ZM139.311 41.11Q139.961 41.11 140.471 41.415Q140.981 41.72 141.261 42.255Q141.541 42.79 141.541 43.47Q141.541 44.18 141.231 44.73Q140.921 45.28 140.381 45.585Q139.841 45.89 139.181 45.89Q138.451 45.89 137.886 45.525Q137.321 45.16 137.101 44.46L137.821 44.05Q138.001 44.56 138.346 44.82Q138.691 45.08 139.181 45.08Q139.841 45.08 140.221 44.64Q140.601 44.2 140.601 43.51Q140.601 42.84 140.236 42.38Q139.871 41.92 139.181 41.92Q138.311 41.92 137.821 42.71L137.251 42.42L137.751 38.44L141.211 38.44L141.211 39.22L138.531 39.22L138.241 41.39Q138.681 41.11 139.311 41.11ZM146.341 38.82Q146.311 39.71 146.231 40.37Q146.211 40.51 146.211 40.57L150.461 40.57Q150.431 41.65 150.351 42.82Q150.271 43.99 150.181 44.68Q150.091 45.33 149.926 45.66Q149.761 45.99 149.441 46.125Q149.121 46.26 148.521 46.28Q148.411 46.29 148.181 46.29Q147.771 46.29 147.271 46.24L147.121 45.42Q147.731 45.5 148.391 45.5Q148.711 45.5 148.891 45.415Q149.071 45.33 149.171 45.115Q149.271 44.9 149.331 44.49Q149.421 43.87 149.491 42.945Q149.561 42.02 149.581 41.34L146.101 41.34Q145.931 42.48 145.621 43.325Q145.311 44.17 144.741 44.93Q144.171 45.69 143.211 46.48L142.601 45.89Q143.621 45.04 144.171 44.285Q144.721 43.53 144.991 42.635Q145.261 41.74 145.391 40.36Q145.441 39.94 145.501 38.82L142.711 38.82L142.711 38.08L151.511 38.08L151.511 38.82L146.341 38.82ZM154.581 39.82L155.341 39.82L155.341 41.78L157.301 41.78L157.301 42.54L155.341 42.54L155.341 44.5L154.581 44.5L154.581 42.54L152.621 42.54L152.621 41.78L154.581 41.78L154.581 39.82Z">
</path>
</g>
<rect  x="14.5" y="54.5" width="116" height="23" rx="5"    fill="#FFF2F2" >
</rect>
<path   fill="rgba(167, 45, 34, 1)"  d="M19.5 54.25L125.5 54.25C128.4 54.25 130.75 56.6005 130.75 59.5L130.75 72.5C130.75 75.3995 128.4 77.75 125.5 77.75L19.5 77.75C16.6005 77.75 14.25 75.3995 14.25 72.5L14.25 59.5C14.25 56.6005 16.6005 54.25 19.5 54.25ZM19.5 54.75C16.8766 54.75 14.75 56.8766 14.75 59.5L14.75 72.5C14.75 75.1234 16.8766 77.25 19.5 77.25L125.5 77.25C128.123 77.25 130.25 75.1234 130.25 72.5L130.25 59.5C130.25 56.8766 128.123 54.75 125.5 54.75L19.5 54.75Z">
</path>
<g >
<path     fill="#A72D22"  d="M24.747 65.484Q26.254 65.913 26.254 67.431Q26.254 68.509 25.517 69.1085Q24.78 69.708 23.339 69.708L20.457 69.708L20.457 61.656L22.998 61.656Q23.845 61.656 24.472 61.92Q25.099 62.184 25.44 62.679Q25.781 63.174 25.781 63.834Q25.781 64.989 24.747 65.484ZM21.436 62.525L21.436 65.165L22.833 65.165Q23.746 65.165 24.2465 64.813Q24.747 64.461 24.747 63.834Q24.747 63.229 24.241 62.877Q23.735 62.525 22.833 62.525L21.436 62.525ZM23.163 68.85Q24.197 68.85 24.7085 68.476Q25.22 68.102 25.22 67.431Q25.22 66.749 24.7085 66.364Q24.197 65.979 23.163 65.979L21.436 65.979L21.436 68.85L23.163 68.85ZM27.365 64.714L27.178 63.856Q27.354 63.79 27.4365 63.735Q27.519 63.68 27.596 63.581Q28.014 63.02 28.487 62.162Q28.96 61.304 29.334 60.435L30.104 60.798Q29.752 61.557 29.2955 62.3875Q28.839 63.218 28.421 63.856L29.785 63.625Q30.192 62.91 30.566 62.195L31.303 62.602Q30.016 65.022 28.96 66.529L30.874 66.122L30.885 66.936L28.41 67.442L27.629 67.607L27.431 66.76Q27.717 66.672 27.8545 66.5895Q27.992 66.507 28.124 66.32Q28.63 65.605 29.334 64.417L27.981 64.615L27.365 64.714ZM35.307 62.349Q34.702 61.656 33.943 60.952L34.482 60.457Q35.252 61.128 35.89 61.854L35.307 62.349ZM36.935 67.871Q36.825 68.476 36.616 69.158Q36.407 69.851 36.099 70.159Q35.791 70.467 35.362 70.467Q34.944 70.467 34.5865 70.214Q34.229 69.961 33.811 69.301Q33.668 69.081 33.547 68.784Q32.381 69.565 31.083 70.082L30.72 69.279Q32.051 68.762 33.25 67.981Q32.975 67.057 32.788 65.737L31.072 65.946L30.995 65.121L32.689 64.912Q32.645 64.505 32.579 63.68L31.369 63.812L31.303 63.031L32.524 62.888L32.524 62.877Q32.48 62.217 32.414 60.512L33.261 60.49Q33.327 61.667 33.36 62.789L36.572 62.426L36.671 63.218L33.404 63.581Q33.437 64.23 33.503 64.813L36.836 64.406L36.913 65.22L33.602 65.627Q33.756 66.738 33.976 67.475Q35.109 66.628 35.978 65.605L36.517 66.177Q35.483 67.354 34.251 68.278Q34.405 68.608 34.548 68.872Q34.933 69.488 35.351 69.488Q35.56 69.488 35.6755 69.3285Q35.791 69.169 35.901 68.696L35.967 68.421Q36.132 67.695 36.165 67.508L36.935 67.871ZM30.951 68.971Q29.356 69.411 27.244 69.884L27.101 69.059Q29.213 68.597 30.896 68.146L30.951 68.971ZM44.976 65.671Q44.976 64.12 45.493 62.8055Q46.01 61.491 46.912 60.578L47.803 60.578Q46.912 61.656 46.4335 62.9045Q45.955 64.153 45.955 65.671Q45.955 67.2 46.4335 68.454Q46.912 69.708 47.803 70.764L46.912 70.764Q46.01 69.851 45.493 68.542Q44.976 67.233 44.976 65.671ZM54.579 64.186Q54.964 65.957 56.0585 67.266Q57.153 68.575 59.155 69.631L58.583 70.456Q55.283 68.553 54.216 65.803Q53.248 68.399 49.816 70.489L49.233 69.642Q51.136 68.608 52.324 67.2Q53.512 65.792 53.644 64.054L49.431 64.054L49.431 63.163L53.666 63.163L53.666 60.38L54.601 60.38L54.601 63.163L58.88 63.163L58.88 64.054L54.59 64.054Q54.579 64.098 54.579 64.186ZM67.603 66.573Q67.922 67.596 68.5875 68.377Q69.253 69.158 70.287 69.796L69.737 70.522Q68.802 69.895 68.175 69.147Q67.548 68.399 67.185 67.486Q66.547 69.169 64.49 70.533L63.951 69.807Q65.205 69.026 65.8155 68.2175Q66.426 67.409 66.602 66.573L64.336 66.573L64.336 65.759L66.701 65.759L66.701 65.528L66.701 62.679L64.611 62.679L64.611 61.876L66.701 61.876L66.701 60.479L67.515 60.479L67.515 61.876L69.825 61.876L69.825 62.679L67.515 62.679L67.515 65.594L67.515 65.759L70.034 65.759L70.034 66.573L67.603 66.573ZM63.247 62.294L63.962 62.294L63.962 69.059L60.453 69.367L60.453 62.338L61.168 62.338L61.168 68.564L61.861 68.487L61.861 60.589L62.565 60.589L62.565 68.421L63.247 68.344L63.247 62.294ZM65.326 63.053Q65.843 64.01 66.25 65.066L65.568 65.396Q65.183 64.362 64.677 63.361L65.326 63.053ZM67.922 65.055Q68.373 64.219 68.835 63.064L69.506 63.339Q69.121 64.329 68.571 65.385L67.922 65.055ZM75.369 61.348Q74.665 61.975 73.7575 62.613Q72.85 63.251 72.036 63.713L71.541 62.921Q72.289 62.503 73.2295 61.854Q74.17 61.205 74.808 60.644L75.369 61.348ZM80.275 63.691Q79.758 63.273 78.713 62.5525Q77.668 61.832 76.92 61.348L77.437 60.655Q78.053 61.029 79.109 61.7385Q80.165 62.448 80.792 62.91L80.275 63.691ZM76.579 62.679Q77.393 63.713 78.526 64.472Q79.659 65.231 81.232 65.836L80.858 66.694Q77.668 65.429 76.183 63.537Q75.391 64.483 74.258 65.242Q73.125 66.001 71.486 66.694L71.101 65.836Q72.729 65.209 73.8565 64.45Q74.984 63.691 75.765 62.679L76.579 62.679ZM73.741 70.522L72.894 70.522L72.894 66.133L79.439 66.133L79.439 70.522L78.603 70.522L78.603 69.895L73.741 69.895L73.741 70.522ZM78.603 69.092L78.603 66.925L73.741 66.925L73.741 69.092L78.603 69.092ZM84.378 63.152L85.214 63.152L85.214 65.308L87.37 65.308L87.37 66.144L85.214 66.144L85.214 68.3L84.378 68.3L84.378 66.144L82.222 66.144L82.222 65.308L84.378 65.308L84.378 63.152ZM98.073 70.599Q96.467 69.895 95.488 69.004Q94.531 69.84 92.958 70.599L92.496 69.807Q94.036 69.103 94.894 68.399Q93.915 67.277 93.409 65.583L93.156 65.583Q93.134 66.716 92.9965 67.4915Q92.859 68.267 92.54 68.982Q92.221 69.697 91.605 70.61L90.89 70.126Q91.495 69.279 91.792 68.586Q92.089 67.893 92.1935 67.0625Q92.298 66.232 92.298 64.835L92.298 61.909L94.817 61.909L94.817 60.49L95.653 60.49L95.653 61.909L98.183 61.909L98.183 62.712L97.622 64.076L96.852 63.845L97.347 62.745L95.653 62.745L95.653 64.758L97.611 64.758L97.611 65.561Q97.292 66.463 96.9345 67.1505Q96.577 67.838 96.082 68.41Q97.039 69.202 98.524 69.774L98.073 70.599ZM91.704 68.311Q89.724 69.114 88.646 69.576L88.371 68.729L89.68 68.212L89.68 65.451L88.602 65.451L88.602 64.582L89.68 64.582L89.68 62.327L88.503 62.327L88.503 61.491L91.737 61.491L91.737 62.327L90.527 62.327L90.527 64.582L91.638 64.582L91.638 65.451L90.527 65.451L90.527 67.882Q91.121 67.64 91.495 67.475L91.704 68.311ZM94.817 64.758L94.817 62.745L93.156 62.745L93.156 64.758L94.817 64.758ZM94.19 65.583Q94.619 66.892 95.477 67.838Q95.884 67.387 96.17 66.848Q96.456 66.309 96.709 65.583L94.19 65.583ZM109.315 61.491L109.315 62.239L103.111 62.239L103.111 61.491L105.883 61.491L105.487 60.556L106.312 60.358Q106.455 60.699 106.741 61.491L109.315 61.491ZM101.483 65.495L101.483 68.102L102.605 67.739L102.605 68.531Q102.022 68.74 101.109 69.0535Q100.196 69.367 99.525 69.587L99.305 68.773L99.998 68.564L100.68 68.355L100.68 65.495L99.602 65.495L99.602 64.692L100.68 64.692L100.68 62.25L99.47 62.25L99.47 61.447L102.539 61.447L102.539 62.25L101.483 62.25L101.483 64.692L102.55 64.692L102.55 65.495L101.483 65.495ZM104.42 64.142Q105.102 63.79 105.597 63.515Q105.014 63.163 104.53 62.899L104.86 62.371Q105.025 62.448 106.037 63.031Q106.169 63.097 106.235 63.141Q106.906 62.723 107.445 62.316L107.841 62.855Q107.368 63.185 106.862 63.504Q107.698 63.999 107.973 64.186L107.621 64.769Q107.346 64.582 106.543 64.087L106.235 63.889Q105.509 64.329 104.739 64.725L104.42 64.142ZM106.587 65.539Q106.389 66.155 106.345 66.287L109.26 66.287L109.26 69.246Q109.26 69.873 109.062 70.137Q108.864 70.401 108.347 70.401Q107.918 70.401 107.39 70.346L107.225 69.642Q107.687 69.719 108.017 69.719Q108.336 69.719 108.446 69.543Q108.556 69.367 108.556 68.927L108.556 67.002L106.092 67.002Q105.839 67.706 105.509 68.542L106.939 68.311Q106.829 68.091 106.554 67.596L107.148 67.31Q107.786 68.454 108.16 69.191L107.522 69.477Q107.489 69.4 107.28 68.982Q106.147 69.103 104.981 69.323L104.574 69.411L104.376 68.718Q104.618 68.619 104.717 68.388Q104.97 67.849 105.278 67.002L103.826 67.002L103.826 70.39L103.111 70.39L103.111 66.287L105.509 66.287Q105.586 66.078 105.729 65.539L103.386 65.539L103.386 62.69L104.079 62.69L104.079 64.835L108.303 64.835L108.303 62.69L109.007 62.69L109.007 65.539L106.587 65.539ZM113.682 66.111Q113.187 65.517 112.78 65.088L112.78 70.5L111.955 70.5L111.955 64.912Q111.328 66.815 110.646 67.937L110.228 67.068Q110.69 66.353 111.114 65.3355Q111.537 64.318 111.812 63.328L110.536 63.328L110.536 62.503L111.955 62.503L111.955 60.479L112.78 60.479L112.78 62.503L114.056 62.503L114.056 63.328L112.78 63.328L112.78 64.186Q113.539 64.846 114.243 65.55L113.682 66.111ZM120.194 67.376Q119.292 66.914 118.676 66.364L118.676 70.467L117.829 70.467L117.829 66.254L118.544 66.254Q117.697 65.473 117.114 64.318L116.872 64.318Q116.652 64.879 116.327 65.3465Q116.003 65.814 115.519 66.265L116.069 66.265L116.069 67.145Q116.069 68.267 115.695 69.0865Q115.321 69.906 114.32 70.676L113.715 70.06Q114.353 69.543 114.683 69.103Q115.013 68.663 115.129 68.2175Q115.244 67.772 115.244 67.134L115.244 66.518Q114.793 66.892 114.089 67.387L113.627 66.661Q114.584 66.023 115.112 65.5005Q115.64 64.978 115.948 64.318L114.188 64.318L114.188 63.493L116.245 63.493Q116.41 62.954 116.553 61.931Q115.376 62.041 114.496 62.085L114.408 61.271Q115.651 61.205 117.108 61.0455Q118.566 60.886 119.611 60.71L119.71 61.546Q118.588 61.722 117.433 61.843Q117.29 62.899 117.136 63.493L120.194 63.493L120.194 64.318L117.961 64.318Q118.401 65.011 119.017 65.517Q119.633 66.023 120.623 66.551L120.194 67.376ZM124.616 65.671Q124.616 67.222 124.099 68.5365Q123.582 69.851 122.68 70.764L121.789 70.764Q122.68 69.686 123.159 68.4375Q123.637 67.189 123.637 65.671Q123.637 64.142 123.159 62.888Q122.68 61.634 121.789 60.578L122.68 60.578Q123.582 61.491 124.099 62.8Q124.616 64.109 124.616 65.671Z">
</path>
</g>
<rect  x="138.5" y="54.5" width="91" height="23" rx="5"    fill="#F5F5F5" >
</rect>
<path   fill="rgba(166, 166, 166, 1)"  d="M143.5 54.25L224.5 54.25C227.4 54.25 229.75 56.6005 229.75 59.5L229.75 72.5C229.75 75.3995 227.4 77.75 224.5 77.75L143.5 77.75C140.601 77.75 138.25 75.3995 138.25 72.5L138.25 59.5C138.25 56.6005 140.601 54.25 143.5 54.25ZM143.5 54.75C140.877 54.75 138.75 56.8766 138.75 59.5L138.75 72.5C138.75 75.1234 140.877 77.25 143.5 77.25L224.5 77.25C227.123 77.25 229.25 75.1234 229.25 72.5L229.25 59.5C229.25 56.8766 227.123 54.75 224.5 54.75L143.5 54.75Z">
</path>
<g >
<path     fill="#000000"  d="M147.493 61.656L150.727 69.708L149.638 69.708L148.747 67.398L145.414 67.398L144.567 69.708L143.577 69.708L146.668 61.656L147.493 61.656ZM148.406 66.518L147.042 62.965L145.744 66.518L148.406 66.518ZM151.508 64.714L151.321 63.856Q151.497 63.79 151.579 63.735Q151.662 63.68 151.739 63.581Q152.157 63.02 152.63 62.162Q153.103 61.304 153.477 60.435L154.247 60.798Q153.895 61.557 153.439 62.3875Q152.982 63.218 152.564 63.856L153.928 63.625Q154.335 62.91 154.709 62.195L155.446 62.602Q154.159 65.022 153.103 66.529L155.017 66.122L155.028 66.936L152.553 67.442L151.772 67.607L151.574 66.76Q151.86 66.672 151.997 66.5895Q152.135 66.507 152.267 66.32Q152.773 65.605 153.477 64.417L152.124 64.615L151.508 64.714ZM159.45 62.349Q158.845 61.656 158.086 60.952L158.625 60.457Q159.395 61.128 160.033 61.854L159.45 62.349ZM161.078 67.871Q160.968 68.476 160.759 69.158Q160.55 69.851 160.242 70.159Q159.934 70.467 159.505 70.467Q159.087 70.467 158.729 70.214Q158.372 69.961 157.954 69.301Q157.811 69.081 157.69 68.784Q156.524 69.565 155.226 70.082L154.863 69.279Q156.194 68.762 157.393 67.981Q157.118 67.057 156.931 65.737L155.215 65.946L155.138 65.121L156.832 64.912Q156.788 64.505 156.722 63.68L155.512 63.812L155.446 63.031L156.667 62.888L156.667 62.877Q156.623 62.217 156.557 60.512L157.404 60.49Q157.47 61.667 157.503 62.789L160.715 62.426L160.814 63.218L157.547 63.581Q157.58 64.23 157.646 64.813L160.979 64.406L161.056 65.22L157.745 65.627Q157.899 66.738 158.119 67.475Q159.252 66.628 160.121 65.605L160.66 66.177Q159.626 67.354 158.394 68.278Q158.548 68.608 158.691 68.872Q159.076 69.488 159.494 69.488Q159.703 69.488 159.818 69.3285Q159.934 69.169 160.044 68.696L160.11 68.421Q160.275 67.695 160.308 67.508L161.078 67.871ZM155.094 68.971Q153.499 69.411 151.387 69.884L151.244 69.059Q153.356 68.597 155.039 68.146L155.094 68.971ZM169.119 65.671Q169.119 64.12 169.636 62.8055Q170.153 61.491 171.055 60.578L171.946 60.578Q171.055 61.656 170.577 62.9045Q170.098 64.153 170.098 65.671Q170.098 67.2 170.577 68.454Q171.055 69.708 171.946 70.764L171.055 70.764Q170.153 69.851 169.636 68.542Q169.119 67.233 169.119 65.671ZM183.166 67.805L183.166 68.641L178.744 68.641L178.744 70.533L177.864 70.533L177.864 68.641L173.442 68.641L173.442 67.805L177.864 67.805L177.864 66.672L174.465 66.672L174.465 62.03L176.61 62.03Q175.994 61.216 175.653 60.853L176.346 60.413Q176.665 60.743 177.391 61.722L176.918 62.03L179.074 62.03Q179.47 61.535 180.207 60.413L181.01 60.765L180.801 61.073Q180.691 61.238 180.521 61.48Q180.35 61.722 180.119 62.03L182.143 62.03L182.143 66.672L178.744 66.672L178.744 67.805L183.166 67.805ZM177.864 63.966L177.864 62.822L175.334 62.822L175.334 63.966L177.864 63.966ZM178.744 63.966L181.274 63.966L181.274 62.822L178.744 62.822L178.744 63.966ZM175.334 64.747L175.334 65.902L177.864 65.902L177.864 64.747L175.334 64.747ZM178.744 64.747L178.744 65.902L181.274 65.902L181.274 64.747L178.744 64.747ZM189.722 64.186Q190.107 65.957 191.202 67.266Q192.296 68.575 194.298 69.631L193.726 70.456Q190.426 68.553 189.359 65.803Q188.391 68.399 184.959 70.489L184.376 69.642Q186.279 68.608 187.467 67.2Q188.655 65.792 188.787 64.054L184.574 64.054L184.574 63.163L188.809 63.163L188.809 60.38L189.744 60.38L189.744 63.163L194.023 63.163L194.023 64.054L189.733 64.054Q189.722 64.098 189.722 64.186ZM202.746 66.573Q203.065 67.596 203.73 68.377Q204.396 69.158 205.43 69.796L204.88 70.522Q203.945 69.895 203.318 69.147Q202.691 68.399 202.328 67.486Q201.69 69.169 199.633 70.533L199.094 69.807Q200.348 69.026 200.958 68.2175Q201.569 67.409 201.745 66.573L199.479 66.573L199.479 65.759L201.844 65.759L201.844 65.528L201.844 62.679L199.754 62.679L199.754 61.876L201.844 61.876L201.844 60.479L202.658 60.479L202.658 61.876L204.968 61.876L204.968 62.679L202.658 62.679L202.658 65.594L202.658 65.759L205.177 65.759L205.177 66.573L202.746 66.573ZM198.39 62.294L199.105 62.294L199.105 69.059L195.596 69.367L195.596 62.338L196.311 62.338L196.311 68.564L197.004 68.487L197.004 60.589L197.708 60.589L197.708 68.421L198.39 68.344L198.39 62.294ZM200.469 63.053Q200.986 64.01 201.393 65.066L200.711 65.396Q200.326 64.362 199.82 63.361L200.469 63.053ZM203.065 65.055Q203.516 64.219 203.978 63.064L204.649 63.339Q204.264 64.329 203.714 65.385L203.065 65.055ZM210.512 61.348Q209.808 61.975 208.9 62.613Q207.993 63.251 207.179 63.713L206.684 62.921Q207.432 62.503 208.372 61.854Q209.313 61.205 209.951 60.644L210.512 61.348ZM215.418 63.691Q214.901 63.273 213.856 62.5525Q212.811 61.832 212.063 61.348L212.58 60.655Q213.196 61.029 214.252 61.7385Q215.308 62.448 215.935 62.91L215.418 63.691ZM211.722 62.679Q212.536 63.713 213.669 64.472Q214.802 65.231 216.375 65.836L216.001 66.694Q212.811 65.429 211.326 63.537Q210.534 64.483 209.401 65.242Q208.268 66.001 206.629 66.694L206.244 65.836Q207.872 65.209 209 64.45Q210.127 63.691 210.908 62.679L211.722 62.679ZM208.884 70.522L208.037 70.522L208.037 66.133L214.582 66.133L214.582 70.522L213.746 70.522L213.746 69.895L208.884 69.895L208.884 70.522ZM213.746 69.092L213.746 66.925L208.884 66.925L208.884 69.092L213.746 69.092ZM220.489 65.671Q220.489 67.222 219.972 68.5365Q219.455 69.851 218.553 70.764L217.662 70.764Q218.553 69.686 219.031 68.4375Q219.51 67.189 219.51 65.671Q219.51 64.142 219.031 62.888Q218.553 61.634 217.662 60.578L218.553 60.578Q219.455 61.491 219.972 62.8Q220.489 64.109 220.489 65.671Z">
</path>
</g>
<g >
<path     fill="#784507"  d="M25.499 121.59L25.499 123.537L24.575 123.537L24.575 122.415L17.326 122.415L17.326 123.537L16.391 123.537L16.391 121.59L20.56 121.59L20.12 120.578L21.132 120.325Q21.209 120.534 21.341 120.809Q21.407 120.963 21.495 121.167Q21.583 121.37 21.671 121.59L25.499 121.59ZM24.3 126.133L18.503 126.133L18.503 127.167L24.597 127.167L24.597 130.533L23.706 130.533L23.706 129.983L18.503 129.983L18.503 130.588L17.612 130.588L17.612 123.471L24.3 123.471L24.3 126.133ZM23.398 125.363L23.398 124.252L18.503 124.252L18.503 125.363L23.398 125.363ZM23.706 129.224L23.706 127.937L18.503 127.937L18.503 129.224L23.706 129.224ZM30.944 122.866L30.867 124.307L30.845 124.56L35.575 124.56Q35.564 125.462 35.4705 126.677Q35.377 127.893 35.267 128.498Q35.135 129.213 34.9315 129.57Q34.728 129.928 34.332 130.077Q33.936 130.225 33.177 130.225Q32.517 130.225 31.615 130.148L31.439 129.29Q32.352 129.4 33.078 129.4Q33.529 129.4 33.771 129.301Q34.013 129.202 34.145 128.949Q34.277 128.696 34.376 128.179Q34.596 127.057 34.618 125.451L30.757 125.451Q30.603 126.551 30.2785 127.404Q29.954 128.256 29.382 129.021Q28.81 129.785 27.875 130.61L27.193 129.851Q28.205 128.993 28.766 128.229Q29.327 127.464 29.5965 126.529Q29.866 125.594 29.965 124.186Q29.998 123.724 30.02 122.866L27.127 122.866L27.127 121.997L31.813 121.997Q31.362 120.897 31.219 120.622L32.099 120.325L32.715 121.711L32.836 121.997L36.906 121.997L36.906 122.866L30.944 122.866Z">
</path>
<path     fill="#A6A6A6"  d="M40.7841 130.929L40.7841 120.743L41.6751 120.743L41.6751 130.929L40.7841 130.929Z">
</path>
<path     fill="#D6645A"  d="M55.4643 121.139L55.4643 121.986L54.0123 121.986L54.0123 128.795Q54.0123 129.433 53.8803 129.763Q53.7483 130.093 53.3963 130.23Q53.0443 130.368 52.3513 130.368Q51.5263 130.368 50.9323 130.313L50.7563 129.455Q51.5703 129.543 52.2743 129.543Q52.6373 129.543 52.8188 129.455Q53.0003 129.367 53.0718 129.158Q53.1433 128.949 53.1433 128.553L53.1433 121.986L45.5093 121.986L45.5093 121.139L55.4643 121.139ZM46.7303 123.603L51.1743 123.603L51.1743 127.937L46.7303 127.937L46.7303 123.603ZM47.5663 127.101L50.3273 127.101L50.3273 124.45L47.5663 124.45L47.5663 127.101ZM58.7313 123.35Q58.3793 122.833 57.8843 122.157Q57.3893 121.48 57.0923 121.106L57.8293 120.556Q58.1263 120.919 58.6213 121.59Q59.1163 122.261 59.4683 122.756L58.7313 123.35ZM66.5413 121.271L66.5413 122.151L64.3413 122.151L64.3413 128.872Q64.3413 129.653 64.0168 129.988Q63.6923 130.324 62.9003 130.335Q62.1963 130.357 61.4813 130.269L61.2943 129.356Q61.9763 129.455 62.6473 129.455Q63.0653 129.455 63.2303 129.257Q63.3953 129.059 63.3953 128.597L63.3953 122.151L60.2383 122.151L60.2383 121.271L66.5413 121.271ZM58.8853 128.443L60.4803 127.266L60.8103 128.234L60.4693 128.454Q60.3593 128.52 59.7928 128.9Q59.2263 129.279 58.8083 129.62Q58.4343 129.906 58.2033 130.137L57.6313 129.389Q57.8183 129.213 57.8898 129.081Q57.9613 128.949 57.9613 128.762L57.9613 124.978L56.4213 124.978L56.4213 124.043L58.8853 124.043L58.8853 128.443ZM76.8153 121.051L76.8153 129.037Q76.8153 129.62 76.6723 129.9Q76.5293 130.181 76.2103 130.28Q75.8913 130.379 75.2643 130.379Q74.9673 130.379 74.3513 130.335L74.1863 129.477Q74.9783 129.565 75.3743 129.565Q75.7263 129.565 75.8583 129.411Q75.9903 129.257 75.9903 128.817L75.9903 127.211L73.2733 127.211Q73.1193 128.245 72.7398 128.999Q72.3603 129.752 71.6343 130.643L70.9303 130.093Q71.6563 129.257 71.9863 128.63Q72.3163 128.003 72.4263 127.161Q72.5363 126.32 72.5363 124.714L72.5363 121.051L76.8153 121.051ZM67.9493 121.282L71.3263 121.282L71.3263 128.883L67.9493 128.883L67.9493 121.282ZM75.9903 123.79L75.9903 121.909L73.3943 121.909L73.3943 123.79L75.9903 123.79ZM70.5343 124.516L70.5343 122.14L68.7413 122.14L68.7413 124.516L70.5343 124.516ZM75.9903 126.386L75.9903 124.615L73.3943 124.615L73.3943 125.154Q73.3943 125.825 73.3613 126.386L75.9903 126.386ZM68.7413 125.363L68.7413 128.014L70.5343 128.014L70.5343 125.363L68.7413 125.363ZM79.8623 130.412L79.8623 121.172L87.1333 121.172L87.1333 130.401L86.2203 130.401L86.2203 129.664L80.7863 129.664L80.7863 130.412L79.8623 130.412ZM86.2203 124.879L86.2203 122.074L80.7863 122.074L80.7863 124.879L86.2203 124.879ZM80.7863 125.77L80.7863 128.74L86.2203 128.74L86.2203 125.77L80.7863 125.77Z">
</path>
<path     fill="#E5E5E5"  d="M92.2434 130.929L92.2434 120.743L93.1344 120.743L93.1344 130.929L92.2434 130.929ZM149.973 130.929L149.973 120.743L150.864 120.743L150.864 130.929L149.973 130.929Z">
</path>
<path     fill="#808080"  d="M100.665 125.407Q101.391 125.638 101.748 126.155Q102.106 126.672 102.106 127.431Q102.106 128.179 101.754 128.723Q101.402 129.268 100.819 129.548Q100.236 129.829 99.5426 129.829Q98.6626 129.829 97.9201 129.378Q97.1776 128.927 96.9246 128.058L97.7166 127.607Q97.9256 128.267 98.4371 128.602Q98.9486 128.938 99.5426 128.938Q100.192 128.938 100.626 128.536Q101.061 128.135 101.061 127.42Q101.061 125.946 99.0476 125.946L98.7066 125.946L98.7176 125.066L99.1026 125.066Q99.9166 125.066 100.34 124.67Q100.764 124.274 100.764 123.658Q100.764 123.075 100.401 122.745Q100.038 122.415 99.4656 122.415Q98.8716 122.415 98.4591 122.767Q98.0466 123.119 97.8266 123.779L97.0346 123.328Q97.2986 122.437 97.9641 121.98Q98.6296 121.524 99.5206 121.524Q100.555 121.524 101.182 122.107Q101.809 122.69 101.809 123.636Q101.809 124.241 101.528 124.703Q101.248 125.165 100.665 125.407ZM108.651 125.22Q109.113 126.727 110.202 127.783Q111.291 128.839 113.161 129.631L112.688 130.5Q110.884 129.62 109.817 128.646Q108.75 127.673 108.233 126.375Q107.232 128.795 103.745 130.5L103.239 129.686Q105.23 128.762 106.319 127.651Q107.408 126.54 107.628 125.22L103.503 125.22L103.503 124.395L107.683 124.395L107.683 122.063L103.998 122.063L103.998 121.205L112.325 121.205L112.325 122.063L108.596 122.063L108.596 124.395L112.82 124.395L112.82 125.22L108.651 125.22ZM124.15 122.536L118.21 122.536Q117.858 123.174 117.473 123.735L122.885 123.735L122.885 129.158Q122.885 129.829 122.637 130.132Q122.39 130.434 121.807 130.434Q121.048 130.434 120.267 130.368L120.113 129.543Q120.872 129.631 121.543 129.631Q121.818 129.631 121.917 129.471Q122.016 129.312 122.016 128.916L122.016 128.388L117.011 128.388L117.011 130.478L116.142 130.478L116.142 125.385Q115.372 126.188 114.492 126.881L114.074 125.99Q116.043 124.516 117.209 122.536L114.448 122.536L114.448 121.7L117.649 121.7Q117.957 121.04 118.177 120.369L119.112 120.556Q118.848 121.216 118.628 121.7L124.15 121.7L124.15 122.536ZM117.011 125.682L122.016 125.682L122.016 124.516L117.011 124.516L117.011 125.682ZM117.011 126.43L117.011 127.629L122.016 127.629L122.016 126.43L117.011 126.43ZM130.167 121.997L130.167 122.888L125.272 122.888L125.272 121.997L127.505 121.997Q127.263 121.326 126.977 120.677L127.78 120.402Q128.132 121.26 128.363 121.997L130.167 121.997ZM133.093 127.497Q133.94 128.773 135.315 129.851L134.754 130.632Q133.478 129.62 132.598 128.333Q131.806 129.51 130.442 130.654L129.848 129.917Q131.289 128.817 132.103 127.53Q131.333 126.089 130.992 124.252Q130.64 124.857 130.541 125L130.013 124.296Q130.519 123.504 130.937 122.47Q131.355 121.436 131.531 120.49L132.4 120.611Q132.169 121.568 131.894 122.316L135.183 122.316L135.183 123.196L134.314 123.196Q134.149 124.516 133.857 125.561Q133.566 126.606 133.093 127.497ZM131.575 123.196Q131.85 125.176 132.587 126.639Q132.928 125.913 133.137 125.072Q133.346 124.23 133.478 123.196L131.575 123.196ZM129.705 126.078Q128.935 124.758 128.165 123.702L128.781 123.262Q129.65 124.395 130.365 125.561L129.705 126.078ZM127.428 123.702Q126.504 125.385 125.613 126.353L125.03 125.825Q125.822 124.945 126.702 123.295L127.428 123.702ZM129.199 129.752Q128.649 129.07 127.978 128.289Q127.087 129.598 125.591 130.643L125.041 129.917Q125.833 129.4 126.41 128.844Q126.988 128.289 127.417 127.64Q126.735 126.87 126.086 126.177L126.691 125.638Q127.351 126.298 127.857 126.859Q128.165 126.254 128.451 125.363L129.232 125.649Q128.891 126.694 128.451 127.508Q129.43 128.608 129.87 129.18L129.199 129.752ZM140.782 126.969L141.607 126.969L141.607 127.728L136.206 127.728L136.206 126.969L137.24 126.969L137.24 122.415L136.426 122.415L136.426 121.656L137.24 121.656L137.24 120.556L138.032 120.556L138.032 121.656L140.012 121.656L140.012 120.556L140.782 120.556L140.782 121.656L141.574 121.656L141.574 122.415L140.782 122.415L140.782 126.969ZM142.157 120.996L145.666 120.996L145.666 129.004Q145.666 129.763 145.396 130.06Q145.127 130.357 144.434 130.357Q143.961 130.357 143.477 130.291L143.301 129.466Q143.829 129.554 144.302 129.554Q144.632 129.554 144.753 129.383Q144.874 129.213 144.874 128.806L144.874 127.09L142.894 127.09Q142.817 128.201 142.553 128.921Q142.289 129.642 141.64 130.588L140.87 130.082Q141.486 129.268 141.744 128.663Q142.003 128.058 142.08 127.244Q142.157 126.43 142.157 124.78L142.157 120.996ZM144.874 123.68L144.874 121.854L142.949 121.854L142.949 123.68L144.874 123.68ZM140.012 123.438L140.012 122.415L138.032 122.415L138.032 123.438L140.012 123.438ZM140.012 124.186L138.032 124.186L138.032 125.209L140.012 125.209L140.012 124.186ZM144.874 126.276L144.874 124.472L142.949 124.472L142.949 125.198Q142.949 125.946 142.938 126.276L144.874 126.276ZM140.012 125.935L138.032 125.935L138.032 126.969L140.012 126.969L140.012 125.935ZM136.228 129.939Q137.064 129.18 137.867 127.926L138.549 128.399Q137.636 129.774 136.877 130.522L136.228 129.939ZM139.902 127.948Q140.034 128.146 140.32 128.542Q140.452 128.729 140.628 128.977Q140.804 129.224 141.002 129.51L140.353 129.972L139.946 129.378Q139.451 128.63 139.253 128.388L139.902 127.948Z">
</path>
</g>
<g >
<path     fill="#A6A6A6"  d="M25.961 140.536L20.021 140.536Q19.669 141.174 19.284 141.735L24.696 141.735L24.696 147.158Q24.696 147.829 24.4485 148.132Q24.201 148.434 23.618 148.434Q22.859 148.434 22.078 148.368L21.924 147.543Q22.683 147.631 23.354 147.631Q23.629 147.631 23.728 147.471Q23.827 147.312 23.827 146.916L23.827 146.388L18.822 146.388L18.822 148.478L17.953 148.478L17.953 143.385Q17.183 144.188 16.303 144.881L15.885 143.99Q17.854 142.516 19.02 140.536L16.259 140.536L16.259 139.7L19.46 139.7Q19.768 139.04 19.988 138.369L20.923 138.556Q20.659 139.216 20.439 139.7L25.961 139.7L25.961 140.536ZM18.822 143.682L23.827 143.682L23.827 142.516L18.822 142.516L18.822 143.682ZM18.822 144.43L18.822 145.629L23.827 145.629L23.827 144.43L18.822 144.43ZM27.006 142.978Q29.162 142.648 30.966 142.01Q30.02 141.504 29.283 140.877Q28.59 141.471 27.765 141.999L27.303 141.273Q28.205 140.701 29.052 139.926Q29.899 139.15 30.427 138.446L31.252 138.853Q30.999 139.183 30.757 139.436L35.729 139.436L35.729 140.272Q34.596 141.284 33.111 142.021Q33.892 142.274 34.816 142.467Q35.74 142.659 37.038 142.879L36.84 143.693Q33.903 143.264 32.044 142.505Q30.02 143.33 27.237 143.814L27.006 142.978ZM29.921 140.305Q30.856 141.097 32 141.603Q33.485 140.965 34.464 140.184L30.053 140.184L29.921 140.305ZM36.477 145.134L32.517 145.134L32.517 147.059Q32.517 147.807 32.231 148.109Q31.945 148.412 31.241 148.412Q30.493 148.412 29.932 148.346L29.756 147.499Q30.427 147.576 30.922 147.576Q31.34 147.576 31.4885 147.4Q31.637 147.224 31.637 146.773L31.637 145.134L27.512 145.134L27.512 144.298L31.637 144.298L31.637 143.264L32.517 143.264L32.517 144.298L36.477 144.298L36.477 145.134ZM30.46 146.069Q29.371 147.169 27.38 148.324L26.896 147.499Q27.754 147.103 28.5405 146.564Q29.327 146.025 29.899 145.442L30.46 146.069ZM33.727 145.519Q33.892 145.607 35.476 146.531L36.939 147.378L36.466 148.203Q35.729 147.719 34.8545 147.169Q33.98 146.619 33.287 146.201L33.727 145.519ZM48.06 144.21L48.06 145.046L45.145 145.046L45.145 148.544L44.276 148.544L44.276 145.046L40.943 145.046L40.943 144.21L44.276 144.21L44.276 141.636L42.461 141.636Q42.12 142.681 41.79 143.429L40.954 143.11Q41.361 142.208 41.7185 141.135Q42.076 140.063 42.307 139.051L43.099 139.249Q42.978 139.821 42.725 140.767L44.276 140.767L44.276 138.424L45.145 138.424L45.145 140.767L47.664 140.767L47.664 141.636L45.145 141.636L45.145 144.21L48.06 144.21ZM41.042 138.71Q40.679 139.997 40.217 141.075L40.217 148.511L39.381 148.511L39.381 142.78Q38.875 143.682 38.248 144.474L37.841 143.495Q38.512 142.56 39.1665 141.163Q39.821 139.766 40.184 138.457L41.042 138.71ZM51.074 141.141Q50.766 140.756 50.2105 140.162Q49.655 139.568 49.314 139.271L49.908 138.633Q50.26 138.952 50.821 139.529Q51.382 140.107 51.712 140.492L51.074 141.141ZM53.329 146.652Q52.977 146.762 52.658 146.883L52.328 146.146Q52.548 146.014 52.6195 145.921Q52.691 145.827 52.691 145.673L52.691 138.963L57.905 138.963L57.905 143.275L53.494 143.275L53.494 145.805L55.507 145.2L55.661 145.992Q54.418 146.311 53.329 146.652ZM57.113 140.745L57.113 139.733L53.494 139.733L53.494 140.745L57.113 140.745ZM53.494 141.515L53.494 142.483L57.113 142.483L57.113 141.515L53.494 141.515ZM54.022 147.345Q55.694 147.389 56.519 147.389Q57.366 147.389 59.016 147.345L58.829 148.17Q57.685 148.214 56.255 148.214Q54.946 148.214 53.901 148.17Q53.153 148.137 52.6305 147.988Q52.108 147.84 51.69 147.527Q51.272 147.213 50.843 146.663L49.622 148.291L48.951 147.598L50.403 145.816L50.403 143.11L49.05 143.11L49.05 142.274L51.239 142.274L51.239 145.805Q51.635 146.377 52.0035 146.702Q52.372 147.026 52.845 147.174Q53.318 147.323 54.022 147.345ZM54.583 143.44Q55.111 143.781 56.145 144.485Q57.146 143.946 58.213 143.154L58.631 143.759Q57.784 144.353 56.772 144.914Q57.388 145.332 58.598 146.19L58.125 146.817Q56.002 145.222 54.198 143.968L54.583 143.44ZM62.7841 148.929L62.7841 138.743L63.6751 138.743L63.6751 148.929L62.7841 148.929ZM77.2443 142.263L77.2443 143.088L72.2833 143.088Q71.9753 144.848 71.0568 146.124Q70.1383 147.4 68.2573 148.533L67.7293 147.719Q69.4123 146.74 70.2538 145.651Q71.0953 144.562 71.3923 143.088L67.6743 143.088L67.6743 142.263L71.5243 142.263Q71.5683 141.889 71.6123 141.207Q71.6233 141.042 71.6233 140.816Q71.6233 140.591 71.6343 140.36L71.6453 139.964L68.3013 139.964L68.3013 139.139L76.6063 139.139L76.6063 139.964L72.5033 139.964L72.4923 140.404Q72.4813 140.635 72.4813 140.866Q72.4813 141.097 72.4703 141.262Q72.4593 141.625 72.3933 142.263L77.2443 142.263ZM76.3423 146.542Q76.3753 145.783 76.3753 145.277L77.2443 145.442L77.1783 146.916Q77.1563 147.389 77.0243 147.642Q76.8923 147.895 76.6118 148.01Q76.3313 148.126 75.8033 148.159Q75.3303 148.192 74.9123 148.192Q74.5053 148.192 74.0213 148.159Q73.3613 148.115 73.0753 147.824Q72.7893 147.532 72.7893 146.773L72.7893 143.682L73.6693 143.682L73.6693 146.531Q73.6693 146.96 73.8178 147.13Q73.9663 147.301 74.3293 147.323Q74.7913 147.345 74.9563 147.345Q75.1213 147.345 75.5833 147.323Q76.0233 147.29 76.1773 147.141Q76.3313 146.993 76.3423 146.542ZM83.0193 140.943L79.7523 140.943L79.7523 142.395L78.9493 142.395L78.9493 140.272L83.0193 140.272L83.0193 139.612L79.3123 139.612L79.3123 138.919L87.5843 138.919L87.5843 139.612L83.8663 139.612L83.8663 140.272L87.9473 140.272L87.9473 142.395L87.1333 142.395L87.1333 140.943L83.8663 140.943L83.8663 143.11L83.0193 143.11L83.0193 140.943ZM80.2693 141.471L82.4143 141.471L82.4143 141.988L80.2693 141.988L80.2693 141.471ZM84.4713 141.471L86.6053 141.471L86.6053 141.988L84.4713 141.988L84.4713 141.471ZM82.4143 143.011L80.2693 143.011L80.2693 142.505L82.4143 142.505L82.4143 143.011ZM86.6053 143.011L84.4713 143.011L84.4713 142.505L86.6053 142.505L86.6053 143.011ZM88.0903 144.254L83.7563 144.254Q83.6023 144.716 83.4373 145.112L87.4523 145.112L87.4523 147.521Q87.4523 148.016 87.2158 148.225Q86.9793 148.434 86.4183 148.434Q86.1543 148.434 85.6703 148.39L85.5163 147.631Q85.8133 147.697 86.1213 147.697Q86.3743 147.697 86.4733 147.587Q86.5723 147.477 86.5723 147.191L86.5723 145.794L84.9993 145.794L84.9993 148.126L84.2073 148.126L84.2073 145.794L82.6673 145.794L82.6673 148.126L81.8863 148.126L81.8863 145.794L80.3133 145.794L80.3133 148.423L79.4443 148.423L79.4443 145.112L82.5793 145.112Q82.6783 144.826 82.8653 144.254L78.8063 144.254L78.8063 143.572L88.0903 143.572L88.0903 144.254ZM94.8663 146.355L93.9973 146.487L94.0083 148.544L93.1833 148.544L93.1723 146.63Q91.7863 146.861 89.4763 147.268L89.3883 146.399Q89.7403 146.355 90.4003 146.245L90.4003 139.788L89.6963 139.788L89.6963 138.952L94.6573 138.952L94.6573 139.788L93.9643 139.788L93.9973 145.618L94.8223 145.464L94.8663 146.355ZM97.5063 145.244Q98.2653 146.509 99.6293 147.609L99.0463 148.346Q97.8033 147.29 97.0113 146.08Q96.2303 147.246 94.9873 148.346L94.4153 147.642Q95.7793 146.498 96.5383 145.244Q96.0433 144.265 95.7408 143.088Q95.4383 141.911 95.2403 140.338L94.8993 140.338L94.8993 139.469L98.9363 139.469L98.9363 140.338Q98.6723 141.944 98.3533 143.105Q98.0343 144.265 97.5063 145.244ZM93.1503 141.328L93.1393 139.788L91.2473 139.788L91.2473 141.328L93.1503 141.328ZM96.0653 140.338Q96.2083 141.559 96.4393 142.533Q96.6703 143.506 97.0223 144.309Q97.3743 143.517 97.6108 142.577Q97.8473 141.636 98.0563 140.338L96.0653 140.338ZM93.1503 142.12L91.2473 142.12L91.2473 143.605L93.1613 143.605L93.1503 142.12ZM91.2473 144.397L91.2473 146.102L93.1723 145.761L93.1613 144.397L91.2473 144.397ZM101.323 140.503L103.831 140.503L103.831 139.711L100.85 139.711L100.85 138.985L110.035 138.985L110.035 139.711L107.087 139.711L107.087 140.503L109.573 140.503L109.573 142.868L101.323 142.868L101.323 140.503ZM104.634 140.503L106.284 140.503L106.284 139.711L104.634 139.711L104.634 140.503ZM103.831 141.218L102.159 141.218L102.159 142.175L103.831 142.175L103.831 141.218ZM106.284 141.218L104.634 141.218L104.634 142.175L106.284 142.175L106.284 141.218ZM108.748 142.175L108.748 141.218L107.087 141.218L107.087 142.175L108.748 142.175ZM109.397 143.66L109.397 144.375L101.51 144.375L101.51 143.66L109.397 143.66ZM110.255 145.871L105.943 145.871L105.943 147.158Q105.943 147.807 105.679 148.077Q105.415 148.346 104.722 148.346Q104.183 148.346 103.655 148.258L103.512 147.521Q104.194 147.631 104.524 147.631Q104.898 147.631 105.019 147.455Q105.14 147.279 105.14 146.894L105.14 145.871L100.641 145.871L100.641 145.145L110.255 145.145L110.255 145.871ZM103.886 146.773Q102.852 147.4 100.927 148.247L100.575 147.51Q101.29 147.246 102.088 146.844Q102.885 146.443 103.457 146.069L103.886 146.773ZM107.417 146.102Q108.066 146.388 108.853 146.768Q109.639 147.147 110.343 147.499L109.947 148.247Q108.825 147.631 107.043 146.806L107.417 146.102ZM128.572 145.178Q128.561 145.739 128.484 146.641Q128.44 147.279 128.275 147.592Q128.11 147.906 127.747 148.033Q127.384 148.159 126.636 148.203Q125.47 148.28 124.139 148.28Q122.797 148.28 121.631 148.203Q120.927 148.159 120.569 148.016Q120.212 147.873 120.058 147.516Q119.904 147.158 119.904 146.454L119.904 141.152L120.85 141.152L120.85 142.626L126.757 142.626L126.757 139.997L119.596 139.997L119.596 139.106L127.67 139.106L127.67 143.506L120.85 143.506L120.85 146.157Q120.85 146.641 120.938 146.867Q121.026 147.092 121.246 147.186Q121.466 147.279 121.95 147.312Q123.237 147.389 124.161 147.389Q125.074 147.389 126.361 147.312Q126.889 147.279 127.131 147.197Q127.373 147.114 127.472 146.921Q127.571 146.729 127.593 146.311L127.659 144.958L128.572 145.178ZM135.997 143.726L139.55 143.726L139.55 144.452L131.223 144.452L131.223 141.427Q130.695 142.098 130.178 142.582L129.727 141.757Q130.354 141.24 131.03 140.261Q131.707 139.282 132.092 138.369L132.928 138.644Q132.785 138.952 132.455 139.568L135.172 139.568L134.699 138.611L135.513 138.358Q135.81 138.941 136.074 139.568L139.308 139.568L139.308 140.283L135.997 140.283L135.997 140.976L139.066 140.976L139.066 141.647L135.997 141.647L135.997 142.34L139.066 142.34L139.066 143.022L135.997 143.022L135.997 143.726ZM132.081 140.976L135.139 140.976L135.139 140.283L132.081 140.283L132.081 140.976ZM132.081 142.34L135.139 142.34L135.139 141.647L132.081 141.647L132.081 142.34ZM135.139 143.022L132.081 143.022L132.081 143.726L135.139 143.726L135.139 143.022ZM132.114 148.489L131.234 148.489L131.234 145.277L138.747 145.277L138.747 148.489L137.878 148.489L137.878 147.939L132.114 147.939L132.114 148.489ZM137.878 147.246L137.878 146.003L132.114 146.003L132.114 147.246L137.878 147.246ZM141.508 142.021L141.508 141.009L143.851 139.645L144.599 139.645L144.599 147.708L143.609 147.708L143.609 140.822L141.508 142.021ZM147.954 147.829Q147.701 147.829 147.519 147.637Q147.338 147.444 147.338 147.191Q147.338 146.927 147.519 146.74Q147.701 146.553 147.954 146.553Q148.218 146.553 148.399 146.74Q148.581 146.927 148.581 147.191Q148.581 147.455 148.399 147.642Q148.218 147.829 147.954 147.829ZM150.319 142.021L150.319 141.009L152.662 139.645L153.41 139.645L153.41 147.708L152.42 147.708L152.42 140.822L150.319 142.021ZM160.153 140.052Q160.12 141.031 160.032 141.757Q160.01 141.911 160.01 141.977L164.685 141.977Q164.652 143.165 164.564 144.452Q164.476 145.739 164.377 146.498Q164.278 147.213 164.096 147.576Q163.915 147.939 163.563 148.087Q163.211 148.236 162.551 148.258Q162.43 148.269 162.177 148.269Q161.726 148.269 161.176 148.214L161.011 147.312Q161.682 147.4 162.408 147.4Q162.76 147.4 162.958 147.307Q163.156 147.213 163.266 146.977Q163.376 146.74 163.442 146.289Q163.541 145.607 163.618 144.59Q163.695 143.572 163.717 142.824L159.889 142.824Q159.702 144.078 159.361 145.008Q159.02 145.937 158.393 146.773Q157.766 147.609 156.71 148.478L156.039 147.829Q157.161 146.894 157.766 146.064Q158.371 145.233 158.668 144.249Q158.965 143.264 159.108 141.746Q159.163 141.284 159.229 140.052L156.16 140.052L156.16 139.238L165.84 139.238L165.84 140.052L160.153 140.052ZM169.217 141.152L170.053 141.152L170.053 143.308L172.209 143.308L172.209 144.144L170.053 144.144L170.053 146.3L169.217 146.3L169.217 144.144L167.061 144.144L167.061 143.308L169.217 143.308L169.217 141.152Z">
</path>
<path     fill="#E5E5E5"  d="M114.243 148.929L114.243 138.743L115.134 138.743L115.134 148.929L114.243 148.929Z">
</path>
</g>
<path d="M62.5556 109.222C62.389 109.222 62.2779 109.167 62.1668 109.056C61.9445 108.833 62.0001 108.5 62.2223 108.278L65.7778 105.056C65.889 104.944 65.9445 104.833 65.9445 104.722C65.9445 104.611 65.889 104.5 65.7778 104.389L62.1668 101.333C61.9445 101.111 61.889 100.778 62.1112 100.556C62.3334 100.333 62.6668 100.278 62.889 100.5L66.4445 103.556C66.7778 103.833 67.0001 104.278 67.0001 104.722C67.0001 105.167 66.8334 105.556 66.5001 105.889L62.9445 109.111C62.8334 109.167 62.6668 109.222 62.5556 109.222Z"   fill="#000000" >
</path>
<g >
<path     fill="#000000"  d="M16.118 167.652L16.118 169.346L14.438 169.346L14.438 166.042L16.538 166.042Q16.272 165.552 15.88 164.908L15.53 164.292L17.07 163.648Q17.154 163.816 17.658 164.656L18.176 165.566L16.958 166.042L19.94 166.042Q19.828 165.776 19.436 164.964Q19.128 164.348 19.03 164.124L20.528 163.522Q21.298 164.95 21.592 165.566L20.178 166.042L22.432 166.042Q23.426 164.53 23.874 163.606L25.554 164.306Q25.554 164.306 24.63 165.692L24.392 166.042L26.576 166.042L26.576 169.346L24.952 169.346L24.952 167.652L16.118 167.652ZM26.632 171.74L26.632 173.294L21.648 173.294L21.648 174.764Q21.648 175.842 21.186 176.262Q20.724 176.682 19.576 176.682Q18.68 176.682 17.798 176.556L17.434 174.946Q18.33 175.114 19.184 175.114Q19.548 175.114 19.688 174.932Q19.828 174.75 19.828 174.274L19.828 173.294L14.354 173.294L14.354 171.74L19.828 171.74L19.828 171.236L21.816 170.158L16.65 170.158L16.65 168.632L24.42 168.632L24.42 170.144L21.76 171.74L26.632 171.74ZM35.732 174.596L40.828 174.596L40.828 176.29L28.452 176.29L28.452 174.596L33.954 174.596L33.954 171.908L29.698 171.908L29.698 170.242L33.954 170.242L33.954 167.918L31.056 167.918Q30.552 169.08 29.908 170.116L28.298 169.234Q29.712 167.302 30.482 164.25L32.218 164.628Q31.966 165.496 31.714 166.224L33.954 166.224L33.954 163.802L35.732 163.802L35.732 166.224L40.296 166.224L40.296 167.918L35.732 167.918L35.732 170.242L39.834 170.242L39.834 171.908L35.732 171.908L35.732 174.596ZM42.998 166.238L46.19 166.238L46.19 165.566L42.662 165.566L42.662 164.208L54.296 164.208L54.296 165.566L50.824 165.566L50.824 166.238L53.974 166.238L53.974 169.682L42.998 169.682L42.998 166.238ZM47.716 166.238L49.298 166.238L49.298 165.566L47.716 165.566L47.716 166.238ZM46.19 167.54L44.594 167.54L44.594 168.408L46.19 168.408L46.19 167.54ZM49.298 167.54L47.716 167.54L47.716 168.408L49.298 168.408L49.298 167.54ZM52.392 168.408L52.392 167.54L50.824 167.54L50.824 168.408L52.392 168.408ZM53.484 170.368L53.484 171.642L43.488 171.642L43.488 170.368L53.484 170.368ZM51.552 173.588Q53.764 174.596 54.828 175.142L54.086 176.5Q52.714 175.744 50.53 174.736L51.132 173.588L49.48 173.588L49.48 174.876Q49.48 175.8 49.123 176.192Q48.766 176.584 47.814 176.584Q47.086 176.584 46.302 176.472L46.022 175.086Q46.89 175.226 47.324 175.226Q47.688 175.226 47.821 175.03Q47.954 174.834 47.954 174.428L47.954 173.588L45.798 173.588L46.47 174.694Q45.35 175.352 42.802 176.5L42.2 175.184Q42.97 174.89 43.831 174.456Q44.692 174.022 45.392 173.588L42.396 173.588L42.396 172.286L54.576 172.286L54.576 173.588L51.552 173.588Z">
</path>
</g>
<g >
<path     fill="#784507"  d="M23.499 187.59L23.499 189.537L22.575 189.537L22.575 188.415L15.326 188.415L15.326 189.537L14.391 189.537L14.391 187.59L18.56 187.59L18.12 186.578L19.132 186.325Q19.209 186.534 19.341 186.809Q19.407 186.963 19.495 187.167Q19.583 187.37 19.671 187.59L23.499 187.59ZM22.3 192.133L16.503 192.133L16.503 193.167L22.597 193.167L22.597 196.533L21.706 196.533L21.706 195.983L16.503 195.983L16.503 196.588L15.612 196.588L15.612 189.471L22.3 189.471L22.3 192.133ZM21.398 191.363L21.398 190.252L16.503 190.252L16.503 191.363L21.398 191.363ZM21.706 195.224L21.706 193.937L16.503 193.937L16.503 195.224L21.706 195.224ZM28.944 188.866L28.867 190.307L28.845 190.56L33.575 190.56Q33.564 191.462 33.4705 192.678Q33.377 193.893 33.267 194.498Q33.135 195.213 32.9315 195.57Q32.728 195.928 32.332 196.077Q31.936 196.225 31.177 196.225Q30.517 196.225 29.615 196.148L29.439 195.29Q30.352 195.4 31.078 195.4Q31.529 195.4 31.771 195.301Q32.013 195.202 32.145 194.949Q32.277 194.696 32.376 194.179Q32.596 193.057 32.618 191.451L28.757 191.451Q28.603 192.551 28.2785 193.404Q27.954 194.256 27.382 195.021Q26.81 195.785 25.875 196.61L25.193 195.851Q26.205 194.993 26.766 194.229Q27.327 193.464 27.5965 192.529Q27.866 191.594 27.965 190.186Q27.998 189.724 28.02 188.866L25.127 188.866L25.127 187.997L29.813 187.997Q29.362 186.897 29.219 186.622L30.099 186.325L30.715 187.711L30.836 187.997L34.906 187.997L34.906 188.866L28.944 188.866Z">
</path>
<path     fill="#A6A6A6"  d="M38.7841 196.929L38.7841 186.743L39.6751 186.743L39.6751 196.929L38.7841 196.929Z">
</path>
<path     fill="#D6645A"  d="M53.4643 187.139L53.4643 187.986L52.0123 187.986L52.0123 194.795Q52.0123 195.433 51.8803 195.763Q51.7483 196.093 51.3963 196.23Q51.0443 196.368 50.3513 196.368Q49.5263 196.368 48.9323 196.313L48.7563 195.455Q49.5703 195.543 50.2743 195.543Q50.6373 195.543 50.8188 195.455Q51.0003 195.367 51.0718 195.158Q51.1433 194.949 51.1433 194.553L51.1433 187.986L43.5093 187.986L43.5093 187.139L53.4643 187.139ZM44.7303 189.603L49.1743 189.603L49.1743 193.937L44.7303 193.937L44.7303 189.603ZM45.5663 193.101L48.3273 193.101L48.3273 190.45L45.5663 190.45L45.5663 193.101ZM56.7313 189.35Q56.3793 188.833 55.8843 188.156Q55.3893 187.48 55.0923 187.106L55.8293 186.556Q56.1263 186.919 56.6213 187.59Q57.1163 188.261 57.4683 188.756L56.7313 189.35ZM64.5413 187.271L64.5413 188.151L62.3413 188.151L62.3413 194.872Q62.3413 195.653 62.0168 195.988Q61.6923 196.324 60.9003 196.335Q60.1963 196.357 59.4813 196.269L59.2943 195.356Q59.9763 195.455 60.6473 195.455Q61.0653 195.455 61.2303 195.257Q61.3953 195.059 61.3953 194.597L61.3953 188.151L58.2383 188.151L58.2383 187.271L64.5413 187.271ZM56.8853 194.443L58.4803 193.266L58.8103 194.234L58.4693 194.454Q58.3593 194.52 57.7928 194.9Q57.2263 195.279 56.8083 195.62Q56.4343 195.906 56.2033 196.137L55.6313 195.389Q55.8183 195.213 55.8898 195.081Q55.9613 194.949 55.9613 194.762L55.9613 190.978L54.4213 190.978L54.4213 190.043L56.8853 190.043L56.8853 194.443ZM74.8153 187.051L74.8153 195.037Q74.8153 195.62 74.6723 195.9Q74.5293 196.181 74.2103 196.28Q73.8913 196.379 73.2643 196.379Q72.9673 196.379 72.3513 196.335L72.1863 195.477Q72.9783 195.565 73.3743 195.565Q73.7263 195.565 73.8583 195.411Q73.9903 195.257 73.9903 194.817L73.9903 193.211L71.2733 193.211Q71.1193 194.245 70.7398 194.999Q70.3603 195.752 69.6343 196.643L68.9303 196.093Q69.6563 195.257 69.9863 194.63Q70.3163 194.003 70.4263 193.161Q70.5363 192.32 70.5363 190.714L70.5363 187.051L74.8153 187.051ZM65.9493 187.282L69.3263 187.282L69.3263 194.883L65.9493 194.883L65.9493 187.282ZM73.9903 189.79L73.9903 187.909L71.3943 187.909L71.3943 189.79L73.9903 189.79ZM68.5343 190.516L68.5343 188.14L66.7413 188.14L66.7413 190.516L68.5343 190.516ZM73.9903 192.386L73.9903 190.615L71.3943 190.615L71.3943 191.154Q71.3943 191.825 71.3613 192.386L73.9903 192.386ZM66.7413 191.363L66.7413 194.014L68.5343 194.014L68.5343 191.363L66.7413 191.363ZM77.8623 196.412L77.8623 187.172L85.1333 187.172L85.1333 196.401L84.2203 196.401L84.2203 195.664L78.7863 195.664L78.7863 196.412L77.8623 196.412ZM84.2203 190.879L84.2203 188.074L78.7863 188.074L78.7863 190.879L84.2203 190.879ZM78.7863 191.77L78.7863 194.74L84.2203 194.74L84.2203 191.77L78.7863 191.77Z">
</path>
<path     fill="#E5E5E5"  d="M90.2434 196.929L90.2434 186.743L91.1344 186.743L91.1344 196.929L90.2434 196.929ZM147.973 196.929L147.973 186.743L148.864 186.743L148.864 196.929L147.973 196.929Z">
</path>
<path     fill="#808080"  d="M98.6646 191.407Q99.3906 191.638 99.7481 192.155Q100.106 192.672 100.106 193.431Q100.106 194.179 99.7536 194.723Q99.4016 195.268 98.8186 195.548Q98.2356 195.829 97.5426 195.829Q96.6626 195.829 95.9201 195.378Q95.1776 194.927 94.9246 194.058L95.7166 193.607Q95.9256 194.267 96.4371 194.602Q96.9486 194.938 97.5426 194.938Q98.1916 194.938 98.6261 194.536Q99.0606 194.135 99.0606 193.42Q99.0606 191.946 97.0476 191.946L96.7066 191.946L96.7176 191.066L97.1026 191.066Q97.9166 191.066 98.3401 190.67Q98.7636 190.274 98.7636 189.658Q98.7636 189.075 98.4006 188.745Q98.0376 188.415 97.4656 188.415Q96.8716 188.415 96.4591 188.767Q96.0466 189.119 95.8266 189.779L95.0346 189.328Q95.2986 188.437 95.9641 187.98Q96.6296 187.524 97.5206 187.524Q98.5546 187.524 99.1816 188.107Q99.8086 188.69 99.8086 189.636Q99.8086 190.241 99.5281 190.703Q99.2476 191.165 98.6646 191.407ZM106.651 191.22Q107.113 192.727 108.202 193.783Q109.291 194.839 111.161 195.631L110.688 196.5Q108.884 195.62 107.817 194.646Q106.75 193.673 106.233 192.375Q105.232 194.795 101.745 196.5L101.239 195.686Q103.23 194.762 104.319 193.651Q105.408 192.54 105.628 191.22L101.503 191.22L101.503 190.395L105.683 190.395L105.683 188.063L101.998 188.063L101.998 187.205L110.325 187.205L110.325 188.063L106.596 188.063L106.596 190.395L110.82 190.395L110.82 191.22L106.651 191.22ZM122.15 188.536L116.21 188.536Q115.858 189.174 115.473 189.735L120.885 189.735L120.885 195.158Q120.885 195.829 120.637 196.132Q120.39 196.434 119.807 196.434Q119.048 196.434 118.267 196.368L118.113 195.543Q118.872 195.631 119.543 195.631Q119.818 195.631 119.917 195.471Q120.016 195.312 120.016 194.916L120.016 194.388L115.011 194.388L115.011 196.478L114.142 196.478L114.142 191.385Q113.372 192.188 112.492 192.881L112.074 191.99Q114.043 190.516 115.209 188.536L112.448 188.536L112.448 187.7L115.649 187.7Q115.957 187.04 116.177 186.369L117.112 186.556Q116.848 187.216 116.628 187.7L122.15 187.7L122.15 188.536ZM115.011 191.682L120.016 191.682L120.016 190.516L115.011 190.516L115.011 191.682ZM115.011 192.43L115.011 193.629L120.016 193.629L120.016 192.43L115.011 192.43ZM128.167 187.997L128.167 188.888L123.272 188.888L123.272 187.997L125.505 187.997Q125.263 187.326 124.977 186.677L125.78 186.402Q126.132 187.26 126.363 187.997L128.167 187.997ZM131.093 193.497Q131.94 194.773 133.315 195.851L132.754 196.632Q131.478 195.62 130.598 194.333Q129.806 195.51 128.442 196.654L127.848 195.917Q129.289 194.817 130.103 193.53Q129.333 192.089 128.992 190.252Q128.64 190.857 128.541 191L128.013 190.296Q128.519 189.504 128.937 188.47Q129.355 187.436 129.531 186.49L130.4 186.611Q130.169 187.568 129.894 188.316L133.183 188.316L133.183 189.196L132.314 189.196Q132.149 190.516 131.857 191.561Q131.566 192.606 131.093 193.497ZM129.575 189.196Q129.85 191.176 130.587 192.639Q130.928 191.913 131.137 191.072Q131.346 190.23 131.478 189.196L129.575 189.196ZM127.705 192.078Q126.935 190.758 126.165 189.702L126.781 189.262Q127.65 190.395 128.365 191.561L127.705 192.078ZM125.428 189.702Q124.504 191.385 123.613 192.353L123.03 191.825Q123.822 190.945 124.702 189.295L125.428 189.702ZM127.199 195.752Q126.649 195.07 125.978 194.289Q125.087 195.598 123.591 196.643L123.041 195.917Q123.833 195.4 124.41 194.844Q124.988 194.289 125.417 193.64Q124.735 192.87 124.086 192.177L124.691 191.638Q125.351 192.298 125.857 192.859Q126.165 192.254 126.451 191.363L127.232 191.649Q126.891 192.694 126.451 193.508Q127.43 194.608 127.87 195.18L127.199 195.752ZM138.782 192.969L139.607 192.969L139.607 193.728L134.206 193.728L134.206 192.969L135.24 192.969L135.24 188.415L134.426 188.415L134.426 187.656L135.24 187.656L135.24 186.556L136.032 186.556L136.032 187.656L138.012 187.656L138.012 186.556L138.782 186.556L138.782 187.656L139.574 187.656L139.574 188.415L138.782 188.415L138.782 192.969ZM140.157 186.996L143.666 186.996L143.666 195.004Q143.666 195.763 143.396 196.06Q143.127 196.357 142.434 196.357Q141.961 196.357 141.477 196.291L141.301 195.466Q141.829 195.554 142.302 195.554Q142.632 195.554 142.753 195.383Q142.874 195.213 142.874 194.806L142.874 193.09L140.894 193.09Q140.817 194.201 140.553 194.921Q140.289 195.642 139.64 196.588L138.87 196.082Q139.486 195.268 139.744 194.663Q140.003 194.058 140.08 193.244Q140.157 192.43 140.157 190.78L140.157 186.996ZM142.874 189.68L142.874 187.854L140.949 187.854L140.949 189.68L142.874 189.68ZM138.012 189.438L138.012 188.415L136.032 188.415L136.032 189.438L138.012 189.438ZM138.012 190.186L136.032 190.186L136.032 191.209L138.012 191.209L138.012 190.186ZM142.874 192.276L142.874 190.472L140.949 190.472L140.949 191.198Q140.949 191.946 140.938 192.276L142.874 192.276ZM138.012 191.935L136.032 191.935L136.032 192.969L138.012 192.969L138.012 191.935ZM134.228 195.939Q135.064 195.18 135.867 193.926L136.549 194.399Q135.636 195.774 134.877 196.522L134.228 195.939ZM137.902 193.948Q138.034 194.146 138.32 194.542Q138.452 194.729 138.628 194.977Q138.804 195.224 139.002 195.51L138.353 195.972L137.946 195.378Q137.451 194.63 137.253 194.388L137.902 193.948Z">
</path>
</g>
<g >
<path     fill="#A6A6A6"  d="M23.961 206.536L18.021 206.536Q17.669 207.174 17.284 207.735L22.696 207.735L22.696 213.158Q22.696 213.829 22.4485 214.132Q22.201 214.434 21.618 214.434Q20.859 214.434 20.078 214.368L19.924 213.543Q20.683 213.631 21.354 213.631Q21.629 213.631 21.728 213.471Q21.827 213.312 21.827 212.916L21.827 212.388L16.822 212.388L16.822 214.478L15.953 214.478L15.953 209.385Q15.183 210.188 14.303 210.881L13.885 209.99Q15.854 208.516 17.02 206.536L14.259 206.536L14.259 205.7L17.46 205.7Q17.768 205.04 17.988 204.369L18.923 204.556Q18.659 205.216 18.439 205.7L23.961 205.7L23.961 206.536ZM16.822 209.682L21.827 209.682L21.827 208.516L16.822 208.516L16.822 209.682ZM16.822 210.43L16.822 211.629L21.827 211.629L21.827 210.43L16.822 210.43ZM25.006 208.978Q27.162 208.648 28.966 208.01Q28.02 207.504 27.283 206.877Q26.59 207.471 25.765 207.999L25.303 207.273Q26.205 206.701 27.052 205.926Q27.899 205.15 28.427 204.446L29.252 204.853Q28.999 205.183 28.757 205.436L33.729 205.436L33.729 206.272Q32.596 207.284 31.111 208.021Q31.892 208.274 32.816 208.467Q33.74 208.659 35.038 208.879L34.84 209.693Q31.903 209.264 30.044 208.505Q28.02 209.33 25.237 209.814L25.006 208.978ZM27.921 206.305Q28.856 207.097 30 207.603Q31.485 206.965 32.464 206.184L28.053 206.184L27.921 206.305ZM34.477 211.134L30.517 211.134L30.517 213.059Q30.517 213.807 30.231 214.109Q29.945 214.412 29.241 214.412Q28.493 214.412 27.932 214.346L27.756 213.499Q28.427 213.576 28.922 213.576Q29.34 213.576 29.4885 213.4Q29.637 213.224 29.637 212.773L29.637 211.134L25.512 211.134L25.512 210.298L29.637 210.298L29.637 209.264L30.517 209.264L30.517 210.298L34.477 210.298L34.477 211.134ZM28.46 212.069Q27.371 213.169 25.38 214.324L24.896 213.499Q25.754 213.103 26.5405 212.564Q27.327 212.025 27.899 211.442L28.46 212.069ZM31.727 211.519Q31.892 211.607 33.476 212.531L34.939 213.378L34.466 214.203Q33.729 213.719 32.8545 213.169Q31.98 212.619 31.287 212.201L31.727 211.519ZM46.06 210.21L46.06 211.046L43.145 211.046L43.145 214.544L42.276 214.544L42.276 211.046L38.943 211.046L38.943 210.21L42.276 210.21L42.276 207.636L40.461 207.636Q40.12 208.681 39.79 209.429L38.954 209.11Q39.361 208.208 39.7185 207.135Q40.076 206.063 40.307 205.051L41.099 205.249Q40.978 205.821 40.725 206.767L42.276 206.767L42.276 204.424L43.145 204.424L43.145 206.767L45.664 206.767L45.664 207.636L43.145 207.636L43.145 210.21L46.06 210.21ZM39.042 204.71Q38.679 205.997 38.217 207.075L38.217 214.511L37.381 214.511L37.381 208.78Q36.875 209.682 36.248 210.474L35.841 209.495Q36.512 208.56 37.1665 207.163Q37.821 205.766 38.184 204.457L39.042 204.71ZM49.074 207.141Q48.766 206.756 48.2105 206.162Q47.655 205.568 47.314 205.271L47.908 204.633Q48.26 204.952 48.821 205.529Q49.382 206.107 49.712 206.492L49.074 207.141ZM51.329 212.652Q50.977 212.762 50.658 212.883L50.328 212.146Q50.548 212.014 50.6195 211.921Q50.691 211.827 50.691 211.673L50.691 204.963L55.905 204.963L55.905 209.275L51.494 209.275L51.494 211.805L53.507 211.2L53.661 211.992Q52.418 212.311 51.329 212.652ZM55.113 206.745L55.113 205.733L51.494 205.733L51.494 206.745L55.113 206.745ZM51.494 207.515L51.494 208.483L55.113 208.483L55.113 207.515L51.494 207.515ZM52.022 213.345Q53.694 213.389 54.519 213.389Q55.366 213.389 57.016 213.345L56.829 214.17Q55.685 214.214 54.255 214.214Q52.946 214.214 51.901 214.17Q51.153 214.137 50.6305 213.988Q50.108 213.84 49.69 213.527Q49.272 213.213 48.843 212.663L47.622 214.291L46.951 213.598L48.403 211.816L48.403 209.11L47.05 209.11L47.05 208.274L49.239 208.274L49.239 211.805Q49.635 212.377 50.0035 212.702Q50.372 213.026 50.845 213.174Q51.318 213.323 52.022 213.345ZM52.583 209.44Q53.111 209.781 54.145 210.485Q55.146 209.946 56.213 209.154L56.631 209.759Q55.784 210.353 54.772 210.914Q55.388 211.332 56.598 212.19L56.125 212.817Q54.002 211.222 52.198 209.968L52.583 209.44ZM60.7841 214.929L60.7841 204.743L61.6751 204.743L61.6751 214.929L60.7841 214.929ZM75.2443 208.263L75.2443 209.088L70.2833 209.088Q69.9753 210.848 69.0568 212.124Q68.1383 213.4 66.2573 214.533L65.7293 213.719Q67.4123 212.74 68.2538 211.651Q69.0953 210.562 69.3923 209.088L65.6743 209.088L65.6743 208.263L69.5243 208.263Q69.5683 207.889 69.6123 207.207Q69.6233 207.042 69.6233 206.816Q69.6233 206.591 69.6343 206.36L69.6453 205.964L66.3013 205.964L66.3013 205.139L74.6063 205.139L74.6063 205.964L70.5033 205.964L70.4923 206.404Q70.4813 206.635 70.4813 206.866Q70.4813 207.097 70.4703 207.262Q70.4593 207.625 70.3933 208.263L75.2443 208.263ZM74.3423 212.542Q74.3753 211.783 74.3753 211.277L75.2443 211.442L75.1783 212.916Q75.1563 213.389 75.0243 213.642Q74.8923 213.895 74.6118 214.01Q74.3313 214.126 73.8033 214.159Q73.3303 214.192 72.9123 214.192Q72.5053 214.192 72.0213 214.159Q71.3613 214.115 71.0753 213.824Q70.7893 213.532 70.7893 212.773L70.7893 209.682L71.6693 209.682L71.6693 212.531Q71.6693 212.96 71.8178 213.13Q71.9663 213.301 72.3293 213.323Q72.7913 213.345 72.9563 213.345Q73.1213 213.345 73.5833 213.323Q74.0233 213.29 74.1773 213.141Q74.3313 212.993 74.3423 212.542ZM81.0193 206.943L77.7523 206.943L77.7523 208.395L76.9493 208.395L76.9493 206.272L81.0193 206.272L81.0193 205.612L77.3123 205.612L77.3123 204.919L85.5843 204.919L85.5843 205.612L81.8663 205.612L81.8663 206.272L85.9473 206.272L85.9473 208.395L85.1333 208.395L85.1333 206.943L81.8663 206.943L81.8663 209.11L81.0193 209.11L81.0193 206.943ZM78.2693 207.471L80.4143 207.471L80.4143 207.988L78.2693 207.988L78.2693 207.471ZM82.4713 207.471L84.6053 207.471L84.6053 207.988L82.4713 207.988L82.4713 207.471ZM80.4143 209.011L78.2693 209.011L78.2693 208.505L80.4143 208.505L80.4143 209.011ZM84.6053 209.011L82.4713 209.011L82.4713 208.505L84.6053 208.505L84.6053 209.011ZM86.0903 210.254L81.7563 210.254Q81.6023 210.716 81.4373 211.112L85.4523 211.112L85.4523 213.521Q85.4523 214.016 85.2158 214.225Q84.9793 214.434 84.4183 214.434Q84.1543 214.434 83.6703 214.39L83.5163 213.631Q83.8133 213.697 84.1213 213.697Q84.3743 213.697 84.4733 213.587Q84.5723 213.477 84.5723 213.191L84.5723 211.794L82.9993 211.794L82.9993 214.126L82.2073 214.126L82.2073 211.794L80.6673 211.794L80.6673 214.126L79.8863 214.126L79.8863 211.794L78.3133 211.794L78.3133 214.423L77.4443 214.423L77.4443 211.112L80.5793 211.112Q80.6783 210.826 80.8653 210.254L76.8063 210.254L76.8063 209.572L86.0903 209.572L86.0903 210.254ZM92.8663 212.355L91.9973 212.487L92.0083 214.544L91.1833 214.544L91.1723 212.63Q89.7863 212.861 87.4763 213.268L87.3883 212.399Q87.7403 212.355 88.4003 212.245L88.4003 205.788L87.6963 205.788L87.6963 204.952L92.6573 204.952L92.6573 205.788L91.9643 205.788L91.9973 211.618L92.8223 211.464L92.8663 212.355ZM95.5063 211.244Q96.2653 212.509 97.6293 213.609L97.0463 214.346Q95.8033 213.29 95.0113 212.08Q94.2303 213.246 92.9873 214.346L92.4153 213.642Q93.7793 212.498 94.5383 211.244Q94.0433 210.265 93.7408 209.088Q93.4383 207.911 93.2403 206.338L92.8993 206.338L92.8993 205.469L96.9363 205.469L96.9363 206.338Q96.6723 207.944 96.3533 209.105Q96.0343 210.265 95.5063 211.244ZM91.1503 207.328L91.1393 205.788L89.2473 205.788L89.2473 207.328L91.1503 207.328ZM94.0653 206.338Q94.2083 207.559 94.4393 208.533Q94.6703 209.506 95.0223 210.309Q95.3743 209.517 95.6108 208.577Q95.8473 207.636 96.0563 206.338L94.0653 206.338ZM91.1503 208.12L89.2473 208.12L89.2473 209.605L91.1613 209.605L91.1503 208.12ZM89.2473 210.397L89.2473 212.102L91.1723 211.761L91.1613 210.397L89.2473 210.397ZM99.3233 206.503L101.831 206.503L101.831 205.711L98.8503 205.711L98.8503 204.985L108.035 204.985L108.035 205.711L105.087 205.711L105.087 206.503L107.573 206.503L107.573 208.868L99.3233 208.868L99.3233 206.503ZM102.634 206.503L104.284 206.503L104.284 205.711L102.634 205.711L102.634 206.503ZM101.831 207.218L100.159 207.218L100.159 208.175L101.831 208.175L101.831 207.218ZM104.284 207.218L102.634 207.218L102.634 208.175L104.284 208.175L104.284 207.218ZM106.748 208.175L106.748 207.218L105.087 207.218L105.087 208.175L106.748 208.175ZM107.397 209.66L107.397 210.375L99.5103 210.375L99.5103 209.66L107.397 209.66ZM108.255 211.871L103.943 211.871L103.943 213.158Q103.943 213.807 103.679 214.077Q103.415 214.346 102.722 214.346Q102.183 214.346 101.655 214.258L101.512 213.521Q102.194 213.631 102.524 213.631Q102.898 213.631 103.019 213.455Q103.14 213.279 103.14 212.894L103.14 211.871L98.6413 211.871L98.6413 211.145L108.255 211.145L108.255 211.871ZM101.886 212.773Q100.852 213.4 98.9273 214.247L98.5753 213.51Q99.2903 213.246 100.088 212.844Q100.885 212.443 101.457 212.069L101.886 212.773ZM105.417 212.102Q106.066 212.388 106.853 212.768Q107.639 213.147 108.343 213.499L107.947 214.247Q106.825 213.631 105.043 212.806L105.417 212.102ZM126.572 211.178Q126.561 211.739 126.484 212.641Q126.44 213.279 126.275 213.592Q126.11 213.906 125.747 214.033Q125.384 214.159 124.636 214.203Q123.47 214.28 122.139 214.28Q120.797 214.28 119.631 214.203Q118.927 214.159 118.569 214.016Q118.212 213.873 118.058 213.516Q117.904 213.158 117.904 212.454L117.904 207.152L118.85 207.152L118.85 208.626L124.757 208.626L124.757 205.997L117.596 205.997L117.596 205.106L125.67 205.106L125.67 209.506L118.85 209.506L118.85 212.157Q118.85 212.641 118.938 212.867Q119.026 213.092 119.246 213.186Q119.466 213.279 119.95 213.312Q121.237 213.389 122.161 213.389Q123.074 213.389 124.361 213.312Q124.889 213.279 125.131 213.197Q125.373 213.114 125.472 212.921Q125.571 212.729 125.593 212.311L125.659 210.958L126.572 211.178ZM133.997 209.726L137.55 209.726L137.55 210.452L129.223 210.452L129.223 207.427Q128.695 208.098 128.178 208.582L127.727 207.757Q128.354 207.24 129.03 206.261Q129.707 205.282 130.092 204.369L130.928 204.644Q130.785 204.952 130.455 205.568L133.172 205.568L132.699 204.611L133.513 204.358Q133.81 204.941 134.074 205.568L137.308 205.568L137.308 206.283L133.997 206.283L133.997 206.976L137.066 206.976L137.066 207.647L133.997 207.647L133.997 208.34L137.066 208.34L137.066 209.022L133.997 209.022L133.997 209.726ZM130.081 206.976L133.139 206.976L133.139 206.283L130.081 206.283L130.081 206.976ZM130.081 208.34L133.139 208.34L133.139 207.647L130.081 207.647L130.081 208.34ZM133.139 209.022L130.081 209.022L130.081 209.726L133.139 209.726L133.139 209.022ZM130.114 214.489L129.234 214.489L129.234 211.277L136.747 211.277L136.747 214.489L135.878 214.489L135.878 213.939L130.114 213.939L130.114 214.489ZM135.878 213.246L135.878 212.003L130.114 212.003L130.114 213.246L135.878 213.246ZM139.508 208.021L139.508 207.009L141.851 205.645L142.599 205.645L142.599 213.708L141.609 213.708L141.609 206.822L139.508 208.021ZM150.442 209.682Q150.442 211.728 149.765 212.779Q149.089 213.829 147.824 213.829Q146.57 213.829 145.893 212.773Q145.217 211.717 145.217 209.682Q145.217 207.636 145.893 206.574Q146.57 205.513 147.824 205.513Q149.089 205.513 149.765 206.569Q150.442 207.625 150.442 209.682ZM146.262 209.682Q146.262 211.321 146.641 212.124Q147.021 212.927 147.824 212.927Q148.627 212.927 149.012 212.13Q149.397 211.332 149.397 209.682Q149.397 208.021 149.012 207.212Q148.627 206.404 147.824 206.404Q147.021 206.404 146.641 207.212Q146.262 208.021 146.262 209.682ZM156.712 209.682Q156.712 211.728 156.035 212.779Q155.359 213.829 154.094 213.829Q152.84 213.829 152.163 212.773Q151.487 211.717 151.487 209.682Q151.487 207.636 152.163 206.574Q152.84 205.513 154.094 205.513Q155.359 205.513 156.035 206.569Q156.712 207.625 156.712 209.682ZM152.532 209.682Q152.532 211.321 152.911 212.124Q153.291 212.927 154.094 212.927Q154.897 212.927 155.282 212.13Q155.667 211.332 155.667 209.682Q155.667 208.021 155.282 207.212Q154.897 206.404 154.094 206.404Q153.291 206.404 152.911 207.212Q152.532 208.021 152.532 209.682ZM162.982 209.682Q162.982 211.728 162.305 212.779Q161.629 213.829 160.364 213.829Q159.11 213.829 158.433 212.773Q157.757 211.717 157.757 209.682Q157.757 207.636 158.433 206.574Q159.11 205.513 160.364 205.513Q161.629 205.513 162.305 206.569Q162.982 207.625 162.982 209.682ZM158.802 209.682Q158.802 211.321 159.181 212.124Q159.561 212.927 160.364 212.927Q161.167 212.927 161.552 212.13Q161.937 211.332 161.937 209.682Q161.937 208.021 161.552 207.212Q161.167 206.404 160.364 206.404Q159.561 206.404 159.181 207.212Q158.802 208.021 158.802 209.682ZM166.216 207.152L167.052 207.152L167.052 209.308L169.208 209.308L169.208 210.144L167.052 210.144L167.052 212.3L166.216 212.3L166.216 210.144L164.06 210.144L164.06 209.308L166.216 209.308L166.216 207.152Z">
</path>
<path     fill="#E5E5E5"  d="M112.243 214.929L112.243 204.743L113.134 204.743L113.134 214.929L112.243 214.929Z">
</path>
</g>
<path d="M60.5556 175.222C60.389 175.222 60.2779 175.167 60.1668 175.056C59.9445 174.833 60.0001 174.5 60.2223 174.278L63.7779 171.056C63.889 170.944 63.9445 170.833 63.9445 170.722C63.9445 170.611 63.889 170.5 63.7779 170.389L60.1668 167.333C59.9445 167.111 59.889 166.778 60.1112 166.556C60.3334 166.333 60.6668 166.278 60.889 166.5L64.4445 169.556C64.7778 169.833 65.0001 170.278 65.0001 170.722C65.0001 171.167 64.8334 171.556 64.5001 171.889L60.9445 175.111C60.8334 175.167 60.6668 175.222 60.5556 175.222Z"   fill="#000000" >
</path>
<g >
<path     fill="#A72D22"  d="M188.117 128.789L189.943 125.72L191.23 125.72L188.953 129.438L190.614 129.438L190.614 130.34L188.656 130.34L188.656 131.099L190.614 131.099L190.614 132.012L188.656 132.012L188.656 133.772L187.479 133.772L187.479 132.012L185.609 132.012L185.609 131.099L187.479 131.099L187.479 130.34L185.609 130.34L185.609 129.438L187.171 129.438L184.784 125.72L186.181 125.72L188.117 128.789Z">
</path>
<path     fill="url(#linear_fill_3_278_0)"  d="M195.619 122.564L195.619 119.228L200.995 116.18L203.707 116.18L203.707 133.772L200.179 133.772L200.179 120.02L195.619 122.564ZM217.099 119.228L209.227 119.228L209.227 116.18L221.011 116.18L221.011 118.34L214.939 133.772L211.147 133.772L217.099 119.228ZM232.963 124.22Q234.283 124.868 235.039 126.008Q235.795 127.148 235.795 128.732Q235.795 130.292 235.039 131.504Q234.283 132.716 232.879 133.388Q231.475 134.06 229.627 134.06Q227.731 134.06 226.303 133.388Q224.875 132.716 224.107 131.504Q223.339 130.292 223.339 128.732Q223.339 127.148 224.107 126.008Q224.875 124.868 226.219 124.244Q225.139 123.668 224.539 122.744Q223.939 121.82 223.939 120.62Q223.939 119.324 224.611 118.232Q225.283 117.14 226.579 116.504Q227.875 115.868 229.627 115.868Q231.379 115.868 232.615 116.504Q233.851 117.14 234.487 118.208Q235.123 119.276 235.123 120.62Q235.123 121.82 234.547 122.744Q233.971 123.668 232.963 124.22ZM229.627 118.772Q228.691 118.772 228.127 119.348Q227.563 119.924 227.563 120.788Q227.563 121.652 228.127 122.228Q228.691 122.804 229.627 122.804Q230.539 122.804 231.115 122.228Q231.691 121.652 231.691 120.788Q231.691 119.948 231.115 119.36Q230.539 118.772 229.627 118.772ZM229.627 130.964Q230.731 130.964 231.427 130.28Q232.123 129.596 232.123 128.42Q232.123 127.22 231.439 126.5Q230.755 125.78 229.627 125.78Q228.451 125.78 227.755 126.5Q227.059 127.22 227.059 128.42Q227.059 129.596 227.767 130.28Q228.475 130.964 229.627 130.964Z">
</path>
</g>
<rect  x="242.5068359375" y="108.5" width="34" height="34" rx="5"    fill="#A72D22" >
</rect>
<g >
<path     fill="#FFFFFF"  d="M254.632 121.725Q254.814 120.958 254.931 120.347L252.435 120.347L252.435 119.242L258.896 119.242L258.896 120.347L256.088 120.347Q255.945 121.062 255.789 121.725L258.35 121.725L258.35 127.653L257.245 127.653L257.245 122.804L253.748 122.804L253.748 127.653L252.669 127.653L252.669 121.725L254.632 121.725ZM252.136 123.259L252.136 124.338L251.46 126.756L250.498 126.405L251.109 124.364L249.965 124.364L249.965 129.018Q249.965 129.85 249.659 130.169Q249.354 130.487 248.561 130.487Q248.041 130.487 247.534 130.409L247.3 129.187Q248.002 129.291 248.353 129.291Q248.665 129.291 248.769 129.154Q248.873 129.018 248.873 128.589L248.873 124.364L247.001 124.364L247.001 123.259L249.224 123.259Q248.405 122.167 247.716 121.387L248.431 120.776Q248.821 121.192 249.445 121.959Q250.212 120.945 250.628 120.321L247.3 120.321L247.3 119.255L251.889 119.255L251.889 120.438L251.59 120.841Q250.589 122.193 250.095 122.843Q250.264 123.051 250.394 123.259L252.136 123.259ZM255.906 127.146Q256.699 127.705 257.648 128.452Q258.597 129.2 259.026 129.603L258.324 130.643Q257.622 129.876 255.503 128.186Q255.074 128.914 254.3 129.512Q253.527 130.11 252.318 130.656L251.577 129.577Q252.994 129.031 253.709 128.479Q254.424 127.926 254.677 127.257Q254.931 126.587 254.931 125.56L254.931 123.337L256.075 123.337L256.075 125.664Q256.075 126.509 255.906 127.146ZM262.718 122.037Q261.548 120.399 260.781 119.437L261.795 118.709Q262.146 119.125 262.731 119.898Q263.316 120.672 263.732 121.244L262.718 122.037ZM272.013 119.515L272.013 120.763L269.53 120.763L269.53 128.602Q269.53 129.551 269.127 129.954Q268.724 130.357 267.762 130.383Q266.982 130.396 266.085 130.318L265.825 129.057Q266.683 129.161 267.424 129.161Q267.879 129.161 268.054 128.947Q268.23 128.732 268.23 128.225L268.23 120.763L264.564 120.763L264.564 119.515L272.013 119.515ZM263.043 127.887Q263.849 127.289 263.927 127.237L264.798 126.587L265.253 127.913Q264.629 128.316 263.992 128.751Q263.355 129.187 262.926 129.525Q262.497 129.85 262.198 130.136L261.405 129.122Q261.6 128.927 261.678 128.758Q261.756 128.589 261.756 128.355L261.756 124.078L260.04 124.078L260.04 122.778L263.043 122.778L263.043 127.887Z">
</path>
</g>
<g >
<path     fill="#A72D22"  d="M201.11 198.789L202.936 195.72L204.223 195.72L201.946 199.438L203.607 199.438L203.607 200.34L201.649 200.34L201.649 201.099L203.607 201.099L203.607 202.012L201.649 202.012L201.649 203.772L200.472 203.772L200.472 202.012L198.602 202.012L198.602 201.099L200.472 201.099L200.472 200.34L198.602 200.34L198.602 199.438L200.164 199.438L197.777 195.72L199.174 195.72L201.11 198.789Z">
</path>
<path     fill="url(#linear_fill_3_282_0)"  d="M213.604 185.868Q215.332 185.868 216.748 186.624Q218.164 187.38 218.98 188.748Q219.796 190.116 219.796 191.916Q219.796 193.26 219.292 194.496Q218.788 195.732 217.516 197.748L213.724 203.748L209.956 203.748L213.388 198.468Q213.796 197.82 214.276 197.172Q213.7 197.34 212.98 197.34Q211.348 197.34 210.076 196.632Q208.804 195.924 208.096 194.652Q207.388 193.38 207.388 191.748Q207.388 190.044 208.228 188.7Q209.068 187.356 210.496 186.612Q211.924 185.868 213.604 185.868ZM213.628 194.412Q214.78 194.412 215.476 193.656Q216.172 192.9 216.172 191.7Q216.172 190.476 215.464 189.732Q214.756 188.988 213.628 188.988Q212.5 188.988 211.804 189.744Q211.108 190.5 211.108 191.7Q211.108 192.9 211.804 193.656Q212.5 194.412 213.628 194.412ZM223.036 192.564L223.036 189.228L228.412 186.18L231.124 186.18L231.124 203.772L227.596 203.772L227.596 190.02L223.036 192.564Z">
</path>
</g>
<rect  x="242.5" y="178.5" width="34" height="34" rx="5"    fill="#A72D22" >
</rect>
<g >
<path     fill="#FFFFFF"  d="M254.625 191.725Q254.807 190.958 254.924 190.347L252.428 190.347L252.428 189.242L258.889 189.242L258.889 190.347L256.081 190.347Q255.938 191.062 255.782 191.725L258.343 191.725L258.343 197.653L257.238 197.653L257.238 192.804L253.741 192.804L253.741 197.653L252.662 197.653L252.662 191.725L254.625 191.725ZM252.129 193.259L252.129 194.338L251.453 196.756L250.491 196.405L251.102 194.364L249.958 194.364L249.958 199.018Q249.958 199.85 249.652 200.169Q249.347 200.487 248.554 200.487Q248.034 200.487 247.527 200.409L247.293 199.187Q247.995 199.291 248.346 199.291Q248.658 199.291 248.762 199.154Q248.866 199.018 248.866 198.589L248.866 194.364L246.994 194.364L246.994 193.259L249.217 193.259Q248.398 192.167 247.709 191.387L248.424 190.776Q248.814 191.192 249.438 191.959Q250.205 190.945 250.621 190.321L247.293 190.321L247.293 189.255L251.882 189.255L251.882 190.438L251.583 190.841Q250.582 192.193 250.088 192.843Q250.257 193.051 250.387 193.259L252.129 193.259ZM255.899 197.146Q256.692 197.705 257.641 198.452Q258.59 199.2 259.019 199.603L258.317 200.643Q257.615 199.876 255.496 198.186Q255.067 198.914 254.294 199.512Q253.52 200.11 252.311 200.656L251.57 199.577Q252.987 199.031 253.702 198.479Q254.417 197.926 254.671 197.257Q254.924 196.587 254.924 195.56L254.924 193.337L256.068 193.337L256.068 195.664Q256.068 196.509 255.899 197.146ZM262.711 192.037Q261.541 190.399 260.774 189.437L261.788 188.709Q262.139 189.125 262.724 189.898Q263.309 190.672 263.725 191.244L262.711 192.037ZM272.006 189.515L272.006 190.763L269.523 190.763L269.523 198.602Q269.523 199.551 269.12 199.954Q268.717 200.357 267.755 200.383Q266.975 200.396 266.078 200.318L265.818 199.057Q266.676 199.161 267.417 199.161Q267.872 199.161 268.047 198.947Q268.223 198.732 268.223 198.225L268.223 190.763L264.557 190.763L264.557 189.515L272.006 189.515ZM263.036 197.887Q263.842 197.289 263.92 197.237L264.791 196.587L265.246 197.913Q264.622 198.316 263.985 198.751Q263.348 199.187 262.919 199.525Q262.49 199.85 262.191 200.136L261.398 199.122Q261.593 198.927 261.671 198.758Q261.749 198.589 261.749 198.355L261.749 194.078L260.033 194.078L260.033 192.778L263.036 192.778L263.036 197.887Z">
</path>
</g>
<path    stroke="rgba(166, 166, 166, 1)" stroke-width="0.2"    d="M7.5 156.5L279.5 156.5">
</path>
<defs>
<mask id="mask-3_220" style="mask-type:alpha" maskUnits="userSpaceOnUse">
<rect  x="0.5" y="0.5" width="283" height="229" rx="5"    fill="#FFFFFF" >
</rect>
<path   fill="rgba(229, 229, 229, 1)"  d="M5.5 0L278.5 0C281.538 0 284 2.46243 284 5.5L284 224.5C284 227.538 281.538 230 278.5 230L5.5 230C2.46243 230 0 227.538 0 224.5L0 5.5C0 2.46243 2.46243 0 5.5 0ZM5.5 1C3.01472 1 1 3.01472 1 5.5L1 224.5C1 226.985 3.01472 229 5.5 229L278.5 229C280.985 229 283 226.985 283 224.5L283 5.5C283 3.01472 280.985 1 278.5 1L5.5 1Z">
</path>
</mask>
<linearGradient id="linear_fill_3_278_0" x1="182.5068359375" y1="126" x2="237.5068359375" y2="126" gradientUnits="userSpaceOnUse">
<stop offset="0" stop-color="#A72D22"  />
<stop offset="1" stop-color="#A72D22" stop-opacity="0.63" />
</linearGradient>
<linearGradient id="linear_fill_3_282_0" x1="195.5" y1="196" x2="235.5" y2="196" gradientUnits="userSpaceOnUse">
<stop offset="0" stop-color="#A72D22"  />
<stop offset="1" stop-color="#A72D22" stop-opacity="0.63" />
</linearGradient>
</defs>
</svg>
