<svg xmlns="http://www.w3.org/2000/svg" xmlns:xlink="http://www.w3.org/1999/xlink" width="51" height="16" viewBox="0 0 51 16" fill="none">
<rect  x="0" y="0" width="51" height="16" rx="8"    fill="#383838" fill-opacity="0.59">
</rect>
<path d="M41.4446 11.75C41.3112 11.75 41.2223 11.7 41.1334 11.6C40.9557 11.4 41.0001 11.1 41.1779 10.9L44.0223 7.99999C44.1112 7.89999 44.1557 7.79999 44.1557 7.69999C44.1557 7.59999 44.1112 7.49999 44.0223 7.39999L41.1334 4.64999C40.9557 4.45 40.9112 4.14999 41.089 3.95C41.2668 3.74999 41.5335 3.69999 41.7112 3.89999L44.5557 6.64999C44.8223 6.89999 45.0001 7.29999 45.0001 7.7C45.0001 8.09999 44.8668 8.44999 44.6001 8.74999L41.7557 11.65C41.6668 11.7 41.5335 11.75 41.4446 11.75Z"   fill="#FFFFFF" >
</path>
</svg>
