<svg xmlns="http://www.w3.org/2000/svg" xmlns:xlink="http://www.w3.org/1999/xlink" width="42" height="16" viewBox="0 0 42 16" fill="none">
<rect  x="0" y="0" width="42" height="16" rx="8"    fill="#383838" fill-opacity="0.59">
</rect>
<path d="M29.4446 11.75C29.3112 11.75 29.2223 11.7 29.1334 11.6C28.9557 11.4 29.0001 11.1 29.1779 10.9L32.0223 7.99999C32.1112 7.89999 32.1557 7.79999 32.1557 7.69999C32.1557 7.59999 32.1112 7.49999 32.0223 7.39999L29.1334 4.64999C28.9557 4.45 28.9112 4.14999 29.089 3.95C29.2668 3.74999 29.5335 3.69999 29.7112 3.89999L32.5557 6.64999C32.8223 6.89999 33.0001 7.29999 33.0001 7.7C33.0001 8.09999 32.8668 8.44999 32.6001 8.74999L29.7557 11.65C29.6668 11.7 29.5335 11.75 29.4446 11.75Z"   fill="#FFFFFF" >
</path>
</svg>
