<svg xmlns="http://www.w3.org/2000/svg" xmlns:xlink="http://www.w3.org/1999/xlink" width="287" height="39" viewBox="0 0 287 39" fill="none">
<rect  x="0.5" y="0.5" width="286" height="38" rx="5"    fill="#FFF7ED" >
</rect>
<path   fill="rgba(217, 202, 184, 1)"  d="M5.5 0L281.5 0C284.538 0 287 2.46243 287 5.5L287 33.5C287 36.5376 284.538 39 281.5 39L5.5 39C2.46243 39 0 36.5376 0 33.5L0 5.5C0 2.46243 2.46243 0 5.5 0ZM5.5 1C3.01472 1 1 3.01472 1 5.5L1 33.5C1 35.9853 3.01472 38 5.5 38L281.5 38C283.985 38 286 35.9853 286 33.5L286 5.5C286 3.01472 283.985 1 281.5 1L5.5 1Z">
</path>
<rect  x="7.5" y="8.5" width="64" height="21" rx="2"    fill="url(#linear_fill_2_744_0)" >
</rect>
<g >
<path     fill="#FFFFFF"  d="M15.27 14.69L21.74 14.69L21.74 17.55L15.27 17.55L15.27 14.69ZM20.99 15.86L20.99 15.32L16.03 15.32L16.03 15.86L20.99 15.86ZM16.03 16.4L16.03 16.94L20.99 16.94L20.99 16.4L16.03 16.4ZM18.96 22.39L18.25 22.48L18.25 23.55L17.53 23.55L17.53 22.57Q14.59 22.93 14.09 23.01L14.02 22.34L14.91 22.24L14.91 18.74L13.96 18.74L13.96 18.12L23.05 18.12L23.05 18.74L18.25 18.74L18.25 21.81L18.92 21.72L18.96 22.39ZM17.53 19.46L17.53 18.74L15.65 18.74L15.65 19.46L17.53 19.46ZM22.78 23.55Q21.61 23.07 20.85 22.43Q20.08 23.09 19 23.55L18.65 22.88Q19.61 22.48 20.32 21.91Q19.65 21.16 19.23 20.03L18.85 20.03L18.85 19.37L22.54 19.37L22.54 20.07Q22.05 21.19 21.37 21.93Q22.03 22.42 23.11 22.8L22.78 23.55ZM17.53 20.03L15.65 20.03L15.65 20.74L17.53 20.74L17.53 20.03ZM19.94 20.03Q20.28 20.88 20.82 21.45Q21.38 20.84 21.72 20.03L19.94 20.03ZM15.65 22.14Q16.37 22.06 17.53 21.9L17.53 21.3L15.65 21.3L15.65 22.14ZM32.97 15.23L32.97 15.91L24.06 15.91L24.06 15.23L28.18 15.23Q28.06 14.97 27.82 14.49L28.64 14.23Q28.92 14.76 29.12 15.23L32.97 15.23ZM25.5 18.43L25.5 16.54L31.53 16.54L31.53 18.43L25.5 18.43ZM26.29 17.86L30.74 17.86L30.74 17.11L26.29 17.11L26.29 17.86ZM24.67 23.44L24.67 19.04L32.37 19.04L32.37 22.28Q32.37 22.74 32.25 22.985Q32.13 23.23 31.86 23.33Q31.59 23.43 31.09 23.43Q30.64 23.43 30.19 23.37L30.05 22.68Q30.58 22.76 31.05 22.76Q31.38 22.76 31.5 22.605Q31.62 22.45 31.62 22.09L31.62 19.69L25.41 19.69L25.41 23.44L24.67 23.44ZM26.55 20.28L30.48 20.28L30.48 22.26L26.55 22.26L26.55 20.28ZM27.31 21.65L29.72 21.65L29.72 20.88L27.31 20.88L27.31 21.65ZM43.11 20.75Q43.07 21.39 42.96 22.06Q42.86 22.76 42.635 23.03Q42.41 23.3 42.1 23.3Q41.76 23.3 41.5 23.085Q41.24 22.87 40.97 22.26Q40.89 22.07 40.78 21.75Q40.11 22.61 39.17 23.38L38.66 22.81Q39.84 21.93 40.54 20.89Q40.16 19.25 40 16.53L37.11 16.53L37.11 20.06Q37.11 20.95 36.9 21.84Q36.69 22.73 36.24 23.48L35.55 23.08Q36.02 22.35 36.215 21.63Q36.41 20.91 36.41 20.06L36.41 15.8L39.96 15.8L39.88 14.36L40.59 14.36Q40.63 15.22 40.67 15.8L41.66 15.8Q41.43 15.29 41.19 14.8L41.81 14.7Q41.99 15.04 42.35 15.8L42.84 15.8L42.84 16.53L40.71 16.53Q40.85 18.68 41.06 19.97Q41.58 18.88 41.85 17.33L42.53 17.45Q42.34 18.51 42.035 19.385Q41.73 20.26 41.28 21.02Q41.42 21.56 41.61 21.98Q41.85 22.5 42.07 22.5Q42.29 22.5 42.39 21.69Q42.45 21.04 42.48 20.62L43.11 20.75ZM35.14 17.7Q34.97 17.16 34.65 16.34Q34.33 15.52 34.09 14.97L34.8 14.72Q35.05 15.27 35.67 16.87L35.89 17.42L35.14 17.7ZM37.52 17.45L39.78 17.45L39.78 18.16L37.52 18.16L37.52 17.45ZM35.79 18.77L35.16 21.15L34.71 22.85L33.92 22.65Q34.12 22.03 34.505 20.65Q34.89 19.27 35.04 18.63L35.79 18.77ZM37.6 19.01L39.64 19.01L39.64 21.82L37.6 21.82L37.6 19.01ZM38.18 21.13L39.06 21.13L39.06 19.72L38.18 19.72L38.18 21.13ZM48.61 18.47L50.42 15.46L51.41 15.46L49.23 18.96L50.85 18.96L50.85 19.68L49 19.68L49 20.43L50.85 20.43L50.85 21.15L49 21.15L49 22.78L48.11 22.78L48.11 21.15L46.37 21.15L46.37 20.43L48.11 20.43L48.11 19.68L46.37 19.68L46.37 18.96L47.88 18.96L45.59 15.46L46.67 15.46L48.61 18.47ZM56.4 18.11Q57.05 18.11 57.56 18.415Q58.07 18.72 58.35 19.255Q58.63 19.79 58.63 20.47Q58.63 21.18 58.32 21.73Q58.01 22.28 57.47 22.585Q56.93 22.89 56.27 22.89Q55.54 22.89 54.975 22.525Q54.41 22.16 54.19 21.46L54.91 21.05Q55.09 21.56 55.435 21.82Q55.78 22.08 56.27 22.08Q56.93 22.08 57.31 21.64Q57.69 21.2 57.69 20.51Q57.69 19.84 57.325 19.38Q56.96 18.92 56.27 18.92Q55.4 18.92 54.91 19.71L54.34 19.42L54.84 15.44L58.3 15.44L58.3 16.22L55.62 16.22L55.33 18.39Q55.77 18.11 56.4 18.11ZM64.43 19.12Q64.43 20.98 63.815 21.935Q63.2 22.89 62.05 22.89Q60.91 22.89 60.295 21.93Q59.68 20.97 59.68 19.12Q59.68 17.26 60.295 16.295Q60.91 15.33 62.05 15.33Q63.2 15.33 63.815 16.29Q64.43 17.25 64.43 19.12ZM60.63 19.12Q60.63 20.61 60.975 21.34Q61.32 22.07 62.05 22.07Q62.78 22.07 63.13 21.345Q63.48 20.62 63.48 19.12Q63.48 17.61 63.13 16.875Q62.78 16.14 62.05 16.14Q61.32 16.14 60.975 16.875Q60.63 17.61 60.63 19.12Z">
</path>
</g>
<rect  x="77.5" y="10.5" width="97" height="17" rx="2"    fill="#FFFFFF" >
</rect>
<path   fill="rgba(217, 202, 184, 1)"  d="M79.5 10.375L172.5 10.375C173.674 10.375 174.625 11.3264 174.625 12.5L174.625 25.5C174.625 26.6736 173.674 27.625 172.5 27.625L79.5 27.625C78.3264 27.625 77.375 26.6736 77.375 25.5L77.375 12.5C77.375 11.3264 78.3264 10.375 79.5 10.375ZM79.5 10.625C78.4645 10.625 77.625 11.4645 77.625 12.5L77.625 25.5C77.625 26.5355 78.4645 27.375 79.5 27.375L172.5 27.375C173.536 27.375 174.375 26.5355 174.375 25.5L174.375 12.5C174.375 11.4645 173.536 10.625 172.5 10.625L79.5 10.625Z">
</path>
<g >
<path     fill="#A72D22"  d="M86.23 20.43Q85.74 19.92 85.21 19.42L85.21 23.49L84.44 23.49L84.44 19.58Q83.91 20.78 83.22 21.74L82.78 20.97Q83.28 20.3 83.705 19.525Q84.13 18.75 84.4 17.97L82.98 17.97L82.98 17.2L84.44 17.2L84.44 15.86Q83.71 16 83.09 16.09L83.01 15.34Q83.78 15.23 84.715 15.035Q85.65 14.84 86.36 14.63L86.49 15.37Q86.01 15.51 85.21 15.7L85.21 17.2L86.56 17.2L86.56 17.97L85.21 17.97L85.21 18.51Q86.34 19.48 86.71 19.87L86.23 20.43ZM91.18 14.87L91.18 22.36L92.06 22.36L92.06 23.13L86.09 23.13L86.09 22.36L87.11 22.36L87.11 14.87L91.18 14.87ZM90.4 17.38L90.4 15.63L87.89 15.63L87.89 17.38L90.4 17.38ZM87.89 19.82L90.4 19.82L90.4 18.14L87.89 18.14L87.89 19.82ZM90.4 20.59L87.89 20.59L87.89 22.36L90.4 22.36L90.4 20.59ZM101.81 21.01L101.81 21.78L98.07 21.78L98.07 23.56L97.28 23.56L97.28 21.78L93.15 21.78L93.15 21.01L97.28 21.01L97.28 19.43L94.17 19.43L94.17 18.69Q94.74 17.89 95.44 16.5L93.39 16.5L93.39 15.75L95.8 15.75Q96.26 14.77 96.44 14.24L97.3 14.47Q97.08 15.05 96.75 15.75L101.59 15.75L101.59 16.5L96.39 16.5Q95.72 17.86 95.17 18.69L97.28 18.69L97.28 17.09L98.07 17.09L98.07 18.69L101.07 18.69L101.07 19.43L98.07 19.43L98.07 21.01L101.81 21.01ZM107.62 20.04L105.83 20.04L105.83 22.5Q105.83 22.88 105.75 23.08Q105.67 23.28 105.48 23.365Q105.29 23.45 104.93 23.47Q104.47 23.47 104.14 23.42L103.99 22.7Q104.15 22.72 104.23 22.72Q104.55 22.76 104.7 22.76Q104.96 22.76 105.02 22.645Q105.08 22.53 105.08 22.15L105.08 20.04L103.1 20.04L103.1 19.35L105.08 19.35L105.08 18.26L102.96 18.26L102.96 17.55L104.2 17.55Q104.03 16.63 103.88 16.08L103.21 16.08L103.21 15.38L105.14 15.38L104.84 14.72L104.73 14.48L105.46 14.26L105.96 15.38L107.63 15.38L107.63 16.08L106.99 16.08Q106.86 16.68 106.61 17.55L107.76 17.55L107.76 18.26L105.83 18.26L105.83 19.35L107.62 19.35L107.62 20.04ZM112.08 17.67L112.08 18.42L111 18.42L111 23.47L110.24 23.47L110.24 18.42L108.94 18.42L108.94 18.61Q108.94 19.92 108.845 20.73Q108.75 21.54 108.49 22.21Q108.23 22.88 107.7 23.64L107.01 23.15Q107.51 22.51 107.76 21.905Q108.01 21.3 108.105 20.515Q108.2 19.73 108.2 18.45L108.2 15.35Q109.1 15.26 110.015 15.065Q110.93 14.87 111.58 14.63L111.83 15.35Q111.28 15.55 110.48 15.735Q109.68 15.92 108.94 16.01L108.94 17.67L112.08 17.67ZM104.56 16.08Q104.73 16.76 104.88 17.55L105.91 17.55Q106.09 16.93 106.28 16.08L104.56 16.08ZM106.84 20.43Q106.92 20.61 107.41 21.85L107.5 22.08L106.84 22.36Q106.75 22.06 106.56 21.55Q106.37 21.04 106.22 20.66L106.84 20.43ZM104.52 20.63Q104.31 21.28 104.03 21.93Q103.75 22.58 103.47 23.03L102.86 22.72Q103.38 21.93 103.87 20.45L104.52 20.63ZM114.28 15.98L114.28 17.12L113.48 17.12L113.48 15.25L117.17 15.25Q116.91 14.74 116.73 14.45L117.56 14.19Q117.83 14.72 118.04 15.25L121.55 15.25L121.55 17.13L120.75 17.13L120.75 15.98L114.28 15.98ZM118.34 18.96Q119.82 19.45 122.05 19.7L121.9 20.46Q119.25 20.09 117.49 19.36Q115.57 20.18 113.01 20.58L112.81 19.81Q114.92 19.53 116.6 18.94Q115.89 18.56 115.17 18.02Q114.51 18.54 113.88 18.89L113.48 18.28Q114.12 17.96 114.885 17.34Q115.65 16.72 116.08 16.16L116.75 16.39Q116.62 16.57 116.32 16.93L120.41 16.93L120.41 17.58Q119.51 18.34 118.34 18.96ZM115.73 17.6Q116.5 18.19 117.43 18.61Q118.44 18.16 119.18 17.6L115.73 17.6ZM115.2 23.42L114.42 23.42L114.42 20.46L120.61 20.46L120.61 23.42L119.83 23.42L119.83 23.03L115.2 23.03L115.2 23.42ZM119.83 22.37L119.83 21.16L115.2 21.16L115.2 22.37L119.83 22.37ZM131.65 15.96L131.65 16.77L123.38 16.77L123.38 15.96L127.37 15.96Q126.98 14.95 126.77 14.52L127.62 14.28Q127.93 14.95 128.31 15.96L131.65 15.96ZM131.94 22.21L131.94 23.02L123.08 23.02L123.08 22.21L127.8 22.21Q128.21 21.25 128.78 19.74Q129.35 18.23 129.68 17.23L130.51 17.53Q130.16 18.55 129.63 19.93Q129.1 21.31 128.71 22.21L131.94 22.21ZM125.96 21.57Q125.71 20.8 125.275 19.625Q124.84 18.45 124.51 17.65L125.29 17.35Q125.57 18.01 126.04 19.225Q126.51 20.44 126.78 21.22L125.96 21.57ZM141.82 15.32L141.82 16L133.16 16L133.16 15.32L137.24 15.32Q137.05 14.95 136.79 14.53L137.63 14.3Q137.93 14.8 138.15 15.32L141.82 15.32ZM140.7 16.62L140.7 18.5L134.29 18.5L134.29 16.62L140.7 16.62ZM139.94 17.21L135.05 17.21L135.05 17.9L139.94 17.9L139.94 17.21ZM142.01 20.84L142.01 21.52L137.99 21.52L137.99 22.33Q137.99 22.93 137.77 23.19Q137.55 23.45 137.03 23.46Q136.49 23.47 135.58 23.38L135.43 22.63Q136.15 22.73 136.69 22.73Q136.97 22.73 137.085 22.565Q137.2 22.4 137.2 22.07L137.2 21.52L132.98 21.52L132.98 20.84L137.2 20.84L137.2 20.55L139.34 19.79L133.77 19.79L133.77 19.12L140.95 19.12L140.95 19.79L138.1 20.84L142.01 20.84ZM145.3 15.33Q145.99 15.33 146.53 15.63Q147.07 15.93 147.37 16.47Q147.67 17.01 147.67 17.7Q147.67 18.24 147.475 18.695Q147.28 19.15 146.83 19.89L145.08 22.77L144.07 22.77L145.58 20.31Q145.72 20.09 145.86 19.9Q145.55 20 145.17 20Q144.52 20 144.01 19.69Q143.5 19.38 143.215 18.85Q142.93 18.32 142.93 17.68Q142.93 17.02 143.235 16.48Q143.54 15.94 144.085 15.635Q144.63 15.33 145.3 15.33ZM145.3 19.18Q145.95 19.18 146.335 18.755Q146.72 18.33 146.72 17.65Q146.72 16.97 146.335 16.555Q145.95 16.14 145.3 16.14Q144.66 16.14 144.275 16.56Q143.89 16.98 143.89 17.65Q143.89 18.33 144.27 18.755Q144.65 19.18 145.3 19.18ZM149.35 22.89Q149.12 22.89 148.955 22.715Q148.79 22.54 148.79 22.31Q148.79 22.07 148.955 21.9Q149.12 21.73 149.35 21.73Q149.59 21.73 149.755 21.9Q149.92 22.07 149.92 22.31Q149.92 22.55 149.755 22.72Q149.59 22.89 149.35 22.89ZM152.37 21.99L155.68 21.99L155.68 22.78L151.01 22.78L151.01 22.21L153.38 19.57Q154.05 18.83 154.3 18.405Q154.55 17.98 154.55 17.48Q154.55 16.84 154.2 16.49Q153.85 16.14 153.32 16.14Q152.78 16.14 152.37 16.505Q151.96 16.87 151.78 17.47L151.06 17.06Q151.28 16.24 151.93 15.785Q152.58 15.33 153.38 15.33Q153.96 15.33 154.44 15.575Q154.92 15.82 155.205 16.295Q155.49 16.77 155.49 17.44Q155.49 18.09 155.17 18.67Q154.85 19.25 154.05 20.13L152.37 21.99ZM160.1 19.07Q159.78 19.19 159.45 19.3L158.93 19.49L158.93 22.29Q158.93 22.73 158.825 22.95Q158.72 23.17 158.45 23.25Q158.18 23.33 157.63 23.33Q157.33 23.33 157.01 23.3L156.85 22.53Q157.23 22.59 157.59 22.59Q157.94 22.59 158.045 22.485Q158.15 22.38 158.15 22.02L158.15 19.75L156.69 20.21L156.52 19.42Q157.11 19.27 158.15 18.93L158.15 17.02L156.8 17.02L156.8 16.23L158.15 16.23L158.15 14.4L158.93 14.4L158.93 16.23L160.2 16.23L160.2 17.02L158.93 17.02L158.93 18.67Q159.41 18.5 160.04 18.27L160.1 19.07ZM165.77 17.86L165.77 18.7L164.18 18.7L164.18 23.48L163.38 23.48L163.38 18.7L161.49 18.7Q161.48 19.94 161.365 20.725Q161.25 21.51 160.975 22.13Q160.7 22.75 160.18 23.48L159.43 23.03Q159.97 22.34 160.235 21.76Q160.5 21.18 160.6 20.415Q160.7 19.65 160.7 18.33L160.7 15.32Q162.76 15.18 165.09 14.68L165.32 15.48Q164.43 15.68 163.41 15.83Q162.39 15.98 161.49 16.06L161.49 17.86L165.77 17.86Z">
</path>
</g>
<rect  x="224.5" y="9.5" width="49" height="20" rx="10"    fill="#A72D22" >
</rect>
<g >
<path     fill="#FFFFFF"  d="M238.56 19.69Q238.07 20.4 237.485 21.12Q236.9 21.84 236.55 22.16L240.36 21.83Q239.66 20.87 239.39 20.52L240.39 19.93Q240.9 20.55 241.605 21.48Q242.31 22.41 242.71 23.01L241.67 23.74Q241.52 23.51 241.12 22.91L240.55 22.95Q240.27 22.97 238.63 23.105Q236.99 23.24 235.71 23.38L235.35 23.41L234.87 23.46L234.48 22.23Q234.92 22.09 235.2 21.87Q235.45 21.66 236 21.005Q236.55 20.35 237.02 19.69L233.98 19.69L233.98 18.52L237.91 18.52L237.91 16.92L234.65 16.92L234.65 15.76L237.91 15.76L237.91 14.36L239.09 14.36L239.09 15.76L242.32 15.76L242.32 16.92L239.09 16.92L239.09 18.52L242.99 18.52L242.99 19.69L238.56 19.69ZM246.12 16.01Q245.41 17.32 244.26 18.49L243.69 17.38Q244.34 16.71 244.895 15.875Q245.45 15.04 245.72 14.24L246.76 14.54Q246.7 14.75 246.59 15.01Q247.42 15.81 248.27 16.74L247.52 17.56Q247.02 16.94 246.12 16.01ZM249.64 16.68Q249.8 16.09 249.85 15.86L248.02 15.86L248.02 14.75L253.09 14.75L253.09 15.86L251.09 15.86L250.88 16.68L252.78 16.68L252.78 21.14L251.67 21.14L251.67 17.7L249.36 17.7L249.36 21.14L248.28 21.14L248.28 16.68L249.64 16.68ZM246.25 18.75Q245.74 17.97 245.32 17.45L246.1 16.84Q246.62 17.46 247.09 18.2L246.25 18.75ZM252.49 23.7Q251.82 23.06 250.52 21.99Q250.22 22.43 249.7 22.835Q249.18 23.24 248.33 23.7L247.62 22.71Q248.7 22.15 249.175 21.745Q249.65 21.34 249.805 20.835Q249.96 20.33 249.96 19.37L249.96 18.15L251.06 18.15L251.06 19.62Q251.06 20.45 250.94 20.98Q251.49 21.36 252.17 21.86Q252.85 22.36 253.25 22.7L252.49 23.7ZM246.65 21.84Q247.05 22.21 247.36 22.52L246.64 23.39Q246.19 22.92 245.5 22.295Q244.81 21.67 244.3 21.26L244.99 20.42Q245.37 20.71 245.88 21.16Q246.41 20.44 246.76 19.88L244.22 19.88L244.22 18.87L247.84 18.87L247.84 19.99Q247.26 20.96 246.65 21.84ZM262.71 20.85Q261.95 20.52 261.38 20.14Q261.32 21.06 261.17 22.03Q261.06 22.81 260.765 23.115Q260.47 23.42 259.85 23.43Q259.71 23.44 259.43 23.44Q258.88 23.44 258.26 23.38L258.05 22.32Q258.77 22.4 259.35 22.4Q259.65 22.4 259.775 22.26Q259.9 22.12 259.98 21.73Q260.09 21.22 260.14 20.7L258.34 20.7Q258.13 21.49 257.77 22.005Q257.41 22.52 256.79 22.905Q256.17 23.29 255.11 23.7L254.61 22.62Q255.73 22.21 256.28 21.785Q256.83 21.36 257.08 20.7L255.79 20.7L255.79 19.97Q255.13 20.42 254.38 20.85L253.76 19.87Q255.17 19.13 256.01 18.4L254.18 18.4L254.18 17.38L256.93 17.38Q257.06 17.2 257.22 16.9L254.53 16.9L254.53 15.88L255.9 15.88Q255.54 15.36 255.18 14.94L256.08 14.31Q256.2 14.46 256.3 14.58Q256.91 15.37 257.05 15.57L256.61 15.88L257.61 15.88Q257.64 15.8 257.665 15.68Q257.69 15.56 257.7 15.5Q257.75 15.26 257.825 14.87Q257.9 14.48 257.91 14.31L259.09 14.41Q259.04 14.9 258.92 15.43Q258.89 15.58 258.81 15.88L259.81 15.88L259.59 15.67Q260.18 15.07 260.73 14.31L261.6 15Q261.29 15.43 260.9 15.88L262.49 15.88L262.49 16.9L258.48 16.9Q258.36 17.2 258.26 17.38L262.82 17.38L262.82 18.4L260.89 18.4Q261.79 19.3 263.17 19.76L262.71 20.85ZM260.68 19.63Q259.99 19.06 259.49 18.4L257.59 18.4Q257.06 19.04 256.27 19.63L257.33 19.63Q257.38 19.25 257.38 18.95L258.61 18.95Q258.61 19.11 258.55 19.63L260.68 19.63Z">
</path>
</g>
<defs>
<linearGradient id="linear_fill_2_744_0" x1="7.5" y1="19" x2="71.5" y2="19" gradientUnits="userSpaceOnUse">
<stop offset="0" stop-color="#A72D22"  />
<stop offset="1" stop-color="#C7665D"  />
</linearGradient>
</defs>
</svg>
