<svg xmlns="http://www.w3.org/2000/svg" xmlns:xlink="http://www.w3.org/1999/xlink" width="24" height="24" viewBox="0 0 24 24" fill="none">
<rect  x="0" y="0" width="24" height="24" rx="2"    fill="#EDD4AD" >
</rect>
<g >
<path     fill="#A18150"  d="M14.95 11.2Q16.17 11.66 16.81 12.55Q17.45 13.44 17.45 14.76Q17.45 16.12 16.76 17.09Q16.07 18.06 14.9 18.57Q13.73 19.08 12.31 19.08Q10.49 19.08 9.14 18.22Q7.79 17.36 7.23 15.72L9.53 14.4Q9.85 15.44 10.59 15.97Q11.33 16.5 12.25 16.5Q13.15 16.5 13.76 15.98Q14.37 15.46 14.37 14.54Q14.37 12.52 11.29 12.52L10.75 12.52L10.75 10.12L11.53 10.12Q12.67 10.12 13.28 9.57Q13.89 9.02 13.89 8.2Q13.89 7.44 13.39 6.98Q12.89 6.52 12.09 6.52Q11.23 6.52 10.6 7.07Q9.97 7.62 9.63 8.64L7.43 7.38Q7.95 5.7 9.25 4.81Q10.55 3.92 12.33 3.92Q13.71 3.92 14.76 4.43Q15.81 4.94 16.39 5.86Q16.97 6.78 16.97 7.98Q16.97 9.1 16.46 9.92Q15.95 10.74 14.95 11.2Z">
</path>
</g>
</svg>
