<svg xmlns="http://www.w3.org/2000/svg" xmlns:xlink="http://www.w3.org/1999/xlink" width="24" height="24" viewBox="0 0 24 24" fill="none">
<rect  x="0" y="0" width="24" height="24" rx="2"    fill="#E5E5E5" >
</rect>
<g >
<path     fill="#808080"  d="M12.42 9.04Q13.68 9.04 14.72 9.63Q15.76 10.22 16.36 11.31Q16.96 12.4 16.96 13.82Q16.96 15.36 16.29 16.49Q15.62 17.62 14.46 18.21Q13.3 18.8 11.9 18.8Q10.24 18.8 9.03 18.04Q7.82 17.28 7.32 15.74L9.66 14.4Q9.92 15.3 10.5 15.76Q11.08 16.22 11.86 16.22Q12.84 16.22 13.37 15.57Q13.9 14.92 13.9 13.92Q13.9 12.92 13.35 12.25Q12.8 11.58 11.78 11.58Q10.46 11.58 9.68 12.88L7.6 11.86L8.6 3.9L16.28 3.9L16.28 6.38L11.04 6.38L10.64 9.4Q11.5 9.04 12.42 9.04Z">
</path>
</g>
</svg>
