<svg xmlns="http://www.w3.org/2000/svg" xmlns:xlink="http://www.w3.org/1999/xlink" width="24" height="24" viewBox="0 0 24 24" fill="none">
<rect  x="0" y="0" width="24" height="24" rx="2"    fill="#E5E5E5" >
</rect>
<g >
<path     fill="#808080"  d="M15.33 10.88Q16.43 11.42 17.06 12.37Q17.69 13.32 17.69 14.64Q17.69 15.94 17.06 16.95Q16.43 17.96 15.26 18.52Q14.09 19.08 12.55 19.08Q10.97 19.08 9.78 18.52Q8.59 17.96 7.95 16.95Q7.31 15.94 7.31 14.64Q7.31 13.32 7.95 12.37Q8.59 11.42 9.71 10.9Q8.81 10.42 8.31 9.65Q7.81 8.88 7.81 7.88Q7.81 6.8 8.37 5.89Q8.93 4.98 10.01 4.45Q11.09 3.92 12.55 3.92Q14.01 3.92 15.04 4.45Q16.07 4.98 16.6 5.87Q17.13 6.76 17.13 7.88Q17.13 8.88 16.65 9.65Q16.17 10.42 15.33 10.88ZM12.55 6.34Q11.77 6.34 11.3 6.82Q10.83 7.3 10.83 8.02Q10.83 8.74 11.3 9.22Q11.77 9.7 12.55 9.7Q13.31 9.7 13.79 9.22Q14.27 8.74 14.27 8.02Q14.27 7.32 13.79 6.83Q13.31 6.34 12.55 6.34ZM12.55 16.5Q13.47 16.5 14.05 15.93Q14.63 15.36 14.63 14.38Q14.63 13.38 14.06 12.78Q13.49 12.18 12.55 12.18Q11.57 12.18 10.99 12.78Q10.41 13.38 10.41 14.38Q10.41 15.36 11 15.93Q11.59 16.5 12.55 16.5Z">
</path>
</g>
</svg>
