<svg xmlns="http://www.w3.org/2000/svg" xmlns:xlink="http://www.w3.org/1999/xlink" width="24" height="24" viewBox="0 0 24 24" fill="none">
<rect  x="0" y="0" width="24" height="24" rx="2"    fill="#EDD4AD" >
</rect>
<g >
<path     fill="#A18150"  d="M11.71 16.3L17.57 16.3L17.57 18.84L7.47 18.84L7.47 16.96L11.89 12Q13.03 10.72 13.48 9.99Q13.93 9.26 13.93 8.48Q13.93 7.62 13.45 7.1Q12.97 6.58 12.15 6.58Q11.31 6.58 10.67 7.19Q10.03 7.8 9.69 8.92L7.41 7.6Q7.93 5.82 9.29 4.87Q10.65 3.92 12.43 3.92Q13.83 3.92 14.86 4.49Q15.89 5.06 16.44 6.06Q16.99 7.06 16.99 8.34Q16.99 9.6 16.38 10.69Q15.77 11.78 14.21 13.52L11.71 16.3Z">
</path>
</g>
</svg>
