<svg xmlns="http://www.w3.org/2000/svg" xmlns:xlink="http://www.w3.org/1999/xlink" width="24" height="24.158935546875" viewBox="0 0 24 24.158935546875" fill="none">
<rect  x="0" y="0" width="24" height="24" rx="2"    fill="#E5E5E5" >
</rect>
<g >
<path     fill="#808080"  d="M12.64 9.39869Q14 9.39869 15.06 9.98869Q16.12 10.5787 16.7 11.6387Q17.28 12.6987 17.28 14.0587Q17.28 15.4787 16.59 16.5987Q15.9 17.7187 14.71 18.3387Q13.52 18.9587 12.12 18.9587Q10.68 18.9587 9.5 18.3287Q8.32 17.6987 7.64 16.5587Q6.96 15.4187 6.96 13.9187Q6.96 12.7987 7.38 11.7687Q7.8 10.7387 8.86 9.05869L12.02 4.05869L15.16 4.05869L12.3 8.45869Q11.96 8.99869 11.56 9.53869Q12.04 9.39869 12.64 9.39869ZM12.1 16.3587Q13.04 16.3587 13.62 15.7287Q14.2 15.0987 14.2 14.0987Q14.2 13.0987 13.62 12.4687Q13.04 11.8387 12.1 11.8387Q11.14 11.8387 10.56 12.4687Q9.98 13.0987 9.98 14.0987Q9.98 15.1187 10.57 15.7387Q11.16 16.3587 12.1 16.3587Z">
</path>
</g>
</svg>
