<svg xmlns="http://www.w3.org/2000/svg" xmlns:xlink="http://www.w3.org/1999/xlink" width="77" height="25" viewBox="0 0 77 25" fill="none">
<rect  x="0" y="17" width="77" height="4" rx="2"    fill="url(#linear_fill_25_6967_0)" fill-opacity="1">
</rect>
<g >
<path     fill="#A72D22"  d="M5.589 13.488L5.667 12.994L8.137 12.994L8.059 13.488L12.388 13.488L12.219 14.723L7.89 14.723L7.539 17.167L5.069 17.167L5.42 14.723L1.351 14.723L1.52 13.488L5.589 13.488ZM12.414 9.783L9.892 10.16L9.736 11.265L11.959 11.265L12.531 10.771L12.284 12.5L7.097 12.5L7.37 10.55L5.862 10.771L6.031 9.536L7.539 9.315L7.682 8.301L7.266 7.807L10.23 7.807L10.061 8.925L12.596 8.548L12.414 9.783ZM5.667 8.548L5.68 8.548L5.121 12.5L2.651 12.5L3.054 9.614L2.287 9.783L2.469 8.548L5.784 7.807L5.667 8.548ZM16.756 9.276L17.003 9.055L14.273 9.055L14.416 8.054L24.777 8.054L24.634 9.055L20.136 9.055L19.889 9.276L24.114 9.276L23.555 13.241L14.208 13.241L14.767 9.276L16.756 9.276ZM21.098 17.154L18.797 16.413L16.327 17.154L13.415 17.154L13.558 16.153L15.781 16.153L16.938 15.828L15.872 15.49L15.651 15.724L13.103 15.724L15.365 13.384L17.861 13.384L17.627 13.631L23.477 13.631L23.269 15.074L21.033 15.75L22.177 16.062L23.893 16.062L23.737 17.154L21.098 17.154ZM17.211 10.381L21.358 10.381L21.41 10.03L17.263 10.03L17.211 10.381ZM21.059 12.487L21.111 12.136L16.964 12.136L16.912 12.487L21.059 12.487ZM17.068 11.421L21.215 11.421L21.254 11.096L17.107 11.096L17.068 11.421ZM17.484 14.736L19.135 15.204L20.799 14.736L17.484 14.736ZM29.899 16.686L30.497 12.37L30.146 12.37L29.132 17.154L27.455 17.154L28.989 10.03L28.443 10.03L28.599 8.847L29.587 8.847L29.678 8.288L29.314 7.833L31.537 7.833L31.394 8.847L32.551 8.847L32.395 10.03L30.64 10.03L30.406 11.161L32.291 11.161L31.576 16.27Q31.524 16.647 31.277 16.9005Q31.03 17.154 30.666 17.154L29.405 17.154L29.899 16.686ZM36.23 14.112L35.086 14.151L34.813 16.322Q34.761 16.673 34.501 16.9135Q34.241 17.154 33.89 17.154L31.862 17.154L33.201 15.984L33.422 14.216L32.187 14.255L32.343 13.137L33.565 13.098L33.643 12.539L34.462 11.642L32.707 11.642L32.863 10.589L36.282 10.589L36.1 11.876L35.268 12.721L35.229 13.033L36.386 12.994L36.23 14.112ZM32.512 10.342L33.461 7.833L35.307 7.833L34.969 8.73L36.815 8.73L36.659 9.822L34.566 9.822L34.384 10.342L32.512 10.342ZM24.972 17.154L26.038 13.488L27.728 13.488L26.662 17.154L24.972 17.154ZM26.116 12.994L26.051 10.771L27.741 10.771L27.806 12.994L26.116 12.994ZM26.493 10.277L26.428 8.054L28.118 8.054L28.183 10.277L26.493 10.277ZM38.765 12.227L38.258 15.815L38.609 15.776L39.181 11.72L37.842 11.72L38.362 8.054L42.314 8.054L41.794 11.72L41.001 11.72L40.858 12.734L41.703 12.734L41.547 13.865L40.702 13.865L40.468 15.555L41.43 15.438L41.261 16.647L36.854 17.141L37.023 15.958L37.14 15.945L37.673 12.227L38.765 12.227ZM42.886 17.154L43.77 16.192L44.147 13.488L42.015 13.488L42.171 12.37L48.372 12.37L48.216 13.488L46.097 13.488L45.694 16.374Q45.642 16.712 45.356 16.933Q45.07 17.154 44.693 17.154L42.886 17.154ZM47.111 9.796L43.991 9.796L43.887 10.511L42.275 10.511L42.535 8.665L44.719 8.665L44.771 8.314L44.394 7.82L46.799 7.82L46.669 8.665L48.879 8.665L48.619 10.511L47.007 10.511L47.111 9.796ZM48.099 10.771L47.943 11.863L42.769 11.863L42.925 10.771L48.099 10.771ZM43.757 13.956L42.964 16.907L41.495 16.907L42.301 13.956L43.757 13.956ZM47.748 13.956L47.709 16.92L46.253 16.92L46.292 13.956L47.748 13.956ZM39.779 9.029L39.545 10.745L40.377 10.745L40.611 9.029L39.779 9.029ZM50.66 9.042L51.362 8.119L51.089 7.807L54.547 7.807L53.611 9.042L60.553 9.042L59.448 16.946L49.074 16.946L50.179 9.042L50.66 9.042ZM57.277 14.723L51.843 14.723L51.713 15.711L57.147 15.711L57.277 14.723ZM52.025 13.488L57.459 13.488L57.602 12.5L52.168 12.5L52.025 13.488ZM52.337 11.265L57.771 11.265L57.914 10.277L52.48 10.277L52.337 11.265ZM71.681 14.294L71.291 17.011L60.969 17.011L61.359 14.294L71.681 14.294ZM71.59 11.564L71.252 14.021L61.918 14.021L62.256 11.564L71.59 11.564ZM64.011 9.445L62.035 9.445L62.204 8.288L64.154 8.288L63.751 7.807L66.468 7.807L66.39 8.288L68.353 8.288L67.95 7.807L70.667 7.807L70.589 8.288L72.578 8.288L72.409 9.445L70.433 9.445L70.394 9.744L68.171 9.744L68.21 9.445L66.234 9.445L66.195 9.744L63.972 9.744L64.011 9.445ZM69.861 11.005L64.141 11.005L64.102 11.343L61.775 11.343L61.957 9.965L72.331 9.965L72.149 11.343L69.822 11.343L69.861 11.005ZM69.263 15.984L69.367 15.321L63.387 15.321L63.283 15.984L69.263 15.984ZM69.302 13.033L69.367 12.552L64.18 12.552L64.115 13.033L69.302 13.033Z">
</path>
</g>
<defs>
<linearGradient id="linear_fill_25_6967_0" x1="0" y1="19" x2="77" y2="19" gradientUnits="userSpaceOnUse">
<stop offset="0" stop-color="#A72D22"  />
<stop offset="1" stop-color="#A72D22" stop-opacity="0" />
</linearGradient>
</defs>
</svg>
