<svg xmlns="http://www.w3.org/2000/svg" xmlns:xlink="http://www.w3.org/1999/xlink" width="92.2001953125" height="25" viewBox="0 0 92.2001953125 25" fill="none">
<path d="M90.1001 5L43.1001 5L43.1001 20L90.1001 20C91.2047 20 92.1001 19.1046 92.1001 18L92.1001 7C92.1001 5.89543 91.2047 5 90.1001 5Z" fill-rule="evenodd"  fill="#FFF7EB" >
</path>
<rect  x="0.10009765625" y="5" width="92" height="15" rx="2"    fill="#FFFFFF" fill-opacity="0">
</rect>
<path   fill="rgba(135, 86, 12, 1)"  d="M2.1001 4.9L90.1001 4.9C91.2599 4.9 92.2001 5.8402 92.2001 7L92.2001 18C92.2001 19.1598 91.2599 20.1 90.1001 20.1L2.1001 20.1C0.9403 20.1 9.76548e-05 19.1598 9.76548e-05 18L9.76548e-05 7C9.76548e-05 5.8402 0.9403 4.9 2.1001 4.9ZM2.1001 5.1C1.05076 5.1 0.200098 5.95066 0.200098 7L0.200098 18C0.200098 19.0493 1.05076 19.9 2.1001 19.9L90.1001 19.9C91.1494 19.9 92.0001 19.0493 92.0001 18L92.0001 7C92.0001 5.95066 91.1494 5.1 90.1001 5.1L2.1001 5.1Z">
</path>
<path    stroke="rgba(135, 86, 12, 1)" stroke-width="0.2"    d="M43.1001 5L43.1001 20">
</path>
<g >
<path     fill="#87560C"  d="M55.4071 13.508Q55.3981 13.967 55.3351 14.705Q55.2991 15.227 55.1641 15.4835Q55.0291 15.74 54.7321 15.8435Q54.4351 15.947 53.8231 15.983Q52.8691 16.046 51.7801 16.046Q50.6821 16.046 49.7281 15.983Q49.1521 15.947 48.8596 15.83Q48.5671 15.713 48.4411 15.4205Q48.3151 15.128 48.3151 14.552L48.3151 10.214L49.0891 10.214L49.0891 11.42L53.9221 11.42L53.9221 9.269L48.0631 9.269L48.0631 8.54L54.6691 8.54L54.6691 12.14L49.0891 12.14L49.0891 14.309Q49.0891 14.705 49.1611 14.8895Q49.2331 15.074 49.4131 15.1505Q49.5931 15.227 49.9891 15.254Q51.0421 15.317 51.7981 15.317Q52.5451 15.317 53.5981 15.254Q54.0301 15.227 54.2281 15.1595Q54.4261 15.092 54.5071 14.9345Q54.5881 14.777 54.6061 14.435L54.6601 13.328L55.4071 13.508ZM64.7491 13.751Q64.7131 14.327 64.6141 14.93Q64.5241 15.56 64.3216 15.803Q64.1191 16.046 63.8401 16.046Q63.5341 16.046 63.3001 15.8525Q63.0661 15.659 62.8231 15.11Q62.7511 14.939 62.6521 14.651Q62.0491 15.425 61.2031 16.118L60.7441 15.605Q61.8061 14.813 62.4361 13.877Q62.0941 12.401 61.9501 9.953L59.3491 9.953L59.3491 13.13Q59.3491 13.931 59.1601 14.732Q58.9711 15.533 58.5661 16.208L57.9451 15.848Q58.3681 15.191 58.5436 14.543Q58.7191 13.895 58.7191 13.13L58.7191 9.296L61.9141 9.296L61.8421 8L62.4811 8Q62.5171 8.774 62.5531 9.296L63.4441 9.296Q63.2371 8.837 63.0211 8.396L63.5791 8.306Q63.7411 8.612 64.0651 9.296L64.5061 9.296L64.5061 9.953L62.5891 9.953Q62.7151 11.888 62.9041 13.049Q63.3721 12.068 63.6151 10.673L64.2271 10.781Q64.0561 11.735 63.7816 12.5225Q63.5071 13.31 63.1021 13.994Q63.2281 14.48 63.3991 14.858Q63.6151 15.326 63.8131 15.326Q64.0111 15.326 64.1011 14.597Q64.1551 14.012 64.1821 13.634L64.7491 13.751ZM57.5761 11.006Q57.4231 10.52 57.1351 9.782Q56.8471 9.044 56.6311 8.549L57.2701 8.324Q57.4951 8.819 58.0531 10.259L58.2511 10.754L57.5761 11.006ZM59.7181 10.781L61.7521 10.781L61.7521 11.42L59.7181 11.42L59.7181 10.781ZM58.1611 11.969L57.5941 14.111L57.1891 15.641L56.4781 15.461Q56.6581 14.903 57.0046 13.661Q57.3511 12.419 57.4861 11.843L58.1611 11.969ZM59.7901 12.185L61.6261 12.185L61.6261 14.714L59.7901 14.714L59.7901 12.185ZM60.3121 14.093L61.1041 14.093L61.1041 12.824L60.3121 12.824L60.3121 14.093ZM65.9911 10.925L65.9911 10.097L67.9081 8.981L68.5201 8.981L68.5201 15.578L67.7101 15.578L67.7101 9.944L65.9911 10.925ZM74.9371 12.284Q74.9371 13.958 74.3836 14.8175Q73.8301 15.677 72.7951 15.677Q71.7691 15.677 71.2156 14.813Q70.6621 13.949 70.6621 12.284Q70.6621 10.61 71.2156 9.7415Q71.7691 8.873 72.7951 8.873Q73.8301 8.873 74.3836 9.737Q74.9371 10.601 74.9371 12.284ZM71.5171 12.284Q71.5171 13.625 71.8276 14.282Q72.1381 14.939 72.7951 14.939Q73.4521 14.939 73.7671 14.2865Q74.0821 13.634 74.0821 12.284Q74.0821 10.925 73.7671 10.2635Q73.4521 9.602 72.7951 9.602Q72.1381 9.602 71.8276 10.2635Q71.5171 10.925 71.5171 12.284ZM80.0671 12.284Q80.0671 13.958 79.5136 14.8175Q78.9601 15.677 77.9251 15.677Q76.8991 15.677 76.3456 14.813Q75.7921 13.949 75.7921 12.284Q75.7921 10.61 76.3456 9.7415Q76.8991 8.873 77.9251 8.873Q78.9601 8.873 79.5136 9.737Q80.0671 10.601 80.0671 12.284ZM76.6471 12.284Q76.6471 13.625 76.9576 14.282Q77.2681 14.939 77.9251 14.939Q78.5821 14.939 78.8971 14.2865Q79.2121 13.634 79.2121 12.284Q79.2121 10.925 78.8971 10.2635Q78.5821 9.602 77.9251 9.602Q77.2681 9.602 76.9576 10.2635Q76.6471 10.925 76.6471 12.284Z">
</path>
</g>
<g >
<path     fill="#87560C"  d="M12.0751 14.111Q12.3811 14.507 12.7906 14.8175Q13.2001 15.128 13.7671 15.389L13.3261 15.992Q12.5611 15.578 12.0481 15.083Q11.5351 14.588 11.1886 13.9445Q10.8421 13.301 10.5811 12.383L9.6181 12.383L9.6181 15.254L11.0041 14.651L11.1031 15.299Q10.2571 15.623 9.4291 16.01Q9.0151 16.208 8.9611 16.235L8.6551 15.632Q8.8351 15.533 8.8936 15.4565Q8.9521 15.38 8.9521 15.227L8.9521 8.441L12.9751 8.441L12.9751 12.383L11.2201 12.383Q11.4631 13.13 11.7511 13.616Q12.3631 13.202 12.9841 12.617L13.4071 13.112Q12.7411 13.67 12.0751 14.111ZM8.4211 9.134L7.7101 11.15Q8.4301 12.311 8.4301 13.238Q8.4301 13.994 8.1691 14.282Q7.9081 14.57 7.3321 14.57Q7.1071 14.57 6.8731 14.543L6.7471 13.886Q6.9721 13.931 7.2961 13.931Q7.5481 13.931 7.6561 13.7465Q7.7641 13.562 7.7641 13.103Q7.7641 12.743 7.5751 12.266Q7.3861 11.789 7.0261 11.276L7.7281 9.143L6.5311 9.143L6.5311 16.19L5.8561 16.19L5.8561 8.495L8.4211 8.495L8.4211 9.134ZM12.3001 10.124L12.3001 9.089L9.6181 9.089L9.6181 10.124L12.3001 10.124ZM12.3001 10.763L9.6181 10.763L9.6181 11.762L12.3001 11.762L12.3001 10.763ZM22.7041 9.773L22.7041 10.466L21.6061 10.466L21.6061 14.903Q21.6061 15.362 21.5026 15.605Q21.3991 15.848 21.1696 15.9515Q20.9401 16.055 20.5171 16.073Q20.3911 16.082 20.1481 16.082Q19.6621 16.082 19.2301 16.028L19.0861 15.317Q19.8241 15.389 20.2471 15.389Q20.6251 15.389 20.7466 15.299Q20.8681 15.209 20.8681 14.93L20.8681 10.466L18.1411 10.466L18.1411 9.773L20.8681 9.773L20.8681 8.027L21.6061 8.027L21.6061 9.773L22.7041 9.773ZM17.5921 15.47L14.8291 15.47L14.8291 8.729L17.5921 8.729L17.5921 15.47ZM16.9261 11.6L16.9261 9.458L15.5221 9.458L15.5221 11.6L16.9261 11.6ZM19.5811 13.706Q19.3471 13.256 18.9511 12.545Q18.5551 11.834 18.3301 11.483L18.9241 11.159Q19.1671 11.519 19.5721 12.2345Q19.9771 12.95 20.1661 13.355L19.5811 13.706ZM15.5221 12.275L15.5221 14.768L16.9261 14.768L16.9261 12.275L15.5221 12.275ZM25.9711 8.279Q25.6201 9.413 25.2871 10.178L25.2871 16.226L24.5671 16.226L24.5671 11.591Q24.2161 12.176 23.7571 12.761L23.3521 12.14Q23.8921 11.411 24.4411 10.2635Q24.9901 9.116 25.2781 8.081L25.9711 8.279ZM29.4361 15.308Q30.2281 15.344 30.6061 15.344Q31.0021 15.344 31.7761 15.308L31.6501 15.992Q31.1731 16.028 30.5611 16.028Q29.9581 16.028 29.4631 15.992Q28.6081 15.938 28.0321 15.605Q27.4561 15.272 27.0781 14.57Q26.8171 15.461 26.2951 16.262L25.6831 15.884Q26.2141 15.047 26.4436 14.201Q26.6731 13.355 26.7091 12.113L27.4201 12.167Q27.3931 12.806 27.3031 13.526Q27.5101 14.183 27.8296 14.5655Q28.1491 14.948 28.5901 15.128L28.5901 11.465L26.5381 11.465L26.5381 8.495L31.0741 8.495L31.0741 11.465L29.3011 11.465L29.3011 12.815L31.4611 12.815L31.4611 13.499L29.3011 13.499L29.3011 15.299L29.4361 15.308ZM30.3721 9.143L27.2401 9.143L27.2401 10.799L30.3721 10.799L30.3721 9.143ZM38.3731 8L38.3731 10.538L40.2901 10.538L40.2901 15.119Q40.2901 15.695 40.1191 15.911Q39.9481 16.127 39.5251 16.145Q39.1291 16.154 38.5621 16.109L38.4091 15.407Q38.8591 15.461 39.3001 15.461Q39.4711 15.461 39.5341 15.3305Q39.5971 15.2 39.5971 14.867L39.5971 14.399L36.4651 14.399L36.4651 16.154L35.7811 16.154L35.7811 10.538L37.6891 10.538L37.6891 8L38.3731 8ZM33.5761 9.8Q33.1891 10.43 32.7391 10.979L32.3341 10.475Q32.7481 9.926 33.0901 9.3365Q33.4321 8.747 33.7831 8.018L34.3861 8.27Q34.1611 8.765 33.9541 9.143L35.3671 9.143L35.3671 9.8L33.5761 9.8ZM36.7531 10.277Q36.5371 9.944 36.1861 9.53Q35.8351 9.116 35.4931 8.756L35.9971 8.315Q36.3031 8.621 36.6631 9.0395Q37.0231 9.458 37.2751 9.8L36.7531 10.277ZM40.5871 8.756Q40.3441 9.098 39.9841 9.5345Q39.6241 9.971 39.3181 10.286L38.8141 9.845Q39.1111 9.548 39.4576 9.1295Q39.8041 8.711 40.0651 8.351L40.5871 8.756ZM34.2781 11.429L34.2781 12.518L35.3761 12.518L35.3761 13.166L34.2781 13.166L34.2781 14.93L35.1331 14.255L35.3131 14.966Q34.8901 15.254 34.2781 15.74Q34.0891 15.875 33.8911 16.046L33.7201 16.181L33.3241 15.605Q33.5041 15.443 33.5581 15.344Q33.6121 15.245 33.6121 15.083L33.6121 13.166L32.5411 13.166L32.5411 12.518L33.6121 12.518L33.6121 11.429L33.0091 11.429L33.0091 10.763L35.2141 10.763L35.2141 11.429L34.2781 11.429ZM36.4651 12.131L39.5971 12.131L39.5971 11.186L36.4651 11.186L36.4651 12.131ZM36.4651 12.788L36.4651 13.751L39.5971 13.751L39.5971 12.788L36.4651 12.788Z">
</path>
</g>
<path d="M84.0742 9.44824L87.1259 12.4999L84.0742 15.5516L84.0742 9.44824Z"   fill="#87560C" >
</path>
</svg>
