<svg xmlns="http://www.w3.org/2000/svg" xmlns:xlink="http://www.w3.org/1999/xlink" width="76" height="22" viewBox="0 0 76 22" fill="none">
<g >
<path     fill="#A72D22"  d="M5.1 12.174L6.76 9.384L7.93 9.384L5.86 12.764L7.37 12.764L7.37 13.584L5.59 13.584L5.59 14.274L7.37 14.274L7.37 15.104L5.59 15.104L5.59 16.704L4.52 16.704L4.52 15.104L2.82 15.104L2.82 14.274L4.52 14.274L4.52 13.584L2.82 13.584L2.82 12.764L4.24 12.764L2.07 9.384L3.34 9.384L5.1 12.174Z">
</path>
<path     fill="url(#linear_fill_25_7161_0)"  d="M11.584 8.298L11.584 5.796L15.616 3.51L17.65 3.51L17.65 16.704L15.004 16.704L15.004 6.39L11.584 8.298ZM29.656 8.712L29.656 11.79L31.438 11.79L31.438 14.022L29.656 14.022L29.656 16.704L27.1 16.704L27.1 14.022L21.448 14.022L21.448 12.24L25.984 3.51L28.72 3.51L24.382 11.79L27.1 11.79L27.1 8.712L29.656 8.712ZM41.698 10.116Q41.698 13.446 40.492 15.183Q39.286 16.92 37.054 16.92Q34.822 16.92 33.607 15.183Q32.392 13.446 32.392 10.116Q32.392 6.768 33.607 5.022Q34.822 3.276 37.054 3.276Q39.286 3.276 40.492 5.022Q41.698 6.768 41.698 10.116ZM35.164 10.116Q35.164 12.348 35.623 13.437Q36.082 14.526 37.054 14.526Q38.026 14.526 38.476 13.437Q38.926 12.348 38.926 10.116Q38.926 7.866 38.476 6.768Q38.026 5.67 37.054 5.67Q36.082 5.67 35.623 6.759Q35.164 7.848 35.164 10.116ZM51.292 8.712L51.292 11.79L53.074 11.79L53.074 14.022L51.292 14.022L51.292 16.704L48.736 16.704L48.736 14.022L43.084 14.022L43.084 12.24L47.62 3.51L50.356 3.51L46.018 11.79L48.736 11.79L48.736 8.712L51.292 8.712ZM58.172 16.364Q59.542 16.434 60.522 16.434Q61.502 16.434 62.862 16.364L62.722 17.124Q61.642 17.194 60.402 17.194Q59.172 17.194 58.082 17.124Q56.862 17.054 56.102 16.689Q55.342 16.324 54.902 15.514Q54.712 16.494 54.232 17.484L53.622 17.004Q54.052 16.104 54.202 15.289Q54.352 14.474 54.352 13.004L55.072 13.004Q55.072 13.734 55.042 14.334Q55.322 15.284 55.922 15.734L55.922 12.404L53.772 12.404L53.772 11.664L55.732 11.664L55.732 10.324L54.122 10.324L54.122 9.574L55.732 9.574L55.732 8.354L56.482 8.354L56.482 9.574L57.992 9.574L57.992 10.324L56.482 10.324L56.482 11.664L58.252 11.664L58.252 12.404L56.662 12.404L56.662 13.874L58.152 13.874L58.152 14.614L56.662 14.614L56.662 16.114Q57.262 16.314 58.172 16.364ZM61.382 11.374L61.382 9.684L58.542 9.684L58.542 8.924L62.122 8.924L62.122 12.124L59.422 12.124L59.422 13.984Q59.422 14.304 59.472 14.449Q59.522 14.594 59.652 14.649Q59.782 14.704 60.072 14.734Q60.392 14.754 60.542 14.754Q60.702 14.754 61.002 14.734Q61.322 14.704 61.472 14.644Q61.622 14.584 61.682 14.459Q61.742 14.334 61.762 14.064Q61.802 13.564 61.802 13.264L62.542 13.434Q62.512 13.864 62.472 14.324Q62.422 14.814 62.317 15.039Q62.212 15.264 61.967 15.359Q61.722 15.454 61.212 15.484Q60.752 15.504 60.522 15.504Q60.292 15.504 59.832 15.484Q59.372 15.454 59.132 15.344Q58.892 15.234 58.787 14.969Q58.682 14.704 58.682 14.194L58.682 11.374L61.382 11.374Z">
</path>
</g>
<path d="M70.4443 14.7775C70.311 14.7775 70.2221 14.733 70.1332 14.6441C69.9554 14.4664 69.9999 14.1997 70.1777 14.0219L73.0221 11.4441C73.111 11.3552 73.1554 11.2664 73.1554 11.1775C73.1554 11.0886 73.111 10.9997 73.0221 10.9108L70.1332 8.46636C69.9554 8.28859 69.911 8.02192 70.0888 7.84414C70.2665 7.66636 70.5332 7.62192 70.711 7.7997L73.5554 10.2441C73.8221 10.4664 73.9999 10.8219 73.9999 11.1775C73.9999 11.533 73.8665 11.8441 73.5999 12.1108L70.7554 14.6886C70.6665 14.733 70.5332 14.7775 70.4443 14.7775Z"   fill="#A72D22" >
</path>
<defs>
<linearGradient id="linear_fill_25_7161_0" x1="0" y1="11" x2="64" y2="11" gradientUnits="userSpaceOnUse">
<stop offset="0" stop-color="#A72D22"  />
<stop offset="1" stop-color="#A72D22" stop-opacity="0.63" />
</linearGradient>
</defs>
</svg>
