<svg xmlns="http://www.w3.org/2000/svg" xmlns:xlink="http://www.w3.org/1999/xlink" width="220.2001953125" height="48" viewBox="0 0 220.2001953125 48" fill="none">
<rect  x="0.10009765625" y="27" width="46" height="17" rx="2"    fill="#FFFFFF" >
</rect>
<path   fill="rgba(128, 128, 128, 1)"  d="M2.1001 26.9L44.1001 26.9C45.2599 26.9 46.2001 27.8402 46.2001 29L46.2001 42C46.2001 43.1598 45.2599 44.1 44.1001 44.1L2.1001 44.1C0.9403 44.1 9.76548e-05 43.1598 9.76548e-05 42L9.76548e-05 29C9.76548e-05 27.8402 0.9403 26.9 2.1001 26.9ZM2.1001 27.1C1.05076 27.1 0.200098 27.9507 0.200098 29L0.200098 42C0.200098 43.0493 1.05076 43.9 2.1001 43.9L44.1001 43.9C45.1494 43.9 46.0001 43.0493 46.0001 42L46.0001 29C46.0001 27.9507 45.1494 27.1 44.1001 27.1L2.1001 27.1Z">
</path>
<g >
<path     fill="#808080"  d="M16.3851 33.817L16.3851 34.642L11.4241 34.642Q11.1161 36.402 10.1976 37.678Q9.2791 38.954 7.3981 40.087L6.8701 39.273Q8.5531 38.294 9.3946 37.205Q10.2361 36.116 10.5331 34.642L6.8151 34.642L6.8151 33.817L10.6651 33.817Q10.7091 33.443 10.7531 32.761Q10.7641 32.596 10.7641 32.3705Q10.7641 32.145 10.7751 31.914L10.7861 31.518L7.4421 31.518L7.4421 30.693L15.7471 30.693L15.7471 31.518L11.6441 31.518L11.6331 31.958Q11.6221 32.189 11.6221 32.42Q11.6221 32.651 11.6111 32.816Q11.6001 33.179 11.5341 33.817L16.3851 33.817ZM15.4831 38.096Q15.5161 37.337 15.5161 36.831L16.3851 36.996L16.3191 38.47Q16.2971 38.943 16.1651 39.196Q16.0331 39.449 15.7526 39.5645Q15.4721 39.68 14.9441 39.713Q14.4711 39.746 14.0531 39.746Q13.6461 39.746 13.1621 39.713Q12.5021 39.669 12.2161 39.3775Q11.9301 39.086 11.9301 38.327L11.9301 35.236L12.8101 35.236L12.8101 38.085Q12.8101 38.514 12.9586 38.6845Q13.1071 38.855 13.4701 38.877Q13.9321 38.899 14.0971 38.899Q14.2621 38.899 14.7241 38.877Q15.1641 38.844 15.3181 38.6955Q15.4721 38.547 15.4831 38.096ZM27.2531 31.507Q27.2531 35.192 27.0221 38.393Q26.9671 39.196 26.6371 39.526Q26.3071 39.856 25.5151 39.867Q24.7451 39.889 24.1291 39.812L23.9531 38.987Q24.5251 39.075 25.2401 39.075Q25.6471 39.075 25.8396 38.998Q26.0321 38.921 26.1146 38.723Q26.1971 38.525 26.2301 38.096Q26.4171 35.863 26.4171 32.893L26.4171 32.343L23.3481 32.343Q22.8971 33.256 22.5671 33.784L21.8411 33.355Q22.3251 32.596 22.7321 31.6995Q23.1391 30.803 23.3921 29.945L24.1731 30.132Q24.0081 30.748 23.7001 31.507L27.2531 31.507ZM20.9501 31.584L18.9701 31.584L18.9701 37.139L18.2221 37.139L18.2221 30.759L21.7091 30.759L21.7091 37.106L20.9501 37.106L20.9501 31.584ZM20.3561 35.819Q20.3561 36.556 20.2681 37.051Q21.5331 38.36 22.1931 39.13L21.5881 39.746Q21.0491 39.042 20.0371 37.887Q19.8061 38.492 19.3441 39.0365Q18.8821 39.581 18.1231 40.175L17.5511 39.526Q18.3541 38.965 18.7886 38.4315Q19.2231 37.898 19.4101 37.238Q19.5971 36.578 19.5971 35.621L19.5971 32.409L20.3561 32.409L20.3561 35.819ZM25.3941 37.986Q25.1961 37.37 25.1521 37.238L23.1171 37.623L22.1931 37.788L21.9291 36.985Q22.1711 36.886 22.3361 36.567Q22.9411 35.368 23.6011 33.124L24.3601 33.344Q24.1291 34.147 23.7496 35.181Q23.3701 36.215 23.0511 36.897Q23.6671 36.765 23.9861 36.71L24.9101 36.523Q24.5141 35.401 24.3051 34.906L25.0091 34.642Q25.2511 35.247 25.5701 36.1435Q25.8891 37.04 26.0981 37.722L25.3941 37.986ZM38.2641 31.738Q38.2751 33.102 38.1816 35.1755Q38.0881 37.249 37.9561 38.36Q37.8571 39.152 37.5326 39.4875Q37.2081 39.823 36.5591 39.845Q36.4161 39.856 36.1631 39.856Q35.8551 39.856 35.3491 39.812L35.1621 38.965Q35.7451 39.02 36.3501 39.02Q36.6251 39.02 36.7791 38.9265Q36.9331 38.833 37.0101 38.613Q37.0871 38.393 37.1421 37.975Q37.2631 36.974 37.3401 35.5715Q37.4171 34.169 37.4171 32.959L37.4171 32.563L36.7351 32.563Q36.4821 34.301 36.1521 35.467Q35.8221 36.633 35.1676 37.6725Q34.5131 38.712 33.3691 39.746L32.7201 39.064Q33.7871 38.206 34.4196 37.2435Q35.0521 36.281 35.3931 35.192Q35.7341 34.103 35.9871 32.563L35.1181 32.563Q34.8871 33.729 34.5846 34.587Q34.2821 35.445 33.7706 36.226Q33.2591 37.007 32.4451 37.788L31.8291 37.172Q32.9071 36.215 33.4736 35.1425Q34.0401 34.07 34.3371 32.563L33.5781 32.563Q33.1821 33.41 32.6321 34.246L31.9831 33.751Q32.5001 33.036 32.9621 32.002Q33.4241 30.968 33.7211 29.879L34.5241 30.088Q34.2601 30.99 33.9521 31.738L38.2641 31.738ZM32.2471 35.731L31.1581 36.16L31.1581 40.043L30.3551 40.043L30.3551 36.49L28.7161 37.15L28.4851 36.281Q29.0461 36.094 30.3551 35.588L30.3551 33.069L29.5631 33.069Q29.4421 34.125 29.2551 34.994L28.4521 34.818Q28.9251 32.805 28.9911 30.913L29.7611 30.968Q29.7281 31.562 29.6621 32.211L30.3661 32.211L30.3661 30L31.1581 30L31.1581 32.211L32.2031 32.211L32.2031 33.069L31.1581 33.069L31.1581 35.28L32.2251 34.873L32.2471 35.731Z">
</path>
</g>
<rect  x="51.10009765625" y="27" width="53" height="17" rx="2"    fill="#FFFFFF" >
</rect>
<path   fill="rgba(128, 128, 128, 1)"  d="M53.1001 26.9L102.1 26.9C103.26 26.9 104.2 27.8402 104.2 29L104.2 42C104.2 43.1598 103.26 44.1 102.1 44.1L53.1001 44.1C51.9403 44.1 51.0001 43.1598 51.0001 42L51.0001 29C51.0001 27.8402 51.9403 26.9 53.1001 26.9ZM53.1001 27.1C52.0508 27.1 51.2001 27.9507 51.2001 29L51.2001 42C51.2001 43.0493 52.0508 43.9 53.1001 43.9L102.1 43.9C103.149 43.9 104 43.0493 104 42L104 29C104 27.9507 103.149 27.1 102.1 27.1L53.1001 27.1Z">
</path>
<g >
<path     fill="#808080"  d="M66.6821 37.128Q66.5281 37.964 66.3851 38.558Q66.2091 39.328 65.8901 39.6305Q65.5711 39.933 65.1201 39.933Q64.7131 39.933 64.3831 39.6525Q64.0531 39.372 63.6021 38.679Q63.3821 38.305 63.2171 37.953Q62.2491 39.009 60.8961 39.988L60.3131 39.317Q61.8531 38.217 62.8871 37.062Q62.3591 35.379 62.0731 32.607L58.4431 32.607L58.4431 34.158L61.2591 34.158Q61.2481 34.95 61.1986 35.6155Q61.1491 36.281 61.0611 37.227Q60.9841 38.008 60.6651 38.3325Q60.3461 38.657 59.5651 38.657Q59.3011 38.657 58.7951 38.613L58.6081 37.733Q59.1031 37.788 59.4771 37.788Q59.8731 37.788 60.0106 37.6175Q60.1481 37.447 60.2141 36.974Q60.2911 36.336 60.3186 35.94Q60.3461 35.544 60.3461 35.016L58.4431 35.016Q58.4211 36.743 58.1571 37.8375Q57.8931 38.932 57.2221 40.087L56.3641 39.68Q56.8591 38.899 57.1121 38.2335Q57.3651 37.568 57.4751 36.7375Q57.5851 35.907 57.5851 34.62L57.5851 31.738L61.9961 31.738L61.8641 29.989L62.7331 29.989Q62.7991 31.012 62.8651 31.738L64.8231 31.738Q64.1741 31.034 63.5361 30.451L64.1191 29.879Q64.6801 30.396 65.4721 31.21L64.8891 31.738L66.3851 31.738L66.3851 32.607L62.9421 32.607Q63.1621 34.873 63.5361 36.248Q64.4821 34.95 65.0321 33.3L65.8131 33.63Q65.1201 35.621 63.8441 37.227Q64.0861 37.887 64.4051 38.382Q64.6361 38.723 64.8066 38.8495Q64.9771 38.976 65.1311 38.965Q65.3071 38.976 65.4391 38.8055Q65.5711 38.635 65.6701 38.151Q65.7691 37.722 65.9121 36.864L66.6821 37.128ZM68.2001 40.109L68.2001 30.495L76.9891 30.495L76.9891 40.109L76.0981 40.109L76.0981 39.493L69.1131 39.493L69.1131 40.109L68.2001 40.109ZM69.1131 31.364L69.1131 38.646L76.0981 38.646L76.0981 31.364L69.1131 31.364ZM75.6031 32.893L75.6031 33.729L74.2831 33.729L74.2831 36.875Q74.2831 37.37 74.1346 37.645Q73.9861 37.92 73.6506 38.0355Q73.3151 38.151 72.7321 38.151Q72.2591 38.151 71.7751 38.085L71.6101 37.249Q72.3031 37.348 72.7651 37.348Q73.1611 37.348 73.3041 37.1775Q73.4471 37.007 73.4471 36.545L73.4471 34.191Q72.7761 35.17 71.9291 35.9565Q71.0821 36.743 70.0041 37.414L69.4871 36.699Q71.5771 35.489 72.8201 33.729L69.7621 33.729L69.7621 32.893L73.4471 32.893L73.4471 31.716L74.2831 31.716L74.2831 32.893L75.6031 32.893ZM81.5981 30.341Q81.2241 31.573 80.7401 32.684L80.7401 40.076L79.9041 40.076L79.9041 34.334Q79.4751 35.071 78.9141 35.797L78.3861 35.027Q79.0461 34.125 79.7171 32.7335Q80.3881 31.342 80.7071 30.11L81.5981 30.341ZM85.8661 36.05Q86.9001 37.557 88.6711 38.657L88.1871 39.46Q86.5041 38.25 85.3821 36.578L85.3821 40.032L84.5571 40.032L84.5571 36.512Q83.9851 37.403 83.2701 38.129Q82.5551 38.855 81.6311 39.515L81.1471 38.756Q82.0601 38.14 82.7531 37.4965Q83.4461 36.853 84.0071 36.05L81.4991 36.05L81.4991 35.247L84.5571 35.247L84.5571 34.114L82.2251 34.114L82.2251 30.616L87.7251 30.616L87.7251 34.114L85.3821 34.114L85.3821 35.247L88.4621 35.247L88.4621 36.05L85.8661 36.05ZM86.8561 31.452L83.0941 31.452L83.0941 33.289L86.8561 33.289L86.8561 31.452ZM99.5941 32.717L99.5941 33.377L93.0381 33.377L93.0381 32.717L94.6881 32.717Q94.5341 31.991 94.4351 31.65L93.4451 31.65L93.4451 31.001L95.9311 31.001Q95.8431 30.649 95.6781 30.055L96.5251 29.956Q96.6351 30.297 96.8001 31.001L99.2311 31.001L99.2311 31.65L98.2081 31.65L97.8781 32.717L99.5941 32.717ZM92.1801 34.114Q92.6641 34.851 92.8236 35.423Q92.9831 35.995 92.9831 36.501Q92.9831 37.128 92.8731 37.48Q92.7631 37.832 92.4881 37.986Q92.2131 38.14 91.7071 38.14Q91.4541 38.14 91.1901 38.107L91.0031 37.238Q91.3331 37.282 91.4981 37.282Q91.8281 37.282 91.9821 37.1885Q92.1361 37.095 92.1911 36.8915Q92.2461 36.688 92.2461 36.281Q92.2461 35.39 91.3881 34.246L92.2021 31.584L90.8711 31.584L90.8711 40.054L90.0901 40.054L90.0901 30.759L92.9501 30.759L92.9501 31.617L92.1801 34.114ZM95.2601 31.65Q95.3151 31.859 95.5351 32.717L97.0201 32.717Q97.2621 32.046 97.3611 31.65L95.2601 31.65ZM98.9011 37.315L96.7121 37.315L96.7121 38.063L99.5611 38.063L99.5611 38.767L96.7121 38.767L96.7121 40.076L95.8321 40.076L95.8321 38.767L92.9281 38.767L92.9281 38.063L95.8321 38.063L95.8321 37.315L93.6541 37.315L93.6541 34.059L98.9011 34.059L98.9011 37.315ZM98.0431 35.368L98.0431 34.708L94.5121 34.708L94.5121 35.368L98.0431 35.368ZM98.0431 35.995L94.5121 35.995L94.5121 36.688L98.0431 36.688L98.0431 35.995Z">
</path>
</g>
<rect  x="109.10009765625" y="27" width="53" height="17" rx="2"    fill="#FFFFFF" >
</rect>
<path   fill="rgba(128, 128, 128, 1)"  d="M111.1 26.9L160.1 26.9C161.26 26.9 162.2 27.8402 162.2 29L162.2 42C162.2 43.1598 161.26 44.1 160.1 44.1L111.1 44.1C109.94 44.1 109 43.1598 109 42L109 29C109 27.8402 109.94 26.9 111.1 26.9ZM111.1 27.1C110.051 27.1 109.2 27.9507 109.2 29L109.2 42C109.2 43.0493 110.051 43.9 111.1 43.9L160.1 43.9C161.149 43.9 162 43.0493 162 42L162 29C162 27.9507 161.149 27.1 160.1 27.1L111.1 27.1Z">
</path>
<g >
<path     fill="#808080"  d="M124.253 36.215L121.69 36.215L121.69 38.811Q121.69 39.438 121.448 39.713Q121.206 39.988 120.667 39.988Q120.172 39.988 119.611 39.9L119.446 39.075Q120.084 39.185 120.381 39.185Q120.667 39.185 120.772 39.0585Q120.876 38.932 120.876 38.602L120.876 36.215L118.368 36.215L118.368 35.368L120.876 35.368L120.876 34.114L119.226 34.114L119.226 33.41Q118.698 33.861 118.291 34.158L117.774 33.443Q119.831 32.046 120.832 30.143L121.69 30.143Q122.185 31.034 122.994 31.8975Q123.802 32.761 124.803 33.487L124.264 34.18Q123.34 33.52 122.559 32.684Q121.778 31.848 121.261 30.979Q120.513 32.233 119.347 33.3L123.175 33.3L123.175 34.114L121.69 34.114L121.69 35.368L124.253 35.368L124.253 36.215ZM118.071 36.666Q118.071 37.601 117.785 37.964Q117.499 38.327 116.839 38.327Q116.531 38.327 116.212 38.261L116.047 37.469Q116.322 37.557 116.663 37.557Q117.004 37.557 117.142 37.304Q117.279 37.051 117.279 36.512Q117.279 35.401 116.476 34.29L117.268 31.441L115.904 31.441L115.904 40.109L115.09 40.109L115.09 30.605L118.093 30.605L118.093 31.452L117.257 34.158Q117.686 34.884 117.879 35.4725Q118.071 36.061 118.071 36.666ZM122.922 36.545Q123.241 37.018 123.725 37.8045Q124.209 38.591 124.55 39.185L123.835 39.592Q123.604 39.152 123.109 38.3215Q122.614 37.491 122.273 36.974L122.922 36.545ZM119.996 36.952Q119.666 37.623 119.177 38.382Q118.687 39.141 118.214 39.713L117.565 39.196Q118.027 38.69 118.484 37.975Q118.94 37.26 119.27 36.578L119.996 36.952ZM126.409 32.728Q126.112 33.025 125.859 33.234L125.43 32.739Q126.354 31.98 126.959 30.935L127.531 31.265Q127.322 31.595 127.289 31.639L127.949 31.639L127.949 29.989L128.719 29.989L128.719 30.594L130.413 30.594L130.413 31.155L128.719 31.155L128.719 31.639L130.281 31.639L130.281 32.387Q129.665 33.047 128.527 33.707Q127.388 34.367 125.826 34.928L125.529 34.235Q126.783 33.85 127.553 33.476Q126.992 33.08 126.409 32.728ZM132.866 32.288Q133.625 31.859 134.065 31.243L130.974 31.243L130.974 30.561L134.945 30.561L134.945 31.287Q134.318 32.178 133.57 32.695Q134.67 33.333 135.286 33.729L134.912 34.4Q134.054 33.817 132.877 33.102Q132.382 33.366 131.634 33.619L131.194 32.992Q131.799 32.794 132.129 32.651Q131.513 32.288 130.853 31.925L131.205 31.43Q131.755 31.683 132.866 32.288ZM126.849 32.233Q126.849 32.233 126.805 32.277Q127.443 32.64 128.18 33.146Q128.862 32.761 129.423 32.233L126.849 32.233ZM130.809 33.201Q131.601 33.949 132.817 34.6035Q134.032 35.258 135.55 35.731L135.264 36.49Q134.329 36.149 133.625 35.819L133.625 37.865L128.037 37.865L128.037 39.251L130.05 38.888L130.083 39.537Q128.642 39.79 127.718 39.999Q127.168 40.12 127.058 40.153L126.816 39.46Q127.047 39.361 127.124 39.2785Q127.201 39.196 127.201 39.064L127.201 35.896Q126.508 36.226 125.672 36.523L125.364 35.775Q126.959 35.258 128.164 34.6035Q129.368 33.949 130.149 33.201L130.809 33.201ZM132.844 35.434Q131.359 34.664 130.468 33.872Q129.632 34.642 128.158 35.434L130.402 35.434Q130.204 35.038 130.006 34.719L130.6 34.477Q130.842 34.873 131.084 35.434L132.844 35.434ZM132.8 36.402L132.8 35.951L128.037 35.951L128.037 36.402L132.8 36.402ZM128.037 36.886L128.037 37.348L132.8 37.348L132.8 36.886L128.037 36.886ZM134.483 38.327Q133.878 38.536 132.833 38.844L134.824 39.35L134.615 40.043L131.931 39.295Q129.907 38.745 129.324 38.569L129.522 38.008L131.766 38.569Q133.075 38.173 134.252 37.733L134.483 38.327ZM142.073 36.996L142.073 38.877L146.253 38.877L146.253 39.713L136.958 39.713L136.958 38.877L141.127 38.877L141.127 36.996L137.926 36.996L137.926 36.16L141.127 36.16L141.127 34.532L138.322 34.532L138.322 33.707L144.845 33.707Q142.711 32.442 141.611 31.001Q140.885 31.958 139.774 32.761Q138.663 33.564 136.925 34.466L136.485 33.63Q138.278 32.75 139.378 31.9415Q140.478 31.133 141.193 30.066L142.018 30.066Q142.733 31.144 143.877 31.991Q145.021 32.838 146.704 33.641L146.242 34.455Q145.626 34.158 144.911 33.74L144.911 34.532L142.073 34.532L142.073 36.16L145.274 36.16L145.274 36.996L142.073 36.996ZM157.385 37.315Q157.363 37.634 157.319 38.0025Q157.275 38.371 157.231 38.646Q157.154 39.108 157 39.328Q156.846 39.548 156.522 39.6415Q156.197 39.735 155.548 39.779Q154.426 39.856 152.985 39.856Q151.632 39.856 150.565 39.779Q149.949 39.735 149.608 39.614Q149.267 39.493 149.102 39.196Q148.937 38.899 148.937 38.338L148.937 33.751Q148.607 34.136 148.31 34.433L147.628 33.729Q148.431 32.959 149.069 31.9855Q149.707 31.012 150.059 30.011L151.005 30.308Q150.84 30.726 150.609 31.177L156.483 31.177Q156.494 31.518 156.494 32.233Q156.494 33.322 156.45 34.433Q156.406 35.544 156.34 36.325Q156.285 36.919 156.115 37.2435Q155.944 37.568 155.62 37.7Q155.295 37.832 154.756 37.832Q154.58 37.832 153.964 37.788Q153.865 37.788 153.601 37.766L153.491 36.908Q154.261 36.985 154.602 36.996Q154.943 37.018 155.108 36.9355Q155.273 36.853 155.345 36.655Q155.416 36.457 155.46 36.039Q155.614 34.323 155.614 32.739Q155.614 32.244 155.603 32.013L150.169 32.013Q149.762 32.695 149.311 33.289L153.766 33.289L153.766 36.666L149.784 36.666L149.784 38.118Q149.784 38.459 149.872 38.6185Q149.96 38.778 150.158 38.8385Q150.356 38.899 150.785 38.932Q151.797 39.009 153.106 39.009Q154.426 39.009 155.427 38.932Q155.834 38.899 156.016 38.833Q156.197 38.767 156.28 38.613Q156.362 38.459 156.406 38.118Q156.439 37.898 156.467 37.579Q156.494 37.26 156.494 37.062L157.385 37.315ZM152.919 35.83L152.919 34.147L149.784 34.147L149.784 35.83L152.919 35.83Z">
</path>
</g>
<rect  x="167.10009765625" y="27" width="53" height="17" rx="2"    fill="#FFFFFF" >
</rect>
<path   fill="rgba(128, 128, 128, 1)"  d="M169.1 26.9L218.1 26.9C219.26 26.9 220.2 27.8402 220.2 29L220.2 42C220.2 43.1598 219.26 44.1 218.1 44.1L169.1 44.1C167.94 44.1 167 43.1598 167 42L167 29C167 27.8402 167.94 26.9 169.1 26.9ZM169.1 27.1C168.051 27.1 167.2 27.9507 167.2 29L167.2 42C167.2 43.0493 168.051 43.9 169.1 43.9L218.1 43.9C219.149 43.9 220 43.0493 220 42L220 29C220 27.9507 219.149 27.1 218.1 27.1L169.1 27.1Z">
</path>
<g >
<path     fill="#808080"  d="M178.029 33.333Q178.15 35.247 179.228 36.6385Q180.306 38.03 182.517 39.163L182 40.054Q180.251 39.097 179.184 37.975Q178.117 36.853 177.644 35.434Q177.171 36.754 176.099 37.9035Q175.026 39.053 173.233 40.087L172.683 39.229Q174.366 38.316 175.351 37.3645Q176.335 36.413 176.759 35.313Q177.182 34.213 177.182 32.772L177.182 30.099L178.04 30.099L178.04 32.948Q178.04 33.201 178.029 33.333ZM175.312 35.258Q174.85 34.521 174.24 33.6245Q173.629 32.728 173.156 32.079L173.937 31.54Q174.388 32.134 175.026 33.058Q175.664 33.982 176.115 34.686L175.312 35.258ZM182.055 32.057Q181.615 32.772 180.988 33.7015Q180.361 34.631 179.877 35.28L179.085 34.686Q179.591 34.026 180.207 33.124Q180.823 32.222 181.241 31.54L182.055 32.057ZM193.341 37.315L193.341 38.162L189.227 38.162L189.227 40.12L188.358 40.12L188.358 38.162L183.815 38.162L183.815 37.315L188.358 37.315L188.358 35.577L184.937 35.577L184.937 34.763Q185.564 33.883 186.334 32.354L184.079 32.354L184.079 31.529L186.73 31.529Q187.236 30.451 187.434 29.868L188.38 30.121Q188.138 30.759 187.775 31.529L193.099 31.529L193.099 32.354L187.379 32.354Q186.642 33.85 186.037 34.763L188.358 34.763L188.358 33.003L189.227 33.003L189.227 34.763L192.527 34.763L192.527 35.577L189.227 35.577L189.227 37.315L193.341 37.315ZM201.481 38.91L204.583 38.91L204.583 39.746L197.51 39.746L197.51 38.91L200.601 38.91L200.601 36.006L198.104 36.006L198.104 35.126L200.601 35.126L200.601 32.75L197.939 32.75L197.939 31.903L201.019 31.903Q200.392 30.616 200.172 30.22L200.92 29.824Q201.503 30.858 201.844 31.518L201.041 31.903L204.319 31.903L204.319 32.75L201.481 32.75L201.481 35.126L203.978 35.126L203.978 36.006L201.481 36.006L201.481 38.91ZM197.961 30.649Q197.521 31.276 196.696 32.156Q195.871 33.036 195.145 33.663L194.694 32.882Q195.321 32.365 196.069 31.529Q196.817 30.693 197.224 30.088L197.961 30.649ZM197.862 33.399Q197.422 34.158 196.872 34.906L196.872 40.065L196.025 40.065L196.025 35.962Q195.42 36.666 194.837 37.183L194.463 36.281Q195.101 35.72 195.899 34.7245Q196.696 33.729 197.147 32.926L197.862 33.399ZM207.795 32.86Q207.509 32.431 206.981 31.7875Q206.453 31.144 206.134 30.836L206.783 30.275Q207.102 30.616 207.63 31.2375Q208.158 31.859 208.466 32.266L207.795 32.86ZM208.466 37.392Q208.895 36.743 209.099 36.2095Q209.302 35.676 209.374 34.9995Q209.445 34.323 209.445 33.146L209.445 30.836Q210.853 30.792 212.316 30.649Q213.779 30.506 215 30.286L215.154 31.177Q212.954 31.573 210.292 31.694L210.292 32.904L214.879 32.904L214.879 33.751Q214.373 35.17 213.35 36.27Q214.626 37.282 215.088 37.667L214.527 38.36Q213.889 37.799 212.734 36.853Q211.777 37.667 210.358 38.349L209.863 37.568Q211.128 36.985 212.019 36.27L210.523 35.082L211.051 34.466L212.646 35.709Q213.471 34.884 213.933 33.751L210.292 33.751Q210.281 34.763 210.182 35.445Q210.083 36.127 209.852 36.71Q209.621 37.293 209.181 37.975L208.466 37.392ZM210.952 38.888Q212.074 38.954 213.207 38.954Q214.417 38.954 215.616 38.888L215.429 39.757Q214.131 39.812 213.097 39.812Q211.964 39.812 210.82 39.746Q210.017 39.702 209.473 39.5535Q208.928 39.405 208.494 39.108Q208.059 38.811 207.575 38.294L206.189 39.823L205.639 39.053L207.102 37.502L207.102 34.587L205.661 34.587L205.661 33.751L207.96 33.751L207.96 37.436Q208.378 37.953 208.78 38.25Q209.181 38.547 209.693 38.6955Q210.204 38.844 210.952 38.888Z">
</path>
</g>
<g >
<path     fill="#A6A6A6" fill-opacity="0.85" d="M28.4181 8.287L28.4181 9.266L22.5441 9.266Q21.9501 10.586 21.1251 11.719L21.1251 17.043L20.1131 17.043L20.1131 12.951Q19.5521 13.556 18.8921 14.139L18.3311 13.182Q20.1791 11.62 21.3781 9.266L18.6721 9.266L18.6721 8.287L21.8401 8.287Q22.1591 7.506 22.3461 6.879L23.3581 7.121Q23.1381 7.792 22.9511 8.287L28.4181 8.287ZM27.9891 12.841L25.4701 12.841L25.4701 15.69L28.3961 15.69L28.3961 16.68L21.6201 16.68L21.6201 15.69L24.4471 15.69L24.4471 12.841L22.0491 12.841L22.0491 11.862L24.4471 11.862L24.4471 10.003L25.4701 10.003L25.4701 11.862L27.9891 11.862L27.9891 12.841ZM64.9381 9.574Q64.5751 9.277 63.9811 8.837Q63.3871 8.397 62.9801 8.133L63.5631 7.286Q64.2671 7.759 65.5211 8.716L64.9381 9.574ZM72.5721 11.191L69.4701 11.191L69.4701 12.698L71.8461 12.698L71.8461 17.153L70.8011 17.153L70.8011 16.559L67.1491 16.559L67.1491 17.153L66.1151 17.153L66.1151 12.698L68.4471 12.698L68.4471 11.191L65.5101 11.191L65.5101 10.234L68.4471 10.234L68.4471 8.705Q66.9291 8.815 65.9391 8.848L65.8731 7.913Q67.3581 7.858 69.0631 7.704Q70.7681 7.55 71.8461 7.352L72.0441 8.32Q71.1201 8.463 69.4701 8.617L69.4701 10.234L72.5721 10.234L72.5721 11.191ZM64.5531 12.258Q64.0801 11.862 63.4421 11.378Q62.8041 10.894 62.4191 10.641L63.0241 9.794Q64.2341 10.63 65.1581 11.367L64.5531 12.258ZM62.8591 16.669Q63.0571 16.207 63.5906 14.766Q64.1241 13.325 64.2341 12.951L65.2351 13.27Q65.1251 13.622 64.6411 14.953Q64.1571 16.284 63.8821 17.01L62.8591 16.669ZM67.1491 15.591L70.8011 15.591L70.8011 13.655L67.1491 13.655L67.1491 15.591ZM83.3411 9.013Q83.3081 13.413 83.1211 15.437Q83.0661 16.02 82.9121 16.3225Q82.7581 16.625 82.4446 16.746Q82.1311 16.867 81.5481 16.867Q81.1191 16.867 80.5141 16.812L80.3271 15.789Q80.9541 15.888 81.5041 15.888Q81.8561 15.888 81.9881 15.6955Q82.1201 15.503 82.1751 14.931Q82.3401 13.226 82.3401 10.014L80.8881 10.014Q80.7781 12.115 80.6076 13.2425Q80.4371 14.37 80.0356 15.25Q79.6341 16.13 78.7981 17.164L77.9181 16.526Q78.7101 15.602 79.0896 14.8485Q79.4691 14.095 79.6506 13.0335Q79.8321 11.972 79.9201 10.014L78.6111 10.014L78.6111 9.013L79.9531 9.013Q79.9751 8.408 79.9971 7L80.9761 7Q80.9761 7.33 80.9651 7.506Q80.9651 8.221 80.9321 9.013L83.3411 9.013ZM74.1121 7.759L78.1711 7.759L78.1711 8.727L74.1121 8.727L74.1121 7.759ZM77.8301 15.921Q77.7751 15.734 77.6211 15.294L74.4421 16.031Q74.3101 16.042 73.9141 16.13L73.5731 15.085Q73.7821 15.008 73.8866 14.9035Q73.9911 14.799 74.0901 14.623Q74.3101 14.216 74.6456 13.3195Q74.9811 12.423 75.2451 11.565L73.6391 11.565L73.6391 10.586L78.5011 10.586L78.5011 11.565L76.2791 11.565Q76.0261 12.423 75.6631 13.413Q75.3001 14.403 75.0471 14.898L75.4981 14.799Q76.0921 14.678 77.2801 14.414Q76.8621 13.336 76.5651 12.753L77.4561 12.412Q77.7201 12.973 78.0886 13.864Q78.4571 14.755 78.7101 15.448L77.8301 15.921ZM94.0991 8.683Q94.0771 12.258 93.8241 15.525Q93.7801 16.064 93.6316 16.361Q93.4831 16.658 93.1586 16.7845Q92.8341 16.911 92.2401 16.911Q91.5581 16.922 90.7881 16.856L90.5901 15.833Q91.3161 15.921 91.9541 15.921Q92.4271 15.921 92.5921 15.7395Q92.7571 15.558 92.8011 15.041Q93.0211 12.016 93.0211 9.717L90.4471 9.717Q90.0291 10.619 89.5891 11.323L88.6651 10.817Q89.7761 9.112 90.3921 6.934L91.3601 7.198Q91.1731 7.902 90.8761 8.683L94.0991 8.683ZM84.8041 11.433L84.5841 10.443Q84.7601 10.377 84.8481 10.322Q84.9361 10.267 85.0131 10.179Q85.4421 9.607 85.9316 8.749Q86.4211 7.891 86.8171 7L87.7081 7.462Q86.9601 9.09 86.0361 10.41L87.4551 10.157Q87.9501 9.387 88.1921 8.87L89.0281 9.354Q88.5661 10.212 87.9116 11.2185Q87.2571 12.225 86.5971 13.094L88.6981 12.61L88.7201 13.545L85.6731 14.194L85.0681 14.326L84.8481 13.303Q85.1121 13.248 85.2881 13.1435Q85.4641 13.039 85.5961 12.863Q86.1131 12.214 86.8721 11.07Q86.0801 11.202 85.6841 11.279L84.8041 11.433ZM91.1731 14.216Q90.8541 13.699 90.3976 13.028Q89.9411 12.357 89.6001 11.917L90.3811 11.378Q90.7331 11.818 91.1951 12.456Q91.6571 13.094 92.0091 13.644L91.1731 14.216ZM84.6611 15.756Q85.6841 15.569 86.6136 15.3545Q87.5431 15.14 88.9181 14.81L88.9841 15.866Q86.5971 16.427 84.8481 16.746L84.6611 15.756ZM97.4101 15.217L100.919 15.217L100.919 16.262L95.6501 16.262L95.6501 15.503L98.1911 12.654Q98.8841 11.884 99.1536 11.4385Q99.4231 10.993 99.4231 10.476Q99.4231 9.838 99.0821 9.4915Q98.7411 9.145 98.2021 9.145Q97.6521 9.145 97.2286 9.519Q96.8051 9.893 96.6181 10.542L95.6721 10.003Q95.9251 9.079 96.6566 8.573Q97.3881 8.067 98.2901 8.067Q98.9721 8.067 99.5166 8.3475Q100.061 8.628 100.369 9.1615Q100.677 9.695 100.677 10.421Q100.677 11.136 100.331 11.763Q99.9841 12.39 99.1041 13.347L97.4101 15.217ZM107.585 11.862Q108.08 13.292 109.153 14.3095Q110.225 15.327 111.985 16.075L111.424 17.109Q109.675 16.229 108.625 15.2555Q107.574 14.282 107.024 13.017Q106.001 15.404 102.591 17.098L101.997 16.141Q103.922 15.239 104.973 14.194Q106.023 13.149 106.276 11.862L102.283 11.862L102.283 10.883L106.364 10.883Q106.386 9.431 106.386 8.694L102.8 8.694L102.8 7.704L111.105 7.704L111.105 8.694L107.464 8.694Q107.464 9.794 107.431 10.883L111.622 10.883L111.622 11.862L107.585 11.862ZM115.764 17.483L115.764 7.297L116.82 7.297L116.82 17.483L115.764 17.483ZM149.517 14.326Q149.495 14.634 149.451 15.019Q149.407 15.404 149.363 15.69Q149.286 16.163 149.127 16.3885Q148.967 16.614 148.632 16.713Q148.296 16.812 147.636 16.856Q146.481 16.933 145.04 16.933Q143.676 16.933 142.587 16.856Q141.96 16.812 141.608 16.6855Q141.256 16.559 141.086 16.2455Q140.915 15.932 140.915 15.349L140.915 10.96Q140.64 11.268 140.332 11.576L139.617 10.718Q140.409 9.937 141.047 8.969Q141.685 8.001 142.048 7L143.159 7.297Q143.005 7.682 142.796 8.1L148.615 8.1Q148.626 8.419 148.626 9.079Q148.626 11.455 148.472 13.347Q148.417 13.952 148.236 14.2875Q148.054 14.623 147.713 14.7605Q147.372 14.898 146.789 14.898Q146.591 14.898 145.953 14.854L145.645 14.832L145.502 13.842Q146.305 13.919 146.635 13.93Q146.965 13.941 147.125 13.8695Q147.284 13.798 147.35 13.611Q147.416 13.424 147.449 13.017Q147.515 12.379 147.559 11.455Q147.603 10.531 147.603 9.695L147.592 9.079L142.279 9.079Q141.894 9.717 141.509 10.234L145.898 10.234L145.898 13.754L141.905 13.754L141.905 15.096Q141.905 15.426 141.988 15.5745Q142.07 15.723 142.257 15.778Q142.444 15.833 142.851 15.866Q143.885 15.943 145.172 15.943Q146.481 15.943 147.493 15.866Q147.878 15.833 148.054 15.7725Q148.23 15.712 148.307 15.5635Q148.384 15.415 148.417 15.096Q148.483 14.634 148.505 14.051L149.517 14.326ZM144.908 12.775L144.908 11.224L141.905 11.224L141.905 12.775L144.908 12.775ZM156.15 6.89Q156.997 7.88 158.125 8.639Q159.252 9.398 160.748 9.959L160.308 10.938Q158.9 10.377 157.668 9.552Q156.436 8.727 155.699 7.858Q154.929 8.738 153.736 9.5575Q152.542 10.377 151.035 11.015L150.595 10.036Q152.19 9.398 153.285 8.65Q154.379 7.902 155.248 6.89L156.15 6.89ZM158.856 11.631Q158.24 12.291 157.503 13.017L159.362 13.017L159.362 17.021L158.339 17.021L158.339 16.57L153.026 16.57L153.026 17.021L152.003 17.021L152.003 13.017L156.161 13.017Q156.535 12.665 157.525 11.631L152.366 11.631L152.366 10.74L156.007 10.74Q155.336 10.069 154.654 9.53L155.259 8.848Q155.974 9.398 156.689 10.058L156.051 10.74L158.856 10.74L158.856 11.631ZM153.026 15.657L158.339 15.657L158.339 13.93L153.026 13.93L153.026 15.657ZM171.616 13.325L171.616 14.271L169.405 14.271L169.405 15.613Q169.405 16.174 169.273 16.482Q169.141 16.79 168.844 16.9165Q168.547 17.043 168.008 17.054Q167.205 17.054 166.677 16.988L166.479 16.042Q167.271 16.163 167.744 16.163Q168.118 16.163 168.25 15.998Q168.382 15.833 168.382 15.338L168.382 14.271L161.672 14.271L161.672 13.325L168.382 13.325L168.382 12.467Q167.92 12.478 166.996 12.478Q165.687 12.478 164.059 12.423Q163.509 12.39 163.201 12.2525Q162.893 12.115 162.756 11.796Q162.618 11.477 162.618 10.916L162.618 7.44L170.285 7.44L170.285 10.399L163.641 10.399L163.641 10.685Q163.641 11.147 163.784 11.323Q163.927 11.499 164.356 11.521Q165.544 11.587 166.787 11.587Q168.085 11.587 169.361 11.521Q169.834 11.499 169.994 11.3615Q170.153 11.224 170.197 10.85Q170.23 10.597 170.23 10.454L171.253 10.696Q171.253 11.015 171.209 11.279Q171.154 11.873 170.83 12.126Q170.505 12.379 169.713 12.423L169.405 12.434L169.405 13.325L171.616 13.325ZM169.24 9.475L169.24 8.386L163.641 8.386L163.641 9.475L169.24 9.475ZM163.971 14.381Q165.324 15.272 166.05 15.789L165.467 16.57Q165.038 16.229 164.439 15.8Q163.839 15.371 163.421 15.107L163.971 14.381ZM178.238 10.234Q179.151 8.892 179.701 6.989L180.669 7.143Q180.548 7.539 180.284 8.309L182.671 8.309L182.671 9.299L179.866 9.299Q179.459 10.146 179.008 10.795L178.238 10.234ZM178.425 10.993Q178.436 11.807 178.365 13.3635Q178.293 14.92 178.205 15.679Q178.15 16.152 178.029 16.4105Q177.908 16.669 177.672 16.779Q177.435 16.889 177.006 16.889Q176.709 16.889 176.324 16.834L176.137 15.844Q176.588 15.943 176.896 15.943Q177.094 15.943 177.182 15.7945Q177.27 15.646 177.325 15.283Q177.523 13.622 177.523 12.005L176.544 12.005Q176.489 13.27 176.335 14.1335Q176.181 14.997 175.89 15.69Q175.598 16.383 175.081 17.142L174.234 16.658Q174.795 15.833 175.076 15.118Q175.356 14.403 175.472 13.556Q175.587 12.709 175.642 11.312L175.686 9.662L175.026 9.662L175.026 8.694L176.522 8.694L176.17 7.484Q176.137 7.374 176.115 7.3025Q176.093 7.231 176.082 7.187L177.039 7.022Q177.292 7.792 177.545 8.694L178.502 8.694L178.502 9.662L176.599 9.662Q176.599 10.179 176.577 10.993L178.425 10.993ZM174.355 9.288Q173.255 8.342 172.859 8.034L173.442 7.253Q173.882 7.583 174.971 8.463L174.355 9.288ZM174.289 12.049Q173.222 11.103 172.474 10.553L173.09 9.728Q173.838 10.278 174.916 11.191L174.289 12.049ZM182.715 12.907L182.715 13.864L181.197 13.864L181.197 15.778Q181.197 16.306 181.087 16.57Q180.977 16.834 180.713 16.933Q180.449 17.032 179.932 17.032Q179.492 17.032 179.184 16.977L178.986 15.976Q179.371 16.064 179.734 16.064Q180.042 16.064 180.152 15.932Q180.262 15.8 180.262 15.404L180.262 13.864L178.744 13.864L178.744 12.907L180.262 12.907L180.262 12.159L181.153 11.18L179.404 11.18L179.404 10.245L182.308 10.245L182.308 11.213L181.197 12.423L181.197 12.907L182.715 12.907ZM174.817 13.039Q174.608 13.809 174.207 15.096Q173.805 16.383 173.552 17.076L172.551 16.779Q172.848 16.042 173.261 14.7275Q173.673 13.413 173.816 12.731L174.817 13.039ZM192.043 14.887Q192.626 15.492 193.781 16.207L193.198 17.065Q192.164 16.383 191.46 15.635Q190.789 16.383 189.92 17.054L189.359 16.229Q190.25 15.613 190.888 14.931Q190.107 13.82 189.612 12.082L189.315 12.082L189.315 17.131L188.413 17.131L188.413 7.517L193.11 7.517Q193.11 7.671 193.099 7.781Q193.066 9.09 193.044 9.398Q193.011 9.904 192.89 10.146Q192.769 10.388 192.472 10.4815Q192.175 10.575 191.57 10.575Q190.921 10.575 190.294 10.509L190.118 9.607Q190.778 9.706 191.416 9.706Q191.801 9.706 191.922 9.585Q192.043 9.464 192.065 9.156Q192.087 9.057 192.104 8.8535Q192.12 8.65 192.12 8.485L189.315 8.485L189.315 11.18L193.242 11.18L193.242 12.093Q192.846 13.699 192.043 14.887ZM184.332 7.539L187.632 7.539L187.632 15.844Q187.632 16.273 187.539 16.515Q187.445 16.757 187.214 16.867Q186.983 16.977 186.543 16.977Q186.114 16.977 185.597 16.922L185.399 15.976Q185.971 16.064 186.29 16.064Q186.565 16.064 186.648 15.932Q186.73 15.8 186.73 15.481L186.73 13.611L185.201 13.611Q185.135 14.601 184.954 15.4645Q184.772 16.328 184.42 17.164L183.562 16.702Q183.881 16.031 184.035 15.492Q184.189 14.953 184.261 14.1005Q184.332 13.248 184.332 11.741L184.332 7.539ZM186.73 10.146L186.73 8.485L185.245 8.485L185.245 10.146L186.73 10.146ZM185.245 12.72L186.73 12.72L186.73 11.048L185.245 11.048L185.245 12.159L185.245 12.72ZM190.514 12.082Q190.899 13.38 191.46 14.183Q192.043 13.27 192.329 12.082L190.514 12.082ZM200.755 10.696Q202.262 11.235 204.682 11.631L204.429 12.621Q202.889 12.335 201.74 12.005Q200.59 11.675 199.666 11.235Q197.796 12.082 194.98 12.764L194.639 11.785Q196.905 11.312 198.61 10.674Q197.686 10.091 196.938 9.376Q196.179 10.058 195.453 10.531L194.881 9.816Q195.684 9.288 196.515 8.4575Q197.345 7.627 197.84 6.89L198.808 7.22Q198.478 7.704 198.291 7.935L203.384 7.935L203.384 8.782Q202.163 9.915 200.755 10.696ZM197.664 8.793Q198.5 9.662 199.644 10.223Q201.008 9.585 201.877 8.793L197.664 8.793ZM199.479 11.994L199.424 12.401L199.347 13.05L203.527 13.05Q203.428 14.48 203.186 15.69Q203.054 16.383 202.719 16.713Q202.383 17.043 201.679 17.054Q200.634 17.054 199.71 16.944L199.523 16.031Q200.381 16.163 201.283 16.174Q201.679 16.174 201.861 16.0145Q202.042 15.855 202.152 15.404Q202.317 14.755 202.383 13.952L199.149 13.952Q198.929 14.7 198.5 15.239Q198.071 15.778 197.345 16.229Q196.619 16.68 195.453 17.153L194.859 16.306Q196.344 15.778 197.059 15.2555Q197.774 14.733 198.06 13.952L195.365 13.952L195.365 13.05L198.269 13.05Q198.379 12.335 198.401 11.983L199.479 11.994Z">
</path>
<path     fill="#A72D22"  d="M37.1081 12.225Q37.4601 13.523 38.0816 14.4195Q38.7031 15.316 39.7481 15.976L39.0551 16.746Q37.9001 15.943 37.2456 14.887Q36.5911 13.831 36.1731 12.225L35.2051 12.225L35.2051 15.635L35.7221 15.404Q36.6021 15.008 36.7561 14.942L36.8661 16.009Q35.5461 16.537 34.9961 16.79Q34.4681 17.043 34.3141 17.142L33.8411 16.174Q34.0391 16.042 34.1161 15.932Q34.1931 15.822 34.1931 15.679L34.1931 12.225L33.3571 12.225L33.3571 11.213L34.1931 11.213L34.1931 7.11L35.2051 7.11L35.2051 11.213L39.4731 11.213L39.4731 12.225L37.1081 12.225ZM39.1541 8.331Q38.4171 8.958 37.5701 9.563Q36.7231 10.168 35.9751 10.586L35.4361 9.75Q36.1511 9.354 37.0091 8.7215Q37.8671 8.089 38.5271 7.495L39.1541 8.331ZM29.8701 8.562L29.8701 7.583L33.0491 7.583L33.0491 10.938L31.1021 10.938L30.9811 12.357L33.0051 12.357Q32.9941 13.017 32.9336 14.0455Q32.8731 15.074 32.7961 15.712Q32.7411 16.218 32.6091 16.482Q32.4771 16.746 32.2021 16.856Q31.9271 16.966 31.4211 16.966Q30.7281 16.966 30.2331 16.911L30.0571 15.943Q30.6951 16.02 31.1461 16.02Q31.4981 16.02 31.6411 15.888Q31.7841 15.756 31.8281 15.371Q31.8831 14.986 31.9216 14.3535Q31.9601 13.721 31.9711 13.292L29.9471 13.292L30.2001 9.992L32.0591 9.992L32.0591 8.562L29.8701 8.562ZM41.9481 8.969L41.9481 10.311L40.9691 10.311L40.9691 8.067L45.1601 8.067Q44.9401 7.594 44.6981 7.143L45.8311 6.824Q46.1391 7.451 46.3811 8.067L50.2531 8.067L50.2531 10.322L49.2631 10.322L49.2631 8.969L41.9481 8.969ZM47.9541 12.764Q48.4051 13.754 48.9936 14.4085Q49.5821 15.063 50.5611 15.679L49.9121 16.471Q48.9221 15.811 48.2731 15.0245Q47.6241 14.238 47.1511 13.149L46.6121 13.38Q46.7771 14.117 46.7771 15.107Q46.7771 15.811 46.6451 16.2235Q46.5131 16.636 46.2106 16.823Q45.9081 17.01 45.3911 17.021Q44.6541 17.043 44.0491 16.966L43.8841 16.042Q44.6761 16.13 45.0721 16.13Q45.4461 16.13 45.5946 15.877Q45.7431 15.624 45.7431 14.964Q45.7431 14.711 45.7211 14.293Q44.8411 15.008 43.5541 15.6625Q42.2671 16.317 41.0131 16.735L40.5951 15.855Q42.0911 15.415 43.3781 14.7935Q44.6651 14.172 45.5781 13.446Q45.5011 13.171 45.3801 12.885Q44.5771 13.424 43.4771 13.93Q42.3771 14.436 41.1671 14.865L40.8261 14.007Q41.9701 13.655 43.0756 13.1875Q44.1811 12.72 45.0171 12.203Q44.7751 11.862 44.6981 11.763Q42.9491 12.654 41.1891 13.116L40.8591 12.258Q41.9921 11.972 43.0371 11.576Q44.0821 11.18 44.8851 10.74L42.3771 10.74L42.3771 9.904L48.8011 9.904L48.8011 10.74L46.3701 10.74Q46.0181 10.993 45.5231 11.301Q46.0401 11.906 46.3261 12.533Q47.8881 11.84 49.2851 10.938L49.7911 11.763Q48.9441 12.28 47.9541 12.764ZM61.2531 14.722Q59.9991 14.293 58.8661 13.655L58.8661 17.032L57.8321 17.032L57.8321 13.27L58.2501 13.27Q57.3041 12.61 56.6441 11.895Q56.0061 12.643 54.9721 13.281L55.4891 13.281Q55.4891 13.666 55.4561 13.93Q55.3901 14.865 54.8291 15.646Q54.2681 16.427 52.9591 17.142L52.3651 16.317Q53.1351 15.932 53.5641 15.5635Q53.9931 15.195 54.1801 14.81Q54.3671 14.425 54.4111 13.93L54.4331 13.6Q53.3001 14.216 51.9801 14.7L51.4851 13.798Q54.0041 12.984 55.4671 11.873L52.6291 11.873L52.6291 7.385L60.5711 7.385L60.5711 11.873L57.7551 11.873Q58.4481 12.456 59.3996 12.9125Q60.3511 13.369 61.6821 13.776L61.2531 14.722ZM56.1161 9.222L56.1161 8.254L53.6631 8.254L53.6631 9.222L56.1161 9.222ZM57.0841 9.222L59.5371 9.222L59.5371 8.254L57.0841 8.254L57.0841 9.222ZM56.1161 10.036L53.6631 10.036L53.6631 10.982L56.1161 10.982L56.1161 10.036ZM57.0841 10.036L57.0841 10.982L59.5371 10.982L59.5371 10.036L57.0841 10.036Z">
</path>
</g>
<path d="M7.6001 5.9375C3.8501 5.9375 0.850098 8.98438 0.850098 12.6875C0.850098 16.3906 3.89697 19.4375 7.6001 19.4375C11.3032 19.4375 14.3501 16.3906 14.3501 12.6875C14.3501 8.98438 11.3501 5.9375 7.6001 5.9375ZM7.6001 18.7775C4.27197 18.7775 1.5501 16.0656 1.5501 12.7375C1.5501 9.40938 4.27197 6.6875 7.6001 6.6875C10.9282 6.6875 13.6501 9.40938 13.6501 12.7375C13.6501 16.0656 10.9751 18.7775 7.6001 18.7775ZM11.9601 12.9675L7.8801 12.9675L7.8801 8.8475C7.8801 8.66 7.7376 8.5175 7.5501 8.5175C7.3626 8.5175 7.2301 8.66 7.2301 8.8475L7.2301 13.3475C7.2301 13.535 7.3626 13.6675 7.5501 13.6675L7.6001 13.6675L11.9601 13.6675C12.1476 13.6675 12.2901 13.535 12.2901 13.3475C12.2901 13.1131 12.1476 12.9675 11.9601 12.9675Z"   fill="#C4C4C4" >
</path>
<path d="M131.362 7.83207L131.362 7.00701L130.285 7.00701L130.285 17.3133L131.362 17.3133L131.362 12.3598L137.1 10.0958L131.362 7.83207ZM126.689 12.9462C124.707 12.9462 123.1 14.4991 123.1 16.4146L123.1 17.32L129.208 17.32L129.208 13.9435C128.56 13.3267 127.671 12.9462 126.689 12.9462ZM126.626 11.9552C128.042 11.9552 129.19 10.8459 129.19 9.47748C129.19 8.10922 128.042 7 126.626 7C125.209 7 124.061 8.10922 124.061 9.47748C124.061 10.8459 125.209 11.9552 126.626 11.9552Z"   fill="#C4C4C4" >
</path>
</svg>
