<svg xmlns="http://www.w3.org/2000/svg" xmlns:xlink="http://www.w3.org/1999/xlink" width="220.2001953125" height="25" viewBox="0 0 220.2001953125 25" fill="none">
<rect  x="0.10009765625" y="4" width="46" height="17" rx="2"    fill="#FFFFFF" >
</rect>
<path   fill="rgba(128, 128, 128, 1)"  d="M2.1001 3.9L44.1001 3.9C45.2599 3.9 46.2001 4.8402 46.2001 6L46.2001 19C46.2001 20.1598 45.2599 21.1 44.1001 21.1L2.1001 21.1C0.9403 21.1 9.76548e-05 20.1598 9.76548e-05 19L9.76548e-05 6C9.76548e-05 4.8402 0.9403 3.9 2.1001 3.9ZM2.1001 4.1C1.05076 4.1 0.200098 4.95066 0.200098 6L0.200098 19C0.200098 20.0493 1.05076 20.9 2.1001 20.9L44.1001 20.9C45.1494 20.9 46.0001 20.0493 46.0001 19L46.0001 6C46.0001 4.95066 45.1494 4.1 44.1001 4.1L2.1001 4.1Z">
</path>
<g >
<path     fill="#808080"  d="M16.4731 10.773L16.4731 11.609L12.1831 11.609L12.1831 12.83L16.1431 12.83L16.1431 13.644L12.1831 13.644L12.1831 15.657Q12.1831 16.141 12.0731 16.4105Q11.9631 16.68 11.6936 16.801Q11.4241 16.922 10.9181 16.922Q10.2361 16.922 9.7521 16.867L9.5651 15.976Q10.1591 16.064 10.6981 16.064Q11.0501 16.064 11.1656 15.91Q11.2811 15.756 11.2811 15.305L11.2811 13.644L7.0571 13.644L7.0571 12.83L11.2811 12.83L11.2811 11.609L6.6941 11.609L6.6941 10.773L9.4661 10.773L8.9711 9.002L7.2661 9.002L7.2661 8.166L11.3141 8.166Q11.0721 7.561 10.8191 7.055L11.7321 6.901Q11.9411 7.297 12.2711 8.166L15.9231 8.166L15.9231 9.002L14.2071 9.002L13.8331 10.773L16.4731 10.773ZM9.8621 9.002L10.3681 10.773L12.9531 10.773L13.3491 9.002L9.8621 9.002ZM9.9501 14.513Q9.4551 15.03 8.6851 15.657Q7.9151 16.284 7.1781 16.779L6.6831 16.009Q7.3541 15.602 8.0801 15.019Q8.8061 14.436 9.3451 13.897L9.9501 14.513ZM13.5801 13.974Q14.1301 14.304 15.0156 14.9145Q15.9011 15.525 16.4181 15.921L15.8901 16.669Q15.3401 16.229 14.5206 15.6515Q13.7011 15.074 13.0741 14.678L13.5801 13.974ZM27.4731 11.62L27.4731 12.511L23.1391 12.511L23.1391 15.459Q23.1391 16.053 22.9906 16.3555Q22.8421 16.658 22.4736 16.779Q22.1051 16.9 21.4011 16.9Q20.8291 16.9 20.1911 16.812L20.0041 15.932Q20.8181 16.064 21.4121 16.064Q21.7641 16.064 21.9291 15.987Q22.0941 15.91 22.1546 15.723Q22.2151 15.536 22.2151 15.14L22.2151 12.511L17.7381 12.511L17.7381 11.62L22.2151 11.62L22.2151 10.465L25.1961 8.584L18.5631 8.584L18.5631 7.715L26.7581 7.715L26.7581 8.595L23.1391 10.872L23.1391 11.62L27.4731 11.62ZM34.1611 10.322Q35.0631 8.991 35.6571 7.011L36.5041 7.132Q36.3611 7.616 36.0971 8.375L38.5831 8.375L38.5831 9.233L35.7451 9.233Q35.3711 10.08 34.8761 10.773L34.1611 10.322ZM34.2931 11.059Q34.3041 11.884 34.2326 13.391Q34.1611 14.898 34.0621 15.646Q33.9961 16.119 33.8806 16.3665Q33.7651 16.614 33.5231 16.7185Q33.2811 16.823 32.8301 16.823Q32.4451 16.823 32.1811 16.768L32.0161 15.921Q32.5441 16.031 32.7971 16.031Q33.0171 16.031 33.1161 15.8715Q33.2151 15.712 33.2701 15.316Q33.4791 13.622 33.4791 11.928L32.4121 11.928Q32.3571 13.204 32.1976 14.073Q32.0381 14.942 31.7246 15.6405Q31.4111 16.339 30.8611 17.098L30.1241 16.68Q30.7181 15.866 31.0206 15.151Q31.3231 14.436 31.4441 13.5835Q31.5651 12.731 31.6201 11.312L31.6641 9.585L30.9931 9.585L30.9931 8.749L32.5221 8.749L32.0601 7.187L32.8851 7.033Q33.0611 7.539 33.4241 8.749L34.4251 8.749L34.4251 9.585L32.4671 9.585Q32.4671 10.201 32.4451 11.059L34.2931 11.059ZM30.3111 9.211Q30.2451 9.156 30.1681 9.09Q30.0911 9.024 29.9921 8.947Q29.2881 8.331 28.8371 7.99L29.3431 7.319Q29.9921 7.792 30.8391 8.507L30.3111 9.211ZM30.2781 11.961Q29.1011 10.949 28.4521 10.465L28.9801 9.761Q29.7061 10.289 30.8171 11.224L30.2781 11.961ZM38.6271 12.94L38.6271 13.754L37.0431 13.754L37.0431 15.756Q37.0431 16.262 36.9386 16.5205Q36.8341 16.779 36.5756 16.8725Q36.3171 16.966 35.8001 16.966Q35.3711 16.966 35.0631 16.911L34.8871 16.053Q35.2391 16.141 35.6901 16.141Q35.9981 16.141 36.1081 15.998Q36.2181 15.855 36.2181 15.437L36.2181 13.754L34.6341 13.754L34.6341 12.94L36.2181 12.94L36.2181 12.17L37.1641 11.103L35.3051 11.103L35.3051 10.3L38.1871 10.3L38.1871 11.136L37.0431 12.379L37.0431 12.94L38.6271 12.94ZM30.7181 12.973Q30.5201 13.699 30.1021 14.975Q29.6841 16.251 29.3651 17.043L28.5071 16.768Q28.8591 15.954 29.2826 14.678Q29.7061 13.402 29.8601 12.687L30.7181 12.973Z">
</path>
</g>
<rect  x="51.10009765625" y="4" width="53" height="17" rx="2"    fill="#FFFFFF" >
</rect>
<path   fill="rgba(128, 128, 128, 1)"  d="M53.1001 3.9L102.1 3.9C103.26 3.9 104.2 4.8402 104.2 6L104.2 19C104.2 20.1598 103.26 21.1 102.1 21.1L53.1001 21.1C51.9403 21.1 51.0001 20.1598 51.0001 19L51.0001 6C51.0001 4.8402 51.9403 3.9 53.1001 3.9ZM53.1001 4.1C52.0508 4.1 51.2001 4.95066 51.2001 6L51.2001 19C51.2001 20.0493 52.0508 20.9 53.1001 20.9L102.1 20.9C103.149 20.9 104 20.0493 104 19L104 6C104 4.95066 103.149 4.1 102.1 4.1L53.1001 4.1Z">
</path>
<g >
<path     fill="#808080"  d="M66.2971 14.502Q66.2971 15.195 66.2421 15.734Q66.2091 16.13 66.0936 16.328Q65.9781 16.526 65.7196 16.614Q65.4611 16.702 64.9331 16.746Q64.4711 16.779 64.0421 16.779Q63.6241 16.779 63.1621 16.746Q62.6671 16.713 62.4141 16.6085Q62.1611 16.504 62.0456 16.262Q61.9301 16.02 61.9301 15.536L61.9301 13.358L61.6441 13.358Q61.3581 14.216 60.8191 14.8485Q60.2801 15.481 59.4001 15.9925Q58.5201 16.504 57.1671 16.999L56.7051 16.207Q58.4871 15.613 59.4111 14.9695Q60.3351 14.326 60.7311 13.358L57.7831 13.358L57.7831 10.553Q57.5741 10.707 57.0021 11.103L56.6281 10.333Q57.7281 9.596 58.5476 8.771Q59.3671 7.946 59.9721 6.956L60.7641 7.319Q60.6101 7.561 60.3021 8.001L64.2951 8.001L64.2951 8.76L63.0741 9.981L65.5381 9.981L65.5381 13.358L62.7441 13.358L62.7441 15.261Q62.7441 15.536 62.7991 15.6625Q62.8541 15.789 62.9916 15.8385Q63.1291 15.888 63.4371 15.921Q63.7671 15.954 64.0421 15.954Q64.3171 15.954 64.6471 15.921Q64.9881 15.888 65.1476 15.833Q65.3071 15.778 65.3731 15.6625Q65.4391 15.547 65.4611 15.294Q65.5051 14.667 65.4941 14.337L66.2971 14.502ZM59.6971 8.782Q59.1251 9.453 58.5091 9.981L62.0071 9.981L63.2061 8.782L59.6971 8.782ZM58.5971 12.588L60.9841 12.588Q61.1381 11.851 61.1931 10.773L58.5971 10.773L58.5971 12.588ZM62.0511 10.773Q61.9961 11.807 61.8421 12.588L64.7241 12.588L64.7241 10.773L62.0511 10.773ZM67.9911 12.621Q69.6301 12.181 70.2901 11.455L68.2441 11.455L68.4751 9.376L70.9391 9.376L70.9391 9.189L70.9391 8.65L68.1671 8.65L68.1671 7.979L70.9391 7.979L70.9391 7.044L71.7531 7.044L71.7531 7.979L73.5241 7.979L73.5241 7.044L74.2941 7.044L74.2941 7.979L76.7251 7.979L76.7251 10.058L74.2941 10.058L74.2941 10.817L77.2641 10.817Q77.2421 11.455 77.1761 11.796Q77.0771 12.313 76.8406 12.4725Q76.6041 12.632 76.0431 12.632Q75.7021 12.632 75.3721 12.599L75.2401 12.005Q75.5591 12.06 75.9881 12.06Q76.1421 12.06 76.2081 12.0105Q76.2741 11.961 76.3401 11.84Q76.4061 11.708 76.4281 11.455L74.2941 11.455L74.2941 12.566L73.5241 12.566L73.5241 11.455L71.3351 11.455Q71.1041 11.862 70.6861 12.1975Q70.2681 12.533 69.6081 12.83L76.0761 12.83L76.0761 15.404L75.2071 15.404L75.2071 13.534L70.0151 13.534L70.0151 15.415L69.1351 15.415L69.1351 13.017Q68.7061 13.182 68.3981 13.27L67.9911 12.621ZM71.7531 8.65L71.7531 9.156L71.7531 9.376L73.5241 9.376L73.5241 8.65L71.7531 8.65ZM75.9661 9.376L75.9661 8.65L74.2941 8.65L74.2941 9.376L75.9661 9.376ZM69.1241 10.817L70.6971 10.817Q70.8511 10.465 70.8951 10.058L69.2231 10.058L69.1241 10.817ZM73.5241 10.817L73.5241 10.058L71.7201 10.058Q71.6871 10.432 71.5991 10.817L73.5241 10.817ZM72.9961 14.436Q72.9631 14.667 72.8751 14.942Q73.8101 15.206 75.1356 15.6405Q76.4611 16.075 77.2641 16.372L76.9011 17.131Q76.0981 16.823 74.7616 16.339Q73.4251 15.855 72.5561 15.569Q72.1051 16.174 71.1151 16.5535Q70.1251 16.933 68.3761 17.098L67.9801 16.35Q70.2131 16.163 71.1151 15.6295Q72.0171 15.096 72.0941 14.436Q72.0941 14.403 72.1491 13.875L73.0731 13.875L72.9961 14.436ZM88.5061 10.421L88.5061 11.213L81.9831 11.213L81.9831 10.421L83.6001 10.421L83.2261 8.87L82.2031 8.87L82.2031 8.1L84.7881 8.1Q84.5901 7.638 84.3591 7.209L85.2501 6.923Q85.4151 7.242 85.7671 8.1L88.2091 8.1L88.2091 8.87L87.1421 8.87L86.7241 10.421L88.5061 10.421ZM81.7521 12.269L80.8501 12.577L80.8501 15.756Q80.8501 16.427 80.6246 16.669Q80.3991 16.911 79.8271 16.911Q79.3541 16.911 78.9141 16.856L78.7711 16.031Q79.2881 16.108 79.6731 16.108Q79.8821 16.108 79.9536 16.0035Q80.0251 15.899 80.0251 15.624L80.0251 12.874Q79.3211 13.116 78.6831 13.358L78.5071 12.533Q78.9801 12.401 80.0251 12.027L80.0251 9.893L78.7271 9.893L78.7271 9.09L80.0251 9.09L80.0251 7.099L80.8501 7.099L80.8501 9.09L81.8071 9.09L81.8071 9.893L80.8501 9.893L80.8501 11.73L81.1141 11.631L81.7081 11.389L81.7521 12.269ZM86.2951 8.87L84.0511 8.87L84.4471 10.421L85.8991 10.421L86.2951 8.87ZM88.5281 13.303L87.3181 13.303Q86.8451 14.524 86.1961 15.217Q87.6811 15.899 88.4511 16.295L88.0991 17.065Q86.9331 16.449 85.5251 15.789Q84.9201 16.196 84.0621 16.5095Q83.2041 16.823 81.9501 17.076L81.6531 16.273Q83.6661 15.899 84.6451 15.393Q83.2591 14.799 82.5221 14.524Q82.8961 14.007 83.2811 13.303L81.7631 13.303L81.7631 12.511L83.6881 12.511Q83.9851 11.884 84.1171 11.455L84.9751 11.598Q84.7661 12.148 84.6011 12.511L88.5281 12.511L88.5281 13.303ZM85.4151 14.865Q85.7451 14.568 85.9816 14.194Q86.2181 13.82 86.4271 13.303L84.2051 13.303Q83.9411 13.809 83.6991 14.15Q84.3371 14.381 85.4151 14.865ZM93.2251 13.204Q92.8071 12.709 92.0921 11.961L92.0921 17.109L91.2451 17.109L91.2451 12.038Q90.6511 13.424 89.8371 14.524L89.3971 13.721Q89.8921 13.039 90.4146 11.9885Q90.9371 10.938 91.2341 9.959L89.6831 9.959L89.6831 9.112L91.2451 9.112L91.2451 7.044L92.0921 7.044L92.0921 9.112L93.5661 9.112L93.5661 9.959L92.0921 9.959L92.0921 10.916Q92.4001 11.191 92.9336 11.73Q93.4671 12.269 93.7751 12.61L93.2251 13.204ZM99.5941 13.589Q99.5941 14.007 99.5776 14.6395Q99.5611 15.272 99.5391 15.69Q99.5171 16.13 99.4181 16.3555Q99.3191 16.581 99.0936 16.669Q98.8681 16.757 98.4391 16.757L97.9221 16.757Q97.3941 16.757 97.1796 16.515Q96.9651 16.273 96.9651 15.635L96.9651 8.683L95.0401 8.683L95.0401 11.488Q95.0401 13.017 94.9136 13.963Q94.7871 14.909 94.4736 15.6295Q94.1601 16.35 93.5331 17.142L92.7521 16.636Q93.3461 15.866 93.6376 15.2445Q93.9291 14.623 94.0446 13.776Q94.1601 12.929 94.1601 11.477L94.1601 7.77L97.8341 7.77L97.8341 15.382Q97.8341 15.701 97.9056 15.8Q97.9771 15.899 98.2081 15.899L98.3291 15.899Q98.5601 15.899 98.6371 15.7945Q98.7141 15.69 98.7251 15.327Q98.7361 14.964 98.7526 14.3865Q98.7691 13.809 98.7691 13.435L99.5941 13.589Z">
</path>
</g>
<rect  x="109.10009765625" y="4" width="53" height="17" rx="2"    fill="#FFFFFF" >
</rect>
<path   fill="rgba(128, 128, 128, 1)"  d="M111.1 3.9L160.1 3.9C161.26 3.9 162.2 4.8402 162.2 6L162.2 19C162.2 20.1598 161.26 21.1 160.1 21.1L111.1 21.1C109.94 21.1 109 20.1598 109 19L109 6C109 4.8402 109.94 3.9 111.1 3.9ZM111.1 4.1C110.051 4.1 109.2 4.95066 109.2 6L109.2 19C109.2 20.0493 110.051 20.9 111.1 20.9L160.1 20.9C161.149 20.9 162 20.0493 162 19L162 6C162 4.95066 161.149 4.1 160.1 4.1L111.1 4.1Z">
</path>
<g >
<path     fill="#808080"  d="M119.688 11.092L119.688 15.745L124.462 15.745L124.462 16.603L114.749 16.603L114.749 15.745L118.775 15.745L118.775 7.033L119.688 7.033L119.688 10.212L123.725 10.212L123.725 11.092L119.688 11.092ZM127.058 6.967Q127.443 7.275 127.982 7.792Q128.521 8.309 128.851 8.672L128.202 9.365Q127.861 8.98 127.317 8.43Q126.772 7.88 126.442 7.594L127.058 6.967ZM134.967 15.404Q134.967 16.064 134.824 16.3775Q134.681 16.691 134.324 16.7955Q133.966 16.9 133.218 16.9Q132.866 16.9 132.118 16.856L131.942 15.943Q132.558 16.009 133.174 16.009Q133.57 16.009 133.757 15.943Q133.944 15.877 134.01 15.6955Q134.076 15.514 134.076 15.107L134.076 8.639L129.335 8.639L129.335 7.781L134.967 7.781L134.967 15.404ZM126.211 9.057L127.091 9.057L127.091 16.944L126.211 16.944L126.211 9.057ZM146.506 10.421L146.506 11.213L139.983 11.213L139.983 10.421L141.6 10.421L141.226 8.87L140.203 8.87L140.203 8.1L142.788 8.1Q142.59 7.638 142.359 7.209L143.25 6.923Q143.415 7.242 143.767 8.1L146.209 8.1L146.209 8.87L145.142 8.87L144.724 10.421L146.506 10.421ZM139.752 12.269L138.85 12.577L138.85 15.756Q138.85 16.427 138.625 16.669Q138.399 16.911 137.827 16.911Q137.354 16.911 136.914 16.856L136.771 16.031Q137.288 16.108 137.673 16.108Q137.882 16.108 137.954 16.0035Q138.025 15.899 138.025 15.624L138.025 12.874Q137.321 13.116 136.683 13.358L136.507 12.533Q136.98 12.401 138.025 12.027L138.025 9.893L136.727 9.893L136.727 9.09L138.025 9.09L138.025 7.099L138.85 7.099L138.85 9.09L139.807 9.09L139.807 9.893L138.85 9.893L138.85 11.73L139.114 11.631L139.708 11.389L139.752 12.269ZM144.295 8.87L142.051 8.87L142.447 10.421L143.899 10.421L144.295 8.87ZM146.528 13.303L145.318 13.303Q144.845 14.524 144.196 15.217Q145.681 15.899 146.451 16.295L146.099 17.065Q144.933 16.449 143.525 15.789Q142.92 16.196 142.062 16.5095Q141.204 16.823 139.95 17.076L139.653 16.273Q141.666 15.899 142.645 15.393Q141.259 14.799 140.522 14.524Q140.896 14.007 141.281 13.303L139.763 13.303L139.763 12.511L141.688 12.511Q141.985 11.884 142.117 11.455L142.975 11.598Q142.766 12.148 142.601 12.511L146.528 12.511L146.528 13.303ZM143.415 14.865Q143.745 14.568 143.982 14.194Q144.218 13.82 144.427 13.303L142.205 13.303Q141.941 13.809 141.699 14.15Q142.337 14.381 143.415 14.865ZM150.719 14.623Q151.61 14.194 152.133 13.82Q152.655 13.446 152.925 13.0445Q153.194 12.643 153.293 12.126L150.631 12.126L150.631 11.323L153.37 11.323Q153.381 11.202 153.381 10.938L153.381 9.717L151.005 9.717L151.005 8.903L154.206 8.903Q155.031 7.737 155.592 6.857L156.329 7.319Q155.647 8.276 155.152 8.903L156.989 8.903L156.989 9.717L154.305 9.717L154.305 11.026L154.305 11.323L157.242 11.323L157.242 12.126L154.239 12.126Q154.228 12.247 154.184 12.434Q155.746 13.534 157.121 14.689L156.527 15.448Q155.207 14.238 153.931 13.193Q153.623 13.82 152.996 14.3315Q152.369 14.843 151.258 15.371L150.719 14.623ZM152.094 6.912Q152.677 7.55 153.304 8.397L152.644 8.903Q152.083 8.111 151.456 7.385L152.094 6.912ZM149.564 9.816Q149.3 9.42 148.794 8.7765Q148.288 8.133 147.958 7.781L148.673 7.231Q149.014 7.627 149.509 8.243Q150.004 8.859 150.268 9.255L149.564 9.816ZM152.842 15.965Q154.03 16.031 155.218 16.031Q156.406 16.031 157.594 15.965L157.429 16.812Q156.274 16.878 155.108 16.878Q153.964 16.878 152.787 16.812Q151.544 16.735 150.741 16.383Q149.938 16.031 149.333 15.316L148.057 16.977L147.364 16.262L148.937 14.502L148.937 11.719L147.562 11.719L147.562 10.894L149.784 10.894L149.784 14.502Q150.235 15.184 150.978 15.5415Q151.72 15.899 152.842 15.965Z">
</path>
</g>
<rect  x="167.10009765625" y="4" width="53" height="17" rx="2"    fill="#FFFFFF" >
</rect>
<path   fill="rgba(128, 128, 128, 1)"  d="M169.1 3.9L218.1 3.9C219.26 3.9 220.2 4.8402 220.2 6L220.2 19C220.2 20.1598 219.26 21.1 218.1 21.1L169.1 21.1C167.94 21.1 167 20.1598 167 19L167 6C167 4.8402 167.94 3.9 169.1 3.9ZM169.1 4.1C168.051 4.1 167.2 4.95066 167.2 6L167.2 19C167.2 20.0493 168.051 20.9 169.1 20.9L218.1 20.9C219.149 20.9 220 20.0493 220 19L220 6C220 4.95066 219.149 4.1 218.1 4.1L169.1 4.1Z">
</path>
<g >
<path     fill="#808080"  d="M182.341 14.315L182.341 15.162L178.227 15.162L178.227 17.12L177.358 17.12L177.358 15.162L172.815 15.162L172.815 14.315L177.358 14.315L177.358 12.577L173.937 12.577L173.937 11.763Q174.564 10.883 175.334 9.354L173.079 9.354L173.079 8.529L175.73 8.529Q176.236 7.451 176.434 6.868L177.38 7.121Q177.138 7.759 176.775 8.529L182.099 8.529L182.099 9.354L176.379 9.354Q175.642 10.85 175.037 11.763L177.358 11.763L177.358 10.003L178.227 10.003L178.227 11.763L181.527 11.763L181.527 12.577L178.227 12.577L178.227 14.315L182.341 14.315ZM187.126 14.645Q186.994 14.667 186.824 14.7Q186.653 14.733 186.466 14.766L186.103 14.832L186.103 17.087L185.355 17.087L185.355 14.975L183.617 15.316L183.529 14.436Q184.046 14.37 185.355 14.128L185.355 12.577L183.782 12.577L183.782 11.719Q184.178 10.685 184.552 9.189L183.661 9.189L183.661 8.386L184.739 8.386Q184.915 7.682 185.036 6.967L185.773 7.099Q185.696 7.561 185.531 8.386L187.115 8.386L187.115 9.189L185.344 9.189Q185.047 10.454 184.629 11.719L185.355 11.719L185.355 9.827L186.103 9.827L186.103 11.719L186.983 11.719L186.983 12.577L186.103 12.577L186.103 13.985Q186.829 13.853 187.027 13.809L187.126 14.645ZM193.616 8.419L191.647 8.419L191.647 9.904L193.33 9.904L193.33 15.69Q193.33 16.405 193.083 16.691Q192.835 16.977 192.219 16.977Q191.768 16.977 191.317 16.911L191.152 16.097Q191.625 16.185 192.065 16.185Q192.34 16.185 192.456 16.0035Q192.571 15.822 192.571 15.437L192.571 14.315L192.098 14.623Q191.878 14.183 191.372 13.281Q191.218 13.864 190.987 14.436Q190.756 15.008 190.404 15.69L189.7 15.338Q190.261 14.304 190.514 13.468L190.085 13.776Q189.909 13.435 189.623 12.962Q189.392 14.128 188.754 15.294L188.182 14.975L188.182 16.966L187.423 16.966L187.423 9.904L189.106 9.904Q189.106 8.826 189.117 8.419L187.28 8.419L187.28 7.616L193.616 7.616L193.616 8.419ZM190.921 9.904L190.932 8.419L189.865 8.419L189.865 9.904L190.921 9.904ZM188.182 14.722Q188.699 13.743 188.892 12.8795Q189.084 12.016 189.106 10.718L188.182 10.718L188.182 14.722ZM190.041 12.247L190.591 13.193Q190.866 12.148 190.899 10.718L189.843 10.718Q189.832 11.158 189.788 11.818L190.041 12.247ZM192.571 10.718L191.647 10.718Q191.647 11.389 191.57 12.137Q192.263 13.347 192.571 13.908L192.571 10.718ZM201.448 7L201.448 10.102L203.934 10.102L203.934 15.701Q203.934 16.405 203.703 16.6855Q203.472 16.966 202.911 16.966Q202.119 16.966 201.536 16.911L201.36 16.064Q202.097 16.141 202.614 16.141Q202.867 16.141 202.966 15.9705Q203.065 15.8 203.065 15.415L203.065 14.821L198.951 14.821L198.951 16.977L198.082 16.977L198.082 10.102L200.568 10.102L200.568 7L201.448 7ZM195.552 7.319Q196.245 7.759 197.576 8.782L197.081 9.541Q196.696 9.222 196.108 8.782Q195.519 8.342 195.068 8.023L195.552 7.319ZM199.336 9.772Q199.05 9.376 198.583 8.848Q198.115 8.32 197.708 7.935L198.324 7.374Q198.687 7.737 199.177 8.276Q199.666 8.815 199.963 9.189L199.336 9.772ZM204.286 7.957Q203.967 8.375 203.505 8.8975Q203.043 9.42 202.636 9.805L202.009 9.255Q202.427 8.859 202.884 8.353Q203.34 7.847 203.648 7.418L204.286 7.957ZM195.068 9.706Q195.508 10.003 196.141 10.4815Q196.773 10.96 197.158 11.301L196.63 12.049Q196.179 11.664 195.585 11.191Q194.991 10.718 194.562 10.421L195.068 9.706ZM198.951 12.06L203.065 12.06L203.065 10.916L198.951 10.916L198.951 12.06ZM194.991 16.669Q195.805 14.568 196.256 12.786L197.114 13.072Q196.608 15.063 195.871 16.944L194.991 16.669ZM198.951 12.863L198.951 14.04L203.065 14.04L203.065 12.863L198.951 12.863ZM211.029 9.75L211.029 10.377L215.572 10.377L215.572 11.048L205.628 11.048L205.628 10.377L210.182 10.377L210.182 9.75L206.662 9.75L206.662 9.123L210.182 9.123L210.182 8.496L206.134 8.496L206.134 7.803L210.182 7.803L210.182 7.033L211.029 7.033L211.029 7.803L215.066 7.803L215.066 8.496L211.029 8.496L211.029 9.123L214.56 9.123L214.56 9.75L211.029 9.75ZM214.12 11.686Q214.098 12.544 214.054 13.402L215.484 13.402L215.484 14.095L214.01 14.095L213.933 15.107L215.286 15.107L215.286 15.8L213.867 15.8L213.856 15.888Q213.812 16.35 213.68 16.6085Q213.548 16.867 213.273 16.9825Q212.998 17.098 212.503 17.098Q211.557 17.098 210.611 17.032L210.468 16.306Q211.458 16.394 212.316 16.394Q212.657 16.394 212.811 16.2565Q212.965 16.119 213.031 15.8L206.651 15.8L206.86 14.095L205.639 14.095L205.639 13.402L206.948 13.402L207.157 11.686L214.12 11.686ZM209.621 12.379L207.949 12.379L207.806 13.402L211.249 13.402Q210.699 13.171 209.467 12.698L209.621 12.379ZM213.24 13.402L213.273 12.379L210.259 12.379Q211.029 12.665 211.612 12.918L211.403 13.402L213.24 13.402ZM207.696 14.095L207.553 15.107L211.029 15.107L210.809 15.019Q209.445 14.48 209.357 14.447L209.522 14.095L207.696 14.095ZM211.348 15.107L213.108 15.107Q213.174 14.403 213.196 14.095L210.171 14.095Q211.249 14.513 211.557 14.645L211.348 15.107Z">
</path>
</g>
</svg>
