<svg xmlns="http://www.w3.org/2000/svg" xmlns:xlink="http://www.w3.org/1999/xlink" width="20" height="20" viewBox="0 0 20 20" fill="none">
<circle cx="10" cy="10" r="10"   fill="#383838" fill-opacity="0.59">
</circle>
<path d="M16.0153 8.77165C15.9683 8.64208 15.8469 8.54718 15.7002 8.52638L12.3598 8.05043L10.8672 5.10062C10.8023 4.97251 10.6632 4.89039 10.5098 4.89001C10.5094 4.89001 10.509 4.89001 10.509 4.89001C10.3563 4.89001 10.2172 4.9714 10.1515 5.09915L8.64372 8.04587L5.2932 8.50886C5.14848 8.53185 5.02947 8.62675 4.984 8.75558C4.93813 8.88407 4.97411 9.02568 5.07613 9.12277L7.50351 11.4277L6.92424 14.6753C6.89973 14.8129 6.9626 14.952 7.08636 15.0326C7.20972 15.1133 7.37264 15.1221 7.50509 15.0545L10.4932 13.5373L13.4749 15.064C13.5346 15.0947 13.6006 15.11 13.6666 15.11C13.7465 15.11 13.826 15.0881 13.8936 15.0432C14.0174 14.9629 14.081 14.8242 14.0569 14.6863L13.4895 11.4371L15.9228 9.1421C16.026 9.04465 16.062 8.90122 16.0153 8.77165Z"   fill="#FFFFFF" >
</path>
</svg>
