<svg xmlns="http://www.w3.org/2000/svg" xmlns:xlink="http://www.w3.org/1999/xlink" width="20" height="20" viewBox="0 0 20 20" fill="none">
<circle cx="10" cy="10" r="10"   fill="#383838" fill-opacity="0.59">
</circle>
<path d="M9.86456 12.5332L9.8669 8.26657C9.86691 8.2404 9.86756 8.21422 9.86886 8.18807C9.87017 8.16192 9.87211 8.13581 9.87469 8.10975C9.87727 8.0837 9.88049 8.05771 9.88434 8.03182C9.8882 8.00592 9.89269 7.98013 9.89782 7.95445C9.90293 7.92878 9.90868 7.90323 9.91506 7.87783C9.92144 7.85244 9.92842 7.82722 9.93604 7.80216C9.94366 7.77711 9.95188 7.75225 9.96072 7.7276C9.96955 7.70295 9.97899 7.67854 9.98903 7.65435C9.99906 7.63017 10.0097 7.60624 10.0209 7.58257C10.0321 7.55891 10.0439 7.53554 10.0562 7.51245C10.0686 7.48936 10.0815 7.46659 10.095 7.44413C10.1085 7.42169 10.1225 7.39957 10.137 7.37781C10.1516 7.35605 10.1667 7.33466 10.1823 7.31363C10.1979 7.29261 10.214 7.27199 10.2306 7.25175C10.2473 7.23152 10.2644 7.2117 10.282 7.19231C10.2996 7.17292 10.3176 7.15398 10.3361 7.13546C10.3547 7.11696 10.3736 7.09892 10.3931 7.08135C10.4125 7.06377 10.4323 7.04668 10.4525 7.03008C10.4728 7.01349 10.4934 6.99739 10.5145 6.9818C10.5355 6.96621 10.5569 6.95115 10.5787 6.93661C10.6005 6.92207 10.6226 6.90808 10.6451 6.89463C10.6675 6.8812 10.6903 6.8683 10.7134 6.85596C10.7365 6.84363 10.7599 6.83188 10.7836 6.8207C10.8073 6.80951 10.8312 6.79892 10.8554 6.78891C10.8796 6.7789 10.904 6.7695 10.9287 6.76069C10.9534 6.75188 10.9782 6.74368 11.0033 6.73609C11.0283 6.72851 11.0536 6.72154 11.079 6.71518C11.1044 6.70885 11.1299 6.70312 11.1556 6.69803C11.1813 6.69294 11.2071 6.68848 11.233 6.68464C11.2589 6.68082 11.2849 6.67763 11.3109 6.67507C11.337 6.67253 11.3631 6.67061 11.3893 6.66933C11.4154 6.66807 11.4416 6.66743 11.4678 6.66745L12.6251 6.66808C12.6355 6.63872 12.6467 6.60969 12.6588 6.58097C12.6709 6.55227 12.6839 6.52394 12.6976 6.49598C12.7113 6.46803 12.7259 6.4405 12.7412 6.41339C12.7566 6.38629 12.7727 6.35966 12.7896 6.33349C12.8065 6.30733 12.8242 6.28169 12.8426 6.25655C12.861 6.23142 12.8801 6.20684 12.9 6.18283C12.9198 6.15882 12.9403 6.1354 12.9615 6.11258C12.9827 6.08976 13.0046 6.06759 13.0271 6.04604C13.0496 6.0245 13.0727 6.00364 13.0964 5.98345C13.1202 5.96326 13.1445 5.94378 13.1693 5.925C13.1942 5.90623 13.2196 5.88819 13.2455 5.87091C13.2714 5.85362 13.2978 5.8371 13.3247 5.82134C13.3515 5.8056 13.3789 5.79064 13.4066 5.77648C13.4344 5.76233 13.4625 5.749 13.491 5.73648C13.5195 5.72397 13.5484 5.71231 13.5776 5.70148C13.6068 5.69065 13.6363 5.68069 13.6661 5.67159C13.6959 5.66248 13.726 5.65426 13.7562 5.6469C13.7865 5.63955 13.8169 5.63309 13.8476 5.62752C13.8783 5.62195 13.909 5.61728 13.9399 5.6135C13.9709 5.60973 14.0019 5.60686 14.033 5.60489C14.0641 5.60293 14.0952 5.60188 14.1263 5.60173C14.1575 5.60158 14.1886 5.60235 14.2197 5.60401C14.2508 5.60568 14.2819 5.60826 14.3128 5.61174C14.3438 5.61523 14.3746 5.61961 14.4053 5.62489C14.436 5.63018 14.4665 5.63635 14.4969 5.64342C14.5272 5.65048 14.5573 5.65842 14.5872 5.66724C14.6171 5.67607 14.6466 5.68576 14.676 5.6963C14.7053 5.70685 14.7342 5.71826 14.7629 5.7305C14.7915 5.74274 14.8198 5.75581 14.8477 5.7697C14.8756 5.78359 14.903 5.79829 14.93 5.81378C14.9571 5.82928 14.9836 5.84556 15.0097 5.8626C15.0358 5.87964 15.0613 5.89742 15.0863 5.91596C15.1114 5.9345 15.1359 5.95376 15.1598 5.97373C15.1837 5.99369 15.207 6.01434 15.2297 6.03567C15.2524 6.057 15.2745 6.07897 15.2959 6.10158C15.3173 6.1242 15.338 6.14743 15.3581 6.17125C15.3782 6.19508 15.3975 6.21947 15.4162 6.24442C15.4348 6.26938 15.4527 6.29486 15.4699 6.32086C15.487 6.34687 15.5034 6.37334 15.519 6.4003C15.5346 6.42726 15.5494 6.45465 15.5634 6.48247C15.5774 6.51031 15.5906 6.53851 15.603 6.56711C15.6153 6.5957 15.6269 6.62463 15.6375 6.65389C15.6482 6.68317 15.658 6.71273 15.667 6.74256C15.6759 6.7724 15.684 6.80247 15.6912 6.83277C15.6984 6.86308 15.7047 6.89358 15.7101 6.92425C15.7155 6.95493 15.72 6.98575 15.7236 7.01669C15.7272 7.04763 15.7299 7.07864 15.7317 7.10974C15.7335 7.14084 15.7344 7.17197 15.7344 7.20312C15.7344 7.23427 15.7335 7.26539 15.7316 7.29649C15.7298 7.32759 15.7271 7.35861 15.7234 7.38954C15.7198 7.42048 15.7152 7.45128 15.7098 7.48195C15.7043 7.51263 15.698 7.54312 15.6908 7.57342C15.6835 7.60371 15.6754 7.63379 15.6665 7.66362C15.6575 7.69345 15.6476 7.72299 15.6369 7.75224C15.6262 7.7815 15.6147 7.81041 15.6023 7.83898C15.5899 7.86758 15.5767 7.89577 15.5626 7.92357C15.5486 7.95138 15.5338 7.97874 15.5181 8.00569C15.5025 8.03264 15.4861 8.05911 15.4689 8.08508C15.4517 8.11107 15.4338 8.13653 15.4151 8.16147C15.3965 8.18641 15.3771 8.21077 15.357 8.23457C15.3369 8.25839 15.3161 8.28159 15.2947 8.30418C15.2732 8.32677 15.2511 8.34871 15.2284 8.37002C15.2057 8.39133 15.1823 8.41194 15.1584 8.43188C15.1345 8.45183 15.11 8.47105 15.0849 8.48956C15.0599 8.50807 15.0343 8.52583 15.0082 8.54284C14.9821 8.55987 14.9556 8.57612 14.9285 8.59158C14.9015 8.60705 14.874 8.62171 14.8461 8.63557C14.8182 8.64943 14.7899 8.66246 14.7613 8.67467C14.7326 8.68689 14.7036 8.69827 14.6743 8.70877C14.645 8.7193 14.6154 8.72895 14.5855 8.73774C14.5556 8.74652 14.5255 8.75443 14.4951 8.76146C14.4648 8.7685 14.4343 8.77464 14.4036 8.77989C14.3729 8.78515 14.342 8.78949 14.3111 8.79294C14.2801 8.7964 14.2491 8.79893 14.218 8.80056C14.1869 8.80221 14.1557 8.80294 14.1246 8.80275C14.0934 8.80257 14.0623 8.80148 14.0312 8.79949C14.0001 8.79749 13.9691 8.79459 13.9382 8.79077C13.9073 8.78697 13.8765 8.78226 13.8459 8.77665C13.8152 8.77106 13.7848 8.76456 13.7545 8.75717C13.7242 8.74979 13.6942 8.74153 13.6645 8.73238C13.6347 8.72326 13.6052 8.71326 13.576 8.7024C13.5468 8.69155 13.5179 8.67984 13.4894 8.6673C13.4609 8.65476 13.4328 8.6414 13.405 8.6272C13.3773 8.61302 13.35 8.59804 13.3231 8.58226C13.2963 8.56648 13.2699 8.54993 13.244 8.5326C13.2181 8.51529 13.1928 8.49724 13.1679 8.47843C13.1431 8.45964 13.1188 8.44012 13.0951 8.4199C13.0714 8.39968 13.0483 8.3788 13.0258 8.35723C13.0034 8.33567 12.9815 8.31346 12.9604 8.29062C12.9392 8.26779 12.9187 8.24434 12.8989 8.2203C12.879 8.19627 12.8599 8.17168 12.8416 8.14652C12.8232 8.12137 12.8056 8.09571 12.7887 8.06953C12.7718 8.04335 12.7557 8.0167 12.7404 7.98957C12.7251 7.96246 12.7105 7.93491 12.6968 7.90693C12.6831 7.87897 12.6702 7.85063 12.6582 7.8219C12.6461 7.79318 12.6349 7.76413 12.6245 7.73475L11.4672 7.73412C11.4585 7.73412 11.4497 7.73432 11.441 7.73474C11.4323 7.73516 11.4236 7.73581 11.4149 7.73665C11.4062 7.73751 11.3976 7.73857 11.3889 7.73984C11.3803 7.74112 11.3717 7.74262 11.3631 7.74431C11.3546 7.74601 11.3461 7.74792 11.3376 7.75002C11.3291 7.75214 11.3207 7.75448 11.3124 7.757C11.304 7.75953 11.2957 7.76226 11.2875 7.7652C11.2793 7.76814 11.2711 7.77128 11.2631 7.77461C11.255 7.77794 11.247 7.78148 11.2391 7.7852C11.2312 7.78893 11.2234 7.79285 11.2157 7.79696C11.208 7.80107 11.2004 7.80536 11.193 7.80985C11.1855 7.81433 11.1781 7.81899 11.1708 7.82383C11.1636 7.82868 11.1564 7.8337 11.1494 7.8389C11.1424 7.84409 11.1355 7.84946 11.1288 7.855C11.122 7.86053 11.1154 7.86623 11.1089 7.87207C11.1025 7.87795 11.0962 7.88396 11.09 7.89011C11.0838 7.89629 11.0778 7.90261 11.0719 7.90907C11.0661 7.91554 11.0603 7.92214 11.0548 7.92888C11.0493 7.93563 11.0439 7.94251 11.0387 7.94951C11.0335 7.95652 11.0285 7.96366 11.0236 7.9709C11.0187 7.97816 11.0141 7.98554 11.0096 7.99301C11.0051 8.00051 11.0008 8.00809 10.9967 8.01578C10.9926 8.02347 10.9886 8.03127 10.9849 8.03916C10.9812 8.04705 10.9776 8.05503 10.9743 8.06309C10.9709 8.07115 10.9678 8.07928 10.9648 8.0875C10.9619 8.09572 10.9591 8.104 10.9566 8.11235C10.9541 8.1207 10.9517 8.12911 10.9496 8.13758C10.9475 8.14605 10.9456 8.15456 10.9439 8.16312C10.9422 8.17168 10.9407 8.18028 10.9394 8.18891C10.9381 8.19754 10.937 8.20621 10.9362 8.21488C10.9353 8.22358 10.9347 8.23228 10.9342 8.24099C10.9338 8.24972 10.9336 8.25843 10.9336 8.26715L10.9312 12.5338C10.9312 12.56 10.9306 12.5862 10.9292 12.6123C10.928 12.6385 10.926 12.6646 10.9234 12.6906C10.9209 12.7167 10.9176 12.7427 10.9138 12.7686C10.9099 12.7945 10.9054 12.8203 10.9003 12.8459C10.8952 12.8716 10.8894 12.8972 10.8831 12.9226C10.8767 12.948 10.8697 12.9732 10.8621 12.9982C10.8545 13.0233 10.8462 13.0482 10.8374 13.0728C10.8286 13.0974 10.8191 13.1219 10.8091 13.146C10.7991 13.1702 10.7885 13.1942 10.7772 13.2178C10.766 13.2415 10.7543 13.2649 10.7419 13.2879C10.7295 13.311 10.7166 13.3338 10.7031 13.3563C10.6897 13.3787 10.6757 13.4008 10.6611 13.4226C10.6465 13.4444 10.6315 13.4657 10.6158 13.4868C10.6002 13.5078 10.5841 13.5284 10.5675 13.5487C10.5509 13.5689 10.5338 13.5887 10.5162 13.6081C10.4986 13.6275 10.4805 13.6464 10.462 13.6649C10.4434 13.6834 10.4245 13.7015 10.4051 13.7191C10.3857 13.7366 10.3658 13.7537 10.3456 13.7703C10.3253 13.7869 10.3047 13.803 10.2836 13.8186C10.2626 13.8342 10.2412 13.8492 10.2194 13.8638C10.1976 13.8783 10.1755 13.8923 10.153 13.9058C10.1306 13.9192 10.1078 13.9321 10.0847 13.9444C10.0616 13.9568 10.0382 13.9685 10.0145 13.9797C9.99084 13.9909 9.96691 14.0015 9.94272 14.0115C9.91851 14.0215 9.89408 14.0309 9.86944 14.0397C9.84477 14.0485 9.81991 14.0567 9.79484 14.0643C9.76978 14.0719 9.74454 14.0789 9.71915 14.0852C9.69375 14.0916 9.6682 14.0973 9.64252 14.1024C9.61683 14.1075 9.59104 14.1119 9.56512 14.1158C9.53922 14.1196 9.51324 14.1228 9.48719 14.1253C9.46113 14.1279 9.43501 14.1298 9.40886 14.1311C9.3827 14.1323 9.35654 14.133 9.33035 14.133L7.73035 14.1321L7.72948 15.7321L5.06398 13.5973L7.73181 11.4654L7.73093 13.0654L9.33093 13.0663C9.33966 13.0663 9.34838 13.0661 9.35711 13.0657C9.36582 13.0652 9.37452 13.0646 9.38321 13.0637C9.3919 13.0629 9.40056 13.0618 9.4092 13.0606C9.41783 13.0593 9.42643 13.0578 9.435 13.0561C9.44355 13.0544 9.45207 13.0525 9.46053 13.0504C9.46901 13.0483 9.47741 13.0459 9.48577 13.0434C9.49411 13.0409 9.5024 13.0381 9.51064 13.0352C9.51885 13.0323 9.52699 13.0291 9.53506 13.0258C9.54312 13.0225 9.5511 13.0189 9.55899 13.0152C9.56689 13.0115 9.57469 13.0076 9.58239 13.0034C9.59008 12.9993 9.59767 12.995 9.60516 12.9906C9.61265 12.9861 9.62003 12.9814 9.62728 12.9766C9.63455 12.9717 9.64169 12.9667 9.6487 12.9615C9.65571 12.9563 9.66258 12.9509 9.66935 12.9454C9.67609 12.9399 9.68271 12.9342 9.68918 12.9283C9.69565 12.9225 9.70198 12.9165 9.70815 12.9103C9.71432 12.9041 9.72034 12.8978 9.72622 12.8913C9.73207 12.8849 9.73777 12.8783 9.74332 12.8715C9.74886 12.8648 9.75422 12.8579 9.75944 12.8509C9.76464 12.8439 9.76967 12.8368 9.77453 12.8295C9.77938 12.8222 9.78405 12.8149 9.78854 12.8074C9.79303 12.7999 9.79733 12.7923 9.80144 12.7846C9.80557 12.7769 9.8095 12.7691 9.81323 12.7612C9.81697 12.7534 9.82051 12.7454 9.82385 12.7373C9.82719 12.7293 9.83034 12.7211 9.83328 12.7129C9.83623 12.7047 9.83897 12.6964 9.8415 12.688C9.84405 12.6797 9.84639 12.6713 9.84851 12.6628C9.85063 12.6544 9.85255 12.6458 9.85426 12.6373C9.85597 12.6287 9.85747 12.6201 9.85876 12.6115C9.86003 12.6029 9.8611 12.5942 9.86196 12.5855C9.86283 12.5768 9.86347 12.5681 9.8639 12.5594C9.86433 12.5507 9.86456 12.542 9.86456 12.5332Z"   fill="#FFFFFF" >
</path>
</svg>
