<svg xmlns="http://www.w3.org/2000/svg" xmlns:xlink="http://www.w3.org/1999/xlink" width="18" height="17" viewBox="0 0 18 17" fill="none">
<path d="M10.8158 12.5939C9.11599 12.5757 7.75017 11.2558 7.76774 9.65215C7.78532 8.04843 9.18454 6.75683 10.8843 6.77509C12.5841 6.79335 13.95 8.11318 13.9306 9.71688C13.9113 11.3206 12.5138 12.6122 10.8158 12.5939ZM10.8773 7.27978C9.47282 7.26484 8.3197 8.33232 8.30388 9.65713C8.28806 10.9819 9.41833 12.0727 10.8211 12.0876C12.2238 12.1025 13.3804 11.0367 13.3963 9.7119C13.4103 8.38544 12.2818 7.29472 10.8773 7.27978Z"   fill="#808080" >
</path>
<path d="M16.1069 14.0748L2.89338 13.937C2.21662 13.9304 1.67346 13.4041 1.68049 12.7666L1.72971 8.50333C1.73146 8.34395 1.87033 8.21612 2.03908 8.21778C2.20783 8.21944 2.34318 8.35059 2.34142 8.50997L2.29221 12.7732C2.28869 13.0937 2.56115 13.356 2.90041 13.3593L16.1139 13.4971C16.4531 13.5004 16.7309 13.2431 16.7344 12.9227L16.7485 11.6676C15.8959 11.3837 15.3053 10.6051 15.3158 9.7335C15.3264 8.86358 15.9346 8.09659 16.7924 7.8293L16.8065 6.57422C16.81 6.25381 16.5375 5.99151 16.1983 5.98819L2.97599 5.85039C2.64201 5.84707 2.36779 6.10108 2.36428 6.41485L2.35197 7.46241C2.35021 7.62178 2.21135 7.74961 2.0426 7.74795C1.87385 7.74629 1.73849 7.61514 1.74025 7.45577L1.75256 6.40821C1.75959 5.77403 2.31154 5.26436 2.98303 5.271L16.2053 5.40879C16.8821 5.41543 17.4252 5.9417 17.4182 6.5792L17.3988 8.28751L17.1563 8.33399C16.4514 8.46846 15.9346 9.05782 15.9276 9.73848C15.9205 10.4191 16.4233 11.0185 17.1229 11.1679L17.3637 11.2193L17.3444 12.9276C17.3391 13.5685 16.7836 14.0815 16.1069 14.0748Z"   fill="#808080" >
</path>
<path d="M1.18649 7.66827C1.04763 7.66661 0.922822 7.5753 0.891181 7.44082L0.653877 6.41651C0.511494 5.79727 0.928095 5.18301 1.58376 5.04854L14.5037 2.38564C15.1646 2.24951 15.8185 2.64629 15.9627 3.27051L16.3476 4.94063L16.1226 5.03692C15.8695 5.14483 15.6515 5.31748 15.4933 5.53496C15.3984 5.66612 15.2068 5.69932 15.0679 5.60967C14.9291 5.52002 14.8939 5.33907 14.9888 5.20791C15.1629 4.96885 15.3879 4.76963 15.648 4.62022L15.365 3.39502C15.2929 3.08291 14.9642 2.88369 14.6338 2.95176L1.71384 5.61465C1.38864 5.68106 1.18122 5.98653 1.25153 6.29532L1.48884 7.31797C1.524 7.47403 1.42028 7.62842 1.25505 7.66162C1.2322 7.66661 1.20935 7.66993 1.1865 7.66827L1.18649 7.66827Z"   fill="#808080" >
</path>
<path d="M4.76906 7.31298C4.60031 7.31132 4.46496 7.18017 4.46672 7.02079L4.47199 6.49784C4.47375 6.33847 4.61261 6.21064 4.78136 6.2123C4.95011 6.21396 5.08546 6.34511 5.08371 6.50448L5.07843 7.02743C5.07668 7.18681 4.93781 7.31464 4.76906 7.31298ZM4.75148 8.74237C4.58273 8.74072 4.44738 8.60956 4.44914 8.45019L4.45441 7.92724C4.45617 7.76786 4.59504 7.64003 4.76379 7.64169C4.93254 7.64335 5.06789 7.7745 5.06613 7.93388L5.06086 8.45683C5.0591 8.6162 4.92023 8.74404 4.75148 8.74237ZM4.73566 10.1734C4.56691 10.1718 4.43156 10.0406 4.43332 9.88124L4.43859 9.35829C4.44035 9.19892 4.57922 9.07109 4.74796 9.07275C4.91672 9.07441 5.05207 9.20556 5.05031 9.36493L5.04504 9.88788C5.04328 10.0473 4.90441 10.1751 4.73566 10.1734ZM4.71808 11.6045C4.54933 11.6028 4.41398 11.4717 4.41574 11.3123L4.42101 10.7893C4.42277 10.63 4.56164 10.5021 4.73039 10.5038C4.89914 10.5055 5.03449 10.6366 5.03273 10.796L5.02746 11.3189C5.0257 11.4783 4.88683 11.6061 4.71808 11.6045ZM4.70226 13.0355C4.53351 13.0339 4.39816 12.9027 4.39992 12.7434L4.40519 12.2204C4.40695 12.061 4.54582 11.9332 4.71457 11.9349C4.88332 11.9365 5.01867 12.0677 5.01691 12.227L5.01164 12.75C5.00988 12.9094 4.87101 13.0372 4.70226 13.0355Z"   fill="#808080" >
</path>
<path d="M10.756 9.39316C10.6786 9.39316 10.6048 9.35498 10.5626 9.28857L10.0106 8.43027C9.9456 8.32734 9.979 8.19453 10.088 8.1331C10.197 8.07168 10.3376 8.10322 10.4026 8.20615L10.9546 9.06445C11.0196 9.16738 10.9862 9.30019 10.8772 9.36162C10.8386 9.3832 10.7964 9.39316 10.756 9.39316Z"   fill="#808080" >
</path>
<path d="M10.9319 9.39481C10.8897 9.39481 10.8493 9.38319 10.8106 9.36161C10.7034 9.29687 10.6718 9.16405 10.7403 9.06278L11.3116 8.2161C11.3802 8.11483 11.5208 8.08495 11.628 8.1497C11.7353 8.21444 11.7669 8.34726 11.6983 8.44853L11.1271 9.29521C11.0849 9.35995 11.0093 9.39647 10.9319 9.39481Z"   fill="#808080" >
</path>
<path d="M11.6789 9.71356L10.0195 9.69696C9.89294 9.6953 9.79099 9.59735 9.79275 9.47782C9.79451 9.35829 9.89822 9.262 10.0248 9.26366L11.6841 9.28026C11.8107 9.28192 11.9127 9.37987 11.9109 9.4994C11.9091 9.61894 11.8054 9.71523 11.6789 9.71356ZM11.6701 10.5436L10.0107 10.527C9.88415 10.5254 9.7822 10.4274 9.78396 10.3079C9.78572 10.1884 9.88943 10.0921 10.016 10.0937L11.6754 10.1103C11.8019 10.112 11.9039 10.21 11.9021 10.3295C11.9004 10.449 11.7966 10.5453 11.6701 10.5436Z"   fill="#808080" >
</path>
<path d="M10.8318 11.2608C10.7052 11.2592 10.6032 11.1612 10.605 11.0417L10.6243 9.3832C10.6261 9.26367 10.7298 9.16738 10.8564 9.16904C10.9829 9.1707 11.0849 9.26865 11.0831 9.38818L11.0638 11.0467C11.062 11.1662 10.9583 11.2625 10.8318 11.2608Z"   fill="#808080" >
</path>
</svg>
