<svg xmlns="http://www.w3.org/2000/svg" xmlns:xlink="http://www.w3.org/1999/xlink" width="20" height="20" viewBox="0 0 20 20" fill="none">
<circle cx="10" cy="10" r="10"   fill="#383838" fill-opacity="0.59">
</circle>
<path d="M5.45312 11.25C4.76277 11.25 4.20312 10.6904 4.20312 10C4.20312 9.30964 4.76277 8.75 5.45312 8.75C6.14348 8.75 6.70312 9.30964 6.70312 10C6.70312 10.6904 6.14348 11.25 5.45312 11.25ZM10 11.25C9.30964 11.25 8.75 10.6904 8.75 10C8.75 9.30964 9.30964 8.75 10 8.75C10.6904 8.75 11.25 9.30964 11.25 10C11.25 10.6904 10.6904 11.25 10 11.25ZM14.5469 11.25C13.8565 11.25 13.2969 10.6904 13.2969 10C13.2969 9.30964 13.8565 8.75 14.5469 8.75C15.2372 8.75 15.7969 9.30964 15.7969 10C15.7969 10.6904 15.2372 11.25 14.5469 11.25Z"   fill="#FFFFFF" >
</path>
</svg>
