<svg xmlns="http://www.w3.org/2000/svg" xmlns:xlink="http://www.w3.org/1999/xlink" width="29" height="12" viewBox="0 0 29 12" fill="none">
<path d="M0 0L29 0L29 12L0 12L0 0Z"   fill="#A72D22" fill-opacity="0.32">
</path>
<path d="M8.89284 3.7182C8.89284 3.69327 8.91778 3.69327 8.89284 3.66833L8.86791 3.64339C8.84297 3.64339 7.29683 4.29177 7.4714 5.73815C7.04746 5.36409 5.05245 3.36907 6.27439 1.04988L6.27439 1C6.24945 1.02494 6.24945 1.02494 6.22452 1.02494C6.19958 1.02494 5.57614 1.29925 5.07738 1.97257C4.62851 2.59601 4.20457 3.69326 4.77813 5.38902C4.97764 6.18703 4.60356 6.83541 4.37913 7.10973C4.45394 6.83541 4.50382 6.53616 4.47888 6.2369C4.45394 5.68828 4.27938 4.96509 3.4315 4.46634L3.38162 4.46634C3.35669 4.46634 3.35669 4.49127 3.35669 4.51621C3.35669 4.54114 3.68088 5.93766 3.13224 6.61098C2.65842 7.18454 2.20955 8.15711 2.45893 9.0798C2.65842 9.85287 3.3068 10.4264 4.40407 10.8005C4.67838 10.8753 4.95269 10.9501 5.22701 11C5.25195 11 5.25195 11 5.27688 10.9751C5.27688 10.9501 5.27688 10.9252 5.25195 10.9252C4.70332 10.6758 4.12976 10.1771 4.55369 9.15461C4.95269 8.2818 4.87788 7.83292 4.80307 7.63342C5.00257 7.7581 5.42651 8.05735 5.32676 8.60599C5.32676 8.63092 5.32676 8.63092 5.3517 8.65586L5.40157 8.65586C5.42651 8.65586 6.64846 7.60848 6.09982 6.36159C6.37414 6.51122 7.12227 7.08478 6.6734 8.38154C6.52377 8.93017 6.92277 9.32918 6.9477 9.35411C6.97265 9.37905 6.97265 9.37905 6.99759 9.35411C7.02252 9.35411 7.02252 9.32918 7.02252 9.30424C6.99759 9.27931 6.72327 8.4813 7.34671 8.03242C7.32178 8.23192 7.24696 8.75561 7.49634 9.02992C7.69584 9.2793 7.89534 9.6783 7.84547 10.0773C7.79558 10.3516 7.64597 10.601 7.34671 10.7756C7.32178 10.7756 7.32178 10.8005 7.32178 10.8254C7.32178 10.8504 7.34671 10.8504 7.37165 10.8504C8.0699 10.6259 8.9926 10.1521 9.3916 9.2793C9.69085 8.63092 9.64097 7.85785 9.29184 6.9601C8.16966 4.51621 8.86791 3.74314 8.89284 3.7182Z"   fill="#A72D22" >
</path>
</svg>
