<svg xmlns="http://www.w3.org/2000/svg" xmlns:xlink="http://www.w3.org/1999/xlink" width="355" height="30" viewBox="0 0 355 30" fill="none">
<rect  x="0.5" y="0.5" width="64" height="29" rx="5"    fill="#F5F5F5" >
</rect>
<path   fill="rgba(166, 166, 166, 1)"  d="M5.5 0L59.5 0C62.5376 0 65 2.46243 65 5.5L65 24.5C65 27.5376 62.5376 30 59.5 30L5.5 30C2.46243 30 0 27.5376 0 24.5L0 5.5C0 2.46243 2.46243 0 5.5 0ZM5.5 1C3.01472 1 1 3.01472 1 5.5L1 24.5C1 26.9853 3.01472 29 5.5 29L59.5 29C61.9853 29 64 26.9853 64 24.5L64 5.5C64 3.01472 61.9853 1 59.5 1L5.5 1Z">
</path>
<rect  x="82.5" y="0.5" width="62" height="29" rx="5"    fill="#F5F5F5" >
</rect>
<path   fill="rgba(166, 166, 166, 1)"  d="M87.5 0L139.5 0C142.538 0 145 2.46243 145 5.5L145 24.5C145 27.5376 142.538 30 139.5 30L87.5 30C84.4624 30 82 27.5376 82 24.5L82 5.5C82 2.46243 84.4624 0 87.5 0ZM87.5 1C85.0147 1 83 3.01472 83 5.5L83 24.5C83 26.9853 85.0147 29 87.5 29L139.5 29C141.985 29 144 26.9853 144 24.5L144 5.5C144 3.01472 141.985 1 139.5 1L87.5 1Z">
</path>
<g >
<path     fill="#000000"  d="M15.79 12.344Q15.44 11.868 14.817 11.063Q14.194 10.258 13.718 9.684L15.132 8.704Q15.818 9.488 17.218 11.308L15.79 12.344ZM25.982 9.502L25.982 11.28L23.56 11.28L23.56 19.512Q23.56 20.296 23.329 20.737Q23.098 21.178 22.587 21.367Q22.076 21.556 21.194 21.556Q20.536 21.556 19.696 21.486L19.332 19.722Q20.34 19.848 21.04 19.848Q21.46 19.848 21.607 19.659Q21.754 19.47 21.754 18.98L21.754 11.28L17.96 11.28L17.96 9.502L25.982 9.502ZM16.462 18.28L18.086 17.09L18.702 18.91L18.352 19.148Q16.84 20.17 16.294 20.604Q15.762 20.996 15.482 21.276L14.39 19.862Q14.558 19.68 14.621 19.491Q14.684 19.302 14.684 18.994L14.684 14.808L13.032 14.808L13.032 13.002L16.462 13.002L16.462 18.28ZM34.2 8.494Q35.18 9.978 36.601 11.126Q38.022 12.274 40.15 13.338L39.268 14.92Q37.434 13.982 35.859 12.764Q34.284 11.546 33.5 10.412Q32.716 11.504 31.218 12.666Q29.72 13.828 27.774 14.892L26.836 13.324Q28.936 12.26 30.413 11.084Q31.89 9.908 32.856 8.494L34.2 8.494ZM33.794 15.466L38.232 15.466L38.232 17.118Q37.448 18.252 36.335 19.575Q35.222 20.898 34.256 21.794L32.548 20.828Q33.43 20.03 34.319 19.015Q35.208 18 35.824 17.146L28.376 17.146L28.376 15.466L33.668 15.466Q33.332 14.976 32.772 14.269Q32.212 13.562 31.792 13.086L33.038 12.134Q33.682 12.848 35.012 14.528L33.794 15.466ZM48.648 15.116Q49.404 16.754 50.692 17.944Q51.98 19.134 53.954 19.974L53.03 21.71Q50.916 20.576 49.607 19.358Q48.298 18.14 47.556 16.586Q46.184 19.582 42.054 21.682L41.06 20.072Q43.342 18.994 44.588 17.811Q45.834 16.628 46.226 15.116L41.494 15.116L41.494 13.464L46.45 13.464Q46.52 12.26 46.534 11.084L42.194 11.084L42.194 9.432L52.722 9.432L52.722 11.084L48.312 11.084Q48.298 12.26 48.228 13.464L53.436 13.464L53.436 15.116L48.648 15.116Z">
</path>
</g>
<g >
<path     fill="#000000"  d="M95.79 12.344Q95.44 11.868 94.817 11.063Q94.194 10.258 93.718 9.684L95.132 8.704Q95.818 9.488 97.218 11.308L95.79 12.344ZM105.982 9.502L105.982 11.28L103.56 11.28L103.56 19.512Q103.56 20.296 103.329 20.737Q103.098 21.178 102.587 21.367Q102.076 21.556 101.194 21.556Q100.536 21.556 99.696 21.486L99.332 19.722Q100.34 19.848 101.04 19.848Q101.46 19.848 101.607 19.659Q101.754 19.47 101.754 18.98L101.754 11.28L97.96 11.28L97.96 9.502L105.982 9.502ZM96.462 18.28L98.086 17.09L98.702 18.91L98.352 19.148Q96.84 20.17 96.294 20.604Q95.762 20.996 95.482 21.276L94.39 19.862Q94.558 19.68 94.621 19.491Q94.684 19.302 94.684 18.994L94.684 14.808L93.032 14.808L93.032 13.002L96.462 13.002L96.462 18.28ZM119.352 9.236L119.352 19.694Q119.352 20.478 119.149 20.877Q118.946 21.276 118.491 21.423Q118.036 21.57 117.168 21.57Q116.65 21.57 115.992 21.5L115.67 19.876Q116.524 19.974 117.126 19.974Q117.462 19.974 117.588 19.82Q117.714 19.666 117.714 19.26L117.714 17.58L114.942 17.58Q114.76 18.84 114.347 19.785Q113.934 20.73 113.15 21.822L111.652 20.744Q112.464 19.736 112.821 18.973Q113.178 18.21 113.297 17.153Q113.416 16.096 113.416 14.01L113.416 9.236L119.352 9.236ZM107.55 9.516L112.24 9.516L112.24 19.806L107.55 19.806L107.55 9.516ZM117.714 12.708L117.714 10.888L115.096 10.888L115.096 12.708L117.714 12.708ZM110.728 13.702L110.728 11.168L109.062 11.168L109.062 13.702L110.728 13.702ZM117.714 15.998L117.714 14.276L115.096 14.276L115.096 14.836Q115.096 15.27 115.068 15.998L117.714 15.998ZM109.062 15.326L109.062 18.168L110.728 18.168L110.728 15.326L109.062 15.326ZM128.648 15.116Q129.404 16.754 130.692 17.944Q131.98 19.134 133.954 19.974L133.03 21.71Q130.916 20.576 129.607 19.358Q128.298 18.14 127.556 16.586Q126.184 19.582 122.054 21.682L121.06 20.072Q123.342 18.994 124.588 17.811Q125.834 16.628 126.226 15.116L121.494 15.116L121.494 13.464L126.45 13.464Q126.52 12.26 126.534 11.084L122.194 11.084L122.194 9.432L132.722 9.432L132.722 11.084L128.312 11.084Q128.298 12.26 128.228 13.464L133.436 13.464L133.436 15.116L128.648 15.116Z">
</path>
</g>
<rect  x="162.5" y="0.5" width="81" height="29" rx="5"    fill="#F5F5F5" >
</rect>
<path   fill="rgba(166, 166, 166, 1)"  d="M167.5 0L238.5 0C241.538 0 244 2.46243 244 5.5L244 24.5C244 27.5376 241.538 30 238.5 30L167.5 30C164.462 30 162 27.5376 162 24.5L162 5.5C162 2.46243 164.462 0 167.5 0ZM167.5 1C165.015 1 163 3.01472 163 5.5L163 24.5C163 26.9853 165.015 29 167.5 29L238.5 29C240.985 29 243 26.9853 243 24.5L243 5.5C243 3.01472 240.985 1 238.5 1L167.5 1Z">
</path>
<g >
<path     fill="#000000"  d="M176.79 12.344Q176.44 11.868 175.817 11.063Q175.194 10.258 174.718 9.684L176.132 8.704Q176.818 9.488 178.218 11.308L176.79 12.344ZM186.982 9.502L186.982 11.28L184.56 11.28L184.56 19.512Q184.56 20.296 184.329 20.737Q184.098 21.178 183.587 21.367Q183.076 21.556 182.194 21.556Q181.536 21.556 180.696 21.486L180.332 19.722Q181.34 19.848 182.04 19.848Q182.46 19.848 182.607 19.659Q182.754 19.47 182.754 18.98L182.754 11.28L178.96 11.28L178.96 9.502L186.982 9.502ZM177.462 18.28L179.086 17.09L179.702 18.91L179.352 19.148Q177.84 20.17 177.294 20.604Q176.762 20.996 176.482 21.276L175.39 19.862Q175.558 19.68 175.621 19.491Q175.684 19.302 175.684 18.994L175.684 14.808L174.032 14.808L174.032 13.002L177.462 13.002L177.462 18.28ZM192.848 12.008L188.256 12.008L188.256 10.23L195.13 10.23L195.13 11.49L191.588 20.492L189.376 20.492L192.848 12.008ZM207.688 9.166L207.688 19.498Q207.688 20.366 207.485 20.807Q207.282 21.248 206.792 21.416Q206.302 21.584 205.364 21.584Q204.552 21.584 203.684 21.514L203.39 19.876Q204.51 19.988 205.098 19.988Q205.49 19.988 205.679 19.911Q205.868 19.834 205.931 19.666Q205.994 19.498 205.994 19.162L205.994 17.566L200.044 17.566Q199.862 18.812 199.414 19.785Q198.966 20.758 198.112 21.864L196.586 20.828Q197.468 19.778 197.86 18.994Q198.252 18.21 198.392 17.202Q198.532 16.194 198.532 14.332L198.532 9.166L207.688 9.166ZM205.994 12.638L205.994 10.79L200.226 10.79L200.226 12.638L205.994 12.638ZM205.994 15.984L205.994 14.22L200.226 14.22L200.226 14.528Q200.226 15.088 200.198 15.984L205.994 15.984ZM215.836 15.144Q216.69 15.466 217.138 16.089Q217.586 16.712 217.586 17.636Q217.586 18.588 217.103 19.267Q216.62 19.946 215.801 20.303Q214.982 20.66 213.988 20.66Q212.714 20.66 211.769 20.058Q210.824 19.456 210.432 18.308L212.042 17.384Q212.266 18.112 212.784 18.483Q213.302 18.854 213.946 18.854Q214.576 18.854 215.003 18.49Q215.43 18.126 215.43 17.482Q215.43 16.068 213.274 16.068L212.896 16.068L212.896 14.388L213.442 14.388Q214.24 14.388 214.667 14.003Q215.094 13.618 215.094 13.044Q215.094 12.512 214.744 12.19Q214.394 11.868 213.834 11.868Q213.232 11.868 212.791 12.253Q212.35 12.638 212.112 13.352L210.572 12.47Q210.936 11.294 211.846 10.671Q212.756 10.048 214.002 10.048Q214.968 10.048 215.703 10.405Q216.438 10.762 216.844 11.406Q217.25 12.05 217.25 12.89Q217.25 13.674 216.893 14.248Q216.536 14.822 215.836 15.144ZM220.4 21.598L220.4 9.418L230.354 9.418L230.354 21.584L228.604 21.584L228.604 20.744L222.15 20.744L222.15 21.598L220.4 21.598ZM228.604 14.108L228.604 11.154L222.15 11.154L222.15 14.108L228.604 14.108ZM222.15 15.844L222.15 19.008L228.604 19.008L228.604 15.844L222.15 15.844Z">
</path>
</g>
<rect  x="262.5" y="0.5" width="92" height="29" rx="5"    fill="#F5F5F5" >
</rect>
<path   fill="rgba(166, 166, 166, 1)"  d="M267.5 0L349.5 0C352.538 0 355 2.46243 355 5.5L355 24.5C355 27.5376 352.538 30 349.5 30L267.5 30C264.462 30 262 27.5376 262 24.5L262 5.5C262 2.46243 264.462 0 267.5 0ZM267.5 1C265.015 1 263 3.01472 263 5.5L263 24.5C263 26.9853 265.015 29 267.5 29L349.5 29C351.985 29 354 26.9853 354 24.5L354 5.5C354 3.01472 351.985 1 349.5 1L267.5 1Z">
</path>
<g >
<path     fill="#000000"  d="M286.562 21.668Q283.958 21.5 282.25 21.22Q280.542 20.94 279.184 20.38Q278.456 20.828 277.371 21.185Q276.286 21.542 274.76 21.864L274.13 20.324Q276.328 19.848 277.406 19.428Q276.664 18.952 275.796 18.154L276.692 17.314L275.32 17.314L275.32 11.49L279.66 11.49L279.66 10.678L274.55 10.678L274.55 9.152L286.534 9.152L286.534 10.678L281.382 10.678L281.382 11.49L285.75 11.49L285.75 17.314L281.27 17.314Q281.102 18.42 280.528 19.218Q281.606 19.554 283.132 19.736Q284.658 19.918 286.926 20.002L286.562 21.668ZM279.66 13.772L279.66 12.89L277 12.89L277 13.772L279.66 13.772ZM284.098 13.772L284.098 12.89L281.382 12.89L281.382 13.772L284.098 13.772ZM279.66 15.018L277 15.018L277 15.886L279.66 15.886L279.66 15.746L279.66 15.018ZM281.382 15.886L284.098 15.886L284.098 15.018L281.382 15.018L281.382 15.774L281.382 15.886ZM277.196 17.314Q278.036 18.07 278.89 18.546Q279.352 18.07 279.52 17.314L277.196 17.314ZM300.674 14.934L300.674 16.404Q299.344 18 297.93 19.008Q296.516 20.016 294.444 20.674Q292.372 21.332 289.208 21.696L288.41 20.212Q291.294 19.932 293.17 19.428Q295.046 18.924 296.222 18.196Q297.398 17.468 298.308 16.404L294.36 16.404Q293.73 16.838 293.632 16.908L295.298 17.846L294.136 19.05Q293.254 18.448 292.176 17.79Q291.014 18.406 289.824 18.924L288.956 17.538Q290.482 16.964 291.868 16.18Q293.254 15.396 294.332 14.514Q292.008 15.41 289.11 16.012L288.382 14.584Q291.392 14.038 293.695 13.184Q295.998 12.33 297.538 11.252L293.128 11.252L292.764 11.518Q293.114 11.714 294.136 12.26L293.03 13.394Q292.12 12.848 291.336 12.414Q290.51 12.89 289.67 13.282L288.746 11.966Q290.272 11.252 291.623 10.335Q292.974 9.418 293.912 8.494L295.564 9.04Q295.298 9.362 294.906 9.754L300.016 9.754L300.016 11.252Q298.28 12.736 295.97 13.828L296.838 14.206L296.11 14.934L300.674 14.934ZM303.572 21.598L303.572 9.418L313.526 9.418L313.526 21.584L311.776 21.584L311.776 20.744L305.322 20.744L305.322 21.598L303.572 21.598ZM311.776 14.108L311.776 11.154L305.322 11.154L305.322 14.108L311.776 14.108ZM305.322 15.844L305.322 19.008L311.776 19.008L311.776 15.844L305.322 15.844ZM321.31 18.196L322.514 19.918L321.268 20.786L320.848 20.156Q320.47 19.568 320.008 18.938L321.128 18.196L318.076 18.196L319.266 19.008Q318.188 20.646 317.152 21.654L315.934 20.548Q317.068 19.54 317.936 18.196L316.018 18.196L316.018 16.768L317.166 16.768L317.166 11.462L316.34 11.462L316.34 10.034L317.166 10.034L317.166 8.872L318.65 8.872L318.65 10.034L320.75 10.034L320.75 8.872L322.22 8.872L322.22 10.034L323.004 10.034L323.004 11.462L322.22 11.462L322.22 16.768L322.948 16.768L322.948 18.196L321.31 18.196ZM323.522 9.264L328.366 9.264L328.366 19.652Q328.366 20.73 327.988 21.15Q327.61 21.57 326.63 21.57Q326 21.57 325.384 21.486L325.062 19.904Q325.818 20.03 326.35 20.03Q326.672 20.03 326.791 19.841Q326.91 19.652 326.91 19.26L326.91 17.496L324.908 17.496Q324.796 18.798 324.46 19.701Q324.124 20.604 323.382 21.766L321.94 20.786Q322.696 19.764 323.018 19.008Q323.34 18.252 323.431 17.237Q323.522 16.222 323.522 14.094L323.522 9.264ZM326.91 12.652L326.91 10.888L324.992 10.888L324.992 12.652L326.91 12.652ZM320.75 12.33L320.75 11.462L318.65 11.462L318.65 12.33L320.75 12.33ZM320.75 13.674L318.65 13.674L318.65 14.584L320.75 14.584L320.75 13.674ZM326.91 15.956L326.91 14.164L324.992 14.164L324.992 14.892Q324.992 15.62 324.978 15.956L326.91 15.956ZM320.75 15.9L318.65 15.9L318.65 16.768L320.75 16.768L320.75 15.9Z">
</path>
</g>
<path d="M336.389 23.0556C336.122 23.0556 335.944 22.9667 335.767 22.7889C335.411 22.4333 335.5 21.9 335.856 21.5444L341.544 16.3889C341.722 16.2111 341.811 16.0333 341.811 15.8555C341.811 15.6778 341.722 15.5 341.544 15.3222L335.767 10.4333C335.411 10.0778 335.322 9.54444 335.678 9.18889C336.033 8.83334 336.567 8.74445 336.922 9.1L342.611 13.9889C343.144 14.4333 343.5 15.1444 343.5 15.8556C343.5 16.5667 343.233 17.1889 342.7 17.7222L337.011 22.8778C336.833 22.9667 336.567 23.0556 336.389 23.0556Z"   fill="#000000" >
</path>
</svg>
