<svg xmlns="http://www.w3.org/2000/svg" xmlns:xlink="http://www.w3.org/1999/xlink" width="28" height="28" viewBox="0 0 28 28" fill="none">
<circle cx="14" cy="14" r="14"   fill="#A72D22" >
</circle>
<path d="M14.3125 4.625C10.3488 4.625 7.125 7.84375 7.125 11.8C7.125 13.2687 7.5675 14.6825 8.395 15.8719C8.43625 15.9431 8.47812 16.0119 8.5275 16.0787L13.7738 22.9825C13.9163 23.1406 14.1075 23.2281 14.3125 23.2281C14.515 23.2281 14.7075 23.14 14.8744 22.9531L20.0963 16.0781C20.1475 16.0094 20.1919 15.9344 20.2156 15.8906C20.2416 15.8534 20.2672 15.816 20.2925 15.7783C20.3178 15.7406 20.3427 15.7027 20.3672 15.6646C20.3918 15.6264 20.4159 15.588 20.4397 15.5494C20.4635 15.5108 20.487 15.472 20.51 15.4329C20.5331 15.3938 20.5558 15.3545 20.5781 15.3151C20.6005 15.2756 20.6224 15.2359 20.6439 15.1959C20.6655 15.156 20.6867 15.1159 20.7075 15.0756C20.7283 15.0353 20.7487 14.9947 20.7687 14.954C20.7887 14.9133 20.8083 14.8724 20.8276 14.8313C20.8468 14.7903 20.8656 14.749 20.8841 14.7076C20.9025 14.6661 20.9206 14.6245 20.9382 14.5827C20.9559 14.5409 20.9731 14.499 20.99 14.4568C21.0069 14.4147 21.0233 14.3724 21.0394 14.33C21.0554 14.2876 21.071 14.245 21.0863 14.2023C21.1015 14.1595 21.1163 14.1167 21.1307 14.0736C21.1452 14.0306 21.1592 13.9875 21.1728 13.9442C21.1863 13.9009 21.1995 13.8575 21.2123 13.814C21.225 13.7704 21.2374 13.7268 21.2493 13.683C21.2612 13.6392 21.2728 13.5954 21.2838 13.5514C21.2949 13.5074 21.3056 13.4633 21.3158 13.4191C21.3261 13.3749 21.3359 13.3306 21.3453 13.2862C21.3547 13.2419 21.3637 13.1974 21.3722 13.1528C21.3808 13.1083 21.3889 13.0636 21.3966 13.0189C21.4043 12.9742 21.4116 12.9295 21.4184 12.8846C21.4253 12.8398 21.4317 12.7949 21.4377 12.7499C21.4437 12.7049 21.4492 12.6599 21.4544 12.6148C21.4595 12.5698 21.4642 12.5246 21.4684 12.4795C21.4727 12.4343 21.4765 12.3891 21.4799 12.3439C21.4833 12.2986 21.4863 12.2534 21.4888 12.2081C21.4914 12.1628 21.4935 12.1175 21.4952 12.0721C21.4968 12.0268 21.4981 11.9814 21.4989 11.9361C21.4997 11.8907 21.5001 11.8454 21.5 11.8C21.5 7.84375 18.2756 4.625 14.3125 4.625ZM14.3125 14.3656C14.2705 14.3656 14.2286 14.3645 14.1867 14.3625C14.1447 14.3604 14.1029 14.3573 14.0612 14.3532C14.0194 14.3491 13.9777 14.3439 13.9362 14.3377C13.8947 14.3316 13.8534 14.3244 13.8122 14.3162C13.7711 14.308 13.7301 14.2988 13.6894 14.2886C13.6487 14.2784 13.6083 14.2672 13.5681 14.255C13.528 14.2428 13.4881 14.2297 13.4486 14.2155C13.4091 14.2014 13.3699 14.1863 13.3312 14.1703C13.2924 14.1542 13.254 14.1372 13.2161 14.1193C13.1781 14.1013 13.1406 14.0825 13.1036 14.0627C13.0666 14.043 13.0301 14.0223 12.9941 14.0007C12.9581 13.9792 12.9226 13.9568 12.8877 13.9335C12.8528 13.9102 12.8185 13.886 12.7848 13.861C12.7511 13.8361 12.718 13.8103 12.6855 13.7836C12.653 13.757 12.6213 13.7297 12.5901 13.7015C12.559 13.6734 12.5286 13.6445 12.4989 13.6148C12.4692 13.5852 12.4403 13.5548 12.412 13.5237C12.3838 13.4927 12.3564 13.4609 12.3297 13.4285C12.3031 13.3961 12.2772 13.363 12.2522 13.3294C12.2271 13.2957 12.2029 13.2614 12.1796 13.2265C12.1562 13.1917 12.1338 13.1562 12.1121 13.1203C12.0905 13.0843 12.0698 13.0478 12.0499 13.0108C12.0301 12.9739 12.0112 12.9364 11.9932 12.8985C11.9752 12.8606 11.9581 12.8222 11.942 12.7835C11.9259 12.7447 11.9107 12.7056 11.8965 12.6661C11.8823 12.6266 11.8691 12.5868 11.8569 12.5467C11.8446 12.5066 11.8334 12.4661 11.8231 12.4254C11.8128 12.3848 11.8036 12.3438 11.7953 12.3027C11.787 12.2615 11.7798 12.2202 11.7735 12.1787C11.7673 12.1372 11.7621 12.0956 11.7579 12.0538C11.7537 12.0121 11.7505 11.9702 11.7484 11.9283C11.7462 11.8864 11.7451 11.8445 11.745 11.8025C11.7461 11.7612 11.7482 11.72 11.7513 11.6788C11.7544 11.6376 11.7585 11.5965 11.7636 11.5555C11.7687 11.5145 11.7748 11.4737 11.7819 11.433C11.7889 11.3923 11.797 11.3518 11.806 11.3115C11.815 11.2712 11.8249 11.2311 11.8359 11.1912C11.8469 11.1514 11.8588 11.1119 11.8716 11.0726C11.8845 11.0334 11.8982 10.9945 11.913 10.9559C11.9277 10.9173 11.9434 10.8791 11.96 10.8412C11.9765 10.8034 11.994 10.766 12.0124 10.729C12.0308 10.692 12.05 10.6555 12.0702 10.6194C12.0903 10.5834 12.1113 10.5478 12.1332 10.5128C12.155 10.4777 12.1777 10.4432 12.2013 10.4093C12.2248 10.3753 12.2491 10.3419 12.2743 10.3092C12.2994 10.2764 12.3253 10.2442 12.352 10.2127C12.3787 10.1812 12.4061 10.1503 12.4343 10.1201C12.4625 10.0899 12.4913 10.0604 12.521 10.0316C12.5505 10.0028 12.5808 9.97469 12.6118 9.94734C12.6427 9.91998 12.6743 9.8934 12.7066 9.86758C12.7388 9.84176 12.7716 9.81672 12.8051 9.79248C12.8385 9.76824 12.8725 9.74482 12.9071 9.72223C12.9417 9.69963 12.9768 9.67787 13.0124 9.65697C13.048 9.63605 13.0842 9.61601 13.1207 9.59685C13.1573 9.57769 13.1944 9.55943 13.2319 9.54205C13.2693 9.52469 13.3072 9.50822 13.3455 9.49267C13.3837 9.47711 13.4224 9.4625 13.4613 9.44881C13.5003 9.43512 13.5396 9.42238 13.5792 9.4106C13.6188 9.39881 13.6586 9.38799 13.6987 9.37812C13.7388 9.36826 13.7791 9.35935 13.8197 9.35142C13.8602 9.34351 13.9009 9.33658 13.9418 9.33062C13.9827 9.32467 14.0237 9.31969 14.0648 9.3157C14.1059 9.31174 14.1471 9.30875 14.1883 9.30676C14.2296 9.30476 14.2709 9.30377 14.3122 9.30377C14.3535 9.30377 14.3948 9.30476 14.436 9.30676C14.4773 9.30875 14.5185 9.31174 14.5596 9.3157C14.6007 9.31969 14.6417 9.32465 14.6826 9.3306C14.7235 9.33656 14.7642 9.34351 14.8047 9.35142C14.8452 9.35935 14.8856 9.36826 14.9257 9.37812C14.9658 9.38799 15.0056 9.39881 15.0452 9.4106C15.0848 9.42238 15.1241 9.43512 15.163 9.44881C15.202 9.4625 15.2406 9.47711 15.2789 9.49267C15.3172 9.50822 15.355 9.52469 15.3925 9.54205C15.43 9.55943 15.467 9.57769 15.5036 9.59685C15.5402 9.61601 15.5763 9.63605 15.612 9.65697C15.6476 9.67787 15.6827 9.69963 15.7172 9.72223C15.7518 9.74482 15.7858 9.76824 15.8193 9.79248C15.8527 9.81672 15.8856 9.84176 15.9178 9.86758C15.95 9.89342 15.9816 9.92 16.0126 9.94734C16.0436 9.97469 16.0738 10.0028 16.1034 10.0316C16.133 10.0604 16.1619 10.0899 16.1901 10.1201C16.2183 10.1503 16.2457 10.1812 16.2724 10.2127C16.2991 10.2442 16.325 10.2764 16.3501 10.3092C16.3753 10.3419 16.3996 10.3753 16.4231 10.4093C16.4466 10.4432 16.4693 10.4777 16.4912 10.5128C16.513 10.5478 16.534 10.5834 16.5542 10.6194C16.5743 10.6555 16.5936 10.692 16.612 10.729C16.6304 10.766 16.6478 10.8034 16.6644 10.8412C16.681 10.8791 16.6967 10.9173 16.7114 10.9559C16.7261 10.9945 16.7399 11.0334 16.7528 11.0726C16.7656 11.1119 16.7775 11.1514 16.7885 11.1912C16.7994 11.2311 16.8094 11.2712 16.8184 11.3115C16.8274 11.3518 16.8355 11.3923 16.8425 11.433C16.8496 11.4737 16.8557 11.5145 16.8607 11.5555C16.8658 11.5965 16.8699 11.6376 16.873 11.6788C16.8762 11.72 16.8783 11.7612 16.8794 11.8025C16.8793 11.8445 16.8781 11.8864 16.876 11.9283C16.8738 11.9702 16.8706 12.012 16.8664 12.0537C16.8622 12.0955 16.857 12.1371 16.8508 12.1786C16.8445 12.2201 16.8373 12.2614 16.829 12.3025C16.8207 12.3436 16.8115 12.3845 16.8012 12.4252C16.7909 12.4659 16.7796 12.5063 16.7674 12.5464C16.7552 12.5866 16.7419 12.6264 16.7277 12.6658C16.7135 12.7053 16.6983 12.7444 16.6822 12.7832C16.6661 12.8219 16.649 12.8602 16.6311 12.8981C16.6131 12.936 16.5941 12.9735 16.5743 13.0104C16.5545 13.0474 16.5338 13.0839 16.5121 13.1198C16.4905 13.1558 16.468 13.1912 16.4447 13.226C16.4213 13.2609 16.3971 13.2952 16.3721 13.3288C16.3471 13.3625 16.3213 13.3955 16.2946 13.4279C16.2679 13.4603 16.2405 13.4921 16.2123 13.5231C16.1841 13.5542 16.1552 13.5845 16.1255 13.6142C16.0958 13.6438 16.0654 13.6727 16.0343 13.7009C16.0031 13.729 15.9714 13.7564 15.9389 13.783C15.9065 13.8096 15.8734 13.8354 15.8397 13.8603C15.806 13.8853 15.7717 13.9094 15.7368 13.9327C15.7019 13.956 15.6664 13.9785 15.6304 14C15.5945 14.0216 15.5579 14.0422 15.5209 14.062C15.4839 14.0818 15.4465 14.1006 15.4085 14.1186C15.3706 14.1365 15.3323 14.1535 15.2935 14.1695C15.2547 14.1856 15.2156 14.2007 15.1761 14.2148C15.1366 14.2289 15.0968 14.2421 15.0566 14.2543C15.0165 14.2665 14.9761 14.2777 14.9354 14.2879C14.8947 14.2981 14.8538 14.3073 14.8126 14.3155C14.7714 14.3237 14.7301 14.3309 14.6886 14.337C14.6471 14.3432 14.6055 14.3484 14.5638 14.3525C14.522 14.3566 14.4802 14.3597 14.4383 14.3618C14.3964 14.3639 14.3545 14.365 14.3125 14.365L14.3125 14.3656Z"   fill="#FFFFFF" >
</path>
</svg>
