<svg xmlns="http://www.w3.org/2000/svg" xmlns:xlink="http://www.w3.org/1999/xlink" width="16" height="16" viewBox="0 0 16 16" fill="none">
<path d="M8.00005 1C4.00005 1 0.800049 4.25 0.800049 8.2C0.800049 12.15 4.05005 15.4 8.00005 15.4C11.95 15.4 15.2 12.15 15.2 8.2C15.2 4.25 12 1 8.00005 1ZM8.00005 14.7C4.45005 14.7 1.55005 11.8 1.55005 8.25C1.55005 4.7 4.45005 1.8 8.00005 1.8C11.55 1.8 14.45 4.7 14.45 8.25C14.45 11.8 11.6 14.7 8.00005 14.7ZM12.65 8.5L8.30005 8.5L8.30005 4.1C8.30005 3.9 8.15005 3.75 7.95005 3.75C7.75005 3.75 7.60005 3.9 7.60005 4.1L7.60005 8.9C7.60005 9.1 7.75005 9.25 7.95005 9.25L8.00005 9.25L12.65 9.25C12.85 9.25 13 9.1 13 8.9C13 8.65 12.85 8.5 12.65 8.5Z"   fill="#808080" >
</path>
</svg>
