<svg xmlns="http://www.w3.org/2000/svg" xmlns:xlink="http://www.w3.org/1999/xlink" width="14.28369140625" height="14.283737182617188" viewBox="0 0 14.28369140625 14.283737182617188" fill="none">
<path d="M5.6306 10.5534C5.62407 10.5603 5.61771 10.5674 5.61151 10.5746C5.60531 10.5818 5.5993 10.5892 5.59346 10.5967C5.58763 10.6042 5.58198 10.6119 5.57652 10.6197C5.57106 10.6275 5.56579 10.6354 5.56071 10.6434C5.55563 10.6515 5.55075 10.6597 5.54607 10.6679C5.54138 10.6762 5.53691 10.6846 5.53264 10.6931C5.52837 10.7016 5.5243 10.7103 5.52044 10.719C5.51659 10.7277 5.51295 10.7365 5.50952 10.7453C5.50609 10.7542 5.50288 10.7632 5.4999 10.7722C5.4969 10.7812 5.49413 10.7903 5.49158 10.7995C5.48903 10.8087 5.48671 10.8179 5.48461 10.8272C5.48251 10.8365 5.48063 10.8458 5.47899 10.8552C5.47734 10.8646 5.47592 10.874 5.47473 10.8834C5.47354 10.8929 5.47258 10.9023 5.47185 10.9118C5.47112 10.9213 5.47063 10.9308 5.47036 10.9403C5.47009 10.9498 5.47005 10.9593 5.47024 10.9689C5.47044 10.9784 5.47086 10.9879 5.47152 10.9974C5.47218 11.0069 5.47307 11.0163 5.47418 11.0258C5.4753 11.0353 5.47665 11.0447 5.47822 11.0541C5.4798 11.0634 5.48161 11.0728 5.48364 11.0821C5.48566 11.0914 5.48792 11.1006 5.4904 11.1098C5.49288 11.119 5.49558 11.1281 5.4985 11.1372C5.50142 11.1463 5.50456 11.1552 5.50792 11.1642C5.51128 11.1731 5.51485 11.1819 5.51864 11.1906C5.52243 11.1993 5.52642 11.208 5.53063 11.2165C5.53484 11.225 5.53926 11.2335 5.54388 11.2418C5.54849 11.2501 5.55331 11.2583 5.55833 11.2664C5.56335 11.2745 5.56856 11.2825 5.57396 11.2903C5.57936 11.2981 5.58495 11.3058 5.59073 11.3134C5.5965 11.321 5.60246 11.3284 5.6086 11.3357C5.61473 11.3429 5.62105 11.3501 5.62753 11.357C5.63402 11.364 5.64067 11.3708 5.64748 11.3774C5.65425 11.384 5.66119 11.3905 5.66828 11.3967C5.67537 11.403 5.68261 11.4091 5.69 11.415C5.69739 11.4209 5.70493 11.4266 5.71261 11.4321C5.72028 11.4376 5.72809 11.443 5.73604 11.4481C5.74397 11.4532 5.75203 11.4582 5.76021 11.4629C5.7684 11.4677 5.7767 11.4722 5.78511 11.4765C5.79352 11.4808 5.80203 11.485 5.81065 11.4889C5.81926 11.4928 5.82796 11.4965 5.83676 11.4999C5.84555 11.5034 5.85443 11.5067 5.86339 11.5097C5.87234 11.5127 5.88137 11.5155 5.89046 11.5181C5.89957 11.5207 5.90872 11.5231 5.91793 11.5252C5.92715 11.5273 5.93641 11.5292 5.94572 11.5309C5.95503 11.5326 5.96437 11.534 5.97375 11.5352C5.98313 11.5364 5.99253 11.5374 6.00197 11.5382C6.01139 11.5389 6.02083 11.5394 6.03028 11.5397C6.03974 11.54 6.04919 11.54 6.05864 11.5398C6.0681 11.5396 6.07754 11.5392 6.08698 11.5385C6.09642 11.5379 6.10583 11.537 6.11521 11.5358C6.12461 11.5347 6.13397 11.5333 6.14329 11.5317C6.15261 11.5302 6.16188 11.5283 6.17111 11.5263C6.18034 11.5242 6.18952 11.522 6.19864 11.5194C6.20776 11.5169 6.21681 11.5142 6.22579 11.5112C6.23477 11.5083 6.24368 11.5051 6.25251 11.5017C6.26134 11.4983 6.27007 11.4947 6.27872 11.4909C6.28736 11.487 6.29591 11.483 6.30436 11.4787C6.3128 11.4745 6.32114 11.47 6.32937 11.4654C6.33759 11.4607 6.34569 11.4558 6.35368 11.4508C6.36167 11.4457 6.36952 11.4404 6.37723 11.435C6.38496 11.4295 6.39255 11.4239 6.39998 11.418C6.40743 11.4122 6.41473 11.4062 6.42186 11.4C6.42901 11.3938 6.436 11.3874 6.44283 11.3809C6.44965 11.3743 6.45631 11.3676 6.46281 11.3608L9.73715 7.91315C10.1781 7.44902 10.163 6.71068 9.7034 6.26499L6.29064 2.95434C6.28387 2.94774 6.27694 2.94132 6.26986 2.93507C6.26276 2.9288 6.25552 2.92272 6.24812 2.91683C6.24074 2.91092 6.2332 2.90521 6.22552 2.89969C6.21785 2.89416 6.21004 2.88883 6.2021 2.8837C6.19416 2.87855 6.1861 2.87362 6.17792 2.86887C6.16973 2.86413 6.16143 2.85961 6.15303 2.85529C6.14461 2.85096 6.1361 2.84684 6.12749 2.84293C6.11888 2.83903 6.11017 2.83534 6.10138 2.83187C6.09258 2.8284 6.0837 2.82513 6.07474 2.8221C6.06578 2.81907 6.05675 2.81626 6.04766 2.81367C6.03856 2.81108 6.02941 2.80873 6.02019 2.8066C6.01098 2.80447 6.00172 2.80256 5.99241 2.8009C5.9831 2.79923 5.97376 2.79779 5.96438 2.79657C5.95501 2.79536 5.9456 2.79439 5.93617 2.79364C5.92674 2.7929 5.9173 2.7924 5.90784 2.79211C5.89839 2.79184 5.88894 2.7918 5.87948 2.792C5.87003 2.79219 5.86058 2.79261 5.85114 2.79327C5.84171 2.79395 5.8323 2.79483 5.82292 2.79596C5.81352 2.79709 5.80417 2.79845 5.79485 2.80005C5.78553 2.80165 5.77625 2.80346 5.76702 2.80551C5.75778 2.80756 5.7486 2.80984 5.73948 2.81235C5.73036 2.81485 5.72131 2.81758 5.71233 2.82054C5.70335 2.8235 5.69445 2.82668 5.68563 2.83007C5.6768 2.83346 5.66806 2.83709 5.65941 2.84092C5.65077 2.84475 5.64222 2.84879 5.63378 2.85304C5.62533 2.8573 5.61699 2.86176 5.60877 2.86643C5.60054 2.8711 5.59243 2.87596 5.58445 2.88103C5.57647 2.8861 5.56862 2.89136 5.5609 2.89683C5.55317 2.90228 5.54559 2.90793 5.53815 2.91377C5.5307 2.9196 5.52341 2.92561 5.51627 2.93182C5.50912 2.93801 5.50213 2.94437 5.4953 2.95093C5.48847 2.95747 5.48181 2.96417 5.47531 2.97104C5.46878 2.97796 5.46241 2.98504 5.45622 2.99226C5.45002 2.99948 5.444 3.00687 5.43817 3.01439C5.43233 3.0219 5.42669 3.02957 5.42123 3.03735C5.41577 3.04515 5.4105 3.05308 5.40542 3.06113C5.40034 3.06918 5.39546 3.07734 5.39078 3.08563C5.38609 3.09392 5.38162 3.10233 5.37735 3.11082C5.37307 3.11932 5.36901 3.12792 5.36516 3.13663C5.3613 3.14534 5.35766 3.15412 5.35423 3.16301C5.3508 3.17189 5.34759 3.18085 5.3446 3.18988C5.34161 3.19892 5.33884 3.20802 5.33629 3.21719C5.33374 3.22636 5.33142 3.23559 5.32932 3.24487C5.32721 3.25416 5.32534 3.26349 5.3237 3.27286C5.32205 3.28223 5.32063 3.29164 5.31944 3.30109C5.31824 3.31053 5.31729 3.32 5.31656 3.32949C5.31583 3.33899 5.31533 3.34849 5.31506 3.358C5.31479 3.36751 5.31476 3.37702 5.31495 3.38654C5.31515 3.39607 5.31557 3.40557 5.31623 3.41506C5.31689 3.42455 5.31778 3.43403 5.31889 3.44348C5.32001 3.45294 5.32135 3.46236 5.32293 3.47175C5.32451 3.48114 5.32631 3.49048 5.32835 3.49978C5.33037 3.50908 5.33262 3.51832 5.33511 3.52751C5.33759 3.53669 5.34028 3.54582 5.3432 3.55488C5.34613 3.56395 5.34927 3.57292 5.35263 3.58182C5.35599 3.59074 5.35956 3.59955 5.36335 3.60828C5.36714 3.61701 5.37114 3.62564 5.37535 3.63418C5.37956 3.64272 5.38397 3.65115 5.38859 3.65948C5.3932 3.6678 5.39801 3.67601 5.40304 3.6841C5.40805 3.69219 5.41326 3.70015 5.41867 3.70799C5.42407 3.71582 5.42966 3.72353 5.43544 3.73108C5.44121 3.73865 5.44716 3.74607 5.4533 3.75335C5.45944 3.76062 5.46575 3.76774 5.47224 3.7747C5.47873 3.78167 5.48538 3.78848 5.49219 3.79512L8.90494 7.10577L5.6306 10.5534Z"   fill="#333333" >
</path>
<path d="M14.1403 6.99854C14.0612 3.1336 10.8634 0.0641899 6.99848 0.143347C3.13354 0.222504 0.0641287 3.42027 0.143286 7.28521C0.222443 11.1501 3.42021 14.2196 7.28515 14.1404C11.1501 14.0612 14.2195 10.8635 14.1403 6.99854ZM12.9739 7.02243C13.0399 10.2435 10.4823 12.908 7.26126 12.974C4.04019 13.04 1.37568 10.4824 1.30971 7.26132C1.24374 4.04025 3.8013 1.37573 7.02237 1.30976C10.2434 1.24379 12.908 3.80136 12.9739 7.02243Z"   fill="#333333" >
</path>
</svg>
