<svg xmlns="http://www.w3.org/2000/svg" xmlns:xlink="http://www.w3.org/1999/xlink" width="9" height="11" viewBox="0 0 9 11" fill="none">
<path d="M2.74998 10.6944C2.59997 10.6944 2.49997 10.6333 2.39998 10.5111C2.19998 10.2667 2.24998 9.89999 2.44998 9.65554L5.64997 6.11111C5.74997 5.98888 5.79997 5.86666 5.79997 5.74443C5.79997 5.62222 5.74997 5.49999 5.64997 5.37777L2.39998 2.01666C2.19998 1.77222 2.14997 1.40555 2.34998 1.16111C2.54997 0.916661 2.84998 0.85555 3.04997 1.1L6.24997 4.46111C6.54997 4.76666 6.74997 5.25554 6.74997 5.74444C6.74997 6.23333 6.59997 6.66111 6.29997 7.02777L3.09998 10.5722C2.99997 10.6333 2.84998 10.6944 2.74998 10.6944Z"   fill="#000000" fill-opacity="0.53">
</path>
</svg>
