<svg xmlns="http://www.w3.org/2000/svg" xmlns:xlink="http://www.w3.org/1999/xlink" width="86" height="35.7705078125" viewBox="0 0 86 35.7705078125" fill="none">
<path     fill="#A72D22"  d="M3.72609 -1.00757e-14L82.2739 -1.00757e-14C84.3318 -1.00757e-14 86 1.66823 86 3.7261L86 32.0444C86 34.1023 84.3318 35.7705 82.2739 35.7705L3.72609 35.7705C1.66823 35.7705 -6.26449e-15 34.1023 -5.88646e-15 32.0444L1.96215e-15 3.7261C2.08816e-15 1.66823 1.66823 -1.03277e-14 3.72609 -1.00757e-14Z">
</path>
<path d="M76.2074 20.1179C76.2044 20.118 76.2014 20.118 76.1984 20.118C76.1954 20.118 76.1924 20.1179 76.1894 20.1178C76.1863 20.1177 76.1833 20.1175 76.1803 20.1173C76.1773 20.1171 76.1743 20.1168 76.1713 20.1165C76.1684 20.1161 76.1654 20.1158 76.1624 20.1153C76.1594 20.1149 76.1564 20.1144 76.1535 20.1139C76.1505 20.1133 76.1476 20.1128 76.1446 20.1121C76.1417 20.1115 76.1387 20.1108 76.1358 20.11C76.1329 20.1093 76.13 20.1085 76.1271 20.1077C76.1242 20.1068 76.1214 20.1059 76.1185 20.105C76.1156 20.104 76.1128 20.103 76.11 20.102C76.1072 20.1009 76.1044 20.0998 76.1016 20.0987C76.0988 20.0975 76.096 20.0963 76.0933 20.0951C76.0905 20.0939 76.0878 20.0926 76.0851 20.0912C76.0824 20.0899 76.0798 20.0885 76.0771 20.0871C76.0745 20.0856 76.0718 20.0842 76.0692 20.0826C76.0666 20.0811 76.0641 20.0795 76.0615 20.0779C76.059 20.0763 76.0565 20.0747 76.054 20.073C76.0515 20.0713 76.0491 20.0695 76.0467 20.0677C76.0442 20.0659 76.0418 20.0641 76.0395 20.0622C76.0371 20.0603 76.0348 20.0584 76.0325 20.0565C76.0302 20.0545 76.028 20.0525 76.0257 20.0505C76.0235 20.0485 76.0214 20.0464 76.0192 20.0443C76.0171 20.0422 76.015 20.04 76.0129 20.0378C76.0108 20.0356 76.0088 20.0334 76.0068 20.0312C76.0048 20.0289 76.0028 20.0266 76.0009 20.0243C75.999 20.022 75.9971 20.0196 75.9953 20.0172C75.9935 20.0148 75.9917 20.0124 75.9899 20.01C75.9882 20.0075 75.9865 20.005 75.9848 20.0025C75.9832 20 75.9816 19.9974 75.98 19.9949C75.9785 19.9923 75.9769 19.9897 75.9754 19.9871C75.974 19.9845 75.9725 19.9818 75.9712 19.9791C75.9699 19.9763 75.9687 19.9734 75.9676 19.9706C75.9665 19.9677 75.9655 19.9648 75.9645 19.9618C75.9635 19.9589 75.9626 19.9559 75.9618 19.953C75.961 19.95 75.9602 19.947 75.9595 19.944C75.9588 19.9409 75.9582 19.9379 75.9577 19.9349C75.9572 19.9318 75.9567 19.9288 75.9563 19.9257C75.9559 19.9226 75.9556 19.9195 75.9554 19.9165C75.9551 19.9134 75.955 19.9103 75.9549 19.9072C75.9548 19.9041 75.9548 19.901 75.9548 19.8979C75.9549 19.8948 75.955 19.8917 75.9552 19.8887C75.9554 19.8856 75.9557 19.8825 75.9561 19.8794C75.9564 19.8763 75.9569 19.8733 75.9574 19.8702C75.9579 19.8672 75.9585 19.8641 75.9591 19.8611C75.9597 19.8581 75.9605 19.8551 75.9613 19.8521C75.9621 19.8491 75.9629 19.8461 75.9639 19.8432C75.9648 19.8403 75.9658 19.8373 75.9669 19.8344C75.968 19.8315 75.9691 19.8287 75.9704 19.8258C75.9716 19.823 75.9729 19.8202 75.9742 19.8174C75.9756 19.8146 75.977 19.8119 75.9785 19.8092C75.98 19.8064 75.9815 19.8038 75.9831 19.8011C75.9848 19.7985 75.9864 19.7959 75.9882 19.7933C75.9899 19.7908 75.9917 19.7883 75.9936 19.7858C75.9955 19.7833 75.9974 19.7809 75.9994 19.7785C76.0014 19.7762 76.0034 19.7738 76.0055 19.7716C76.0076 19.7693 76.0097 19.7671 76.0119 19.7649C76.0141 19.7627 76.0164 19.7606 76.0187 19.7585C76.021 19.7565 76.0233 19.7545 76.0257 19.7525C76.0281 19.7506 76.0306 19.7487 76.0331 19.7468C76.0356 19.745 76.0381 19.7432 76.0407 19.7415C76.0433 19.7398 76.0459 19.7382 76.0485 19.7366C76.0512 19.735 76.0539 19.7335 76.0566 19.732C76.0593 19.7306 76.0621 19.7292 76.0649 19.7279C76.0915 19.7117 76.1179 19.6951 76.144 19.678C76.17 19.661 76.1959 19.6436 76.2214 19.6257C76.2469 19.6079 76.2722 19.5897 76.2972 19.571C76.3221 19.5524 76.3468 19.5334 76.3711 19.5139C76.3955 19.4945 76.4196 19.4747 76.4433 19.4546C76.4671 19.4344 76.4905 19.4139 76.5136 19.393C76.5367 19.3721 76.5594 19.3508 76.5818 19.3292C76.6043 19.3076 76.6264 19.2856 76.6481 19.2633C76.6698 19.2409 76.6912 19.2183 76.7122 19.1953C76.7333 19.1723 76.7539 19.149 76.7742 19.1254C76.7945 19.1017 76.8144 19.0778 76.8339 19.0535C76.8535 19.0292 76.8726 19.0047 76.8914 18.9798C76.9101 18.9549 76.9285 18.9298 76.9465 18.9043C76.9644 18.8789 76.982 18.8531 76.9992 18.8271C77.0163 18.8011 77.0331 18.7749 77.0494 18.7483C77.0658 18.7218 77.0817 18.6951 77.0972 18.668C77.1126 18.641 77.1277 18.6137 77.1423 18.5862C77.157 18.5587 77.1712 18.531 77.1849 18.5031C77.1987 18.4751 77.212 18.4469 77.2249 18.4186C77.2378 18.3902 77.2502 18.3616 77.2622 18.3329C77.2741 18.3041 77.2857 18.2752 77.2967 18.2461C77.3078 18.2169 77.3184 18.1877 77.3285 18.1582C77.3387 18.1287 77.3484 18.0991 77.3576 18.0694C77.3668 18.0396 77.3755 18.0097 77.3838 17.9797C77.3921 17.9496 77.3999 17.9195 77.4072 17.8892C77.4145 17.8589 77.4213 17.8285 77.4277 17.798C77.4341 17.7675 77.44 17.737 77.4454 17.7063C77.4508 17.6756 77.4557 17.6448 77.4601 17.614C77.4645 17.5832 77.4685 17.5523 77.4719 17.5213C77.4754 17.4904 77.4784 17.4593 77.4809 17.4283C77.4834 17.3972 77.4854 17.3661 77.4869 17.335C77.4884 17.3039 77.4894 17.2728 77.4899 17.2416C77.4974 16.4166 77.1562 15.1679 75.5662 13.7579C75.5668 13.7938 75.5672 13.8298 75.5672 13.8658C75.5673 13.9017 75.5671 13.9377 75.5665 13.9736C75.566 14.0096 75.5651 14.0455 75.564 14.0815C75.5629 14.1174 75.5614 14.1533 75.5597 14.1893C75.5579 14.2252 75.5559 14.2611 75.5536 14.297C75.5513 14.3329 75.5486 14.3687 75.5457 14.4046C75.5428 14.4404 75.5396 14.4762 75.536 14.512C75.5325 14.5478 75.5287 14.5835 75.5246 14.6193C75.5205 14.655 75.516 14.6907 75.5113 14.7263C75.5066 14.762 75.5016 14.7976 75.4963 14.8332C75.491 14.8687 75.4854 14.9042 75.4795 14.9397C75.4736 14.9752 75.4675 15.0106 75.461 15.046C75.4545 15.0814 75.4477 15.1167 75.4407 15.1519C75.4336 15.1872 75.4262 15.2224 75.4186 15.2575C75.4109 15.2927 75.403 15.3277 75.3948 15.3627C75.3865 15.3977 75.378 15.4327 75.3692 15.4675C75.3604 15.5024 75.3512 15.5372 75.3419 15.5719C75.3325 15.6066 75.3228 15.6413 75.3128 15.6758C75.3029 15.7104 75.2926 15.7448 75.2821 15.7792C75.2715 15.8136 75.2607 15.8479 75.2496 15.8821C75.2385 15.9163 75.2271 15.9504 75.2154 15.9844C75.2037 16.0184 75.1918 16.0523 75.1795 16.0861C75.1673 16.1199 75.1548 16.1537 75.142 16.1873C75.1292 16.2209 75.1161 16.2544 75.1027 16.2877C75.0894 16.3211 75.0757 16.3544 75.0618 16.3876C75.0479 16.4207 75.0337 16.4538 75.0193 16.4867C75.0048 16.5196 74.9901 16.5524 74.9751 16.5851C74.9601 16.6178 74.9448 16.6503 74.9292 16.6828C74.9137 16.7152 74.8979 16.7475 74.8818 16.7796C74.8657 16.8118 74.8494 16.8438 74.8328 16.8757C74.8161 16.9076 74.7993 16.9394 74.7821 16.971C74.765 17.0026 74.7476 17.0341 74.7299 17.0654C74.7281 17.0681 74.7261 17.0708 74.7242 17.0734C74.7222 17.0761 74.7202 17.0787 74.7181 17.0813C74.716 17.0839 74.7139 17.0864 74.7118 17.0889C74.7096 17.0914 74.7074 17.0939 74.7052 17.0963C74.7029 17.0987 74.7006 17.1011 74.6983 17.1035C74.696 17.1058 74.6936 17.1081 74.6912 17.1103C74.6888 17.1126 74.6863 17.1148 74.6838 17.117C74.6813 17.1191 74.6788 17.1212 74.6762 17.1233C74.6736 17.1254 74.671 17.1274 74.6684 17.1294C74.6657 17.1314 74.663 17.1333 74.6603 17.1352C74.6576 17.1371 74.6548 17.1389 74.6521 17.1407C74.6493 17.1424 74.6465 17.1442 74.6436 17.1458C74.6408 17.1475 74.6379 17.1491 74.635 17.1507C74.632 17.1523 74.6291 17.1538 74.6262 17.1552C74.6232 17.1567 74.6202 17.1581 74.6172 17.1595C74.6142 17.1608 74.6111 17.1621 74.6081 17.1634C74.605 17.1646 74.6019 17.1658 74.5988 17.1669C74.5957 17.168 74.5926 17.1691 74.5894 17.1701C74.5863 17.1711 74.5831 17.1721 74.58 17.173C74.5768 17.1739 74.5736 17.1747 74.5704 17.1755C74.5672 17.1763 74.5639 17.177 74.5607 17.1777C74.5575 17.1784 74.5542 17.1789 74.551 17.1795C74.5477 17.18 74.5444 17.1805 74.5412 17.181C74.5379 17.1814 74.5346 17.1818 74.5313 17.1821C74.528 17.1824 74.5247 17.1826 74.5214 17.1828C74.5181 17.183 74.5148 17.1831 74.5115 17.1832C74.5082 17.1833 74.5049 17.1833 74.5016 17.1832C74.4983 17.1831 74.495 17.183 74.4917 17.1829C74.4884 17.1827 74.4851 17.1824 74.4818 17.1821C74.4785 17.1819 74.4753 17.1815 74.472 17.1811C74.4687 17.1807 74.4654 17.1802 74.4622 17.1797C74.4589 17.1791 74.4557 17.1785 74.4524 17.1779C74.4492 17.1776 74.4461 17.1772 74.4429 17.1768C74.4398 17.1763 74.4366 17.1758 74.4335 17.1752C74.4304 17.1747 74.4273 17.174 74.4241 17.1733C74.421 17.1727 74.4179 17.1719 74.4149 17.1711C74.4118 17.1702 74.4087 17.1694 74.4057 17.1684C74.4027 17.1675 74.3996 17.1664 74.3967 17.1654C74.3937 17.1643 74.3907 17.1632 74.3877 17.162C74.3848 17.1608 74.3819 17.1595 74.379 17.1582C74.3761 17.1569 74.3732 17.1555 74.3704 17.154C74.3675 17.1526 74.3647 17.1511 74.3619 17.1496C74.3592 17.148 74.3564 17.1464 74.3537 17.1447C74.351 17.1431 74.3483 17.1413 74.3457 17.1396C74.343 17.1378 74.3404 17.136 74.3379 17.1341C74.3353 17.1322 74.3328 17.1302 74.3303 17.1283C74.3278 17.1263 74.3253 17.1242 74.3229 17.1221C74.3205 17.1201 74.3182 17.1179 74.3159 17.1157C74.3136 17.1135 74.3113 17.1113 74.3091 17.109C74.3069 17.1067 74.3047 17.1044 74.3026 17.1021C74.3004 17.0997 74.2984 17.0973 74.2963 17.0948C74.2943 17.0924 74.2923 17.0899 74.2904 17.0873C74.2885 17.0848 74.2866 17.0822 74.2848 17.0796C74.283 17.077 74.2812 17.0743 74.2795 17.0716C74.2778 17.069 74.2762 17.0662 74.2746 17.0635C74.273 17.0607 74.2714 17.0579 74.27 17.0551C74.2685 17.0523 74.2671 17.0494 74.2657 17.0466C74.2643 17.0437 74.263 17.0408 74.2618 17.0379C74.2605 17.0349 74.2594 17.032 74.2582 17.029C74.2571 17.026 74.2561 17.023 74.2551 17.02C74.2541 17.017 74.2531 17.0139 74.2523 17.0109C74.2514 17.0078 74.2506 17.0047 74.2499 17.0016C74.2491 16.9985 74.2484 16.9954 74.2478 16.9923C74.2472 16.9892 74.2466 16.986 74.2462 16.9829C74.2442 16.968 74.2421 16.9532 74.2398 16.9384C74.2375 16.9235 74.2351 16.9087 74.2325 16.8939C74.23 16.8792 74.2273 16.8644 74.2244 16.8497C74.2215 16.835 74.2185 16.8203 74.2154 16.8056C74.2122 16.791 74.2089 16.7763 74.2055 16.7617C74.2021 16.7471 74.1985 16.7326 74.1948 16.7181C74.191 16.7035 74.1872 16.689 74.1832 16.6746C74.1791 16.6601 74.175 16.6457 74.1707 16.6314C74.1664 16.617 74.1619 16.6027 74.1574 16.5884C74.1528 16.5741 74.148 16.5599 74.1432 16.5457C74.1383 16.5315 74.1333 16.5174 74.1282 16.5033C74.123 16.4892 74.1177 16.4752 74.1123 16.4612C74.1069 16.4472 74.1013 16.4333 74.0956 16.4194C74.0899 16.4056 74.0841 16.3917 74.0781 16.378C74.0721 16.3642 74.066 16.3505 74.0598 16.3369C74.0535 16.3233 74.0471 16.3097 74.0406 16.2962C74.0341 16.2827 74.0275 16.2692 74.0207 16.2559C74.0139 16.2425 74.007 16.2292 73.9999 16.216C73.9929 16.2027 73.9857 16.1895 73.9784 16.1765C73.9711 16.1634 73.9637 16.1503 73.9561 16.1374C73.9485 16.1244 73.9409 16.1116 73.933 16.0988C73.9252 16.086 73.9173 16.0733 73.9092 16.0606C73.9011 16.048 73.8929 16.0354 73.8846 16.0229C73.8763 16.0105 73.8678 15.9981 73.8593 15.9858C73.8507 15.9735 73.842 15.9612 73.8332 15.9491C73.8244 15.937 73.8155 15.9249 73.8064 15.913C73.7974 15.901 73.7882 15.8891 73.7789 15.8774C73.7696 15.8656 73.7602 15.8539 73.7507 15.8423C73.7412 15.8307 73.7316 15.8192 73.7218 15.8078C73.7121 15.7964 73.7022 15.7851 73.6923 15.7739C73.6823 15.7627 73.6722 15.7516 73.6621 15.7406C73.6519 15.7296 73.6416 15.7187 73.6312 15.7079C73.5722 15.8667 73.5079 16.0234 73.4385 16.1779C73.369 16.3325 73.2945 16.4846 73.2149 16.6341C73.1969 16.6637 73.1794 16.6936 73.1624 16.7238C73.1454 16.7539 73.1289 16.7844 73.1129 16.8151C73.0969 16.8458 73.0814 16.8768 73.0664 16.908C73.0514 16.9393 73.037 16.9707 73.0231 17.0025C73.0092 17.0342 72.9958 17.0661 72.9829 17.0983C72.9701 17.1304 72.9578 17.1628 72.946 17.1954C72.9343 17.228 72.923 17.2607 72.9124 17.2937C72.9017 17.3266 72.8916 17.3597 72.882 17.393C72.8724 17.4263 72.8634 17.4598 72.855 17.4934C72.8465 17.5269 72.8386 17.5607 72.8313 17.5945C72.824 17.6284 72.8172 17.6623 72.811 17.6964C72.8048 17.7305 72.7992 17.7647 72.7942 17.7989C72.7891 17.8332 72.7846 17.8675 72.7807 17.9019C72.7768 17.9364 72.7735 17.9708 72.7708 18.0053C72.768 18.0399 72.7658 18.0744 72.7642 18.109C72.7626 18.1436 72.7616 18.1783 72.7612 18.2129C72.7612 18.7341 73.2599 19.3416 73.7437 19.6641C73.746 19.6651 73.7484 19.6662 73.7507 19.6672C73.753 19.6683 73.7553 19.6694 73.7575 19.6706C73.7598 19.6717 73.7621 19.673 73.7643 19.6742C73.7665 19.6754 73.7687 19.6767 73.7709 19.678C73.7731 19.6793 73.7753 19.6807 73.7774 19.6821C73.7795 19.6835 73.7817 19.6849 73.7837 19.6864C73.7858 19.6879 73.7879 19.6894 73.7899 19.6909C73.7919 19.6925 73.7939 19.694 73.7959 19.6956C73.7979 19.6973 73.7999 19.6989 73.8018 19.7006C73.8037 19.7023 73.8056 19.704 73.8074 19.7057C73.8093 19.7075 73.8111 19.7093 73.8129 19.7111C73.8147 19.7129 73.8165 19.7148 73.8182 19.7166C73.8199 19.7185 73.8216 19.7204 73.8233 19.7224C73.8249 19.7243 73.8266 19.7263 73.8281 19.7283C73.8297 19.7303 73.8313 19.7323 73.8328 19.7343C73.8343 19.7364 73.8358 19.7385 73.8372 19.7406C73.8387 19.7427 73.8401 19.7448 73.8415 19.7469C73.8428 19.7491 73.8442 19.7513 73.8455 19.7535C73.8467 19.7557 73.848 19.7579 73.8492 19.7602C73.8504 19.7624 73.8516 19.7647 73.8527 19.767C73.8539 19.7692 73.855 19.7715 73.856 19.7739C73.857 19.7762 73.858 19.7786 73.859 19.7809C73.86 19.7833 73.8609 19.7856 73.8618 19.788C73.8627 19.7904 73.8635 19.7929 73.8643 19.7953C73.8651 19.7977 73.8659 19.8001 73.8666 19.8026C73.8673 19.805 73.8679 19.8075 73.8685 19.81C73.8692 19.8125 73.8698 19.8149 73.8703 19.8174C73.8708 19.8199 73.8713 19.8224 73.8717 19.8249C73.8722 19.8275 73.8726 19.83 73.8729 19.8325C73.8733 19.835 73.8736 19.8376 73.8739 19.8401C73.8741 19.8427 73.8744 19.8452 73.8745 19.8477C73.8747 19.8503 73.8748 19.8528 73.8749 19.8554C73.8745 19.8592 73.874 19.8629 73.8734 19.8667C73.8728 19.8705 73.8721 19.8742 73.8713 19.8779C73.8705 19.8817 73.8696 19.8854 73.8687 19.889C73.8677 19.8927 73.8667 19.8964 73.8655 19.9C73.8644 19.9037 73.8632 19.9073 73.8619 19.9108C73.8605 19.9144 73.8592 19.9179 73.8577 19.9215C73.8562 19.925 73.8546 19.9284 73.853 19.9319C73.8513 19.9353 73.8496 19.9387 73.8478 19.942C73.846 19.9454 73.8441 19.9487 73.8421 19.9519C73.8401 19.9552 73.8381 19.9584 73.8359 19.9616C73.8338 19.9647 73.8316 19.9678 73.8293 19.9709C73.827 19.9739 73.8247 19.9769 73.8223 19.9799C73.8199 19.9828 73.8174 19.9857 73.8148 19.9885C73.8122 19.9913 73.8096 19.9941 73.8069 19.9968C73.8042 19.9995 73.8015 20.0021 73.7987 20.0047C73.7958 20.0072 73.793 20.0097 73.79 20.0121C73.7871 20.0145 73.7841 20.0169 73.781 20.0192C73.778 20.0215 73.7749 20.0237 73.7717 20.0258C73.7686 20.0279 73.7654 20.03 73.7621 20.0319C73.7588 20.0339 73.7555 20.0358 73.7522 20.0376C73.7488 20.0394 73.7454 20.0411 73.742 20.0428C73.7386 20.0445 73.7351 20.046 73.7316 20.0475C73.7281 20.049 73.7245 20.0504 73.721 20.0517C73.7174 20.053 73.7138 20.0542 73.7102 20.0554C73.7065 20.0565 73.7029 20.0575 73.6992 20.0585C73.6955 20.0595 73.6918 20.0603 73.6881 20.0611C73.6843 20.0619 73.6806 20.0626 73.6768 20.0632C73.6731 20.0638 73.6693 20.0643 73.6655 20.0647C73.6617 20.0651 73.658 20.0655 73.6541 20.0657C73.6503 20.066 73.6465 20.0661 73.6427 20.0662C73.6389 20.0662 73.6351 20.0662 73.6313 20.066C73.6275 20.0659 73.6237 20.0657 73.6199 20.0654L73.6124 20.0654C73.5985 20.0654 73.5846 20.0644 73.5708 20.0625C73.557 20.0606 73.5434 20.0578 73.5299 20.0541C71.5799 19.4916 70.5037 18.3441 70.5037 16.8254C70.5037 15.5354 71.2087 14.4966 71.9512 13.3979C72.0018 13.3304 72.0518 13.2623 72.1009 13.1937C72.1501 13.125 72.1984 13.0559 72.246 12.9862C72.2936 12.9164 72.3404 12.8462 72.3865 12.7754C72.4325 12.7046 72.4777 12.6334 72.5221 12.5616C72.5665 12.4898 72.6101 12.4175 72.6529 12.3448C72.6957 12.272 72.7377 12.1987 72.7788 12.125C72.8199 12.0513 72.8602 11.9771 72.8997 11.9025C72.9392 11.8279 72.9778 11.7529 73.0156 11.6774C73.0534 11.6019 73.0903 11.526 73.1264 11.4497C73.1625 11.3733 73.1977 11.2966 73.232 11.2195C73.2664 11.1424 73.2999 11.0649 73.3325 10.9871C73.3651 10.9092 73.3968 10.831 73.4276 10.7524C73.4585 10.6738 73.4884 10.5949 73.5175 10.5156C73.5466 10.4364 73.5748 10.3568 73.6021 10.2769C73.6293 10.1971 73.6557 10.1169 73.6812 10.0364C73.7067 9.95592 73.7313 9.87516 73.7549 9.79413C73.7564 9.78926 73.758 9.78444 73.7598 9.77968C73.7616 9.77491 73.7635 9.77021 73.7656 9.76556C73.7676 9.76092 73.7699 9.75635 73.7722 9.75185C73.7746 9.74736 73.7771 9.74294 73.7798 9.7386C73.7825 9.73427 73.7853 9.73002 73.7882 9.72587C73.7911 9.72171 73.7942 9.71765 73.7974 9.71369C73.8006 9.70974 73.8039 9.70588 73.8073 9.70214C73.8108 9.6984 73.8143 9.69477 73.818 9.69125C73.8217 9.68774 73.8255 9.68435 73.8294 9.68108C73.8333 9.67781 73.8373 9.67467 73.8414 9.67165C73.8455 9.66864 73.8497 9.66577 73.854 9.66302C73.8582 9.66028 73.8626 9.65768 73.8671 9.65522C73.8715 9.65276 73.876 9.65045 73.8806 9.64828C73.8852 9.64611 73.8899 9.64409 73.8946 9.64222C73.8994 9.64036 73.9042 9.63864 73.909 9.63709C73.9138 9.63553 73.9187 9.63413 73.9237 9.63288C73.929 9.63148 73.9344 9.63023 73.9398 9.62912C73.9452 9.62802 73.9506 9.62707 73.9561 9.62627C73.9615 9.62547 73.967 9.62483 73.9725 9.62434C73.978 9.62385 73.9835 9.62351 73.989 9.62333C73.9945 9.62315 74 9.62312 74.0056 9.62325C74.0111 9.62338 74.0166 9.62366 74.0221 9.6241C74.0276 9.62453 74.0331 9.62513 74.0385 9.62587C74.044 9.62662 74.0494 9.62751 74.0549 9.62857C74.0603 9.62962 74.0656 9.63082 74.071 9.63217C74.0763 9.63352 74.0817 9.63503 74.0869 9.63668C74.0922 9.63833 74.0974 9.64013 74.1026 9.64207C74.1077 9.64401 74.1128 9.6461 74.1179 9.64833C74.1229 9.65056 74.1279 9.65293 74.1328 9.65544C74.1377 9.65795 74.1426 9.6606 74.1473 9.66338C74.1521 9.66616 74.1568 9.66908 74.1614 9.67212C74.166 9.67516 74.1705 9.67834 74.1749 9.68163C77.7074 12.4191 79.4962 14.2754 79.4962 16.8029C79.4962 18.4641 78.0974 19.8891 76.2449 20.1179L76.2074 20.1179Z"   fill="#F5DADA" >
</path>
</svg>
