<svg xmlns="http://www.w3.org/2000/svg" xmlns:xlink="http://www.w3.org/1999/xlink" width="20" height="20" viewBox="0 0 20 20" fill="none">
<path d="M10 20C4.4775 20 0 15.5225 0 10C0 4.4775 4.4775 0 10 0C15.5225 0 20 4.4775 20 10C20 15.5225 15.5225 20 10 20ZM7.77 13.9267C7.78205 13.9387 7.79439 13.9505 7.80703 13.9619C7.81967 13.9734 7.83256 13.9845 7.84574 13.9953C7.85893 14.0062 7.87236 14.0166 7.88605 14.0268C7.89975 14.037 7.91369 14.0468 7.92787 14.0562C7.94203 14.0657 7.95643 14.0748 7.97105 14.0836C7.98568 14.0924 8.00051 14.1008 8.01555 14.1088C8.03059 14.1169 8.04582 14.1245 8.06123 14.1318C8.07664 14.1391 8.09223 14.146 8.10797 14.1525C8.12373 14.1591 8.13963 14.1652 8.15568 14.171C8.17174 14.1767 8.18793 14.1821 8.20424 14.187C8.22055 14.1919 8.23697 14.1965 8.25351 14.2006C8.27006 14.2048 8.2867 14.2085 8.30342 14.2118C8.32014 14.2152 8.33693 14.2181 8.35379 14.2206C8.37066 14.2231 8.38758 14.2252 8.40455 14.2268C8.42152 14.2285 8.43851 14.2298 8.45555 14.2306C8.47258 14.2314 8.48961 14.2319 8.50666 14.2319C8.52371 14.2319 8.54076 14.2314 8.55779 14.2306C8.57482 14.2298 8.59181 14.2285 8.60879 14.2268C8.62576 14.2252 8.64267 14.2231 8.65953 14.2206C8.6764 14.2181 8.6932 14.2152 8.70992 14.2118C8.72664 14.2085 8.74326 14.2048 8.7598 14.2006C8.77635 14.1965 8.79279 14.1919 8.8091 14.187C8.82541 14.1821 8.8416 14.1767 8.85766 14.171C8.87371 14.1652 8.88961 14.1591 8.90535 14.1525C8.92111 14.146 8.9367 14.1391 8.95211 14.1318C8.96752 14.1245 8.98275 14.1169 8.99777 14.1088C9.01281 14.1008 9.02764 14.0924 9.04226 14.0836C9.05689 14.0748 9.07129 14.0657 9.08547 14.0562C9.09965 14.0468 9.11359 14.037 9.12728 14.0268C9.14098 14.0166 9.15439 14.0062 9.16758 13.9953C9.18076 13.9845 9.19367 13.9734 9.20631 13.9619C9.21894 13.9505 9.23129 13.9387 9.24334 13.9267L15.5583 7.61166C15.5704 7.59961 15.5821 7.58727 15.5936 7.57463C15.605 7.56199 15.6162 7.5491 15.627 7.53592C15.6378 7.52273 15.6483 7.5093 15.6585 7.49561C15.6686 7.48191 15.6784 7.46797 15.6879 7.45379C15.6974 7.43961 15.7065 7.42521 15.7153 7.41059C15.724 7.39596 15.7324 7.38113 15.7404 7.36609C15.7485 7.35107 15.7562 7.33584 15.7634 7.32043C15.7707 7.30502 15.7776 7.28943 15.7842 7.27367C15.7907 7.25793 15.7968 7.24203 15.8026 7.22598C15.8083 7.20992 15.8137 7.19373 15.8186 7.17742C15.8236 7.16111 15.8281 7.14469 15.8322 7.12814C15.8364 7.1116 15.8401 7.09496 15.8435 7.07824C15.8468 7.06152 15.8497 7.04473 15.8522 7.02787C15.8547 7.011 15.8568 6.99408 15.8585 6.97711C15.8601 6.96014 15.8614 6.94314 15.8622 6.92611C15.863 6.90908 15.8635 6.89205 15.8635 6.875C15.8635 6.85795 15.863 6.8409 15.8622 6.82389C15.8614 6.80686 15.8601 6.78986 15.8585 6.77289C15.8568 6.75592 15.8547 6.739 15.8522 6.72213C15.8497 6.70527 15.8468 6.68848 15.8435 6.67176C15.8401 6.65502 15.8364 6.6384 15.8322 6.62186C15.8281 6.60531 15.8236 6.58889 15.8186 6.57258C15.8137 6.55627 15.8083 6.54008 15.8026 6.52402C15.7968 6.50797 15.7907 6.49207 15.7842 6.47631C15.7776 6.46057 15.7707 6.44498 15.7634 6.42957C15.7562 6.41416 15.7485 6.39893 15.7404 6.38389C15.7324 6.36887 15.724 6.35402 15.7153 6.33939C15.7065 6.32477 15.6974 6.31037 15.6879 6.29621C15.6784 6.28203 15.6686 6.26809 15.6585 6.25439C15.6483 6.2407 15.6378 6.22727 15.627 6.21408C15.6162 6.2009 15.605 6.18801 15.5936 6.17537C15.5821 6.16273 15.5704 6.15039 15.5583 6.13834C15.5463 6.12629 15.5339 6.11453 15.5213 6.10307C15.5087 6.09162 15.4958 6.08049 15.4826 6.06967C15.4694 6.05887 15.456 6.04838 15.4423 6.03822C15.4286 6.02807 15.4146 6.01824 15.4005 6.00877C15.3863 5.9993 15.3719 5.99018 15.3573 5.98141C15.3426 5.97264 15.3278 5.96424 15.3128 5.95621C15.2977 5.94818 15.2825 5.94051 15.2671 5.93322C15.2517 5.92594 15.2361 5.91902 15.2204 5.9125C15.2046 5.90598 15.1887 5.89984 15.1726 5.8941C15.1566 5.88836 15.1404 5.88301 15.1241 5.87805C15.1078 5.87311 15.0913 5.86855 15.0748 5.86441C15.0583 5.86027 15.0416 5.85654 15.0249 5.85322C15.0082 5.84988 14.9914 5.84697 14.9745 5.84447C14.9577 5.84197 14.9408 5.83988 14.9238 5.8382C14.9068 5.83654 14.8898 5.83529 14.8728 5.83445C14.8558 5.83361 14.8387 5.8332 14.8217 5.8332C14.8046 5.8332 14.7876 5.83361 14.7705 5.83445C14.7535 5.83529 14.7365 5.83654 14.7196 5.8382C14.7026 5.83988 14.6857 5.84197 14.6688 5.84447C14.6519 5.84697 14.6351 5.84988 14.6184 5.85322C14.6017 5.85654 14.5851 5.86027 14.5685 5.86441C14.552 5.86855 14.5355 5.87311 14.5192 5.87805C14.5029 5.88301 14.4867 5.88836 14.4707 5.8941C14.4546 5.89984 14.4387 5.90598 14.423 5.9125C14.4072 5.91902 14.3916 5.92594 14.3762 5.93322C14.3608 5.94051 14.3456 5.94818 14.3306 5.95621C14.3155 5.96424 14.3007 5.97264 14.2861 5.98141C14.2714 5.99018 14.257 5.9993 14.2429 6.00877C14.2287 6.01824 14.2148 6.02807 14.2011 6.03822C14.1874 6.04838 14.1739 6.05887 14.1608 6.06967C14.1476 6.08049 14.1347 6.09162 14.122 6.10307C14.1094 6.11453 14.097 6.12629 14.085 6.13834L8.46166 11.6717L5.945 9.155C5.93295 9.14293 5.92061 9.13115 5.90797 9.11969C5.89533 9.10822 5.88244 9.09709 5.86926 9.08625C5.85607 9.07541 5.84264 9.06492 5.82894 9.05475C5.81525 9.04457 5.80133 9.03475 5.78715 9.02525C5.77297 9.01578 5.75857 9.00664 5.74394 8.99785C5.72932 8.98908 5.71447 8.98066 5.69943 8.97262C5.68439 8.96457 5.66916 8.95689 5.65375 8.94959C5.63834 8.94229 5.62275 8.93537 5.60699 8.92883C5.59123 8.92229 5.57533 8.91615 5.55928 8.91039C5.54322 8.90463 5.52703 8.89928 5.5107 8.89432C5.49439 8.88936 5.47795 8.8848 5.46141 8.88064C5.44486 8.87648 5.42824 8.87275 5.4115 8.86941C5.39477 8.86607 5.37797 8.86314 5.36109 8.86064C5.34424 8.85812 5.3273 8.85604 5.31033 8.85436C5.29336 8.85268 5.27635 8.85141 5.25932 8.85057C5.24227 8.84973 5.22521 8.8493 5.20816 8.8493C5.19111 8.84928 5.17406 8.84969 5.15701 8.85053C5.13998 8.85137 5.12297 8.85262 5.106 8.85428C5.08902 8.85594 5.07209 8.85803 5.05521 8.86053C5.03834 8.86301 5.02154 8.86592 5.0048 8.86926C4.98807 8.87258 4.97144 8.87631 4.9549 8.88045C4.93836 8.88459 4.92191 8.88914 4.90559 8.89408C4.88926 8.89902 4.87307 8.90438 4.85701 8.91012C4.84094 8.91586 4.82504 8.92199 4.80928 8.92852C4.79352 8.93504 4.77791 8.94195 4.7625 8.94924C4.74707 8.95652 4.73184 8.9642 4.7168 8.97225C4.70174 8.98027 4.68691 8.98867 4.67228 8.99744C4.65766 9.00621 4.64324 9.01533 4.62904 9.02481C4.61486 9.03428 4.60092 9.0441 4.58723 9.05426C4.57351 9.06443 4.56008 9.07492 4.54689 9.08574C4.53371 9.09656 4.52078 9.1077 4.50814 9.11916C4.49551 9.13062 4.48316 9.14238 4.47109 9.15443C4.45904 9.16648 4.44728 9.17885 4.43582 9.19148C4.42436 9.20412 4.41322 9.21703 4.4024 9.23022C4.39158 9.2434 4.38109 9.25686 4.37094 9.27055C4.36076 9.28426 4.35096 9.2982 4.34148 9.31238C4.33201 9.32656 4.32289 9.34098 4.31412 9.35561C4.30535 9.37023 4.29693 9.38508 4.28891 9.40012C4.28086 9.41518 4.2732 9.43041 4.26592 9.44582C4.25863 9.46125 4.25172 9.47684 4.24519 9.4926C4.23865 9.50836 4.23252 9.52428 4.22678 9.54033C4.22103 9.55641 4.21568 9.5726 4.21074 9.58893C4.2058 9.60523 4.20125 9.62168 4.19711 9.63822C4.19297 9.65477 4.18924 9.67141 4.18592 9.68814C4.1826 9.70488 4.17969 9.72168 4.17719 9.73855C4.17469 9.75543 4.1726 9.77236 4.17094 9.78934C4.16928 9.80631 4.16803 9.82332 4.16719 9.84035C4.16637 9.8574 4.16596 9.87445 4.16596 9.8915C4.16598 9.90856 4.16639 9.92561 4.16723 9.94264C4.16807 9.95969 4.16934 9.97668 4.17102 9.99365C4.17269 10.0106 4.17478 10.0276 4.1773 10.0444C4.17982 10.0613 4.18273 10.0781 4.18607 10.0948C4.18941 10.1116 4.19314 10.1282 4.1973 10.1447C4.20146 10.1613 4.20602 10.1777 4.21098 10.194C4.21594 10.2104 4.22129 10.2266 4.22705 10.2426C4.23281 10.2587 4.23895 10.2746 4.24549 10.2903C4.25203 10.3061 4.25894 10.3217 4.26625 10.3371C4.27355 10.3525 4.28123 10.3677 4.28928 10.3828C4.29734 10.3978 4.30576 10.4126 4.31453 10.4273C4.3233 10.4419 4.33244 10.4563 4.34193 10.4705C4.35141 10.4846 4.36123 10.4986 4.37141 10.5123C4.38158 10.526 4.39207 10.5394 4.40291 10.5526C4.41375 10.5658 4.4249 10.5787 4.43637 10.5913C4.44783 10.6039 4.45959 10.6163 4.47166 10.6283L7.77 13.9267Z"   fill="#A72D22" >
</path>
</svg>
