<svg xmlns="http://www.w3.org/2000/svg" xmlns:xlink="http://www.w3.org/1999/xlink" width="13" height="13" viewBox="0 0 13 13" fill="none">
<path d="M4.94432 6.93333C4.94049 6.93337 4.93666 6.93329 4.93283 6.93312C4.929 6.93294 4.92518 6.93266 4.92137 6.93228C4.91755 6.93191 4.91375 6.93143 4.90996 6.93084C4.90616 6.93026 4.90239 6.92957 4.89864 6.9288C4.89489 6.92802 4.89115 6.92714 4.88745 6.92616C4.88374 6.92518 4.88006 6.92411 4.87642 6.92293C4.87277 6.92175 4.86915 6.92048 4.86556 6.91913C4.86198 6.91777 4.85844 6.91631 4.85494 6.91474C4.85143 6.91318 4.84797 6.91155 4.84455 6.90981C4.84113 6.90807 4.83776 6.90624 4.83444 6.90432C4.83113 6.90241 4.82786 6.90041 4.82464 6.89832C4.82143 6.89622 4.81827 6.89405 4.81517 6.89179C4.81208 6.88953 4.80904 6.8872 4.80606 6.88478C4.80309 6.88236 4.80018 6.87987 4.79734 6.87729C4.79449 6.87472 4.79172 6.87208 4.78902 6.86935C4.78632 6.86663 4.78369 6.86384 4.78114 6.86098C4.77859 6.85812 4.77611 6.85519 4.77371 6.8522C4.77132 6.84921 4.769 6.84615 4.76677 6.84304C4.76452 6.83993 4.76237 6.83676 4.7603 6.83353C4.75824 6.8303 4.75626 6.82702 4.75436 6.82368C4.75247 6.82034 4.75066 6.81697 4.74895 6.81354C4.74724 6.81011 4.74562 6.80664 4.74409 6.80313C4.74256 6.79961 4.74112 6.79606 4.73978 6.79246C4.73844 6.78887 4.73719 6.78524 4.73604 6.78158C4.73489 6.77793 4.73384 6.77425 4.73289 6.77053C4.73194 6.76681 4.73108 6.76307 4.73033 6.75932C4.72958 6.75556 4.72892 6.75179 4.72836 6.74799C4.72781 6.7442 4.72736 6.7404 4.727 6.73658C4.72666 6.73276 4.72641 6.72894 4.72626 6.7251C4.72611 6.72127 4.72607 6.71743 4.72612 6.7136C4.72617 6.70977 4.72632 6.70593 4.72659 6.70211C4.72684 6.69829 4.7272 6.69447 4.72766 6.69067L4.89882 5.32567L3.95849 4.3225C3.95517 4.31899 3.95196 4.31537 3.94888 4.31165C3.9458 4.30793 3.94285 4.30409 3.94002 4.30017C3.9372 4.29625 3.9345 4.29224 3.93195 4.28814C3.92939 4.28404 3.92698 4.27985 3.9247 4.27558C3.92242 4.27131 3.92029 4.26697 3.9183 4.26257C3.91631 4.25816 3.91447 4.25369 3.91279 4.24916C3.91111 4.24463 3.90957 4.24005 3.90819 4.23541C3.90681 4.23078 3.90558 4.22611 3.90451 4.22138C3.90345 4.21667 3.90254 4.21193 3.9018 4.20715C3.90104 4.20237 3.90045 4.19757 3.90002 4.19276C3.8996 4.18794 3.89933 4.18312 3.89922 4.17828C3.89912 4.17345 3.89917 4.16862 3.89938 4.16378C3.8996 4.15896 3.89999 4.15415 3.90053 4.14934C3.90107 4.14453 3.90177 4.13975 3.90262 4.13499C3.90348 4.13023 3.9045 4.12551 3.90568 4.12082C3.90686 4.11614 3.90819 4.11149 3.90968 4.10688C3.91117 4.10228 3.91281 4.09773 3.91459 4.09325C3.91639 4.08876 3.91833 4.08433 3.92042 4.07997C3.92251 4.07562 3.92474 4.07133 3.92711 4.06711C3.92949 4.0629 3.932 4.05877 3.93465 4.05473C3.9373 4.05068 3.94009 4.04673 3.94301 4.04288C3.94592 4.03903 3.94896 4.03527 3.95213 4.03161C3.9553 4.02796 3.95858 4.02442 3.96198 4.02099C3.96539 4.01755 3.9689 4.01423 3.97253 4.01103C3.97616 4.00784 3.97989 4.00476 3.98372 4.00182C3.98755 3.99887 3.99148 3.99605 3.9955 3.99336C3.99952 3.99068 4.00363 3.98813 4.00781 3.98572C4.01201 3.98331 4.01628 3.98104 4.02062 3.97892C4.02497 3.9768 4.02938 3.97482 4.03385 3.97299C4.03833 3.97116 4.04286 3.96948 4.04745 3.96796C4.05204 3.96642 4.05667 3.96505 4.06135 3.96385C4.06603 3.96263 4.07075 3.96157 4.07549 3.96067L5.4275 3.70067L6.09267 2.496C6.09499 2.49175 6.09745 2.48759 6.10005 2.4835C6.10266 2.47942 6.1054 2.47543 6.10827 2.47153C6.11115 2.46762 6.11415 2.46382 6.11727 2.46013C6.12041 2.45642 6.12366 2.45283 6.12702 2.44935C6.13038 2.44587 6.13387 2.4425 6.13747 2.43925C6.14106 2.436 6.14475 2.43288 6.14856 2.42989C6.15236 2.42688 6.15626 2.42401 6.16026 2.42128C6.16425 2.41854 6.16834 2.41593 6.17251 2.41347C6.17668 2.41101 6.18092 2.40868 6.18525 2.4065C6.18958 2.40433 6.19399 2.40229 6.19844 2.40041C6.2029 2.39852 6.20742 2.39678 6.212 2.3952C6.21658 2.39362 6.22121 2.39219 6.22589 2.39092C6.23056 2.38965 6.23527 2.38854 6.24002 2.38758C6.24478 2.38663 6.24955 2.38583 6.25435 2.3852C6.25916 2.38456 6.26398 2.38409 6.26881 2.38379C6.27365 2.38348 6.27849 2.38332 6.28332 2.38333C6.28817 2.38332 6.29301 2.38348 6.29785 2.38379C6.30268 2.38409 6.3075 2.38456 6.31231 2.3852C6.31711 2.38583 6.32188 2.38663 6.32663 2.38758C6.33139 2.38854 6.3361 2.38965 6.34077 2.39092C6.34544 2.39219 6.35006 2.39362 6.35465 2.3952C6.35923 2.39678 6.36375 2.39852 6.36822 2.40041C6.37267 2.40229 6.37707 2.40433 6.3814 2.4065C6.38572 2.40868 6.38996 2.41101 6.39414 2.41347C6.39832 2.41593 6.40239 2.41854 6.40639 2.42128C6.41039 2.42401 6.41429 2.42688 6.4181 2.42989C6.42189 2.43288 6.4256 2.436 6.42919 2.43925C6.43279 2.4425 6.43628 2.44587 6.43964 2.44935C6.44301 2.45283 6.44626 2.45642 6.44938 2.46013C6.45251 2.46382 6.45551 2.46762 6.45838 2.47153C6.46126 2.47543 6.464 2.47942 6.46661 2.4835C6.46921 2.48759 6.47167 2.49175 6.47399 2.496L7.13917 3.70067L8.49117 3.96067C8.49591 3.96157 8.50062 3.96263 8.50531 3.96385C8.50999 3.96505 8.51463 3.96642 8.51921 3.96796C8.52379 3.96948 8.52832 3.97116 8.53281 3.97299C8.53729 3.97482 8.54169 3.9768 8.54603 3.97892C8.55038 3.98104 8.55464 3.98331 8.55883 3.98572C8.56302 3.98813 8.56712 3.99068 8.57115 3.99336C8.57517 3.99605 8.57911 3.99887 8.58293 4.00182C8.58676 4.00476 8.59049 4.00784 8.59412 4.01103C8.59774 4.01423 8.60126 4.01755 8.60466 4.02099C8.60808 4.02442 8.61136 4.02796 8.61453 4.03161C8.61769 4.03527 8.62073 4.03903 8.62365 4.04288C8.62656 4.04673 8.62934 4.05068 8.63199 4.05473C8.63465 4.05877 8.63716 4.0629 8.63954 4.06711C8.64191 4.07133 8.64414 4.07562 8.64624 4.07997C8.64833 4.08433 8.65026 4.08876 8.65205 4.09325C8.65384 4.09773 8.65549 4.10228 8.65698 4.10688C8.65846 4.11149 8.6598 4.11614 8.66098 4.12082C8.66216 4.12551 8.66317 4.13023 8.66402 4.13499C8.66489 4.13975 8.66559 4.14453 8.66613 4.14934C8.66667 4.15415 8.66705 4.15896 8.66726 4.16378C8.66748 4.16862 8.66754 4.17345 8.66743 4.17828C8.66733 4.18312 8.66706 4.18794 8.66663 4.19276C8.66621 4.19757 8.66561 4.20237 8.66486 4.20715C8.66411 4.21193 8.66321 4.21667 8.66213 4.22138C8.66107 4.22611 8.65985 4.23078 8.65846 4.23541C8.65708 4.24005 8.65556 4.24463 8.65387 4.24916C8.65218 4.25369 8.65034 4.25816 8.64836 4.26257C8.64637 4.26697 8.64423 4.27131 8.64196 4.27558C8.63969 4.27985 8.63726 4.28404 8.63471 4.28814C8.63216 4.29224 8.62947 4.29625 8.62664 4.30017C8.62381 4.30409 8.62086 4.30793 8.61778 4.31165C8.61469 4.31537 8.61148 4.31899 8.60817 4.3225L7.66782 5.32567L7.83899 6.69067C7.83944 6.6954 7.83973 6.70013 7.83987 6.70488C7.84001 6.70963 7.83998 6.71438 7.83982 6.71912C7.83964 6.72387 7.83931 6.72861 7.83883 6.73333C7.83833 6.73806 7.8377 6.74276 7.8369 6.74745C7.8361 6.75213 7.83516 6.75678 7.83406 6.7614C7.83295 6.76602 7.83171 6.7706 7.8303 6.77513C7.8289 6.77968 7.82735 6.78417 7.82565 6.7886C7.82395 6.79304 7.82211 6.79741 7.82013 6.80173C7.81814 6.80605 7.81602 6.81029 7.81376 6.81446C7.81148 6.81864 7.80908 6.82273 7.80655 6.82675C7.80402 6.83078 7.80135 6.8347 7.79856 6.83855C7.79577 6.84239 7.79285 6.84614 7.78981 6.84978C7.78678 6.85343 7.78362 6.85698 7.78034 6.86042C7.77708 6.86386 7.77369 6.8672 7.7702 6.87041C7.76671 6.87364 7.76311 6.87675 7.75942 6.87973C7.75573 6.88271 7.75193 6.88557 7.74805 6.8883C7.74416 6.89103 7.74019 6.89365 7.73614 6.89612C7.73209 6.8986 7.72795 6.90093 7.72375 6.90313C7.71954 6.90532 7.71527 6.90739 7.71091 6.90931C7.70657 6.91123 7.70216 6.91301 7.69771 6.91464C7.69325 6.91628 7.68873 6.91777 7.68418 6.9191C7.67962 6.92043 7.67502 6.92161 7.67039 6.92264C7.66575 6.92367 7.66108 6.92456 7.65639 6.92528C7.6517 6.92601 7.64699 6.92658 7.64226 6.927C7.63752 6.92741 7.63278 6.92767 7.62802 6.92777C7.62328 6.92787 7.61853 6.92782 7.61379 6.92762C7.60904 6.9274 7.60431 6.92705 7.59959 6.92653C7.59486 6.92601 7.59017 6.92532 7.58548 6.92449C7.58081 6.92367 7.57616 6.92268 7.57156 6.92155C7.56695 6.92042 7.56238 6.91914 7.55784 6.9177C7.55331 6.91627 7.54884 6.91468 7.54441 6.91295C7.53998 6.91123 7.53563 6.90935 7.53132 6.90733L6.28332 6.32883L5.03532 6.91383C5.0282 6.91708 5.02093 6.91994 5.0135 6.92239C5.00608 6.92484 4.99854 6.92689 4.99089 6.92853C4.98324 6.93017 4.97552 6.93139 4.96773 6.93219C4.95995 6.93299 4.95215 6.93337 4.94432 6.93333ZM4.54999 4.31167L5.29099 5.1025C5.2937 5.10541 5.29633 5.10838 5.29887 5.11143C5.3014 5.11447 5.30386 5.11758 5.30623 5.12077C5.3086 5.12396 5.31088 5.12719 5.31307 5.13051C5.31527 5.13382 5.31736 5.13719 5.31937 5.1406C5.32137 5.14402 5.32328 5.14749 5.32509 5.15102C5.32691 5.15455 5.32864 5.15813 5.33025 5.16175C5.33187 5.16537 5.3334 5.16904 5.33481 5.17275C5.33623 5.17644 5.33755 5.18018 5.33875 5.18397C5.33996 5.18774 5.34108 5.19155 5.34208 5.19539C5.34308 5.19923 5.34397 5.20309 5.34477 5.20697C5.34556 5.21087 5.34624 5.21478 5.34682 5.2187C5.3474 5.22262 5.34787 5.22656 5.34823 5.23051C5.34859 5.23446 5.34885 5.23842 5.34899 5.24238C5.34913 5.24635 5.34915 5.25031 5.34909 5.25427C5.34901 5.25825 5.34882 5.26221 5.34853 5.26617C5.34824 5.27012 5.34784 5.27407 5.34732 5.278L5.213 6.36133L6.19667 5.89983C6.20026 5.89814 6.20389 5.89657 6.20756 5.89508C6.21123 5.8936 6.21495 5.89221 6.21869 5.89093C6.22245 5.88965 6.22623 5.88848 6.23004 5.8874C6.23386 5.88632 6.2377 5.88536 6.24157 5.88449C6.24544 5.88363 6.24933 5.88287 6.25324 5.88222C6.25715 5.88158 6.26107 5.88103 6.26502 5.8806C6.26895 5.88017 6.2729 5.87984 6.27686 5.87962C6.28082 5.8794 6.28478 5.87929 6.28874 5.87929C6.29271 5.87929 6.29667 5.8794 6.30063 5.87962C6.30459 5.87984 6.30854 5.88017 6.31247 5.8806C6.31642 5.88103 6.32034 5.88158 6.32425 5.88222C6.32816 5.88287 6.33205 5.88363 6.33592 5.88449C6.33979 5.88536 6.34363 5.88632 6.34745 5.8874C6.35127 5.88848 6.35505 5.88965 6.3588 5.89093C6.36254 5.89221 6.36626 5.8936 6.36993 5.89508C6.3736 5.89657 6.37723 5.89814 6.38082 5.89983L7.36667 6.35483L7.23232 5.2715C7.23182 5.26757 7.23142 5.26362 7.23113 5.25967C7.23084 5.25571 7.23065 5.25175 7.23057 5.24779C7.2305 5.24381 7.23053 5.23985 7.23067 5.23588C7.23081 5.23192 7.23107 5.22796 7.23143 5.22401C7.23179 5.22006 7.23226 5.21613 7.23283 5.2122C7.2334 5.20828 7.23409 5.20437 7.23489 5.20047C7.23568 5.19659 7.23658 5.19273 7.23758 5.18889C7.23858 5.18505 7.23969 5.18124 7.24091 5.17747C7.24211 5.17368 7.24343 5.16994 7.24485 5.16625C7.24626 5.16254 7.24779 5.15887 7.2494 5.15525C7.25102 5.15163 7.25274 5.14805 7.25455 5.14452C7.25637 5.14099 7.25829 5.13752 7.26029 5.1341C7.2623 5.13069 7.26439 5.12732 7.26659 5.12401C7.26878 5.12069 7.27106 5.11746 7.27343 5.11427C7.27581 5.11108 7.27826 5.10797 7.28079 5.10493C7.28333 5.10188 7.28596 5.09891 7.28867 5.096L8.01667 4.31167L6.95717 4.11667C6.95326 4.11592 6.94937 4.11509 6.94551 4.11413C6.94165 4.11318 6.93782 4.11212 6.93402 4.11096C6.93023 4.1098 6.92646 4.10854 6.92274 4.10716C6.919 4.10579 6.91531 4.10432 6.91167 4.10275C6.90801 4.10117 6.9044 4.0995 6.90085 4.09773C6.89729 4.09595 6.89379 4.09409 6.89032 4.09212C6.88687 4.09015 6.88347 4.0881 6.88013 4.08595C6.87679 4.0838 6.87352 4.08156 6.87029 4.07922C6.86708 4.0769 6.86393 4.07447 6.86085 4.07197C6.85776 4.06947 6.85474 4.06688 6.85179 4.0642C6.84886 4.06152 6.84599 4.05878 6.8432 4.05595C6.84041 4.05312 6.83769 4.05023 6.83506 4.04724C6.83243 4.04426 6.82988 4.04121 6.82742 4.03809C6.82496 4.03498 6.82258 4.03179 6.82028 4.02854C6.818 4.02529 6.8158 4.02198 6.8137 4.01861C6.81159 4.01525 6.80958 4.01182 6.80767 4.00833L6.28332 3.0485L5.759 3.9975C5.75708 4.00098 5.75506 4.00441 5.75295 4.00779C5.75086 4.01115 5.74866 4.01446 5.74636 4.01771C5.74408 4.02096 5.7417 4.02415 5.73924 4.02726C5.73678 4.03037 5.73423 4.03342 5.7316 4.0364C5.72897 4.03938 5.72625 4.04229 5.72346 4.04512C5.72067 4.04795 5.7178 4.0507 5.71485 4.05336C5.71192 4.05604 5.7089 4.05863 5.70581 4.06113C5.70273 4.06363 5.69958 4.06606 5.69636 4.06839C5.69314 4.07072 5.68986 4.07296 5.68652 4.07512C5.68318 4.07727 5.67979 4.07932 5.67632 4.08129C5.67287 4.08326 5.66937 4.08512 5.66581 4.08689C5.66224 4.08867 5.65864 4.09034 5.65499 4.0919C5.65135 4.09348 5.64766 4.09495 5.64392 4.09632C5.64019 4.09769 5.63642 4.09896 5.63263 4.10013C5.62883 4.10129 5.625 4.10235 5.62114 4.1033C5.61728 4.10426 5.61339 4.10509 5.6095 4.10583L4.54999 4.31167Z"   fill="#808080" >
</path>
<path d="M9.74998 1.0465L10.8702 2.16667L9.74998 2.16667L9.74998 1.0465ZM9.31665 0L9.31665 2.6L11.9167 2.6L9.31665 0Z"   fill="#808080" >
</path>
<path d="M9.13675 0.433333L11.4833 2.77983L11.4833 12.1333C11.4833 12.1404 11.4831 12.1475 11.4827 12.1546C11.4824 12.1617 11.4819 12.1687 11.4812 12.1758C11.4805 12.1829 11.4796 12.1899 11.4786 12.1969C11.4775 12.2039 11.4763 12.2109 11.4749 12.2179C11.4735 12.2248 11.472 12.2317 11.4703 12.2386C11.4685 12.2455 11.4667 12.2523 11.4646 12.2591C11.4625 12.2659 11.4603 12.2726 11.4579 12.2793C11.4555 12.286 11.453 12.2926 11.4503 12.2992C11.4476 12.3057 11.4447 12.3122 11.4416 12.3186C11.4386 12.325 11.4354 12.3314 11.4321 12.3376C11.4287 12.3439 11.4252 12.35 11.4216 12.3561C11.4179 12.3622 11.4142 12.3682 11.4102 12.3741C11.4063 12.38 11.4022 12.3858 11.398 12.3915C11.3937 12.3972 11.3894 12.4028 11.3849 12.4082C11.3804 12.4137 11.3758 12.4191 11.371 12.4243C11.3662 12.4296 11.3613 12.4347 11.3563 12.4397C11.3513 12.4448 11.3462 12.4496 11.3409 12.4544C11.3357 12.4592 11.3303 12.4638 11.3248 12.4683C11.3193 12.4728 11.3137 12.4772 11.3081 12.4814C11.3024 12.4856 11.2966 12.4897 11.2907 12.4936C11.2848 12.4976 11.2788 12.5014 11.2727 12.505C11.2666 12.5087 11.2604 12.5122 11.2542 12.5155C11.2479 12.5188 11.2416 12.522 11.2352 12.5251C11.2288 12.5281 11.2223 12.531 11.2157 12.5337C11.2092 12.5364 11.2026 12.5389 11.1959 12.5413C11.1892 12.5437 11.1825 12.546 11.1757 12.548C11.1689 12.5501 11.1621 12.552 11.1552 12.5537C11.1483 12.5554 11.1414 12.557 11.1345 12.5583C11.1275 12.5597 11.1205 12.5609 11.1135 12.562C11.1065 12.563 11.0995 12.5639 11.0924 12.5646C11.0853 12.5653 11.0783 12.5658 11.0712 12.5662C11.0641 12.5665 11.057 12.5667 11.0499 12.5667L1.94992 12.5667C1.94283 12.5667 1.93574 12.5665 1.92865 12.5662C1.92157 12.5658 1.9145 12.5653 1.90744 12.5646C1.90038 12.5639 1.89335 12.563 1.88634 12.562C1.87932 12.5609 1.87234 12.5597 1.86538 12.5583C1.85842 12.557 1.85151 12.5554 1.84462 12.5537C1.83774 12.552 1.83091 12.5501 1.82413 12.548C1.81735 12.546 1.81061 12.5437 1.80394 12.5413C1.79726 12.5389 1.79064 12.5364 1.78409 12.5337C1.77754 12.531 1.77106 12.5281 1.76464 12.5251C1.75824 12.522 1.75191 12.5188 1.74565 12.5155C1.7394 12.5122 1.73323 12.5087 1.72714 12.505C1.72106 12.5014 1.71507 12.4976 1.70918 12.4936C1.70328 12.4897 1.69748 12.4856 1.69179 12.4814C1.68609 12.4772 1.6805 12.4728 1.67501 12.4683C1.66953 12.4638 1.66416 12.4592 1.6589 12.4544C1.65366 12.4496 1.64852 12.4448 1.6435 12.4397C1.63849 12.4347 1.63361 12.4296 1.62884 12.4243C1.62408 12.4191 1.61945 12.4137 1.61495 12.4082C1.61045 12.4028 1.60609 12.3972 1.60186 12.3915C1.59764 12.3858 1.59356 12.38 1.58961 12.3741C1.58568 12.3682 1.58189 12.3622 1.57824 12.3561C1.57459 12.35 1.57109 12.3439 1.56775 12.3376C1.56441 12.3314 1.56122 12.325 1.55819 12.3186C1.55516 12.3122 1.55229 12.3057 1.54957 12.2992C1.54686 12.2926 1.5443 12.286 1.54192 12.2793C1.53953 12.2726 1.5373 12.2659 1.53524 12.2591C1.53318 12.2523 1.53129 12.2455 1.52958 12.2386C1.52785 12.2317 1.5263 12.2248 1.52492 12.2179C1.52353 12.2109 1.52232 12.2039 1.52127 12.1969C1.52023 12.1899 1.51937 12.1829 1.51867 12.1758C1.51798 12.1687 1.51746 12.1617 1.51711 12.1546C1.51676 12.1475 1.51659 12.1404 1.51659 12.1333L1.51659 0.866667C1.51659 0.859574 1.51676 0.852486 1.51711 0.845404C1.51746 0.838321 1.51798 0.83125 1.51867 0.824192C1.51937 0.817135 1.52023 0.810098 1.52127 0.803084C1.52232 0.796068 1.52353 0.789083 1.52492 0.782128C1.5263 0.775172 1.52785 0.768254 1.52958 0.761375C1.53129 0.754495 1.53318 0.747662 1.53524 0.740877C1.5373 0.73409 1.53953 0.727358 1.54192 0.720681C1.5443 0.714005 1.54686 0.707389 1.54957 0.700837C1.55229 0.694285 1.55516 0.687804 1.55819 0.681393C1.56122 0.674982 1.56441 0.668649 1.56775 0.662394C1.57109 0.656139 1.57459 0.649971 1.57824 0.643888C1.58189 0.637806 1.58568 0.631817 1.58961 0.62592C1.59356 0.620023 1.59764 0.614227 1.60186 0.608531C1.60609 0.602834 1.61045 0.597245 1.61495 0.591763C1.61945 0.586281 1.62408 0.580912 1.62884 0.575658C1.63361 0.570403 1.63849 0.565269 1.6435 0.560254C1.64852 0.55524 1.65366 0.550351 1.6589 0.545587C1.66416 0.540825 1.66953 0.536194 1.67501 0.531695C1.6805 0.527197 1.68609 0.522835 1.69179 0.51861C1.69748 0.514386 1.70328 0.510303 1.70918 0.506363C1.71507 0.502423 1.72106 0.49863 1.72714 0.494984C1.73323 0.491339 1.7394 0.487844 1.74565 0.484501C1.75191 0.481159 1.75824 0.477971 1.76464 0.474938C1.77106 0.471905 1.77754 0.469032 1.78409 0.466319C1.79064 0.463605 1.79726 0.461053 1.80394 0.458664C1.81061 0.456275 1.81735 0.45405 1.82413 0.451992C1.83091 0.449935 1.83774 0.448043 1.84462 0.44632C1.85151 0.444597 1.85842 0.443044 1.86538 0.44166C1.87234 0.440276 1.87932 0.439064 1.88634 0.438024C1.89335 0.436983 1.90038 0.436114 1.90744 0.43542C1.9145 0.434726 1.92157 0.434204 1.92865 0.433855C1.93574 0.433507 1.94283 0.433333 1.94992 0.433333L9.13675 0.433333ZM9.31659 6.16173e-15L1.94992 6.16173e-15C1.93573 -1.69081e-09 1.92156 0.000347976 1.90739 0.00104393C1.89322 0.00173989 1.87908 0.00278299 1.86497 0.00417323C1.85086 0.00556347 1.83678 0.00729917 1.82275 0.00938035C1.80872 0.0114615 1.79475 0.0138856 1.78084 0.0166527C1.76693 0.0194199 1.75309 0.0225266 1.73934 0.025973C1.72558 0.0294192 1.71191 0.033201 1.69834 0.0373184C1.68477 0.0414356 1.67131 0.0458834 1.65795 0.0506618C1.6446 0.0554402 1.63136 0.0605432 1.61825 0.0659711C1.60515 0.0713989 1.59219 0.077145 1.57937 0.0832093C1.56655 0.0892736 1.55388 0.0956488 1.54137 0.102335C1.52886 0.109021 1.51653 0.11601 1.50436 0.123302C1.49219 0.130594 1.48021 0.13818 1.46842 0.14606C1.45663 0.15394 1.44504 0.162105 1.43365 0.170554C1.42226 0.179003 1.41108 0.187727 1.40011 0.196724C1.38915 0.205722 1.37841 0.214984 1.3679 0.224509C1.35739 0.234034 1.34712 0.243811 1.33709 0.25384C1.32706 0.26387 1.31729 0.274139 1.30776 0.284649C1.29823 0.295158 1.28897 0.305895 1.27997 0.31686C1.27098 0.327823 1.26225 0.339002 1.25381 0.350394C1.24536 0.361786 1.23719 0.373379 1.22931 0.385172C1.22143 0.396966 1.21385 0.408945 1.20655 0.421111C1.19926 0.433277 1.19227 0.445614 1.18559 0.458123C1.1789 0.470632 1.17253 0.483298 1.16646 0.496119C1.1604 0.508941 1.15465 0.521904 1.14922 0.535007C1.1438 0.548111 1.13869 0.561341 1.13391 0.574695C1.12914 0.588049 1.12469 0.601514 1.12057 0.615087C1.11645 0.628659 1.11267 0.642326 1.10923 0.656084C1.10578 0.669842 1.10267 0.683677 1.09991 0.697588C1.09714 0.7115 1.09471 0.725471 1.09263 0.739501C1.09055 0.75353 1.08882 0.767603 1.08743 0.781719C1.08604 0.795834 1.08499 0.809975 1.0843 0.824142C1.0836 0.838308 1.08325 0.852483 1.08325 0.866667L1.08325 12.1333C1.08325 12.1475 1.0836 12.1617 1.0843 12.1759C1.08499 12.19 1.08604 12.2042 1.08743 12.2183C1.08882 12.2324 1.09055 12.2465 1.09263 12.2605C1.09471 12.2745 1.09714 12.2885 1.09991 12.3024C1.10267 12.3163 1.10578 12.3302 1.10923 12.3439C1.11267 12.3577 1.11645 12.3713 1.12057 12.3849C1.12469 12.3985 1.12914 12.412 1.13391 12.4253C1.13869 12.4387 1.1438 12.4519 1.14922 12.465C1.15465 12.4781 1.1604 12.4911 1.16646 12.5039C1.17253 12.5167 1.1789 12.5294 1.18559 12.5419C1.19227 12.5544 1.19926 12.5667 1.20655 12.5789C1.21385 12.5911 1.22143 12.603 1.22931 12.6148C1.23719 12.6266 1.24536 12.6382 1.25381 12.6496C1.26225 12.661 1.27098 12.6722 1.27997 12.6831C1.28897 12.6941 1.29823 12.7048 1.30776 12.7154C1.31729 12.7259 1.32706 12.7362 1.33709 12.7462C1.34712 12.7563 1.35739 12.766 1.3679 12.7755C1.37841 12.7851 1.38915 12.7942 1.40011 12.8032C1.41108 12.8122 1.42226 12.821 1.43365 12.8295C1.44504 12.8379 1.45663 12.846 1.46842 12.8539C1.48021 12.8619 1.49219 12.8695 1.50436 12.8767C1.51653 12.884 1.52886 12.8909 1.54137 12.8977C1.55388 12.9044 1.56655 12.9108 1.57937 12.9168C1.59219 12.9228 1.60515 12.9285 1.61825 12.934C1.63136 12.9394 1.6446 12.9445 1.65795 12.9493C1.67131 12.954 1.68477 12.9585 1.69834 12.9627C1.71191 12.9669 1.72558 12.9705 1.73934 12.974C1.75309 12.9774 1.76693 12.9806 1.78084 12.9834C1.79475 12.9862 1.80872 12.9886 1.82275 12.9906C1.83678 12.9928 1.85086 12.9944 1.86497 12.9958C1.87908 12.9972 1.89322 12.9983 1.90739 12.999C1.92156 12.9996 1.93573 13 1.94992 13L11.0499 13C11.0641 13 11.0783 12.9996 11.0925 12.999C11.1066 12.9983 11.1207 12.9972 11.1349 12.9958C11.149 12.9944 11.1631 12.9928 11.1771 12.9906C11.1911 12.9886 11.2051 12.9862 11.219 12.9834C11.2329 12.9806 11.2467 12.9774 11.2605 12.974C11.2743 12.9705 11.2879 12.9669 11.3015 12.9627C11.3151 12.9585 11.3285 12.954 11.3419 12.9493C11.3552 12.9445 11.3685 12.9394 11.3816 12.934C11.3947 12.9285 11.4077 12.9228 11.4205 12.9168C11.4333 12.9108 11.446 12.9044 11.4585 12.8977C11.471 12.8909 11.4833 12.884 11.4955 12.8767C11.5076 12.8695 11.5196 12.8619 11.5314 12.8539C11.5432 12.846 11.5548 12.8379 11.5662 12.8295C11.5776 12.821 11.5888 12.8122 11.5997 12.8032C11.6107 12.7942 11.6214 12.7851 11.6319 12.7755C11.6425 12.766 11.6527 12.7563 11.6628 12.7462C11.6728 12.7362 11.6826 12.7259 11.6921 12.7154C11.7016 12.7048 11.7109 12.6941 11.7199 12.6831C11.7289 12.6722 11.7376 12.661 11.746 12.6496C11.7545 12.6382 11.7627 12.6266 11.7705 12.6148C11.7784 12.603 11.786 12.5911 11.7933 12.5789C11.8006 12.5667 11.8076 12.5544 11.8143 12.5419C11.8209 12.5294 11.8273 12.5167 11.8334 12.5039C11.8394 12.4911 11.8452 12.4781 11.8506 12.465C11.856 12.4519 11.8611 12.4387 11.8659 12.4253C11.8707 12.412 11.8752 12.3985 11.8793 12.3849C11.8834 12.3713 11.8872 12.3577 11.8906 12.3439C11.8941 12.3302 11.8972 12.3163 11.8999 12.3024C11.9027 12.2885 11.9051 12.2745 11.9072 12.2605C11.9093 12.2465 11.911 12.2324 11.9124 12.2183C11.9138 12.2042 11.9148 12.19 11.9155 12.1759C11.9162 12.1617 11.9166 12.1475 11.9166 12.1333L11.9166 2.6L9.31659 6.16173e-15Z"   fill="#808080" >
</path>
<path d="M9.09988 8.66666L3.46655 8.66666L3.46655 9.09999L9.09988 9.09999L9.09988 8.66666ZM9.09988 10.4L3.46655 10.4L3.46655 10.8333L9.09988 10.8333L9.09988 10.4Z"   fill="#808080" >
</path>
</svg>
