<svg xmlns="http://www.w3.org/2000/svg" xmlns:xlink="http://www.w3.org/1999/xlink" width="28" height="28" viewBox="0 0 28 28" fill="none">
<circle cx="14" cy="14" r="14"   fill="#A72D22" >
</circle>
<path d="M10.9641 13.0859C12.0469 15.2094 13.7906 16.9531 15.9141 18.0359L17.5594 16.3906C17.7563 16.1937 18.0656 16.1234 18.3188 16.2078C19.1625 16.4891 20.0766 16.6297 21.0047 16.6297C21.4125 16.6297 21.75 16.9672 21.75 17.375L21.75 19.9906C21.75 20.3984 21.4125 20.7359 21.0047 20.7359C13.9594 20.75 8.25 15.0406 8.25 7.99531C8.25 7.5875 8.5875 7.25 8.99531 7.25L11.625 7.25C12.0328 7.25 12.3703 7.57344 12.3703 7.98125C12.3703 8.92344 12.525 9.82344 12.7922 10.6672C12.8766 10.9344 12.8203 11.2156 12.6094 11.4266L10.9641 13.0859Z"   fill="#FFFFFF" >
</path>
</svg>
